<?xml version="1.0" standalone="no"?>
<!DOCTYPE svg PUBLIC "-//W3C//DTD SVG 1.1//EN" "http://www.w3.org/Graphics/SVG/1.1/DTD/svg11.dtd" >
<svg xmlns="http://www.w3.org/2000/svg" xmlns:xlink="http://www.w3.org/1999/xlink" version="1.1">
<metadata>
Created by FontForge 20170731 at Thu Dec 17 19:43:58 2015
 By Aleksey,,,
(c)2009 Commercial Type.
</metadata>
<defs>
<font id="GraphikWeb-ExtralightItalic" horiz-adv-x="600" >
  <font-face 
    font-family="Graphik Web Extralight"
    font-weight="200"
    font-style="italic"
    font-stretch="normal"
    units-per-em="1000"
    panose-1="2 11 3 3 3 2 2 13 2 3"
    ascent="818"
    descent="-182"
    x-height="523"
    cap-height="715"
    bbox="-241 -211 1034 1079"
    underline-thickness="50"
    underline-position="-150"
    slope="-8"
    unicode-range="U+0020-FB02"
  />
<missing-glyph horiz-adv-x="364" 
d="M33 0v666h265v-666h-265zM66 33h199v600h-199v-600z" />
    <glyph glyph-name="f_f" unicode="ff" horiz-adv-x="593" 
d="M413 494h-237l-78 -494h-34l77 494h-82l5 29h82l15 94q7 43 22 72t36.5 46t47 24.5t53.5 7.5q19 0 33 -2.5t26 -6.5l-4 -29q-13 5 -25.5 7t-28.5 2q-23 0 -43 -5.5t-36.5 -19t-28.5 -37.5t-18 -60l-15 -93h237l16 99q7 44 22.5 73.5t37 47.5t47.5 25.5t54 7.5q20 0 34 -2
t26 -7l-4 -29q-13 5 -25.5 7t-29.5 2q-23 0 -43.5 -6t-37 -20t-28.5 -38.5t-18 -61.5l-16 -98h156l-5 -29h-155l-79 -494h-34z" />
    <glyph glyph-name=".notdef" horiz-adv-x="364" 
d="M33 0v666h265v-666h-265zM66 33h199v600h-199v-600z" />
    <glyph glyph-name=".null" horiz-adv-x="0" 
 />
    <glyph glyph-name="nonmarkingreturn" horiz-adv-x="333" 
 />
    <glyph glyph-name="space" unicode=" " horiz-adv-x="235" 
 />
    <glyph glyph-name="exclam" unicode="!" horiz-adv-x="262" 
d="M184 715h38l-92 -550h-28zM93 -5q-12 0 -20.5 8.5t-8.5 20.5t8 20.5t21 8.5q12 0 20.5 -8.5t8.5 -20.5t-8.5 -20.5t-20.5 -8.5z" />
    <glyph glyph-name="quotedbl" unicode="&#x22;" horiz-adv-x="261" 
d="M127 715h38l-35 -186h-27zM238 715h37l-34 -186h-27z" />
    <glyph glyph-name="numbersign" unicode="#" horiz-adv-x="484" 
d="M302 303h-135l-48 -204h-30l48 204h-95l4 30h98l40 172h-96l4 30h99l43 180h30l-43 -180h135l43 180h30l-43 -180h98l-5 -30h-100l-40 -172h99l-5 -30h-101l-48 -204h-30zM174 333h135l40 172h-135z" />
    <glyph glyph-name="dollar" unicode="$" horiz-adv-x="591" 
d="M265 -7l-20 -128h-30l20 131q-89 10 -144.5 60t-60.5 141h34q7 -75 52 -119t124 -53l53 335q-96 28 -140.5 67t-44.5 106q0 45 17.5 80t48 59t72.5 37t91 13h13l15 91h30l-15 -94q76 -9 123.5 -50.5t53.5 -115.5h-33q-9 62 -47.5 95t-101.5 41l-48 -306q50 -14 87 -29
t61.5 -35.5t36.5 -48t12 -66.5q0 -50 -18 -89t-50.5 -66t-77 -41.5t-97.5 -14.5h-16zM489 202q0 31 -9.5 53.5t-30 40t-52 30.5t-75.5 26l-52 -329h11q46 0 84.5 11.5t66 34.5t42.5 56t15 77zM143 534q0 -26 8 -46.5t26.5 -37.5t48 -31.5t72.5 -27.5l48 301h-11
q-42 0 -77.5 -10t-61 -30t-39.5 -49.5t-14 -68.5z" />
    <glyph glyph-name="percent" unicode="%" horiz-adv-x="755" 
d="M122 548q1 -48 29.5 -80.5t79.5 -32.5q58 0 94 39t35 102q0 23 -7.5 44t-21.5 37t-34.5 25.5t-46.5 9.5q-29 0 -52.5 -11.5t-40.5 -31t-26 -45.5t-9 -56zM231 407q-31 0 -57 10.5t-44.5 29.5t-29 45t-10.5 57q0 34 12 65.5t33.5 54.5t51 37t64.5 14q30 0 56 -11t45 -30.5
t30 -45.5t11 -57q0 -37 -12.5 -68t-34.5 -53.5t-51.5 -35t-63.5 -12.5zM663 715h36l-579 -715h-36zM422 135q1 -48 29.5 -80.5t79.5 -32.5q28 0 52 10.5t41.5 29.5t26.5 45t9 57q0 23 -7.5 44t-21.5 36.5t-34.5 25t-46.5 9.5q-29 0 -53 -11.5t-40.5 -31t-25.5 -45.5t-9 -56z
M531 -6q-31 0 -57 10.5t-45 29.5t-29.5 45t-10.5 57q0 34 12 65.5t33.5 54.5t51.5 37t65 14q30 0 56 -11t45 -30.5t29.5 -45.5t10.5 -57q0 -37 -12.5 -68t-34.5 -53.5t-51 -35t-63 -12.5z" />
    <glyph glyph-name="ampersand" unicode="&#x26;" horiz-adv-x="644" 
d="M529 0l-77 114q-18 -22 -41 -43.5t-51 -39t-60.5 -28t-69.5 -10.5q-39 0 -74.5 11t-62.5 33t-43 56t-16 79q0 48 17.5 83.5t47.5 63t69 48.5t81 38q-26 39 -42.5 75.5t-16.5 76.5q0 34 12 64t33.5 51.5t51 34t64.5 12.5q61 0 97.5 -37.5t36.5 -95.5q0 -40 -17.5 -70
t-45.5 -52.5t-61.5 -39t-64.5 -29.5l161 -231l129 193h35l-148 -217l97 -140h-41zM71 173q0 -70 44.5 -110t115.5 -40q32 0 61.5 10t56 26.5t48.5 37t39 41.5l-172 245q-37 -15 -71.5 -33t-61.5 -42.5t-43.5 -57t-16.5 -77.5zM350 690q-28 0 -51 -9.5t-39.5 -27t-26 -42
t-9.5 -52.5q0 -36 16 -70t42 -72q28 12 57.5 26t54.5 33.5t41 46t16 63.5q0 45 -25.5 74.5t-75.5 29.5z" />
    <glyph glyph-name="quotesingle" unicode="'" horiz-adv-x="151" 
d="M127 715h38l-35 -186h-27z" />
    <glyph glyph-name="parenleft" unicode="(" horiz-adv-x="285" 
d="M163 -148q-46 69 -76 158.5t-30 199.5q0 85 18 164.5t50 150.5t77.5 133.5t99.5 114.5h38q-117 -116 -182.5 -256.5t-65.5 -306.5q0 -108 30 -197t75 -161h-34v0z" />
    <glyph glyph-name="parenright" unicode=")" horiz-adv-x="285" 
d="M137 774q45 -69 75.5 -158.5t30.5 -199.5q0 -86 -18 -165t-50.5 -150t-78 -133.5t-99.5 -114.5h-38q117 116 183 256.5t66 306.5q0 108 -30 197t-75 161h34v0z" />
    <glyph glyph-name="asterisk" unicode="*" horiz-adv-x="415" 
d="M120 461l115 112l-131 56l15 29l127 -62l21 147h32l-26 -149l143 42l5 -29l-144 -36l75 -127l-28 -16l-72 128l-109 -116z" />
    <glyph glyph-name="plus" unicode="+" horiz-adv-x="505" 
d="M246 327h-200l5 30h200l34 215h32l-35 -215h200l-5 -30h-200l-33 -214h-32z" />
    <glyph glyph-name="comma" unicode="," horiz-adv-x="195" 
d="M-20 -100l81 160l32 -16l-90 -157z" />
    <glyph glyph-name="hyphen" unicode="-" horiz-adv-x="333" 
d="M66 295h206l-5 -33h-207z" />
    <glyph glyph-name="period" unicode="." horiz-adv-x="195" 
d="M59 -5q-13 0 -21 8.5t-8 20.5t8 20.5t20 8.5q13 0 21 -8.5t8 -20.5t-8 -20.5t-20 -8.5z" />
    <glyph glyph-name="slash" unicode="/" horiz-adv-x="383" 
d="M387 776h35l-436 -924h-34z" />
    <glyph glyph-name="zero" unicode="0" horiz-adv-x="646" 
d="M305 -7q-65 0 -111.5 19.5t-76.5 54.5t-44 82t-14 103q0 23 1.5 44.5t5.5 44.5l11 71q24 148 102 229t196 81q63 0 108.5 -20t74 -54.5t42.5 -82t14 -101.5q0 -22 -1.5 -44.5t-5.5 -44.5l-12 -71q-24 -150 -96.5 -230.5t-193.5 -80.5zM306 24q106 0 168.5 71.5
t85.5 211.5l12 71q6 42 6 86q0 47 -11 88.5t-35.5 72.5t-63.5 49t-94 18q-105 0 -172.5 -73t-89.5 -210l-11 -70q-7 -41 -7 -87q0 -48 11.5 -89.5t36.5 -72.5t65.5 -48.5t98.5 -17.5z" />
    <glyph glyph-name="one" unicode="1" horiz-adv-x="348" 
d="M254 673l-183 -113l5 35l193 120h27l-113 -715h-36z" />
    <glyph glyph-name="two" unicode="2" horiz-adv-x="527" 
d="M-29 9l342 288q33 28 61 56t49 58t32.5 63t11.5 72q0 66 -40 106t-113 40q-71 0 -125.5 -41t-76.5 -136h-34q10 53 32.5 92t54 64.5t70 38t80.5 12.5t76.5 -12.5t59 -35.5t38 -55t13.5 -72q0 -44 -13 -80.5t-35.5 -68.5t-53 -61.5t-65.5 -58.5l-294 -247h399l-5 -31h-466
z" />
    <glyph glyph-name="three" unicode="3" horiz-adv-x="544" 
d="M246 -7q-49 0 -90 13.5t-70.5 39.5t-46 64t-16.5 86h34q2 -81 52 -126.5t138 -45.5q42 0 79 11.5t64 35t43 59.5t16 85q0 29 -9 55t-28 46t-48.5 31.5t-70.5 11.5h-44l5 31h52q35 0 66 9.5t54 30t36.5 51t13.5 72.5q0 63 -40 100.5t-110 37.5q-72 0 -123.5 -41.5
t-68.5 -116.5h-33q7 43 28 78t51 60t68 38t79 13q38 0 71.5 -11t58.5 -32t39.5 -52.5t14.5 -72.5q0 -70 -38 -117.5t-107 -62.5q55 -14 87 -56t32 -104q0 -54 -19 -95t-51 -69t-76 -42.5t-93 -14.5z" />
    <glyph glyph-name="four" unicode="4" horiz-adv-x="581" 
d="M389 167h-374l2 11l440 537h55l-82 -517h99l-5 -31h-99l-26 -167h-36zM395 198l77 490l-402 -490h325z" />
    <glyph glyph-name="five" unicode="5" horiz-adv-x="545" 
d="M239 -7q-46 0 -84.5 12.5t-67 36.5t-45.5 58.5t-20 77.5h34q6 -69 53.5 -111.5t129.5 -42.5q51 0 91 17.5t67.5 48.5t42 74t14.5 94q0 37 -11.5 68.5t-33.5 54.5t-53 36t-70 13q-64 0 -108 -24t-76 -59h-14l59 368h382l-5 -31h-351l-45 -287q24 24 66.5 44t98.5 20
q44 0 80 -15t62 -41.5t40.5 -63.5t14.5 -82q0 -57 -17 -105.5t-49.5 -84t-79 -56t-105.5 -20.5z" />
    <glyph glyph-name="six" unicode="6" horiz-adv-x="588" 
d="M283 -7q-106 0 -164.5 58t-58.5 170q0 24 3 47.5t6 45.5l11 64q28 179 103.5 261.5t192.5 82.5q84 0 134 -39.5t55 -116.5h-34q-12 125 -156 125q-51 0 -92.5 -17.5t-74 -55t-56 -96.5t-37.5 -142l-9 -56q33 63 90.5 94t123.5 31q45 0 84 -12.5t68 -37.5t45.5 -61
t16.5 -84q0 -56 -18 -103.5t-50.5 -82.5t-79 -55t-103.5 -20zM96 206q0 -83 48.5 -133t138.5 -50q50 0 90 17.5t68 48.5t43 73t15 91q0 39 -13.5 70t-38 52.5t-58.5 32.5t-75 11q-45 0 -84.5 -15.5t-69 -43t-47 -67t-17.5 -87.5z" />
    <glyph glyph-name="seven" unicode="7" horiz-adv-x="491" 
d="M491 685h-400l5 30h448l-1 -7l-400 -708h-38z" />
    <glyph glyph-name="eight" unicode="8" horiz-adv-x="568" 
d="M268 -7q-43 0 -84 11.5t-73 35t-51.5 59t-19.5 83.5q0 46 15 81.5t41.5 61.5t63 42.5t79.5 22.5q-49 14 -83 52.5t-34 98.5q0 42 18 76t47.5 57t68 35.5t80.5 12.5q38 0 73 -12t61.5 -34t42 -53t15.5 -70q0 -77 -43 -118t-115 -53q62 -17 101.5 -61.5t39.5 -112.5
q0 -55 -20 -95.5t-53.5 -67t-77.5 -39.5t-92 -13zM75 185q0 -41 16 -71t43 -50t62.5 -30t73.5 -10q42 0 79.5 11t65.5 34t44.5 57.5t16.5 81.5q0 36 -14 66t-38.5 51t-59 33t-76.5 12t-80.5 -11t-68 -34t-47 -58t-17.5 -82zM157 542q0 -30 11.5 -56t33 -45t52 -30t68.5 -11
q34 0 65 8.5t54.5 27t37.5 47t14 69.5q0 31 -12 57t-33 44.5t-50.5 28.5t-63.5 10q-33 0 -65 -9.5t-56.5 -28t-40 -47t-15.5 -65.5z" />
    <glyph glyph-name="nine" unicode="9" horiz-adv-x="586" 
d="M248 -7q-41 0 -76 10t-61.5 30.5t-43 51t-20.5 71.5h34q9 -68 53 -100t116 -32q49 0 89.5 15.5t72 51.5t54 95.5t36.5 148.5l9 56q-32 -62 -90 -93.5t-123 -31.5q-44 0 -83 12.5t-68.5 37.5t-46.5 62t-17 86q0 56 18.5 103.5t51.5 82t80 53.5t104 19q101 0 160.5 -58
t59.5 -168q0 -24 -3 -48t-6 -46l-11 -68q-16 -98 -42 -163.5t-62 -105t-82.5 -56t-102.5 -16.5zM119 465q0 -41 13.5 -72.5t37.5 -53t57.5 -33t73.5 -11.5q45 0 85 15.5t70.5 43.5t48 67.5t17.5 87.5q0 82 -48 132.5t-138 50.5q-50 0 -90.5 -17t-68.5 -47.5t-43 -72
t-15 -90.5z" />
    <glyph glyph-name="colon" unicode=":" horiz-adv-x="202" 
d="M62 -5q-12 0 -20.5 8.5t-8.5 20.5t8 20.5t21 8.5q12 0 20.5 -8.5t8.5 -20.5t-8.5 -20.5t-20.5 -8.5zM117 337q-13 0 -21 8.5t-8 20.5t8 20.5t20 8.5q13 0 21 -8.5t8 -20.5t-8 -20.5t-20 -8.5z" />
    <glyph glyph-name="semicolon" unicode=";" horiz-adv-x="202" 
d="M-27 -100l81 160l33 -16l-91 -157zM119 337q-13 0 -21 8.5t-8 20.5t8 20.5t20 8.5q13 0 21 -8.5t8 -20.5t-8 -20.5t-20 -8.5z" />
    <glyph glyph-name="less" unicode="&#x3c;" horiz-adv-x="491" 
d="M57 324l2 9l416 197l-5 -34l-362 -170l306 -183l-5 -33z" />
    <glyph glyph-name="equal" unicode="=" horiz-adv-x="484" 
d="M38 254h404l-5 -30h-404zM63 413h404l-5 -30h-404z" />
    <glyph glyph-name="greater" unicode="&#x3e;" horiz-adv-x="491" 
d="M451 317l-1 -10l-417 -197l6 35l361 170l-305 183l5 32z" />
    <glyph glyph-name="question" unicode="?" horiz-adv-x="469" 
d="M187 231q5 32 16 56t27.5 44t37.5 38t47 38q24 18 45 35t37.5 36.5t26 43.5t9.5 56q0 30 -11.5 51.5t-30.5 35.5t-44 20.5t-52 6.5q-70 0 -118 -40.5t-63 -121.5h-34q7 46 26 82t47.5 60.5t65 37t78.5 12.5q35 0 66 -9t54.5 -27t37 -45t13.5 -63q0 -38 -11.5 -66
t-30.5 -49.5t-43.5 -40.5t-49.5 -39q-24 -19 -43 -35t-33.5 -33.5t-24 -38t-13.5 -48.5l-10 -63h-32zM172 -5q-13 0 -21 8.5t-8 20.5t8 20.5t20 8.5q13 0 21 -8.5t8 -20.5t-8 -20.5t-20 -8.5z" />
    <glyph glyph-name="at" unicode="@" horiz-adv-x="905" 
d="M613 229q-10 -58 7 -94t69 -36q28 0 54.5 13.5t46.5 41t32.5 69.5t12.5 99q0 73 -24 135t-70 107t-112 70.5t-151 25.5q-80 0 -151.5 -30.5t-125.5 -84t-85.5 -126.5t-31.5 -158q0 -75 24 -144t71.5 -121.5t118.5 -83.5t165 -31q55 0 100 9.5t82 26t65 38t48 45.5h33
q-18 -29 -48.5 -55.5t-72.5 -47t-94 -32.5t-113 -12q-101 0 -178 33.5t-129 89.5t-78.5 130t-26.5 154q0 91 35 169.5t94.5 136t136.5 90t161 32.5q90 0 161.5 -28t122 -77t77.5 -115.5t27 -143.5q0 -68 -16.5 -116t-42.5 -78t-57.5 -44t-61.5 -14q-106 0 -108 107
q-8 -20 -22.5 -40.5t-34.5 -37t-46 -26.5t-57 -10q-67 0 -110 43.5t-43 121.5q0 46 15 89.5t41.5 77t63 54t80.5 20.5q56 0 91 -30t43 -77l15 98h34zM424 93q33 0 63 16.5t52.5 45t36 66t13.5 79.5q1 66 -31.5 104t-88.5 38q-37 0 -67.5 -17.5t-52.5 -47t-34.5 -68
t-12.5 -80.5q0 -64 33.5 -100t88.5 -36z" />
    <glyph glyph-name="A" unicode="A" horiz-adv-x="635" 
d="M480 228h-339l-119 -228h-36l375 715h48l156 -715h-35zM156 258h317l-93 429z" />
    <glyph glyph-name="B" unicode="B" horiz-adv-x="592" 
d="M165 715h185q90 0 140.5 -41.5t49.5 -119.5q0 -78 -42.5 -121t-115.5 -60q70 -11 106.5 -52.5t36.5 -105.5q0 -51 -17.5 -91t-49 -67.5t-75 -42t-95.5 -14.5h-236zM288 30q45 0 82 12t63.5 35.5t41.5 58t15 80.5q0 66 -44.5 104t-138.5 38h-164l-52 -328h197zM309 387
q38 0 73.5 9t62.5 28.5t43.5 51t16.5 77.5q0 63 -40.5 97.5t-115.5 34.5h-154l-47 -298h161z" />
    <glyph glyph-name="C" unicode="C" horiz-adv-x="724" 
d="M371 -7q-72 0 -129.5 22t-98 63.5t-62.5 100.5t-22 133q0 83 26.5 157.5t75.5 130.5t118.5 89t155.5 33q50 0 95 -14t80.5 -41.5t59 -68t30.5 -92.5h-33q-17 90 -79.5 138t-153.5 48q-79 0 -141.5 -30.5t-106 -82t-66.5 -120.5t-23 -147q0 -136 72 -212t202 -76
q99 0 171 52t104 149h35q-17 -56 -47 -99t-70.5 -72.5t-89.5 -45t-103 -15.5z" />
    <glyph glyph-name="D" unicode="D" horiz-adv-x="682" 
d="M165 715h172q81 0 140.5 -23t99 -64t58.5 -96.5t19 -120.5q0 -95 -28.5 -171t-81.5 -129.5t-128 -82t-169 -28.5h-195zM246 31q86 0 155 26t117 74.5t74 119t26 160.5q0 57 -16.5 107t-51 87t-88 58.5t-126.5 21.5h-140l-104 -654h154z" />
    <glyph glyph-name="E" unicode="E" horiz-adv-x="568" 
d="M165 715h401l-5 -30h-365l-48 -301h302l-5 -31h-301l-52 -322h390l-6 -31h-424z" />
    <glyph glyph-name="F" unicode="F" horiz-adv-x="540" 
d="M165 715h399l-5 -30h-363l-49 -304h288l-5 -30h-287l-55 -351h-36z" />
    <glyph glyph-name="G" unicode="G" horiz-adv-x="751" 
d="M386 -7q-78 0 -138.5 24.5t-102 68t-63 102.5t-21.5 128q0 84 27 157.5t76.5 129t117.5 87.5t151 32q51 0 97.5 -12.5t83 -37.5t61 -63t31.5 -90h-36q-6 43 -26.5 75.5t-52.5 54.5t-72.5 32.5t-85.5 10.5q-76 0 -137.5 -29.5t-105.5 -80.5t-68 -119.5t-24 -146.5
q0 -63 18.5 -116.5t55 -92.5t90.5 -61t124 -22q122 0 197.5 71t90.5 215h-231l5 31h266q-7 -92 -34 -158t-69.5 -108t-100 -62t-124.5 -20z" />
    <glyph glyph-name="H" unicode="H" horiz-adv-x="709" 
d="M165 715h36l-54 -339h449l54 339h36l-113 -715h-36l55 345h-450l-54 -345h-36z" />
    <glyph glyph-name="I" unicode="I" horiz-adv-x="234" 
d="M170 715h36l-113 -715h-36z" />
    <glyph glyph-name="J" unicode="J" horiz-adv-x="389" 
d="M114 -5q-45 0 -72.5 9t-44.5 19l5 31q22 -12 48.5 -20.5t62.5 -8.5q58 0 94.5 32t48.5 105l87 553h36l-88 -556q-7 -45 -22.5 -76t-38.5 -50.5t-52.5 -28.5t-63.5 -9z" />
    <glyph glyph-name="K" unicode="K" horiz-adv-x="588" 
d="M474 0l-322 368l415 347h45l-417 -347l322 -368h-43zM165 715h36l-113 -715h-36z" />
    <glyph glyph-name="L" unicode="L" horiz-adv-x="528" 
d="M165 715h36l-109 -684h361l-5 -31h-396z" />
    <glyph glyph-name="M" unicode="M" horiz-adv-x="849" 
d="M165 715h52l169 -649l380 649h54l-113 -715h-36l106 672l-394 -672h-14l-177 672l-106 -672h-34z" />
    <glyph glyph-name="N" unicode="N" horiz-adv-x="707" 
d="M165 715h49l329 -667l106 667h35l-113 -715h-43l-334 678l-107 -678h-35z" />
    <glyph glyph-name="O" unicode="O" horiz-adv-x="788" 
d="M757 392q0 -80 -27 -152t-76.5 -127t-118 -87.5t-151.5 -32.5q-75 0 -135.5 25.5t-102.5 70t-64.5 105.5t-22.5 132q0 79 27.5 150.5t77.5 126t119.5 87t152.5 32.5q73 0 132.5 -25.5t101.5 -70t64.5 -105t22.5 -129.5zM721 392q0 61 -19 115.5t-56 95.5t-90 65t-121 24
q-76 0 -138.5 -29.5t-106.5 -79.5t-68.5 -116.5t-25.5 -140.5q-1 -63 18.5 -118.5t57 -96t91 -64t121.5 -23.5q76 0 138 29.5t106 80t68.5 117.5t24.5 141z" />
    <glyph glyph-name="P" unicode="P" horiz-adv-x="559" 
d="M165 715h167q49 0 90 -10t69.5 -31.5t44.5 -55t16 -79.5q0 -60 -19 -102.5t-52.5 -69.5t-80.5 -39.5t-103 -12.5h-160l-50 -315h-35zM299 345q51 0 91 11t68.5 34.5t43.5 60t15 88.5q0 79 -51.5 112.5t-136.5 33.5h-134l-54 -340h158z" />
    <glyph glyph-name="Q" unicode="Q" horiz-adv-x="788" 
d="M384 -7q-75 0 -135.5 25.5t-102.5 70t-64.5 105.5t-22.5 132q0 79 27.5 150.5t77.5 126t119.5 87t152.5 32.5q73 0 132.5 -25.5t101.5 -70t64.5 -105t22.5 -129.5q0 -98 -40 -183t-112 -141l80 -89l-24 -21l-82 91q-42 -26 -90.5 -41t-104.5 -15zM384 24q50 0 93.5 13
t80.5 36l-108 122l24 21l110 -124q64 51 100 129.5t37 170.5q0 61 -19 115.5t-56 95.5t-90 65t-121 24q-76 0 -138.5 -29.5t-106.5 -79.5t-68.5 -116.5t-25.5 -140.5q-1 -63 18.5 -118.5t57 -96t91 -64t121.5 -23.5z" />
    <glyph glyph-name="R" unicode="R" horiz-adv-x="593" 
d="M165 715h170q49 0 89.5 -10.5t69 -32t44 -54t15.5 -75.5q0 -52 -16 -89t-45 -62t-69 -38t-87 -16l182 -338h-39l-180 335h-159l-53 -335h-35zM295 365q46 0 87 8t71 28.5t47.5 54.5t17.5 87q0 75 -50 108.5t-134 33.5h-139l-50 -320h150z" />
    <glyph glyph-name="S" unicode="S" horiz-adv-x="583" 
d="M275 -7q-54 0 -99 13t-78 38.5t-52 64t-22 88.5h35q8 -84 63 -128.5t153 -44.5q46 0 84.5 11.5t66 34.5t43 56.5t15.5 77.5q0 33 -10 56.5t-32 41.5t-56.5 32t-83.5 28q-51 14 -88.5 29.5t-61.5 35.5t-36 46t-12 60q0 45 16.5 80t46.5 59t71 37t90 13q94 0 151.5 -42
t64.5 -127h-34q-9 72 -56.5 105.5t-126.5 33.5q-86 0 -137 -40t-51 -118q0 -27 9.5 -47.5t30.5 -37t54.5 -30.5t81.5 -27q52 -14 91 -30t64 -37.5t37.5 -50t12.5 -68.5q0 -50 -18.5 -89.5t-51 -67t-77.5 -42t-98 -14.5z" />
    <glyph glyph-name="T" unicode="T" horiz-adv-x="558" 
d="M325 685h-230l5 30h497l-5 -30h-231l-108 -685h-36z" />
    <glyph glyph-name="U" unicode="U" horiz-adv-x="674" 
d="M318 -5q-137 0 -197.5 71t-40.5 201l71 448h36l-71 -448q-18 -118 31.5 -179.5t171.5 -61.5q105 0 161 53t73 163l75 473h36l-75 -476q-19 -119 -83 -181.5t-188 -62.5z" />
    <glyph glyph-name="V" unicode="V" horiz-adv-x="621" 
d="M92 715h35l150 -677l349 677h35l-369 -715h-43z" />
    <glyph glyph-name="W" unicode="W" horiz-adv-x="905" 
d="M97 715h35l74 -661l302 661h24l89 -663l288 663h35l-311 -715h-38l-86 647l-294 -647h-38z" />
    <glyph glyph-name="X" unicode="X" horiz-adv-x="618" 
d="M307 374l-175 341h37l164 -317l261 317h40l-286 -346l191 -369h-38l-179 345l-287 -345h-40z" />
    <glyph glyph-name="Y" unicode="Y" horiz-adv-x="564" 
d="M276 322l-189 393h37l175 -363l269 363h39l-295 -396l-51 -319h-36z" />
    <glyph glyph-name="Z" unicode="Z" horiz-adv-x="582" 
d="M-14 9l571 676h-428l5 30h481l-1 -8l-569 -676h456l-5 -31h-512z" />
    <glyph glyph-name="bracketleft" unicode="[" horiz-adv-x="331" 
d="M176 776h195l-5 -28h-159l-137 -868h159l-5 -28h-194z" />
    <glyph glyph-name="backslash" unicode="\" horiz-adv-x="383" 
d="M121 776h33l146 -924h-33z" />
    <glyph glyph-name="bracketright" unicode="]" horiz-adv-x="331" 
d="M-21 -120h160l137 868h-160l5 28h193l-146 -924h-194z" />
    <glyph glyph-name="asciicircum" unicode="^" horiz-adv-x="461" 
d="M284 715h33l122 -284h-35l-108 251l-186 -251h-37z" />
    <glyph glyph-name="underscore" unicode="_" horiz-adv-x="387" 
d="M-61 -117h388l-5 -29h-388z" />
    <glyph glyph-name="grave" unicode="`" horiz-adv-x="400" 
d="M178 747h40l51 -147h-28z" />
    <glyph glyph-name="a" unicode="a" horiz-adv-x="521" 
d="M204 -7q-88 0 -130 40.5t-42 101.5q0 48 18.5 79t49.5 49t72.5 25.5t86.5 7.5h156l7 45q11 77 -19.5 118.5t-115.5 41.5q-60 0 -104 -27.5t-63 -93.5h-35q10 40 30.5 69t48 47t59 26.5t64.5 8.5q99 0 141 -51t28 -142l-30 -192q-8 -54 -10.5 -87.5t-2.5 -58.5h-33
q0 18 1.5 41t3.5 45q-23 -38 -69.5 -65.5t-111.5 -27.5zM207 21q35 0 66.5 10t57 29t42 44.5t21.5 57.5l17 106h-152q-39 0 -74.5 -5.5t-61.5 -20t-41.5 -40.5t-15.5 -67q0 -48 33.5 -81t107.5 -33z" />
    <glyph glyph-name="b" unicode="b" horiz-adv-x="596" 
d="M303 -8q-48 0 -84 15t-61 39t-39.5 53t-20.5 56l-25 -155h-34l122 773h34l-60 -379q14 28 35.5 53t48.5 44t59.5 29.5t70.5 10.5q44 0 82 -17t66.5 -47.5t44.5 -74t16 -97.5q0 -62 -16.5 -117t-48.5 -96.5t-79.5 -65.5t-110.5 -24zM301 22q55 0 96.5 21t69.5 58t42 86.5
t14 106.5q0 49 -14 87.5t-38 65.5t-56.5 41t-69.5 14q-54 0 -97 -23t-73 -60.5t-46.5 -86t-17.5 -99.5q0 -50 14 -89t39.5 -66t60.5 -41.5t76 -14.5z" />
    <glyph glyph-name="c" unicode="c" horiz-adv-x="543" 
d="M272 -7q-54 0 -97 17.5t-72.5 49t-45.5 75t-16 96.5q0 64 20 119t56 95t85.5 62.5t108.5 22.5q41 0 76 -12t61.5 -34t42 -53.5t18.5 -71.5h-34q-4 66 -49 104t-117 38q-53 0 -96 -21t-73.5 -57t-47 -85.5t-16.5 -106.5q0 -48 14 -87t39.5 -66t61.5 -41.5t81 -14.5
q72 0 124.5 38.5t71.5 113.5h33q-10 -45 -31.5 -78.5t-51.5 -56.5t-67 -34.5t-79 -11.5z" />
    <glyph glyph-name="d" unicode="d" horiz-adv-x="597" 
d="M253 -8q-46 0 -85.5 16t-68 46t-45 73t-16.5 97q0 62 18.5 118t52.5 98t82.5 66.5t109.5 24.5q48 0 82.5 -15.5t58.5 -39t37.5 -52t18.5 -55.5l65 404h34l-96 -604q-11 -66 -13.5 -105t-3.5 -64h-33q0 26 3.5 63t8.5 66q-14 -29 -34.5 -54t-47 -43.5t-59 -29t-69.5 -10.5
zM255 22q54 0 96.5 22.5t72 60t45.5 85.5t16 100q1 49 -12.5 88.5t-38 66.5t-58.5 41.5t-74 14.5q-54 0 -96.5 -22t-72 -59.5t-45 -87.5t-15.5 -107q0 -48 14 -86t38.5 -64t58 -39.5t71.5 -13.5z" />
    <glyph glyph-name="e" unicode="e" horiz-adv-x="535" 
d="M74 217q0 -94 46 -144.5t137 -50.5q67 0 114.5 30.5t71.5 91.5h34q-26 -76 -84 -114t-137 -38q-108 0 -163 61t-55 165q0 63 18.5 119.5t53 99t83 68t109.5 25.5q56 0 97 -18.5t65.5 -52t33 -80t-0.5 -101.5l-2 -14h-419q-1 -11 -1.5 -23t-0.5 -24zM301 501
q-45 0 -81.5 -15.5t-65 -43t-47 -66t-27.5 -83.5h385q6 46 -1 84t-27 65.5t-53.5 43t-82.5 15.5z" />
    <glyph glyph-name="f" unicode="f" horiz-adv-x="322" 
d="M64 523h82l16 99q7 44 22.5 73.5t37 47.5t47.5 25.5t54 7.5q20 0 33.5 -2t26.5 -7l-4 -29q-14 5 -26 7t-29 2q-23 0 -43.5 -6t-37 -20t-29 -38.5t-18.5 -61.5l-16 -98h157l-5 -29h-156l-78 -494h-34l78 494h-83z" />
    <glyph glyph-name="g" unicode="g" horiz-adv-x="601" 
d="M259 46q51 0 94 22t73.5 58.5t47.5 85.5t17 103q0 40 -12 74t-35.5 59t-57.5 39t-78 14q-52 0 -94.5 -20t-72.5 -55.5t-46 -83.5t-16 -102q0 -41 11.5 -76.5t34.5 -61.5t56.5 -41t77.5 -15zM482 18q-17 -105 -81.5 -154.5t-164.5 -49.5q-94 0 -153.5 40.5t-70.5 115.5h35
q10 -60 59 -93.5t129 -33.5q90 0 144.5 44t68.5 133l21 131q-13 -25 -33 -49t-46.5 -42.5t-60 -30t-73.5 -11.5q-48 0 -87.5 16t-67 45t-42.5 69.5t-15 90.5q0 60 19 113t53.5 93t83.5 63t108 23q82 0 132 -41.5t65 -107.5l22 141h35z" />
    <glyph glyph-name="h" unicode="h" horiz-adv-x="567" 
d="M161 773h34l-57 -363q13 24 32 46t44.5 38.5t56.5 26.5t67 10q43 0 76.5 -13.5t55 -41t29.5 -69t-1 -96.5l-49 -311h-35l50 316q15 94 -22 139.5t-109 45.5q-36 0 -70.5 -12t-63 -36t-49 -59t-27.5 -80l-50 -314h-34z" />
    <glyph glyph-name="i" unicode="i" horiz-adv-x="200" 
d="M161 637q-11 0 -18.5 8t-7.5 19t8 18.5t19 7.5t18.5 -7.5t7.5 -18.5t-8 -19t-19 -8zM123 523h35l-83 -523h-34z" />
    <glyph glyph-name="j" unicode="j" horiz-adv-x="200" 
d="M-60 -156q44 2 63 23t27 66l93 590h35l-94 -592q-10 -62 -40 -88.5t-89 -28.5zM161 637q-11 0 -18.5 8t-7.5 19t8 18.5t19 7.5t18.5 -7.5t7.5 -18.5t-8 -19t-19 -8z" />
    <glyph glyph-name="k" unicode="k" horiz-adv-x="467" 
d="M121 282l306 241h45l-309 -242l244 -281h-41zM161 773h34l-122 -773h-34z" />
    <glyph glyph-name="l" unicode="l" horiz-adv-x="201" 
d="M163 773h35l-122 -773h-35z" />
    <glyph glyph-name="m" unicode="m" horiz-adv-x="887" 
d="M99 384q8 52 10.5 83t4.5 56h33q-1 -20 -3.5 -49t-7.5 -63q13 25 31.5 46.5t41.5 38t51 26t61 9.5q65 0 105.5 -34t45.5 -102q26 62 79 99t116 37q41 0 73 -13t52.5 -40.5t27.5 -69t-2 -98.5l-49 -310h-34l49 314q15 97 -17.5 142t-103.5 45q-33 0 -64.5 -12.5t-57.5 -36
t-44.5 -58t-25.5 -79.5l-50 -315h-34l50 315q15 94 -18 140t-103 46q-33 0 -65 -12.5t-58 -36.5t-44.5 -58.5t-25.5 -78.5l-50 -315h-34z" />
    <glyph glyph-name="n" unicode="n" horiz-adv-x="567" 
d="M99 384q8 52 10.5 83t4.5 56h33q-1 -20 -3.5 -50.5t-7.5 -64.5q13 25 33 47.5t45.5 39t56.5 26.5t67 10q43 0 76.5 -13.5t55 -41t29.5 -69t-1 -96.5l-49 -311h-35l50 316q15 94 -22 139.5t-109 45.5q-36 0 -70.5 -12t-63 -36t-49 -59t-27.5 -80l-50 -314h-34z" />
    <glyph glyph-name="o" unicode="o" horiz-adv-x="573" 
d="M265 -7q-51 0 -93 18.5t-72 50.5t-46.5 75t-16.5 92q0 60 19 115t54.5 96t86 65.5t113.5 24.5q53 0 94.5 -19t70.5 -51t44.5 -75t15.5 -91q0 -63 -19 -118t-54 -95.5t-85 -64t-112 -23.5zM266 22q54 0 97.5 21t74 57.5t46.5 86.5t16 107q0 42 -12.5 79.5t-37 66t-60 45
t-81.5 16.5q-56 0 -100 -22t-74.5 -59t-46.5 -86.5t-16 -104.5q0 -42 13.5 -80t38.5 -66t61 -44.5t81 -16.5z" />
    <glyph glyph-name="p" unicode="p" horiz-adv-x="596" 
d="M349 531q44 0 82 -17t66.5 -47.5t44.5 -74t16 -97.5q0 -62 -16.5 -117t-48.5 -96.5t-79.5 -65.5t-110.5 -24q-48 0 -84 15t-60.5 39t-39.5 52.5t-21 55.5l-54 -336h-34l85 536q10 64 13.5 104t5.5 65h33q0 -10 -1.5 -26t-3.5 -34.5t-4 -37.5t-5 -36q14 31 35.5 57t49 45
t60.5 29.5t71 10.5zM301 22q55 0 96.5 21t69.5 58t42 86.5t14 106.5q0 49 -14 87.5t-38 65.5t-56.5 41t-69.5 14q-54 0 -97 -23t-73 -60.5t-46.5 -86t-17.5 -99.5q0 -50 14 -89t39.5 -66t60.5 -41.5t76 -14.5z" />
    <glyph glyph-name="q" unicode="q" horiz-adv-x="598" 
d="M460 126q-28 -58 -80 -96t-127 -38q-46 0 -85.5 16t-68 46t-45 73t-16.5 97q0 62 18.5 118t52.5 98t82.5 66.5t109.5 24.5q48 0 82.5 -15.5t58.5 -39t37.5 -52t18.5 -55.5l25 154h34l-111 -705h-34zM255 22q54 0 96.5 22.5t72 60t45.5 85.5t16 100q1 49 -12.5 88.5
t-38 66.5t-58.5 41.5t-74 14.5q-54 0 -96.5 -22t-72 -59.5t-45 -87.5t-15.5 -107q0 -48 14 -86t38.5 -64t58 -39.5t71.5 -13.5z" />
    <glyph glyph-name="r" unicode="r" horiz-adv-x="331" 
d="M99 384q8 52 10.5 83t4.5 56h33q-1 -20 -3.5 -51.5t-8.5 -68.5q13 26 31 48.5t42.5 39.5t56 26.5t71.5 10.5l-5 -31q-39 -2 -73.5 -14t-62.5 -37t-47.5 -64t-28.5 -94l-46 -288h-34z" />
    <glyph glyph-name="s" unicode="s" horiz-adv-x="453" 
d="M207 -9q-88 0 -138 42t-54 121h33q5 -63 42.5 -98.5t117.5 -35.5q63 0 105.5 29.5t42.5 90.5q0 23 -7 40t-22.5 30.5t-40.5 23.5t-60 20q-40 11 -69 23.5t-48 28.5t-28.5 36.5t-9.5 49.5q0 34 14 60t37.5 43.5t54.5 26t66 8.5t65 -7.5t53 -23.5t37.5 -42t17.5 -63h-33
q-5 52 -40 79.5t-101 27.5q-59 0 -98.5 -26.5t-39.5 -81.5q0 -21 7 -37t23 -28.5t41.5 -23t61.5 -20.5q37 -11 66 -22.5t48 -27.5t29 -38.5t10 -54.5q0 -37 -14.5 -65t-39 -47t-58 -28.5t-71.5 -9.5z" />
    <glyph glyph-name="t" unicode="t" horiz-adv-x="325" 
d="M182 -7q-60 0 -86.5 36t-16.5 102l58 363h-79l5 29h78l19 119h34l-19 -119h146l-5 -29h-145l-58 -364q-9 -58 11 -82.5t62 -24.5q37 0 65 11l-5 -29q-12 -5 -28 -8.5t-36 -3.5z" />
    <glyph glyph-name="u" unicode="u" horiz-adv-x="563" 
d="M461 140q-8 -47 -10 -82t-3 -58h-33q0 23 2.5 53.5t7.5 61.5q-27 -51 -78 -87t-123 -36q-43 0 -76.5 14t-54.5 41.5t-28.5 68.5t1.5 96l49 311h34l-50 -315q-15 -94 21 -140t108 -46q36 0 70.5 12.5t63 36t48.5 58.5t27 80l50 314h34z" />
    <glyph glyph-name="v" unicode="v" horiz-adv-x="498" 
d="M65 523h35l116 -489l262 489h36l-280 -523h-46z" />
    <glyph glyph-name="w" unicode="w" horiz-adv-x="754" 
d="M69 523h35l74 -483l225 483h28l77 -483l222 483h36l-243 -523h-41l-73 466l-218 -466h-41z" />
    <glyph glyph-name="x" unicode="x" horiz-adv-x="487" 
d="M222 274l-143 249h39l128 -225l195 225h40l-218 -253l155 -270h-39l-141 247l-214 -247h-40z" />
    <glyph glyph-name="y" unicode="y" horiz-adv-x="486" 
d="M196 42l-131 481h34l121 -443l245 443h37l-395 -705h-37z" />
    <glyph glyph-name="z" unicode="z" horiz-adv-x="462" 
d="M-16 7l428 487h-321l5 29h377l-1 -7l-426 -486h342l-6 -30h-399z" />
    <glyph glyph-name="braceleft" unicode="{" horiz-adv-x="351" 
d="M245 -145q-99 6 -134.5 57t-1.5 144l42 117q10 29 10.5 54t-11 43.5t-36 29.5t-64.5 13l5 27q79 0 111 32t30 94l-5 126q-2 52 10 87t37.5 56.5t64 30.5t88.5 11l-5 -28q-41 -2 -72.5 -9t-52 -24.5t-30.5 -47.5t-8 -77l5 -124q1 -35 -7 -60t-23 -42t-36.5 -26.5
t-47.5 -14.5q51 -13 70.5 -53t-3.5 -105l-41 -115q-29 -83 -1.5 -123t111.5 -45l-5 -28v0z" />
    <glyph glyph-name="bar" unicode="|" horiz-adv-x="233" 
d="M113 776h30v-924h-30v924z" />
    <glyph glyph-name="braceright" unicode="}" horiz-adv-x="351" 
d="M121 777q99 -6 134.5 -57t1.5 -144l-42 -117q-10 -29 -10.5 -54t11 -43.5t36 -30t64.5 -14.5l-4 -27q-79 2 -111.5 -29.5t-30.5 -94.5l6 -126q2 -53 -10.5 -87.5t-38 -56t-63.5 -31t-89 -10.5l5 28q41 1 72.5 8.5t52 25t30.5 48t8 77.5l-5 125q-1 35 7 60t23.5 41.5
t36.5 25.5t47 13q-51 14 -70.5 54.5t3.5 103.5l41 116q29 83 2 123t-111 45l4 28v0z" />
    <glyph glyph-name="asciitilde" unicode="~" horiz-adv-x="433" 
d="M46 237q9 45 33.5 72t61.5 27q24 0 44 -10.5t38.5 -22.5t36 -22.5t36.5 -10.5q27 0 44 20t22 48h30q-9 -45 -33.5 -72t-61.5 -27q-24 0 -44.5 10.5t-39 22.5t-36 22.5t-35.5 10.5q-26 0 -43 -20t-23 -48h-30v0z" />
    <glyph glyph-name="exclamdown" unicode="&#xa1;" horiz-adv-x="263" 
d="M89 -117h-38l92 551h28zM180 603q12 0 20.5 -8.5t8.5 -20.5q0 -11 -8.5 -19.5t-20.5 -8.5t-20.5 8.5t-8.5 19.5q0 12 8.5 20.5t20.5 8.5z" />
    <glyph glyph-name="cent" unicode="&#xa2;" horiz-adv-x="545" 
d="M273 -7h-8.5t-8.5 1l-20 -129h-29l21 132q-88 13 -137.5 76t-49.5 157q0 64 20.5 119t56.5 95.5t85.5 63t108.5 22.5l16 99h29l-16 -101q71 -8 118 -52.5t52 -116.5h-34q-3 59 -41 96t-100 44l-75 -477h12q71 0 124 37.5t72 114.5h33q-20 -92 -83 -136.5t-146 -44.5z
M76 230q0 -86 42 -139.5t114 -65.5l76 476q-52 0 -95 -21t-73.5 -57.5t-47 -86t-16.5 -106.5z" />
    <glyph glyph-name="sterling" unicode="&#xa3;" horiz-adv-x="585" 
d="M65 363h77q-4 28 -6.5 56.5t-2.5 57.5q0 52 15 97t44.5 78t73.5 51.5t102 18.5q96 0 144 -49.5t50 -129.5h-35q-3 66 -41 107t-119 41q-49 0 -86 -15.5t-62 -44t-37.5 -68t-12.5 -86.5q0 -29 2.5 -57t5.5 -57h238l-5 -29h-230q2 -17 3 -34.5t1 -36.5q0 -54 -10 -91.5
t-33 -70.5q30 -3 59.5 -15.5t59.5 -26t60 -24.5t61 -11q44 0 76 29t40 87h33q-9 -71 -50.5 -109t-99.5 -38q-36 0 -70 12.5t-65.5 27t-61 27t-57.5 12.5q-35 0 -58 -20t-31 -52h-33q8 35 33.5 64t66.5 36q24 33 35 71.5t11 89.5q0 18 -1.5 36.5t-3.5 36.5h-85z" />
    <glyph glyph-name="yen" unicode="&#xa5;" horiz-adv-x="531" 
d="M78 347h181l-160 368h38l151 -350l249 350h37l-263 -368h179l-5 -29h-187l-17 -107h187l-5 -29h-186l-29 -182h-35l28 182h-190l5 29h190l16 107h-189z" />
    <glyph glyph-name="brokenbar" unicode="&#xa6;" horiz-adv-x="233" 
d="M113 297h30v-445h-30v445zM113 776h30v-409h-30v409z" />
    <glyph glyph-name="section" unicode="&#xa7;" horiz-adv-x="532" 
d="M216 -137q-35 0 -66 9t-54.5 27.5t-38 46t-16.5 64.5h35q6 -57 43.5 -87t97.5 -30q29 0 55 8.5t45.5 25t31 40t11.5 53.5q0 46 -32 76.5t-108 58.5q-77 28 -120 64t-43 96q0 33 13.5 56.5t36 40t51.5 27t60 16.5q-28 20 -44 48t-16 68q0 33 13.5 61t36.5 48.5t55 32
t69 11.5q32 0 60 -8t49 -25.5t33 -43.5t12 -62h-35q0 53 -32 81t-89 28q-29 0 -53.5 -8t-43.5 -23.5t-29.5 -38.5t-10.5 -51q0 -21 6 -39t21 -34.5t40.5 -32t64.5 -30.5q75 -29 117.5 -65t42.5 -97q0 -30 -12 -53t-33 -39.5t-49 -27.5t-59 -17q27 -18 45 -47t18 -69
q0 -36 -13.5 -65t-37.5 -50t-57 -32.5t-71 -11.5zM305 157q28 4 54.5 12.5t46.5 23t32 34t12 46.5q0 47 -35 76.5t-99 56.5l-73 31q-30 -5 -57 -13.5t-48 -22.5t-33.5 -34.5t-12.5 -49.5q0 -47 36 -76.5t100 -53.5z" />
    <glyph glyph-name="dieresis" unicode="&#xa8;" horiz-adv-x="400" 
d="M186 638q-11 0 -18.5 7.5t-7.5 18.5t7.5 18.5t18.5 7.5t18.5 -7.5t7.5 -18.5t-7.5 -18.5t-18.5 -7.5zM339 638q-11 0 -18.5 7.5t-7.5 18.5t7.5 18.5t18.5 7.5t18.5 -7.5t7.5 -18.5t-7.5 -18.5t-18.5 -7.5z" />
    <glyph glyph-name="copyright" unicode="&#xa9;" horiz-adv-x="844" 
d="M437 148q-45 0 -81.5 15.5t-62 43t-39.5 66t-14 85.5v7q0 46 15.5 84.5t42 66.5t62 43.5t76.5 15.5q66 0 113 -33t58 -97h-33q-11 50 -46 76t-92 26q-35 0 -64.5 -13t-51.5 -37t-34 -57.5t-12 -74.5v-6q0 -85 44 -133.5t119 -48.5q57 0 94.5 28.5t48.5 82.5h32
q-6 -33 -21 -59t-38 -44t-52.5 -27.5t-63.5 -9.5zM433 -9q-76 0 -143 28t-116.5 77.5t-78 116t-28.5 144.5q0 76 28.5 143t78 117t117 78.5t144.5 28.5q78 0 145 -28.5t116 -78t77 -116t28 -142.5q0 -78 -28.5 -145.5t-78 -117t-117 -77.5t-144.5 -28zM433 17q70 0 132 26
t108 71.5t72.5 108t26.5 136.5q0 72 -26 134t-71 107.5t-106.5 71.5t-133.5 26q-71 0 -133 -26t-107.5 -72t-72 -108.5t-26.5 -134.5q0 -73 26.5 -135.5t72.5 -108t107.5 -71t130.5 -25.5z" />
    <glyph glyph-name="ordfeminine" unicode="&#xaa;" horiz-adv-x="418" 
d="M195 310q-65 0 -96.5 31t-31.5 77q0 37 15 61.5t40 38.5t58 19.5t69 5.5h107l6 33q8 57 -14.5 87.5t-85.5 30.5q-44 0 -75.5 -20.5t-45.5 -68.5h-33q7 31 23 53.5t37 36.5t45.5 20.5t49.5 6.5q77 0 110 -39t22 -110l-23 -145q-6 -40 -7.5 -66.5t-1.5 -46.5h-32
q-1 14 -0.5 29t2.5 32q-19 -29 -54 -47.5t-84 -18.5zM201 337q26 0 49.5 7.5t42.5 21t31.5 32.5t16.5 43l12 75h-106q-29 0 -56 -3.5t-47 -14t-32 -29t-12 -49.5q0 -36 24 -59.5t77 -23.5z" />
    <glyph glyph-name="guillemotleft" unicode="&#xab;" horiz-adv-x="415" 
d="M51 261l165 178h38l-166 -179l106 -177h-34zM196 261l165 178h38l-166 -179l106 -177h-34z" />
    <glyph glyph-name="registered" unicode="&#xae;" horiz-adv-x="514" 
d="M220 626h73q38 0 61 -16.5t23 -49.5v-1q0 -29 -17 -44t-43 -19l73 -107h-31l-72 104h-40v-104h-27v237zM294 515q55 0 55 43v1q0 24 -13.5 34t-41.5 10h-47v-88h47zM293 282q-46 0 -86.5 17t-70.5 46.5t-47.5 69.5t-17.5 87q0 46 17 86.5t47 70.5t70.5 47.5t87.5 17.5
t87.5 -17t70.5 -47t47 -70.5t17 -86.5q0 -47 -17.5 -87.5t-47.5 -70t-70.5 -46.5t-86.5 -17zM293 304q42 0 78 15t62.5 41.5t41.5 63t15 79.5q0 42 -15 78.5t-41 63.5t-62.5 42t-78.5 15t-78 -15.5t-62.5 -42.5t-41.5 -63.5t-15 -78.5q0 -43 15.5 -79t42 -62.5t62.5 -41.5
t77 -15z" />
    <glyph glyph-name="macron" unicode="&#xaf;" horiz-adv-x="400" 
d="M150 675h229l-4 -28h-230z" />
    <glyph glyph-name="degree" unicode="&#xb0;" horiz-adv-x="395" 
d="M243 467q51 1 83.5 34.5t32.5 86.5q0 23 -8 43t-23 35t-35 23.5t-44 8.5t-45.5 -9t-37.5 -25t-25.5 -38t-9.5 -48q0 -23 8.5 -43t23.5 -35t35.5 -24t44.5 -9zM242 441q-30 0 -56 10.5t-45 29t-30 43.5t-11 53q0 30 11.5 56.5t32 47t47.5 32t59 11.5q30 0 55.5 -10.5
t44.5 -29t30 -43.5t11 -53q0 -30 -11.5 -57t-31.5 -47t-47.5 -31.5t-58.5 -11.5z" />
    <glyph glyph-name="plusminus" unicode="&#xb1;" horiz-adv-x="505" 
d="M246 332h-199l5 30h199l34 210h32l-34 -210h200l-5 -30h-200l-33 -209h-31zM-1 30h431l-5 -30h-431z" />
    <glyph glyph-name="twosuperior" unicode="&#xb2;" horiz-adv-x="285" 
d="M34 379l151 124q36 30 61.5 58t25.5 67q0 29 -19 47.5t-51 18.5q-35 0 -60.5 -21.5t-35.5 -63.5h-28q10 54 44.5 81.5t80.5 27.5q44 0 71.5 -24t27.5 -66q0 -23 -7.5 -41.5t-21 -35t-31.5 -32t-39 -33.5l-111 -90h181l-4 -25h-236z" />
    <glyph glyph-name="threesuperior" unicode="&#xb3;" horiz-adv-x="307" 
d="M184 367q-25 0 -47 6.5t-38.5 19t-27 31.5t-11.5 45h29q3 -35 28 -56t67 -21q36 0 63 19t27 61q0 28 -18.5 47.5t-54.5 19.5h-24l4 24h28q31 0 53 16.5t22 51.5q0 31 -20 47.5t-52 16.5q-38 0 -61.5 -20.5t-31.5 -52.5h-28q8 43 40.5 69.5t80.5 26.5q20 0 38.5 -5
t32.5 -15.5t22.5 -27t8.5 -38.5q0 -31 -18 -52.5t-50 -29.5q26 -7 42.5 -27t16.5 -52q0 -25 -10 -44t-26.5 -32.5t-38.5 -20.5t-46 -7z" />
    <glyph glyph-name="acute" unicode="&#xb4;" horiz-adv-x="400" 
d="M328 747h43l-106 -147h-30z" />
    <glyph glyph-name="paragraph" unicode="&#xb6;" horiz-adv-x="542" 
d="M283 357h-5q-43 0 -78.5 11t-61 31.5t-39.5 51t-14 69.5q0 50 18 87t49 61t73 35.5t90 11.5h203l-129 -815h-31l125 789h-117l-125 -789h-30z" />
    <glyph glyph-name="periodcentered" unicode="&#xb7;" horiz-adv-x="195" 
d="M106 293q-12 0 -20.5 8.5t-8.5 20.5t8 20.5t21 8.5q12 0 20.5 -8.5t8.5 -20.5t-8.5 -20.5t-20.5 -8.5z" />
    <glyph glyph-name="cedilla" unicode="&#xb8;" horiz-adv-x="400" 
d="M144 -211q-38 0 -62.5 19t-27.5 56h32q3 -47 58 -47q20 0 39 11.5t19 41.5q0 23 -13.5 32.5t-30.5 9.5q-16 0 -25 -3t-16 -8l-17 18l56 81h32l-45 -65q17 6 33.5 4t29.5 -10.5t21 -23t8 -34.5q0 -39 -25 -60.5t-66 -21.5z" />
    <glyph glyph-name="onesuperior" unicode="&#xb9;" horiz-adv-x="212" 
d="M176 679l-101 -65l4 30l111 71h23l-55 -344h-31z" />
    <glyph glyph-name="ordmasculine" unicode="&#xba;" horiz-adv-x="464" 
d="M254 310q-40 0 -72.5 14t-55.5 38t-35.5 57t-12.5 71q0 47 15 89t42.5 73.5t66.5 50t87 18.5q41 0 73.5 -14.5t55 -39t34 -57t11.5 -69.5q0 -49 -15 -91.5t-42 -73.5t-65.5 -48.5t-86.5 -17.5zM255 338q40 0 72.5 15.5t54.5 43t34 64.5t12 80q0 31 -9 58.5t-27 48.5
t-44.5 33t-60.5 12q-41 0 -73.5 -16.5t-55 -44t-34 -64.5t-11.5 -78q0 -32 9.5 -59.5t27.5 -48t44.5 -32.5t60.5 -12z" />
    <glyph glyph-name="guillemotright" unicode="&#xbb;" horiz-adv-x="415" 
d="M363 260l-166 -177h-37l165 180l-106 176h34zM218 260l-166 -177h-37l165 180l-106 176h34z" />
    <glyph glyph-name="onequarter" unicode="&#xbc;" horiz-adv-x="665" 
d="M179 679l-101 -65l4 30l111 71h23l-55 -344h-31zM620 715h33l-590 -715h-33zM528 78h-184l2 11l211 256h43l-39 -243h48l-4 -24h-48l-12 -77h-30zM531 102l35 219l-179 -219h144z" />
    <glyph glyph-name="onehalf" unicode="&#xbd;" horiz-adv-x="669" 
d="M179 679l-101 -65l4 30l111 71h23l-55 -344h-31zM593 715h33l-590 -715h-33zM357 9l151 124q36 30 61.5 58t25.5 67q0 29 -19 47.5t-51 18.5q-35 0 -60.5 -21.5t-35.5 -63.5h-28q10 54 44.5 81.5t80.5 27.5q44 0 71.5 -24t27.5 -66q0 -23 -7.5 -41.5t-21 -35t-31.5 -32
t-39 -33.5l-111 -90h181l-4 -25h-236z" />
    <glyph glyph-name="threequarters" unicode="&#xbe;" horiz-adv-x="693" 
d="M187 367q-25 0 -47 6.5t-38.5 19t-27 31.5t-11.5 45h29q3 -35 28 -56t67 -21q36 0 63 19t27 61q0 28 -18.5 47.5t-54.5 19.5h-24l4 24h28q31 0 53 16.5t22 51.5q0 31 -20 47.5t-52 16.5q-38 0 -61.5 -20.5t-31.5 -52.5h-28q8 43 40.5 69.5t80.5 26.5q20 0 38.5 -5
t32.5 -15.5t22.5 -27t8.5 -38.5q0 -31 -18 -52.5t-50 -29.5q26 -7 42.5 -27t16.5 -52q0 -25 -10 -44t-26.5 -32.5t-38.5 -20.5t-46 -7zM670 715h33l-590 -715h-33zM555 78h-184l2 11l211 256h43l-39 -243h48l-4 -24h-48l-12 -77h-30zM558 102l35 219l-179 -219h144z" />
    <glyph glyph-name="questiondown" unicode="&#xbf;" horiz-adv-x="469" 
d="M291 367q-5 -32 -16 -56t-27.5 -43.5t-38 -37.5t-46.5 -38q-24 -19 -45 -36t-37.5 -36.5t-26 -43.5t-9.5 -56q0 -30 11.5 -51.5t30.5 -35.5t44 -20.5t52 -6.5q71 0 119 40.5t63 121.5h33q-7 -46 -26 -82t-47.5 -60.5t-65 -37t-78.5 -12.5q-35 0 -66 9t-54.5 27t-37 45
t-13.5 63q0 38 11.5 66t30.5 49.5t43 40.5t50 39q24 19 43.5 35t33.5 33.5t23.5 38.5t13.5 48l10 64h32zM307 603q12 0 20 -8.5t8 -20.5q0 -11 -8 -19.5t-20 -8.5t-20.5 8.5t-8.5 19.5q0 12 8 20.5t21 8.5z" />
    <glyph glyph-name="Agrave" unicode="&#xc0;" horiz-adv-x="635" 
d="M480 228h-339l-119 -228h-36l375 715h48l156 -715h-35zM156 258h317l-93 429zM314 891h41l55 -120h-28z" />
    <glyph glyph-name="Aacute" unicode="&#xc1;" horiz-adv-x="635" 
d="M480 228h-339l-119 -228h-36l375 715h48l156 -715h-35zM156 258h317l-93 429zM449 891h43l-90 -120h-31z" />
    <glyph glyph-name="Acircumflex" unicode="&#xc2;" horiz-adv-x="635" 
d="M480 228h-339l-119 -228h-36l375 715h48l156 -715h-35zM156 258h317l-93 429zM384 891h33l96 -120h-29l-86 91l-109 -91h-32z" />
    <glyph glyph-name="Atilde" unicode="&#xc3;" horiz-adv-x="635" 
d="M480 228h-339l-119 -228h-36l375 715h48l156 -715h-35zM156 258h317l-93 429zM457 774q-19 0 -36 9t-33 20.5t-31 20.5t-30 9q-17 0 -33 -14.5t-22 -44.5h-28q9 45 31.5 67t52.5 22q18 0 35 -9t33 -20.5t31.5 -20.5t30.5 -9q17 0 32.5 14.5t22.5 43.5h27q-8 -44 -31 -66
t-52 -22z" />
    <glyph glyph-name="Adieresis" unicode="&#xc4;" horiz-adv-x="635" 
d="M480 228h-339l-119 -228h-36l375 715h48l156 -715h-35zM156 258h317l-93 429zM308 788q-11 0 -18.5 7t-7.5 18t8 19t19 8t18 -7.5t7 -18.5t-7.5 -18.5t-18.5 -7.5zM475 788q-11 0 -18.5 7t-7.5 18t7.5 19t18.5 8t18.5 -7.5t7.5 -18.5t-7.5 -18.5t-18.5 -7.5z" />
    <glyph glyph-name="Aring" unicode="&#xc5;" horiz-adv-x="635" 
d="M480 228h-339l-119 -228h-36l375 715h48l156 -715h-35zM156 258h317l-93 429zM391 774q29 0 48.5 19.5t19.5 50.5q0 29 -18 47t-47 18t-48.5 -19.5t-19.5 -50.5q0 -27 18 -46t47 -19zM391 752q-20 0 -36.5 7t-28.5 19t-19 27.5t-7 33.5q0 19 7.5 36t20.5 29.5t30 20
t36 7.5q40 0 65.5 -26t25.5 -62q0 -39 -27 -65.5t-67 -26.5z" />
    <glyph glyph-name="AE" unicode="&#xc6;" horiz-adv-x="943" 
d="M454 715h489l-5 -30h-365l-48 -301h302l-5 -31h-301l-52 -322h390l-5 -31h-425l36 228h-291l-148 -228h-40zM194 258h275l68 427h-65z" />
    <glyph glyph-name="Ccedilla" unicode="&#xc7;" horiz-adv-x="724" 
d="M297 -211q-38 0 -62.5 19t-27.5 56h32q3 -47 58 -47q20 0 39 11.5t19 41.5q0 23 -13.5 32.5t-30.5 9.5q-16 0 -25 -3t-16 -8l-17 18l54 79q-116 18 -182 100.5t-66 213.5q0 83 26.5 157.5t75.5 130.5t118.5 89t155.5 33q50 0 95 -14t80.5 -41.5t59 -68t30.5 -92.5h-33
q-17 90 -79.5 138t-153.5 48q-79 0 -141.5 -30.5t-106 -82t-66.5 -120.5t-23 -147q0 -136 72 -212t202 -76q99 0 171 52t104 149h35q-17 -56 -47 -99t-70.5 -72.5t-89.5 -45t-103 -15.5h-16.5t-18.5 1l-40 -59q17 6 33.5 4t29.5 -10.5t21 -23t8 -34.5q0 -39 -25 -60.5
t-66 -21.5z" />
    <glyph glyph-name="Egrave" unicode="&#xc8;" horiz-adv-x="568" 
d="M165 715h401l-5 -30h-365l-48 -301h302l-5 -31h-301l-52 -322h390l-6 -31h-424zM299 891h41l55 -120h-28z" />
    <glyph glyph-name="Eacute" unicode="&#xc9;" horiz-adv-x="568" 
d="M165 715h401l-5 -30h-365l-48 -301h302l-5 -31h-301l-52 -322h390l-6 -31h-424zM421 891h43l-90 -120h-31z" />
    <glyph glyph-name="Ecircumflex" unicode="&#xca;" horiz-adv-x="568" 
d="M165 715h401l-5 -30h-365l-48 -301h302l-5 -31h-301l-52 -322h390l-6 -31h-424zM363 891h33l96 -120h-29l-86 91l-109 -91h-32z" />
    <glyph glyph-name="Edieresis" unicode="&#xcb;" horiz-adv-x="568" 
d="M165 715h401l-5 -30h-365l-48 -301h302l-5 -31h-301l-52 -322h390l-6 -31h-424zM287 788q-11 0 -18.5 7t-7.5 18t8 19t19 8t18 -7.5t7 -18.5t-7.5 -18.5t-18.5 -7.5zM454 788q-11 0 -18.5 7t-7.5 18t7.5 19t18.5 8t18.5 -7.5t7.5 -18.5t-7.5 -18.5t-18.5 -7.5z" />
    <glyph glyph-name="Igrave" unicode="&#xcc;" horiz-adv-x="234" 
d="M170 715h36l-113 -715h-36zM120 891h41l55 -120h-28z" />
    <glyph glyph-name="Iacute" unicode="&#xcd;" horiz-adv-x="234" 
d="M170 715h36l-113 -715h-36zM256 891h43l-90 -120h-31z" />
    <glyph glyph-name="Icircumflex" unicode="&#xce;" horiz-adv-x="234" 
d="M170 715h36l-113 -715h-36zM195 891h33l96 -120h-29l-86 91l-109 -91h-32z" />
    <glyph glyph-name="Idieresis" unicode="&#xcf;" horiz-adv-x="234" 
d="M170 715h36l-113 -715h-36zM120 788q-11 0 -18.5 7t-7.5 18t8 19t19 8t18 -7.5t7 -18.5t-7.5 -18.5t-18.5 -7.5zM287 788q-11 0 -18.5 7t-7.5 18t7.5 19t18.5 8t18.5 -7.5t7.5 -18.5t-7.5 -18.5t-18.5 -7.5z" />
    <glyph glyph-name="Eth" unicode="&#xd0;" horiz-adv-x="687" 
d="M41 375h75l54 340h172q81 0 140.5 -23t99 -64t58.5 -96.5t19 -120.5q0 -95 -28.5 -171t-81.5 -129.5t-128 -82t-169 -28.5h-195l54 345h-75zM251 31q86 0 155 26t117 74.5t74 119t26 160.5q0 58 -16.5 108t-51 87t-88 58t-126.5 21h-140l-50 -310h210l-5 -30h-210
l-49 -314h154z" />
    <glyph glyph-name="Ntilde" unicode="&#xd1;" horiz-adv-x="707" 
d="M165 715h49l329 -667l106 667h35l-113 -715h-43l-334 678l-107 -678h-35zM508 774q-19 0 -36 9t-33 20.5t-31 20.5t-30 9q-17 0 -33 -14.5t-22 -44.5h-28q9 45 31.5 67t52.5 22q18 0 35 -9t33 -20.5t31.5 -20.5t30.5 -9q17 0 32.5 14.5t22.5 43.5h27q-8 -44 -31 -66
t-52 -22z" />
    <glyph glyph-name="Ograve" unicode="&#xd2;" horiz-adv-x="788" 
d="M757 392q0 -80 -27 -152t-76.5 -127t-118 -87.5t-151.5 -32.5q-75 0 -135.5 25.5t-102.5 70t-64.5 105.5t-22.5 132q0 79 27.5 150.5t77.5 126t119.5 87t152.5 32.5q73 0 132.5 -25.5t101.5 -70t64.5 -105t22.5 -129.5zM721 392q0 61 -19 115.5t-56 95.5t-90 65t-121 24
q-76 0 -138.5 -29.5t-106.5 -79.5t-68.5 -116.5t-25.5 -140.5q-1 -63 18.5 -118.5t57 -96t91 -64t121.5 -23.5q76 0 138 29.5t106 80t68.5 117.5t24.5 141zM373 891h41l55 -120h-28z" />
    <glyph glyph-name="Oacute" unicode="&#xd3;" horiz-adv-x="788" 
d="M757 392q0 -80 -27 -152t-76.5 -127t-118 -87.5t-151.5 -32.5q-75 0 -135.5 25.5t-102.5 70t-64.5 105.5t-22.5 132q0 79 27.5 150.5t77.5 126t119.5 87t152.5 32.5q73 0 132.5 -25.5t101.5 -70t64.5 -105t22.5 -129.5zM721 392q0 61 -19 115.5t-56 95.5t-90 65t-121 24
q-76 0 -138.5 -29.5t-106.5 -79.5t-68.5 -116.5t-25.5 -140.5q-1 -63 18.5 -118.5t57 -96t91 -64t121.5 -23.5q76 0 138 29.5t106 80t68.5 117.5t24.5 141zM510 891h43l-90 -120h-31z" />
    <glyph glyph-name="Ocircumflex" unicode="&#xd4;" horiz-adv-x="788" 
d="M757 392q0 -80 -27 -152t-76.5 -127t-118 -87.5t-151.5 -32.5q-75 0 -135.5 25.5t-102.5 70t-64.5 105.5t-22.5 132q0 79 27.5 150.5t77.5 126t119.5 87t152.5 32.5q73 0 132.5 -25.5t101.5 -70t64.5 -105t22.5 -129.5zM721 392q0 61 -19 115.5t-56 95.5t-90 65t-121 24
q-76 0 -138.5 -29.5t-106.5 -79.5t-68.5 -116.5t-25.5 -140.5q-1 -63 18.5 -118.5t57 -96t91 -64t121.5 -23.5q76 0 138 29.5t106 80t68.5 117.5t24.5 141zM448 891h33l96 -120h-29l-86 91l-109 -91h-32z" />
    <glyph glyph-name="Otilde" unicode="&#xd5;" horiz-adv-x="788" 
d="M757 392q0 -80 -27 -152t-76.5 -127t-118 -87.5t-151.5 -32.5q-75 0 -135.5 25.5t-102.5 70t-64.5 105.5t-22.5 132q0 79 27.5 150.5t77.5 126t119.5 87t152.5 32.5q73 0 132.5 -25.5t101.5 -70t64.5 -105t22.5 -129.5zM721 392q0 61 -19 115.5t-56 95.5t-90 65t-121 24
q-76 0 -138.5 -29.5t-106.5 -79.5t-68.5 -116.5t-25.5 -140.5q-1 -63 18.5 -118.5t57 -96t91 -64t121.5 -23.5q76 0 138 29.5t106 80t68.5 117.5t24.5 141zM517 774q-19 0 -36 9t-33 20.5t-31 20.5t-30 9q-17 0 -33 -14.5t-22 -44.5h-28q9 45 31.5 67t52.5 22q18 0 35 -9
t33 -20.5t31.5 -20.5t30.5 -9q17 0 32.5 14.5t22.5 43.5h27q-8 -44 -31 -66t-52 -22z" />
    <glyph glyph-name="Odieresis" unicode="&#xd6;" horiz-adv-x="788" 
d="M757 392q0 -80 -27 -152t-76.5 -127t-118 -87.5t-151.5 -32.5q-75 0 -135.5 25.5t-102.5 70t-64.5 105.5t-22.5 132q0 79 27.5 150.5t77.5 126t119.5 87t152.5 32.5q73 0 132.5 -25.5t101.5 -70t64.5 -105t22.5 -129.5zM721 392q0 61 -19 115.5t-56 95.5t-90 65t-121 24
q-76 0 -138.5 -29.5t-106.5 -79.5t-68.5 -116.5t-25.5 -140.5q-1 -63 18.5 -118.5t57 -96t91 -64t121.5 -23.5q76 0 138 29.5t106 80t68.5 117.5t24.5 141zM368 788q-11 0 -18.5 7t-7.5 18t8 19t19 8t18 -7.5t7 -18.5t-7.5 -18.5t-18.5 -7.5zM535 788q-11 0 -18.5 7t-7.5 18
t7.5 19t18.5 8t18.5 -7.5t7.5 -18.5t-7.5 -18.5t-18.5 -7.5z" />
    <glyph glyph-name="multiply" unicode="&#xd7;" horiz-adv-x="492" 
d="M43 172l185 165l-143 164l22 21l143 -165l186 165l19 -23l-185 -164l144 -165l-23 -20l-144 165l-185 -165z" />
    <glyph glyph-name="Oslash" unicode="&#xd8;" horiz-adv-x="788" 
d="M33 3l98 102q-72 89 -72 221q0 79 27.5 150.5t77.5 126t119.5 87t152.5 32.5q66 0 120.5 -21t95.5 -58l91 94l21 -22l-90 -93q40 -45 61.5 -103.5t21.5 -126.5q0 -80 -27 -152t-76.5 -127t-118 -87.5t-151.5 -32.5q-73 0 -131.5 23.5t-100.5 65.5l-98 -101zM721 392
q0 61 -17.5 113.5t-52.5 92.5l-476 -492q38 -38 90.5 -60t118.5 -22q76 0 138 29.5t106 80t68.5 117.5t24.5 141zM96 326q-1 -58 14.5 -108t44.5 -89l475 491q-36 34 -85 53t-110 19q-76 0 -138.5 -29.5t-106.5 -79.5t-68.5 -116.5t-25.5 -140.5z" />
    <glyph glyph-name="Ugrave" unicode="&#xd9;" horiz-adv-x="674" 
d="M318 -5q-137 0 -197.5 71t-40.5 201l71 448h36l-71 -448q-18 -118 31.5 -179.5t171.5 -61.5q105 0 161 53t73 163l75 473h36l-75 -476q-19 -119 -83 -181.5t-188 -62.5zM334 891h41l55 -120h-28z" />
    <glyph glyph-name="Uacute" unicode="&#xda;" horiz-adv-x="674" 
d="M318 -5q-137 0 -197.5 71t-40.5 201l71 448h36l-71 -448q-18 -118 31.5 -179.5t171.5 -61.5q105 0 161 53t73 163l75 473h36l-75 -476q-19 -119 -83 -181.5t-188 -62.5zM465 891h43l-90 -120h-31z" />
    <glyph glyph-name="Ucircumflex" unicode="&#xdb;" horiz-adv-x="674" 
d="M318 -5q-137 0 -197.5 71t-40.5 201l71 448h36l-71 -448q-18 -118 31.5 -179.5t171.5 -61.5q105 0 161 53t73 163l75 473h36l-75 -476q-19 -119 -83 -181.5t-188 -62.5zM410 891h33l96 -120h-29l-86 91l-109 -91h-32z" />
    <glyph glyph-name="Udieresis" unicode="&#xdc;" horiz-adv-x="674" 
d="M318 -5q-137 0 -197.5 71t-40.5 201l71 448h36l-71 -448q-18 -118 31.5 -179.5t171.5 -61.5q105 0 161 53t73 163l75 473h36l-75 -476q-19 -119 -83 -181.5t-188 -62.5zM333 788q-11 0 -18.5 7t-7.5 18t8 19t19 8t18 -7.5t7 -18.5t-7.5 -18.5t-18.5 -7.5zM500 788
q-11 0 -18.5 7t-7.5 18t7.5 19t18.5 8t18.5 -7.5t7.5 -18.5t-7.5 -18.5t-18.5 -7.5z" />
    <glyph glyph-name="Yacute" unicode="&#xdd;" horiz-adv-x="564" 
d="M276 322l-189 393h37l175 -363l269 363h39l-295 -396l-51 -319h-36zM408 891h43l-90 -120h-31z" />
    <glyph glyph-name="Thorn" unicode="&#xde;" horiz-adv-x="559" 
d="M176 565h136q49 0 90 -11t70 -32.5t45 -54.5t16 -77q0 -59 -19 -99.5t-53 -65.5t-81 -36.5t-102 -11.5h-163l-28 -177h-35l113 715h35zM171 534l-52 -327h160q50 0 90.5 9.5t69 31.5t43.5 57t15 85q0 77 -51 110.5t-137 33.5h-138z" />
    <glyph glyph-name="germandbls" unicode="&#xdf;" horiz-adv-x="553" 
d="M282 -5q-35 0 -62 6t-47 17l5 29q22 -11 46.5 -17t56.5 -6q87 0 138.5 54.5t51.5 150.5q0 42 -14.5 78.5t-41 63.5t-62.5 43t-79 17l6 29q39 1 74 12t61 31t41 50t15 69q0 31 -10.5 54.5t-28.5 39t-42 23.5t-52 8q-72 1 -117 -44t-56 -120l-92 -583h-34l92 585
q7 45 25 80t45 60t62 38t76 13q33 0 63.5 -10t53 -29.5t36 -48.5t13.5 -66q0 -36 -13 -66t-35.5 -52.5t-52 -37.5t-63.5 -21q33 -8 62.5 -27t52.5 -46.5t36.5 -64t13.5 -79.5q0 -54 -16 -97.5t-45.5 -73.5t-70.5 -46t-92 -16z" />
    <glyph glyph-name="agrave" unicode="&#xe0;" horiz-adv-x="521" 
d="M204 -7q-88 0 -130 40.5t-42 101.5q0 48 18.5 79t49.5 49t72.5 25.5t86.5 7.5h156l7 45q11 77 -19.5 118.5t-115.5 41.5q-60 0 -104 -27.5t-63 -93.5h-35q10 40 30.5 69t48 47t59 26.5t64.5 8.5q99 0 141 -51t28 -142l-30 -192q-8 -54 -10.5 -87.5t-2.5 -58.5h-33
q0 18 1.5 41t3.5 45q-23 -38 -69.5 -65.5t-111.5 -27.5zM207 21q35 0 66.5 10t57 29t42 44.5t21.5 57.5l17 106h-152q-39 0 -74.5 -5.5t-61.5 -20t-41.5 -40.5t-15.5 -67q0 -48 33.5 -81t107.5 -33zM224 747h40l51 -147h-28z" />
    <glyph glyph-name="aacute" unicode="&#xe1;" horiz-adv-x="521" 
d="M204 -7q-88 0 -130 40.5t-42 101.5q0 48 18.5 79t49.5 49t72.5 25.5t86.5 7.5h156l7 45q11 77 -19.5 118.5t-115.5 41.5q-60 0 -104 -27.5t-63 -93.5h-35q10 40 30.5 69t48 47t59 26.5t64.5 8.5q99 0 141 -51t28 -142l-30 -192q-8 -54 -10.5 -87.5t-2.5 -58.5h-33
q0 18 1.5 41t3.5 45q-23 -38 -69.5 -65.5t-111.5 -27.5zM207 21q35 0 66.5 10t57 29t42 44.5t21.5 57.5l17 106h-152q-39 0 -74.5 -5.5t-61.5 -20t-41.5 -40.5t-15.5 -67q0 -48 33.5 -81t107.5 -33zM372 747h43l-106 -147h-30z" />
    <glyph glyph-name="acircumflex" unicode="&#xe2;" horiz-adv-x="521" 
d="M204 -7q-88 0 -130 40.5t-42 101.5q0 48 18.5 79t49.5 49t72.5 25.5t86.5 7.5h156l7 45q11 77 -19.5 118.5t-115.5 41.5q-60 0 -104 -27.5t-63 -93.5h-35q10 40 30.5 69t48 47t59 26.5t64.5 8.5q99 0 141 -51t28 -142l-30 -192q-8 -54 -10.5 -87.5t-2.5 -58.5h-33
q0 18 1.5 41t3.5 45q-23 -38 -69.5 -65.5t-111.5 -27.5zM207 21q35 0 66.5 10t57 29t42 44.5t21.5 57.5l17 106h-152q-39 0 -74.5 -5.5t-61.5 -20t-41.5 -40.5t-15.5 -67q0 -48 33.5 -81t107.5 -33zM299 729h33l94 -129h-29l-84 101l-110 -101h-31z" />
    <glyph glyph-name="atilde" unicode="&#xe3;" horiz-adv-x="521" 
d="M204 -7q-88 0 -130 40.5t-42 101.5q0 48 18.5 79t49.5 49t72.5 25.5t86.5 7.5h156l7 45q11 77 -19.5 118.5t-115.5 41.5q-60 0 -104 -27.5t-63 -93.5h-35q10 40 30.5 69t48 47t59 26.5t64.5 8.5q99 0 141 -51t28 -142l-30 -192q-8 -54 -10.5 -87.5t-2.5 -58.5h-33
q0 18 1.5 41t3.5 45q-23 -38 -69.5 -65.5t-111.5 -27.5zM207 21q35 0 66.5 10t57 29t42 44.5t21.5 57.5l17 106h-152q-39 0 -74.5 -5.5t-61.5 -20t-41.5 -40.5t-15.5 -67q0 -48 33.5 -81t107.5 -33zM372 615q-19 0 -36 9t-33 20t-31 20t-30 9q-18 0 -33.5 -14.5t-22.5 -43.5
h-28q9 45 32 66.5t53 21.5q18 0 35 -9t33 -20.5t31 -20.5t30 -9q17 0 33 15t22 44h28q-9 -44 -31.5 -66t-51.5 -22z" />
    <glyph glyph-name="adieresis" unicode="&#xe4;" horiz-adv-x="521" 
d="M204 -7q-88 0 -130 40.5t-42 101.5q0 48 18.5 79t49.5 49t72.5 25.5t86.5 7.5h156l7 45q11 77 -19.5 118.5t-115.5 41.5q-60 0 -104 -27.5t-63 -93.5h-35q10 40 30.5 69t48 47t59 26.5t64.5 8.5q99 0 141 -51t28 -142l-30 -192q-8 -54 -10.5 -87.5t-2.5 -58.5h-33
q0 18 1.5 41t3.5 45q-23 -38 -69.5 -65.5t-111.5 -27.5zM207 21q35 0 66.5 10t57 29t42 44.5t21.5 57.5l17 106h-152q-39 0 -74.5 -5.5t-61.5 -20t-41.5 -40.5t-15.5 -67q0 -48 33.5 -81t107.5 -33zM231 638q-11 0 -18.5 7.5t-7.5 18.5t7.5 18.5t18.5 7.5t18.5 -7.5
t7.5 -18.5t-7.5 -18.5t-18.5 -7.5zM384 638q-11 0 -18.5 7.5t-7.5 18.5t7.5 18.5t18.5 7.5t18.5 -7.5t7.5 -18.5t-7.5 -18.5t-18.5 -7.5z" />
    <glyph glyph-name="aring" unicode="&#xe5;" horiz-adv-x="521" 
d="M204 -7q-88 0 -130 40.5t-42 101.5q0 48 18.5 79t49.5 49t72.5 25.5t86.5 7.5h156l7 45q11 77 -19.5 118.5t-115.5 41.5q-60 0 -104 -27.5t-63 -93.5h-35q10 40 30.5 69t48 47t59 26.5t64.5 8.5q99 0 141 -51t28 -142l-30 -192q-8 -54 -10.5 -87.5t-2.5 -58.5h-33
q0 18 1.5 41t3.5 45q-23 -38 -69.5 -65.5t-111.5 -27.5zM207 21q35 0 66.5 10t57 29t42 44.5t21.5 57.5l17 106h-152q-39 0 -74.5 -5.5t-61.5 -20t-41.5 -40.5t-15.5 -67q0 -48 33.5 -81t107.5 -33zM314 625q30 0 49 19.5t19 50.5q0 29 -17.5 47t-46.5 18t-48.5 -19.5
t-19.5 -50.5q0 -27 18 -46t46 -19zM314 603q-19 0 -35.5 7t-28.5 19t-19 27.5t-7 33.5q0 19 7.5 36t20 29.5t29.5 20t37 7.5q40 0 65 -26t25 -62q0 -39 -27 -65.5t-67 -26.5z" />
    <glyph glyph-name="ae" unicode="&#xe6;" horiz-adv-x="897" 
d="M444 217q0 -94 43.5 -144.5t134.5 -50.5q136 0 183 122h34q-26 -76 -82.5 -114t-135.5 -38q-89 0 -139.5 42t-64.5 116q-11 -42 -33 -71.5t-50.5 -48.5t-62 -28t-67.5 -9q-88 0 -130 39.5t-42 100.5q0 46 18.5 76.5t50 49t73 26t86.5 7.5h156l7 49q11 77 -20 118.5
t-116 41.5q-60 0 -104 -27.5t-63 -93.5h-35q10 40 30.5 69t48 47t59 26.5t64.5 8.5q79 0 121 -34t47 -95q32 58 86 93t126 35q56 0 96 -18.5t64 -52t32 -80t0 -101.5l-3 -14h-410q-1 -11 -1.5 -23t-0.5 -24zM206 21q36 0 68.5 10.5t58 31t43 51.5t23.5 73l12 77h-152
q-39 0 -74 -5.5t-61.5 -19.5t-42 -40t-15.5 -66q0 -48 33 -80t107 -32zM666 501q-44 0 -80.5 -15.5t-63.5 -43.5t-45.5 -66t-26.5 -84h377q6 46 -0.5 84t-26 66t-53 43.5t-81.5 15.5z" />
    <glyph glyph-name="ccedilla" unicode="&#xe7;" horiz-adv-x="543" 
d="M209 -211q-38 0 -62.5 19t-27.5 56h32q3 -47 58 -47q20 0 39 11.5t19 41.5q0 23 -13.5 32.5t-30.5 9.5q-16 0 -25 -3t-16 -8l-17 18l54 79q-85 15 -131.5 78t-46.5 155q0 64 20 119t56 95t85.5 62.5t108.5 22.5q41 0 76 -12t61.5 -34t42 -53.5t18.5 -71.5h-34
q-4 66 -49 104t-117 38q-53 0 -96 -21t-73.5 -57t-47 -85.5t-16.5 -106.5q0 -48 14 -87t39.5 -66t61.5 -41.5t81 -14.5q72 0 124.5 38.5t71.5 113.5h33q-10 -45 -31.5 -78.5t-51.5 -56.5t-67 -34.5t-79 -11.5h-9t-15 1l-40 -59q17 6 33.5 4t29.5 -10.5t21 -23t8 -34.5
q0 -39 -25 -60.5t-66 -21.5z" />
    <glyph glyph-name="egrave" unicode="&#xe8;" horiz-adv-x="535" 
d="M74 217q0 -94 46 -144.5t137 -50.5q67 0 114.5 30.5t71.5 91.5h34q-26 -76 -84 -114t-137 -38q-108 0 -163 61t-55 165q0 63 18.5 119.5t53 99t83 68t109.5 25.5q56 0 97 -18.5t65.5 -52t33 -80t-0.5 -101.5l-2 -14h-419q-1 -11 -1.5 -23t-0.5 -24zM301 501
q-45 0 -81.5 -15.5t-65 -43t-47 -66t-27.5 -83.5h385q6 46 -1 84t-27 65.5t-53.5 43t-82.5 15.5zM233 747h40l51 -147h-28z" />
    <glyph glyph-name="eacute" unicode="&#xe9;" horiz-adv-x="535" 
d="M74 217q0 -94 46 -144.5t137 -50.5q67 0 114.5 30.5t71.5 91.5h34q-26 -76 -84 -114t-137 -38q-108 0 -163 61t-55 165q0 63 18.5 119.5t53 99t83 68t109.5 25.5q56 0 97 -18.5t65.5 -52t33 -80t-0.5 -101.5l-2 -14h-419q-1 -11 -1.5 -23t-0.5 -24zM301 501
q-45 0 -81.5 -15.5t-65 -43t-47 -66t-27.5 -83.5h385q6 46 -1 84t-27 65.5t-53.5 43t-82.5 15.5zM381 747h43l-106 -147h-30z" />
    <glyph glyph-name="ecircumflex" unicode="&#xea;" horiz-adv-x="535" 
d="M74 217q0 -94 46 -144.5t137 -50.5q67 0 114.5 30.5t71.5 91.5h34q-26 -76 -84 -114t-137 -38q-108 0 -163 61t-55 165q0 63 18.5 119.5t53 99t83 68t109.5 25.5q56 0 97 -18.5t65.5 -52t33 -80t-0.5 -101.5l-2 -14h-419q-1 -11 -1.5 -23t-0.5 -24zM301 501
q-45 0 -81.5 -15.5t-65 -43t-47 -66t-27.5 -83.5h385q6 46 -1 84t-27 65.5t-53.5 43t-82.5 15.5zM308 729h33l94 -129h-29l-84 101l-110 -101h-31z" />
    <glyph glyph-name="edieresis" unicode="&#xeb;" horiz-adv-x="535" 
d="M74 217q0 -94 46 -144.5t137 -50.5q67 0 114.5 30.5t71.5 91.5h34q-26 -76 -84 -114t-137 -38q-108 0 -163 61t-55 165q0 63 18.5 119.5t53 99t83 68t109.5 25.5q56 0 97 -18.5t65.5 -52t33 -80t-0.5 -101.5l-2 -14h-419q-1 -11 -1.5 -23t-0.5 -24zM301 501
q-45 0 -81.5 -15.5t-65 -43t-47 -66t-27.5 -83.5h385q6 46 -1 84t-27 65.5t-53.5 43t-82.5 15.5zM241 638q-11 0 -18.5 7.5t-7.5 18.5t7.5 18.5t18.5 7.5t18.5 -7.5t7.5 -18.5t-7.5 -18.5t-18.5 -7.5zM394 638q-11 0 -18.5 7.5t-7.5 18.5t7.5 18.5t18.5 7.5t18.5 -7.5
t7.5 -18.5t-7.5 -18.5t-18.5 -7.5z" />
    <glyph glyph-name="igrave" unicode="&#xec;" horiz-adv-x="200" 
d="M123 523h35l-83 -523h-34zM75 747h40l51 -147h-28z" />
    <glyph glyph-name="iacute" unicode="&#xed;" horiz-adv-x="200" 
d="M123 523h35l-83 -523h-34zM228 747h43l-106 -147h-30z" />
    <glyph glyph-name="icircumflex" unicode="&#xee;" horiz-adv-x="200" 
d="M123 523h35l-83 -523h-34zM150 729h33l94 -129h-29l-84 101l-110 -101h-31z" />
    <glyph glyph-name="idieresis" unicode="&#xef;" horiz-adv-x="200" 
d="M98 638q-11 0 -18.5 7.5t-7.5 18.5t8 18.5t19 7.5t18 -7.5t7 -18.5t-7.5 -18.5t-18.5 -7.5zM227 638q-11 0 -18.5 7.5t-7.5 18.5t7.5 18.5t18.5 7.5t18.5 -7.5t7.5 -18.5t-7.5 -18.5t-18.5 -7.5zM123 523h35l-83 -523h-34z" />
    <glyph glyph-name="eth" unicode="&#xf0;" horiz-adv-x="576" 
d="M166 612l147 79q-26 22 -54.5 42t-59.5 40h47q23 -14 47.5 -30.5t47.5 -36.5l120 64l12 -23l-111 -60q36 -33 67.5 -72.5t55 -87t37 -103t13.5 -119.5q0 -66 -18.5 -123t-54 -99.5t-86 -66.5t-113.5 -24q-51 0 -92.5 18.5t-71 50.5t-46 75.5t-16.5 93.5q0 58 18.5 112
t53.5 96t85 67t112 25q74 0 117.5 -31t66.5 -75q-22 78 -62 138t-94 110l-156 -83zM72 229q0 -41 12.5 -78.5t37 -66t60 -45.5t81.5 -17q55 0 99 21.5t74.5 58t47 86t16.5 106.5q0 46 -13.5 84t-38 65.5t-60 42.5t-79.5 15q-56 0 -100 -22.5t-74.5 -60t-46.5 -86.5t-16 -103
z" />
    <glyph glyph-name="ntilde" unicode="&#xf1;" horiz-adv-x="567" 
d="M99 384q8 52 10.5 83t4.5 56h33q-1 -20 -3.5 -50.5t-7.5 -64.5q13 25 33 47.5t45.5 39t56.5 26.5t67 10q43 0 76.5 -13.5t55 -41t29.5 -69t-1 -96.5l-49 -311h-35l50 316q15 94 -22 139.5t-109 45.5q-36 0 -70.5 -12t-63 -36t-49 -59t-27.5 -80l-50 -314h-34zM394 615
q-19 0 -36 9t-33 20t-31 20t-30 9q-18 0 -33.5 -14.5t-22.5 -43.5h-28q9 45 32 66.5t53 21.5q18 0 35 -9t33 -20.5t31 -20.5t30 -9q17 0 33 15t22 44h28q-9 -44 -31.5 -66t-51.5 -22z" />
    <glyph glyph-name="ograve" unicode="&#xf2;" horiz-adv-x="573" 
d="M265 -7q-51 0 -93 18.5t-72 50.5t-46.5 75t-16.5 92q0 60 19 115t54.5 96t86 65.5t113.5 24.5q53 0 94.5 -19t70.5 -51t44.5 -75t15.5 -91q0 -63 -19 -118t-54 -95.5t-85 -64t-112 -23.5zM266 22q54 0 97.5 21t74 57.5t46.5 86.5t16 107q0 42 -12.5 79.5t-37 66t-60 45
t-81.5 16.5q-56 0 -100 -22t-74.5 -59t-46.5 -86.5t-16 -104.5q0 -42 13.5 -80t38.5 -66t61 -44.5t81 -16.5zM249 747h40l51 -147h-28z" />
    <glyph glyph-name="oacute" unicode="&#xf3;" horiz-adv-x="573" 
d="M265 -7q-51 0 -93 18.5t-72 50.5t-46.5 75t-16.5 92q0 60 19 115t54.5 96t86 65.5t113.5 24.5q53 0 94.5 -19t70.5 -51t44.5 -75t15.5 -91q0 -63 -19 -118t-54 -95.5t-85 -64t-112 -23.5zM266 22q54 0 97.5 21t74 57.5t46.5 86.5t16 107q0 42 -12.5 79.5t-37 66t-60 45
t-81.5 16.5q-56 0 -100 -22t-74.5 -59t-46.5 -86.5t-16 -104.5q0 -42 13.5 -80t38.5 -66t61 -44.5t81 -16.5zM398 747h43l-106 -147h-30z" />
    <glyph glyph-name="ocircumflex" unicode="&#xf4;" horiz-adv-x="573" 
d="M265 -7q-51 0 -93 18.5t-72 50.5t-46.5 75t-16.5 92q0 60 19 115t54.5 96t86 65.5t113.5 24.5q53 0 94.5 -19t70.5 -51t44.5 -75t15.5 -91q0 -63 -19 -118t-54 -95.5t-85 -64t-112 -23.5zM266 22q54 0 97.5 21t74 57.5t46.5 86.5t16 107q0 42 -12.5 79.5t-37 66t-60 45
t-81.5 16.5q-56 0 -100 -22t-74.5 -59t-46.5 -86.5t-16 -104.5q0 -42 13.5 -80t38.5 -66t61 -44.5t81 -16.5zM322 729h33l94 -129h-29l-84 101l-110 -101h-31z" />
    <glyph glyph-name="otilde" unicode="&#xf5;" horiz-adv-x="573" 
d="M265 -7q-51 0 -93 18.5t-72 50.5t-46.5 75t-16.5 92q0 60 19 115t54.5 96t86 65.5t113.5 24.5q53 0 94.5 -19t70.5 -51t44.5 -75t15.5 -91q0 -63 -19 -118t-54 -95.5t-85 -64t-112 -23.5zM266 22q54 0 97.5 21t74 57.5t46.5 86.5t16 107q0 42 -12.5 79.5t-37 66t-60 45
t-81.5 16.5q-56 0 -100 -22t-74.5 -59t-46.5 -86.5t-16 -104.5q0 -42 13.5 -80t38.5 -66t61 -44.5t81 -16.5zM393 615q-19 0 -36 9t-33 20t-31 20t-30 9q-18 0 -33.5 -14.5t-22.5 -43.5h-28q9 45 32 66.5t53 21.5q18 0 35 -9t33 -20.5t31 -20.5t30 -9q17 0 33 15t22 44h28
q-9 -44 -31.5 -66t-51.5 -22z" />
    <glyph glyph-name="odieresis" unicode="&#xf6;" horiz-adv-x="573" 
d="M265 -7q-51 0 -93 18.5t-72 50.5t-46.5 75t-16.5 92q0 60 19 115t54.5 96t86 65.5t113.5 24.5q53 0 94.5 -19t70.5 -51t44.5 -75t15.5 -91q0 -63 -19 -118t-54 -95.5t-85 -64t-112 -23.5zM266 22q54 0 97.5 21t74 57.5t46.5 86.5t16 107q0 42 -12.5 79.5t-37 66t-60 45
t-81.5 16.5q-56 0 -100 -22t-74.5 -59t-46.5 -86.5t-16 -104.5q0 -42 13.5 -80t38.5 -66t61 -44.5t81 -16.5zM252 638q-11 0 -18.5 7.5t-7.5 18.5t7.5 18.5t18.5 7.5t18.5 -7.5t7.5 -18.5t-7.5 -18.5t-18.5 -7.5zM405 638q-11 0 -18.5 7.5t-7.5 18.5t7.5 18.5t18.5 7.5
t18.5 -7.5t7.5 -18.5t-7.5 -18.5t-18.5 -7.5z" />
    <glyph glyph-name="divide" unicode="&#xf7;" horiz-adv-x="505" 
d="M51 357h431l-5 -30h-431zM241 143q-12 0 -20.5 8.5t-8.5 20.5t8.5 20.5t20.5 8.5t20.5 -8.5t8.5 -20.5t-8.5 -20.5t-20.5 -8.5zM288 484q-13 0 -21 8.5t-8 19.5q0 12 8 20.5t21 8.5q12 0 20 -8.5t8 -20.5q0 -11 -8 -19.5t-20 -8.5z" />
    <glyph glyph-name="oslash" unicode="&#xf8;" horiz-adv-x="573" 
d="M18 3l69 72q-24 31 -37 70t-13 84q0 60 19 115t54.5 96t86 65.5t113.5 24.5q49 0 88 -16t68 -44l66 69l21 -20l-68 -71q24 -32 37 -71t13 -83q0 -63 -19 -118t-54 -95.5t-85 -64t-112 -23.5q-48 0 -88 15.5t-70 44.5l-68 -71zM266 22q54 0 97.5 21t74 57.5t46.5 86.5
t16 107q0 74 -37 130l-334 -348q25 -25 59 -39.5t78 -14.5zM72 229q0 -75 38 -130l334 348q-24 25 -57.5 39.5t-77.5 14.5q-56 0 -100 -22t-74.5 -59t-46.5 -86.5t-16 -104.5z" />
    <glyph glyph-name="ugrave" unicode="&#xf9;" horiz-adv-x="563" 
d="M461 140q-8 -47 -10 -82t-3 -58h-33q0 23 2.5 53.5t7.5 61.5q-27 -51 -78 -87t-123 -36q-43 0 -76.5 14t-54.5 41.5t-28.5 68.5t1.5 96l49 311h34l-50 -315q-15 -94 21 -140t108 -46q36 0 70.5 12.5t63 36t48.5 58.5t27 80l50 314h34zM249 747h40l51 -147h-28z" />
    <glyph glyph-name="uacute" unicode="&#xfa;" horiz-adv-x="563" 
d="M461 140q-8 -47 -10 -82t-3 -58h-33q0 23 2.5 53.5t7.5 61.5q-27 -51 -78 -87t-123 -36q-43 0 -76.5 14t-54.5 41.5t-28.5 68.5t1.5 96l49 311h34l-50 -315q-15 -94 21 -140t108 -46q36 0 70.5 12.5t63 36t48.5 58.5t27 80l50 314h34zM393 747h43l-106 -147h-30z" />
    <glyph glyph-name="ucircumflex" unicode="&#xfb;" horiz-adv-x="563" 
d="M461 140q-8 -47 -10 -82t-3 -58h-33q0 23 2.5 53.5t7.5 61.5q-27 -51 -78 -87t-123 -36q-43 0 -76.5 14t-54.5 41.5t-28.5 68.5t1.5 96l49 311h34l-50 -315q-15 -94 21 -140t108 -46q36 0 70.5 12.5t63 36t48.5 58.5t27 80l50 314h34zM320 729h33l94 -129h-29l-84 101
l-110 -101h-31z" />
    <glyph glyph-name="udieresis" unicode="&#xfc;" horiz-adv-x="563" 
d="M461 140q-8 -47 -10 -82t-3 -58h-33q0 23 2.5 53.5t7.5 61.5q-27 -51 -78 -87t-123 -36q-43 0 -76.5 14t-54.5 41.5t-28.5 68.5t1.5 96l49 311h34l-50 -315q-15 -94 21 -140t108 -46q36 0 70.5 12.5t63 36t48.5 58.5t27 80l50 314h34zM255 638q-11 0 -18.5 7.5t-7.5 18.5
t7.5 18.5t18.5 7.5t18.5 -7.5t7.5 -18.5t-7.5 -18.5t-18.5 -7.5zM408 638q-11 0 -18.5 7.5t-7.5 18.5t7.5 18.5t18.5 7.5t18.5 -7.5t7.5 -18.5t-7.5 -18.5t-18.5 -7.5z" />
    <glyph glyph-name="yacute" unicode="&#xfd;" horiz-adv-x="486" 
d="M196 42l-131 481h34l121 -443l245 443h37l-395 -705h-37zM365 747h43l-106 -147h-30z" />
    <glyph glyph-name="thorn" unicode="&#xfe;" horiz-adv-x="597" 
d="M161 773h34l-60 -380q14 29 35.5 54t48.5 44t59.5 29.5t70.5 10.5q44 0 82 -17t66.5 -47.5t44.5 -74t16 -97.5q0 -62 -16.5 -117t-48.5 -96.5t-79.5 -65.5t-110.5 -24q-48 0 -84 15t-61 39t-39.5 53t-20.5 56l-54 -337h-34zM301 22q55 0 96.5 21t69.5 58t42 86.5
t14 106.5q0 49 -14 87.5t-38 65.5t-56.5 41t-69.5 14q-54 0 -97 -23t-73 -60.5t-46.5 -86t-17.5 -99.5q0 -50 14 -89t39.5 -66t60.5 -41.5t76 -14.5z" />
    <glyph glyph-name="ydieresis" unicode="&#xff;" horiz-adv-x="486" 
d="M196 42l-131 481h34l121 -443l245 443h37l-395 -705h-37zM228 638q-11 0 -18.5 7.5t-7.5 18.5t7.5 18.5t18.5 7.5t18.5 -7.5t7.5 -18.5t-7.5 -18.5t-18.5 -7.5zM381 638q-11 0 -18.5 7.5t-7.5 18.5t7.5 18.5t18.5 7.5t18.5 -7.5t7.5 -18.5t-7.5 -18.5t-18.5 -7.5z" />
    <glyph glyph-name="Amacron" unicode="&#x100;" horiz-adv-x="635" 
d="M480 228h-339l-119 -228h-36l375 715h48l156 -715h-35zM156 258h317l-93 429zM280 823h236l-4 -29h-236z" />
    <glyph glyph-name="amacron" unicode="&#x101;" horiz-adv-x="521" 
d="M204 -7q-88 0 -130 40.5t-42 101.5q0 48 18.5 79t49.5 49t72.5 25.5t86.5 7.5h156l7 45q11 77 -19.5 118.5t-115.5 41.5q-60 0 -104 -27.5t-63 -93.5h-35q10 40 30.5 69t48 47t59 26.5t64.5 8.5q99 0 141 -51t28 -142l-30 -192q-8 -54 -10.5 -87.5t-2.5 -58.5h-33
q0 18 1.5 41t3.5 45q-23 -38 -69.5 -65.5t-111.5 -27.5zM207 21q35 0 66.5 10t57 29t42 44.5t21.5 57.5l17 106h-152q-39 0 -74.5 -5.5t-61.5 -20t-41.5 -40.5t-15.5 -67q0 -48 33.5 -81t107.5 -33zM201 675h229l-4 -28h-230z" />
    <glyph glyph-name="Abreve" unicode="&#x102;" horiz-adv-x="635" 
d="M480 228h-339l-119 -228h-36l375 715h48l156 -715h-35zM156 258h317l-93 429zM390 773q-51 0 -82.5 33t-32.5 84h30q2 -39 24.5 -63.5t61.5 -24.5q38 0 66 24t36 64h29q-3 -26 -15 -47.5t-30 -37t-40.5 -24t-46.5 -8.5z" />
    <glyph glyph-name="abreve" unicode="&#x103;" horiz-adv-x="521" 
d="M204 -7q-88 0 -130 40.5t-42 101.5q0 48 18.5 79t49.5 49t72.5 25.5t86.5 7.5h156l7 45q11 77 -19.5 118.5t-115.5 41.5q-60 0 -104 -27.5t-63 -93.5h-35q10 40 30.5 69t48 47t59 26.5t64.5 8.5q99 0 141 -51t28 -142l-30 -192q-8 -54 -10.5 -87.5t-2.5 -58.5h-33
q0 18 1.5 41t3.5 45q-23 -38 -69.5 -65.5t-111.5 -27.5zM207 21q35 0 66.5 10t57 29t42 44.5t21.5 57.5l17 106h-152q-39 0 -74.5 -5.5t-61.5 -20t-41.5 -40.5t-15.5 -67q0 -48 33.5 -81t107.5 -33zM305 614q-51 0 -79.5 31.5t-29.5 82.5h30q2 -39 22 -62t58 -23
q37 0 62.5 22.5t33.5 62.5h29q-8 -53 -43.5 -83.5t-82.5 -30.5z" />
    <glyph glyph-name="Aogonek" unicode="&#x104;" horiz-adv-x="635" 
d="M432 -112q0 21 10 38.5t24.5 32t31.5 25t31 18.5l-49 226h-339l-119 -228h-36l375 715h48l156 -715q-14 -8 -31.5 -19t-32.5 -24.5t-25.5 -30t-10.5 -35.5q0 -20 12.5 -33t41.5 -13q23 0 46 8l-5 -27q-9 -3 -21 -5.5t-26 -2.5q-40 0 -61 19t-20 51zM156 258h317l-93 429z
" />
    <glyph glyph-name="aogonek" unicode="&#x105;" horiz-adv-x="521" 
d="M363 -182q-40 0 -61 19t-20 51q0 21 10.5 39t25.5 32.5t32 25.5t30 19q0 17 1.5 39t3.5 43q-23 -38 -69.5 -65.5t-111.5 -27.5q-88 0 -130 40.5t-42 101.5q0 48 18.5 79t49.5 49t72.5 25.5t86.5 7.5h156l7 45q11 77 -19.5 118.5t-115.5 41.5q-60 0 -104 -27.5t-63 -93.5
h-35q10 40 30.5 69t48 47t59 26.5t64.5 8.5q99 0 141 -51t28 -142l-30 -192q-8 -54 -10.5 -87.5t-2.5 -58.5q-13 -8 -30 -19t-32 -24.5t-25.5 -30t-10.5 -35.5q0 -20 12.5 -33t41.5 -13q23 0 46 8l-5 -27q-9 -3 -21 -5.5t-26 -2.5zM207 21q35 0 66.5 10t57 29t42 44.5
t21.5 57.5l17 106h-152q-39 0 -74.5 -5.5t-61.5 -20t-41.5 -40.5t-15.5 -67q0 -48 33.5 -81t107.5 -33z" />
    <glyph glyph-name="Cacute" unicode="&#x106;" horiz-adv-x="724" 
d="M371 -7q-72 0 -129.5 22t-98 63.5t-62.5 100.5t-22 133q0 83 26.5 157.5t75.5 130.5t118.5 89t155.5 33q50 0 95 -14t80.5 -41.5t59 -68t30.5 -92.5h-33q-17 90 -79.5 138t-153.5 48q-79 0 -141.5 -30.5t-106 -82t-66.5 -120.5t-23 -147q0 -136 72 -212t202 -76
q99 0 171 52t104 149h35q-17 -56 -47 -99t-70.5 -72.5t-89.5 -45t-103 -15.5zM499 891h43l-90 -120h-31z" />
    <glyph glyph-name="cacute" unicode="&#x107;" horiz-adv-x="543" 
d="M272 -7q-54 0 -97 17.5t-72.5 49t-45.5 75t-16 96.5q0 64 20 119t56 95t85.5 62.5t108.5 22.5q41 0 76 -12t61.5 -34t42 -53.5t18.5 -71.5h-34q-4 66 -49 104t-117 38q-53 0 -96 -21t-73.5 -57t-47 -85.5t-16.5 -106.5q0 -48 14 -87t39.5 -66t61.5 -41.5t81 -14.5
q72 0 124.5 38.5t71.5 113.5h33q-10 -45 -31.5 -78.5t-51.5 -56.5t-67 -34.5t-79 -11.5zM389 747h43l-106 -147h-30z" />
    <glyph glyph-name="Ccircumflex" unicode="&#x108;" horiz-adv-x="724" 
d="M371 -7q-72 0 -129.5 22t-98 63.5t-62.5 100.5t-22 133q0 83 26.5 157.5t75.5 130.5t118.5 89t155.5 33q50 0 95 -14t80.5 -41.5t59 -68t30.5 -92.5h-33q-17 90 -79.5 138t-153.5 48q-79 0 -141.5 -30.5t-106 -82t-66.5 -120.5t-23 -147q0 -136 72 -212t202 -76
q99 0 171 52t104 149h35q-17 -56 -47 -99t-70.5 -72.5t-89.5 -45t-103 -15.5zM439 891h33l96 -120h-29l-86 91l-109 -91h-32z" />
    <glyph glyph-name="ccircumflex" unicode="&#x109;" horiz-adv-x="543" 
d="M272 -7q-54 0 -97 17.5t-72.5 49t-45.5 75t-16 96.5q0 64 20 119t56 95t85.5 62.5t108.5 22.5q41 0 76 -12t61.5 -34t42 -53.5t18.5 -71.5h-34q-4 66 -49 104t-117 38q-53 0 -96 -21t-73.5 -57t-47 -85.5t-16.5 -106.5q0 -48 14 -87t39.5 -66t61.5 -41.5t81 -14.5
q72 0 124.5 38.5t71.5 113.5h33q-10 -45 -31.5 -78.5t-51.5 -56.5t-67 -34.5t-79 -11.5zM311 729h33l94 -129h-29l-84 101l-110 -101h-31z" />
    <glyph glyph-name="Cdotaccent" unicode="&#x10a;" horiz-adv-x="724" 
d="M371 -7q-72 0 -129.5 22t-98 63.5t-62.5 100.5t-22 133q0 83 26.5 157.5t75.5 130.5t118.5 89t155.5 33q50 0 95 -14t80.5 -41.5t59 -68t30.5 -92.5h-33q-17 90 -79.5 138t-153.5 48q-79 0 -141.5 -30.5t-106 -82t-66.5 -120.5t-23 -147q0 -136 72 -212t202 -76
q99 0 171 52t104 149h35q-17 -56 -47 -99t-70.5 -72.5t-89.5 -45t-103 -15.5zM435 787q-11 0 -18.5 7.5t-7.5 18.5t8 19t19 8t18.5 -7.5t7.5 -18.5t-8 -19t-19 -8z" />
    <glyph glyph-name="cdotaccent" unicode="&#x10b;" horiz-adv-x="543" 
d="M272 -7q-54 0 -97 17.5t-72.5 49t-45.5 75t-16 96.5q0 64 20 119t56 95t85.5 62.5t108.5 22.5q41 0 76 -12t61.5 -34t42 -53.5t18.5 -71.5h-34q-4 66 -49 104t-117 38q-53 0 -96 -21t-73.5 -57t-47 -85.5t-16.5 -106.5q0 -48 14 -87t39.5 -66t61.5 -41.5t81 -14.5
q72 0 124.5 38.5t71.5 113.5h33q-10 -45 -31.5 -78.5t-51.5 -56.5t-67 -34.5t-79 -11.5zM322 637q-11 0 -18.5 8t-7.5 19t8 18.5t19 7.5t18.5 -7.5t7.5 -18.5t-8 -19t-19 -8z" />
    <glyph glyph-name="Ccaron" unicode="&#x10c;" horiz-adv-x="724" 
d="M371 -7q-72 0 -129.5 22t-98 63.5t-62.5 100.5t-22 133q0 83 26.5 157.5t75.5 130.5t118.5 89t155.5 33q50 0 95 -14t80.5 -41.5t59 -68t30.5 -92.5h-33q-17 90 -79.5 138t-153.5 48q-79 0 -141.5 -30.5t-106 -82t-66.5 -120.5t-23 -147q0 -136 72 -212t202 -76
q99 0 171 52t104 149h35q-17 -56 -47 -99t-70.5 -72.5t-89.5 -45t-103 -15.5zM457 771h-34l-95 120h29l86 -91l109 91h31z" />
    <glyph glyph-name="ccaron" unicode="&#x10d;" horiz-adv-x="543" 
d="M272 -7q-54 0 -97 17.5t-72.5 49t-45.5 75t-16 96.5q0 64 20 119t56 95t85.5 62.5t108.5 22.5q41 0 76 -12t61.5 -34t42 -53.5t18.5 -71.5h-34q-4 66 -49 104t-117 38q-53 0 -96 -21t-73.5 -57t-47 -85.5t-16.5 -106.5q0 -48 14 -87t39.5 -66t61.5 -41.5t81 -14.5
q72 0 124.5 38.5t71.5 113.5h33q-10 -45 -31.5 -78.5t-51.5 -56.5t-67 -34.5t-79 -11.5zM332 613h-33l-93 129h29l84 -100l110 100h31z" />
    <glyph glyph-name="Dcaron" unicode="&#x10e;" horiz-adv-x="682" 
d="M165 715h172q81 0 140.5 -23t99 -64t58.5 -96.5t19 -120.5q0 -95 -28.5 -171t-81.5 -129.5t-128 -82t-169 -28.5h-195zM246 31q86 0 155 26t117 74.5t74 119t26 160.5q0 57 -16.5 107t-51 87t-88 58.5t-126.5 21.5h-140l-104 -654h154zM395 771h-34l-95 120h29l86 -91
l109 91h31z" />
    <glyph glyph-name="dcaron" unicode="&#x10f;" horiz-adv-x="597" 
d="M253 -8q-46 0 -85.5 16t-68 46t-45 73t-16.5 97q0 62 18.5 118t52.5 98t82.5 66.5t109.5 24.5q48 0 82.5 -15.5t58.5 -39t37.5 -52t18.5 -55.5l65 404h34l-96 -604q-11 -66 -13.5 -105t-3.5 -64h-33q0 26 3.5 63t8.5 66q-14 -29 -34.5 -54t-47 -43.5t-59 -29t-69.5 -10.5
zM255 22q54 0 96.5 22.5t72 60t45.5 85.5t16 100q1 49 -12.5 88.5t-38 66.5t-58.5 41.5t-74 14.5q-54 0 -96.5 -22t-72 -59.5t-45 -87.5t-15.5 -107q0 -48 14 -86t38.5 -64t58 -39.5t71.5 -13.5zM670 773h37l-49 -154h-27z" />
    <glyph glyph-name="Dcroat" unicode="&#x110;" horiz-adv-x="687" 
d="M41 375h75l54 340h172q81 0 140.5 -23t99 -64t58.5 -96.5t19 -120.5q0 -95 -28.5 -171t-81.5 -129.5t-128 -82t-169 -28.5h-195l54 345h-75zM251 31q86 0 155 26t117 74.5t74 119t26 160.5q0 58 -16.5 108t-51 87t-88 58t-126.5 21h-140l-50 -310h210l-5 -30h-210
l-49 -314h154z" />
    <glyph glyph-name="dcroat" unicode="&#x111;" horiz-adv-x="597" 
d="M352 656h192l19 117h34l-19 -117h80l-4 -27h-80l-73 -460q-11 -66 -13.5 -105t-3.5 -64h-33q0 26 3.5 63t8.5 66q-14 -29 -34.5 -54t-47 -43.5t-59 -29t-69.5 -10.5q-46 0 -85.5 16t-68 46t-45 73t-16.5 97q0 62 18.5 118t52.5 98t82.5 66.5t109.5 24.5q48 0 82.5 -15.5
t58.5 -39t37.5 -52t18.5 -55.5l42 260h-192zM302 501q-54 0 -96.5 -22t-72 -59.5t-45 -87.5t-15.5 -107q0 -49 14 -86.5t38.5 -63.5t57.5 -39.5t72 -13.5q54 0 96.5 22.5t72 60t45.5 86t16 100.5q1 50 -12.5 89t-37.5 66t-58 41t-75 14z" />
    <glyph glyph-name="Emacron" unicode="&#x112;" horiz-adv-x="568" 
d="M165 715h401l-5 -30h-365l-48 -301h302l-5 -31h-301l-52 -322h390l-6 -31h-424zM257 823h236l-4 -29h-236z" />
    <glyph glyph-name="emacron" unicode="&#x113;" horiz-adv-x="535" 
d="M74 217q0 -94 46 -144.5t137 -50.5q67 0 114.5 30.5t71.5 91.5h34q-26 -76 -84 -114t-137 -38q-108 0 -163 61t-55 165q0 63 18.5 119.5t53 99t83 68t109.5 25.5q56 0 97 -18.5t65.5 -52t33 -80t-0.5 -101.5l-2 -14h-419q-1 -11 -1.5 -23t-0.5 -24zM301 501
q-45 0 -81.5 -15.5t-65 -43t-47 -66t-27.5 -83.5h385q6 46 -1 84t-27 65.5t-53.5 43t-82.5 15.5zM207 675h229l-4 -28h-230z" />
    <glyph glyph-name="Ebreve" unicode="&#x114;" horiz-adv-x="568" 
d="M165 715h401l-5 -30h-365l-48 -301h302l-5 -31h-301l-52 -322h390l-6 -31h-424zM370 773q-51 0 -82.5 33t-32.5 84h30q2 -39 24.5 -63.5t61.5 -24.5q38 0 66 24t36 64h29q-3 -26 -15 -47.5t-30 -37t-40.5 -24t-46.5 -8.5z" />
    <glyph glyph-name="ebreve" unicode="&#x115;" horiz-adv-x="535" 
d="M74 217q0 -94 46 -144.5t137 -50.5q67 0 114.5 30.5t71.5 91.5h34q-26 -76 -84 -114t-137 -38q-108 0 -163 61t-55 165q0 63 18.5 119.5t53 99t83 68t109.5 25.5q56 0 97 -18.5t65.5 -52t33 -80t-0.5 -101.5l-2 -14h-419q-1 -11 -1.5 -23t-0.5 -24zM301 501
q-45 0 -81.5 -15.5t-65 -43t-47 -66t-27.5 -83.5h385q6 46 -1 84t-27 65.5t-53.5 43t-82.5 15.5zM313 614q-51 0 -79.5 31.5t-29.5 82.5h30q2 -39 22 -62t58 -23q37 0 62.5 22.5t33.5 62.5h29q-8 -53 -43.5 -83.5t-82.5 -30.5z" />
    <glyph glyph-name="Edotaccent" unicode="&#x116;" horiz-adv-x="568" 
d="M165 715h401l-5 -30h-365l-48 -301h302l-5 -31h-301l-52 -322h390l-6 -31h-424zM369 787q-11 0 -18.5 7.5t-7.5 18.5t8 19t19 8t18.5 -7.5t7.5 -18.5t-8 -19t-19 -8z" />
    <glyph glyph-name="edotaccent" unicode="&#x117;" horiz-adv-x="535" 
d="M74 217q0 -94 46 -144.5t137 -50.5q67 0 114.5 30.5t71.5 91.5h34q-26 -76 -84 -114t-137 -38q-108 0 -163 61t-55 165q0 63 18.5 119.5t53 99t83 68t109.5 25.5q56 0 97 -18.5t65.5 -52t33 -80t-0.5 -101.5l-2 -14h-419q-1 -11 -1.5 -23t-0.5 -24zM301 501
q-45 0 -81.5 -15.5t-65 -43t-47 -66t-27.5 -83.5h385q6 46 -1 84t-27 65.5t-53.5 43t-82.5 15.5zM318 637q-11 0 -18.5 8t-7.5 19t8 18.5t19 7.5t18.5 -7.5t7.5 -18.5t-8 -19t-19 -8z" />
    <glyph glyph-name="Eogonek" unicode="&#x118;" horiz-adv-x="568" 
d="M165 715h401l-5 -30h-365l-48 -301h302l-5 -31h-301l-52 -322h389l-5 -31h-53q-15 -8 -32.5 -19t-32.5 -24.5t-25.5 -30.5t-10.5 -36t12 -32t41 -13q12 0 23 1.5t23 6.5l-5 -27q-9 -3 -20.5 -5.5t-25.5 -2.5q-41 0 -61.5 19t-20.5 50q0 21 9.5 38.5t24 31.5t30.5 25
t28 18h-328z" />
    <glyph glyph-name="eogonek" unicode="&#x119;" horiz-adv-x="535" 
d="M299 -182q-41 0 -61.5 19t-20.5 51q0 20 9 36.5t22 30t28.5 24t27.5 17.5q-14 -2 -24 -3t-24 -1q-108 0 -163 61t-55 165q0 63 18.5 119.5t53 99t83 68t109.5 25.5q56 0 97 -18.5t65.5 -52t33 -80t-0.5 -101.5l-2 -14h-419q-2 -12 -2 -23.5v-23.5q0 -94 46 -144.5
t137 -50.5q67 0 114.5 30.5t71.5 91.5h34q-23 -66 -73 -105q-26 -20 -53 -37t-49 -34t-36.5 -35.5t-14.5 -41.5q0 -20 12 -33t41 -13q12 0 23 1.5t23 6.5l-4 -27q-10 -3 -21.5 -5.5t-25.5 -2.5zM301 501q-45 0 -82 -15.5t-65 -43.5t-46.5 -66t-26.5 -83h384q6 46 -1 84
t-27 65.5t-53.5 43t-82.5 15.5z" />
    <glyph glyph-name="Ecaron" unicode="&#x11a;" horiz-adv-x="568" 
d="M165 715h401l-5 -30h-365l-48 -301h302l-5 -31h-301l-52 -322h390l-6 -31h-424zM382 771h-34l-95 120h29l86 -91l109 91h31z" />
    <glyph glyph-name="ecaron" unicode="&#x11b;" horiz-adv-x="535" 
d="M74 217q0 -94 46 -144.5t137 -50.5q67 0 114.5 30.5t71.5 91.5h34q-26 -76 -84 -114t-137 -38q-108 0 -163 61t-55 165q0 63 18.5 119.5t53 99t83 68t109.5 25.5q56 0 97 -18.5t65.5 -52t33 -80t-0.5 -101.5l-2 -14h-419q-1 -11 -1.5 -23t-0.5 -24zM301 501
q-45 0 -81.5 -15.5t-65 -43t-47 -66t-27.5 -83.5h385q6 46 -1 84t-27 65.5t-53.5 43t-82.5 15.5zM327 613h-33l-93 129h29l84 -100l110 100h31z" />
    <glyph glyph-name="Gcircumflex" unicode="&#x11c;" horiz-adv-x="751" 
d="M386 -7q-78 0 -138.5 24.5t-102 68t-63 102.5t-21.5 128q0 84 27 157.5t76.5 129t117.5 87.5t151 32q51 0 97.5 -12.5t83 -37.5t61 -63t31.5 -90h-36q-6 43 -26.5 75.5t-52.5 54.5t-72.5 32.5t-85.5 10.5q-76 0 -137.5 -29.5t-105.5 -80.5t-68 -119.5t-24 -146.5
q0 -63 18.5 -116.5t55 -92.5t90.5 -61t124 -22q122 0 197.5 71t90.5 215h-231l5 31h266q-7 -92 -34 -158t-69.5 -108t-100 -62t-124.5 -20zM440 891h33l96 -120h-29l-86 91l-109 -91h-32z" />
    <glyph glyph-name="gcircumflex" unicode="&#x11d;" horiz-adv-x="601" 
d="M259 46q51 0 94 22t73.5 58.5t47.5 85.5t17 103q0 40 -12 74t-35.5 59t-57.5 39t-78 14q-52 0 -94.5 -20t-72.5 -55.5t-46 -83.5t-16 -102q0 -41 11.5 -76.5t34.5 -61.5t56.5 -41t77.5 -15zM482 18q-17 -105 -81.5 -154.5t-164.5 -49.5q-94 0 -153.5 40.5t-70.5 115.5h35
q10 -60 59 -93.5t129 -33.5q90 0 144.5 44t68.5 133l21 131q-13 -25 -33 -49t-46.5 -42.5t-60 -30t-73.5 -11.5q-48 0 -87.5 16t-67 45t-42.5 69.5t-15 90.5q0 60 19 113t53.5 93t83.5 63t108 23q82 0 132 -41.5t65 -107.5l22 141h35zM326 729h33l94 -129h-29l-84 101
l-110 -101h-31z" />
    <glyph glyph-name="Gbreve" unicode="&#x11e;" horiz-adv-x="751" 
d="M386 -7q-78 0 -138.5 24.5t-102 68t-63 102.5t-21.5 128q0 84 27 157.5t76.5 129t117.5 87.5t151 32q51 0 97.5 -12.5t83 -37.5t61 -63t31.5 -90h-36q-6 43 -26.5 75.5t-52.5 54.5t-72.5 32.5t-85.5 10.5q-76 0 -137.5 -29.5t-105.5 -80.5t-68 -119.5t-24 -146.5
q0 -63 18.5 -116.5t55 -92.5t90.5 -61t124 -22q122 0 197.5 71t90.5 215h-231l5 31h266q-7 -92 -34 -158t-69.5 -108t-100 -62t-124.5 -20zM439 773q-51 0 -82.5 33t-32.5 84h30q2 -39 24.5 -63.5t61.5 -24.5q38 0 66 24t36 64h29q-3 -26 -15 -47.5t-30 -37t-40.5 -24
t-46.5 -8.5z" />
    <glyph glyph-name="gbreve" unicode="&#x11f;" horiz-adv-x="601" 
d="M259 46q51 0 94 22t73.5 58.5t47.5 85.5t17 103q0 40 -12 74t-35.5 59t-57.5 39t-78 14q-52 0 -94.5 -20t-72.5 -55.5t-46 -83.5t-16 -102q0 -41 11.5 -76.5t34.5 -61.5t56.5 -41t77.5 -15zM482 18q-17 -105 -81.5 -154.5t-164.5 -49.5q-94 0 -153.5 40.5t-70.5 115.5h35
q10 -60 59 -93.5t129 -33.5q90 0 144.5 44t68.5 133l21 131q-13 -25 -33 -49t-46.5 -42.5t-60 -30t-73.5 -11.5q-48 0 -87.5 16t-67 45t-42.5 69.5t-15 90.5q0 60 19 113t53.5 93t83.5 63t108 23q82 0 132 -41.5t65 -107.5l22 141h35zM332 614q-51 0 -79.5 31.5t-29.5 82.5
h30q2 -39 22 -62t58 -23q37 0 62.5 22.5t33.5 62.5h29q-8 -53 -43.5 -83.5t-82.5 -30.5z" />
    <glyph glyph-name="Gdotaccent" unicode="&#x120;" horiz-adv-x="751" 
d="M386 -7q-78 0 -138.5 24.5t-102 68t-63 102.5t-21.5 128q0 84 27 157.5t76.5 129t117.5 87.5t151 32q51 0 97.5 -12.5t83 -37.5t61 -63t31.5 -90h-36q-6 43 -26.5 75.5t-52.5 54.5t-72.5 32.5t-85.5 10.5q-76 0 -137.5 -29.5t-105.5 -80.5t-68 -119.5t-24 -146.5
q0 -63 18.5 -116.5t55 -92.5t90.5 -61t124 -22q122 0 197.5 71t90.5 215h-231l5 31h266q-7 -92 -34 -158t-69.5 -108t-100 -62t-124.5 -20zM445 787q-11 0 -18.5 7.5t-7.5 18.5t8 19t19 8t18.5 -7.5t7.5 -18.5t-8 -19t-19 -8z" />
    <glyph glyph-name="gdotaccent" unicode="&#x121;" horiz-adv-x="601" 
d="M259 46q51 0 94 22t73.5 58.5t47.5 85.5t17 103q0 40 -12 74t-35.5 59t-57.5 39t-78 14q-52 0 -94.5 -20t-72.5 -55.5t-46 -83.5t-16 -102q0 -41 11.5 -76.5t34.5 -61.5t56.5 -41t77.5 -15zM482 18q-17 -105 -81.5 -154.5t-164.5 -49.5q-94 0 -153.5 40.5t-70.5 115.5h35
q10 -60 59 -93.5t129 -33.5q90 0 144.5 44t68.5 133l21 131q-13 -25 -33 -49t-46.5 -42.5t-60 -30t-73.5 -11.5q-48 0 -87.5 16t-67 45t-42.5 69.5t-15 90.5q0 60 19 113t53.5 93t83.5 63t108 23q82 0 132 -41.5t65 -107.5l22 141h35zM338 637q-11 0 -18.5 8t-7.5 19t8 18.5
t19 7.5t18.5 -7.5t7.5 -18.5t-8 -19t-19 -8z" />
    <glyph glyph-name="Gcommaaccent" unicode="&#x122;" horiz-adv-x="751" 
d="M386 -7q-78 0 -138.5 24.5t-102 68t-63 102.5t-21.5 128q0 84 27 157.5t76.5 129t117.5 87.5t151 32q51 0 97.5 -12.5t83 -37.5t61 -63t31.5 -90h-36q-6 43 -26.5 75.5t-52.5 54.5t-72.5 32.5t-85.5 10.5q-76 0 -137.5 -29.5t-105.5 -80.5t-68 -119.5t-24 -146.5
q0 -63 18.5 -116.5t55 -92.5t90.5 -61t124 -22q122 0 197.5 71t90.5 215h-231l5 31h266q-7 -92 -34 -158t-69.5 -108t-100 -62t-124.5 -20zM249 -183l68 139l34 -10l-79 -141z" />
    <glyph glyph-name="gcommaaccent" unicode="&#x123;" horiz-adv-x="601" 
d="M259 46q51 0 94 22t73.5 58.5t47.5 85.5t17 103q0 40 -12 74t-35.5 59t-57.5 39t-78 14q-52 0 -94.5 -20t-72.5 -55.5t-46 -83.5t-16 -102q0 -41 11.5 -76.5t34.5 -61.5t56.5 -41t77.5 -15zM482 18q-17 -105 -81.5 -154.5t-164.5 -49.5q-94 0 -153.5 40.5t-70.5 115.5h35
q10 -60 59 -93.5t129 -33.5q90 0 144.5 44t68.5 133l21 131q-13 -25 -33 -49t-46.5 -42.5t-60 -30t-73.5 -11.5q-48 0 -87.5 16t-67 45t-42.5 69.5t-15 90.5q0 60 19 113t53.5 93t83.5 63t108 23q82 0 132 -41.5t65 -107.5l22 141h35zM402 749l-68 -139l-34 10l79 141z" />
    <glyph glyph-name="Hcircumflex" unicode="&#x124;" horiz-adv-x="709" 
d="M165 715h36l-54 -339h449l54 339h36l-113 -715h-36l55 345h-450l-54 -345h-36zM425 891h33l96 -120h-29l-86 91l-109 -91h-32z" />
    <glyph glyph-name="hcircumflex" unicode="&#x125;" horiz-adv-x="567" 
d="M161 773h34l-57 -363q13 24 32 46t44.5 38.5t56.5 26.5t67 10q43 0 76.5 -13.5t55 -41t29.5 -69t-1 -96.5l-49 -311h-35l50 316q15 94 -22 139.5t-109 45.5q-36 0 -70.5 -12t-63 -36t-49 -59t-27.5 -80l-50 -314h-34zM356 933h33l96 -120h-29l-86 91l-109 -91h-32z" />
    <glyph glyph-name="Hbar" unicode="&#x126;" horiz-adv-x="709" 
d="M53 550h86l26 165h36l-26 -165h449l26 165h36l-26 -165h86l-4 -28h-87l-82 -522h-36l55 345h-450l-54 -345h-36l82 522h-85zM596 376l23 146h-449l-23 -146h449z" />
    <glyph glyph-name="hbar" unicode="&#x127;" horiz-adv-x="567" 
d="M63 656h79l19 117h34l-19 -117h192l-5 -27h-191l-34 -219q13 24 32 46t44.5 38.5t56.5 26.5t67 10q43 0 76.5 -13.5t55 -41t29.5 -69t-1 -96.5l-49 -311h-35l50 316q16 94 -21 139.5t-110 45.5q-36 0 -70.5 -12t-63 -36t-49 -59t-27.5 -80l-50 -314h-34l99 629h-80z" />
    <glyph glyph-name="Itilde" unicode="&#x128;" horiz-adv-x="234" 
d="M170 715h36l-113 -715h-36zM265 774q-19 0 -36 9t-33 20.5t-31 20.5t-30 9q-17 0 -33 -14.5t-22 -44.5h-28q9 45 31.5 67t52.5 22q18 0 35 -9t33 -20.5t31.5 -20.5t30.5 -9q17 0 32.5 14.5t22.5 43.5h27q-8 -44 -31 -66t-52 -22z" />
    <glyph glyph-name="itilde" unicode="&#x129;" horiz-adv-x="200" 
d="M123 523h35l-83 -523h-34zM223 615q-19 0 -36 9t-33 20t-31 20t-30 9q-18 0 -33.5 -14.5t-22.5 -43.5h-28q9 45 32 66.5t53 21.5q18 0 35 -9t33 -20.5t31 -20.5t30 -9q17 0 33 15t22 44h28q-9 -44 -31.5 -66t-51.5 -22z" />
    <glyph glyph-name="Imacron" unicode="&#x12a;" horiz-adv-x="234" 
d="M170 715h36l-113 -715h-36zM89 823h236l-4 -29h-236z" />
    <glyph glyph-name="imacron" unicode="&#x12b;" horiz-adv-x="200" 
d="M85 675h161l-5 -28h-161zM123 523h35l-83 -523h-34z" />
    <glyph glyph-name="Ibreve" unicode="&#x12c;" horiz-adv-x="234" 
d="M170 715h36l-113 -715h-36zM197 773q-51 0 -82.5 33t-32.5 84h30q2 -39 24.5 -63.5t61.5 -24.5q38 0 66 24t36 64h29q-3 -26 -15 -47.5t-30 -37t-40.5 -24t-46.5 -8.5z" />
    <glyph glyph-name="ibreve" unicode="&#x12d;" horiz-adv-x="200" 
d="M123 523h35l-83 -523h-34zM156 614q-51 0 -79.5 31.5t-29.5 82.5h30q2 -39 22 -62t58 -23q37 0 62.5 22.5t33.5 62.5h29q-8 -53 -43.5 -83.5t-82.5 -30.5z" />
    <glyph glyph-name="Iogonek" unicode="&#x12e;" horiz-adv-x="234" 
d="M55 -182q-40 0 -61 19t-21 51q0 20 9 37.5t22 32t27.5 26t26.5 19.5l112 712h36l-113 -713q-13 -10 -28 -21.5t-28 -25.5t-21.5 -30t-8.5 -34q0 -20 12.5 -33t41.5 -13q23 0 46 8l-5 -27q-9 -3 -21 -5.5t-26 -2.5z" />
    <glyph glyph-name="iogonek" unicode="&#x12f;" horiz-adv-x="200" 
d="M123 523h35l-82 -521q-13 -10 -27.5 -21.5t-27 -25.5t-20.5 -30t-8 -34q0 -20 12.5 -33t40.5 -13q12 0 23 1.5t23 6.5l-4 -27q-10 -3 -21.5 -5.5t-25.5 -2.5q-40 0 -61 19t-21 51q0 20 8.5 37.5t21.5 32t27 26t26 19.5zM161 637q-11 0 -18.5 8t-7.5 19t8 18.5t19 7.5
t18.5 -7.5t7.5 -18.5t-8 -19t-19 -8z" />
    <glyph glyph-name="Idotaccent" unicode="&#x130;" horiz-adv-x="234" 
d="M170 715h36l-113 -715h-36zM201 787q-11 0 -18.5 7.5t-7.5 18.5t8 19t19 8t18.5 -7.5t7.5 -18.5t-8 -19t-19 -8z" />
    <glyph glyph-name="dotlessi" unicode="&#x131;" horiz-adv-x="200" 
d="M123 523h35l-83 -523h-34z" />
    <glyph glyph-name="IJ" unicode="&#x132;" horiz-adv-x="590" 
d="M161 715h36l-113 -715h-36zM304 -5q-45 0 -72.5 9t-44.5 19l5 31q22 -12 48.5 -20.5t62.5 -8.5q58 0 94.5 32t48.5 105l87 553h36l-88 -556q-7 -45 -22.5 -76t-38.5 -50.5t-52.5 -28.5t-63.5 -9z" />
    <glyph glyph-name="ij" unicode="&#x133;" horiz-adv-x="200" 
d="M161 637q-11 0 -18.5 8t-7.5 19t8 18.5t19 7.5t18.5 -7.5t7.5 -18.5t-8 -19t-19 -8zM123 523h35l-83 -523h-34zM140 -156q44 2 63 23t27 66l93 590h35l-94 -592q-10 -62 -40 -88.5t-89 -28.5zM361 637q-11 0 -18.5 8t-7.5 19t8 18.5t19 7.5t18.5 -7.5t7.5 -18.5t-8 -19
t-19 -8z" />
    <glyph glyph-name="Jcircumflex" unicode="&#x134;" horiz-adv-x="389" 
d="M114 -5q-45 0 -72.5 9t-44.5 19l5 31q22 -12 48.5 -20.5t62.5 -8.5q58 0 94.5 32t48.5 105l87 553h36l-88 -556q-7 -45 -22.5 -76t-38.5 -50.5t-52.5 -28.5t-63.5 -9zM361 891h33l96 -120h-29l-86 91l-109 -91h-32z" />
    <glyph glyph-name="jcircumflex" unicode="&#x135;" horiz-adv-x="200" 
d="M-60 -156q44 2 63 23t27 66l93 590h35l-94 -592q-10 -62 -40 -88.5t-89 -28.5zM148 729h33l94 -129h-29l-84 101l-110 -101h-31z" />
    <glyph glyph-name="Kcommaaccent" unicode="&#x136;" horiz-adv-x="588" 
d="M474 0l-322 368l415 347h45l-417 -347l322 -368h-43zM165 715h36l-113 -715h-36zM187 -183l68 139l34 -10l-79 -141z" />
    <glyph glyph-name="kcommaaccent" unicode="&#x137;" horiz-adv-x="467" 
d="M121 282l306 241h45l-309 -242l244 -281h-41zM161 773h34l-122 -773h-34zM119 -183l68 139l34 -10l-79 -141z" />
    <glyph glyph-name="Lacute" unicode="&#x139;" horiz-adv-x="528" 
d="M165 715h36l-109 -684h361l-5 -31h-396zM252 891h43l-90 -120h-31z" />
    <glyph glyph-name="lacute" unicode="&#x13a;" horiz-adv-x="201" 
d="M163 773h35l-122 -773h-35zM251 933h43l-90 -120h-31z" />
    <glyph glyph-name="Lcommaaccent" unicode="&#x13b;" horiz-adv-x="528" 
d="M165 715h36l-109 -684h361l-5 -31h-396zM157 -183l68 139l34 -10l-79 -141z" />
    <glyph glyph-name="lcommaaccent" unicode="&#x13c;" horiz-adv-x="201" 
d="M163 773h35l-122 -773h-35zM-29 -183l68 139l34 -10l-79 -141z" />
    <glyph glyph-name="Lcaron" unicode="&#x13d;" horiz-adv-x="528" 
d="M417 715h38l-56 -157h-28zM165 715h36l-109 -684h361l-5 -31h-396z" />
    <glyph glyph-name="lcaron" unicode="&#x13e;" horiz-adv-x="201" 
d="M163 773h35l-122 -773h-35zM270 773h37l-49 -154h-27z" />
    <glyph glyph-name="Ldot" unicode="&#x13f;" horiz-adv-x="528" 
d="M165 715h36l-109 -684h361l-5 -31h-396zM440 342q-12 0 -20.5 8.5t-8.5 20.5t8 20.5t21 8.5q12 0 20.5 -8.5t8.5 -20.5t-8.5 -20.5t-20.5 -8.5z" />
    <glyph glyph-name="ldot" unicode="&#x140;" horiz-adv-x="249" 
d="M163 773h35l-122 -773h-35zM241 348q-12 0 -20.5 8.5t-8.5 20.5t8 20.5t21 8.5q12 0 20.5 -8.5t8.5 -20.5t-8.5 -20.5t-20.5 -8.5z" />
    <glyph glyph-name="Lslash" unicode="&#x141;" horiz-adv-x="539" 
d="M34 294l81 28l62 393h36l-61 -379l251 88l-4 -31l-252 -89l-43 -273h360l-4 -31h-396l46 291l-81 -28z" />
    <glyph glyph-name="lslash" unicode="&#x142;" horiz-adv-x="224" 
d="M35 377l85 52l55 344h34l-51 -321l90 55l-5 -33l-90 -55l-66 -419h-34l62 396l-86 -52z" />
    <glyph glyph-name="Nacute" unicode="&#x143;" horiz-adv-x="707" 
d="M165 715h49l329 -667l106 667h35l-113 -715h-43l-334 678l-107 -678h-35zM501 891h43l-90 -120h-31z" />
    <glyph glyph-name="nacute" unicode="&#x144;" horiz-adv-x="567" 
d="M99 384q8 52 10.5 83t4.5 56h33q-1 -20 -3.5 -50.5t-7.5 -64.5q13 25 33 47.5t45.5 39t56.5 26.5t67 10q43 0 76.5 -13.5t55 -41t29.5 -69t-1 -96.5l-49 -311h-35l50 316q15 94 -22 139.5t-109 45.5q-36 0 -70.5 -12t-63 -36t-49 -59t-27.5 -80l-50 -314h-34zM402 747h43
l-106 -147h-30z" />
    <glyph glyph-name="Ncommaaccent" unicode="&#x145;" horiz-adv-x="707" 
d="M165 715h49l329 -667l106 667h35l-113 -715h-43l-334 678l-107 -678h-35zM227 -183l68 139l34 -10l-79 -141z" />
    <glyph glyph-name="ncommaaccent" unicode="&#x146;" horiz-adv-x="567" 
d="M99 384q8 52 10.5 83t4.5 56h33q-1 -20 -3.5 -50.5t-7.5 -64.5q13 25 33 47.5t45.5 39t56.5 26.5t67 10q43 0 76.5 -13.5t55 -41t29.5 -69t-1 -96.5l-49 -311h-35l50 316q15 94 -22 139.5t-109 45.5q-36 0 -70.5 -12t-63 -36t-49 -59t-27.5 -80l-50 -314h-34zM160 -183
l68 139l34 -10l-79 -141z" />
    <glyph glyph-name="Ncaron" unicode="&#x147;" horiz-adv-x="707" 
d="M165 715h49l329 -667l106 667h35l-113 -715h-43l-334 678l-107 -678h-35zM459 771h-34l-95 120h29l86 -91l109 91h31z" />
    <glyph glyph-name="ncaron" unicode="&#x148;" horiz-adv-x="567" 
d="M99 384q8 52 10.5 83t4.5 56h33q-1 -20 -3.5 -50.5t-7.5 -64.5q13 25 33 47.5t45.5 39t56.5 26.5t67 10q43 0 76.5 -13.5t55 -41t29.5 -69t-1 -96.5l-49 -311h-35l50 316q15 94 -22 139.5t-109 45.5q-36 0 -70.5 -12t-63 -36t-49 -59t-27.5 -80l-50 -314h-34zM345 613
h-33l-93 129h29l84 -100l110 100h31z" />
    <glyph glyph-name="napostrophe" unicode="&#x149;" horiz-adv-x="580" 
d="M111 384q8 52 10.5 83t4.5 56h33q-1 -20 -3.5 -50.5t-7.5 -64.5q13 25 33 47.5t45.5 39t56.5 26.5t67 10q43 0 76.5 -13.5t55 -41t29.5 -69t-1 -96.5l-49 -311h-35l50 316q15 94 -22 139.5t-109 45.5q-36 0 -70.5 -12t-63 -36t-49 -59t-27.5 -80l-50 -314h-34zM24 564
l77 156l32 -15l-86 -152z" />
    <glyph glyph-name="Eng" unicode="&#x14a;" horiz-adv-x="707" 
d="M374 -158q63 0 104 33t55 116l-339 687l-107 -678h-35l113 715h50l329 -663l105 663h35l-113 -718q-8 -51 -25.5 -86.5t-43 -57.5t-57.5 -32t-69 -10q-39 0 -64 7.5t-39 14.5l5 31q17 -8 40.5 -15t55.5 -7z" />
    <glyph glyph-name="eng" unicode="&#x14b;" horiz-adv-x="567" 
d="M99 384q8 52 10.5 83t4.5 56h33q-1 -20 -3.5 -51t-7.5 -65q13 25 33 47.5t45.5 39.5t56.5 27t67 10q43 0 76.5 -13.5t55 -41t29.5 -69t-1 -96.5l-56 -356q-6 -38 -16.5 -64t-27 -42.5t-41.5 -24.5t-60 -10l5 30q25 2 43 8t30 18.5t20 33.5t13 53l56 359q15 94 -22 139.5
t-109 45.5q-36 0 -70.5 -12t-63 -36t-49 -59t-27.5 -80l-50 -314h-34z" />
    <glyph glyph-name="Omacron" unicode="&#x14c;" horiz-adv-x="788" 
d="M757 392q0 -80 -27 -152t-76.5 -127t-118 -87.5t-151.5 -32.5q-75 0 -135.5 25.5t-102.5 70t-64.5 105.5t-22.5 132q0 79 27.5 150.5t77.5 126t119.5 87t152.5 32.5q73 0 132.5 -25.5t101.5 -70t64.5 -105t22.5 -129.5zM721 392q0 61 -19 115.5t-56 95.5t-90 65t-121 24
q-76 0 -138.5 -29.5t-106.5 -79.5t-68.5 -116.5t-25.5 -140.5q-1 -63 18.5 -118.5t57 -96t91 -64t121.5 -23.5q76 0 138 29.5t106 80t68.5 117.5t24.5 141zM346 823h236l-4 -29h-236z" />
    <glyph glyph-name="omacron" unicode="&#x14d;" horiz-adv-x="573" 
d="M265 -7q-51 0 -93 18.5t-72 50.5t-46.5 75t-16.5 92q0 60 19 115t54.5 96t86 65.5t113.5 24.5q53 0 94.5 -19t70.5 -51t44.5 -75t15.5 -91q0 -63 -19 -118t-54 -95.5t-85 -64t-112 -23.5zM266 22q54 0 97.5 21t74 57.5t46.5 86.5t16 107q0 42 -12.5 79.5t-37 66t-60 45
t-81.5 16.5q-56 0 -100 -22t-74.5 -59t-46.5 -86.5t-16 -104.5q0 -42 13.5 -80t38.5 -66t61 -44.5t81 -16.5zM223 675h229l-4 -28h-230z" />
    <glyph glyph-name="Obreve" unicode="&#x14e;" horiz-adv-x="788" 
d="M757 392q0 -80 -27 -152t-76.5 -127t-118 -87.5t-151.5 -32.5q-75 0 -135.5 25.5t-102.5 70t-64.5 105.5t-22.5 132q0 79 27.5 150.5t77.5 126t119.5 87t152.5 32.5q73 0 132.5 -25.5t101.5 -70t64.5 -105t22.5 -129.5zM721 392q0 61 -19 115.5t-56 95.5t-90 65t-121 24
q-76 0 -138.5 -29.5t-106.5 -79.5t-68.5 -116.5t-25.5 -140.5q-1 -63 18.5 -118.5t57 -96t91 -64t121.5 -23.5q76 0 138 29.5t106 80t68.5 117.5t24.5 141zM452 773q-51 0 -82.5 33t-32.5 84h30q2 -39 24.5 -63.5t61.5 -24.5q38 0 66 24t36 64h29q-3 -26 -15 -47.5t-30 -37
t-40.5 -24t-46.5 -8.5z" />
    <glyph glyph-name="obreve" unicode="&#x14f;" horiz-adv-x="573" 
d="M265 -7q-51 0 -93 18.5t-72 50.5t-46.5 75t-16.5 92q0 60 19 115t54.5 96t86 65.5t113.5 24.5q53 0 94.5 -19t70.5 -51t44.5 -75t15.5 -91q0 -63 -19 -118t-54 -95.5t-85 -64t-112 -23.5zM266 22q54 0 97.5 21t74 57.5t46.5 86.5t16 107q0 42 -12.5 79.5t-37 66t-60 45
t-81.5 16.5q-56 0 -100 -22t-74.5 -59t-46.5 -86.5t-16 -104.5q0 -42 13.5 -80t38.5 -66t61 -44.5t81 -16.5zM329 614q-51 0 -79.5 31.5t-29.5 82.5h30q2 -39 22 -62t58 -23q37 0 62.5 22.5t33.5 62.5h29q-8 -53 -43.5 -83.5t-82.5 -30.5z" />
    <glyph glyph-name="Ohungarumlaut" unicode="&#x150;" horiz-adv-x="788" 
d="M757 392q0 -80 -27 -152t-76.5 -127t-118 -87.5t-151.5 -32.5q-75 0 -135.5 25.5t-102.5 70t-64.5 105.5t-22.5 132q0 79 27.5 150.5t77.5 126t119.5 87t152.5 32.5q73 0 132.5 -25.5t101.5 -70t64.5 -105t22.5 -129.5zM721 392q0 61 -19 115.5t-56 95.5t-90 65t-121 24
q-76 0 -138.5 -29.5t-106.5 -79.5t-68.5 -116.5t-25.5 -140.5q-1 -63 18.5 -118.5t57 -96t91 -64t121.5 -23.5q76 0 138 29.5t106 80t68.5 117.5t24.5 141zM433 891h39l-70 -120h-28zM551 891h39l-70 -120h-28z" />
    <glyph glyph-name="ohungarumlaut" unicode="&#x151;" horiz-adv-x="573" 
d="M265 -7q-51 0 -93 18.5t-72 50.5t-46.5 75t-16.5 92q0 60 19 115t54.5 96t86 65.5t113.5 24.5q53 0 94.5 -19t70.5 -51t44.5 -75t15.5 -91q0 -63 -19 -118t-54 -95.5t-85 -64t-112 -23.5zM266 22q54 0 97.5 21t74 57.5t46.5 86.5t16 107q0 42 -12.5 79.5t-37 66t-60 45
t-81.5 16.5q-56 0 -100 -22t-74.5 -59t-46.5 -86.5t-16 -104.5q0 -42 13.5 -80t38.5 -66t61 -44.5t81 -16.5zM330 747h40l-86 -147h-29zM448 747h40l-86 -147h-29z" />
    <glyph glyph-name="OE" unicode="&#x152;" horiz-adv-x="957" 
d="M378 0q-81 0 -141 23.5t-99.5 64.5t-59 96.5t-19.5 120.5q0 94 28.5 170t81.5 129.5t128.5 82t169.5 28.5h490l-5 -30h-351l-48 -301h288l-5 -31h-287l-51 -322h374l-5 -31h-489zM468 685q-86 0 -155 -26t-117 -74.5t-74 -119t-26 -160.5q0 -58 16.5 -108.5t51 -87.5
t88 -58t127.5 -21h83l103 655h-97z" />
    <glyph glyph-name="oe" unicode="&#x153;" horiz-adv-x="993" 
d="M531 217q0 -94 46 -144.5t137 -50.5q68 0 115.5 30.5t70.5 91.5h35q-26 -76 -84 -114t-137 -38q-91 0 -142.5 44t-65.5 122q-30 -75 -91.5 -120t-149.5 -45q-51 0 -93 18.5t-72 50.5t-46.5 75t-16.5 92q0 60 19 115t54.5 96t86 65.5t113.5 24.5q44 0 80 -13.5t63 -37
t45 -56t26 -69.5q14 39 36.5 71t52.5 55.5t66.5 36.5t80.5 13q56 0 96.5 -18.5t65 -52t33 -80t0.5 -101.5l-3 -14h-419q-1 -11 -1.5 -23t-0.5 -24zM266 22q54 0 97.5 21t74 57.5t46.5 86.5t16 107q0 42 -12.5 79.5t-37 66t-60 45t-81.5 16.5q-56 0 -100 -22t-74.5 -59
t-46.5 -86.5t-16 -104.5q0 -42 13.5 -80t38.5 -66t61 -44.5t81 -16.5zM759 501q-45 0 -82 -15.5t-65 -43t-47 -66t-28 -83.5h386q6 46 -1 84t-27.5 65.5t-54 43t-81.5 15.5z" />
    <glyph glyph-name="Racute" unicode="&#x154;" horiz-adv-x="593" 
d="M165 715h170q49 0 89.5 -10.5t69 -32t44 -54t15.5 -75.5q0 -52 -16 -89t-45 -62t-69 -38t-87 -16l182 -338h-39l-180 335h-159l-53 -335h-35zM295 365q46 0 87 8t71 28.5t47.5 54.5t17.5 87q0 75 -50 108.5t-134 33.5h-139l-50 -320h150zM403 891h43l-90 -120h-31z" />
    <glyph glyph-name="racute" unicode="&#x155;" horiz-adv-x="331" 
d="M99 384q8 52 10.5 83t4.5 56h33q-1 -20 -3.5 -51.5t-8.5 -68.5q13 26 31 48.5t42.5 39.5t56 26.5t71.5 10.5l-5 -31q-39 -2 -73.5 -14t-62.5 -37t-47.5 -64t-28.5 -94l-46 -288h-34zM304 747h43l-106 -147h-30z" />
    <glyph glyph-name="Rcommaaccent" unicode="&#x156;" horiz-adv-x="593" 
d="M165 715h170q49 0 89.5 -10.5t69 -32t44 -54t15.5 -75.5q0 -52 -16 -89t-45 -62t-69 -38t-87 -16l182 -338h-39l-180 335h-159l-53 -335h-35zM295 365q46 0 87 8t71 28.5t47.5 54.5t17.5 87q0 75 -50 108.5t-134 33.5h-139l-50 -320h150zM185 -183l68 139l34 -10
l-79 -141z" />
    <glyph glyph-name="rcommaaccent" unicode="&#x157;" horiz-adv-x="331" 
d="M99 384q8 52 10.5 83t4.5 56h33q-1 -20 -3.5 -51.5t-8.5 -68.5q13 26 31 48.5t42.5 39.5t56 26.5t71.5 10.5l-5 -31q-39 -2 -73.5 -14t-62.5 -37t-47.5 -64t-28.5 -94l-46 -288h-34zM-34 -183l68 139l34 -10l-79 -141z" />
    <glyph glyph-name="Rcaron" unicode="&#x158;" horiz-adv-x="593" 
d="M165 715h170q49 0 89.5 -10.5t69 -32t44 -54t15.5 -75.5q0 -52 -16 -89t-45 -62t-69 -38t-87 -16l182 -338h-39l-180 335h-159l-53 -335h-35zM295 365q46 0 87 8t71 28.5t47.5 54.5t17.5 87q0 75 -50 108.5t-134 33.5h-139l-50 -320h150zM360 771h-34l-95 120h29l86 -91
l109 91h31z" />
    <glyph glyph-name="rcaron" unicode="&#x159;" horiz-adv-x="331" 
d="M99 384q8 52 10.5 83t4.5 56h33q-1 -20 -3.5 -51.5t-8.5 -68.5q13 26 31 48.5t42.5 39.5t56 26.5t71.5 10.5l-5 -31q-39 -2 -73.5 -14t-62.5 -37t-47.5 -64t-28.5 -94l-46 -288h-34zM247 613h-33l-93 129h29l84 -100l110 100h31z" />
    <glyph glyph-name="Sacute" unicode="&#x15a;" horiz-adv-x="583" 
d="M275 -7q-54 0 -99 13t-78 38.5t-52 64t-22 88.5h35q8 -84 63 -128.5t153 -44.5q46 0 84.5 11.5t66 34.5t43 56.5t15.5 77.5q0 33 -10 56.5t-32 41.5t-56.5 32t-83.5 28q-51 14 -88.5 29.5t-61.5 35.5t-36 46t-12 60q0 45 16.5 80t46.5 59t71 37t90 13q94 0 151.5 -42
t64.5 -127h-34q-9 72 -56.5 105.5t-126.5 33.5q-86 0 -137 -40t-51 -118q0 -27 9.5 -47.5t30.5 -37t54.5 -30.5t81.5 -27q52 -14 91 -30t64 -37.5t37.5 -50t12.5 -68.5q0 -50 -18.5 -89.5t-51 -67t-77.5 -42t-98 -14.5zM403 891h43l-90 -120h-31z" />
    <glyph glyph-name="sacute" unicode="&#x15b;" horiz-adv-x="453" 
d="M207 -9q-88 0 -138 42t-54 121h33q5 -63 42.5 -98.5t117.5 -35.5q63 0 105.5 29.5t42.5 90.5q0 23 -7 40t-22.5 30.5t-40.5 23.5t-60 20q-40 11 -69 23.5t-48 28.5t-28.5 36.5t-9.5 49.5q0 34 14 60t37.5 43.5t54.5 26t66 8.5t65 -7.5t53 -23.5t37.5 -42t17.5 -63h-33
q-5 52 -40 79.5t-101 27.5q-59 0 -98.5 -26.5t-39.5 -81.5q0 -21 7 -37t23 -28.5t41.5 -23t61.5 -20.5q37 -11 66 -22.5t48 -27.5t29 -38.5t10 -54.5q0 -37 -14.5 -65t-39 -47t-58 -28.5t-71.5 -9.5zM334 747h43l-106 -147h-30z" />
    <glyph glyph-name="Scircumflex" unicode="&#x15c;" horiz-adv-x="583" 
d="M275 -7q-54 0 -99 13t-78 38.5t-52 64t-22 88.5h35q8 -84 63 -128.5t153 -44.5q46 0 84.5 11.5t66 34.5t43 56.5t15.5 77.5q0 33 -10 56.5t-32 41.5t-56.5 32t-83.5 28q-51 14 -88.5 29.5t-61.5 35.5t-36 46t-12 60q0 45 16.5 80t46.5 59t71 37t90 13q94 0 151.5 -42
t64.5 -127h-34q-9 72 -56.5 105.5t-126.5 33.5q-86 0 -137 -40t-51 -118q0 -27 9.5 -47.5t30.5 -37t54.5 -30.5t81.5 -27q52 -14 91 -30t64 -37.5t37.5 -50t12.5 -68.5q0 -50 -18.5 -89.5t-51 -67t-77.5 -42t-98 -14.5zM343 891h33l96 -120h-29l-86 91l-109 -91h-32z" />
    <glyph glyph-name="scircumflex" unicode="&#x15d;" horiz-adv-x="453" 
d="M207 -9q-88 0 -138 42t-54 121h33q5 -63 42.5 -98.5t117.5 -35.5q63 0 105.5 29.5t42.5 90.5q0 23 -7 40t-22.5 30.5t-40.5 23.5t-60 20q-40 11 -69 23.5t-48 28.5t-28.5 36.5t-9.5 49.5q0 34 14 60t37.5 43.5t54.5 26t66 8.5t65 -7.5t53 -23.5t37.5 -42t17.5 -63h-33
q-5 52 -40 79.5t-101 27.5q-59 0 -98.5 -26.5t-39.5 -81.5q0 -21 7 -37t23 -28.5t41.5 -23t61.5 -20.5q37 -11 66 -22.5t48 -27.5t29 -38.5t10 -54.5q0 -37 -14.5 -65t-39 -47t-58 -28.5t-71.5 -9.5zM256 729h33l94 -129h-29l-84 101l-110 -101h-31z" />
    <glyph glyph-name="Scedilla" unicode="&#x15e;" horiz-adv-x="583" 
d="M215 -211q-38 0 -62.5 19t-27.5 56h32q3 -47 58 -47q20 0 39 11.5t19 41.5q0 23 -13.5 32.5t-30.5 9.5q-16 0 -25 -3t-16 -8l-17 18l53 77q-88 11 -141.5 61.5t-58.5 139.5h35q8 -84 63 -128.5t153 -44.5q46 0 84.5 11.5t66 34.5t43 56.5t15.5 77.5q0 33 -10 56.5
t-32 41.5t-56.5 32t-83.5 28q-51 14 -88.5 29.5t-61.5 35.5t-36 46t-12 60q0 45 16.5 80t46.5 59t71 37t90 13q94 0 151.5 -42t64.5 -127h-34q-9 72 -56.5 105.5t-126.5 33.5q-86 0 -137 -40t-51 -118q0 -27 9.5 -47.5t30.5 -37t54.5 -30.5t81.5 -27q52 -14 91 -30t64 -37.5
t37.5 -50t12.5 -68.5q0 -50 -18.5 -89.5t-51 -67t-77.5 -42t-98 -14.5h-22l-39 -58q17 6 33.5 4t29.5 -10.5t21 -23t8 -34.5q0 -39 -25 -60.5t-66 -21.5z" />
    <glyph glyph-name="scedilla" unicode="&#x15f;" horiz-adv-x="453" 
d="M149 -211q-38 0 -62.5 19t-27.5 56h32q3 -47 58 -47q20 0 39 11.5t19 41.5q0 23 -13.5 32.5t-30.5 9.5q-16 0 -25 -3t-16 -8l-17 18l52 76q-66 11 -102.5 51t-39.5 108h33q5 -63 42.5 -98.5t117.5 -35.5q63 0 105.5 29.5t42.5 90.5q0 23 -7 40t-22.5 30.5t-40.5 23.5
t-60 20q-40 11 -69 23.5t-48 28.5t-28.5 36.5t-9.5 49.5q0 34 14 60t37.5 43.5t54.5 26t66 8.5t65 -7.5t53 -23.5t37.5 -42t17.5 -63h-33q-5 52 -40 79.5t-101 27.5q-59 0 -98.5 -26.5t-39.5 -81.5q0 -21 7 -37t23 -28.5t41.5 -23t61.5 -20.5q37 -11 66 -22.5t48 -27.5
t29 -38.5t10 -54.5q0 -37 -14.5 -65t-39 -47t-58 -28.5t-71.5 -9.5h-21l-38 -56q17 6 33.5 4t29.5 -10.5t21 -23t8 -34.5q0 -39 -25 -60.5t-66 -21.5z" />
    <glyph glyph-name="Scaron" unicode="&#x160;" horiz-adv-x="583" 
d="M275 -7q-54 0 -99 13t-78 38.5t-52 64t-22 88.5h35q8 -84 63 -128.5t153 -44.5q46 0 84.5 11.5t66 34.5t43 56.5t15.5 77.5q0 33 -10 56.5t-32 41.5t-56.5 32t-83.5 28q-51 14 -88.5 29.5t-61.5 35.5t-36 46t-12 60q0 45 16.5 80t46.5 59t71 37t90 13q94 0 151.5 -42
t64.5 -127h-34q-9 72 -56.5 105.5t-126.5 33.5q-86 0 -137 -40t-51 -118q0 -27 9.5 -47.5t30.5 -37t54.5 -30.5t81.5 -27q52 -14 91 -30t64 -37.5t37.5 -50t12.5 -68.5q0 -50 -18.5 -89.5t-51 -67t-77.5 -42t-98 -14.5zM359 771h-34l-95 120h29l86 -91l109 91h31z" />
    <glyph glyph-name="scaron" unicode="&#x161;" horiz-adv-x="453" 
d="M207 -9q-88 0 -138 42t-54 121h33q5 -63 42.5 -98.5t117.5 -35.5q63 0 105.5 29.5t42.5 90.5q0 23 -7 40t-22.5 30.5t-40.5 23.5t-60 20q-40 11 -69 23.5t-48 28.5t-28.5 36.5t-9.5 49.5q0 34 14 60t37.5 43.5t54.5 26t66 8.5t65 -7.5t53 -23.5t37.5 -42t17.5 -63h-33
q-5 52 -40 79.5t-101 27.5q-59 0 -98.5 -26.5t-39.5 -81.5q0 -21 7 -37t23 -28.5t41.5 -23t61.5 -20.5q37 -11 66 -22.5t48 -27.5t29 -38.5t10 -54.5q0 -37 -14.5 -65t-39 -47t-58 -28.5t-71.5 -9.5zM278 613h-33l-93 129h29l84 -100l110 100h31z" />
    <glyph glyph-name="Tcommaaccent" unicode="&#x162;" horiz-adv-x="558" 
d="M325 685h-230l5 30h497l-5 -30h-231l-108 -685h-36zM148 -183l68 139l34 -10l-79 -141z" />
    <glyph glyph-name="tcommaaccent" unicode="&#x163;" horiz-adv-x="325" 
d="M182 -7q-60 0 -86.5 36t-16.5 102l58 363h-79l5 29h78l19 119h34l-19 -119h146l-5 -29h-145l-58 -364q-9 -58 11 -82.5t62 -24.5q37 0 65 11l-5 -29q-12 -5 -28 -8.5t-36 -3.5zM57 -183l68 139l34 -10l-79 -141z" />
    <glyph glyph-name="Tcaron" unicode="&#x164;" horiz-adv-x="558" 
d="M325 685h-230l5 30h497l-5 -30h-231l-108 -685h-36zM371 771h-34l-95 120h29l86 -91l109 91h31z" />
    <glyph glyph-name="tcaron" unicode="&#x165;" horiz-adv-x="325" 
d="M182 -7q-60 0 -86.5 36t-16.5 102l58 363h-79l5 29h78l19 119h34l-19 -119h146l-5 -29h-145l-58 -364q-9 -58 11 -82.5t62 -24.5q37 0 65 11l-5 -29q-12 -5 -28 -8.5t-36 -3.5zM329 773h37l-49 -154h-27z" />
    <glyph glyph-name="Tbar" unicode="&#x166;" horiz-adv-x="558" 
d="M128 410h153l44 275h-230l5 30h497l-5 -30h-231l-44 -275h159l-4 -28h-159l-60 -382h-36l60 382h-154z" />
    <glyph glyph-name="tbar" unicode="&#x167;" horiz-adv-x="325" 
d="M35 342h78l24 152h-79l5 29h78l19 119h34l-19 -119h146l-5 -29h-145l-24 -152h146l-5 -27h-146l-29 -185q-9 -58 11 -82.5t62 -24.5q37 0 65 11l-5 -29q-12 -5 -28 -8.5t-36 -3.5q-60 0 -86.5 36t-16.5 102l29 184h-78z" />
    <glyph glyph-name="Utilde" unicode="&#x168;" horiz-adv-x="674" 
d="M318 -5q-137 0 -197.5 71t-40.5 201l71 448h36l-71 -448q-18 -118 31.5 -179.5t171.5 -61.5q105 0 161 53t73 163l75 473h36l-75 -476q-19 -119 -83 -181.5t-188 -62.5zM480 774q-19 0 -36 9t-33 20.5t-31 20.5t-30 9q-17 0 -33 -14.5t-22 -44.5h-28q9 45 31.5 67
t52.5 22q18 0 35 -9t33 -20.5t31.5 -20.5t30.5 -9q17 0 32.5 14.5t22.5 43.5h27q-8 -44 -31 -66t-52 -22z" />
    <glyph glyph-name="utilde" unicode="&#x169;" horiz-adv-x="563" 
d="M461 140q-8 -47 -10 -82t-3 -58h-33q0 23 2.5 53.5t7.5 61.5q-27 -51 -78 -87t-123 -36q-43 0 -76.5 14t-54.5 41.5t-28.5 68.5t1.5 96l49 311h34l-50 -315q-15 -94 21 -140t108 -46q36 0 70.5 12.5t63 36t48.5 58.5t27 80l50 314h34zM392 615q-19 0 -36 9t-33 20t-31 20
t-30 9q-18 0 -33.5 -14.5t-22.5 -43.5h-28q9 45 32 66.5t53 21.5q18 0 35 -9t33 -20.5t31 -20.5t30 -9q17 0 33 15t22 44h28q-9 -44 -31.5 -66t-51.5 -22z" />
    <glyph glyph-name="Umacron" unicode="&#x16a;" horiz-adv-x="674" 
d="M318 -5q-137 0 -197.5 71t-40.5 201l71 448h36l-71 -448q-18 -118 31.5 -179.5t171.5 -61.5q105 0 161 53t73 163l75 473h36l-75 -476q-19 -119 -83 -181.5t-188 -62.5zM303 823h236l-4 -29h-236z" />
    <glyph glyph-name="umacron" unicode="&#x16b;" horiz-adv-x="563" 
d="M461 140q-8 -47 -10 -82t-3 -58h-33q0 23 2.5 53.5t7.5 61.5q-27 -51 -78 -87t-123 -36q-43 0 -76.5 14t-54.5 41.5t-28.5 68.5t1.5 96l49 311h34l-50 -315q-15 -94 21 -140t108 -46q36 0 70.5 12.5t63 36t48.5 58.5t27 80l50 314h34zM220 675h229l-4 -28h-230z" />
    <glyph glyph-name="Ubreve" unicode="&#x16c;" horiz-adv-x="674" 
d="M318 -5q-137 0 -197.5 71t-40.5 201l71 448h36l-71 -448q-18 -118 31.5 -179.5t171.5 -61.5q105 0 161 53t73 163l75 473h36l-75 -476q-19 -119 -83 -181.5t-188 -62.5zM411 773q-51 0 -82.5 33t-32.5 84h30q2 -39 24.5 -63.5t61.5 -24.5q38 0 66 24t36 64h29
q-3 -26 -15 -47.5t-30 -37t-40.5 -24t-46.5 -8.5z" />
    <glyph glyph-name="ubreve" unicode="&#x16d;" horiz-adv-x="563" 
d="M461 140q-8 -47 -10 -82t-3 -58h-33q0 23 2.5 53.5t7.5 61.5q-27 -51 -78 -87t-123 -36q-43 0 -76.5 14t-54.5 41.5t-28.5 68.5t1.5 96l49 311h34l-50 -315q-15 -94 21 -140t108 -46q36 0 70.5 12.5t63 36t48.5 58.5t27 80l50 314h34zM325 614q-51 0 -79.5 31.5
t-29.5 82.5h30q2 -39 22 -62t58 -23q37 0 62.5 22.5t33.5 62.5h29q-8 -53 -43.5 -83.5t-82.5 -30.5z" />
    <glyph glyph-name="Uring" unicode="&#x16e;" horiz-adv-x="674" 
d="M318 -5q-137 0 -197.5 71t-40.5 201l71 448h36l-71 -448q-18 -118 31.5 -179.5t171.5 -61.5q105 0 161 53t73 163l75 473h36l-75 -476q-19 -119 -83 -181.5t-188 -62.5zM416 748q29 0 48.5 19.5t19.5 50.5q0 29 -18 47t-47 18t-48.5 -19.5t-19.5 -50.5q0 -27 18 -46
t47 -19zM416 726q-20 0 -36.5 7t-28.5 19t-19 27.5t-7 33.5q0 19 7.5 36t20.5 29.5t30 20t36 7.5q40 0 65.5 -26t25.5 -62q0 -39 -27 -65.5t-67 -26.5z" />
    <glyph glyph-name="uring" unicode="&#x16f;" horiz-adv-x="563" 
d="M461 140q-8 -47 -10 -82t-3 -58h-33q0 23 2.5 53.5t7.5 61.5q-27 -51 -78 -87t-123 -36q-43 0 -76.5 14t-54.5 41.5t-28.5 68.5t1.5 96l49 311h34l-50 -315q-15 -94 21 -140t108 -46q36 0 70.5 12.5t63 36t48.5 58.5t27 80l50 314h34zM336 625q30 0 49 19.5t19 50.5
q0 29 -17.5 47t-46.5 18t-48.5 -19.5t-19.5 -50.5q0 -27 18 -46t46 -19zM336 603q-19 0 -35.5 7t-28.5 19t-19 27.5t-7 33.5q0 19 7.5 36t20 29.5t29.5 20t37 7.5q40 0 65 -26t25 -62q0 -39 -27 -65.5t-67 -26.5z" />
    <glyph glyph-name="Uhungarumlaut" unicode="&#x170;" horiz-adv-x="674" 
d="M318 -5q-137 0 -197.5 71t-40.5 201l71 448h36l-71 -448q-18 -118 31.5 -179.5t171.5 -61.5q105 0 161 53t73 163l75 473h36l-75 -476q-19 -119 -83 -181.5t-188 -62.5zM390 891h39l-70 -120h-28zM508 891h39l-70 -120h-28z" />
    <glyph glyph-name="uhungarumlaut" unicode="&#x171;" horiz-adv-x="563" 
d="M461 140q-8 -47 -10 -82t-3 -58h-33q0 23 2.5 53.5t7.5 61.5q-27 -51 -78 -87t-123 -36q-43 0 -76.5 14t-54.5 41.5t-28.5 68.5t1.5 96l49 311h34l-50 -315q-15 -94 21 -140t108 -46q36 0 70.5 12.5t63 36t48.5 58.5t27 80l50 314h34zM326 747h40l-86 -147h-29zM444 747
h40l-86 -147h-29z" />
    <glyph glyph-name="Uogonek" unicode="&#x172;" horiz-adv-x="674" 
d="M322 -182q-40 0 -60.5 19t-20.5 51q0 21 8.5 37.5t22 29.5t29.5 23t31 17h-17q-135 0 -195 71.5t-40 200.5l71 448h36l-71 -448q-18 -118 31.5 -179.5t171.5 -61.5q105 0 161 52.5t73 166.5l75 470h36l-75 -476q-14 -88 -50.5 -143t-103.5 -81q-22 -8 -50 -19t-52.5 -26
t-41.5 -34.5t-17 -44.5q0 -20 12.5 -33t41.5 -13q23 0 46 8l-5 -27q-9 -3 -21 -5.5t-26 -2.5z" />
    <glyph glyph-name="uogonek" unicode="&#x173;" horiz-adv-x="563" 
d="M461 140q-8 -47 -10 -82t-3 -58q-13 -8 -30 -19t-32 -24.5t-25.5 -30t-10.5 -35.5q0 -20 12.5 -33t41.5 -13q23 0 46 8l-5 -27q-9 -3 -21 -5.5t-26 -2.5q-40 0 -61 19t-20 51q0 21 10.5 39t25.5 32.5t32 25.5t30 19q0 23 2.5 52t7.5 59q-27 -51 -78 -87t-123 -36
q-43 0 -76.5 14t-54.5 41.5t-28.5 68.5t1.5 96l49 311h34l-50 -315q-15 -94 21 -140t108 -46q36 0 70.5 12.5t63 36t48.5 58.5t27 80l50 314h34z" />
    <glyph glyph-name="Wcircumflex" unicode="&#x174;" horiz-adv-x="905" 
d="M97 715h35l74 -661l302 661h24l89 -663l288 663h35l-311 -715h-38l-86 647l-294 -647h-38zM524 891h33l96 -120h-29l-86 91l-109 -91h-32z" />
    <glyph glyph-name="wcircumflex" unicode="&#x175;" horiz-adv-x="754" 
d="M69 523h35l74 -483l225 483h28l77 -483l222 483h36l-243 -523h-41l-73 466l-218 -466h-41zM422 729h33l94 -129h-29l-84 101l-110 -101h-31z" />
    <glyph glyph-name="Ycircumflex" unicode="&#x176;" horiz-adv-x="564" 
d="M276 322l-189 393h37l175 -363l269 363h39l-295 -396l-51 -319h-36zM357 891h33l96 -120h-29l-86 91l-109 -91h-32z" />
    <glyph glyph-name="ycircumflex" unicode="&#x177;" horiz-adv-x="486" 
d="M196 42l-131 481h34l121 -443l245 443h37l-395 -705h-37zM287 729h33l94 -129h-29l-84 101l-110 -101h-31z" />
    <glyph glyph-name="Ydieresis" unicode="&#x178;" horiz-adv-x="564" 
d="M276 322l-189 393h37l175 -363l269 363h39l-295 -396l-51 -319h-36zM281 788q-11 0 -18.5 7t-7.5 18t8 19t19 8t18 -7.5t7 -18.5t-7.5 -18.5t-18.5 -7.5zM448 788q-11 0 -18.5 7t-7.5 18t7.5 19t18.5 8t18.5 -7.5t7.5 -18.5t-7.5 -18.5t-18.5 -7.5z" />
    <glyph glyph-name="Zacute" unicode="&#x179;" horiz-adv-x="582" 
d="M-14 9l571 676h-428l5 30h481l-1 -8l-569 -676h456l-5 -31h-512zM433 891h43l-90 -120h-31z" />
    <glyph glyph-name="zacute" unicode="&#x17a;" horiz-adv-x="462" 
d="M-16 7l428 487h-321l5 29h377l-1 -7l-426 -486h342l-6 -30h-399zM360 747h43l-106 -147h-30z" />
    <glyph glyph-name="Zdotaccent" unicode="&#x17b;" horiz-adv-x="582" 
d="M-14 9l571 676h-428l5 30h481l-1 -8l-569 -676h456l-5 -31h-512zM379 787q-11 0 -18.5 7.5t-7.5 18.5t8 19t19 8t18.5 -7.5t7.5 -18.5t-8 -19t-19 -8z" />
    <glyph glyph-name="zdotaccent" unicode="&#x17c;" horiz-adv-x="462" 
d="M-16 7l428 487h-321l5 29h377l-1 -7l-426 -486h342l-6 -30h-399zM294 637q-11 0 -18.5 8t-7.5 19t8 18.5t19 7.5t18.5 -7.5t7.5 -18.5t-8 -19t-19 -8z" />
    <glyph glyph-name="Zcaron" unicode="&#x17d;" horiz-adv-x="582" 
d="M-14 9l571 676h-428l5 30h481l-1 -8l-569 -676h456l-5 -31h-512zM388 771h-34l-95 120h29l86 -91l109 91h31z" />
    <glyph glyph-name="zcaron" unicode="&#x17e;" horiz-adv-x="462" 
d="M-16 7l428 487h-321l5 29h377l-1 -7l-426 -486h342l-6 -30h-399zM306 613h-33l-93 129h29l84 -100l110 100h31z" />
    <glyph glyph-name="florin" unicode="&#x192;" horiz-adv-x="376" 
d="M57 397h100l32 170q16 84 57.5 120.5t99.5 36.5q26 0 42.5 -4t28.5 -10l-4 -27q-13 5 -28 8.5t-38 3.5q-46 0 -77.5 -29.5t-45.5 -99.5l-32 -169h145l-5 -29h-146l-104 -550h-35l104 550h-99z" />
    <glyph glyph-name="Aringacute" unicode="&#x1fa;" horiz-adv-x="635" 
d="M480 228h-339l-119 -228h-36l375 715h48l156 -715h-35zM156 258h317l-93 429zM394 773q29 0 48.5 19.5t19.5 50.5q0 29 -18 47t-47 18t-48.5 -19.5t-19.5 -50.5q0 -27 18 -46t47 -19zM394 751q-20 0 -36.5 7t-28.5 19t-19 27.5t-7 33.5q0 19 7.5 36t20.5 29.5t30 20
t36 7.5q40 0 65.5 -26t25.5 -62q0 -39 -27 -65.5t-67 -26.5zM471 1079h43l-90 -120h-31z" />
    <glyph glyph-name="aringacute" unicode="&#x1fb;" horiz-adv-x="521" 
d="M204 -7q-88 0 -130 40.5t-42 101.5q0 48 18.5 79t49.5 49t72.5 25.5t86.5 7.5h156l7 45q11 77 -19.5 118.5t-115.5 41.5q-60 0 -104 -27.5t-63 -93.5h-35q10 40 30.5 69t48 47t59 26.5t64.5 8.5q99 0 141 -51t28 -142l-30 -192q-8 -54 -10.5 -87.5t-2.5 -58.5h-33
q0 18 1.5 41t3.5 45q-23 -38 -69.5 -65.5t-111.5 -27.5zM207 21q35 0 66.5 10t57 29t42 44.5t21.5 57.5l17 106h-152q-39 0 -74.5 -5.5t-61.5 -20t-41.5 -40.5t-15.5 -67q0 -48 33.5 -81t107.5 -33zM314 621q30 0 49 19.5t19 50.5q0 29 -17.5 47t-46.5 18t-48.5 -19.5
t-19.5 -50.5q0 -27 18 -46t46 -19zM314 599q-19 0 -35.5 7t-28.5 19t-19 27.5t-7 33.5q0 19 7.5 36t20 29.5t29.5 20t37 7.5q40 0 65 -26t25 -62q0 -39 -27 -65.5t-67 -26.5zM403 950h43l-90 -120h-31z" />
    <glyph glyph-name="AEacute" unicode="&#x1fc;" horiz-adv-x="943" 
d="M454 715h489l-5 -30h-365l-48 -301h302l-5 -31h-301l-52 -322h390l-5 -31h-425l36 228h-291l-148 -228h-40zM194 258h275l68 427h-65zM753 891h43l-90 -120h-31z" />
    <glyph glyph-name="aeacute" unicode="&#x1fd;" horiz-adv-x="897" 
d="M444 217q0 -94 43.5 -144.5t134.5 -50.5q136 0 183 122h34q-26 -76 -82.5 -114t-135.5 -38q-89 0 -139.5 42t-64.5 116q-11 -42 -33 -71.5t-50.5 -48.5t-62 -28t-67.5 -9q-88 0 -130 39.5t-42 100.5q0 46 18.5 76.5t50 49t73 26t86.5 7.5h156l7 49q11 77 -20 118.5
t-116 41.5q-60 0 -104 -27.5t-63 -93.5h-35q10 40 30.5 69t48 47t59 26.5t64.5 8.5q79 0 121 -34t47 -95q32 58 86 93t126 35q56 0 96 -18.5t64 -52t32 -80t0 -101.5l-3 -14h-410q-1 -11 -1.5 -23t-0.5 -24zM206 21q36 0 68.5 10.5t58 31t43 51.5t23.5 73l12 77h-152
q-39 0 -74 -5.5t-61.5 -19.5t-42 -40t-15.5 -66q0 -48 33 -80t107 -32zM666 501q-44 0 -80.5 -15.5t-63.5 -43.5t-45.5 -66t-26.5 -84h377q6 46 -0.5 84t-26 66t-53 43.5t-81.5 15.5zM576 747h43l-106 -147h-30z" />
    <glyph glyph-name="Oslashacute" unicode="&#x1fe;" horiz-adv-x="788" 
d="M33 3l98 102q-72 89 -72 221q0 79 27.5 150.5t77.5 126t119.5 87t152.5 32.5q66 0 120.5 -21t95.5 -58l91 94l21 -22l-90 -93q40 -45 61.5 -103.5t21.5 -126.5q0 -80 -27 -152t-76.5 -127t-118 -87.5t-151.5 -32.5q-73 0 -131.5 23.5t-100.5 65.5l-98 -101zM721 392
q0 61 -17.5 113.5t-52.5 92.5l-476 -492q38 -38 90.5 -60t118.5 -22q76 0 138 29.5t106 80t68.5 117.5t24.5 141zM96 326q-1 -58 14.5 -108t44.5 -89l475 491q-36 34 -85 53t-110 19q-76 0 -138.5 -29.5t-106.5 -79.5t-68.5 -116.5t-25.5 -140.5zM511 891h43l-90 -120h-31z
" />
    <glyph glyph-name="oslashacute" unicode="&#x1ff;" horiz-adv-x="573" 
d="M18 3l69 72q-24 31 -37 70t-13 84q0 60 19 115t54.5 96t86 65.5t113.5 24.5q49 0 88 -16t68 -44l66 69l21 -20l-68 -71q24 -32 37 -71t13 -83q0 -63 -19 -118t-54 -95.5t-85 -64t-112 -23.5q-48 0 -88 15.5t-70 44.5l-68 -71zM266 22q54 0 97.5 21t74 57.5t46.5 86.5
t16 107q0 74 -37 130l-334 -348q25 -25 59 -39.5t78 -14.5zM72 229q0 -75 38 -130l334 348q-24 25 -57.5 39.5t-77.5 14.5q-56 0 -100 -22t-74.5 -59t-46.5 -86.5t-16 -104.5zM398 747h43l-106 -147h-30z" />
    <glyph glyph-name="Scommaaccent" unicode="&#x218;" horiz-adv-x="583" 
d="M275 -7q-54 0 -99 13t-78 38.5t-52 64t-22 88.5h35q8 -84 63 -128.5t153 -44.5q46 0 84.5 11.5t66 34.5t43 56.5t15.5 77.5q0 33 -10 56.5t-32 41.5t-56.5 32t-83.5 28q-51 14 -88.5 29.5t-61.5 35.5t-36 46t-12 60q0 45 16.5 80t46.5 59t71 37t90 13q94 0 151.5 -42
t64.5 -127h-34q-9 72 -56.5 105.5t-126.5 33.5q-86 0 -137 -40t-51 -118q0 -27 9.5 -47.5t30.5 -37t54.5 -30.5t81.5 -27q52 -14 91 -30t64 -37.5t37.5 -50t12.5 -68.5q0 -50 -18.5 -89.5t-51 -67t-77.5 -42t-98 -14.5zM156 -183l68 139l34 -10l-79 -141z" />
    <glyph glyph-name="scommaaccent" unicode="&#x219;" horiz-adv-x="453" 
d="M207 -9q-88 0 -138 42t-54 121h33q5 -63 42.5 -98.5t117.5 -35.5q63 0 105.5 29.5t42.5 90.5q0 23 -7 40t-22.5 30.5t-40.5 23.5t-60 20q-40 11 -69 23.5t-48 28.5t-28.5 36.5t-9.5 49.5q0 34 14 60t37.5 43.5t54.5 26t66 8.5t65 -7.5t53 -23.5t37.5 -42t17.5 -63h-33
q-5 52 -40 79.5t-101 27.5q-59 0 -98.5 -26.5t-39.5 -81.5q0 -21 7 -37t23 -28.5t41.5 -23t61.5 -20.5q37 -11 66 -22.5t48 -27.5t29 -38.5t10 -54.5q0 -37 -14.5 -65t-39 -47t-58 -28.5t-71.5 -9.5zM84 -183l68 139l34 -10l-79 -141z" />
    <glyph glyph-name="uni021A" unicode="&#x21a;" horiz-adv-x="558" 
d="M325 685h-230l5 30h497l-5 -30h-231l-108 -685h-36zM148 -183l68 139l34 -10l-79 -141z" />
    <glyph glyph-name="uni021B" unicode="&#x21b;" horiz-adv-x="325" 
d="M182 -7q-60 0 -86.5 36t-16.5 102l58 363h-79l5 29h78l19 119h34l-19 -119h146l-5 -29h-145l-58 -364q-9 -58 11 -82.5t62 -24.5q37 0 65 11l-5 -29q-12 -5 -28 -8.5t-36 -3.5zM57 -183l68 139l34 -10l-79 -141z" />
    <glyph glyph-name="uni0237" unicode="&#x237;" horiz-adv-x="200" 
d="M-60 -156q44 2 63 23t27 66l93 590h35l-94 -592q-10 -62 -40 -88.5t-89 -28.5z" />
    <glyph glyph-name="circumflex" unicode="&#x2c6;" horiz-adv-x="400" 
d="M253 729h33l94 -129h-29l-84 101l-110 -101h-31z" />
    <glyph glyph-name="caron" unicode="&#x2c7;" horiz-adv-x="400" 
d="M271 613h-33l-93 129h29l84 -100l110 100h31z" />
    <glyph glyph-name="breve" unicode="&#x2d8;" horiz-adv-x="400" 
d="M264 614q-51 0 -79.5 31.5t-29.5 82.5h30q2 -39 22 -62t58 -23q37 0 62.5 22.5t33.5 62.5h29q-8 -53 -43.5 -83.5t-82.5 -30.5z" />
    <glyph glyph-name="dotaccent" unicode="&#x2d9;" horiz-adv-x="400" 
d="M262 637q-11 0 -18.5 8t-7.5 19t8 18.5t19 7.5t18.5 -7.5t7.5 -18.5t-8 -19t-19 -8z" />
    <glyph glyph-name="ring" unicode="&#x2da;" horiz-adv-x="400" 
d="M266 625q30 0 49 19.5t19 50.5q0 29 -17.5 47t-46.5 18t-48.5 -19.5t-19.5 -50.5q0 -27 18 -46t46 -19zM266 603q-19 0 -35.5 7t-28.5 19t-19 27.5t-7 33.5q0 19 7.5 36t20 29.5t29.5 20t37 7.5q40 0 65 -26t25 -62q0 -39 -27 -65.5t-67 -26.5z" />
    <glyph glyph-name="ogonek" unicode="&#x2db;" horiz-adv-x="400" 
d="M149 -182q-41 0 -61.5 19t-20.5 51q0 21 10.5 38.5t25.5 31.5t32 24.5t29 17.5h38q-14 -8 -31.5 -19t-33 -24.5t-26 -30t-10.5 -35.5q0 -20 12.5 -33t41.5 -13q12 0 22.5 1.5t22.5 6.5l-4 -27q-9 -3 -21 -5.5t-26 -2.5z" />
    <glyph glyph-name="tilde" unicode="&#x2dc;" horiz-adv-x="400" 
d="M330 615q-19 0 -36 9t-33 20t-31 20t-30 9q-18 0 -33.5 -14.5t-22.5 -43.5h-28q9 45 32 66.5t53 21.5q18 0 35 -9t33 -20.5t31 -20.5t30 -9q17 0 33 15t22 44h28q-9 -44 -31.5 -66t-51.5 -22z" />
    <glyph glyph-name="hungarumlaut" unicode="&#x2dd;" horiz-adv-x="400" 
d="M248 747h40l-86 -147h-29zM366 747h40l-86 -147h-29z" />
    <glyph glyph-name="Wgrave" unicode="&#x1e80;" horiz-adv-x="905" 
d="M97 715h35l74 -661l302 661h24l89 -663l288 663h35l-311 -715h-38l-86 647l-294 -647h-38zM447 891h41l55 -120h-28z" />
    <glyph glyph-name="wgrave" unicode="&#x1e81;" horiz-adv-x="754" 
d="M69 523h35l74 -483l225 483h28l77 -483l222 483h36l-243 -523h-41l-73 466l-218 -466h-41zM347 747h40l51 -147h-28z" />
    <glyph glyph-name="Wacute" unicode="&#x1e82;" horiz-adv-x="905" 
d="M97 715h35l74 -661l302 661h24l89 -663l288 663h35l-311 -715h-38l-86 647l-294 -647h-38zM585 891h43l-90 -120h-31z" />
    <glyph glyph-name="wacute" unicode="&#x1e83;" horiz-adv-x="754" 
d="M69 523h35l74 -483l225 483h28l77 -483l222 483h36l-243 -523h-41l-73 466l-218 -466h-41zM504 747h43l-106 -147h-30z" />
    <glyph glyph-name="Wdieresis" unicode="&#x1e84;" horiz-adv-x="905" 
d="M97 715h35l74 -661l302 661h24l89 -663l288 663h35l-311 -715h-38l-86 647l-294 -647h-38zM447 788q-11 0 -18.5 7t-7.5 18t8 19t19 8t18 -7.5t7 -18.5t-7.5 -18.5t-18.5 -7.5zM614 788q-11 0 -18.5 7t-7.5 18t7.5 19t18.5 8t18.5 -7.5t7.5 -18.5t-7.5 -18.5t-18.5 -7.5z
" />
    <glyph glyph-name="wdieresis" unicode="&#x1e85;" horiz-adv-x="754" 
d="M69 523h35l74 -483l225 483h28l77 -483l222 483h36l-243 -523h-41l-73 466l-218 -466h-41zM360 638q-11 0 -18.5 7.5t-7.5 18.5t7.5 18.5t18.5 7.5t18.5 -7.5t7.5 -18.5t-7.5 -18.5t-18.5 -7.5zM513 638q-11 0 -18.5 7.5t-7.5 18.5t7.5 18.5t18.5 7.5t18.5 -7.5
t7.5 -18.5t-7.5 -18.5t-18.5 -7.5z" />
    <glyph glyph-name="Ygrave" unicode="&#x1ef2;" horiz-adv-x="564" 
d="M276 322l-189 393h37l175 -363l269 363h39l-295 -396l-51 -319h-36zM281 891h41l55 -120h-28z" />
    <glyph glyph-name="ygrave" unicode="&#x1ef3;" horiz-adv-x="486" 
d="M196 42l-131 481h34l121 -443l245 443h37l-395 -705h-37zM215 747h40l51 -147h-28z" />
    <glyph glyph-name="endash" unicode="&#x2013;" horiz-adv-x="489" 
d="M50 293h394l-5 -29h-394z" />
    <glyph glyph-name="emdash" unicode="&#x2014;" horiz-adv-x="859" 
d="M50 293h764l-5 -29h-764z" />
    <glyph glyph-name="quoteleft" unicode="&#x2018;" horiz-adv-x="185" 
d="M95 568l86 152l23 -12l-77 -155z" />
    <glyph glyph-name="quoteright" unicode="&#x2019;" horiz-adv-x="185" 
d="M96 564l77 156l32 -15l-86 -152z" />
    <glyph glyph-name="quotesinglbase" unicode="&#x201a;" horiz-adv-x="185" 
d="M-6 -59l76 156l32 -15l-86 -153z" />
    <glyph glyph-name="quotedblleft" unicode="&#x201c;" horiz-adv-x="301" 
d="M95 568l86 152l23 -12l-77 -155zM211 568l86 152l23 -12l-77 -155z" />
    <glyph glyph-name="quotedblright" unicode="&#x201d;" horiz-adv-x="301" 
d="M96 564l77 156l32 -15l-86 -152zM212 564l77 156l32 -15l-86 -152z" />
    <glyph glyph-name="quotedblbase" unicode="&#x201e;" horiz-adv-x="301" 
d="M-6 -59l76 156l32 -15l-86 -153zM110 -59l77 156l31 -15l-86 -153z" />
    <glyph glyph-name="dagger" unicode="&#x2020;" horiz-adv-x="334" 
d="M195 547h-120l5 29h119l23 139h32l-22 -139h121l-5 -29h-120l-52 -321h-32z" />
    <glyph glyph-name="daggerdbl" unicode="&#x2021;" horiz-adv-x="334" 
d="M195 547h-120l5 29h119l23 139h32l-22 -139h121l-5 -29h-120l-25 -153h120l-5 -29h-119l-23 -139h-32l23 139h-122l5 29h121z" />
    <glyph glyph-name="bullet" unicode="&#x2022;" horiz-adv-x="307" 
d="M155 205q-21 0 -38.5 7.5t-30 20.5t-20 30t-7.5 37q0 22 8 41t21.5 33t32.5 22t42 8q42 0 69.5 -28t27.5 -67q0 -43 -28.5 -73.5t-76.5 -30.5z" />
    <glyph glyph-name="ellipsis" unicode="&#x2026;" horiz-adv-x="628" 
d="M59 -5q-13 0 -21 8.5t-8 20.5t8 20.5t20 8.5q13 0 21 -8.5t8 -20.5t-8 -20.5t-20 -8.5zM275 -5q-12 0 -20.5 8.5t-8.5 20.5t8 20.5t21 8.5q12 0 20.5 -8.5t8.5 -20.5t-8.5 -20.5t-20.5 -8.5zM491 -5q-12 0 -20.5 8.5t-8.5 20.5t8.5 20.5t20.5 8.5t20.5 -8.5t8.5 -20.5
t-8.5 -20.5t-20.5 -8.5z" />
    <glyph glyph-name="perthousand" unicode="&#x2030;" horiz-adv-x="1098" 
d="M122 549q1 -47 29.5 -79t79.5 -32q28 0 52 10.5t41 29t26 44t9 56.5q0 23 -7.5 43.5t-21.5 36.5t-34 25t-46 9q-29 0 -52.5 -11t-40.5 -30.5t-26 -45.5t-9 -56zM231 410q-30 0 -56 10.5t-45 29t-29.5 44.5t-10.5 56q0 34 12 65t33.5 54t51 37t64.5 14q30 0 55.5 -11
t44.5 -30t29.5 -45.5t10.5 -56.5q0 -37 -12.5 -67.5t-34 -52.5t-51 -34.5t-62.5 -12.5zM660 715h35l-579 -715h-36zM413 134q1 -48 29.5 -80t79.5 -32q28 0 52 10.5t41 29t26 44t9 56.5q0 23 -7.5 44t-21.5 36.5t-34 24.5t-46 9q-29 0 -52.5 -11t-40.5 -30.5t-26 -45.5
t-9 -55zM522 -6q-30 0 -56 10.5t-45 29.5t-29.5 45t-10.5 56q0 34 12 64.5t33.5 54t51 37t64.5 13.5q30 0 55.5 -11t44.5 -30t29.5 -45t10.5 -57q0 -37 -12.5 -67.5t-34 -52.5t-51 -34.5t-62.5 -12.5zM765 134q1 -48 29.5 -80t79.5 -32q28 0 52 10.5t41 29t26 44t9 56.5
q0 23 -7.5 44t-21.5 36.5t-34 24.5t-46 9q-29 0 -52.5 -11t-40.5 -30.5t-26 -45.5t-9 -55zM874 -6q-30 0 -56 10.5t-45 29.5t-29.5 45t-10.5 56q0 34 12 64.5t33.5 54t51 37t64.5 13.5q30 0 55.5 -11t44.5 -30t29.5 -45t10.5 -57q0 -37 -12.5 -67.5t-34 -52.5t-51 -34.5
t-62.5 -12.5z" />
    <glyph glyph-name="uni2032" unicode="&#x2032;" horiz-adv-x="151" 
d="M140 715h39l-69 -186h-28z" />
    <glyph glyph-name="uni2033" unicode="&#x2033;" horiz-adv-x="261" 
d="M140 715h39l-69 -186h-28zM251 715h38l-68 -186h-28z" />
    <glyph glyph-name="guilsinglleft" unicode="&#x2039;" horiz-adv-x="270" 
d="M51 261l165 178h38l-166 -179l106 -177h-34z" />
    <glyph glyph-name="guilsinglright" unicode="&#x203a;" horiz-adv-x="270" 
d="M218 260l-166 -177h-37l165 180l-106 176h34z" />
    <glyph glyph-name="fraction" unicode="&#x2044;" horiz-adv-x="113" 
d="M349 715h33l-590 -715h-33z" />
    <glyph glyph-name="Euro" unicode="&#x20ac;" horiz-adv-x="644" 
d="M59 441h67q25 132 96.5 206.5t188.5 74.5q97 0 153 -50t61 -149h-34q-5 81 -50.5 125t-130.5 44q-103 0 -164.5 -65t-84.5 -186h260l-9 -28h-256l-17 -110h236l-9 -28h-231q-6 -50 1 -95t30 -80t64 -55.5t103 -20.5q85 0 142.5 47t79.5 138h33q-22 -107 -91 -161.5
t-164 -54.5q-68 0 -115 22t-75.5 60t-39 89.5t-4.5 110.5h-66l5 28h65l18 110h-67z" />
    <glyph glyph-name="trademark" unicode="&#x2122;" horiz-adv-x="649" 
d="M381 715h38l67 -261l148 261h41l-49 -311h-28l44 277l-159 -277h-10l-73 277l-43 -277h-26zM191 692h-98l4 23h223l-4 -23h-98l-45 -288h-28z" />
    <glyph glyph-name="onethird" unicode="&#x2153;" horiz-adv-x="700" 
d="M179 679l-101 -65l4 30l111 71h23l-55 -344h-31zM595 715h33l-590 -715h-33zM516 -3q-25 0 -47 6.5t-38.5 19t-27 31.5t-11.5 45h29q3 -35 28 -56t67 -21q36 0 63 19t27 61q0 28 -18.5 47.5t-54.5 19.5h-24l4 24h28q31 0 53 16.5t22 51.5q0 31 -20 47.5t-52 16.5
q-38 0 -61.5 -20.5t-31.5 -52.5h-28q8 43 40.5 69.5t80.5 26.5q20 0 38.5 -5t32.5 -15.5t22.5 -27t8.5 -38.5q0 -31 -18 -52.5t-50 -29.5q26 -7 42.5 -27t16.5 -52q0 -25 -10 -44t-26.5 -32.5t-38.5 -20.5t-46 -7z" />
    <glyph glyph-name="twothirds" unicode="&#x2154;" horiz-adv-x="748" 
d="M36 379l151 124q36 30 61.5 58t25.5 67q0 29 -19 47.5t-51 18.5q-35 0 -60.5 -21.5t-35.5 -63.5h-28q10 54 44.5 81.5t80.5 27.5q44 0 71.5 -24t27.5 -66q0 -23 -7.5 -41.5t-21 -35t-31.5 -32t-39 -33.5l-111 -90h181l-4 -25h-236zM661 715h33l-590 -715h-33zM564 -3
q-25 0 -47 6.5t-38.5 19t-27 31.5t-11.5 45h29q3 -35 28 -56t67 -21q36 0 63 19t27 61q0 28 -18.5 47.5t-54.5 19.5h-24l4 24h28q31 0 53 16.5t22 51.5q0 31 -20 47.5t-52 16.5q-38 0 -61.5 -20.5t-31.5 -52.5h-28q8 43 40.5 69.5t80.5 26.5q20 0 38.5 -5t32.5 -15.5
t22.5 -27t8.5 -38.5q0 -31 -18 -52.5t-50 -29.5q26 -7 42.5 -27t16.5 -52q0 -25 -10 -44t-26.5 -32.5t-38.5 -20.5t-46 -7z" />
    <glyph glyph-name="oneeighth" unicode="&#x215b;" horiz-adv-x="697" 
d="M179 679l-101 -65l4 30l111 71h23l-55 -344h-31zM598 715h33l-590 -715h-33zM508 -3q-24 0 -45.5 6t-38.5 18t-27 29.5t-10 40.5q0 41 25.5 64.5t67.5 31.5q-23 8 -39.5 26t-16.5 44q0 22 9.5 39t25 28.5t36 17.5t42.5 6q19 0 38 -5.5t34 -16t24 -26.5t9 -37
q0 -32 -20.5 -52.5t-53.5 -27.5q29 -10 47.5 -30t18.5 -53q0 -52 -36.5 -77.5t-89.5 -25.5zM417 93q1 -32 25 -51.5t67 -19.5q18 0 35.5 4t30.5 13t21 24t8 37q0 35 -26 54t-64 19q-18 0 -35.5 -4.5t-31 -14t-22 -25t-8.5 -36.5zM454 257q0 -29 23.5 -45t55.5 -16
q30 0 55 16t25 50q0 30 -22.5 46t-54.5 16t-57 -16t-25 -51z" />
    <glyph glyph-name="threeeighths" unicode="&#x215c;" horiz-adv-x="745" 
d="M188 367q-25 0 -47 6.5t-38.5 19t-27 31.5t-11.5 45h29q3 -35 28 -56t67 -21q36 0 63 19t27 61q0 28 -18.5 47.5t-54.5 19.5h-24l4 24h28q31 0 53 16.5t22 51.5q0 31 -20 47.5t-52 16.5q-38 0 -61.5 -20.5t-31.5 -52.5h-28q8 43 40.5 69.5t80.5 26.5q20 0 38.5 -5
t32.5 -15.5t22.5 -27t8.5 -38.5q0 -31 -18 -52.5t-50 -29.5q26 -7 42.5 -27t16.5 -52q0 -25 -10 -44t-26.5 -32.5t-38.5 -20.5t-46 -7zM663 715h33l-590 -715h-33zM556 -3q-24 0 -45.5 6t-38.5 18t-27 29.5t-10 40.5q0 41 25.5 64.5t67.5 31.5q-23 8 -39.5 26t-16.5 44
q0 22 9.5 39t25 28.5t36 17.5t42.5 6q19 0 38 -5.5t34 -16t24 -26.5t9 -37q0 -32 -20.5 -52.5t-53.5 -27.5q29 -10 47.5 -30t18.5 -53q0 -52 -36.5 -77.5t-89.5 -25.5zM465 93q1 -32 25 -51.5t67 -19.5q18 0 35.5 4t30.5 13t21 24t8 37q0 35 -26 54t-64 19q-18 0 -35.5 -4.5
t-31 -14t-22 -25t-8.5 -36.5zM502 257q0 -29 23.5 -45t55.5 -16q30 0 55 16t25 50q0 30 -22.5 46t-54.5 16t-57 -16t-25 -51z" />
    <glyph glyph-name="fiveeighths" unicode="&#x215d;" horiz-adv-x="736" 
d="M171 367q-42 0 -75 22.5t-36 70.5h29q3 -32 25 -50t57 -18q43 0 69 27t26 75q0 34 -21.5 56t-57.5 22q-29 0 -49.5 -11t-34.5 -27h-15l30 181h192l-4 -25h-167l-20 -122q13 11 32.5 19.5t43.5 8.5q43 0 72.5 -27t29.5 -74q-1 -57 -35 -92t-91 -36zM650 715h33l-590 -715
h-33zM546 -3q-24 0 -45.5 6t-38.5 18t-27 29.5t-10 40.5q0 41 25.5 64.5t67.5 31.5q-23 8 -39.5 26t-16.5 44q0 22 9.5 39t25 28.5t36 17.5t42.5 6q19 0 38 -5.5t34 -16t24 -26.5t9 -37q0 -32 -20.5 -52.5t-53.5 -27.5q29 -10 47.5 -30t18.5 -53q0 -52 -36.5 -77.5
t-89.5 -25.5zM455 93q1 -32 25 -51.5t67 -19.5q18 0 35.5 4t30.5 13t21 24t8 37q0 35 -26 54t-64 19q-18 0 -35.5 -4.5t-31 -14t-22 -25t-8.5 -36.5zM492 257q0 -29 23.5 -45t55.5 -16q30 0 55 16t25 50q0 30 -22.5 46t-54.5 16t-57 -16t-25 -51z" />
    <glyph glyph-name="seveneighths" unicode="&#x215e;" horiz-adv-x="692" 
d="M280 689h-196l5 26h236l-1 -5l-195 -339h-34zM591 715h33l-590 -715h-33zM503 -3q-24 0 -45.5 6t-38.5 18t-27 29.5t-10 40.5q0 41 25.5 64.5t67.5 31.5q-23 8 -39.5 26t-16.5 44q0 22 9.5 39t25 28.5t36 17.5t42.5 6q19 0 38 -5.5t34 -16t24 -26.5t9 -37
q0 -32 -20.5 -52.5t-53.5 -27.5q29 -10 47.5 -30t18.5 -53q0 -52 -36.5 -77.5t-89.5 -25.5zM412 93q1 -32 25 -51.5t67 -19.5q18 0 35.5 4t30.5 13t21 24t8 37q0 35 -26 54t-64 19q-18 0 -35.5 -4.5t-31 -14t-22 -25t-8.5 -36.5zM449 257q0 -29 23.5 -45t55.5 -16
q30 0 55 16t25 50q0 30 -22.5 46t-54.5 16t-57 -16t-25 -51z" />
    <glyph glyph-name="minus" unicode="&#x2212;" horiz-adv-x="505" 
d="M51 357h431l-5 -30h-431z" />
    <glyph glyph-name="approxequal" unicode="&#x2248;" horiz-adv-x="493" 
d="M54 349q8 41 34.5 66.5t68.5 25.5q29 0 57.5 -9.5t56 -20.5t54 -20.5t52.5 -9.5q31 0 49.5 18.5t23.5 43.5h30q-8 -41 -34.5 -66.5t-68.5 -25.5q-29 0 -57.5 9.5t-56 20.5t-54.5 20.5t-53 9.5q-31 0 -49 -18.5t-23 -43.5h-30zM28 189q8 40 34.5 66t68.5 26
q29 0 57.5 -9.5t56 -20.5t54 -20.5t52.5 -9.5q31 0 49.5 18.5t23.5 43.5h30q-8 -42 -34.5 -67t-68.5 -25q-29 0 -57.5 9t-56 20.5t-54.5 20.5t-53 9q-31 0 -49 -18.5t-23 -42.5h-30z" />
    <glyph glyph-name="notequal" unicode="&#x2260;" horiz-adv-x="484" 
d="M63 413h224l72 125h34l-72 -125h146l-5 -30h-158l-73 -129h211l-5 -30h-223l-72 -126h-34l72 126h-147l5 30h159l73 129h-212z" />
    <glyph glyph-name="lessequal" unicode="&#x2264;" horiz-adv-x="491" 
d="M58 326l1 10l416 194l-5 -35l-360 -166l305 -180l-6 -33zM12 30h384l-5 -30h-384z" />
    <glyph glyph-name="greaterequal" unicode="&#x2265;" horiz-adv-x="491" 
d="M22 30h383l-5 -30h-383zM452 320l-2 -9l-416 -195l6 35l359 167l-304 180l5 32z" />
    <glyph glyph-name="uni24C5" unicode="&#x24c5;" horiz-adv-x="844" 
d="M327 568h113q65 0 104 -28t39 -91v-2q0 -64 -39.5 -91.5t-103.5 -27.5h-80v-178h-33v418zM440 354q51 0 80.5 21.5t29.5 71.5v2q0 50 -29.5 71t-80.5 21h-80v-187h80zM433 -9q-76 0 -143 28t-116.5 77.5t-78 116t-28.5 144.5q0 76 28.5 143t78 117t117 78.5t144.5 28.5
q78 0 145 -28.5t116 -78t77 -116t28 -142.5q0 -78 -28.5 -145.5t-78 -117t-117 -77.5t-144.5 -28zM433 17q70 0 132 26t108 71.5t72.5 108t26.5 136.5q0 72 -26 134t-71 107.5t-106.5 71.5t-133.5 26q-71 0 -133 -26t-107.5 -72t-72 -108.5t-26.5 -134.5q0 -73 26.5 -135.5
t72.5 -108t107.5 -71t130.5 -25.5z" />
    <glyph glyph-name="f_i" unicode="&#xfb01;" horiz-adv-x="515" 
d="M64 523h82l16 98q7 45 22 74.5t36 47.5t46.5 25.5t53.5 7.5q17 0 31 -2.5t25 -5.5l-4 -29q-24 8 -51 8q-23 0 -42.5 -5.5t-36 -20t-28.5 -39.5t-18 -63l-15 -96h156l-5 -29h-156l-78 -494h-34l78 494h-83zM476 637q-11 0 -18.5 8t-7.5 19t8 18.5t19 7.5t18.5 -7.5
t7.5 -18.5t-8 -19t-19 -8zM438 523h35l-83 -523h-34z" />
    <glyph glyph-name="f_l" unicode="&#xfb02;" horiz-adv-x="516" 
d="M64 523h82l16 98q7 45 22 74.5t36 47.5t46.5 25.5t53.5 7.5q17 0 31 -2.5t25 -5.5l-4 -29q-24 8 -51 8q-23 0 -42.5 -5.5t-36 -20t-28.5 -39.5t-18 -63l-15 -96h156l-5 -29h-156l-78 -494h-34l78 494h-83zM478 773h35l-122 -773h-35z" />
    <glyph glyph-name="space_uni0326" horiz-adv-x="400" 
d="M83 -183l68 139l34 -10l-79 -141z" />
    <glyph glyph-name="caron.alt" horiz-adv-x="292" 
d="M213 773h37l-49 -154h-27z" />
    <glyph glyph-name="space_uni0326.alt" horiz-adv-x="400" 
d="M335 749l-68 -139l-34 10l79 141z" />
    <glyph glyph-name="grave.uc" horiz-adv-x="400" 
d="M201 891h41l55 -120h-28z" />
    <glyph glyph-name="dieresis.uc" horiz-adv-x="400" 
d="M203 788q-11 0 -18.5 7t-7.5 18t8 19t19 8t18 -7.5t7 -18.5t-7.5 -18.5t-18.5 -7.5zM370 788q-11 0 -18.5 7t-7.5 18t7.5 19t18.5 8t18.5 -7.5t7.5 -18.5t-7.5 -18.5t-18.5 -7.5z" />
    <glyph glyph-name="macron.uc" horiz-adv-x="400" 
d="M170 823h236l-4 -29h-236z" />
    <glyph glyph-name="acute.uc" horiz-adv-x="400" 
d="M340 891h43l-90 -120h-31z" />
    <glyph glyph-name="circumflex.uc" horiz-adv-x="400" 
d="M279 891h33l96 -120h-29l-86 91l-109 -91h-32z" />
    <glyph glyph-name="caron.uc" horiz-adv-x="400" 
d="M297 771h-34l-95 120h29l86 -91l109 91h31z" />
    <glyph glyph-name="breve.uc" horiz-adv-x="400" 
d="M290 773q-51 0 -82.5 33t-32.5 84h30q2 -39 24.5 -63.5t61.5 -24.5q38 0 66 24t36 64h29q-3 -26 -15 -47.5t-30 -37t-40.5 -24t-46.5 -8.5z" />
    <glyph glyph-name="dotaccent.uc" horiz-adv-x="400" 
d="M286 787q-11 0 -18.5 7.5t-7.5 18.5t8 19t19 8t18.5 -7.5t7.5 -18.5t-8 -19t-19 -8z" />
    <glyph glyph-name="ring.uc" horiz-adv-x="400" 
d="M290 774q29 0 48.5 19.5t19.5 50.5q0 29 -18 47t-47 18t-48.5 -19.5t-19.5 -50.5q0 -27 18 -46t47 -19zM290 752q-20 0 -36.5 7t-28.5 19t-19 27.5t-7 33.5q0 19 7.5 36t20.5 29.5t30 20t36 7.5q40 0 65.5 -26t25.5 -62q0 -39 -27 -65.5t-67 -26.5z" />
    <glyph glyph-name="tilde.uc" horiz-adv-x="400" 
d="M357 774q-19 0 -36 9t-33 20.5t-31 20.5t-30 9q-17 0 -33 -14.5t-22 -44.5h-28q9 45 31.5 67t52.5 22q18 0 35 -9t33 -20.5t31.5 -20.5t30.5 -9q17 0 32.5 14.5t22.5 43.5h27q-8 -44 -31 -66t-52 -22z" />
    <glyph glyph-name="hungarumlaut.uc" horiz-adv-x="400" 
d="M262 891h39l-70 -120h-28zM380 891h39l-70 -120h-28z" />
    <glyph glyph-name="idotaccent" horiz-adv-x="200" 
d="M161 637q-11 0 -18.5 8t-7.5 19t8 18.5t19 7.5t18.5 -7.5t7.5 -18.5t-8 -19t-19 -8zM123 523h35l-83 -523h-34z" />
    <glyph glyph-name="registered.alt" horiz-adv-x="844" 
d="M316 572h113q64 0 103.5 -26t39.5 -86v-2q0 -52 -29.5 -77.5t-77.5 -31.5l132 -195h-36l-130 191h-83v-191h-32v418zM429 371q52 0 81 19t29 67v3q0 49 -29.5 67t-80.5 18h-81v-174h81zM433 -9q-76 0 -143 28t-116.5 77.5t-78 116t-28.5 144.5q0 76 28.5 143t78 117
t117 78.5t144.5 28.5q78 0 145 -28.5t116 -78t77 -116t28 -142.5q0 -78 -28.5 -145.5t-78 -117t-117 -77.5t-144.5 -28zM433 17q70 0 132 26t108 71.5t72.5 108t26.5 136.5q0 72 -26 134t-71 107.5t-106.5 71.5t-133.5 26q-71 0 -133 -26t-107.5 -72t-72 -108.5
t-26.5 -134.5q0 -73 26.5 -135.5t72.5 -108t107.5 -71t130.5 -25.5z" />
    <glyph glyph-name="dollar.old" horiz-adv-x="575" 
d="M258 -7l-19 -124h-30l20 127q-88 10 -142 58.5t-59 136.5h35q6 -72 49.5 -114.5t120.5 -51.5l51 324q-93 26 -136 65t-43 103q0 43 17 77.5t47 57.5t70.5 35.5t88.5 12.5h12l14 89h30l-15 -92q74 -8 120.5 -48t52.5 -112h-33q-8 60 -45.5 91.5t-98.5 39.5l-47 -295
q49 -14 85 -29t60 -35.5t35.5 -47.5t11.5 -64q0 -48 -17.5 -86t-49 -64.5t-74.5 -40t-95 -13.5h-16zM475 195q0 30 -9 52t-28.5 39t-50.5 30t-74 25l-50 -318h11q45 0 82 11t63.5 33t41 54t14.5 74zM140 518q0 -50 33.5 -81t115.5 -56l46 290h-9q-41 0 -75.5 -9.5t-59 -29
t-38 -48t-13.5 -66.5z" />
    <glyph glyph-name="Euro.old" horiz-adv-x="641" 
d="M56 428h65q24 128 93.5 200t183.5 72q94 0 148.5 -48.5t58.5 -144.5h-33q-5 78 -49 121t-126 43q-100 0 -159 -62.5t-82 -180.5h251l-8 -28h-248l-17 -106h228l-8 -28h-224q-5 -48 2 -91.5t29.5 -77.5t62 -54t99.5 -20q83 0 138 46t77 134h32q-11 -52 -33.5 -91
t-55 -65.5t-73 -40t-86.5 -13.5q-65 0 -111 21t-73.5 58t-38 87t-4.5 107h-64l5 28h63l17 106h-65z" />
    <glyph glyph-name="sterling.old" horiz-adv-x="580" 
d="M64 353h74q-4 27 -6.5 54t-2.5 56q0 51 14.5 94.5t43 75t71 49.5t98.5 18q94 0 141 -47.5t49 -125.5h-35q-3 64 -40 103.5t-116 39.5q-47 0 -83 -15t-60 -42.5t-36 -65.5t-12 -84q0 -29 2.5 -56t5.5 -54h231l-4 -28h-224q2 -17 3 -34t1 -35q0 -53 -9.5 -89.5t-31.5 -68.5
q29 -3 57.5 -15t57.5 -25t58 -23.5t59 -10.5q43 0 74 27.5t39 84.5h33q-9 -69 -49.5 -106t-97.5 -37q-35 0 -67.5 12t-63.5 26t-59.5 26t-55.5 12q-34 0 -56.5 -19t-30.5 -50h-32q7 34 32.5 61.5t64.5 35.5q24 32 34.5 69t10.5 88q0 17 -1.5 35t-3.5 36h-82z" />
    <glyph glyph-name="yen.old" horiz-adv-x="521" 
d="M72 337h175l-155 357h36l147 -340l241 340h36l-254 -357h174l-5 -28h-181l-17 -104h181l-4 -28h-181l-28 -177h-35l28 177h-184l5 28h183l16 104h-183z" />
    <glyph glyph-name="zero.old" horiz-adv-x="615" 
d="M88 302q-2 -16 -3.5 -32t-1.5 -31q0 -45 12 -84.5t37 -69t64 -46.5t93 -17q99 0 162 65t82 188l7 43q2 15 3.5 30.5t1.5 29.5q0 46 -12 86.5t-37 69.5t-63.5 46t-90.5 17q-94 0 -160.5 -63.5t-86.5 -188.5zM288 -8q-61 0 -106 19t-75 52.5t-44.5 79t-14.5 97.5
q0 15 1.5 31t3.5 33l7 43q11 68 36.5 120t62.5 87.5t84 53.5t100 18q61 0 105.5 -19.5t74 -53.5t43.5 -79t14 -97q0 -14 -1.5 -29.5t-3.5 -31.5l-7 -43q-21 -134 -93 -207.5t-187 -73.5z" />
    <glyph glyph-name="one.old" horiz-adv-x="345" 
d="M238 576l-182 -112l5 35l193 119h25l-97 -618h-35z" />
    <glyph glyph-name="two.old" horiz-adv-x="518" 
d="M-19 9l291 221q28 21 59.5 45.5t57.5 53.5t43 63t17 74q0 33 -11.5 58t-32 41t-48 24t-58.5 8q-70 0 -123 -42t-72 -127h-33q9 48 30 85t51.5 62t68.5 38t79 13q37 0 70.5 -9.5t59 -29t40.5 -49.5t15 -71q0 -45 -18 -81.5t-45.5 -67t-62.5 -57.5t-69 -53l-235 -178h381
l-4 -30h-452z" />
    <glyph glyph-name="three.old" horiz-adv-x="548" 
d="M241 -103q-50 0 -92 13.5t-73.5 39.5t-49.5 64t-19 86h34q2 -80 55 -127t146 -47q43 0 79.5 11.5t63 35t41 58.5t14.5 82q0 31 -10 58.5t-29.5 48.5t-50 33t-70.5 12h-49l5 30h52q81 0 127 41.5t46 120.5q0 61 -40.5 100.5t-114.5 39.5q-76 0 -125 -42.5t-66 -117.5h-32
q7 42 26.5 77t49 60t67.5 38.5t82 13.5q43 0 77.5 -12.5t59 -34.5t37.5 -53t13 -68q0 -72 -37.5 -118.5t-103.5 -60.5q55 -14 88 -57t33 -108q0 -53 -17.5 -93t-49 -68t-74 -42t-93.5 -14z" />
    <glyph glyph-name="four.old" horiz-adv-x="581" 
d="M375 71h-378l1 11l444 536h53l-81 -517h99l-5 -30h-98l-28 -168h-35zM379 101l78 491l-406 -491h328z" />
    <glyph glyph-name="five.old" horiz-adv-x="538" 
d="M35 78q6 -72 54.5 -112t128.5 -40q50 0 90 18t68 49t43 73.5t15 92.5q0 36 -11 67t-32 54t-51.5 36t-69.5 13q-32 0 -59 -6.5t-49.5 -18t-41.5 -26.5t-35 -32h-13l59 372h377l-6 -30h-346l-47 -295q26 26 69 45.5t98 19.5q44 0 79.5 -15t61 -41t39 -62t13.5 -79
q0 -55 -17.5 -103t-50.5 -84t-79.5 -56.5t-104.5 -20.5q-44 0 -81.5 11.5t-66.5 34.5t-46.5 57t-20.5 78h33z" />
    <glyph glyph-name="six.old" horiz-adv-x="567" 
d="M271 -8q-54 0 -95 15.5t-68.5 44t-41.5 68.5t-14 88q0 20 2 40.5t5 39.5l15 97q15 92 42 156.5t64.5 104.5t84 58t98.5 18q79 0 126 -38t54 -113h-34q-7 58 -43 90t-105 32q-45 0 -84.5 -16t-72 -52t-57 -94t-38.5 -143l-11 -69q16 30 39.5 52.5t51.5 36.5t58.5 21
t60.5 7q46 0 84 -13t65 -38t42 -61t15 -82q0 -54 -17.5 -99.5t-49.5 -79t-77 -52.5t-99 -19zM87 202q0 -82 48 -131.5t137 -49.5q47 0 85.5 16.5t65.5 46t41.5 69.5t14.5 88q0 76 -45 121.5t-132 45.5q-44 0 -83 -14.5t-68 -41.5t-46.5 -65t-17.5 -85z" />
    <glyph glyph-name="seven.old" horiz-adv-x="483" 
d="M471 589h-395l5 29h439l-1 -7l-404 -708h-37z" />
    <glyph glyph-name="eight.old" horiz-adv-x="558" 
d="M259 -7q-47 0 -88.5 12.5t-72 36.5t-48 59t-17.5 79t16 79.5t43 62t62.5 42.5t75.5 21q-48 16 -80.5 54t-32.5 94q0 43 17.5 78t46.5 60t68 38t82 13q38 0 72.5 -12t60.5 -33.5t41.5 -53t15.5 -70.5q0 -37 -12 -66.5t-33 -51.5t-49.5 -36t-62.5 -20q30 -8 55 -23.5
t43.5 -37t29 -49t10.5 -58.5q0 -52 -19.5 -92.5t-52.5 -68.5t-77 -42.5t-94 -14.5zM68 182q0 -36 14 -65.5t39 -50.5t60.5 -32t79.5 -11q42 0 79.5 12t65.5 35.5t44.5 58.5t16.5 81q0 34 -13.5 63t-38 50t-59 32.5t-76.5 11.5t-80.5 -12.5t-67.5 -36t-46.5 -58t-17.5 -78.5z
M152 532q0 -29 11.5 -54t32.5 -43.5t50.5 -29t66.5 -10.5q34 0 65.5 10t55.5 30t38 49.5t14 68.5q0 30 -11.5 56t-32.5 44.5t-49.5 29t-62.5 10.5q-36 0 -68.5 -11t-57 -31.5t-38.5 -50.5t-14 -68z" />
    <glyph glyph-name="nine.old" horiz-adv-x="567" 
d="M310 626q53 0 94 -16t68.5 -44.5t41.5 -68t14 -87.5q0 -39 -6 -78l-17 -108q-15 -93 -42 -156t-63.5 -101t-81.5 -54.5t-96 -16.5q-85 0 -134 41.5t-57 121.5h34q8 -64 46.5 -98.5t111.5 -34.5q44 0 83 14.5t70.5 48.5t55 90.5t37.5 140.5l13 80q-16 -31 -39.5 -53
t-51 -36.5t-58.5 -21.5t-62 -7q-46 0 -83.5 13.5t-64.5 38.5t-42 61t-15 81q0 54 17.5 99.5t50 79t77.5 52.5t99 19zM494 418q0 81 -48 130t-137 49q-47 0 -85.5 -16.5t-65.5 -45.5t-42 -69.5t-15 -88.5q0 -75 45.5 -120.5t130.5 -45.5q44 0 83.5 14.5t69 41.5t47 65.5
t17.5 85.5z" />
    <glyph glyph-name="dollar.tab" 
d="M288 -7q-5 0 -8.5 0.5t-8.5 0.5l-20 -129h-29l20 131q-90 10 -145 60t-60 141h34q7 -75 51.5 -119t124.5 -53l53 335q-96 28 -140.5 67t-44.5 106q0 45 17.5 80t48 59t72.5 37t91 13h13l15 91h29l-15 -93q76 -9 124 -51t54 -116h-33q-9 62 -48 95t-102 41l-48 -305
q50 -14 87 -29.5t62 -36t37 -48t12 -66.5q0 -50 -18 -89t-50.5 -66t-77 -41.5t-97.5 -14.5zM495 202q0 31 -9.5 53.5t-29.5 40t-51.5 30.5t-76.5 26l-52 -329h12q46 0 84 11.5t65.5 34.5t42.5 56t15 77zM149 534q0 -26 8.5 -46.5t27 -37.5t48 -31.5t72.5 -27.5l48 301h-11
q-43 0 -78.5 -10t-61 -30t-39.5 -49.5t-14 -68.5z" />
    <glyph glyph-name="Euro.tab" 
d="M61 441h61q23 139 89 209.5t171 71.5q91 1 141.5 -48t52.5 -146h-34q-3 81 -41.5 123t-118.5 41q-181 -1 -224 -251h234l-10 -28h-228l-18 -110h208l-9 -28h-203q-6 -49 -3 -94.5t22 -80t56.5 -55.5t100.5 -21q81 0 131.5 43.5t75.5 135.5h33q-26 -110 -88 -160t-152 -50
q-69 0 -113.5 22t-69 60.5t-31 89.5t1.5 110h-61l5 28h60l17 110h-61z" />
    <glyph glyph-name="sterling.tab" 
d="M71 363h77q-4 28 -6.5 56.5t-2.5 57.5q0 52 14 97t42.5 78t72 51.5t101.5 18.5q96 0 144 -49.5t50 -129.5h-35q-3 65 -41.5 106.5t-118.5 41.5q-49 0 -85.5 -15.5t-60.5 -44t-35.5 -68t-11.5 -86.5q0 -29 2.5 -57t5.5 -57h238l-5 -29h-230q2 -17 3 -34.5t1 -36.5
q0 -54 -10 -91.5t-33 -70.5q30 -3 58.5 -15.5t57.5 -26t58.5 -24.5t60.5 -11q44 0 76 29t40 87h33q-9 -71 -50.5 -109t-99.5 -38q-36 0 -69 12.5t-64 27t-59.5 27t-56.5 12.5q-35 0 -58 -20t-31 -52h-33q8 35 33.5 64t66.5 36q24 33 35 71.5t11 89.5q0 18 -1.5 36.5
t-3.5 36.5h-85z" />
    <glyph glyph-name="yen.tab" 
d="M113 347h181l-158 368h38l148 -350l247 350h37l-261 -368h180l-5 -29h-188l-16 -107h187l-5 -29h-187l-28 -182h-35l28 182h-190l5 29h190l16 107h-189z" />
    <glyph glyph-name="zero.tab" 
d="M98 294q-6 -39 -6 -76q0 -42 11 -77.5t33.5 -61.5t57.5 -40.5t84 -14.5q192 0 229 243l25 154q3 17 4 33.5t1 33.5q0 42 -10.5 79.5t-32.5 65t-57.5 43.5t-84.5 16q-94 0 -152.5 -63t-76.5 -181zM278 -7q-57 0 -98.5 17t-68.5 47t-40.5 71.5t-13.5 89.5q0 38 6 79l25 153
q21 134 90 203t175 69q57 0 98.5 -18t68.5 -49.5t39.5 -74t12.5 -91.5q0 -18 -1.5 -35.5t-3.5 -35.5l-25 -153q-44 -272 -264 -272z" />
    <glyph glyph-name="one.tab" 
d="M405 671l-265 -185l5 36l274 193h28l-113 -715h-35z" />
    <glyph glyph-name="two.tab" 
d="M13 9l342 288q33 28 61 56t49 58t32.5 63t11.5 72q0 66 -40 106t-113 40q-35 0 -67 -10t-58 -31t-46 -54.5t-31 -81.5h-34q10 53 32.5 92t54 64.5t70 38t80.5 12.5t77 -12.5t59.5 -35.5t38 -55t13.5 -72q0 -44 -13 -80.5t-35.5 -68.5t-53 -61.5t-65.5 -58.5l-295 -247
h399l-5 -31h-465z" />
    <glyph glyph-name="three.tab" 
d="M275 -7q-49 0 -90 13.5t-70.5 39.5t-46.5 64t-17 86h35q2 -81 51.5 -126.5t138.5 -45.5q42 0 78.5 11.5t64 35t43.5 59.5t16 85q0 29 -9 55t-28 46t-49 31.5t-71 11.5h-44l6 31h51q35 0 66 9.5t54 30t36.5 51t13.5 72.5q0 63 -40 100.5t-110 37.5q-72 0 -123.5 -41.5
t-68.5 -116.5h-33q8 43 29 78t51 60t67.5 38t79.5 13q38 0 71.5 -11t58 -32t39 -52.5t14.5 -72.5q0 -70 -37.5 -117.5t-106.5 -62.5q54 -14 86 -56t32 -104q0 -54 -19 -95t-51 -69t-75.5 -42.5t-92.5 -14.5z" />
    <glyph glyph-name="four.tab" 
d="M395 167h-365l2 11l431 537h54l-81 -517h95l-5 -31h-96l-26 -167h-35zM400 198l77 490l-391 -490h314z" />
    <glyph glyph-name="five.tab" 
d="M265 -7q-46 0 -84.5 12.5t-67 36.5t-45.5 58.5t-20 77.5h35q6 -69 53.5 -111.5t128.5 -42.5q52 0 92 17.5t67.5 48.5t42 74t14.5 94q0 37 -11.5 68.5t-33.5 54.5t-53.5 36t-70.5 13q-64 0 -107.5 -24t-76.5 -59h-14l59 368h383l-6 -31h-351l-45 -287q24 24 67 44t99 20
q44 0 80 -15t62 -41.5t40.5 -63.5t14.5 -82q0 -57 -17 -105.5t-49.5 -84t-79.5 -56t-106 -20.5z" />
    <glyph glyph-name="six.tab" 
d="M289 -7q-106 0 -164.5 58t-58.5 170q0 24 3 47.5t6 45.5l11 64q28 179 103.5 261.5t192.5 82.5q84 0 134 -39.5t55 -116.5h-34q-12 125 -156 125q-51 0 -92.5 -17.5t-74.5 -55t-56.5 -96.5t-36.5 -143l-9 -56q32 63 90.5 94.5t123.5 31.5q45 0 84 -12.5t68 -37.5
t45.5 -61t16.5 -84q0 -56 -18 -103.5t-50.5 -82.5t-79 -55t-103.5 -20zM102 206q0 -83 48.5 -133t138.5 -50q50 0 90 17.5t68 48.5t43 73t15 91q0 39 -13.5 70t-38 52.5t-58.5 32.5t-75 11q-45 0 -84.5 -15t-69 -43t-47 -67t-17.5 -88z" />
    <glyph glyph-name="seven.tab" 
d="M531 685h-403l5 30h451l-2 -7l-399 -708h-38z" />
    <glyph glyph-name="eight.tab" 
d="M285 -7q-43 0 -84 11.5t-73.5 35t-52 59t-19.5 83.5q0 46 15 81.5t42 61.5t63.5 42.5t79.5 22.5q-49 14 -83 52.5t-34 98.5q0 42 18 76t47.5 57t68 35.5t80.5 12.5q38 0 73 -12t61.5 -34t42 -53t15.5 -70q0 -77 -43 -118t-115 -53q62 -17 101.5 -61.5t39.5 -112.5
q0 -55 -20 -95.5t-53.5 -67t-77.5 -39.5t-92 -13zM92 185q0 -41 16 -71t43 -50t62 -30t74 -10q42 0 79.5 11t65 34t44 57.5t16.5 81.5q0 36 -13.5 66t-38.5 51t-59 33t-76 12t-80.5 -11t-68 -34t-47 -58t-17.5 -82zM174 542q0 -30 11.5 -56t33 -45t52 -30t68.5 -11
q33 0 64 8.5t55 27t38 47t14 69.5q0 31 -12 57t-33.5 44.5t-50.5 28.5t-63 10q-33 0 -65 -9.5t-56.5 -28t-40 -47t-15.5 -65.5z" />
    <glyph glyph-name="nine.tab" 
d="M255 -7q-83 0 -138 40.5t-64 122.5h35q9 -68 52.5 -100t115.5 -32q49 0 89.5 15.5t72 51.5t54.5 95.5t37 148.5l9 56q-16 -31 -39.5 -54.5t-51 -39t-59 -23.5t-63.5 -8q-44 0 -83 12.5t-68.5 37.5t-46.5 62t-17 86q0 56 18 103.5t51.5 82t80.5 53.5t104 19q50 0 91 -15
t69.5 -43.5t43.5 -70.5t15 -97q0 -24 -2.5 -48t-6.5 -46l-10 -68q-16 -98 -42 -163.5t-62.5 -105t-82.5 -56t-102 -16.5zM126 465q0 -41 13.5 -72.5t37.5 -53t57.5 -33t73.5 -11.5q45 0 85 15.5t70 43.5t47.5 67.5t17.5 87.5q0 82 -47.5 132.5t-137.5 50.5q-50 0 -90.5 -17
t-68.5 -47.5t-43 -72t-15 -90.5z" />
    <glyph glyph-name="cent.tab" 
d="M285 -7l-20 -128h-30l21 132q-88 13 -137.5 75.5t-49.5 157.5q0 64 20.5 119t56.5 95.5t85.5 63t108.5 22.5l16 99h30l-16 -101q72 -8 118 -52.5t50 -116.5h-33q-3 58 -41 95.5t-99 44.5l-75 -477h10q72 0 124 38t72 114h33q-11 -45 -32.5 -79t-51.5 -56.5t-67 -34
t-79 -11.5h-14zM104 230q0 -86 42 -139.5t114 -65.5l76 476q-53 0 -95.5 -21t-73 -57.5t-47 -86t-16.5 -106.5z" />
    <glyph glyph-name="percent.tab" horiz-adv-x="800" 
d="M130 548q1 -48 29.5 -80.5t79.5 -32.5q58 0 94 39t35 102q0 23 -7.5 44t-21.5 37t-34.5 25.5t-46.5 9.5q-29 0 -52.5 -11.5t-40.5 -31t-26 -45.5t-9 -56zM239 407q-31 0 -57 10.5t-44.5 29.5t-29 45t-10.5 57q0 34 12 65.5t33.5 54.5t51 37t64.5 14q30 0 56 -11t45 -30.5
t30 -45.5t11 -57q0 -37 -12.5 -68t-34.5 -53.5t-51.5 -35t-63.5 -12.5zM686 715h36l-579 -715h-36zM460 135q1 -48 29.5 -80.5t79.5 -32.5q28 0 52 10.5t41.5 29.5t26.5 45t9 57q0 23 -7.5 44t-21.5 36.5t-34.5 25t-46.5 9.5q-29 0 -53 -11.5t-40.5 -31t-25.5 -45.5t-9 -56z
M569 -6q-31 0 -57 10.5t-45 29.5t-29.5 45t-10.5 57q0 34 12 65.5t33.5 54.5t51.5 37t65 14q30 0 56 -11t45 -30.5t29.5 -45.5t10.5 -57q0 -37 -12.5 -68t-34.5 -53.5t-51 -35t-63 -12.5z" />
    <glyph glyph-name="perthousand.tab" horiz-adv-x="1000" 
d="M126 554q1 -45 27.5 -73.5t71.5 -28.5q27 0 49 11t37.5 29.5t23.5 43.5t8 53q-1 45 -26 75t-72 30q-27 0 -49 -11.5t-37.5 -31t-24 -45t-8.5 -52.5zM224 424q-56 0 -93 35.5t-37 95.5q0 33 11 63t30.5 53.5t47.5 37t63 13.5q27 0 51 -9.5t41 -27t27 -42t10 -54.5
q0 -35 -11 -65t-31 -52t-48 -35t-61 -13zM620 715h36l-580 -715h-35zM353 124q1 -45 27.5 -73.5t71.5 -28.5q28 0 50 11t37 29.5t23 43.5t8 53q0 45 -25.5 75t-71.5 30q-28 0 -50 -11.5t-37.5 -31t-24 -45t-8.5 -52.5zM452 -6q-28 0 -52 9.5t-41.5 26.5t-27 41t-9.5 54
q0 33 11 63t30.5 53.5t47.5 37t62 13.5q27 0 51 -9.5t41 -27t27 -42t10 -54.5q0 -35 -11 -65t-30.5 -52t-47.5 -35t-61 -13zM685 124q1 -45 27.5 -73.5t71.5 -28.5q27 0 49 11t37.5 29.5t23.5 43.5t8 53q-1 45 -26 75t-72 30q-27 0 -49 -11.5t-37.5 -31t-24 -45t-8.5 -52.5z
M783 -6q-56 0 -93 35.5t-37 95.5q0 33 11 63t30.5 53.5t47.5 37t63 13.5q27 0 51 -9.5t41 -27t27 -42t10 -54.5q0 -35 -11 -65t-31 -52t-48 -35t-61 -13z" />
    <glyph glyph-name="plus.tab" 
d="M293 327h-199l5 30h199l35 215h31l-34 -215h200l-5 -30h-200l-33 -214h-32z" />
    <glyph glyph-name="minus.tab" 
d="M99 357h431l-5 -30h-431z" />
    <glyph glyph-name="multiply.tab" 
d="M97 172l185 165l-142 164l22 21l143 -165l185 165l20 -23l-186 -164l144 -165l-22 -20l-144 165l-186 -165z" />
    <glyph glyph-name="divide.tab" 
d="M99 357h431l-5 -30h-431zM289 143q-12 0 -20.5 8.5t-8.5 20.5t8.5 20.5t20.5 8.5t20.5 -8.5t8.5 -20.5t-8.5 -20.5t-20.5 -8.5zM335 484q-12 0 -20 8.5t-8 19.5q0 12 8 20.5t20 8.5q13 0 21 -8.5t8 -20.5q0 -11 -8 -19.5t-21 -8.5z" />
    <glyph glyph-name="equal.tab" 
d="M96 254h404l-5 -30h-404zM121 413h404l-5 -30h-404z" />
    <glyph glyph-name="less.tab" 
d="M112 324l1 9l417 197l-5 -34l-362 -170l306 -183l-6 -33z" />
    <glyph glyph-name="greater.tab" 
d="M506 317l-1 -10l-417 -197l5 35l362 170l-306 183l6 32z" />
    <glyph glyph-name="florin.tab" 
d="M132 397h121l30 153q9 48 27.5 81.5t42.5 54t52 29.5t58 9q35 0 57 -6t34 -12l-4 -28q-14 6 -34.5 11.5t-52.5 5.5q-23 0 -46 -7.5t-42.5 -24.5t-34.5 -45t-23 -69l-30 -152h188l-4 -29h-189l-107 -550h-34l106 550h-119z" />
    <glyph glyph-name="plusminus.tab" 
d="M294 332h-200l5 30h200l34 210h31l-33 -210h200l-5 -30h-200l-33 -209h-32zM47 30h431l-5 -30h-431z" />
    <glyph glyph-name="notequal.tab" 
d="M121 413h224l72 125h34l-72 -125h146l-5 -30h-158l-73 -129h211l-5 -30h-223l-72 -126h-34l72 126h-147l5 30h159l73 129h-212z" />
    <glyph glyph-name="approxequal.tab" 
d="M109 349q8 41 34.5 66.5t68.5 25.5q29 0 57.5 -9.5t56 -20.5t54 -20.5t52.5 -9.5q31 0 49.5 18.5t23.5 43.5h30q-8 -41 -34.5 -66.5t-68.5 -25.5q-29 0 -57.5 9.5t-56 20.5t-54.5 20.5t-53 9.5q-31 0 -49 -18.5t-23 -43.5h-30zM83 189q8 40 34.5 66t68.5 26
q29 0 57.5 -9.5t56 -20.5t54 -20.5t52.5 -9.5q31 0 49.5 18.5t23.5 43.5h30q-8 -42 -34.5 -67t-68.5 -25q-29 0 -57.5 9t-56 20.5t-54.5 20.5t-53 9q-31 0 -49 -18.5t-23 -42.5h-30z" />
    <glyph glyph-name="lessequal.tab" 
d="M112 326l2 10l416 194l-6 -35l-359 -166l304 -180l-5 -33zM67 30h383l-5 -30h-383z" />
    <glyph glyph-name="greaterequal.tab" 
d="M77 30h383l-5 -30h-383zM506 320l-1 -9l-416 -195l5 35l360 167l-305 180l6 32z" />
    <glyph glyph-name="parenleft.tab" horiz-adv-x="300" 
d="M167 -148q-41 67 -70 155.5t-29 202.5q0 83 17.5 161.5t49 149.5t75.5 134.5t97 117.5h36q-112 -118 -175.5 -260.5t-63.5 -301.5q0 -56 7.5 -106t21 -95t31.5 -84.5t38 -73.5h-35v0z" />
    <glyph glyph-name="parenright.tab" horiz-adv-x="300" 
d="M149 773q41 -67 70 -155.5t29 -202.5q0 -83 -17.5 -161t-49 -149.5t-75.5 -135t-96 -117.5h-37q113 118 176.5 260.5t63.5 301.5q0 112 -29 201t-69 158h34v0z" />
    <glyph glyph-name="bracketleft.tab" horiz-adv-x="300" 
d="M160 776h179l-5 -28h-144l-137 -868h145l-5 -28h-179z" />
    <glyph glyph-name="bracketright.tab" horiz-adv-x="300" 
d="M-20 -120h145l137 868h-145l5 28h178l-146 -924h-179z" />
    <glyph glyph-name="braceleft.tab" horiz-adv-x="300" 
d="M194 -145q-91 7 -122.5 57.5t1.5 142.5l43 119q20 57 1.5 94.5t-82.5 45.5l4 27q65 3 95 35t28 89l-5 130q-2 52 9.5 86.5t35 55t58.5 29.5t80 11l-5 -28q-35 -2 -63 -8.5t-46.5 -24t-28 -47t-7.5 -75.5l4 -127q1 -35 -6.5 -59t-22.5 -40.5t-36 -26.5t-46 -16
q48 -14 67.5 -52t-3.5 -104l-42 -119q-29 -82 -4 -121.5t97 -45.5l-4 -28v0z" />
    <glyph glyph-name="braceright.tab" horiz-adv-x="300" 
d="M121 777q90 -7 121.5 -57.5t-1.5 -142.5l-43 -119q-20 -57 -1 -94.5t83 -45.5l-5 -27q-65 -3 -94.5 -35t-27.5 -89l4 -130q2 -52 -9.5 -86.5t-35 -55t-58.5 -30t-80 -10.5l5 28q36 1 63.5 8t46.5 24.5t28 46.5t8 76l-4 127q-1 34 6.5 58.5t22 41t35.5 26.5t46 16
q-23 7 -40.5 20t-26.5 32.5t-8.5 45t11.5 58.5l42 119q29 81 4.5 121t-97.5 46l5 28v0z" />
    <glyph glyph-name="period.tab" horiz-adv-x="300" 
d="M111 -5q-12 0 -20.5 8.5t-8.5 20.5t8.5 20.5t20.5 8.5t20.5 -8.5t8.5 -20.5t-8.5 -20.5t-20.5 -8.5z" />
    <glyph glyph-name="comma.tab" horiz-adv-x="300" 
d="M31 -100l81 160l32 -16l-90 -157z" />
    <glyph glyph-name="colon.tab" horiz-adv-x="300" 
d="M111 -5q-12 0 -20.5 8.5t-8.5 20.5t8.5 20.5t20.5 8.5t20.5 -8.5t8.5 -20.5t-8.5 -20.5t-20.5 -8.5zM166 337q-12 0 -20.5 8.5t-8.5 20.5t8 20.5t21 8.5q12 0 20.5 -8.5t8.5 -20.5t-8.5 -20.5t-20.5 -8.5z" />
    <glyph glyph-name="semicolon.tab" horiz-adv-x="300" 
d="M22 -100l82 160l32 -16l-91 -157zM168 337q-12 0 -20.5 8.5t-8.5 20.5t8 20.5t21 8.5q12 0 20.5 -8.5t8.5 -20.5t-8.5 -20.5t-20.5 -8.5z" />
    <glyph glyph-name="dollar.oldtab" 
d="M274 -7l-19 -124h-30l20 127q-87 10 -141 58.5t-59 136.5h34q7 -72 50 -114.5t120 -51.5l51 324q-93 26 -136 65t-43 103q0 43 17 77.5t47 57.5t71 35.5t88 12.5h12l14 89h30l-15 -92q74 -8 120.5 -48t52.5 -112h-32q-8 60 -46 91.5t-99 39.5l-47 -295q49 -14 85 -29
t60 -35t35.5 -47t11.5 -65q0 -48 -17.5 -86t-49 -64.5t-74.5 -40t-95 -13.5h-16zM491 195q0 30 -9 52t-28.5 39t-50.5 30t-74 25l-50 -318h11q45 0 82 11t63.5 33t41 54t14.5 74zM156 518q0 -50 33.5 -81t115.5 -56l46 290h-9q-41 0 -75.5 -9.5t-59 -29t-38 -48t-13.5 -66.5
z" />
    <glyph glyph-name="Euro.oldtab" 
d="M57 428h61q23 134 90 202.5t167 69.5q88 1 139 -47t53 -142h-34q-3 78 -41.5 119t-116.5 41q-88 -1 -145 -60.5t-78 -182.5h235l-10 -28h-229l-17 -106h209l-9 -28h-204q-6 -48 -2 -91.5t23.5 -77.5t56.5 -54t98 -20q157 0 204 176h32q-25 -107 -87 -156.5t-149 -49.5
q-66 0 -110 21.5t-68.5 58.5t-31.5 86.5t0 106.5h-62l5 28h61l17 106h-62z" />
    <glyph glyph-name="sterling.oldtab" 
d="M72 353h74q-3 27 -5.5 54t-2.5 56q0 51 14.5 94.5t43 75t71 49.5t98.5 18q94 0 140.5 -47.5t48.5 -125.5h-34q-3 64 -40.5 103.5t-115.5 39.5q-48 0 -83.5 -15t-59.5 -42.5t-36 -65.5t-12 -84q0 -29 2.5 -56t5.5 -54h231l-5 -28h-223q2 -17 3 -34t1 -35q0 -53 -10 -89.5
t-31 -68.5q29 -3 57.5 -15t57 -25t57.5 -23.5t59 -10.5q44 0 75 27.5t39 84.5h32q-9 -69 -49.5 -106t-96.5 -37q-35 0 -67.5 12t-63.5 26t-60 26t-56 12q-34 0 -56 -19t-30 -50h-33q8 34 33 61.5t64 35.5q24 32 34.5 69t10.5 88q0 17 -1.5 35t-3.5 36h-82z" />
    <glyph glyph-name="yen.oldtab" 
d="M111 337h176l-154 357h37l144 -340l240 340h36l-253 -357h174l-4 -28h-182l-16 -104h181l-4 -28h-182l-27 -177h-35l28 177h-184l4 28h184l16 104h-183z" />
    <glyph glyph-name="zero.oldtab" 
d="M98 286q-6 -40 -5 -72q1 -41 12 -76.5t33.5 -61t57.5 -40t84 -14.5q188 1 224 234l13 77q2 16 3.5 32t1.5 31q0 43 -11.5 80t-34.5 64t-58 42t-81 15q-93 0 -151.5 -61t-75.5 -173zM280 -8q-57 0 -98.5 17t-69 47t-41 70.5t-13.5 87.5q0 19 1 36.5t3 35.5l13 78
q20 125 88.5 193.5t175.5 68.5q54 0 95 -17.5t68.5 -48.5t41 -73t13.5 -91q0 -16 -1.5 -32.5t-3.5 -32.5l-13 -77q-20 -128 -84.5 -195t-174.5 -67z" />
    <glyph glyph-name="one.oldtab" 
d="M387 576l-256 -174l5 35l265 181h26l-97 -618h-34z" />
    <glyph glyph-name="two.oldtab" 
d="M24 9l291 221q28 21 59.5 45.5t57.5 53.5t43 63t17 74q0 33 -11.5 58t-32 41t-48 24t-58.5 8q-70 0 -123 -42t-72 -127h-33q9 48 30 85t51.5 62t68.5 38t79 13q37 0 70.5 -9.5t59 -29t40.5 -49.5t15 -71q0 -45 -18 -81.5t-45.5 -67t-62.5 -57.5t-69 -53l-235 -178h381
l-4 -30h-452z" />
    <glyph glyph-name="three.oldtab" 
d="M267 -103q-50 0 -92 13.5t-73.5 39.5t-49.5 64t-18 86h33q3 -80 56 -127t145 -47q43 0 79.5 11.5t63 35t41 58.5t14.5 82q0 31 -9.5 58.5t-29.5 48.5t-50 33t-70 12h-49l4 30h52q81 0 127 41.5t46 120.5q0 61 -40 100.5t-115 39.5q-76 0 -125 -42.5t-66 -117.5h-32
q7 42 27 77t49 60t67 38.5t82 13.5q43 0 77.5 -12.5t59 -34.5t37.5 -53t13 -68q0 -72 -37.5 -118.5t-103.5 -60.5q55 -14 88.5 -57t33.5 -108q0 -53 -17.5 -93t-49 -68t-74.5 -42t-94 -14z" />
    <glyph glyph-name="four.oldtab" 
d="M385 71h-372l1 11l439 536h53l-82 -517h98l-5 -30h-97l-27 -168h-35zM389 101l79 491l-402 -491h323z" />
    <glyph glyph-name="five.oldtab" 
d="M71 78q6 -72 54.5 -112t128.5 -40q50 0 90 18t68 49t43 73.5t15 92.5q0 36 -11 67t-31.5 54t-51 36t-69.5 13q-32 0 -59 -6.5t-49.5 -18t-41.5 -26.5t-35 -32h-14l59 372h377l-5 -30h-346l-48 -295q26 26 69.5 45.5t98.5 19.5q44 0 79.5 -15t61 -41t39 -62t13.5 -79
q0 -55 -17.5 -103t-50.5 -84t-79.5 -56.5t-104.5 -20.5q-44 0 -82 11.5t-66.5 34.5t-46 57t-20.5 78h32z" />
    <glyph glyph-name="six.oldtab" 
d="M292 -8q-54 0 -94.5 15.5t-67.5 44t-41 68.5t-14 88q0 20 2 40.5t5 39.5l16 97q15 92 42 156.5t64.5 104.5t83 58t96.5 18q81 0 127.5 -38t53.5 -113h-34q-7 58 -42.5 90t-104.5 32q-44 0 -83.5 -16t-72 -52t-57 -94t-38.5 -143l-11 -69q16 30 39 52.5t50.5 36.5t58 21
t60.5 7q94 0 149 -51t55 -143q0 -54 -17.5 -99.5t-49 -79t-76.5 -52.5t-99 -19zM110 202q0 -82 47 -131.5t136 -49.5q47 0 85 16.5t65 46t41.5 69.5t14.5 88q0 76 -44 121.5t-131 45.5q-44 0 -82.5 -14.5t-68 -41.5t-46.5 -65t-17 -85z" />
    <glyph glyph-name="seven.oldtab" 
d="M515 589h-395l5 29h439l-1 -7l-404 -708h-37z" />
    <glyph glyph-name="eight.oldtab" 
d="M282 -7q-47 0 -88 12.5t-71 36.5t-47.5 59t-17.5 79t15.5 79.5t42.5 62t62.5 42.5t75.5 21q-48 16 -80.5 54t-32.5 94q0 43 17 78t46.5 60t68 38t81.5 13q38 0 72.5 -12t60 -33.5t40.5 -53t15 -70.5q0 -37 -11.5 -67t-32.5 -52t-49.5 -36t-62.5 -20q59 -16 98 -60
t39 -107q0 -52 -19 -92.5t-52 -68.5t-77 -42.5t-93 -14.5zM93 182q0 -36 13.5 -65.5t38.5 -50.5t60.5 -32t78.5 -11q42 0 79 12t65 35.5t44 58.5t16 81q0 34 -13 63t-37.5 50t-58.5 32.5t-76 11.5t-80 -12.5t-67 -36t-46 -58t-17 -78.5zM176 532q0 -29 11 -54t32 -43.5
t50.5 -29t66.5 -10.5q34 0 65.5 10t55 30t37.5 49.5t14 68.5q0 30 -11.5 56t-32 44.5t-49 29t-62.5 10.5q-36 0 -68.5 -11t-56.5 -31.5t-38 -50.5t-14 -68z" />
    <glyph glyph-name="nine.oldtab" 
d="M325 626q53 0 93.5 -16t67.5 -44.5t41 -68.5t14 -89q0 -37 -6 -76l-17 -108q-15 -93 -41.5 -156t-63 -101t-81 -54.5t-95.5 -16.5q-85 0 -134.5 41.5t-57.5 121.5h34q8 -64 47 -98.5t111 -34.5q45 0 83.5 14.5t70 48.5t54.5 90.5t37 140.5l13 80q-16 -31 -39 -53
t-51 -36.5t-58.5 -21.5t-61.5 -7q-45 0 -82.5 13.5t-64 38.5t-41.5 61t-15 81q0 54 18 99.5t50 79t76.5 52.5t98.5 19zM507 418q0 81 -47.5 130t-135.5 49q-47 0 -85 -16.5t-65 -45.5t-42 -69.5t-15 -88.5q0 -76 45 -121t129 -45q44 0 83.5 14.5t69 41.5t46.5 65.5t17 85.5z
" />
    <glyph glyph-name="zero.num" horiz-adv-x="349" 
d="M106 500q0 -45 23 -76t74 -31q35 0 59 16t39 42.5t22 61.5t7 73q0 45 -22.5 76t-73.5 31q-36 0 -60.5 -16.5t-39.5 -43.5t-21.5 -62t-6.5 -71zM203 367q-62 0 -94.5 37t-32.5 96q0 43 9 82.5t28.5 69.5t49 48t71.5 18q60 0 93 -36t33 -97q0 -44 -9 -83.5t-28 -69.5
t-48.5 -47.5t-71.5 -17.5z" />
    <glyph glyph-name="one.num" horiz-adv-x="212" 
d="M176 679l-101 -65l4 30l111 71h23l-55 -344h-31z" />
    <glyph glyph-name="two.num" horiz-adv-x="285" 
d="M34 379l151 124q36 30 61.5 58t25.5 67q0 29 -19 47.5t-51 18.5q-35 0 -60.5 -21.5t-35.5 -63.5h-28q10 54 44.5 81.5t80.5 27.5q44 0 71.5 -24t27.5 -66q0 -23 -7.5 -41.5t-21 -35t-31.5 -32t-39 -33.5l-111 -90h181l-4 -25h-236z" />
    <glyph glyph-name="three.num" horiz-adv-x="307" 
d="M184 367q-25 0 -47 6.5t-38.5 19t-27 31.5t-11.5 45h29q3 -35 28 -56t67 -21q36 0 63 19t27 61q0 28 -18.5 47.5t-54.5 19.5h-24l4 24h28q31 0 53 16.5t22 51.5q0 31 -20 47.5t-52 16.5q-38 0 -61.5 -20.5t-31.5 -52.5h-28q8 43 40.5 69.5t80.5 26.5q20 0 38.5 -5
t32.5 -15.5t22.5 -27t8.5 -38.5q0 -31 -18 -52.5t-50 -29.5q26 -7 42.5 -27t16.5 -52q0 -25 -10 -44t-26.5 -32.5t-38.5 -20.5t-46 -7z" />
    <glyph glyph-name="four.num" horiz-adv-x="305" 
d="M230 448h-184l2 11l211 256h43l-39 -243h48l-4 -24h-48l-12 -77h-30zM233 472l35 219l-179 -219h144z" />
    <glyph glyph-name="five.num" horiz-adv-x="291" 
d="M168 367q-42 0 -75 22.5t-36 70.5h29q3 -32 25 -50t57 -18q43 0 69 27t26 75q0 34 -21.5 56t-57.5 22q-29 0 -49.5 -11t-34.5 -27h-15l30 181h192l-4 -25h-167l-20 -122q13 11 32.5 19.5t43.5 8.5q43 0 72.5 -27t29.5 -74q-1 -57 -35 -92t-91 -36z" />
    <glyph glyph-name="six.num" horiz-adv-x="316" 
d="M189 367q-54 0 -83.5 31.5t-29.5 79.5q0 11 1 25.5t3 28.5l4 26q14 86 53.5 123t94.5 37q37 0 65 -19t30 -60h-27q-3 27 -21.5 40.5t-47.5 14.5q-44 0 -74.5 -30.5t-43.5 -109.5l-2 -14q15 24 42.5 36.5t56.5 12.5q42 0 74 -24t32 -73q0 -54 -34.5 -89.5t-92.5 -35.5z
M106 473q0 -35 22 -58t61 -23q45 0 70.5 27t25.5 72q0 35 -21.5 55.5t-59.5 20.5q-40 0 -69 -24t-29 -70z" />
    <glyph glyph-name="seven.num" horiz-adv-x="270" 
d="M277 689h-196l5 26h236l-1 -5l-195 -339h-34z" />
    <glyph glyph-name="eight.num" horiz-adv-x="315" 
d="M187 367q-24 0 -45.5 6t-38.5 18t-27 29.5t-10 40.5q0 41 25.5 64.5t67.5 31.5q-23 8 -39.5 26t-16.5 44q0 22 9.5 39t25 28.5t36 17.5t42.5 6q19 0 38 -5.5t34 -16t24 -26.5t9 -37q0 -32 -20.5 -52.5t-53.5 -27.5q29 -10 47.5 -30t18.5 -53q0 -52 -36.5 -77.5
t-89.5 -25.5zM96 463q1 -32 25 -51.5t67 -19.5q18 0 35.5 4t30.5 13t21 24t8 37q0 35 -26 54t-64 19q-18 0 -35.5 -4.5t-31 -14t-22 -25t-8.5 -36.5zM133 627q0 -29 23.5 -45t55.5 -16q30 0 55 16t25 50q0 30 -22.5 46t-54.5 16t-57 -16t-25 -51z" />
    <glyph glyph-name="nine.num" horiz-adv-x="315" 
d="M216 719q53 0 82.5 -31.5t29.5 -77.5q0 -12 -1 -28t-3 -29l-4 -27q-14 -85 -50.5 -122t-93.5 -37q-47 0 -74.5 22t-29.5 63h27q4 -29 22 -44.5t56 -15.5q45 0 73.5 31t40.5 109l2 14q-15 -24 -42.5 -36.5t-56.5 -12.5q-42 0 -73.5 24t-31.5 73q0 54 35 89.5t92 35.5z
M298 613q0 35 -21.5 58t-61.5 23q-44 0 -70 -27t-26 -72q0 -35 21.5 -55.5t59.5 -20.5q40 0 69 24t29 70z" />
    <glyph glyph-name="zero.den" horiz-adv-x="349" 
d="M48 130q0 -45 23 -76t74 -31q35 0 59 16t39 42.5t22 61.5t7 73q0 45 -22.5 76t-73.5 31q-36 0 -60.5 -16.5t-39.5 -43.5t-21.5 -62t-6.5 -71zM145 -3q-62 0 -94.5 37t-32.5 96q0 43 9 82.5t28.5 69.5t49 48t71.5 18q60 0 93 -36t33 -97q0 -44 -9 -83.5t-28 -69.5
t-48.5 -47.5t-71.5 -17.5z" />
    <glyph glyph-name="one.den" horiz-adv-x="212" 
d="M119 309l-101 -65l4 30l111 71h23l-55 -344h-31z" />
    <glyph glyph-name="two.den" horiz-adv-x="285" 
d="M-23 9l151 124q36 30 61.5 58t25.5 67q0 29 -19 47.5t-51 18.5q-35 0 -60.5 -21.5t-35.5 -63.5h-28q10 54 44.5 81.5t80.5 27.5q44 0 71.5 -24t27.5 -66q0 -23 -7.5 -41.5t-21 -35t-31.5 -32t-39 -33.5l-111 -90h181l-4 -25h-236z" />
    <glyph glyph-name="three.den" horiz-adv-x="307" 
d="M127 -3q-25 0 -47 6.5t-38.5 19t-27 31.5t-11.5 45h29q3 -35 28 -56t67 -21q36 0 63 19t27 61q0 28 -18.5 47.5t-54.5 19.5h-24l4 24h28q31 0 53 16.5t22 51.5q0 31 -20 47.5t-52 16.5q-38 0 -61.5 -20.5t-31.5 -52.5h-28q8 43 40.5 69.5t80.5 26.5q20 0 38.5 -5
t32.5 -15.5t22.5 -27t8.5 -38.5q0 -31 -18 -52.5t-50 -29.5q26 -7 42.5 -27t16.5 -52q0 -25 -10 -44t-26.5 -32.5t-38.5 -20.5t-46 -7z" />
    <glyph glyph-name="four.den" horiz-adv-x="305" 
d="M173 78h-184l2 11l211 256h43l-39 -243h48l-4 -24h-48l-12 -77h-30zM176 102l35 219l-179 -219h144z" />
    <glyph glyph-name="five.den" horiz-adv-x="291" 
d="M111 -3q-42 0 -75 22.5t-36 70.5h29q3 -32 25 -50t57 -18q43 0 69 27t26 75q0 34 -21.5 56t-57.5 22q-29 0 -49.5 -11t-34.5 -27h-15l30 181h192l-4 -25h-167l-20 -122q13 11 32.5 19.5t43.5 8.5q43 0 72.5 -27t29.5 -74q-1 -57 -35 -92t-91 -36z" />
    <glyph glyph-name="six.den" horiz-adv-x="316" 
d="M131 -3q-54 0 -83.5 31.5t-29.5 79.5q0 11 1 25.5t3 28.5l4 26q14 86 53.5 123t94.5 37q37 0 65 -19t30 -60h-27q-3 27 -21.5 40.5t-47.5 14.5q-44 0 -74.5 -30.5t-43.5 -109.5l-2 -14q15 24 42.5 36.5t56.5 12.5q42 0 74 -24t32 -73q0 -54 -34.5 -89.5t-92.5 -35.5z
M48 103q0 -35 22 -58t61 -23q45 0 70.5 27t25.5 72q0 35 -21.5 55.5t-59.5 20.5q-40 0 -69 -24t-29 -70z" />
    <glyph glyph-name="seven.den" horiz-adv-x="270" 
d="M219 319h-196l5 26h236l-1 -5l-195 -339h-34z" />
    <glyph glyph-name="eight.den" horiz-adv-x="315" 
d="M129 -3q-24 0 -45.5 6t-38.5 18t-27 29.5t-10 40.5q0 41 25.5 64.5t67.5 31.5q-23 8 -39.5 26t-16.5 44q0 22 9.5 39t25 28.5t36 17.5t42.5 6q19 0 38 -5.5t34 -16t24 -26.5t9 -37q0 -32 -20.5 -52.5t-53.5 -27.5q29 -10 47.5 -30t18.5 -53q0 -52 -36.5 -77.5
t-89.5 -25.5zM38 93q1 -32 25 -51.5t67 -19.5q18 0 35.5 4t30.5 13t21 24t8 37q0 35 -26 54t-64 19q-18 0 -35.5 -4.5t-31 -14t-22 -25t-8.5 -36.5zM75 257q0 -29 23.5 -45t55.5 -16q30 0 55 16t25 50q0 30 -22.5 46t-54.5 16t-57 -16t-25 -51z" />
    <glyph glyph-name="nine.den" horiz-adv-x="315" 
d="M160 349q53 0 82.5 -31.5t29.5 -77.5q0 -12 -1 -28t-3 -29l-4 -27q-14 -85 -50.5 -122t-93.5 -37q-47 0 -74.5 22t-29.5 63h27q4 -29 22 -44.5t56 -15.5q45 0 73.5 31t40.5 109l2 14q-15 -24 -42.5 -36.5t-56.5 -12.5q-42 0 -73.5 24t-31.5 73q0 54 35 89.5t92 35.5z
M242 243q0 35 -21.5 58t-61.5 23q-44 0 -70 -27t-26 -72q0 -35 21.5 -55.5t59.5 -20.5q40 0 69 24t29 70z" />
    <glyph glyph-name="zero.sub" horiz-adv-x="349" 
d="M39 43q0 -45 23 -76t74 -31q35 0 59 16t39 42.5t22 61.5t7 73q0 45 -22.5 76t-73.5 31q-36 0 -60.5 -16.5t-39.5 -43.5t-21.5 -62t-6.5 -71zM136 -90q-62 0 -94.5 37t-32.5 96q0 43 9 82.5t28.5 69.5t49 48t71.5 18q60 0 93 -36t33 -97q0 -44 -9 -83.5t-28 -69.5
t-48.5 -47.5t-71.5 -17.5z" />
    <glyph glyph-name="one.sub" horiz-adv-x="212" 
d="M108 222l-101 -65l4 30l111 71h23l-55 -344h-31z" />
    <glyph glyph-name="two.sub" horiz-adv-x="285" 
d="M-34 -78l151 124q36 30 61.5 58t25.5 67q0 29 -19 47.5t-51 18.5q-35 0 -60.5 -21.5t-35.5 -63.5h-28q10 54 44.5 81.5t80.5 27.5q44 0 71.5 -24t27.5 -66q0 -23 -7.5 -41.5t-21 -35t-31.5 -32t-39 -33.5l-111 -90h181l-4 -25h-236z" />
    <glyph glyph-name="three.sub" horiz-adv-x="307" 
d="M117 -90q-25 0 -47 6.5t-38.5 19t-27 31.5t-11.5 45h29q3 -35 28 -56t67 -21q36 0 63 19t27 61q0 28 -18.5 47.5t-54.5 19.5h-24l4 24h28q31 0 53 16.5t22 51.5q0 31 -20 47.5t-52 16.5q-38 0 -61.5 -20.5t-31.5 -52.5h-28q8 43 40.5 69.5t80.5 26.5q20 0 38.5 -5
t32.5 -15.5t22.5 -27t8.5 -38.5q0 -31 -18 -52.5t-50 -29.5q26 -7 42.5 -27t16.5 -52q0 -25 -10 -44t-26.5 -32.5t-38.5 -20.5t-46 -7z" />
    <glyph glyph-name="four.sub" horiz-adv-x="305" 
d="M163 -9h-184l2 11l211 256h43l-39 -243h48l-4 -24h-48l-12 -77h-30zM166 15l35 219l-179 -219h144z" />
    <glyph glyph-name="five.sub" horiz-adv-x="291" 
d="M100 -90q-42 0 -75 22.5t-36 70.5h29q3 -32 25 -50t57 -18q43 0 69 27t26 75q0 34 -21.5 56t-57.5 22q-29 0 -49.5 -11t-34.5 -27h-15l30 181h192l-4 -25h-167l-20 -122q13 11 32.5 19.5t43.5 8.5q43 0 72.5 -27t29.5 -74q-1 -57 -35 -92t-91 -36z" />
    <glyph glyph-name="six.sub" horiz-adv-x="316" 
d="M121 -90q-54 0 -83.5 31.5t-29.5 79.5q0 11 1 25.5t3 28.5l4 26q14 86 53.5 123t94.5 37q37 0 65 -19t30 -60h-27q-3 27 -21.5 40.5t-47.5 14.5q-44 0 -74.5 -30.5t-43.5 -109.5l-2 -14q15 24 42.5 36.5t56.5 12.5q42 0 74 -24t32 -73q0 -54 -34.5 -89.5t-92.5 -35.5z
M38 16q0 -35 22 -58t61 -23q45 0 70.5 27t25.5 72q0 35 -21.5 55.5t-59.5 20.5q-40 0 -69 -24t-29 -70z" />
    <glyph glyph-name="seven.sub" horiz-adv-x="270" 
d="M209 232h-196l5 26h236l-1 -5l-195 -339h-34z" />
    <glyph glyph-name="eight.sub" horiz-adv-x="315" 
d="M119 -90q-24 0 -45.5 6t-38.5 18t-27 29.5t-10 40.5q0 41 25.5 64.5t67.5 31.5q-23 8 -39.5 26t-16.5 44q0 22 9.5 39t25 28.5t36 17.5t42.5 6q19 0 38 -5.5t34 -16t24 -26.5t9 -37q0 -32 -20.5 -52.5t-53.5 -27.5q29 -10 47.5 -30t18.5 -53q0 -52 -36.5 -77.5
t-89.5 -25.5zM28 6q1 -32 25 -51.5t67 -19.5q18 0 35.5 4t30.5 13t21 24t8 37q0 35 -26 54t-64 19q-18 0 -35.5 -4.5t-31 -14t-22 -25t-8.5 -36.5zM65 170q0 -29 23.5 -45t55.5 -16q30 0 55 16t25 50q0 30 -22.5 46t-54.5 16t-57 -16t-25 -51z" />
    <glyph glyph-name="nine.sub" horiz-adv-x="315" 
d="M147 262q53 0 82.5 -31.5t29.5 -77.5q0 -12 -1 -28t-3 -29l-4 -27q-14 -85 -50.5 -122t-93.5 -37q-47 0 -74.5 22t-29.5 63h27q4 -29 22 -44.5t56 -15.5q45 0 73.5 31t40.5 109l2 14q-15 -24 -42.5 -36.5t-56.5 -12.5q-42 0 -73.5 24t-31.5 73q0 54 35 89.5t92 35.5z
M229 156q0 35 -21.5 58t-61.5 23q-44 0 -70 -27t-26 -72q0 -35 21.5 -55.5t59.5 -20.5q40 0 69 24t29 70z" />
    <glyph glyph-name="plus.sub" horiz-adv-x="314" 
d="M115 70h-107l4 25h107l18 112h27l-17 -112h107l-4 -25h-108l-17 -112h-28z" />
    <glyph glyph-name="minus.sub" horiz-adv-x="314" 
d="M12 95h242l-4 -25h-242z" />
    <glyph glyph-name="zero.sup" horiz-adv-x="349" 
d="M116 558q0 -45 23 -76t74 -31q35 0 59 16t39 42.5t22 61.5t7 73q0 45 -22.5 76t-73.5 31q-36 0 -60.5 -16.5t-39.5 -43.5t-21.5 -62t-6.5 -71zM213 425q-62 0 -94.5 37t-32.5 96q0 43 9 82.5t28.5 69.5t49 48t71.5 18q60 0 93 -36t33 -97q0 -44 -9 -83.5t-28 -69.5
t-48.5 -47.5t-71.5 -17.5z" />
    <glyph glyph-name="one.sup" horiz-adv-x="212" 
d="M186 737l-101 -65l4 30l111 71h23l-55 -344h-31z" />
    <glyph glyph-name="two.sup" horiz-adv-x="285" 
d="M43 437l151 124q36 30 61.5 58t25.5 67q0 29 -19 47.5t-51 18.5q-35 0 -60.5 -21.5t-35.5 -63.5h-28q10 54 44.5 81.5t80.5 27.5q44 0 71.5 -24t27.5 -66q0 -23 -7.5 -41.5t-21 -35t-31.5 -32t-39 -33.5l-111 -90h181l-4 -25h-236z" />
    <glyph glyph-name="three.sup" horiz-adv-x="307" 
d="M193 425q-25 0 -47 6.5t-38.5 19t-27 31.5t-11.5 45h29q3 -35 28 -56t67 -21q36 0 63 19t27 61q0 28 -18.5 47.5t-54.5 19.5h-24l4 24h28q31 0 53 16.5t22 51.5q0 31 -20 47.5t-52 16.5q-38 0 -61.5 -20.5t-31.5 -52.5h-28q8 43 40.5 69.5t80.5 26.5q20 0 38.5 -5
t32.5 -15.5t22.5 -27t8.5 -38.5q0 -31 -18 -52.5t-50 -29.5q26 -7 42.5 -27t16.5 -52q0 -25 -10 -44t-26.5 -32.5t-38.5 -20.5t-46 -7z" />
    <glyph glyph-name="four.sup" horiz-adv-x="305" 
d="M239 506h-184l2 11l211 256h43l-39 -243h48l-4 -24h-48l-12 -77h-30zM242 530l35 219l-179 -219h144z" />
    <glyph glyph-name="five.sup" horiz-adv-x="291" 
d="M177 425q-42 0 -75 22.5t-36 70.5h29q3 -32 25 -50t57 -18q43 0 69 27t26 75q0 34 -21.5 56t-57.5 22q-29 0 -49.5 -11t-34.5 -27h-15l30 181h192l-4 -25h-167l-20 -122q13 11 32.5 19.5t43.5 8.5q43 0 72.5 -27t29.5 -74q-1 -57 -35 -92t-91 -36z" />
    <glyph glyph-name="six.sup" horiz-adv-x="316" 
d="M198 425q-54 0 -83.5 31.5t-29.5 79.5q0 11 1 25.5t3 28.5l4 26q14 86 53.5 123t94.5 37q37 0 65 -19t30 -60h-27q-3 27 -21.5 40.5t-47.5 14.5q-44 0 -74.5 -30.5t-43.5 -109.5l-2 -14q15 24 42.5 36.5t56.5 12.5q42 0 74 -24t32 -73q0 -54 -34.5 -89.5t-92.5 -35.5z
M115 531q0 -35 22 -58t61 -23q45 0 70.5 27t25.5 72q0 35 -21.5 55.5t-59.5 20.5q-40 0 -69 -24t-29 -70z" />
    <glyph glyph-name="seven.sup" horiz-adv-x="270" 
d="M286 747h-196l5 26h236l-1 -5l-195 -339h-34z" />
    <glyph glyph-name="eight.sup" horiz-adv-x="315" 
d="M196 425q-24 0 -45.5 6t-38.5 18t-27 29.5t-10 40.5q0 41 25.5 64.5t67.5 31.5q-23 8 -39.5 26t-16.5 44q0 22 9.5 39t25 28.5t36 17.5t42.5 6q19 0 38 -5.5t34 -16t24 -26.5t9 -37q0 -32 -20.5 -52.5t-53.5 -27.5q29 -10 47.5 -30t18.5 -53q0 -52 -36.5 -77.5
t-89.5 -25.5zM105 521q1 -32 25 -51.5t67 -19.5q18 0 35.5 4t30.5 13t21 24t8 37q0 35 -26 54t-64 19q-18 0 -35.5 -4.5t-31 -14t-22 -25t-8.5 -36.5zM142 685q0 -29 23.5 -45t55.5 -16q30 0 55 16t25 50q0 30 -22.5 46t-54.5 16t-57 -16t-25 -51z" />
    <glyph glyph-name="nine.sup" horiz-adv-x="315" 
d="M225 777q53 0 82.5 -31.5t29.5 -77.5q0 -12 -1 -28t-3 -29l-4 -27q-14 -85 -50.5 -122t-93.5 -37q-47 0 -74.5 22t-29.5 63h27q4 -29 22 -44.5t56 -15.5q45 0 73.5 31t40.5 109l2 14q-15 -24 -42.5 -36.5t-56.5 -12.5q-42 0 -73.5 24t-31.5 73q0 54 35 89.5t92 35.5z
M307 671q0 35 -21.5 58t-61.5 23q-44 0 -70 -27t-26 -72q0 -35 21.5 -55.5t59.5 -20.5q40 0 69 24t29 70z" />
    <glyph glyph-name="plus.sup" horiz-adv-x="314" 
d="M193 588h-107l5 25h107l17 112h28l-18 -112h108l-5 -25h-108l-17 -111h-27z" />
    <glyph glyph-name="minus.sup" horiz-adv-x="314" 
d="M91 613h242l-5 -25h-242z" />
    <glyph glyph-name="a.alt" horiz-adv-x="586" 
d="M301 501q-53 0 -95 -21.5t-71.5 -59t-45.5 -87.5t-16 -107q0 -49 14 -87t38 -64t56.5 -39.5t70.5 -13.5q52 0 93 24t70.5 62.5t45 87.5t16.5 100q0 47 -12.5 85t-36 64.5t-56 41t-71.5 14.5zM248 -8q-45 0 -83.5 16.5t-66.5 46.5t-44 73t-16 97q0 62 18.5 117.5
t52.5 97.5t82.5 66.5t108.5 24.5q46 0 79.5 -15t56.5 -37.5t36.5 -50.5t18.5 -53l24 148h34l-57 -354q-11 -66 -13.5 -105t-3.5 -64h-33q0 26 3.5 63t8.5 68q-14 -29 -33.5 -54.5t-45.5 -44.5t-57.5 -29.5t-69.5 -10.5z" />
    <glyph glyph-name="t.alt" horiz-adv-x="307" 
d="M150 494h-92l5 29h91l19 119h35l-19 -119h133l-5 -29h-133l-77 -494h-35z" />
    <glyph glyph-name="germandbls.alt" horiz-adv-x="583" 
d="M355 -5q-69 0 -115 35t-51 105h34q5 -54 40.5 -82.5t92.5 -28.5q28 0 53 8t43.5 23t29 37t10.5 49q0 24 -8 43t-22.5 34.5t-34 30t-42.5 29.5q-24 15 -43.5 28.5t-33.5 27t-21.5 28.5t-7.5 34q0 26 16 45.5t40 37.5t51.5 34.5t51.5 36t40 42.5t16 54q0 25 -10 44
t-28 31.5t-42 19t-51 6.5q-81 0 -134 -47.5t-67 -136.5l-89 -563h-34l89 565q16 101 79.5 156t157.5 55q31 0 60.5 -8t52 -23.5t36 -40t13.5 -57.5q0 -34 -16 -60t-40 -47t-51.5 -38t-51.5 -33t-40 -32.5t-16 -36.5q0 -27 26 -46.5t73 -50.5q25 -17 46 -33t36.5 -35
t24.5 -41.5t9 -51.5q0 -33 -13 -60t-36 -46.5t-54.5 -30t-68.5 -10.5z" />
    <glyph glyph-name="aacute.alt" horiz-adv-x="586" 
d="M301 501q-53 0 -95 -21.5t-71.5 -59t-45.5 -87.5t-16 -107q0 -49 14 -87t38 -64t56.5 -39.5t70.5 -13.5q52 0 93 24t70.5 62.5t45 87.5t16.5 100q0 47 -12.5 85t-36 64.5t-56 41t-71.5 14.5zM248 -8q-45 0 -83.5 16.5t-66.5 46.5t-44 73t-16 97q0 62 18.5 117.5
t52.5 97.5t82.5 66.5t108.5 24.5q46 0 79.5 -15t56.5 -37.5t36.5 -50.5t18.5 -53l24 148h34l-57 -354q-11 -66 -13.5 -105t-3.5 -64h-33q0 26 3.5 63t8.5 68q-14 -29 -33.5 -54.5t-45.5 -44.5t-57.5 -29.5t-69.5 -10.5zM399 747h43l-106 -147h-30z" />
    <glyph glyph-name="abreve.alt" horiz-adv-x="586" 
d="M301 501q-53 0 -95 -21.5t-71.5 -59t-45.5 -87.5t-16 -107q0 -49 14 -87t38 -64t56.5 -39.5t70.5 -13.5q52 0 93 24t70.5 62.5t45 87.5t16.5 100q0 47 -12.5 85t-36 64.5t-56 41t-71.5 14.5zM248 -8q-45 0 -83.5 16.5t-66.5 46.5t-44 73t-16 97q0 62 18.5 117.5
t52.5 97.5t82.5 66.5t108.5 24.5q46 0 79.5 -15t56.5 -37.5t36.5 -50.5t18.5 -53l24 148h34l-57 -354q-11 -66 -13.5 -105t-3.5 -64h-33q0 26 3.5 63t8.5 68q-14 -29 -33.5 -54.5t-45.5 -44.5t-57.5 -29.5t-69.5 -10.5zM331 614q-51 0 -79.5 31.5t-29.5 82.5h30
q2 -39 22 -62t58 -23q37 0 62.5 22.5t33.5 62.5h29q-8 -53 -43.5 -83.5t-82.5 -30.5z" />
    <glyph glyph-name="acircumflex.alt" horiz-adv-x="586" 
d="M301 501q-53 0 -95 -21.5t-71.5 -59t-45.5 -87.5t-16 -107q0 -49 14 -87t38 -64t56.5 -39.5t70.5 -13.5q52 0 93 24t70.5 62.5t45 87.5t16.5 100q0 47 -12.5 85t-36 64.5t-56 41t-71.5 14.5zM248 -8q-45 0 -83.5 16.5t-66.5 46.5t-44 73t-16 97q0 62 18.5 117.5
t52.5 97.5t82.5 66.5t108.5 24.5q46 0 79.5 -15t56.5 -37.5t36.5 -50.5t18.5 -53l24 148h34l-57 -354q-11 -66 -13.5 -105t-3.5 -64h-33q0 26 3.5 63t8.5 68q-14 -29 -33.5 -54.5t-45.5 -44.5t-57.5 -29.5t-69.5 -10.5zM326 729h33l94 -129h-29l-84 101l-110 -101h-31z" />
    <glyph glyph-name="adieresis.alt" horiz-adv-x="586" 
d="M301 501q-53 0 -95 -21.5t-71.5 -59t-45.5 -87.5t-16 -107q0 -49 14 -87t38 -64t56.5 -39.5t70.5 -13.5q52 0 93 24t70.5 62.5t45 87.5t16.5 100q0 47 -12.5 85t-36 64.5t-56 41t-71.5 14.5zM248 -8q-45 0 -83.5 16.5t-66.5 46.5t-44 73t-16 97q0 62 18.5 117.5
t52.5 97.5t82.5 66.5t108.5 24.5q46 0 79.5 -15t56.5 -37.5t36.5 -50.5t18.5 -53l24 148h34l-57 -354q-11 -66 -13.5 -105t-3.5 -64h-33q0 26 3.5 63t8.5 68q-14 -29 -33.5 -54.5t-45.5 -44.5t-57.5 -29.5t-69.5 -10.5zM262 638q-11 0 -18.5 7.5t-7.5 18.5t7.5 18.5
t18.5 7.5t18.5 -7.5t7.5 -18.5t-7.5 -18.5t-18.5 -7.5zM415 638q-11 0 -18.5 7.5t-7.5 18.5t7.5 18.5t18.5 7.5t18.5 -7.5t7.5 -18.5t-7.5 -18.5t-18.5 -7.5z" />
    <glyph glyph-name="agrave.alt" horiz-adv-x="586" 
d="M301 501q-53 0 -95 -21.5t-71.5 -59t-45.5 -87.5t-16 -107q0 -49 14 -87t38 -64t56.5 -39.5t70.5 -13.5q52 0 93 24t70.5 62.5t45 87.5t16.5 100q0 47 -12.5 85t-36 64.5t-56 41t-71.5 14.5zM248 -8q-45 0 -83.5 16.5t-66.5 46.5t-44 73t-16 97q0 62 18.5 117.5
t52.5 97.5t82.5 66.5t108.5 24.5q46 0 79.5 -15t56.5 -37.5t36.5 -50.5t18.5 -53l24 148h34l-57 -354q-11 -66 -13.5 -105t-3.5 -64h-33q0 26 3.5 63t8.5 68q-14 -29 -33.5 -54.5t-45.5 -44.5t-57.5 -29.5t-69.5 -10.5zM251 747h40l51 -147h-28z" />
    <glyph glyph-name="amacron.alt" horiz-adv-x="586" 
d="M301 501q-53 0 -95 -21.5t-71.5 -59t-45.5 -87.5t-16 -107q0 -49 14 -87t38 -64t56.5 -39.5t70.5 -13.5q52 0 93 24t70.5 62.5t45 87.5t16.5 100q0 47 -12.5 85t-36 64.5t-56 41t-71.5 14.5zM248 -8q-45 0 -83.5 16.5t-66.5 46.5t-44 73t-16 97q0 62 18.5 117.5
t52.5 97.5t82.5 66.5t108.5 24.5q46 0 79.5 -15t56.5 -37.5t36.5 -50.5t18.5 -53l24 148h34l-57 -354q-11 -66 -13.5 -105t-3.5 -64h-33q0 26 3.5 63t8.5 68q-14 -29 -33.5 -54.5t-45.5 -44.5t-57.5 -29.5t-69.5 -10.5zM227 675h229l-4 -28h-230z" />
    <glyph glyph-name="aogonek.alt" horiz-adv-x="586" 
d="M475 0q-13 -8 -30 -19t-32 -24.5t-25.5 -30t-10.5 -35.5q0 -20 12.5 -33t41.5 -13q23 0 46 8l-5 -27q-9 -3 -21 -5.5t-26 -2.5q-40 0 -61 19t-20 51q0 21 10.5 39t25.5 32.5t32 25.5t30 19q0 12 1 27.5t2.5 32.5t4 34.5t4.5 32.5q-14 -29 -33.5 -54.5t-45.5 -44.5
t-57.5 -29.5t-69.5 -10.5q-45 0 -83.5 16t-66.5 46.5t-44 73.5t-16 97q0 62 18.5 117.5t52.5 97.5t82.5 66.5t108.5 24.5q46 0 79.5 -15t56.5 -37.5t36.5 -50.5t18.5 -53l24 148h34l-57 -354q-11 -66 -13.5 -105t-3.5 -64zM301 501q-53 0 -95 -21.5t-71.5 -59t-45.5 -87.5
t-16 -107q0 -49 14 -87t38 -64t56.5 -39.5t70.5 -13.5q52 0 93 24t70.5 62.5t45 87.5t16.5 100q0 47 -12.5 85t-36 64.5t-56 41t-71.5 14.5z" />
    <glyph glyph-name="aring.alt" horiz-adv-x="586" 
d="M301 501q-53 0 -95 -21.5t-71.5 -59t-45.5 -87.5t-16 -107q0 -49 14 -87t38 -64t56.5 -39.5t70.5 -13.5q52 0 93 24t70.5 62.5t45 87.5t16.5 100q0 47 -12.5 85t-36 64.5t-56 41t-71.5 14.5zM248 -8q-45 0 -83.5 16.5t-66.5 46.5t-44 73t-16 97q0 62 18.5 117.5
t52.5 97.5t82.5 66.5t108.5 24.5q46 0 79.5 -15t56.5 -37.5t36.5 -50.5t18.5 -53l24 148h34l-57 -354q-11 -66 -13.5 -105t-3.5 -64h-33q0 26 3.5 63t8.5 68q-14 -29 -33.5 -54.5t-45.5 -44.5t-57.5 -29.5t-69.5 -10.5zM345 625q30 0 49 19.5t19 50.5q0 29 -17.5 47
t-46.5 18t-48.5 -19.5t-19.5 -50.5q0 -27 18 -46t46 -19zM345 603q-19 0 -35.5 7t-28.5 19t-19 27.5t-7 33.5q0 19 7.5 36t20 29.5t29.5 20t37 7.5q40 0 65 -26t25 -62q0 -39 -27 -65.5t-67 -26.5z" />
    <glyph glyph-name="aringacute.alt" horiz-adv-x="586" 
d="M301 501q-53 0 -95 -21.5t-71.5 -59t-45.5 -87.5t-16 -107q0 -49 14 -87t38 -64t56.5 -39.5t70.5 -13.5q52 0 93 24t70.5 62.5t45 87.5t16.5 100q0 47 -12.5 85t-36 64.5t-56 41t-71.5 14.5zM248 -8q-45 0 -83.5 16.5t-66.5 46.5t-44 73t-16 97q0 62 18.5 117.5
t52.5 97.5t82.5 66.5t108.5 24.5q46 0 79.5 -15t56.5 -37.5t36.5 -50.5t18.5 -53l24 148h34l-57 -354q-11 -66 -13.5 -105t-3.5 -64h-33q0 26 3.5 63t8.5 68q-14 -29 -33.5 -54.5t-45.5 -44.5t-57.5 -29.5t-69.5 -10.5zM336 621q30 0 49 19.5t19 50.5q0 29 -17.5 47
t-46.5 18t-48.5 -19.5t-19.5 -50.5q0 -27 18 -46t46 -19zM336 599q-19 0 -35.5 7t-28.5 19t-19 27.5t-7 33.5q0 19 7.5 36t20 29.5t29.5 20t37 7.5q40 0 65 -26t25 -62q0 -39 -27 -65.5t-67 -26.5zM425 950h43l-90 -120h-31z" />
    <glyph glyph-name="atilde.alt" horiz-adv-x="586" 
d="M301 501q-53 0 -95 -21.5t-71.5 -59t-45.5 -87.5t-16 -107q0 -49 14 -87t38 -64t56.5 -39.5t70.5 -13.5q52 0 93 24t70.5 62.5t45 87.5t16.5 100q0 47 -12.5 85t-36 64.5t-56 41t-71.5 14.5zM248 -8q-45 0 -83.5 16.5t-66.5 46.5t-44 73t-16 97q0 62 18.5 117.5
t52.5 97.5t82.5 66.5t108.5 24.5q46 0 79.5 -15t56.5 -37.5t36.5 -50.5t18.5 -53l24 148h34l-57 -354q-11 -66 -13.5 -105t-3.5 -64h-33q0 26 3.5 63t8.5 68q-14 -29 -33.5 -54.5t-45.5 -44.5t-57.5 -29.5t-69.5 -10.5zM399 615q-19 0 -36 9t-33 20t-31 20t-30 9
q-18 0 -33.5 -14.5t-22.5 -43.5h-28q9 45 32 66.5t53 21.5q18 0 35 -9t33 -20.5t31 -20.5t30 -9q17 0 33 15t22 44h28q-9 -44 -31.5 -66t-51.5 -22z" />
    <glyph glyph-name="tbar.alt" horiz-adv-x="307" 
d="M34 342h92l24 152h-92l5 29h91l19 119h35l-19 -119h133l-5 -29h-133l-24 -152h133l-4 -27h-133l-49 -315h-35l49 315h-91z" />
    <glyph glyph-name="tcaron.alt" horiz-adv-x="307" 
d="M150 494h-92l5 29h91l19 119h35l-19 -119h133l-5 -29h-133l-77 -494h-35zM329 773h37l-49 -154h-27z" />
    <glyph glyph-name="tcommaaccent.alt" horiz-adv-x="307" 
d="M-3 -183l68 139l34 -10l-79 -141zM150 494h-92l5 29h91l19 119h35l-19 -119h133l-5 -29h-133l-77 -494h-35z" />
    <glyph glyph-name="uni021B.alt" horiz-adv-x="307" 
d="M-3 -183l68 139l34 -10l-79 -141zM150 494h-92l5 29h91l19 119h35l-19 -119h133l-5 -29h-133l-77 -494h-35z" />
    <glyph glyph-name="f.short" horiz-adv-x="315" 
d="M64 523h82l16 98q7 45 22 74.5t36 47.5t46.5 25.5t53.5 7.5q17 0 31 -2.5t25 -5.5l-4 -29q-24 8 -51 8q-23 0 -42.5 -5.5t-36 -20t-28.5 -39.5t-18 -63l-15 -96h156l-5 -29h-156l-78 -494h-34l78 494h-83z" />
    <glyph glyph-name="f_f.short" horiz-adv-x="586" 
d="M64 523h82l15 94q7 43 22 72t36.5 46t47 24.5t53.5 7.5q19 0 33 -2.5t26 -6.5l-4 -29q-13 5 -25.5 7t-28.5 2q-23 0 -43 -5.5t-36.5 -19t-28.5 -37.5t-18 -60l-15 -93h237l16 98q7 45 22.5 74.5t36.5 47.5t46.5 25.5t52.5 7.5q17 0 31 -2.5t25 -5.5l-4 -29q-22 8 -51 8
q-22 0 -42 -5.5t-36.5 -20t-28.5 -39.5t-18 -63l-15 -96h156l-5 -29h-156l-78 -494h-34l78 494h-237l-78 -494h-34l77 494h-82z" />
    <glyph glyph-name="questiondown.uc" horiz-adv-x="469" 
d="M310 484q-5 -32 -16 -56t-27 -43.5t-37.5 -37.5t-47.5 -38q-24 -19 -45 -36t-37 -36.5t-25.5 -43.5t-9.5 -56q0 -30 11.5 -51.5t30.5 -35.5t44 -20.5t52 -6.5q70 0 118 40.5t63 121.5h33q-14 -93 -73 -142.5t-144 -49.5q-35 0 -66 9t-54.5 27t-37 45t-13.5 63
q0 38 11.5 66t30.5 49.5t43.5 40.5t50.5 39q24 19 43 35t33 33.5t23.5 38.5t13.5 48l10 64h32zM326 720q12 0 20.5 -8.5t8.5 -20.5q0 -11 -8.5 -19.5t-20.5 -8.5t-20.5 8.5t-8.5 19.5q0 12 8.5 20.5t20.5 8.5z" />
    <glyph glyph-name="exclamdown.uc" horiz-adv-x="263" 
d="M108 0h-38l92 551h28zM199 720q12 0 20.5 -8.5t8.5 -20.5q0 -11 -8.5 -19.5t-20.5 -8.5t-20.5 8.5t-8.5 19.5q0 12 8.5 20.5t20.5 8.5z" />
    <glyph glyph-name="hyphen.uc" horiz-adv-x="355" 
d="M77 353h229l-6 -33h-229z" />
    <glyph glyph-name="endash.uc" horiz-adv-x="489" 
d="M61 351h394l-5 -30h-394z" />
    <glyph glyph-name="emdash.uc" horiz-adv-x="859" 
d="M61 351h764l-5 -30h-764z" />
    <glyph glyph-name="guilsinglleft.uc" horiz-adv-x="270" 
d="M55 301l166 181h38l-167 -182l107 -179h-34z" />
    <glyph glyph-name="guilsinglright.uc" horiz-adv-x="270" 
d="M227 300l-166 -179h-38l167 181l-107 180h34z" />
    <glyph glyph-name="guillemotleft.uc" horiz-adv-x="415" 
d="M55 301l166 181h38l-167 -182l107 -179h-34zM200 301l166 181h38l-167 -182l107 -179h-34z" />
    <glyph glyph-name="guillemotright.uc" horiz-adv-x="415" 
d="M372 300l-166 -179h-38l167 181l-107 180h34zM227 300l-166 -179h-38l167 181l-107 180h34z" />
    <glyph glyph-name="parenleft.uc" horiz-adv-x="281" 
d="M160 -98q-40 61 -69.5 147.5t-29.5 193.5q0 81 17 156.5t48 143.5t75 128t97 112h37q-113 -115 -175.5 -248.5t-62.5 -290.5q0 -104 28.5 -190t68.5 -152h-34v0z" />
    <glyph glyph-name="parenright.uc" horiz-adv-x="281" 
d="M146 783q39 -61 68.5 -147.5t29.5 -193.5q0 -81 -17 -156.5t-48 -143.5t-74.5 -128t-96.5 -112h-38q113 115 176 248.5t63 290.5q0 104 -29 190t-69 152h35v0z" />
    <glyph glyph-name="bracketleft.uc" horiz-adv-x="331" 
d="M177 778h194l-5 -28h-159l-127 -806h159l-5 -28h-194z" />
    <glyph glyph-name="bracketright.uc" horiz-adv-x="331" 
d="M-11 -56h160l127 806h-160l5 28h194l-137 -862h-194z" />
    <glyph glyph-name="braceleft.uc" horiz-adv-x="351" 
d="M255 -89q-99 6 -133.5 56.5t-2.5 144.5l32 89q10 29 11 54t-10 44t-35 30t-64 13l5 27q79 0 112 31t29 94l-7 102q-4 52 8 86.5t37.5 55.5t64.5 30t90 11l-5 -27q-41 -2 -73 -9.5t-53 -24.5t-30.5 -47t-6.5 -76l7 -100q2 -35 -5.5 -60t-23 -41.5t-37.5 -26t-47 -14.5
q50 -13 68.5 -52.5t-4.5 -104.5l-31 -88q-29 -83 -1.5 -123t110.5 -46l-5 -28v0z" />
    <glyph glyph-name="braceright.uc" horiz-adv-x="353" 
d="M121 780q99 -6 133.5 -56.5t2.5 -143.5l-31 -89q-11 -29 -12 -54t10 -44t35 -30t64 -13l-5 -28q-79 1 -112 -30t-28 -95l7 -102q3 -52 -9 -86.5t-37.5 -55.5t-64.5 -30.5t-90 -10.5l5 28q41 1 73 8.5t53 25t30.5 47t6.5 76.5l-7 99q-2 35 5.5 60t23 42t37 26.5t47.5 14.5
q-50 13 -68 52.5t5 104.5l31 87q29 83 1 123.5t-110 45.5l4 28v0z" />
    <glyph glyph-name="slash.uc" horiz-adv-x="383" 
d="M388 778h35l-407 -862h-35z" />
    <glyph glyph-name="backslash.uc" horiz-adv-x="383" 
d="M121 778h33l136 -862h-33z" />
    <glyph glyph-name="bar.uc" horiz-adv-x="233" 
d="M112 778h31v-862h-30z" />
    <glyph glyph-name="at.uc" horiz-adv-x="887" 
d="M461 -59q-98 0 -172 32.5t-124 86.5t-75.5 124t-25.5 146q0 90 35 167t92.5 133.5t133 88t156.5 31.5q87 0 156.5 -27t118 -74t74.5 -111t26 -137q0 -68 -16.5 -115t-42 -76t-56.5 -42.5t-60 -13.5q-51 0 -77.5 25.5t-26.5 75.5q-8 -20 -22.5 -39t-34.5 -34.5t-45 -25
t-54 -9.5q-33 0 -60 11t-46.5 31t-30 49t-10.5 65q0 46 14 89t40 76t62 52.5t78 19.5q54 0 88 -29t41 -74l15 94h33l-35 -226q-10 -56 6 -90t66 -34q28 0 53 12.5t44.5 39t31 68t11.5 99.5q0 69 -22.5 128t-66 101.5t-107 67t-145.5 24.5q-77 0 -147 -29.5t-122.5 -81.5
t-83.5 -124t-31 -157q0 -70 23 -135t68.5 -114.5t113.5 -79t160 -29.5q106 0 176 32t109 80h34q-18 -29 -48.5 -54.5t-71 -45t-91 -31t-109.5 -11.5zM426 175q31 0 60 15.5t51 42.5t35.5 63t13.5 78q1 63 -30.5 100t-86.5 37q-35 0 -64.5 -16.5t-50.5 -45t-33 -66t-12 -79.5
q0 -60 31.5 -94.5t85.5 -34.5z" />
    </font>
</defs>
</svg>
