<?xml version="1.0" standalone="no"?>
<!DOCTYPE svg PUBLIC "-//W3C//DTD SVG 1.1//EN" "http://www.w3.org/Graphics/SVG/1.1/DTD/svg11.dtd" >
<svg xmlns="http://www.w3.org/2000/svg" xmlns:xlink="http://www.w3.org/1999/xlink" version="1.1">
<metadata>
Created by FontForge 20170731 at Thu Dec 17 19:44:00 2015
 By Aleksey,,,
B(c)2009 Commercial Type.
</metadata>
<defs>
<font id="GraphikWeb-SemiboldItalic" horiz-adv-x="612" >
  <font-face 
    font-family="Graphik Web Semibold"
    font-weight="600"
    font-style="italic"
    font-stretch="normal"
    units-per-em="1000"
    panose-1="2 11 7 3 3 2 2 13 2 3"
    ascent="822"
    descent="-178"
    x-height="523"
    cap-height="715"
    bbox="-253 -228 1156 1128"
    underline-thickness="50"
    underline-position="-150"
    slope="-8"
    unicode-range="U+0020-FB02"
  />
<missing-glyph horiz-adv-x="364" 
d="M33 0v666h265v-666h-265zM66 33h199v600h-199v-600z" />
    <glyph glyph-name="f_f" unicode="ff" horiz-adv-x="691" 
d="M428 420h-170l-66 -420h-144l66 420h-68l16 103h68l11 69q7 43 25 74.5t44 51.5t59.5 30t71.5 10q31 0 49.5 -3.5t33.5 -10.5l-17 -107q-10 5 -21 7t-28 2q-33 0 -51 -17t-23 -49l-9 -57h169l13 79q7 43 25 74.5t44.5 51.5t60.5 30t72 10q32 0 50.5 -3.5t33.5 -9.5
l-17 -108q-10 5 -21.5 7t-28.5 2q-35 0 -53 -17.5t-23 -48.5l-11 -67h114l-16 -103h-114l-67 -420h-144z" />
    <glyph glyph-name=".notdef" horiz-adv-x="364" 
d="M33 0v666h265v-666h-265zM66 33h199v600h-199v-600z" />
    <glyph glyph-name=".null" horiz-adv-x="0" 
 />
    <glyph glyph-name="nonmarkingreturn" horiz-adv-x="333" 
 />
    <glyph glyph-name="space" unicode=" " horiz-adv-x="222" 
 />
    <glyph glyph-name="exclam" unicode="!" horiz-adv-x="328" 
d="M155 715h162l-101 -492h-118zM136 -9q-38 0 -63 25t-25 61t25.5 61.5t63.5 25.5t64 -25t26 -61q0 -18 -7 -34t-19.5 -27.5t-29 -18.5t-35.5 -7z" />
    <glyph glyph-name="quotedbl" unicode="&#x22;" horiz-adv-x="442" 
d="M124 715h140l-58 -264h-103zM319 715h140l-59 -264h-102z" />
    <glyph glyph-name="numbersign" unicode="#" horiz-adv-x="557" 
d="M301 256h-75l-37 -157h-102l37 157h-81l19 115h89l23 96h-82l17 111h91l33 137h101l-33 -137h76l33 137h101l-33 -137h83l-17 -111h-92l-23 -96h85l-19 -115h-93l-37 -157h-101zM253 371h75l23 96h-76z" />
    <glyph glyph-name="dollar" unicode="$" horiz-adv-x="646" 
d="M315 -11l-19 -124h-71l20 130q-97 15 -157 73t-62 155h148q1 -42 22.5 -72t66.5 -42l31 196q-51 13 -88.5 30.5t-63 41t-38 55t-12.5 72.5q0 49 20.5 89t56.5 69.5t85.5 45.5t106.5 17l14 88h71l-15 -93q42 -6 78 -21t62.5 -40.5t42 -61t17.5 -83.5h-143q-4 39 -23.5 61
t-51.5 30l-29 -183q50 -13 89.5 -30t67 -40.5t42 -55t14.5 -73.5q0 -55 -20.5 -98.5t-57.5 -73.5t-88.5 -46t-113.5 -16h-2zM449 203q0 30 -18.5 48.5t-67.5 35.5l-30 -185q57 3 86.5 29t29.5 72zM235 522q0 -29 16.5 -47t64.5 -34l27 171q-49 -3 -78.5 -26.5t-29.5 -63.5z
" />
    <glyph glyph-name="percent" unicode="%" horiz-adv-x="823" 
d="M181 530q0 -26 13.5 -48t49.5 -22q37 1 56 31.5t19 71.5q0 27 -13.5 49t-47.5 22q-39 0 -58 -31t-19 -73zM241 371q-36 0 -67.5 11t-54.5 31.5t-36 50t-13 65.5q0 40 14 75t39.5 61t61 41.5t77.5 15.5q36 0 66.5 -11.5t53 -32.5t35.5 -50.5t13 -65.5q0 -39 -14 -73.5
t-39 -60.5t-60 -41.5t-76 -15.5zM667 715h92l-566 -715h-91zM540 149q0 -27 13 -48.5t50 -21.5q36 1 55 31t19 72q0 26 -13.5 48.5t-47.5 22.5q-39 0 -57.5 -31t-18.5 -73zM599 -11q-36 0 -67 11t-54.5 32t-36.5 50.5t-13 65.5q0 39 14 74t39.5 61.5t61 42t77.5 15.5
q36 0 67 -11.5t53.5 -32.5t35.5 -50.5t13 -65.5q0 -39 -14 -73.5t-39.5 -61t-60.5 -42t-76 -15.5z" />
    <glyph glyph-name="ampersand" unicode="&#x26;" horiz-adv-x="744" 
d="M493 0l-44 65q-33 -29 -82.5 -51.5t-113.5 -22.5q-42 0 -81.5 10t-71 32.5t-50.5 58.5t-19 89q0 46 16 82t43 63.5t62 48t73 35.5q-17 29 -26.5 60t-9.5 60q0 46 17 81.5t46.5 60t69 37.5t83.5 13q36 0 69.5 -9.5t60 -28.5t42.5 -49t16 -70q0 -39 -14 -68t-37.5 -51.5
t-54.5 -39t-64 -30.5l88 -136l85 131h132l-151 -232l89 -139h-173zM186 200q0 -43 25.5 -67.5t71.5 -24.5q29 0 57 12.5t49 35.5l-111 167q-18 -8 -34.5 -18.5t-29 -25t-20.5 -34t-8 -45.5zM402 618q-32 0 -52.5 -21.5t-20.5 -59.5q0 -20 9 -42t26 -46q18 8 36 17t32.5 21.5
t23 28.5t8.5 39q0 26 -15.5 44.5t-46.5 18.5z" />
    <glyph glyph-name="quotesingle" unicode="'" horiz-adv-x="252" 
d="M124 715h145l-59 -264h-107z" />
    <glyph glyph-name="parenleft" unicode="(" horiz-adv-x="355" 
d="M152 -148q-22 33 -41 70.5t-33.5 81.5t-23 94.5t-8.5 108.5q0 86 18 165t50.5 150.5t78.5 134.5t103 117h126q-54 -63 -97.5 -127.5t-74.5 -135t-47.5 -148t-16.5 -164.5q0 -104 22.5 -190.5t60.5 -156.5h-117z" />
    <glyph glyph-name="parenright" unicode=")" horiz-adv-x="355" 
d="M217 774q22 -33 41 -70.5t33.5 -81.5t23 -94.5t8.5 -108.5q0 -173 -68 -315.5t-182 -251.5h-126q54 63 97.5 127.5t74.5 135t47.5 148t16.5 164.5q0 104 -22.5 190.5t-60.5 156.5h117z" />
    <glyph glyph-name="asterisk" unicode="*" horiz-adv-x="446" 
d="M101 458l101 91l-116 27l47 100l104 -58l3 125h117l-38 -129l120 43l14 -104l-123 -11l72 -102l-99 -58l-44 120l-79 -112z" />
    <glyph glyph-name="plus" unicode="+" horiz-adv-x="563" 
d="M225 286h-180l18 109h180l30 195h118l-30 -195h179l-17 -109h-180l-30 -195h-118z" />
    <glyph glyph-name="comma" unicode="," horiz-adv-x="310" 
d="M-11 -85l110 246l128 -51l-157 -233z" />
    <glyph glyph-name="hyphen" unicode="-" horiz-adv-x="377" 
d="M71 339h256l-18 -115h-256z" />
    <glyph glyph-name="period" unicode="." horiz-adv-x="305" 
d="M122 -9q-38 0 -63.5 25.5t-25.5 62.5q0 36 25 61.5t63 25.5q19 0 35.5 -7t29 -18.5t19.5 -27.5t7 -34t-7 -34t-19 -28t-28.5 -19t-35.5 -7z" />
    <glyph glyph-name="slash" unicode="/" horiz-adv-x="435" 
d="M374 776h122l-445 -924h-120z" />
    <glyph glyph-name="zero" unicode="0" horiz-adv-x="725" 
d="M343 -11q-69 0 -122 20.5t-89 58t-55 90t-19 116.5q0 20 2 42t5 43l5 32q13 80 43 142t74.5 105t102 65t124.5 22t119 -20.5t88 -58t55 -91t19 -118.5q0 -20 -1.5 -41t-5.5 -41l-5 -33q-25 -159 -113 -246t-227 -87zM350 116q72 0 114 55t59 163l5 31q3 20 5 39.5t2 37.5
q0 31 -6 59.5t-20.5 50.5t-39 35t-61.5 13q-71 0 -115.5 -55t-61.5 -163l-5 -32q-3 -20 -5 -40t-2 -40q0 -30 6 -57.5t21 -49t40 -34.5t64 -13z" />
    <glyph glyph-name="one" unicode="1" horiz-adv-x="443" 
d="M228 555l-160 -97l23 142l183 115h142l-113 -715h-162z" />
    <glyph glyph-name="two" unicode="2" horiz-adv-x="605" 
d="M-26 26l312 276q28 24 53.5 48.5t45 51t31 54.5t11.5 58q0 36 -21.5 61.5t-63.5 25.5q-45 1 -79 -27.5t-51 -103.5h-148q9 65 34 113t63 79.5t87.5 47t106.5 15.5q49 0 92 -13t74.5 -38t49.5 -62.5t18 -86.5q0 -44 -14 -81t-38 -70t-55.5 -63.5t-67.5 -60.5l-152 -127
h273l-19 -123h-546z" />
    <glyph glyph-name="three" unicode="3" horiz-adv-x="647" 
d="M304 -11q-62 0 -112.5 15t-86.5 45t-55.5 74.5t-19.5 103.5h148q0 -25 6.5 -47t21.5 -38t38 -25t56 -9q57 0 90.5 29t33.5 87q0 42 -25.5 66t-80.5 24h-48l17 108h63q47 0 77.5 23t30.5 76q1 42 -24 63.5t-67 21.5q-51 0 -84.5 -27t-45.5 -81h-143q7 51 30 93t60 71.5
t85.5 46t107.5 16.5q45 0 87.5 -10.5t75.5 -33t53 -57.5t20 -85q0 -62 -35.5 -107.5t-101.5 -62.5q53 -15 82 -54t29 -94q0 -57 -23 -100.5t-61.5 -72.5t-90 -44t-108.5 -15z" />
    <glyph glyph-name="four" unicode="4" horiz-adv-x="668" 
d="M363 142h-351l10 59l390 514h199l-73 -457h95l-19 -116h-95l-21 -142h-157zM385 258l51 328l-241 -328h190z" />
    <glyph glyph-name="five" unicode="5" horiz-adv-x="627" 
d="M285 -11q-53 0 -99 13t-81 40t-55.5 69.5t-21.5 101.5h152q2 -46 27 -73t79 -27q60 0 93 39t33 105q1 50 -27 79.5t-84 29.5q-47 0 -80 -16.5t-56 -41.5h-87l72 407h452l-19 -123h-332l-30 -175q24 25 63 43.5t94 18.5q44 0 80.5 -14t63 -41t40.5 -66t14 -88
q0 -63 -20.5 -114.5t-59 -88.5t-92 -57.5t-119.5 -20.5z" />
    <glyph glyph-name="six" unicode="6" horiz-adv-x="666" 
d="M328 -11q-128 0 -200 67.5t-71 198.5q0 23 2 46.5t6 48.5l4 27q11 70 37.5 133t69 111t101 76t133.5 28q49 0 91.5 -12t73.5 -36t49 -61.5t20 -88.5h-150q-3 35 -23 55.5t-66 20.5q-41 0 -70.5 -18.5t-50.5 -49t-34 -70.5t-21 -83q29 37 71.5 61t102.5 24q43 0 82 -14
t68 -40t46.5 -64.5t17.5 -87.5q0 -62 -22 -112t-61 -85.5t-92 -55t-114 -19.5zM216 220q0 -23 7 -44t21 -36.5t35 -24.5t50 -9t52.5 11.5t40.5 31t26 46t9 57.5q0 22 -6.5 41.5t-20 34.5t-34.5 23.5t-49 8.5t-52 -11t-41.5 -29.5t-27.5 -44t-10 -55.5z" />
    <glyph glyph-name="seven" unicode="7" horiz-adv-x="570" 
d="M391 584h-310l21 131h517l-3 -18l-371 -697h-167z" />
    <glyph glyph-name="eight" unicode="8" horiz-adv-x="651" 
d="M308 -11q-52 0 -100.5 12t-86.5 36.5t-61 62t-23 87.5q0 79 44.5 129t116.5 72q-39 19 -61.5 53.5t-22.5 76.5q0 49 21 88t57 65t83.5 40t100.5 14q43 0 86.5 -11t78 -34t56 -58t21.5 -83q0 -63 -35 -103.5t-93 -60.5q52 -20 80 -62t28 -94q0 -57 -22.5 -100t-61.5 -72
t-92 -43.5t-114 -14.5zM200 209q0 -48 32 -75t83 -27q54 0 89 31t35 89q0 47 -30.5 73.5t-78.5 26.5q-55 0 -92.5 -29.5t-37.5 -88.5zM263 513q0 -37 26.5 -62t71.5 -25q20 0 39 5.5t34 17.5t24 30.5t9 44.5q0 38 -26.5 63t-70.5 25q-21 0 -40.5 -6t-34 -18.5t-23.5 -31
t-9 -43.5z" />
    <glyph glyph-name="nine" unicode="9" horiz-adv-x="667" 
d="M287 -10q-49 0 -92.5 11t-77.5 35.5t-55 63t-24 93.5h152q6 -45 32.5 -62.5t71.5 -17.5q68 0 109.5 54.5t60.5 160.5q-28 -37 -70 -59t-102 -22q-42 0 -81 12.5t-68.5 38t-47.5 63.5t-18 90q0 62 22 112.5t61 86.5t93 56t117 20q127 0 196.5 -69t70.5 -200
q0 -22 -1.5 -45t-6.5 -48l-5 -31q-29 -174 -113 -258.5t-224 -84.5zM235 463q0 -48 25.5 -78t75.5 -30q29 0 54.5 9t44.5 27t30 44t11 60q0 22 -6.5 43t-20 36.5t-34 25t-49.5 9.5t-53 -10.5t-41 -30t-27 -46.5t-10 -59z" />
    <glyph glyph-name="colon" unicode=":" horiz-adv-x="312" 
d="M125 -9q-38 0 -63.5 25.5t-25.5 62.5q0 36 25 61.5t63 25.5q19 0 35.5 -7t29 -18.5t19.5 -27.5t7 -34t-7 -34t-19 -28t-28.5 -19t-35.5 -7zM171 281q-38 0 -63 25.5t-25 62.5q0 36 24.5 61.5t62.5 25.5q19 0 36 -7t29.5 -18.5t19.5 -27.5t7 -34t-7 -34t-19.5 -28t-29 -19
t-35.5 -7z" />
    <glyph glyph-name="semicolon" unicode=";" horiz-adv-x="322" 
d="M-20 -85l111 246l127 -51l-157 -233zM189 281q-38 0 -63.5 25.5t-25.5 62.5q0 36 25 61.5t63 25.5q19 0 35.5 -7t29 -18.5t19.5 -27.5t7 -34t-7 -34t-19 -28t-28.5 -19t-35.5 -7z" />
    <glyph glyph-name="less" unicode="&#x3c;" horiz-adv-x="521" 
d="M58 312l5 30l445 230l-21 -135l-236 -115l198 -123l-20 -127z" />
    <glyph glyph-name="equal" unicode="=" horiz-adv-x="542" 
d="M47 281h452l-16 -103h-452zM77 472h452l-16 -104h-452z" />
    <glyph glyph-name="greater" unicode="&#x3e;" horiz-adv-x="521" 
d="M480 333l-5 -30l-444 -230l21 136l236 115l-199 123l20 126z" />
    <glyph glyph-name="question" unicode="?" horiz-adv-x="544" 
d="M176 255q5 33 18.5 58.5t31 46t38 37t40.5 31.5q36 27 60.5 51t24.5 63q-1 30 -20 47.5t-55 17.5q-39 0 -67 -25.5t-37 -77.5h-140q7 55 28.5 96.5t55 69t77 41.5t93.5 14q54 0 94.5 -13.5t68 -37t41.5 -55t14 -68.5q0 -34 -9 -60t-24.5 -47.5t-36 -39.5t-42.5 -34
q-19 -14 -39 -27.5t-37.5 -30t-30.5 -36.5t-17 -47l-1 -6h-134zM218 -9q-38 0 -63.5 25t-25.5 61q0 37 25.5 62t63.5 25t64 -25t26 -61q0 -18 -7 -34t-19 -27.5t-28.5 -18.5t-35.5 -7z" />
    <glyph glyph-name="at" unicode="@" horiz-adv-x="929" 
d="M655 196q-9 -71 44 -71q21 0 41.5 11.5t37.5 35.5t27.5 62t10.5 91q0 66 -23 121t-65.5 94t-104 60.5t-137.5 21.5q-77 0 -142.5 -26.5t-114.5 -74.5t-76.5 -116t-27.5 -151q0 -70 22 -132t65.5 -108t108 -73t150.5 -27q85 0 146 24t103 62h86q-23 -35 -57 -63
t-77.5 -48.5t-95 -31.5t-107.5 -11q-101 0 -180 32.5t-134 88.5t-83.5 130.5t-28.5 157.5q0 96 36 176t97.5 137.5t141.5 89.5t169 32q88 0 162.5 -27t128.5 -75.5t84.5 -115.5t30.5 -147q0 -73 -19 -124t-50 -82.5t-69 -46t-75 -14.5q-60 0 -92 22.5t-41 60.5
q-20 -39 -55 -63t-88 -24q-71 0 -113.5 46t-43.5 127q0 53 16 97.5t43.5 76.5t65 50t80.5 18q50 0 76 -18.5t36 -44.5l9 55h124zM444 152q20 0 38.5 10t32.5 28.5t22.5 44t8.5 56.5q0 39 -20 59.5t-54 20.5q-41 0 -69.5 -36.5t-28.5 -102.5q0 -38 19 -59t51 -21z" />
    <glyph glyph-name="A" unicode="A" horiz-adv-x="718" 
d="M466 159h-259l-73 -159h-156l348 715h211l119 -715h-166zM261 274h188l-45 309z" />
    <glyph glyph-name="B" unicode="B" horiz-adv-x="671" 
d="M154 715h258q114 0 168 -46t53 -126q0 -69 -36 -112.5t-101 -60.5q57 -13 89.5 -50t33.5 -102q0 -50 -19 -90t-54 -68.5t-84 -44t-110 -15.5h-311zM333 112q64 0 96 31.5t32 82.5q0 45 -26.5 68t-89.5 23h-96l-33 -205h117zM363 421q62 0 91 26.5t29 77.5q0 42 -23 60.5
t-74 18.5h-92l-29 -183h98z" />
    <glyph glyph-name="C" unicode="C" horiz-adv-x="761" 
d="M396 -11q-77 0 -139.5 21t-106.5 61t-67.5 98.5t-23.5 133.5q0 90 27.5 167.5t78.5 134.5t123.5 89t162.5 32q64 0 117.5 -16.5t92.5 -49t61.5 -81t25.5 -113.5h-161q-8 65 -41.5 99t-99.5 34q-53 0 -93.5 -23t-68 -63t-42 -92.5t-14.5 -112.5q0 -43 9.5 -78t30.5 -60
t53.5 -38.5t76.5 -13.5q66 0 109.5 36.5t62.5 102.5h159q-12 -65 -42 -115t-74 -84t-99.5 -51.5t-117.5 -17.5z" />
    <glyph glyph-name="D" unicode="D" horiz-adv-x="742" 
d="M154 715h210q90 0 156.5 -22t110 -61.5t65 -96t21.5 -125.5q0 -93 -28.5 -168.5t-82.5 -129.5t-131 -83t-173 -29h-261zM301 126q119 0 183.5 72.5t64.5 206.5q0 84 -44.5 134.5t-144.5 50.5h-64l-73 -464h78z" />
    <glyph glyph-name="E" unicode="E" horiz-adv-x="610" 
d="M154 715h463l-20 -126h-302l-26 -167h243l-18 -118h-243l-29 -178h321l-20 -126h-482z" />
    <glyph glyph-name="F" unicode="F" horiz-adv-x="585" 
d="M154 715h459l-21 -127h-297l-29 -189h235l-20 -122h-235l-43 -277h-162z" />
    <glyph glyph-name="G" unicode="G" horiz-adv-x="793" 
d="M404 -11q-80 0 -144 22.5t-108.5 64t-68 101t-23.5 133.5q0 87 29 163t81.5 132t124.5 88t158 32q60 0 114 -14.5t95 -44.5t67 -77t29 -113h-161q-6 61 -44.5 91t-104.5 30q-53 0 -94 -23t-69 -62t-43 -91t-15 -110q0 -91 45 -144t136 -53q41 0 72 11.5t53 31.5
t35.5 47.5t19.5 60.5h-161l19 118h321q-14 -201 -104.5 -297.5t-258.5 -96.5z" />
    <glyph glyph-name="H" unicode="H" horiz-adv-x="776" 
d="M154 715h162l-46 -292h286l47 292h162l-113 -715h-162l46 295h-287l-46 -295h-162z" />
    <glyph glyph-name="I" unicode="I" horiz-adv-x="338" 
d="M158 715h163l-113 -715h-163z" />
    <glyph glyph-name="J" unicode="J" horiz-adv-x="469" 
d="M140 -9q-58 0 -89.5 9.5t-49.5 19.5l19 122q19 -8 41.5 -15t54.5 -7q45 0 73 23.5t36 78.5l78 493h163l-80 -501q-18 -116 -83 -169.5t-163 -53.5z" />
    <glyph glyph-name="K" unicode="K" horiz-adv-x="698" 
d="M154 715h162l-49 -307l301 307h177l-342 -343l235 -372h-177l-206 331l-52 -331h-162z" />
    <glyph glyph-name="L" unicode="L" horiz-adv-x="572" 
d="M154 715h162l-93 -588h291l-20 -127h-453z" />
    <glyph glyph-name="M" unicode="M" horiz-adv-x="922" 
d="M154 715h207l98 -444l235 444h216l-113 -715h-161l80 504l-278 -504h-53l-119 504l-80 -504h-145z" />
    <glyph glyph-name="N" unicode="N" horiz-adv-x="770" 
d="M154 715h189l194 -471l75 471h146l-113 -715h-163l-215 509l-80 -509h-146z" />
    <glyph glyph-name="O" unicode="O" horiz-adv-x="828" 
d="M799 406q0 -92 -30 -168.5t-83 -131.5t-127 -86t-161 -31q-72 0 -134 22t-107.5 63t-71.5 99.5t-26 131.5q0 90 30 167t83 133.5t126 88t160 31.5q75 0 138 -22.5t108 -64t70 -100.5t25 -132zM630 402q0 40 -11 75.5t-32.5 62t-54.5 42t-78 15.5q-54 0 -96 -23t-71.5 -63
t-44.5 -92t-15 -109q0 -88 47.5 -140.5t132.5 -52.5q53 0 94.5 23t70 62t43.5 90.5t15 109.5z" />
    <glyph glyph-name="P" unicode="P" horiz-adv-x="638" 
d="M154 715h236q118 0 183 -51.5t65 -146.5q0 -66 -22 -114.5t-61 -80t-92 -47t-115 -15.5h-104l-41 -260h-162zM345 373q68 0 103 33.5t35 96.5q0 90 -111 90h-76l-35 -220h84z" />
    <glyph glyph-name="Q" unicode="Q" horiz-adv-x="828" 
d="M398 -11q-72 0 -134 22t-107.5 63t-71.5 99.5t-26 131.5q0 90 30 167t83 133.5t126.5 88t160.5 31.5q75 0 137.5 -22.5t107.5 -64t70 -100.5t25 -132q0 -105 -38.5 -188.5t-105.5 -139.5l67 -83l-106 -88l-83 103q-32 -10 -65.5 -15.5t-69.5 -5.5zM406 114q23 0 40 4
l-60 74l107 87l71 -89q32 39 49 94t17 118q0 40 -11 75.5t-32.5 62t-54.5 42t-78 15.5q-54 0 -96.5 -23t-71.5 -63t-44 -92t-15 -109q0 -44 12.5 -80t35.5 -61.5t56 -40t75 -14.5z" />
    <glyph glyph-name="R" unicode="R" horiz-adv-x="684" 
d="M154 715h249q118 0 183 -50.5t64 -144.5q0 -47 -14 -83.5t-38 -63.5t-57 -44.5t-71 -25.5l150 -303h-167l-136 276h-72l-43 -276h-161zM358 386q65 0 99 28.5t34 89.5q1 45 -26.5 66t-80.5 21h-88l-33 -205h95z" />
    <glyph glyph-name="S" unicode="S" horiz-adv-x="652" 
d="M315 -11q-71 0 -125 17.5t-90.5 48.5t-54.5 74t-18 95h154q1 -23 8.5 -44t24 -37.5t42.5 -26t64 -9.5q59 -1 90 25.5t31 72.5q0 34 -25.5 54.5t-94.5 37.5q-60 14 -103 31.5t-70.5 41.5t-40.5 56t-13 76q0 46 18.5 87t53 71t85 47.5t113.5 17.5q59 0 106.5 -13t80.5 -40
t51 -67t18 -94h-148q-4 52 -34 73.5t-81 21.5q-55 0 -81 -24.5t-26 -62.5q0 -15 5.5 -27t19.5 -22t37 -18.5t59 -17.5q58 -14 101 -31.5t71.5 -41.5t42.5 -56.5t14 -76.5q0 -52 -19 -96t-55.5 -75.5t-89.5 -49.5t-121 -18z" />
    <glyph glyph-name="T" unicode="T" horiz-adv-x="609" 
d="M273 589h-193l21 126h549l-21 -126h-193l-92 -589h-163z" />
    <glyph glyph-name="U" unicode="U" horiz-adv-x="751" 
d="M359 -11q-76 0 -133.5 19.5t-93.5 58.5t-49 97t-1 135l66 416h163l-67 -420q-15 -94 14 -135.5t104 -41.5q68 0 102.5 38.5t48.5 122.5l69 436h163l-72 -452q-21 -134 -97 -204t-217 -70z" />
    <glyph glyph-name="V" unicode="V" horiz-adv-x="701" 
d="M90 715h166l83 -549l257 549h157l-351 -715h-186z" />
    <glyph glyph-name="W" unicode="W" horiz-adv-x="963" 
d="M90 715h164l32 -501l202 501h130l54 -504l193 504h150l-289 -715h-157l-52 481l-202 -481h-160z" />
    <glyph glyph-name="X" unicode="X" horiz-adv-x="693" 
d="M265 375l-154 340h173l101 -240l170 240h167l-255 -351l165 -364h-175l-114 267l-192 -267h-169z" />
    <glyph glyph-name="Y" unicode="Y" horiz-adv-x="659" 
d="M259 309l-171 406h170l105 -272l184 272h163l-289 -416l-48 -299h-163z" />
    <glyph glyph-name="Z" unicode="Z" horiz-adv-x="626" 
d="M-15 20l428 570h-301l20 125h534l-3 -19l-423 -570h318l-20 -126h-556z" />
    <glyph glyph-name="bracketleft" unicode="[" horiz-adv-x="402" 
d="M160 776h276l-17 -107h-131l-112 -710h131l-17 -107h-276z" />
    <glyph glyph-name="backslash" unicode="\" horiz-adv-x="435" 
d="M92 776h114l174 -924h-114z" />
    <glyph glyph-name="bracketright" unicode="]" horiz-adv-x="470" 
d="M-2 -41h130l112 710h-130l17 107h275l-146 -924h-275z" />
    <glyph glyph-name="asciicircum" unicode="^" horiz-adv-x="534" 
d="M270 715h130l118 -316h-124l-75 198l-133 -198h-129z" />
    <glyph glyph-name="underscore" unicode="_" horiz-adv-x="431" 
d="M-49 -81h420l-13 -79h-420z" />
    <glyph glyph-name="grave" unicode="`" horiz-adv-x="412" 
d="M125 753h150l42 -159h-102z" />
    <glyph glyph-name="a" unicode="a" horiz-adv-x="575" 
d="M188 -11q-75 0 -121 39t-46 108q0 50 19.5 84t55 54.5t84.5 29.5t108 9h86l3 22q7 46 -8.5 70.5t-65.5 24.5q-42 0 -63.5 -19.5t-29.5 -54.5h-138q10 48 32 81.5t53.5 55.5t70 32t82.5 10q112 0 169 -52t39 -164l-25 -159q-8 -51 -10.5 -89t1.5 -71h-138q-3 18 -3.5 36.5
t0.5 35.5q-25 -37 -63 -60t-92 -23zM237 89q45 0 77 25t39 72l7 41h-68q-66 0 -97 -17t-31 -59q0 -26 18 -44t55 -18z" />
    <glyph glyph-name="b" unicode="b" horiz-adv-x="649" 
d="M358 -11q-69 0 -112 30t-60 70l-14 -89h-144l120 760h144l-50 -316q27 42 71.5 66.5t104.5 24.5q42 0 78 -15t62 -44t41 -71.5t15 -96.5q0 -71 -18.5 -129.5t-52.5 -100.5t-81 -65.5t-104 -23.5zM324 100q33 0 59 14.5t44 41t27.5 62.5t9.5 80q0 62 -27 95t-78 33
q-33 0 -61 -14.5t-48.5 -40.5t-32 -63t-11.5 -82q0 -60 31 -93t87 -33z" />
    <glyph glyph-name="c" unicode="c" horiz-adv-x="582" 
d="M293 -10q-58 0 -105.5 16t-81.5 47t-52.5 75.5t-18.5 100.5q0 71 22 127.5t60.5 96t91 60.5t112.5 21q48 0 89.5 -12t72.5 -36.5t50 -63t21 -91.5h-136q-5 51 -31 70.5t-70 19.5q-32 0 -57.5 -14t-43 -39.5t-27 -61t-9.5 -78.5q0 -62 28.5 -96.5t89.5 -34.5
q44 0 75.5 25.5t40.5 75.5h131q-15 -100 -81.5 -154t-170.5 -54z" />
    <glyph glyph-name="d" unicode="d" horiz-adv-x="646" 
d="M238 -11q-44 0 -81.5 15t-64.5 44.5t-42 72t-15 97.5q0 70 19 128.5t54 100.5t83.5 65t107.5 23q66 0 105 -26.5t58 -65.5l50 317h145l-94 -600q-8 -52 -11 -89.5t0 -70.5h-142q-2 20 -2 41t2 44q-29 -47 -71 -71.5t-101 -24.5zM291 99q32 0 59.5 13.5t47.5 39.5t31.5 63
t11.5 85q0 60 -31 92.5t-82 32.5q-33 0 -60 -14.5t-45.5 -40.5t-28.5 -62.5t-10 -79.5q0 -61 27.5 -95t79.5 -34z" />
    <glyph glyph-name="e" unicode="e" horiz-adv-x="592" 
d="M177 214q0 -55 26.5 -88.5t88.5 -33.5q45 0 73 19t39 54h137q-11 -44 -33.5 -76.5t-55.5 -55t-74.5 -33.5t-89.5 -11q-56 0 -102.5 15t-80 44.5t-52.5 73t-19 99.5q0 70 22 128t60.5 99t91.5 64t115 23q60 0 108 -18.5t78.5 -54.5t42.5 -89t2 -121l-4 -23h-373v-15z
M322 435q-42 0 -78.5 -27t-54.5 -90h230q5 57 -18 87t-79 30z" />
    <glyph glyph-name="f" unicode="f" horiz-adv-x="377" 
d="M62 523h68l13 79q7 43 25 74.5t44.5 51.5t60.5 30t72 10q32 0 50.5 -3.5t33.5 -9.5l-17 -108q-10 5 -21.5 7t-28.5 2q-35 0 -53 -17.5t-23 -48.5l-11 -67h114l-16 -103h-114l-67 -420h-144l66 420h-68z" />
    <glyph glyph-name="g" unicode="g" horiz-adv-x="646" 
d="M292 131q32 0 59.5 13t47.5 36t31 56t11 74q0 54 -31 85t-82 31q-34 0 -60 -14.5t-44 -38.5t-27 -55t-9 -64q0 -55 26 -89t78 -34zM540 29q-18 -112 -83.5 -167t-193.5 -55q-69 0 -117 15.5t-79 41t-45.5 58t-17.5 67.5h144q5 -30 30.5 -53t81.5 -23q67 0 97 32t39 87
l12 74q-27 -41 -67 -62t-96 -21q-45 0 -83 15t-65 43.5t-42.5 69.5t-15.5 94q0 62 19 115t53.5 92t82 61t103.5 22q66 0 105.5 -26.5t58.5 -65.5l13 80h144z" />
    <glyph glyph-name="h" unicode="h" horiz-adv-x="623" 
d="M148 760h144l-50 -324q26 42 68 70.5t106 28.5q38 0 69.5 -12.5t52.5 -39t28.5 -68.5t-1.5 -101l-50 -314h-144l49 313q18 104 -70 104q-51 0 -86.5 -31.5t-44.5 -91.5l-47 -294h-144z" />
    <glyph glyph-name="i" unicode="i" horiz-adv-x="293" 
d="M208 595q-35 0 -58 22t-23 56q0 33 23.5 55.5t58.5 22.5t58 -22t23 -55q0 -34 -23.5 -56.5t-58.5 -22.5zM115 523h144l-83 -523h-144z" />
    <glyph glyph-name="j" unicode="j" horiz-adv-x="293" 
d="M-49 -79q38 2 56 18.5t23 48.5l85 535h143l-86 -548q-6 -36 -20.5 -66.5t-42 -52t-70.5 -32.5t-104 -9zM208 595q-35 0 -58 22t-23 56q0 33 23.5 55.5t58.5 22.5t58 -22t23 -55q0 -34 -23.5 -56.5t-58.5 -22.5z" />
    <glyph glyph-name="k" unicode="k" horiz-adv-x="564" 
d="M148 760h144l-72 -456l202 219h161l-233 -241l160 -282h-158l-139 255l-40 -255h-145z" />
    <glyph glyph-name="l" unicode="l" horiz-adv-x="292" 
d="M152 760h144l-120 -760h-144z" />
    <glyph glyph-name="m" unicode="m" horiz-adv-x="928" 
d="M84 357q9 56 12.5 93.5t5.5 72.5h139q0 -20 -1 -43t-4 -48q27 45 71 74t101 29q53 0 88.5 -25t48.5 -78q38 57 84.5 80t94.5 23q37 0 68.5 -12t51.5 -38t28 -66t-1 -97l-50 -322h-145l50 312q8 54 -8.5 79.5t-57.5 25.5t-74 -28t-42 -86l-48 -303h-143l49 315
q16 102 -66 102q-43 0 -75 -29t-41 -85l-48 -303h-144z" />
    <glyph glyph-name="n" unicode="n" horiz-adv-x="623" 
d="M84 357q9 56 12.5 93.5t5.5 72.5h139q0 -20 -1 -45t-4 -49q28 45 72 75.5t108 30.5q38 0 69.5 -12.5t52.5 -39t28.5 -68.5t-1.5 -101l-50 -314h-144l49 313q18 104 -70 104q-51 0 -86.5 -31.5t-44.5 -91.5l-47 -294h-144z" />
    <glyph glyph-name="o" unicode="o" horiz-adv-x="618" 
d="M289 -11q-54 0 -100 16t-80 46t-54 74t-20 101q0 66 22 122.5t61 98t92.5 64.5t117.5 23q54 0 100.5 -15.5t81 -45.5t54 -74.5t19.5 -101.5q0 -68 -21.5 -124.5t-60.5 -97t-93 -63.5t-119 -23zM293 99q35 0 61.5 15.5t44.5 42.5t27.5 64t9.5 80q0 54 -27 89t-84 35
q-34 0 -61 -15t-45.5 -42t-28.5 -63.5t-10 -79.5q0 -27 6.5 -50t20 -40t35 -26.5t51.5 -9.5z" />
    <glyph glyph-name="p" unicode="p" horiz-adv-x="649" 
d="M418 535q42 0 78 -15t62 -44t41 -71.5t15 -96.5q0 -71 -18.5 -129.5t-52 -100.5t-81 -65.5t-104.5 -23.5q-69 0 -112 30t-60 70l-42 -267h-144l84 535q9 56 12.5 93.5t5.5 72.5h139q0 -20 -1 -43t-3 -46q29 48 75 74.5t106 26.5zM324 100q33 0 59 14.5t44 41t27.5 62.5
t9.5 80q0 62 -27 95t-78 33q-33 0 -61 -14.5t-48.5 -40.5t-32 -63t-11.5 -82q0 -60 31 -93t87 -33z" />
    <glyph glyph-name="q" unicode="q" horiz-adv-x="649" 
d="M405 75q-27 -40 -67.5 -63t-99.5 -23q-44 0 -81.5 15t-64.5 44.5t-42 72t-15 97.5q0 70 19 128.5t54 100.5t83.5 65t107.5 23q66 0 105 -26.5t58 -65.5l13 80h144l-110 -701h-145zM291 99q32 0 59.5 13.5t47.5 39.5t31.5 63t11.5 85q0 60 -31 92.5t-82 32.5
q-33 0 -60 -14.5t-45.5 -40.5t-28.5 -62.5t-10 -79.5q0 -61 27.5 -95t79.5 -34z" />
    <glyph glyph-name="r" unicode="r" horiz-adv-x="421" 
d="M84 357q9 56 12.5 93.5t4.5 72.5h140q0 -20 -1.5 -49t-5.5 -61q32 58 76 88t115 30l-21 -135q-81 1 -130 -32t-62 -118l-40 -246h-144z" />
    <glyph glyph-name="s" unicode="s" horiz-adv-x="513" 
d="M236 -12q-106 0 -164 47t-59 129h135q2 -32 22 -53t71 -21q77 0 77 58q0 12 -4.5 21t-15 16.5t-29 13.5t-46.5 12q-89 19 -128 54t-39 100q0 42 17 74t46.5 53.5t68.5 32t84 10.5q44 0 81.5 -9t65 -28.5t43.5 -50.5t19 -74h-132q-2 27 -23 45t-58 18t-56.5 -14t-19.5 -40
q0 -23 20.5 -35.5t70.5 -23.5q46 -10 79 -22.5t55 -31t32.5 -45t10.5 -63.5q0 -42 -16.5 -74.5t-46 -54t-70.5 -33t-91 -11.5z" />
    <glyph glyph-name="t" unicode="t" horiz-adv-x="382" 
d="M223 -10q-87 0 -125.5 45t-24.5 134l40 251h-67l16 103h67l18 113h145l-19 -113h109l-16 -103h-109l-39 -248q-6 -38 7 -52t43 -14q13 0 27 2.5t28 7.5l-18 -112q-15 -6 -35.5 -10t-46.5 -4z" />
    <glyph glyph-name="u" unicode="u" horiz-adv-x="621" 
d="M533 160q-8 -52 -11 -89.5t-1 -70.5h-140q-2 20 -1.5 42t3.5 46q-29 -43 -69.5 -71t-102.5 -28q-41 0 -73.5 12.5t-53.5 39.5t-29 68.5t1 99.5l50 314h144l-50 -319q-8 -51 9 -77.5t59 -26.5q51 0 86 31.5t44 91.5l48 300h144z" />
    <glyph glyph-name="v" unicode="v" horiz-adv-x="568" 
d="M57 523h150l60 -377l180 377h145l-271 -523h-162z" />
    <glyph glyph-name="w" unicode="w" horiz-adv-x="819" 
d="M60 523h148l34 -355l153 355h119l36 -355l149 355h142l-243 -523h-142l-35 331l-146 -331h-144z" />
    <glyph glyph-name="x" unicode="x" horiz-adv-x="563" 
d="M192 272l-126 251h159l74 -155l119 155h154l-205 -251l139 -272h-160l-82 175l-138 -175h-154z" />
    <glyph glyph-name="y" unicode="y" horiz-adv-x="563" 
d="M183 59l-126 464h149l73 -315l162 315h146l-390 -701h-146z" />
    <glyph glyph-name="z" unicode="z" horiz-adv-x="506" 
d="M-20 16l312 396h-225l17 111h438l-3 -18l-312 -393h242l-17 -112h-454z" />
    <glyph glyph-name="braceleft" unicode="{" horiz-adv-x="417" 
d="M304 -148q-134 3 -187.5 62.5t-15.5 171.5l29 84q15 43 -4 70t-84 30l15 101q66 -1 93 22t25 71l-1 92q-1 63 15.5 105.5t51 68t87 36.5t123.5 11l-17 -106q-35 -1 -58 -7t-36.5 -20t-19.5 -36.5t-6 -55.5l-1 -98q-1 -61 -33 -94.5t-88 -45.5q55 -14 74.5 -52.5
t0.5 -98.5l-27 -86q-21 -64 -2.5 -90t83.5 -30z" />
    <glyph glyph-name="bar" unicode="|" horiz-adv-x="274" 
d="M99 776h104v-924h-104v924z" />
    <glyph glyph-name="braceright" unicode="}" horiz-adv-x="417" 
d="M127 777q134 -4 187 -63.5t16 -171.5l-29 -84q-14 -42 5 -70t84 -33l-15 -101q-67 3 -93 -19t-26 -70l2 -93q0 -63 -16.5 -105.5t-51 -68t-87 -36.5t-123.5 -10l17 105q34 1 57.5 7.5t37 20t19.5 36t6 55.5l1 102q1 63 34 94.5t87 40.5q-54 16 -74 55t-2 94l28 89
q21 64 2.5 89.5t-83.5 30.5z" />
    <glyph glyph-name="asciitilde" unicode="~" horiz-adv-x="504" 
d="M35 218q7 46 21.5 78.5t34 53.5t42.5 30.5t47 9.5q26 0 48 -7.5t40.5 -16t33.5 -16t28 -7.5q19 0 32.5 12.5t18.5 36.5h98q-6 -45 -20.5 -77.5t-34 -53.5t-42.5 -31.5t-47 -10.5q-27 0 -49.5 7.5t-41 16t-33.5 16t-28 7.5q-19 0 -32 -12.5t-18 -35.5h-98z" />
    <glyph glyph-name="exclamdown" unicode="&#xa1;" horiz-adv-x="329" 
d="M183 -117h-162l101 492h118zM202 607q38 0 63 -25t25 -61t-25.5 -61.5t-63.5 -25.5t-64 25t-26 61q0 18 7 34t19.5 27.5t29 18.5t35.5 7z" />
    <glyph glyph-name="cent" unicode="&#xa2;" horiz-adv-x="594" 
d="M232 -5q-44 8 -80.5 27t-62.5 48t-40.5 68t-14.5 86q0 69 21.5 125t60 96t90.5 63t112 26l15 95h71l-16 -100q78 -12 126.5 -60t53.5 -139h-132q-2 39 -19.5 60.5t-45.5 29.5l-52 -327q42 4 71.5 28t40.5 77h127q-7 -51 -29 -89.5t-55.5 -65t-77.5 -40t-94 -14.5
l-19 -124h-71zM175 225q0 -100 74 -125l51 324q-55 -10 -90 -60t-35 -139z" />
    <glyph glyph-name="sterling" unicode="&#xa3;" horiz-adv-x="647" 
d="M67 396h56q-2 18 -3 36t-1 38q0 56 18.5 103t54 80.5t85.5 52.5t113 19q53 0 97 -12t76 -39t50 -69t18 -102h-152q-2 46 -21.5 72t-69.5 26q-33 0 -54.5 -12t-34.5 -32.5t-18.5 -47t-5.5 -56.5v-29q0 -14 1 -28h194l-16 -99h-174v-29q0 -31 -6 -60t-21 -57
q37 -11 69 -21.5t58 -10.5q30 0 50 15.5t27 53.5h143q-6 -43 -21.5 -79t-41 -62.5t-61.5 -41t-83 -14.5q-35 0 -67 8.5t-59.5 19t-51.5 19.5t-43 9q-25 0 -38.5 -14t-17.5 -33h-122q8 53 38 97t82 61q23 46 23 102q0 9 -0.5 18t-1.5 19h-84z" />
    <glyph glyph-name="yen" unicode="&#xa5;" horiz-adv-x="633" 
d="M91 356h144l-141 359h171l87 -266l169 266h159l-245 -359h145l-10 -67h-164l-10 -61h163l-10 -66h-163l-26 -162h-161l25 162h-164l10 66h164l10 61h-163z" />
    <glyph glyph-name="brokenbar" unicode="&#xa6;" horiz-adv-x="274" 
d="M99 300h104v-448h-104v448zM99 776h104v-406h-104v406z" />
    <glyph glyph-name="section" unicode="&#xa7;" horiz-adv-x="594" 
d="M250 -137q-42 0 -80 10t-67 31.5t-45.5 54.5t-15.5 80h135q1 -35 19.5 -54.5t60.5 -19.5q31 0 53.5 16t22.5 48q0 25 -24.5 43t-88.5 40q-41 14 -75 30t-58 37t-37 48t-13 62q0 31 10 56t28 43.5t42.5 31t52.5 20.5q-17 19 -26 41.5t-9 52.5q0 47 18 82.5t48.5 59.5
t71 36.5t85.5 12.5q42 0 78 -9.5t63 -30.5t42.5 -54t16.5 -80h-137q-1 35 -17 52t-54 18q-32 0 -54.5 -15t-22.5 -50q0 -25 22.5 -42.5t82.5 -37.5q42 -14 76 -30t58.5 -37.5t38 -49.5t13.5 -65q0 -31 -9.5 -54.5t-27 -41t-41.5 -30t-53 -21.5q18 -18 28.5 -42.5t10.5 -52.5
q0 -48 -18 -83.5t-48.5 -59t-70.5 -35t-85 -11.5zM353 206q12 3 24.5 7t22 11.5t15.5 18t6 26.5q0 26 -22.5 43t-67.5 35l-81 32q-24 -3 -46.5 -18t-22.5 -46q0 -24 21 -40.5t68 -35.5z" />
    <glyph glyph-name="dieresis" unicode="&#xa8;" horiz-adv-x="412" 
d="M168 600q-31 0 -52.5 20.5t-21.5 50.5t22 51.5t53 21.5q30 0 51.5 -21t21.5 -51q0 -29 -21.5 -50.5t-52.5 -21.5zM371 600q-30 0 -51.5 20.5t-21.5 50.5t21.5 51.5t52.5 21.5t52 -21t21 -51q0 -29 -21 -50.5t-53 -21.5z" />
    <glyph glyph-name="copyright" unicode="&#xa9;" horiz-adv-x="855" 
d="M444 152q-102 0 -153 55t-51 146v8q0 46 15 83t42 63.5t64 41t80 14.5q76 0 125.5 -36.5t56.5 -113.5h-109q-9 65 -73 65q-42 0 -65.5 -30t-23.5 -87v-7q0 -57 23 -86.5t68 -29.5q32 0 53.5 17t26.5 52h104q-3 -38 -17.5 -67t-38.5 -48.5t-56.5 -29.5t-70.5 -10zM438 32
q66 0 124.5 23.5t102.5 66.5t69.5 103.5t25.5 133.5q0 72 -25 131.5t-68.5 102.5t-102 66.5t-124.5 23.5q-67 0 -125.5 -24t-102 -67t-68.5 -103t-25 -132q0 -73 26 -133t69.5 -102.5t101.5 -66t122 -23.5zM438 -16q-78 0 -146.5 28.5t-119.5 79t-80.5 118.5t-29.5 147
q0 78 29.5 146t80.5 119t120 80t148 29q81 0 150 -29t119.5 -79.5t79 -118t28.5 -145.5q0 -80 -29.5 -148.5t-80.5 -118.5t-120.5 -79t-148.5 -29z" />
    <glyph glyph-name="ordfeminine" unicode="&#xaa;" horiz-adv-x="472" 
d="M189 288q-57 0 -93.5 30.5t-36.5 84.5q0 40 16 67.5t45.5 44t70.5 23.5t91 7h56l3 18q5 32 -6 50.5t-47 18.5q-30 0 -46 -14.5t-22 -39.5h-122q7 38 25.5 65.5t44.5 45.5t59 26.5t70 8.5q95 0 139 -42.5t28 -139.5l-18 -116q-7 -40 -8 -71t2 -57h-123q-2 14 -2.5 27.5
t-0.5 25.5q-20 -28 -50 -45.5t-75 -17.5zM237 377q34 0 56.5 16t28.5 51l5 31h-50q-48 0 -69.5 -13.5t-21.5 -42.5q0 -19 12.5 -30.5t38.5 -11.5z" />
    <glyph glyph-name="guillemotleft" unicode="&#xab;" horiz-adv-x="499" 
d="M46 264l150 183h106l-148 -186l92 -186h-101zM226 263l150 184h106l-148 -188l90 -184h-101z" />
    <glyph glyph-name="uni00AD" unicode="&#xad;" horiz-adv-x="377" 
d="M71 339h256l-18 -115h-256z" />
    <glyph glyph-name="registered" unicode="&#xae;" horiz-adv-x="528" 
d="M217 615h85q43 0 66 -17t23 -52v-1q0 -24 -11.5 -37.5t-28.5 -21.5l53 -90h-64l-45 79h-16v-79h-62v219zM299 515q32 0 32 27v1q0 25 -32 25h-20v-53h20zM299 319q39 0 72.5 13.5t58.5 37.5t39 58t14 75t-13.5 75t-38 58t-58.5 37.5t-74 13.5t-74 -13.5t-58.5 -38
t-38 -58.5t-13.5 -75t14.5 -75t39 -58t58 -37t72.5 -13zM299 281q-47 0 -88.5 17t-72 46.5t-48.5 70t-18 87.5q0 46 17.5 86.5t48.5 71t72.5 48t88.5 17.5q48 0 89.5 -17.5t72 -47.5t48 -70.5t17.5 -86.5q0 -47 -17.5 -87.5t-48.5 -70.5t-72 -47t-89 -17z" />
    <glyph glyph-name="macron" unicode="&#xaf;" horiz-adv-x="412" 
d="M130 712h291l-13 -87h-291z" />
    <glyph glyph-name="degree" unicode="&#xb0;" horiz-adv-x="455" 
d="M271 456q40 0 65.5 28t25.5 74q0 43 -24.5 71.5t-63.5 28.5q-42 0 -68 -28.5t-26 -75.5q0 -42 25.5 -70t65.5 -28zM270 390q-35 0 -66 13t-54 35t-36.5 52t-13.5 63q0 36 13.5 67t37 54t55.5 36.5t69 13.5q35 0 66 -13t54 -35t36 -52.5t13 -64.5q0 -35 -13.5 -65.5
t-37 -53.5t-55.5 -36.5t-68 -13.5z" />
    <glyph glyph-name="plusminus" unicode="&#xb1;" horiz-adv-x="563" 
d="M233 336h-179l16 108h180l28 172h118l-28 -172h180l-17 -108h-180l-27 -171h-118zM16 100h480l-16 -100h-479z" />
    <glyph glyph-name="twosuperior" unicode="&#xb2;" horiz-adv-x="341" 
d="M28 367l148 132q32 28 56 53.5t24 51.5q0 18 -9.5 26.5t-24.5 8.5q-20 0 -33.5 -13t-20.5 -44h-100q10 69 54 103.5t107 34.5q27 0 51.5 -6t43 -18.5t29.5 -33t11 -49.5q0 -41 -26.5 -72t-74.5 -72l-45 -39h119l-12 -78h-300z" />
    <glyph glyph-name="threesuperior" unicode="&#xb3;" horiz-adv-x="363" 
d="M209 345q-32 0 -59.5 7t-48 22t-32.5 39t-12 58h98q1 -23 12.5 -36t37.5 -13q18 0 34 10.5t16 34.5q0 37 -48 37h-26l10 64h31q23 0 36.5 10t13.5 30q0 17 -9 26.5t-30 9.5q-43 0 -54 -45h-95q8 57 50 89t107 32q25 0 49 -5t43 -16t30.5 -30t11.5 -47q0 -32 -20 -54
t-53 -32q26 -5 43.5 -23.5t17.5 -52.5q0 -29 -12.5 -50.5t-33.5 -36t-49 -21.5t-59 -7z" />
    <glyph glyph-name="acute" unicode="&#xb4;" horiz-adv-x="412" 
d="M273 753h154l-123 -159h-107z" />
    <glyph glyph-name="paragraph" unicode="&#xb6;" horiz-adv-x="576" 
d="M280 335h-3q-43 0 -79.5 10.5t-63 31.5t-41.5 52.5t-15 73.5q0 53 19 92.5t51.5 66t76.5 40t95 13.5h243l-129 -815h-74l120 754h-77l-119 -754h-73z" />
    <glyph glyph-name="periodcentered" unicode="&#xb7;" horiz-adv-x="305" 
d="M161 239q-38 0 -63.5 25.5t-25.5 62.5q0 36 25 61.5t63 25.5q19 0 35.5 -7t29 -18.5t19.5 -27.5t7 -34t-7 -34t-19 -28t-28.5 -19t-35.5 -7z" />
    <glyph glyph-name="cedilla" unicode="&#xb8;" horiz-adv-x="412" 
d="M146 -222q-45 0 -78.5 21.5t-37.5 68.5h75q2 -12 10.5 -21.5t26.5 -9.5q14 0 25 8t11 27q0 14 -9 21.5t-24 7.5q-11 0 -17 -2.5t-11 -6.5l-32 35l58 73h65l-38 -48q36 3 64 -16.5t28 -60.5q0 -48 -33 -72.5t-83 -24.5z" />
    <glyph glyph-name="onesuperior" unicode="&#xb9;" horiz-adv-x="278" 
d="M163 608l-89 -49l14 91l107 65h95l-58 -363h-109z" />
    <glyph glyph-name="ordmasculine" unicode="&#xba;" horiz-adv-x="523" 
d="M276 288q-47 0 -84 13.5t-63 38t-40 59t-14 76.5q0 55 19 100.5t52 78.5t77.5 51.5t94.5 18.5q48 0 85.5 -14t63 -38.5t39 -59.5t13.5 -77q0 -56 -19 -101.5t-52 -77.5t-77.5 -50t-94.5 -18zM285 385q25 0 45 12t33 32.5t20 48t7 58.5q0 42 -19 66.5t-61 24.5
q-24 0 -44 -11.5t-33.5 -32t-21 -48.5t-7.5 -60q0 -42 19.5 -66t61.5 -24z" />
    <glyph glyph-name="guillemotright" unicode="&#xbb;" horiz-adv-x="499" 
d="M452 258l-150 -183h-106l148 186l-92 186h100zM272 259l-150 -184h-106l148 188l-90 184h100z" />
    <glyph glyph-name="onequarter" unicode="&#xbc;" horiz-adv-x="771" 
d="M166 608l-89 -49l14 91l107 65h95l-58 -363h-109zM653 715h85l-605 -715h-86zM559 71h-181l6 40l195 254h132l-35 -221h47l-12 -73h-46l-11 -69h-106zM574 144l22 143l-105 -143h83z" />
    <glyph glyph-name="onehalf" unicode="&#xbd;" horiz-adv-x="783" 
d="M166 608l-89 -49l14 91l107 65h95l-58 -363h-109zM640 715h85l-605 -715h-86zM412 17l148 132q32 28 56 53.5t24 51.5q0 18 -9.5 26.5t-24.5 8.5q-20 0 -33.5 -13t-20.5 -44h-100q10 69 54 103.5t107 34.5q27 0 51.5 -6t43 -18.5t29.5 -33t11 -49.5q0 -41 -26.5 -72
t-74.5 -72l-45 -39h119l-12 -78h-300z" />
    <glyph glyph-name="threequarters" unicode="&#xbe;" horiz-adv-x="806" 
d="M212 345q-32 0 -59.5 7t-48 22t-32.5 39t-12 58h98q1 -23 12.5 -36t37.5 -13q18 0 34 10.5t16 34.5q0 37 -48 37h-26l10 64h31q23 0 36.5 10t13.5 30q0 17 -9 26.5t-30 9.5q-43 0 -54 -45h-95q8 57 50 89t107 32q25 0 49 -5t43 -16t30.5 -30t11.5 -47q0 -32 -20 -54
t-53 -32q26 -5 43.5 -23.5t17.5 -52.5q0 -29 -12.5 -50.5t-33.5 -36t-49 -21.5t-59 -7zM702 715h85l-605 -715h-86zM594 70h-181l6 40l195 254h132l-35 -221h47l-12 -73h-46l-11 -69h-106zM609 143l22 143l-105 -143h83z" />
    <glyph glyph-name="questiondown" unicode="&#xbf;" horiz-adv-x="544" 
d="M375 343q-5 -33 -18.5 -58.5t-31 -46t-38 -37t-40.5 -31.5q-36 -27 -60.5 -51t-24.5 -63q1 -30 20 -47.5t55 -17.5q39 0 67 25.5t37 77.5h140q-7 -55 -28.5 -96.5t-55 -69t-77 -41.5t-93.5 -14q-54 0 -94.5 13.5t-68 37t-41.5 55t-14 68.5q0 34 9 60t24.5 47.5t36 39.5
t42.5 34q19 14 39 27.5t37.5 30t30.5 36.5t17 47l1 6h134zM333 607q38 0 63.5 -25t25.5 -61q0 -37 -25.5 -62t-63.5 -25t-64 25t-26 61q0 18 7 34t19 27.5t28.5 18.5t35.5 7z" />
    <glyph glyph-name="Agrave" unicode="&#xc0;" horiz-adv-x="718" 
d="M466 159h-259l-73 -159h-156l348 715h211l119 -715h-166zM261 274h188l-45 309zM306 902h154l35 -139h-105z" />
    <glyph glyph-name="Aacute" unicode="&#xc1;" horiz-adv-x="718" 
d="M466 159h-259l-73 -159h-156l348 715h211l119 -715h-166zM261 274h188l-45 309zM438 902h158l-112 -139h-111z" />
    <glyph glyph-name="Acircumflex" unicode="&#xc2;" horiz-adv-x="718" 
d="M466 159h-259l-73 -159h-156l348 715h211l119 -715h-166zM261 274h188l-45 309zM384 902h123l92 -139h-100l-62 53l-75 -53h-106z" />
    <glyph glyph-name="Atilde" unicode="&#xc3;" horiz-adv-x="718" 
d="M466 159h-259l-73 -159h-156l348 715h211l119 -715h-166zM261 274h188l-45 309zM500 764q-20 0 -36.5 6t-30.5 12.5t-26 12.5t-23 6q-13 0 -24 -10t-15 -27h-87q12 71 46 105.5t79 34.5q19 0 35 -6t30.5 -13t27 -13t24.5 -6q28 0 39 37h86q-13 -70 -47.5 -104.5
t-77.5 -34.5z" />
    <glyph glyph-name="Adieresis" unicode="&#xc4;" horiz-adv-x="718" 
d="M466 159h-259l-73 -159h-156l348 715h211l119 -715h-166zM261 274h188l-45 309zM331 769q-31 0 -52.5 21t-21.5 51t22 51.5t52 21.5q31 0 52.5 -21t21.5 -51t-22 -51.5t-52 -21.5zM546 769q-30 0 -51.5 21t-21.5 51t21.5 51.5t52.5 21.5t52 -21t21 -51t-21.5 -51.5
t-52.5 -21.5z" />
    <glyph glyph-name="Aring" unicode="&#xc5;" horiz-adv-x="718" 
d="M466 159h-259l-73 -159h-156l348 715h211l119 -715h-166zM261 274h188l-45 309zM437 808q21 0 35.5 15t14.5 39q0 23 -13 38t-35 15t-36 -15.5t-14 -39.5q0 -23 13 -37.5t35 -14.5zM437 750q-24 0 -44.5 8.5t-36 23.5t-24.5 35t-9 43q0 24 9.5 44.5t25 35.5t36.5 24t45 9
t44.5 -8.5t36 -23.5t24.5 -35.5t9 -43.5t-9.5 -43.5t-25 -35.5t-36.5 -24t-45 -9z" />
    <glyph glyph-name="AE" unicode="&#xc6;" horiz-adv-x="995" 
d="M422 715h584l-21 -126h-298l-26 -167h239l-18 -118h-239l-29 -178h317l-19 -126h-479l26 168h-216l-101 -168h-161zM310 280h167l49 309h-30z" />
    <glyph glyph-name="Ccedilla" unicode="&#xc7;" horiz-adv-x="761" 
d="M315 -222q-45 0 -78.5 21.5t-37.5 68.5h75q2 -12 10.5 -21.5t26.5 -9.5q14 0 25 8t11 27q0 14 -9 21.5t-24 7.5q-11 0 -17 -2.5t-11 -6.5l-32 35l55 70q-117 21 -183.5 99.5t-66.5 206.5q0 90 27.5 167.5t78.5 134.5t123.5 89t162.5 32q64 0 117.5 -16.5t92.5 -49
t61.5 -81t25.5 -113.5h-161q-8 65 -41.5 99t-99.5 34q-53 0 -93.5 -23t-68 -63t-42 -92.5t-14.5 -112.5q0 -43 9.5 -78t30.5 -60t53.5 -38.5t76.5 -13.5q66 0 109.5 36.5t62.5 102.5h159q-12 -65 -42 -115t-74 -84t-99.5 -51.5t-117.5 -17.5h-12q-4 0 -15 1l-30 -38
q36 3 64 -16.5t28 -60.5q0 -48 -33 -72.5t-83 -24.5z" />
    <glyph glyph-name="Egrave" unicode="&#xc8;" horiz-adv-x="610" 
d="M154 715h463l-20 -126h-302l-26 -167h243l-18 -118h-243l-29 -178h321l-20 -126h-482zM266 902h154l35 -139h-105z" />
    <glyph glyph-name="Eacute" unicode="&#xc9;" horiz-adv-x="610" 
d="M154 715h463l-20 -126h-302l-26 -167h243l-18 -118h-243l-29 -178h321l-20 -126h-482zM388 902h158l-112 -139h-111z" />
    <glyph glyph-name="Ecircumflex" unicode="&#xca;" horiz-adv-x="610" 
d="M154 715h463l-20 -126h-302l-26 -167h243l-18 -118h-243l-29 -178h321l-20 -126h-482zM341 902h123l92 -139h-100l-62 53l-75 -53h-106z" />
    <glyph glyph-name="Edieresis" unicode="&#xcb;" horiz-adv-x="610" 
d="M154 715h463l-20 -126h-302l-26 -167h243l-18 -118h-243l-29 -178h321l-20 -126h-482zM290 769q-31 0 -52.5 21t-21.5 51t22 51.5t52 21.5q31 0 52.5 -21t21.5 -51t-22 -51.5t-52 -21.5zM505 769q-30 0 -51.5 21t-21.5 51t21.5 51.5t52.5 21.5t52 -21t21 -51t-21.5 -51.5
t-52.5 -21.5z" />
    <glyph glyph-name="Igrave" unicode="&#xcc;" horiz-adv-x="338" 
d="M158 715h163l-113 -715h-163zM118 902h154l35 -139h-105z" />
    <glyph glyph-name="Iacute" unicode="&#xcd;" horiz-adv-x="338" 
d="M158 715h163l-113 -715h-163zM247 902h158l-112 -139h-111z" />
    <glyph glyph-name="Icircumflex" unicode="&#xce;" horiz-adv-x="338" 
d="M158 715h163l-113 -715h-163zM200 902h123l92 -139h-100l-62 53l-75 -53h-106z" />
    <glyph glyph-name="Idieresis" unicode="&#xcf;" horiz-adv-x="338" 
d="M158 715h163l-113 -715h-163zM151 769q-31 0 -52.5 21t-21.5 51t22 51.5t52 21.5q31 0 52.5 -21t21.5 -51t-22 -51.5t-52 -21.5zM366 769q-30 0 -51.5 21t-21.5 51t21.5 51.5t52.5 21.5t52 -21t21 -51t-21.5 -51.5t-52.5 -21.5z" />
    <glyph glyph-name="Eth" unicode="&#xd0;" horiz-adv-x="761" 
d="M60 415h65l48 300h210q90 0 156.5 -22t110 -61.5t65 -96t21.5 -125.5q0 -93 -28.5 -168.5t-82.5 -129.5t-131 -83t-173 -29h-261l48 303h-65zM320 126q119 0 184 72.5t65 206.5q0 84 -45 134.5t-145 50.5h-66l-28 -175h152l-18 -112h-152l-28 -177h81z" />
    <glyph glyph-name="Ntilde" unicode="&#xd1;" horiz-adv-x="770" 
d="M154 715h189l194 -471l75 471h146l-113 -715h-163l-215 509l-80 -509h-146zM540 764q-20 0 -36.5 6t-30.5 12.5t-26 12.5t-23 6q-13 0 -24 -10t-15 -27h-87q12 71 46 105.5t79 34.5q19 0 35 -6t30.5 -13t27 -13t24.5 -6q28 0 39 37h86q-13 -70 -47.5 -104.5t-77.5 -34.5z
" />
    <glyph glyph-name="Ograve" unicode="&#xd2;" horiz-adv-x="828" 
d="M799 406q0 -92 -30 -168.5t-83 -131.5t-127 -86t-161 -31q-72 0 -134 22t-107.5 63t-71.5 99.5t-26 131.5q0 90 30 167t83 133.5t126 88t160 31.5q75 0 138 -22.5t108 -64t70 -100.5t25 -132zM630 402q0 40 -11 75.5t-32.5 62t-54.5 42t-78 15.5q-54 0 -96 -23t-71.5 -63
t-44.5 -92t-15 -109q0 -88 47.5 -140.5t132.5 -52.5q53 0 94.5 23t70 62t43.5 90.5t15 109.5zM344 902h154l35 -139h-105z" />
    <glyph glyph-name="Oacute" unicode="&#xd3;" horiz-adv-x="828" 
d="M799 406q0 -92 -30 -168.5t-83 -131.5t-127 -86t-161 -31q-72 0 -134 22t-107.5 63t-71.5 99.5t-26 131.5q0 90 30 167t83 133.5t126 88t160 31.5q75 0 138 -22.5t108 -64t70 -100.5t25 -132zM630 402q0 40 -11 75.5t-32.5 62t-54.5 42t-78 15.5q-54 0 -96 -23t-71.5 -63
t-44.5 -92t-15 -109q0 -88 47.5 -140.5t132.5 -52.5q53 0 94.5 23t70 62t43.5 90.5t15 109.5zM474 902h158l-112 -139h-111z" />
    <glyph glyph-name="Ocircumflex" unicode="&#xd4;" horiz-adv-x="828" 
d="M799 406q0 -92 -30 -168.5t-83 -131.5t-127 -86t-161 -31q-72 0 -134 22t-107.5 63t-71.5 99.5t-26 131.5q0 90 30 167t83 133.5t126 88t160 31.5q75 0 138 -22.5t108 -64t70 -100.5t25 -132zM630 402q0 40 -11 75.5t-32.5 62t-54.5 42t-78 15.5q-54 0 -96 -23t-71.5 -63
t-44.5 -92t-15 -109q0 -88 47.5 -140.5t132.5 -52.5q53 0 94.5 23t70 62t43.5 90.5t15 109.5zM430 902h123l92 -139h-100l-62 53l-75 -53h-106z" />
    <glyph glyph-name="Otilde" unicode="&#xd5;" horiz-adv-x="828" 
d="M799 406q0 -92 -30 -168.5t-83 -131.5t-127 -86t-161 -31q-72 0 -134 22t-107.5 63t-71.5 99.5t-26 131.5q0 90 30 167t83 133.5t126 88t160 31.5q75 0 138 -22.5t108 -64t70 -100.5t25 -132zM630 402q0 40 -11 75.5t-32.5 62t-54.5 42t-78 15.5q-54 0 -96 -23t-71.5 -63
t-44.5 -92t-15 -109q0 -88 47.5 -140.5t132.5 -52.5q53 0 94.5 23t70 62t43.5 90.5t15 109.5zM538 764q-20 0 -36.5 6t-30.5 12.5t-26 12.5t-23 6q-13 0 -24 -10t-15 -27h-87q12 71 46 105.5t79 34.5q19 0 35 -6t30.5 -13t27 -13t24.5 -6q28 0 39 37h86
q-13 -70 -47.5 -104.5t-77.5 -34.5z" />
    <glyph glyph-name="Odieresis" unicode="&#xd6;" horiz-adv-x="828" 
d="M799 406q0 -92 -30 -168.5t-83 -131.5t-127 -86t-161 -31q-72 0 -134 22t-107.5 63t-71.5 99.5t-26 131.5q0 90 30 167t83 133.5t126 88t160 31.5q75 0 138 -22.5t108 -64t70 -100.5t25 -132zM630 402q0 40 -11 75.5t-32.5 62t-54.5 42t-78 15.5q-54 0 -96 -23t-71.5 -63
t-44.5 -92t-15 -109q0 -88 47.5 -140.5t132.5 -52.5q53 0 94.5 23t70 62t43.5 90.5t15 109.5zM376 769q-31 0 -52.5 21t-21.5 51t22 51.5t52 21.5q31 0 52.5 -21t21.5 -51t-22 -51.5t-52 -21.5zM591 769q-30 0 -51.5 21t-21.5 51t21.5 51.5t52.5 21.5t52 -21t21 -51
t-21.5 -51.5t-52.5 -21.5z" />
    <glyph glyph-name="multiply" unicode="&#xd7;" horiz-adv-x="546" 
d="M32 184l173 152l-131 154l85 77l133 -154l173 152l69 -79l-174 -153l133 -153l-87 -77l-133 154l-173 -152z" />
    <glyph glyph-name="Oslash" unicode="&#xd8;" horiz-adv-x="828" 
d="M39 21l85 87q-31 39 -48 88.5t-17 108.5q0 90 30 167t83 133.5t126.5 88t160.5 31.5q62 0 115 -15.5t96 -44.5l75 76l52 -54l-71 -72q35 -41 54 -93.5t19 -115.5q0 -92 -30 -168.5t-83 -131.5t-127 -86t-161 -31q-65 0 -120.5 17.5t-99.5 50.5l-87 -89zM634 401
q0 59 -19 101l-335 -341q47 -44 127 -44q53 0 95 22.5t71.5 61t45 90t15.5 110.5zM224 311q0 -52 14 -87l331 338q-22 17 -51 26t-64 9q-54 0 -97 -23t-72.5 -62t-45 -91t-15.5 -110z" />
    <glyph glyph-name="Ugrave" unicode="&#xd9;" horiz-adv-x="751" 
d="M359 -11q-76 0 -133.5 19.5t-93.5 58.5t-49 97t-1 135l66 416h163l-67 -420q-15 -94 14 -135.5t104 -41.5q68 0 102.5 38.5t48.5 122.5l69 436h163l-72 -452q-21 -134 -97 -204t-217 -70zM316 902h154l35 -139h-105z" />
    <glyph glyph-name="Uacute" unicode="&#xda;" horiz-adv-x="751" 
d="M359 -11q-76 0 -133.5 19.5t-93.5 58.5t-49 97t-1 135l66 416h163l-67 -420q-15 -94 14 -135.5t104 -41.5q68 0 102.5 38.5t48.5 122.5l69 436h163l-72 -452q-21 -134 -97 -204t-217 -70zM453 902h158l-112 -139h-111z" />
    <glyph glyph-name="Ucircumflex" unicode="&#xdb;" horiz-adv-x="751" 
d="M359 -11q-76 0 -133.5 19.5t-93.5 58.5t-49 97t-1 135l66 416h163l-67 -420q-15 -94 14 -135.5t104 -41.5q68 0 102.5 38.5t48.5 122.5l69 436h163l-72 -452q-21 -134 -97 -204t-217 -70zM399 902h123l92 -139h-100l-62 53l-75 -53h-106z" />
    <glyph glyph-name="Udieresis" unicode="&#xdc;" horiz-adv-x="751" 
d="M359 -11q-76 0 -133.5 19.5t-93.5 58.5t-49 97t-1 135l66 416h163l-67 -420q-15 -94 14 -135.5t104 -41.5q68 0 102.5 38.5t48.5 122.5l69 436h163l-72 -452q-21 -134 -97 -204t-217 -70zM349 769q-31 0 -52.5 21t-21.5 51t22 51.5t52 21.5q31 0 52.5 -21t21.5 -51
t-22 -51.5t-52 -21.5zM564 769q-30 0 -51.5 21t-21.5 51t21.5 51.5t52.5 21.5t52 -21t21 -51t-21.5 -51.5t-52.5 -21.5z" />
    <glyph glyph-name="Yacute" unicode="&#xdd;" horiz-adv-x="659" 
d="M259 309l-171 406h170l105 -272l184 272h163l-289 -416l-48 -299h-163zM412 902h158l-112 -139h-111z" />
    <glyph glyph-name="Thorn" unicode="&#xde;" horiz-adv-x="638" 
d="M296 591h77q118 0 183 -49.5t65 -145.5q0 -63 -22 -109.5t-61 -78t-91.5 -47t-113.5 -15.5h-107l-23 -146h-162l113 715h161zM277 474l-33 -214h86q66 0 100.5 32.5t34.5 94.5q1 87 -110 87h-78z" />
    <glyph glyph-name="germandbls" unicode="&#xdf;" horiz-adv-x="630" 
d="M344 -10q-35 0 -62.5 6t-47.5 15l18 108q15 -8 32.5 -12.5t38.5 -4.5q62 0 91.5 41t29.5 104t-37 97t-103 32l18 111q27 0 50.5 6t41 18.5t28 32.5t10.5 48q0 38 -23 59.5t-64 21.5q-43 0 -69 -28t-34 -79l-90 -566h-144l89 563q9 53 31 92.5t55 65.5t75.5 38.5
t91.5 12.5q46 0 85.5 -11t68.5 -33t46 -55t17 -76q0 -63 -38.5 -105t-101.5 -60q65 -19 103.5 -70t38.5 -126q0 -56 -16.5 -101.5t-48 -77.5t-77 -49.5t-103.5 -17.5z" />
    <glyph glyph-name="agrave" unicode="&#xe0;" horiz-adv-x="575" 
d="M188 -11q-75 0 -121 39t-46 108q0 50 19.5 84t55 54.5t84.5 29.5t108 9h86l3 22q7 46 -8.5 70.5t-65.5 24.5q-42 0 -63.5 -19.5t-29.5 -54.5h-138q10 48 32 81.5t53.5 55.5t70 32t82.5 10q112 0 169 -52t39 -164l-25 -159q-8 -51 -10.5 -89t1.5 -71h-138q-3 18 -3.5 36.5
t0.5 35.5q-25 -37 -63 -60t-92 -23zM237 89q45 0 77 25t39 72l7 41h-68q-66 0 -97 -17t-31 -59q0 -26 18 -44t55 -18zM183 753h150l42 -159h-102z" />
    <glyph glyph-name="aacute" unicode="&#xe1;" horiz-adv-x="575" 
d="M188 -11q-75 0 -121 39t-46 108q0 50 19.5 84t55 54.5t84.5 29.5t108 9h86l3 22q7 46 -8.5 70.5t-65.5 24.5q-42 0 -63.5 -19.5t-29.5 -54.5h-138q10 48 32 81.5t53.5 55.5t70 32t82.5 10q112 0 169 -52t39 -164l-25 -159q-8 -51 -10.5 -89t1.5 -71h-138q-3 18 -3.5 36.5
t0.5 35.5q-25 -37 -63 -60t-92 -23zM237 89q45 0 77 25t39 72l7 41h-68q-66 0 -97 -17t-31 -59q0 -26 18 -44t55 -18zM345 753h154l-123 -159h-107z" />
    <glyph glyph-name="acircumflex" unicode="&#xe2;" horiz-adv-x="575" 
d="M188 -11q-75 0 -121 39t-46 108q0 50 19.5 84t55 54.5t84.5 29.5t108 9h86l3 22q7 46 -8.5 70.5t-65.5 24.5q-42 0 -63.5 -19.5t-29.5 -54.5h-138q10 48 32 81.5t53.5 55.5t70 32t82.5 10q112 0 169 -52t39 -164l-25 -159q-8 -51 -10.5 -89t1.5 -71h-138q-3 18 -3.5 36.5
t0.5 35.5q-25 -37 -63 -60t-92 -23zM237 89q45 0 77 25t39 72l7 41h-68q-66 0 -97 -17t-31 -59q0 -26 18 -44t55 -18zM289 751h108l93 -156h-98l-60 63l-79 -63h-103z" />
    <glyph glyph-name="atilde" unicode="&#xe3;" horiz-adv-x="575" 
d="M188 -11q-75 0 -121 39t-46 108q0 50 19.5 84t55 54.5t84.5 29.5t108 9h86l3 22q7 46 -8.5 70.5t-65.5 24.5q-42 0 -63.5 -19.5t-29.5 -54.5h-138q10 48 32 81.5t53.5 55.5t70 32t82.5 10q112 0 169 -52t39 -164l-25 -159q-8 -51 -10.5 -89t1.5 -71h-138q-3 18 -3.5 36.5
t0.5 35.5q-25 -37 -63 -60t-92 -23zM237 89q45 0 77 25t39 72l7 41h-68q-66 0 -97 -17t-31 -59q0 -26 18 -44t55 -18zM393 598q-20 0 -36.5 6t-30 13t-25.5 13t-23 6q-13 0 -23.5 -10t-15.5 -27h-83q11 70 43 105.5t77 35.5q19 0 35 -6t30 -12.5t26.5 -12.5t24.5 -6
q28 0 38 37h84q-12 -71 -45 -106.5t-76 -35.5z" />
    <glyph glyph-name="adieresis" unicode="&#xe4;" horiz-adv-x="575" 
d="M188 -11q-75 0 -121 39t-46 108q0 50 19.5 84t55 54.5t84.5 29.5t108 9h86l3 22q7 46 -8.5 70.5t-65.5 24.5q-42 0 -63.5 -19.5t-29.5 -54.5h-138q10 48 32 81.5t53.5 55.5t70 32t82.5 10q112 0 169 -52t39 -164l-25 -159q-8 -51 -10.5 -89t1.5 -71h-138q-3 18 -3.5 36.5
t0.5 35.5q-25 -37 -63 -60t-92 -23zM237 89q45 0 77 25t39 72l7 41h-68q-66 0 -97 -17t-31 -59q0 -26 18 -44t55 -18zM229 600q-31 0 -52.5 20.5t-21.5 50.5t22 51.5t53 21.5q30 0 51.5 -21t21.5 -51q0 -29 -21.5 -50.5t-52.5 -21.5zM432 600q-30 0 -51.5 20.5t-21.5 50.5
t21.5 51.5t52.5 21.5t52 -21t21 -51q0 -29 -21 -50.5t-53 -21.5z" />
    <glyph glyph-name="aring" unicode="&#xe5;" horiz-adv-x="575" 
d="M188 -11q-75 0 -121 39t-46 108q0 50 19.5 84t55 54.5t84.5 29.5t108 9h86l3 22q7 46 -8.5 70.5t-65.5 24.5q-42 0 -63.5 -19.5t-29.5 -54.5h-138q10 48 32 81.5t53.5 55.5t70 32t82.5 10q112 0 169 -52t39 -164l-25 -159q-8 -51 -10.5 -89t1.5 -71h-138q-3 18 -3.5 36.5
t0.5 35.5q-25 -37 -63 -60t-92 -23zM237 89q45 0 77 25t39 72l7 41h-68q-66 0 -97 -17t-31 -59q0 -26 18 -44t55 -18zM333 643q21 0 35 15t14 39q0 23 -13 37t-34 14q-22 0 -36 -15t-14 -38t13 -37.5t35 -14.5zM333 585q-24 0 -44.5 8.5t-35.5 23.5t-24 35t-9 43t9 43t25 35
t36.5 24t44.5 9t44.5 -8.5t35.5 -23t24 -34.5t9 -43t-9.5 -43.5t-25 -35.5t-36.5 -24t-44 -9z" />
    <glyph glyph-name="ae" unicode="&#xe6;" horiz-adv-x="907" 
d="M500 215q0 -56 25 -89.5t87 -33.5q45 0 70.5 19t36.5 54h137q-21 -88 -86.5 -132t-162.5 -44q-75 0 -127.5 26.5t-79.5 77.5q-26 -45 -73 -74.5t-123 -29.5q-85 0 -134 38.5t-49 108.5q0 50 20.5 84.5t56.5 55.5t85.5 31t108.5 10h83l3 20q7 44 -9 68.5t-66 24.5
q-42 0 -65 -19.5t-31 -54.5h-137q9 48 32 82t55 55.5t71 31.5t81 10q121 0 164 -67q35 32 79 49t94 17q60 0 106 -18t75.5 -53.5t40.5 -87.5t1 -121l-4 -23h-365v-16zM236 89q46 0 78 24.5t40 74.5l7 42h-70q-66 0 -96.5 -18.5t-30.5 -61.5q0 -26 18 -43.5t54 -17.5z
M641 435q-43 0 -78 -27.5t-52 -90.5h223q5 56 -16.5 87t-76.5 31z" />
    <glyph glyph-name="ccedilla" unicode="&#xe7;" horiz-adv-x="582" 
d="M225 -222q-45 0 -78.5 21.5t-37.5 68.5h75q2 -12 10.5 -21.5t26.5 -9.5q14 0 25 8t11 27q0 14 -9 21.5t-24 7.5q-11 0 -17 -2.5t-11 -6.5l-32 35l56 71q-86 17 -135.5 77t-49.5 154q0 71 22 127.5t60.5 96t91 60.5t112.5 21q48 0 89.5 -12t72.5 -36.5t50 -63t21 -91.5
h-136q-5 51 -31 70.5t-70 19.5q-32 0 -57.5 -14t-43 -39.5t-27 -61t-9.5 -78.5q0 -62 28.5 -96.5t89.5 -34.5q44 0 75.5 25.5t40.5 75.5h131q-15 -100 -81.5 -154t-170.5 -54h-14l-30 -38q36 3 64 -16.5t28 -60.5q0 -48 -33 -72.5t-83 -24.5z" />
    <glyph glyph-name="egrave" unicode="&#xe8;" horiz-adv-x="592" 
d="M177 214q0 -55 26.5 -88.5t88.5 -33.5q45 0 73 19t39 54h137q-11 -44 -33.5 -76.5t-55.5 -55t-74.5 -33.5t-89.5 -11q-56 0 -102.5 15t-80 44.5t-52.5 73t-19 99.5q0 70 22 128t60.5 99t91.5 64t115 23q60 0 108 -18.5t78.5 -54.5t42.5 -89t2 -121l-4 -23h-373v-15z
M322 435q-42 0 -78.5 -27t-54.5 -90h230q5 57 -18 87t-79 30zM198 753h150l42 -159h-102z" />
    <glyph glyph-name="eacute" unicode="&#xe9;" horiz-adv-x="592" 
d="M177 214q0 -55 26.5 -88.5t88.5 -33.5q45 0 73 19t39 54h137q-11 -44 -33.5 -76.5t-55.5 -55t-74.5 -33.5t-89.5 -11q-56 0 -102.5 15t-80 44.5t-52.5 73t-19 99.5q0 70 22 128t60.5 99t91.5 64t115 23q60 0 108 -18.5t78.5 -54.5t42.5 -89t2 -121l-4 -23h-373v-15z
M322 435q-42 0 -78.5 -27t-54.5 -90h230q5 57 -18 87t-79 30zM353 753h154l-123 -159h-107z" />
    <glyph glyph-name="ecircumflex" unicode="&#xea;" horiz-adv-x="592" 
d="M177 214q0 -55 26.5 -88.5t88.5 -33.5q45 0 73 19t39 54h137q-11 -44 -33.5 -76.5t-55.5 -55t-74.5 -33.5t-89.5 -11q-56 0 -102.5 15t-80 44.5t-52.5 73t-19 99.5q0 70 22 128t60.5 99t91.5 64t115 23q60 0 108 -18.5t78.5 -54.5t42.5 -89t2 -121l-4 -23h-373v-15z
M322 435q-42 0 -78.5 -27t-54.5 -90h230q5 57 -18 87t-79 30zM299 751h108l93 -156h-98l-60 63l-79 -63h-103z" />
    <glyph glyph-name="edieresis" unicode="&#xeb;" horiz-adv-x="592" 
d="M177 214q0 -55 26.5 -88.5t88.5 -33.5q45 0 73 19t39 54h137q-11 -44 -33.5 -76.5t-55.5 -55t-74.5 -33.5t-89.5 -11q-56 0 -102.5 15t-80 44.5t-52.5 73t-19 99.5q0 70 22 128t60.5 99t91.5 64t115 23q60 0 108 -18.5t78.5 -54.5t42.5 -89t2 -121l-4 -23h-373v-15z
M322 435q-42 0 -78.5 -27t-54.5 -90h230q5 57 -18 87t-79 30zM244 600q-31 0 -52.5 20.5t-21.5 50.5t22 51.5t53 21.5q30 0 51.5 -21t21.5 -51q0 -29 -21.5 -50.5t-52.5 -21.5zM447 600q-30 0 -51.5 20.5t-21.5 50.5t21.5 51.5t52.5 21.5t52 -21t21 -51q0 -29 -21 -50.5
t-53 -21.5z" />
    <glyph glyph-name="igrave" unicode="&#xec;" horiz-adv-x="293" 
d="M115 523h144l-83 -523h-144zM61 753h150l42 -159h-102z" />
    <glyph glyph-name="iacute" unicode="&#xed;" horiz-adv-x="293" 
d="M115 523h144l-83 -523h-144zM214 753h154l-123 -159h-107z" />
    <glyph glyph-name="icircumflex" unicode="&#xee;" horiz-adv-x="293" 
d="M115 523h144l-83 -523h-144zM164 751h108l93 -156h-98l-60 63l-79 -63h-103z" />
    <glyph glyph-name="idieresis" unicode="&#xef;" horiz-adv-x="293" 
d="M112 600q-30 0 -51.5 20.5t-21.5 50.5t21.5 51.5t52.5 21.5t52 -21t21 -51q0 -29 -21.5 -50.5t-52.5 -21.5zM310 600q-31 0 -52 20.5t-21 50.5t21.5 51.5t52.5 21.5t52 -21t21 -51q0 -29 -21.5 -50.5t-52.5 -21.5zM115 523h144l-83 -523h-144z" />
    <glyph glyph-name="eth" unicode="&#xf0;" horiz-adv-x="622" 
d="M173 619l116 47q-27 26 -56 49t-59 45h173q15 -9 30.5 -20.5t31.5 -25.5l105 43l23 -57l-81 -33q27 -30 50.5 -66.5t41 -78t27.5 -88.5t10 -98q0 -73 -18.5 -136t-56 -110t-93 -74t-129.5 -27q-55 0 -101.5 16t-80.5 46.5t-53 75t-19 102.5q0 59 18.5 113.5t52.5 96
t82.5 66.5t108.5 25q42 0 73 -14t56 -46q-17 42 -40 79t-51 69l-138 -55zM180 223q0 -25 6 -47.5t19 -39.5t34.5 -27t51.5 -10q37 0 64.5 17t46 45.5t27.5 65t9 74.5q0 24 -6.5 46.5t-20 40t-35 27.5t-51.5 10q-36 0 -63 -16.5t-45.5 -44t-27.5 -64.5t-9 -77z" />
    <glyph glyph-name="ntilde" unicode="&#xf1;" horiz-adv-x="623" 
d="M84 357q9 56 12.5 93.5t5.5 72.5h139q0 -20 -1 -45t-4 -49q28 45 72 75.5t108 30.5q38 0 69.5 -12.5t52.5 -39t28.5 -68.5t-1.5 -101l-50 -314h-144l49 313q18 104 -70 104q-51 0 -86.5 -31.5t-44.5 -91.5l-47 -294h-144zM422 598q-20 0 -36.5 6t-30 13t-25.5 13t-23 6
q-13 0 -23.5 -10t-15.5 -27h-83q11 70 43 105.5t77 35.5q19 0 35 -6t30 -12.5t26.5 -12.5t24.5 -6q28 0 38 37h84q-12 -71 -45 -106.5t-76 -35.5z" />
    <glyph glyph-name="ograve" unicode="&#xf2;" horiz-adv-x="618" 
d="M289 -11q-54 0 -100 16t-80 46t-54 74t-20 101q0 66 22 122.5t61 98t92.5 64.5t117.5 23q54 0 100.5 -15.5t81 -45.5t54 -74.5t19.5 -101.5q0 -68 -21.5 -124.5t-60.5 -97t-93 -63.5t-119 -23zM293 99q35 0 61.5 15.5t44.5 42.5t27.5 64t9.5 80q0 54 -27 89t-84 35
q-34 0 -61 -15t-45.5 -42t-28.5 -63.5t-10 -79.5q0 -27 6.5 -50t20 -40t35 -26.5t51.5 -9.5zM205 753h150l42 -159h-102z" />
    <glyph glyph-name="oacute" unicode="&#xf3;" horiz-adv-x="618" 
d="M289 -11q-54 0 -100 16t-80 46t-54 74t-20 101q0 66 22 122.5t61 98t92.5 64.5t117.5 23q54 0 100.5 -15.5t81 -45.5t54 -74.5t19.5 -101.5q0 -68 -21.5 -124.5t-60.5 -97t-93 -63.5t-119 -23zM293 99q35 0 61.5 15.5t44.5 42.5t27.5 64t9.5 80q0 54 -27 89t-84 35
q-34 0 -61 -15t-45.5 -42t-28.5 -63.5t-10 -79.5q0 -27 6.5 -50t20 -40t35 -26.5t51.5 -9.5zM357 753h154l-123 -159h-107z" />
    <glyph glyph-name="ocircumflex" unicode="&#xf4;" horiz-adv-x="618" 
d="M289 -11q-54 0 -100 16t-80 46t-54 74t-20 101q0 66 22 122.5t61 98t92.5 64.5t117.5 23q54 0 100.5 -15.5t81 -45.5t54 -74.5t19.5 -101.5q0 -68 -21.5 -124.5t-60.5 -97t-93 -63.5t-119 -23zM293 99q35 0 61.5 15.5t44.5 42.5t27.5 64t9.5 80q0 54 -27 89t-84 35
q-34 0 -61 -15t-45.5 -42t-28.5 -63.5t-10 -79.5q0 -27 6.5 -50t20 -40t35 -26.5t51.5 -9.5zM307 751h108l93 -156h-98l-60 63l-79 -63h-103z" />
    <glyph glyph-name="otilde" unicode="&#xf5;" horiz-adv-x="618" 
d="M289 -11q-54 0 -100 16t-80 46t-54 74t-20 101q0 66 22 122.5t61 98t92.5 64.5t117.5 23q54 0 100.5 -15.5t81 -45.5t54 -74.5t19.5 -101.5q0 -68 -21.5 -124.5t-60.5 -97t-93 -63.5t-119 -23zM293 99q35 0 61.5 15.5t44.5 42.5t27.5 64t9.5 80q0 54 -27 89t-84 35
q-34 0 -61 -15t-45.5 -42t-28.5 -63.5t-10 -79.5q0 -27 6.5 -50t20 -40t35 -26.5t51.5 -9.5zM410 598q-20 0 -36.5 6t-30 13t-25.5 13t-23 6q-13 0 -23.5 -10t-15.5 -27h-83q11 70 43 105.5t77 35.5q19 0 35 -6t30 -12.5t26.5 -12.5t24.5 -6q28 0 38 37h84
q-12 -71 -45 -106.5t-76 -35.5z" />
    <glyph glyph-name="odieresis" unicode="&#xf6;" horiz-adv-x="618" 
d="M289 -11q-54 0 -100 16t-80 46t-54 74t-20 101q0 66 22 122.5t61 98t92.5 64.5t117.5 23q54 0 100.5 -15.5t81 -45.5t54 -74.5t19.5 -101.5q0 -68 -21.5 -124.5t-60.5 -97t-93 -63.5t-119 -23zM293 99q35 0 61.5 15.5t44.5 42.5t27.5 64t9.5 80q0 54 -27 89t-84 35
q-34 0 -61 -15t-45.5 -42t-28.5 -63.5t-10 -79.5q0 -27 6.5 -50t20 -40t35 -26.5t51.5 -9.5zM250 600q-31 0 -52.5 20.5t-21.5 50.5t22 51.5t53 21.5q30 0 51.5 -21t21.5 -51q0 -29 -21.5 -50.5t-52.5 -21.5zM453 600q-30 0 -51.5 20.5t-21.5 50.5t21.5 51.5t52.5 21.5
t52 -21t21 -51q0 -29 -21 -50.5t-53 -21.5z" />
    <glyph glyph-name="divide" unicode="&#xf7;" horiz-adv-x="565" 
d="M62 393h480l-17 -104h-479zM269 60q-35 0 -59 23.5t-24 58.5q0 34 24 58t59 24q36 0 60.5 -24t24.5 -58q0 -35 -24.5 -58.5t-60.5 -23.5zM317 458q-35 0 -59 23.5t-24 58.5q0 34 24 58t59 24q36 0 60.5 -24t24.5 -58q0 -35 -24.5 -58.5t-60.5 -23.5z" />
    <glyph glyph-name="oslash" unicode="&#xf8;" horiz-adv-x="618" 
d="M17 6l68 71q-23 29 -36.5 66.5t-13.5 83.5q0 66 21.5 122.5t60.5 97.5t93 64.5t118 23.5q89 0 155 -43l66 68l47 -44l-65 -67q25 -29 38.5 -67t13.5 -85q0 -68 -21.5 -124.5t-60.5 -97.5t-93 -63.5t-119 -22.5q-45 0 -85 11t-72 34l-69 -72zM293 98q36 0 63 15.5t46 42.5
t28.5 64t9.5 80q0 25 -6 48l-218 -227q28 -23 77 -23zM176 227q0 -14 1 -26.5t4 -23.5l217 226q-28 22 -73 22q-35 0 -62.5 -15t-46.5 -41t-29.5 -62.5t-10.5 -79.5z" />
    <glyph glyph-name="ugrave" unicode="&#xf9;" horiz-adv-x="621" 
d="M533 160q-8 -52 -11 -89.5t-1 -70.5h-140q-2 20 -1.5 42t3.5 46q-29 -43 -69.5 -71t-102.5 -28q-41 0 -73.5 12.5t-53.5 39.5t-29 68.5t1 99.5l50 314h144l-50 -319q-8 -51 9 -77.5t59 -26.5q51 0 86 31.5t44 91.5l48 300h144zM217 753h150l42 -159h-102z" />
    <glyph glyph-name="uacute" unicode="&#xfa;" horiz-adv-x="621" 
d="M533 160q-8 -52 -11 -89.5t-1 -70.5h-140q-2 20 -1.5 42t3.5 46q-29 -43 -69.5 -71t-102.5 -28q-41 0 -73.5 12.5t-53.5 39.5t-29 68.5t1 99.5l50 314h144l-50 -319q-8 -51 9 -77.5t59 -26.5q51 0 86 31.5t44 91.5l48 300h144zM372 753h154l-123 -159h-107z" />
    <glyph glyph-name="ucircumflex" unicode="&#xfb;" horiz-adv-x="621" 
d="M533 160q-8 -52 -11 -89.5t-1 -70.5h-140q-2 20 -1.5 42t3.5 46q-29 -43 -69.5 -71t-102.5 -28q-41 0 -73.5 12.5t-53.5 39.5t-29 68.5t1 99.5l50 314h144l-50 -319q-8 -51 9 -77.5t59 -26.5q51 0 86 31.5t44 91.5l48 300h144zM319 751h108l93 -156h-98l-60 63l-79 -63
h-103z" />
    <glyph glyph-name="udieresis" unicode="&#xfc;" horiz-adv-x="621" 
d="M533 160q-8 -52 -11 -89.5t-1 -70.5h-140q-2 20 -1.5 42t3.5 46q-29 -43 -69.5 -71t-102.5 -28q-41 0 -73.5 12.5t-53.5 39.5t-29 68.5t1 99.5l50 314h144l-50 -319q-8 -51 9 -77.5t59 -26.5q51 0 86 31.5t44 91.5l48 300h144zM259 600q-31 0 -52.5 20.5t-21.5 50.5
t22 51.5t53 21.5q30 0 51.5 -21t21.5 -51q0 -29 -21.5 -50.5t-52.5 -21.5zM462 600q-30 0 -51.5 20.5t-21.5 50.5t21.5 51.5t52.5 21.5t52 -21t21 -51q0 -29 -21 -50.5t-53 -21.5z" />
    <glyph glyph-name="yacute" unicode="&#xfd;" horiz-adv-x="563" 
d="M183 59l-126 464h149l73 -315l162 315h146l-390 -701h-146zM350 753h154l-123 -159h-107z" />
    <glyph glyph-name="thorn" unicode="&#xfe;" horiz-adv-x="651" 
d="M148 760h144l-51 -323q26 43 72.5 70.5t106.5 27.5q41 0 76.5 -15t61.5 -44t40.5 -71.5t14.5 -97.5q0 -71 -18.5 -129.5t-52 -100.5t-80.5 -65t-104 -23q-69 0 -112 30.5t-59 71.5l-43 -269h-144zM324 100q33 0 59 14.5t44 41t27.5 62.5t9.5 79q0 63 -27.5 96t-77.5 33
q-33 0 -60.5 -14.5t-48 -40.5t-32 -63t-11.5 -82q0 -60 30.5 -93t86.5 -33z" />
    <glyph glyph-name="ydieresis" unicode="&#xff;" horiz-adv-x="563" 
d="M183 59l-126 464h149l73 -315l162 315h146l-390 -701h-146zM242 600q-31 0 -52.5 20.5t-21.5 50.5t22 51.5t53 21.5q30 0 51.5 -21t21.5 -51q0 -29 -21.5 -50.5t-52.5 -21.5zM445 600q-30 0 -51.5 20.5t-21.5 50.5t21.5 51.5t52.5 21.5t52 -21t21 -51q0 -29 -21 -50.5
t-53 -21.5z" />
    <glyph glyph-name="Amacron" unicode="&#x100;" horiz-adv-x="706" 
d="M466 159h-259l-73 -159h-156l348 715h211l119 -715h-166zM261 274h188l-45 309zM301 868h302l-15 -91h-301z" />
    <glyph glyph-name="amacron" unicode="&#x101;" horiz-adv-x="563" 
d="M188 -11q-75 0 -121 39t-46 108q0 50 19.5 84t55 54.5t84.5 29.5t108 9h86l3 22q7 46 -8.5 70.5t-65.5 24.5q-42 0 -63.5 -19.5t-29.5 -54.5h-138q10 48 32 81.5t53.5 55.5t70 32t82.5 10q112 0 169 -52t39 -164l-25 -159q-8 -51 -10.5 -89t1.5 -71h-138q-3 18 -3.5 36.5
t0.5 35.5q-25 -37 -63 -60t-92 -23zM237 89q45 0 77 25t39 72l7 41h-68q-66 0 -97 -17t-31 -59q0 -26 18 -44t55 -18zM198 712h291l-13 -87h-291z" />
    <glyph glyph-name="Abreve" unicode="&#x102;" horiz-adv-x="706" 
d="M466 159h-259l-73 -159h-156l348 715h211l119 -715h-166zM261 274h188l-45 309zM440 757q-70 0 -110 40t-40 106h97q5 -52 55 -52t60 52h96q-4 -34 -17.5 -61t-34.5 -46t-48 -29t-58 -10z" />
    <glyph glyph-name="abreve" unicode="&#x103;" horiz-adv-x="563" 
d="M188 -11q-75 0 -121 39t-46 108q0 50 19.5 84t55 54.5t84.5 29.5t108 9h86l3 22q7 46 -8.5 70.5t-65.5 24.5q-42 0 -63.5 -19.5t-29.5 -54.5h-138q10 48 32 81.5t53.5 55.5t70 32t82.5 10q112 0 169 -52t39 -164l-25 -159q-8 -51 -10.5 -89t1.5 -71h-138q-3 18 -3.5 36.5
t0.5 35.5q-25 -37 -63 -60t-92 -23zM237 89q45 0 77 25t39 72l7 41h-68q-66 0 -97 -17t-31 -59q0 -26 18 -44t55 -18zM335 598q-34 0 -61.5 10.5t-47 29.5t-30 46.5t-9.5 62.5h94q5 -54 56 -54q53 0 62 54h94q-8 -70 -51.5 -109.5t-106.5 -39.5z" />
    <glyph glyph-name="Aogonek" unicode="&#x104;" horiz-adv-x="706" 
d="M460 159h-259l-73 -159h-156l348 715h211l118 -709q-13 -8 -25.5 -17t-23 -19t-17 -21.5t-6.5 -24.5q0 -26 32 -26q20 0 35 6l-11 -73q-12 -5 -29 -9t-42 -4q-21 0 -40.5 4t-34.5 13.5t-23.5 24.5t-8.5 38q0 19 8.5 35t21.5 28.5t29.5 22.5t32.5 16h-63zM255 274h188
l-45 309z" />
    <glyph glyph-name="aogonek" unicode="&#x105;" horiz-adv-x="563" 
d="M400 -182q-21 0 -40.5 4t-34.5 13.5t-24 24.5t-9 38q0 19 8.5 35t21.5 28.5t29 22.5t32 16h-43q-3 18 -3.5 36.5t0.5 35.5q-25 -37 -63 -60t-92 -23q-75 0 -121 39t-46 108q0 50 19.5 84t55 54.5t84.5 29.5t108 9h86l3 22q7 46 -8.5 70.5t-65.5 24.5q-42 0 -63.5 -19.5
t-29.5 -54.5h-138q10 48 32 81.5t53.5 55.5t70 32t82.5 10q112 0 169 -52t39 -164l-25 -159q-8 -50 -10.5 -87t1.5 -70q-10 -7 -21 -15.5t-20.5 -18t-16 -21t-6.5 -24.5q0 -26 32 -26q9 0 18.5 1.5t17.5 5.5l-12 -74q-11 -5 -28 -9t-42 -4zM231 89q45 0 77 25t39 72l7 41
h-68q-66 0 -97 -17t-31 -59q0 -26 18 -44t55 -18z" />
    <glyph glyph-name="Cacute" unicode="&#x106;" horiz-adv-x="749" 
d="M396 -11q-77 0 -139.5 21t-106.5 61t-67.5 98.5t-23.5 133.5q0 90 27.5 167.5t78.5 134.5t123.5 89t162.5 32q64 0 117.5 -16.5t92.5 -49t61.5 -81t25.5 -113.5h-161q-8 65 -41.5 99t-99.5 34q-53 0 -93.5 -23t-68 -63t-42 -92.5t-14.5 -112.5q0 -43 9.5 -78t30.5 -60
t53.5 -38.5t76.5 -13.5q66 0 109.5 36.5t62.5 102.5h159q-12 -65 -42 -115t-74 -84t-99.5 -51.5t-117.5 -17.5zM461 902h158l-112 -139h-111z" />
    <glyph glyph-name="cacute" unicode="&#x107;" horiz-adv-x="570" 
d="M293 -10q-58 0 -105.5 16t-81.5 47t-52.5 75.5t-18.5 100.5q0 71 22 127.5t60.5 96t91 60.5t112.5 21q48 0 89.5 -12t72.5 -36.5t50 -63t21 -91.5h-136q-5 51 -31 70.5t-70 19.5q-32 0 -57.5 -14t-43 -39.5t-27 -61t-9.5 -78.5q0 -62 28.5 -96.5t89.5 -34.5
q44 0 75.5 25.5t40.5 75.5h131q-15 -100 -81.5 -154t-170.5 -54zM347 753h154l-123 -159h-107z" />
    <glyph glyph-name="Ccircumflex" unicode="&#x108;" horiz-adv-x="749" 
d="M396 -11q-77 0 -139.5 21t-106.5 61t-67.5 98.5t-23.5 133.5q0 90 27.5 167.5t78.5 134.5t123.5 89t162.5 32q64 0 117.5 -16.5t92.5 -49t61.5 -81t25.5 -113.5h-161q-8 65 -41.5 99t-99.5 34q-53 0 -93.5 -23t-68 -63t-42 -92.5t-14.5 -112.5q0 -43 9.5 -78t30.5 -60
t53.5 -38.5t76.5 -13.5q66 0 109.5 36.5t62.5 102.5h159q-12 -65 -42 -115t-74 -84t-99.5 -51.5t-117.5 -17.5zM414 902h123l92 -139h-100l-62 53l-75 -53h-106z" />
    <glyph glyph-name="ccircumflex" unicode="&#x109;" horiz-adv-x="570" 
d="M293 -10q-58 0 -105.5 16t-81.5 47t-52.5 75.5t-18.5 100.5q0 71 22 127.5t60.5 96t91 60.5t112.5 21q48 0 89.5 -12t72.5 -36.5t50 -63t21 -91.5h-136q-5 51 -31 70.5t-70 19.5q-32 0 -57.5 -14t-43 -39.5t-27 -61t-9.5 -78.5q0 -62 28.5 -96.5t89.5 -34.5
q44 0 75.5 25.5t40.5 75.5h131q-15 -100 -81.5 -154t-170.5 -54zM295 751h108l93 -156h-98l-60 63l-79 -63h-103z" />
    <glyph glyph-name="Cdotaccent" unicode="&#x10a;" horiz-adv-x="749" 
d="M396 -11q-77 0 -139.5 21t-106.5 61t-67.5 98.5t-23.5 133.5q0 90 27.5 167.5t78.5 134.5t123.5 89t162.5 32q64 0 117.5 -16.5t92.5 -49t61.5 -81t25.5 -113.5h-161q-8 65 -41.5 99t-99.5 34q-53 0 -93.5 -23t-68 -63t-42 -92.5t-14.5 -112.5q0 -43 9.5 -78t30.5 -60
t53.5 -38.5t76.5 -13.5q66 0 109.5 36.5t62.5 102.5h159q-12 -65 -42 -115t-74 -84t-99.5 -51.5t-117.5 -17.5zM464 768q-35 0 -58 22t-23 54t23.5 54.5t57.5 22.5q35 0 58 -21.5t23 -54.5q0 -32 -23.5 -54.5t-57.5 -22.5z" />
    <glyph glyph-name="cdotaccent" unicode="&#x10b;" horiz-adv-x="570" 
d="M293 -10q-58 0 -105.5 16t-81.5 47t-52.5 75.5t-18.5 100.5q0 71 22 127.5t60.5 96t91 60.5t112.5 21q48 0 89.5 -12t72.5 -36.5t50 -63t21 -91.5h-136q-5 51 -31 70.5t-70 19.5q-32 0 -57.5 -14t-43 -39.5t-27 -61t-9.5 -78.5q0 -62 28.5 -96.5t89.5 -34.5
q44 0 75.5 25.5t40.5 75.5h131q-15 -100 -81.5 -154t-170.5 -54zM342 598q-34 0 -57 21.5t-23 54.5q0 32 23.5 54.5t57.5 22.5t57 -22t23 -54t-23.5 -54.5t-57.5 -22.5z" />
    <glyph glyph-name="Ccaron" unicode="&#x10c;" horiz-adv-x="749" 
d="M396 -11q-77 0 -139.5 21t-106.5 61t-67.5 98.5t-23.5 133.5q0 90 27.5 167.5t78.5 134.5t123.5 89t162.5 32q64 0 117.5 -16.5t92.5 -49t61.5 -81t25.5 -113.5h-161q-8 65 -41.5 99t-99.5 34q-53 0 -93.5 -23t-68 -63t-42 -92.5t-14.5 -112.5q0 -43 9.5 -78t30.5 -60
t53.5 -38.5t76.5 -13.5q66 0 109.5 36.5t62.5 102.5h159q-12 -65 -42 -115t-74 -84t-99.5 -51.5t-117.5 -17.5zM515 763h-123l-92 139h100l62 -52l75 52h106z" />
    <glyph glyph-name="ccaron" unicode="&#x10d;" horiz-adv-x="570" 
d="M293 -10q-58 0 -105.5 16t-81.5 47t-52.5 75.5t-18.5 100.5q0 71 22 127.5t60.5 96t91 60.5t112.5 21q48 0 89.5 -12t72.5 -36.5t50 -63t21 -91.5h-136q-5 51 -31 70.5t-70 19.5q-32 0 -57.5 -14t-43 -39.5t-27 -61t-9.5 -78.5q0 -62 28.5 -96.5t89.5 -34.5
q44 0 75.5 25.5t40.5 75.5h131q-15 -100 -81.5 -154t-170.5 -54zM379 595h-108l-93 156h97l61 -63l78 63h104z" />
    <glyph glyph-name="Dcaron" unicode="&#x10e;" horiz-adv-x="730" 
d="M154 715h210q90 0 156.5 -22t110 -61.5t65 -96t21.5 -125.5q0 -93 -28.5 -168.5t-82.5 -129.5t-131 -83t-173 -29h-261zM301 126q119 0 183.5 72.5t64.5 206.5q0 84 -44.5 134.5t-144.5 50.5h-64l-73 -464h78zM463 763h-123l-92 139h100l62 -52l75 52h106z" />
    <glyph glyph-name="dcaron" unicode="&#x10f;" horiz-adv-x="634" 
d="M238 -11q-44 0 -81.5 15t-64.5 44.5t-42 72t-15 97.5q0 70 19 128.5t54 100.5t83.5 65t107.5 23q66 0 105 -26.5t58 -65.5l50 317h145l-94 -600q-8 -52 -11 -89.5t0 -70.5h-142q-2 20 -2 41t2 44q-29 -47 -71 -71.5t-101 -24.5zM291 99q32 0 59.5 13.5t47.5 39.5t31.5 63
t11.5 85q0 60 -31 92.5t-82 32.5q-33 0 -60 -14.5t-45.5 -40.5t-28.5 -62.5t-10 -79.5q0 -61 27.5 -95t79.5 -34zM707 760h117l-73 -174h-81z" />
    <glyph glyph-name="Dcroat" unicode="&#x110;" horiz-adv-x="749" 
d="M54 415h65l48 300h210q90 0 156.5 -22t110 -61.5t65 -96t21.5 -125.5q0 -93 -28.5 -168.5t-82.5 -129.5t-131 -83t-173 -29h-261l48 303h-65zM314 126q119 0 184 72.5t65 206.5q0 84 -45 134.5t-145 50.5h-66l-28 -175h152l-18 -112h-152l-28 -177h81z" />
    <glyph glyph-name="dcroat" unicode="&#x111;" horiz-adv-x="634" 
d="M330 680h163l13 80h145l-13 -80h63l-13 -83h-63l-68 -437q-8 -52 -11 -89.5t0 -70.5h-142q-2 20 -2 41t2 44q-29 -47 -71 -71.5t-101 -24.5q-44 0 -81.5 15t-64.5 44.5t-42 72t-15 97.5q0 70 19 128.5t54 100.5t83.5 65t107.5 23q66 0 105 -26.5t58 -65.5l24 154h-163z
M322 425q-33 0 -60 -14.5t-45.5 -40.5t-28.5 -62.5t-10 -79.5q0 -62 27 -95.5t80 -33.5q32 0 59.5 13.5t47.5 39.5t31.5 64t11.5 86q0 60 -30.5 91.5t-82.5 31.5z" />
    <glyph glyph-name="Emacron" unicode="&#x112;" horiz-adv-x="598" 
d="M154 715h463l-20 -126h-302l-26 -167h243l-18 -118h-243l-29 -178h321l-20 -126h-482zM254 868h302l-15 -91h-301z" />
    <glyph glyph-name="emacron" unicode="&#x113;" horiz-adv-x="580" 
d="M177 214q0 -55 26.5 -88.5t88.5 -33.5q45 0 73 19t39 54h137q-11 -44 -33.5 -76.5t-55.5 -55t-74.5 -33.5t-89.5 -11q-56 0 -102.5 15t-80 44.5t-52.5 73t-19 99.5q0 70 22 128t60.5 99t91.5 64t115 23q60 0 108 -18.5t78.5 -54.5t42.5 -89t2 -121l-4 -23h-373v-15z
M322 435q-42 0 -78.5 -27t-54.5 -90h230q5 57 -18 87t-79 30zM209 712h291l-13 -87h-291z" />
    <glyph glyph-name="Ebreve" unicode="&#x114;" horiz-adv-x="598" 
d="M154 715h463l-20 -126h-302l-26 -167h243l-18 -118h-243l-29 -178h321l-20 -126h-482zM394 757q-70 0 -110 40t-40 106h97q5 -52 55 -52t60 52h96q-4 -34 -17.5 -61t-34.5 -46t-48 -29t-58 -10z" />
    <glyph glyph-name="ebreve" unicode="&#x115;" horiz-adv-x="580" 
d="M177 214q0 -55 26.5 -88.5t88.5 -33.5q45 0 73 19t39 54h137q-11 -44 -33.5 -76.5t-55.5 -55t-74.5 -33.5t-89.5 -11q-56 0 -102.5 15t-80 44.5t-52.5 73t-19 99.5q0 70 22 128t60.5 99t91.5 64t115 23q60 0 108 -18.5t78.5 -54.5t42.5 -89t2 -121l-4 -23h-373v-15z
M322 435q-42 0 -78.5 -27t-54.5 -90h230q5 57 -18 87t-79 30zM342 598q-34 0 -61.5 10.5t-47 29.5t-30 46.5t-9.5 62.5h94q5 -54 56 -54q53 0 62 54h94q-8 -70 -51.5 -109.5t-106.5 -39.5z" />
    <glyph glyph-name="Edotaccent" unicode="&#x116;" horiz-adv-x="598" 
d="M154 715h463l-20 -126h-302l-26 -167h243l-18 -118h-243l-29 -178h321l-20 -126h-482zM394 768q-35 0 -58 22t-23 54t23.5 54.5t57.5 22.5q35 0 58 -21.5t23 -54.5q0 -32 -23.5 -54.5t-57.5 -22.5z" />
    <glyph glyph-name="edotaccent" unicode="&#x117;" horiz-adv-x="580" 
d="M177 214q0 -55 26.5 -88.5t88.5 -33.5q45 0 73 19t39 54h137q-11 -44 -33.5 -76.5t-55.5 -55t-74.5 -33.5t-89.5 -11q-56 0 -102.5 15t-80 44.5t-52.5 73t-19 99.5q0 70 22 128t60.5 99t91.5 64t115 23q60 0 108 -18.5t78.5 -54.5t42.5 -89t2 -121l-4 -23h-373v-15z
M322 435q-42 0 -78.5 -27t-54.5 -90h230q5 57 -18 87t-79 30zM344 598q-34 0 -57 21.5t-23 54.5q0 32 23.5 54.5t57.5 22.5t57 -22t23 -54t-23.5 -54.5t-57.5 -22.5z" />
    <glyph glyph-name="Eogonek" unicode="&#x118;" horiz-adv-x="598" 
d="M148 715h463l-20 -126h-302l-26 -167h243l-18 -118h-243l-29 -178h321l-20 -126h-34q-9 -6 -20.5 -13.5t-21.5 -17t-16.5 -21t-6.5 -25.5q0 -25 32 -25q21 0 36 6l-12 -73q-11 -5 -28 -9t-42 -4q-21 0 -40.5 4t-34.5 13t-24 24t-9 36q0 19 8 35.5t21 29.5t29 23t31 17
h-350z" />
    <glyph glyph-name="eogonek" unicode="&#x119;" horiz-adv-x="580" 
d="M282 -11q-56 0 -102.5 15t-80 44.5t-52.5 73t-19 99.5q0 70 22 128t60.5 99t91.5 64t115 23q60 0 108 -18.5t78.5 -54.5t42.5 -89t2 -121l-4 -23h-373v-15q0 -55 26.5 -88.5t88.5 -33.5q45 0 73 19t39 54h137q-9 -37 -25.5 -65t-44.5 -53q-14 -14 -35 -27.5t-40 -28.5
t-32.5 -31.5t-13.5 -35.5q0 -26 32 -26q21 0 36 7l-11 -74q-12 -5 -29 -9t-42 -4q-21 0 -40.5 4t-34.5 13t-23.5 24t-8.5 37q0 18 7 32t18.5 25.5t26 20.5t29.5 16q-5 -1 -11 -1h-11zM316 435q-42 0 -78.5 -27t-54.5 -90h230q5 57 -18 87t-79 30z" />
    <glyph glyph-name="Ecaron" unicode="&#x11a;" horiz-adv-x="598" 
d="M154 715h463l-20 -126h-302l-26 -167h243l-18 -118h-243l-29 -178h321l-20 -126h-482zM443 763h-123l-92 139h100l62 -52l75 52h106z" />
    <glyph glyph-name="ecaron" unicode="&#x11b;" horiz-adv-x="580" 
d="M177 214q0 -55 26.5 -88.5t88.5 -33.5q45 0 73 19t39 54h137q-11 -44 -33.5 -76.5t-55.5 -55t-74.5 -33.5t-89.5 -11q-56 0 -102.5 15t-80 44.5t-52.5 73t-19 99.5q0 70 22 128t60.5 99t91.5 64t115 23q60 0 108 -18.5t78.5 -54.5t42.5 -89t2 -121l-4 -23h-373v-15z
M322 435q-42 0 -78.5 -27t-54.5 -90h230q5 57 -18 87t-79 30zM383 595h-108l-93 156h97l61 -63l78 63h104z" />
    <glyph glyph-name="Gcircumflex" unicode="&#x11c;" horiz-adv-x="781" 
d="M404 -11q-80 0 -144 22.5t-108.5 64t-68 101t-23.5 133.5q0 87 29 163t81.5 132t124.5 88t158 32q60 0 114 -14.5t95 -44.5t67 -77t29 -113h-161q-6 61 -44.5 91t-104.5 30q-53 0 -94 -23t-69 -62t-43 -91t-15 -110q0 -91 45 -144t136 -53q41 0 72 11.5t53 31.5
t35.5 47.5t19.5 60.5h-161l19 118h321q-14 -201 -104.5 -297.5t-258.5 -96.5zM408 902h123l92 -139h-100l-62 53l-75 -53h-106z" />
    <glyph glyph-name="gcircumflex" unicode="&#x11d;" horiz-adv-x="634" 
d="M292 131q32 0 59.5 13t47.5 36t31 56t11 74q0 54 -31 85t-82 31q-34 0 -60 -14.5t-44 -38.5t-27 -55t-9 -64q0 -55 26 -89t78 -34zM540 29q-18 -112 -83.5 -167t-193.5 -55q-69 0 -117 15.5t-79 41t-45.5 58t-17.5 67.5h144q5 -30 30.5 -53t81.5 -23q67 0 97 32t39 87
l12 74q-27 -41 -67 -62t-96 -21q-45 0 -83 15t-65 43.5t-42.5 69.5t-15.5 94q0 62 19 115t53.5 92t82 61t103.5 22q66 0 105.5 -26.5t58.5 -65.5l13 80h144zM323 751h108l93 -156h-98l-60 63l-79 -63h-103z" />
    <glyph glyph-name="Gbreve" unicode="&#x11e;" horiz-adv-x="781" 
d="M404 -11q-80 0 -144 22.5t-108.5 64t-68 101t-23.5 133.5q0 87 29 163t81.5 132t124.5 88t158 32q60 0 114 -14.5t95 -44.5t67 -77t29 -113h-161q-6 61 -44.5 91t-104.5 30q-53 0 -94 -23t-69 -62t-43 -91t-15 -110q0 -91 45 -144t136 -53q41 0 72 11.5t53 31.5
t35.5 47.5t19.5 60.5h-161l19 118h321q-14 -201 -104.5 -297.5t-258.5 -96.5zM460 757q-70 0 -110 40t-40 106h97q5 -52 55 -52t60 52h96q-4 -34 -17.5 -61t-34.5 -46t-48 -29t-58 -10z" />
    <glyph glyph-name="gbreve" unicode="&#x11f;" horiz-adv-x="634" 
d="M292 131q32 0 59.5 13t47.5 36t31 56t11 74q0 54 -31 85t-82 31q-34 0 -60 -14.5t-44 -38.5t-27 -55t-9 -64q0 -55 26 -89t78 -34zM540 29q-18 -112 -83.5 -167t-193.5 -55q-69 0 -117 15.5t-79 41t-45.5 58t-17.5 67.5h144q5 -30 30.5 -53t81.5 -23q67 0 97 32t39 87
l12 74q-27 -41 -67 -62t-96 -21q-45 0 -83 15t-65 43.5t-42.5 69.5t-15.5 94q0 62 19 115t53.5 92t82 61t103.5 22q66 0 105.5 -26.5t58.5 -65.5l13 80h144zM364 598q-34 0 -61.5 10.5t-47 29.5t-30 46.5t-9.5 62.5h94q5 -54 56 -54q53 0 62 54h94q-8 -70 -51.5 -109.5
t-106.5 -39.5z" />
    <glyph glyph-name="Gdotaccent" unicode="&#x120;" horiz-adv-x="781" 
d="M404 -11q-80 0 -144 22.5t-108.5 64t-68 101t-23.5 133.5q0 87 29 163t81.5 132t124.5 88t158 32q60 0 114 -14.5t95 -44.5t67 -77t29 -113h-161q-6 61 -44.5 91t-104.5 30q-53 0 -94 -23t-69 -62t-43 -91t-15 -110q0 -91 45 -144t136 -53q41 0 72 11.5t53 31.5
t35.5 47.5t19.5 60.5h-161l19 118h321q-14 -201 -104.5 -297.5t-258.5 -96.5zM459 768q-35 0 -58 22t-23 54t23.5 54.5t57.5 22.5q35 0 58 -21.5t23 -54.5q0 -32 -23.5 -54.5t-57.5 -22.5z" />
    <glyph glyph-name="gdotaccent" unicode="&#x121;" horiz-adv-x="634" 
d="M292 131q32 0 59.5 13t47.5 36t31 56t11 74q0 54 -31 85t-82 31q-34 0 -60 -14.5t-44 -38.5t-27 -55t-9 -64q0 -55 26 -89t78 -34zM540 29q-18 -112 -83.5 -167t-193.5 -55q-69 0 -117 15.5t-79 41t-45.5 58t-17.5 67.5h144q5 -30 30.5 -53t81.5 -23q67 0 97 32t39 87
l12 74q-27 -41 -67 -62t-96 -21q-45 0 -83 15t-65 43.5t-42.5 69.5t-15.5 94q0 62 19 115t53.5 92t82 61t103.5 22q66 0 105.5 -26.5t58.5 -65.5l13 80h144zM366 598q-34 0 -57 21.5t-23 54.5q0 32 23.5 54.5t57.5 22.5t57 -22t23 -54t-23.5 -54.5t-57.5 -22.5z" />
    <glyph glyph-name="Gcommaaccent" unicode="&#x122;" horiz-adv-x="781" 
d="M404 -11q-80 0 -144 22.5t-108.5 64t-68 101t-23.5 133.5q0 87 29 163t81.5 132t124.5 88t158 32q60 0 114 -14.5t95 -44.5t67 -77t29 -113h-161q-6 61 -44.5 91t-104.5 30q-53 0 -94 -23t-69 -62t-43 -91t-15 -110q0 -91 45 -144t136 -53q41 0 72 11.5t53 31.5
t35.5 47.5t19.5 60.5h-161l19 118h321q-14 -201 -104.5 -297.5t-258.5 -96.5zM236 -201l58 170l129 -21l-107 -176z" />
    <glyph glyph-name="gcommaaccent" unicode="&#x123;" horiz-adv-x="634" 
d="M292 131q32 0 59.5 13t47.5 36t31 56t11 74q0 54 -31 85t-82 31q-34 0 -60 -14.5t-44 -38.5t-27 -55t-9 -64q0 -55 26 -89t78 -34zM540 29q-18 -112 -83.5 -167t-193.5 -55q-69 0 -117 15.5t-79 41t-45.5 58t-17.5 67.5h144q5 -30 30.5 -53t81.5 -23q67 0 97 32t39 87
l12 74q-27 -41 -67 -62t-96 -21q-45 0 -83 15t-65 43.5t-42.5 69.5t-15.5 94q0 62 19 115t53.5 92t82 61t103.5 22q66 0 105.5 -26.5t58.5 -65.5l13 80h144zM465 749l-58 -170l-128 21l106 175z" />
    <glyph glyph-name="Hcircumflex" unicode="&#x124;" horiz-adv-x="764" 
d="M154 715h162l-46 -292h286l47 292h162l-113 -715h-162l46 295h-287l-46 -295h-162zM417 902h123l92 -139h-100l-62 53l-75 -53h-106z" />
    <glyph glyph-name="hcircumflex" unicode="&#x125;" horiz-adv-x="611" 
d="M148 760h144l-50 -324q26 42 68 70.5t106 28.5q38 0 69.5 -12.5t52.5 -39t28.5 -68.5t-1.5 -101l-50 -314h-144l49 313q18 104 -70 104q-51 0 -86.5 -31.5t-44.5 -91.5l-47 -294h-144zM347 941h123l92 -139h-100l-62 53l-75 -53h-106z" />
    <glyph glyph-name="Hbar" unicode="&#x126;" horiz-adv-x="764" 
d="M65 596h64l19 119h162l-19 -119h286l20 119h162l-19 -119h63l-13 -85h-63l-81 -511h-162l46 295h-287l-46 -295h-162l81 511h-65zM550 423l14 88h-286l-14 -88h286z" />
    <glyph glyph-name="hbar" unicode="&#x127;" horiz-adv-x="611" 
d="M66 680h63l13 80h144l-13 -80h164l-13 -83h-163l-25 -161q26 42 68 70.5t106 28.5q38 0 69.5 -12.5t52.5 -39t28.5 -68.5t-1.5 -101l-50 -314h-144l49 313q9 56 -8.5 80t-61.5 24q-51 0 -86.5 -31.5t-44.5 -91.5l-47 -294h-144l94 597h-63z" />
    <glyph glyph-name="Itilde" unicode="&#x128;" horiz-adv-x="326" 
d="M158 715h163l-113 -715h-163zM319 764q-20 0 -36.5 6t-30.5 12.5t-26 12.5t-23 6q-13 0 -24 -10t-15 -27h-87q12 71 46 105.5t79 34.5q19 0 35 -6t30.5 -13t27 -13t24.5 -6q28 0 39 37h86q-13 -70 -47.5 -104.5t-77.5 -34.5z" />
    <glyph glyph-name="itilde" unicode="&#x129;" horiz-adv-x="281" 
d="M115 523h144l-83 -523h-144zM269 598q-20 0 -36.5 6t-30 13t-25.5 13t-23 6q-13 0 -23.5 -10t-15.5 -27h-83q11 70 43 105.5t77 35.5q19 0 35 -6t30 -12.5t26.5 -12.5t24.5 -6q28 0 38 37h84q-12 -71 -45 -106.5t-76 -35.5z" />
    <glyph glyph-name="Imacron" unicode="&#x12a;" horiz-adv-x="326" 
d="M158 715h163l-113 -715h-163zM112 868h302l-15 -91h-301z" />
    <glyph glyph-name="imacron" unicode="&#x12b;" horiz-adv-x="281" 
d="M98 712h226l-13 -87h-227zM109 523h144l-83 -523h-144z" />
    <glyph glyph-name="Ibreve" unicode="&#x12c;" horiz-adv-x="326" 
d="M158 715h163l-113 -715h-163zM254 757q-70 0 -110 40t-40 106h97q5 -52 55 -52t60 52h96q-4 -34 -17.5 -61t-34.5 -46t-48 -29t-58 -10z" />
    <glyph glyph-name="ibreve" unicode="&#x12d;" horiz-adv-x="281" 
d="M115 523h144l-83 -523h-144zM205 598q-34 0 -61.5 10.5t-47 29.5t-30 46.5t-9.5 62.5h94q5 -54 56 -54q53 0 62 54h94q-8 -70 -51.5 -109.5t-106.5 -39.5z" />
    <glyph glyph-name="Iogonek" unicode="&#x12e;" horiz-adv-x="326" 
d="M114 -182q-21 0 -40.5 4t-34.5 13.5t-24 24.5t-9 38q0 19 8.5 35t22 28.5t30 22.5t32.5 16h-60l113 715h163l-111 -704q-27 -19 -51 -40.5t-24 -46.5q0 -26 32 -26q20 0 35 6l-12 -73q-11 -5 -28 -9t-42 -4z" />
    <glyph glyph-name="iogonek" unicode="&#x12f;" horiz-adv-x="281" 
d="M109 523h144l-81 -512q-27 -18 -50.5 -39t-23.5 -48q0 -26 31 -26q20 0 35 6l-11 -73q-12 -5 -29 -9t-42 -4q-20 0 -39.5 4t-34.5 13.5t-23.5 24.5t-8.5 38q0 19 8.5 35t21.5 28.5t29 22.5t31 16h-40zM202 595q-35 0 -58 22t-23 56q0 33 23.5 55.5t58.5 22.5t58 -22
t23 -55q0 -34 -23.5 -56.5t-58.5 -22.5z" />
    <glyph glyph-name="Idotaccent" unicode="&#x130;" horiz-adv-x="326" 
d="M158 715h163l-113 -715h-163zM253 768q-35 0 -58 22t-23 54t23.5 54.5t57.5 22.5q35 0 58 -21.5t23 -54.5q0 -32 -23.5 -54.5t-57.5 -22.5z" />
    <glyph glyph-name="dotlessi" unicode="&#x131;" horiz-adv-x="293" 
d="M115 523h144l-83 -523h-144z" />
    <glyph glyph-name="IJ" unicode="&#x132;" horiz-adv-x="750" 
d="M135 715h163l-113 -715h-163zM408 -9q-58 0 -89.5 9.5t-49.5 19.5l19 122q19 -8 41.5 -15t54.5 -7q45 0 73 23.5t36 78.5l78 493h163l-80 -501q-18 -116 -83 -169.5t-163 -53.5z" />
    <glyph glyph-name="ij" unicode="&#x133;" horiz-adv-x="281" 
d="M208 595q-35 0 -58 22t-23 56q0 33 23.5 55.5t58.5 22.5t58 -22t23 -55q0 -34 -23.5 -56.5t-58.5 -22.5zM115 523h144l-83 -523h-144zM231 -79q38 2 56 18.5t23 48.5l85 535h143l-86 -548q-6 -36 -20.5 -66.5t-42 -52t-70.5 -32.5t-104 -9zM488 595q-35 0 -58 22t-23 56
q0 33 23.5 55.5t58.5 22.5t58 -22t23 -55q0 -34 -23.5 -56.5t-58.5 -22.5z" />
    <glyph glyph-name="Jcircumflex" unicode="&#x134;" horiz-adv-x="457" 
d="M140 -9q-58 0 -89.5 9.5t-49.5 19.5l19 122q19 -8 41.5 -15t54.5 -7q45 0 73 23.5t36 78.5l78 493h163l-80 -501q-18 -116 -83 -169.5t-163 -53.5zM344 902h123l92 -139h-100l-62 53l-75 -53h-106z" />
    <glyph glyph-name="jcircumflex" unicode="&#x135;" horiz-adv-x="281" 
d="M-55 -79q38 2 56 18.5t23 48.5l85 535h143l-86 -548q-6 -36 -20.5 -66.5t-42 -52t-70.5 -32.5t-104 -9zM160 751h108l93 -156h-98l-60 63l-79 -63h-103z" />
    <glyph glyph-name="Kcommaaccent" unicode="&#x136;" horiz-adv-x="686" 
d="M154 715h162l-49 -307l301 307h177l-342 -343l235 -372h-177l-206 331l-52 -331h-162zM197 -201l58 170l129 -21l-107 -176z" />
    <glyph glyph-name="kcommaaccent" unicode="&#x137;" horiz-adv-x="552" 
d="M148 760h144l-72 -456l202 219h161l-233 -241l160 -282h-158l-139 255l-40 -255h-145zM140 -201l58 170l129 -21l-107 -176z" />
    <glyph glyph-name="Lacute" unicode="&#x139;" horiz-adv-x="560" 
d="M154 715h162l-93 -588h291l-20 -127h-453zM244 902h158l-112 -139h-111z" />
    <glyph glyph-name="lacute" unicode="&#x13a;" horiz-adv-x="280" 
d="M152 760h144l-120 -760h-144zM234 941h158l-112 -139h-111z" />
    <glyph glyph-name="Lcommaaccent" unicode="&#x13b;" horiz-adv-x="560" 
d="M154 715h162l-93 -588h291l-20 -127h-453zM141 -201l58 170l129 -21l-107 -176z" />
    <glyph glyph-name="lcommaaccent" unicode="&#x13c;" horiz-adv-x="280" 
d="M152 760h144l-120 -760h-144zM-20 -201l58 170l129 -21l-107 -176z" />
    <glyph glyph-name="Lcaron" unicode="&#x13d;" horiz-adv-x="560" 
d="M440 715h129l-85 -169h-87zM148 715h162l-93 -588h291l-20 -127h-453z" />
    <glyph glyph-name="lcaron" unicode="&#x13e;" horiz-adv-x="280" 
d="M152 760h144l-120 -760h-144zM347 760h117l-73 -174h-81z" />
    <glyph glyph-name="Ldot" unicode="&#x13f;" horiz-adv-x="577" 
d="M154 715h162l-93 -588h291l-20 -127h-453zM490 307q-38 0 -63.5 25.5t-25.5 62.5q0 36 25 61.5t63 25.5q19 0 35.5 -7t29 -18.5t19.5 -27.5t7 -34t-7 -34t-19 -28t-28.5 -19t-35.5 -7z" />
    <glyph glyph-name="ldot" unicode="&#x140;" horiz-adv-x="409" 
d="M152 760h144l-120 -760h-144zM364 274q-38 0 -63.5 25.5t-25.5 62.5q0 36 25 61.5t63 25.5q19 0 35.5 -7t29 -18.5t19.5 -27.5t7 -34t-7 -34t-19 -28t-28.5 -19t-35.5 -7z" />
    <glyph glyph-name="Lslash" unicode="&#x141;" horiz-adv-x="591" 
d="M47 332l69 23l57 360h162l-48 -304l197 66l-15 -97l-198 -66l-29 -187h291l-20 -127h-453l40 258l-68 -23z" />
    <glyph glyph-name="lslash" unicode="&#x142;" horiz-adv-x="325" 
d="M42 381l71 33l55 346h144l-44 -275l77 36l-17 -102l-76 -35l-60 -384h-144l49 312l-71 -33z" />
    <glyph glyph-name="Nacute" unicode="&#x143;" horiz-adv-x="758" 
d="M154 715h189l194 -471l75 471h146l-113 -715h-163l-215 509l-80 -509h-146zM475 902h158l-112 -139h-111z" />
    <glyph glyph-name="nacute" unicode="&#x144;" horiz-adv-x="611" 
d="M84 357q9 56 12.5 93.5t5.5 72.5h139q0 -20 -1 -45t-4 -49q28 45 72 75.5t108 30.5q38 0 69.5 -12.5t52.5 -39t28.5 -68.5t-1.5 -101l-50 -314h-144l49 313q18 104 -70 104q-51 0 -86.5 -31.5t-44.5 -91.5l-47 -294h-144zM370 753h154l-123 -159h-107z" />
    <glyph glyph-name="Ncommaaccent" unicode="&#x145;" horiz-adv-x="758" 
d="M154 715h189l194 -471l75 471h146l-113 -715h-163l-215 509l-80 -509h-146zM220 -201l58 170l129 -21l-107 -176z" />
    <glyph glyph-name="ncommaaccent" unicode="&#x146;" horiz-adv-x="610" 
d="M84 357q9 56 12.5 93.5t5.5 72.5h139q0 -20 -1 -45t-4 -49q28 45 72 75.5t108 30.5q38 0 69.5 -12.5t52.5 -39t28.5 -68.5t-1.5 -101l-50 -314h-144l49 313q18 104 -70 104q-51 0 -86.5 -31.5t-44.5 -91.5l-47 -294h-144zM144 -201l58 170l129 -21l-107 -176z" />
    <glyph glyph-name="Ncaron" unicode="&#x147;" horiz-adv-x="758" 
d="M154 715h189l194 -471l75 471h146l-113 -715h-163l-215 509l-80 -509h-146zM530 763h-123l-92 139h100l62 -52l75 52h106z" />
    <glyph glyph-name="ncaron" unicode="&#x148;" horiz-adv-x="611" 
d="M84 357q9 56 12.5 93.5t5.5 72.5h139q0 -20 -1 -45t-4 -49q28 45 72 75.5t108 30.5q38 0 69.5 -12.5t52.5 -39t28.5 -68.5t-1.5 -101l-50 -314h-144l49 313q18 104 -70 104q-51 0 -86.5 -31.5t-44.5 -91.5l-47 -294h-144zM402 595h-108l-93 156h97l61 -63l78 63h104z" />
    <glyph glyph-name="napostrophe" unicode="&#x149;" horiz-adv-x="689" 
d="M162 357q9 56 12.5 93.5t5.5 72.5h139q0 -20 -1 -45t-4 -49q28 45 72 75.5t108 30.5q38 0 69.5 -12.5t52.5 -39t28.5 -68.5t-1.5 -101l-50 -314h-144l49 313q18 104 -70 104q-51 0 -86.5 -31.5t-44.5 -91.5l-47 -294h-144zM4 484l102 243l126 -47l-147 -230z" />
    <glyph glyph-name="Eng" unicode="&#x14a;" horiz-adv-x="758" 
d="M376 -69q41 0 66 17.5t37 57.5l-216 507l-81 -513h-147l113 715h190l193 -465l74 465h147l-111 -701q-33 -207 -240 -207q-51 0 -80 8t-46 17l19 117q17 -8 35 -13t47 -5z" />
    <glyph glyph-name="eng" unicode="&#x14b;" horiz-adv-x="611" 
d="M78 357q9 56 12.5 93.5t5.5 72.5h139q0 -20 -1 -45t-4 -49q28 45 72 75.5t108 30.5q38 0 69.5 -12.5t52.5 -39t28.5 -68.5t-1.5 -101l-54 -338q-5 -36 -19 -66.5t-41.5 -52t-70.5 -33.5t-106 -10l16 108q38 2 56.5 17.5t23.5 49.5l50 324q18 104 -70 104
q-51 0 -86.5 -31.5t-44.5 -91.5l-47 -294h-144z" />
    <glyph glyph-name="Omacron" unicode="&#x14c;" horiz-adv-x="816" 
d="M799 406q0 -92 -30 -168.5t-83 -131.5t-127 -86t-161 -31q-72 0 -134 22t-107.5 63t-71.5 99.5t-26 131.5q0 90 30 167t83 133.5t126 88t160 31.5q75 0 138 -22.5t108 -64t70 -100.5t25 -132zM630 402q0 40 -11 75.5t-32.5 62t-54.5 42t-78 15.5q-54 0 -96 -23t-71.5 -63
t-44.5 -92t-15 -109q0 -88 47.5 -140.5t132.5 -52.5q53 0 94.5 23t70 62t43.5 90.5t15 109.5zM344 868h302l-15 -91h-301z" />
    <glyph glyph-name="omacron" unicode="&#x14d;" horiz-adv-x="606" 
d="M289 -11q-54 0 -100 16t-80 46t-54 74t-20 101q0 66 22 122.5t61 98t92.5 64.5t117.5 23q54 0 100.5 -15.5t81 -45.5t54 -74.5t19.5 -101.5q0 -68 -21.5 -124.5t-60.5 -97t-93 -63.5t-119 -23zM293 99q35 0 61.5 15.5t44.5 42.5t27.5 64t9.5 80q0 54 -27 89t-84 35
q-34 0 -61 -15t-45.5 -42t-28.5 -63.5t-10 -79.5q0 -27 6.5 -50t20 -40t35 -26.5t51.5 -9.5zM216 712h291l-13 -87h-291z" />
    <glyph glyph-name="Obreve" unicode="&#x14e;" horiz-adv-x="816" 
d="M799 406q0 -92 -30 -168.5t-83 -131.5t-127 -86t-161 -31q-72 0 -134 22t-107.5 63t-71.5 99.5t-26 131.5q0 90 30 167t83 133.5t126 88t160 31.5q75 0 138 -22.5t108 -64t70 -100.5t25 -132zM630 402q0 40 -11 75.5t-32.5 62t-54.5 42t-78 15.5q-54 0 -96 -23t-71.5 -63
t-44.5 -92t-15 -109q0 -88 47.5 -140.5t132.5 -52.5q53 0 94.5 23t70 62t43.5 90.5t15 109.5zM485 757q-70 0 -110 40t-40 106h97q5 -52 55 -52t60 52h96q-4 -34 -17.5 -61t-34.5 -46t-48 -29t-58 -10z" />
    <glyph glyph-name="obreve" unicode="&#x14f;" horiz-adv-x="606" 
d="M289 -11q-54 0 -100 16t-80 46t-54 74t-20 101q0 66 22 122.5t61 98t92.5 64.5t117.5 23q54 0 100.5 -15.5t81 -45.5t54 -74.5t19.5 -101.5q0 -68 -21.5 -124.5t-60.5 -97t-93 -63.5t-119 -23zM293 99q35 0 61.5 15.5t44.5 42.5t27.5 64t9.5 80q0 54 -27 89t-84 35
q-34 0 -61 -15t-45.5 -42t-28.5 -63.5t-10 -79.5q0 -27 6.5 -50t20 -40t35 -26.5t51.5 -9.5zM348 598q-34 0 -61.5 10.5t-47 29.5t-30 46.5t-9.5 62.5h94q5 -54 56 -54q53 0 62 54h94q-8 -70 -51.5 -109.5t-106.5 -39.5z" />
    <glyph glyph-name="Ohungarumlaut" unicode="&#x150;" horiz-adv-x="816" 
d="M799 406q0 -92 -30 -168.5t-83 -131.5t-127 -86t-161 -31q-72 0 -134 22t-107.5 63t-71.5 99.5t-26 131.5q0 90 30 167t83 133.5t126 88t160 31.5q75 0 138 -22.5t108 -64t70 -100.5t25 -132zM630 402q0 40 -11 75.5t-32.5 62t-54.5 42t-78 15.5q-54 0 -96 -23t-71.5 -63
t-44.5 -92t-15 -109q0 -88 47.5 -140.5t132.5 -52.5q53 0 94.5 23t70 62t43.5 90.5t15 109.5zM386 902h133l-86 -139h-99zM566 902h132l-86 -139h-98z" />
    <glyph glyph-name="ohungarumlaut" unicode="&#x151;" horiz-adv-x="606" 
d="M289 -11q-54 0 -100 16t-80 46t-54 74t-20 101q0 66 22 122.5t61 98t92.5 64.5t117.5 23q54 0 100.5 -15.5t81 -45.5t54 -74.5t19.5 -101.5q0 -68 -21.5 -124.5t-60.5 -97t-93 -63.5t-119 -23zM293 99q35 0 61.5 15.5t44.5 42.5t27.5 64t9.5 80q0 54 -27 89t-84 35
q-34 0 -61 -15t-45.5 -42t-28.5 -63.5t-10 -79.5q0 -27 6.5 -50t20 -40t35 -26.5t51.5 -9.5zM272 753h124l-94 -159h-90zM440 753h124l-93 -159h-90z" />
    <glyph glyph-name="OE" unicode="&#x152;" horiz-adv-x="987" 
d="M410 0q-89 0 -155 21.5t-109.5 60.5t-65 95t-21.5 125q0 93 29 169.5t83 130.5t131 83.5t173 29.5h523l-21 -126h-287l-26 -167h228l-18 -118h-228l-29 -178h306l-19 -126h-494zM476 589q-119 0 -184.5 -74t-65.5 -207q0 -85 46 -134t147 -49h38l73 464h-54z" />
    <glyph glyph-name="oe" unicode="&#x153;" horiz-adv-x="989" 
d="M575 214q0 -55 26.5 -88.5t88.5 -33.5q45 0 72.5 19t38.5 54h138q-21 -87 -89.5 -131.5t-164.5 -44.5q-66 0 -116 22.5t-79 67.5q-37 -43 -87.5 -66.5t-113.5 -23.5q-54 0 -100 16t-80 46.5t-54 74.5t-20 101q0 66 21.5 122t60.5 97.5t93 64.5t118 23q63 0 113 -24
t81 -69q36 45 87 69.5t112 24.5q60 0 107.5 -18.5t78.5 -54.5t43 -89t1 -121l-3 -23h-373v-15zM292 99q35 0 62 15.5t45.5 42.5t28 64t9.5 80q0 54 -27.5 89t-84.5 35q-34 0 -61 -15t-45.5 -42t-28.5 -63.5t-10 -79.5q0 -27 6 -50t19.5 -40t35 -26.5t51.5 -9.5zM719 435
q-42 0 -78 -27t-54 -90h229q5 57 -17.5 87t-79.5 30z" />
    <glyph glyph-name="Racute" unicode="&#x154;" horiz-adv-x="672" 
d="M154 715h249q118 0 183 -50.5t64 -144.5q0 -47 -14 -83.5t-38 -63.5t-57 -44.5t-71 -25.5l150 -303h-167l-136 276h-72l-43 -276h-161zM358 386q65 0 99 28.5t34 89.5q1 45 -26.5 66t-80.5 21h-88l-33 -205h95zM392 902h158l-112 -139h-111z" />
    <glyph glyph-name="racute" unicode="&#x155;" horiz-adv-x="409" 
d="M84 357q9 56 12.5 93.5t4.5 72.5h140q0 -20 -1.5 -49t-5.5 -61q32 58 76 88t115 30l-21 -135q-81 1 -130 -32t-62 -118l-40 -246h-144zM302 753h154l-123 -159h-107z" />
    <glyph glyph-name="Rcommaaccent" unicode="&#x156;" horiz-adv-x="672" 
d="M154 715h249q118 0 183 -50.5t64 -144.5q0 -47 -14 -83.5t-38 -63.5t-57 -44.5t-71 -25.5l150 -303h-167l-136 276h-72l-43 -276h-161zM358 386q65 0 99 28.5t34 89.5q1 45 -26.5 66t-80.5 21h-88l-33 -205h95zM192 -201l58 170l129 -21l-107 -176z" />
    <glyph glyph-name="rcommaaccent" unicode="&#x157;" horiz-adv-x="409" 
d="M84 357q9 56 12.5 93.5t4.5 72.5h140q0 -20 -1.5 -49t-5.5 -61q32 58 76 88t115 30l-21 -135q-81 1 -130 -32t-62 -118l-40 -246h-144zM-26 -201l58 170l129 -21l-107 -176z" />
    <glyph glyph-name="Rcaron" unicode="&#x158;" horiz-adv-x="672" 
d="M154 715h249q118 0 183 -50.5t64 -144.5q0 -47 -14 -83.5t-38 -63.5t-57 -44.5t-71 -25.5l150 -303h-167l-136 276h-72l-43 -276h-161zM358 386q65 0 99 28.5t34 89.5q1 45 -26.5 66t-80.5 21h-88l-33 -205h95zM444 763h-123l-92 139h100l62 -52l75 52h106z" />
    <glyph glyph-name="rcaron" unicode="&#x159;" horiz-adv-x="409" 
d="M84 357q9 56 12.5 93.5t4.5 72.5h140q0 -20 -1.5 -49t-5.5 -61q32 58 76 88t115 30l-21 -135q-81 1 -130 -32t-62 -118l-40 -246h-144zM331 595h-108l-93 156h97l61 -63l78 63h104z" />
    <glyph glyph-name="Sacute" unicode="&#x15a;" horiz-adv-x="640" 
d="M315 -11q-71 0 -125 17.5t-90.5 48.5t-54.5 74t-18 95h154q1 -23 8.5 -44t24 -37.5t42.5 -26t64 -9.5q59 -1 90 25.5t31 72.5q0 34 -25.5 54.5t-94.5 37.5q-60 14 -103 31.5t-70.5 41.5t-40.5 56t-13 76q0 46 18.5 87t53 71t85 47.5t113.5 17.5q59 0 106.5 -13t80.5 -40
t51 -67t18 -94h-148q-4 52 -34 73.5t-81 21.5q-55 0 -81 -24.5t-26 -62.5q0 -15 5.5 -27t19.5 -22t37 -18.5t59 -17.5q58 -14 101 -31.5t71.5 -41.5t42.5 -56.5t14 -76.5q0 -52 -19 -96t-55.5 -75.5t-89.5 -49.5t-121 -18zM388 902h158l-112 -139h-111z" />
    <glyph glyph-name="sacute" unicode="&#x15b;" horiz-adv-x="501" 
d="M236 -12q-106 0 -164 47t-59 129h135q2 -32 22 -53t71 -21q77 0 77 58q0 12 -4.5 21t-15 16.5t-29 13.5t-46.5 12q-89 19 -128 54t-39 100q0 42 17 74t46.5 53.5t68.5 32t84 10.5q44 0 81.5 -9t65 -28.5t43.5 -50.5t19 -74h-132q-2 27 -23 45t-58 18t-56.5 -14t-19.5 -40
q0 -23 20.5 -35.5t70.5 -23.5q46 -10 79 -22.5t55 -31t32.5 -45t10.5 -63.5q0 -42 -16.5 -74.5t-46 -54t-70.5 -33t-91 -11.5zM306 753h154l-123 -159h-107z" />
    <glyph glyph-name="Scircumflex" unicode="&#x15c;" horiz-adv-x="640" 
d="M315 -11q-71 0 -125 17.5t-90.5 48.5t-54.5 74t-18 95h154q1 -23 8.5 -44t24 -37.5t42.5 -26t64 -9.5q59 -1 90 25.5t31 72.5q0 34 -25.5 54.5t-94.5 37.5q-60 14 -103 31.5t-70.5 41.5t-40.5 56t-13 76q0 46 18.5 87t53 71t85 47.5t113.5 17.5q59 0 106.5 -13t80.5 -40
t51 -67t18 -94h-148q-4 52 -34 73.5t-81 21.5q-55 0 -81 -24.5t-26 -62.5q0 -15 5.5 -27t19.5 -22t37 -18.5t59 -17.5q58 -14 101 -31.5t71.5 -41.5t42.5 -56.5t14 -76.5q0 -52 -19 -96t-55.5 -75.5t-89.5 -49.5t-121 -18zM341 902h123l92 -139h-100l-62 53l-75 -53h-106z
" />
    <glyph glyph-name="scircumflex" unicode="&#x15d;" horiz-adv-x="501" 
d="M236 -12q-106 0 -164 47t-59 129h135q2 -32 22 -53t71 -21q77 0 77 58q0 12 -4.5 21t-15 16.5t-29 13.5t-46.5 12q-89 19 -128 54t-39 100q0 42 17 74t46.5 53.5t68.5 32t84 10.5q44 0 81.5 -9t65 -28.5t43.5 -50.5t19 -74h-132q-2 27 -23 45t-58 18t-56.5 -14t-19.5 -40
q0 -23 20.5 -35.5t70.5 -23.5q46 -10 79 -22.5t55 -31t32.5 -45t10.5 -63.5q0 -42 -16.5 -74.5t-46 -54t-70.5 -33t-91 -11.5zM255 751h108l93 -156h-98l-60 63l-79 -63h-103z" />
    <glyph glyph-name="Scedilla" unicode="&#x15e;" horiz-adv-x="640" 
d="M246 -222q-45 0 -78.5 21.5t-37.5 68.5h75q2 -12 10.5 -21.5t26.5 -9.5q14 0 25 8t11 27q0 14 -9 21.5t-24 7.5q-11 0 -17 -2.5t-11 -6.5l-32 35l53 67q-108 16 -163 77.5t-54 152.5h154q1 -23 8.5 -44t24 -37.5t42.5 -26t64 -9.5q59 -1 90 25.5t31 72.5q0 34 -25.5 54.5
t-94.5 37.5q-60 14 -103 31.5t-70.5 41.5t-40.5 56t-13 76q0 46 18.5 87t53 71t85 47.5t113.5 17.5q59 0 106.5 -13t80.5 -40t51 -67t18 -94h-148q-4 52 -34 73.5t-81 21.5q-55 0 -81 -24.5t-26 -62.5q0 -15 5.5 -27t19.5 -22t37 -18.5t59 -17.5q58 -14 101 -31.5
t71.5 -41.5t42.5 -56.5t14 -76.5q0 -52 -19 -96t-55.5 -75.5t-89.5 -49.5t-121 -18h-10l-29 -37q36 3 64 -16.5t28 -60.5q0 -48 -33 -72.5t-83 -24.5z" />
    <glyph glyph-name="scedilla" unicode="&#x15f;" horiz-adv-x="501" 
d="M184 -222q-45 0 -78.5 21.5t-37.5 68.5h75q2 -12 10.5 -21.5t26.5 -9.5q14 0 25 8t11 27q0 14 -9 21.5t-24 7.5q-11 0 -17 -2.5t-11 -6.5l-32 35l51 65q-80 11 -123 56t-44 116h135q2 -32 22 -53t71 -21q77 0 77 58q0 12 -4.5 21t-15 16.5t-29 13.5t-46.5 12
q-89 19 -128 54t-39 100q0 42 17 74t46.5 53.5t68.5 32t84 10.5q44 0 81.5 -9t65 -28.5t43.5 -50.5t19 -74h-132q-2 27 -23 45t-58 18t-56.5 -14t-19.5 -40q0 -23 20.5 -35.5t70.5 -23.5q46 -10 79 -22.5t55 -31t32.5 -45t10.5 -63.5q0 -41 -16 -73t-44.5 -54t-68.5 -33.5
t-89 -12.5l-28 -36q36 3 64 -16.5t28 -60.5q0 -48 -33 -72.5t-83 -24.5z" />
    <glyph glyph-name="Scaron" unicode="&#x160;" horiz-adv-x="652" 
d="M315 -11q-71 0 -125 17.5t-90.5 48.5t-54.5 74t-18 95h154q1 -23 8.5 -44t24 -37.5t42.5 -26t64 -9.5q59 -1 90 25.5t31 72.5q0 34 -25.5 54.5t-94.5 37.5q-60 14 -103 31.5t-70.5 41.5t-40.5 56t-13 76q0 46 18.5 87t53 71t85 47.5t113.5 17.5q59 0 106.5 -13t80.5 -40
t51 -67t18 -94h-148q-4 52 -34 73.5t-81 21.5q-55 0 -81 -24.5t-26 -62.5q0 -15 5.5 -27t19.5 -22t37 -18.5t59 -17.5q58 -14 101 -31.5t71.5 -41.5t42.5 -56.5t14 -76.5q0 -52 -19 -96t-55.5 -75.5t-89.5 -49.5t-121 -18zM432 763h-123l-92 139h100l62 -52l75 52h106z" />
    <glyph glyph-name="scaron" unicode="&#x161;" horiz-adv-x="513" 
d="M236 -12q-106 0 -164 47t-59 129h135q2 -32 22 -53t71 -21q77 0 77 58q0 12 -4.5 21t-15 16.5t-29 13.5t-46.5 12q-89 19 -128 54t-39 100q0 42 17 74t46.5 53.5t68.5 32t84 10.5q44 0 81.5 -9t65 -28.5t43.5 -50.5t19 -74h-132q-2 27 -23 45t-58 18t-56.5 -14t-19.5 -40
q0 -23 20.5 -35.5t70.5 -23.5q46 -10 79 -22.5t55 -31t32.5 -45t10.5 -63.5q0 -42 -16.5 -74.5t-46 -54t-70.5 -33t-91 -11.5zM338 595h-108l-93 156h97l61 -63l78 63h104z" />
    <glyph glyph-name="Tcommaaccent" unicode="&#x162;" horiz-adv-x="598" 
d="M273 589h-193l21 126h549l-21 -126h-193l-92 -589h-163zM141 -201l58 170l129 -21l-107 -176z" />
    <glyph glyph-name="tcommaaccent" unicode="&#x163;" horiz-adv-x="370" 
d="M223 -10q-87 0 -125.5 45t-24.5 134l40 251h-67l16 103h67l18 113h145l-19 -113h109l-16 -103h-109l-39 -248q-6 -38 7 -52t43 -14q13 0 27 2.5t28 7.5l-18 -112q-15 -6 -35.5 -10t-46.5 -4zM52 -201l58 170l129 -21l-107 -176z" />
    <glyph glyph-name="Tcaron" unicode="&#x164;" horiz-adv-x="597" 
d="M273 589h-193l21 126h549l-21 -126h-193l-92 -589h-163zM436 763h-123l-92 139h100l62 -52l75 52h106z" />
    <glyph glyph-name="tcaron" unicode="&#x165;" horiz-adv-x="370" 
d="M223 -10q-87 0 -125.5 45t-24.5 134l40 251h-67l16 103h67l18 113h145l-19 -113h109l-16 -103h-109l-39 -248q-6 -38 7 -52t43 -14q13 0 27 2.5t28 7.5l-18 -112q-15 -6 -35.5 -10t-46.5 -4zM379 760h117l-73 -174h-81z" />
    <glyph glyph-name="Tbar" unicode="&#x166;" horiz-adv-x="597" 
d="M106 406h132l29 183h-193l21 126h549l-21 -126h-193l-29 -183h133l-16 -106h-133l-47 -300h-163l47 300h-132z" />
    <glyph glyph-name="tbar" unicode="&#x167;" horiz-adv-x="370" 
d="M26 335h67l14 85h-67l16 103h67l18 113h145l-19 -113h109l-16 -103h-109l-14 -85h109l-14 -85h-108l-12 -78q-6 -38 7 -52t43 -14q13 0 27 2.5t28 7.5l-18 -112q-15 -6 -35.5 -10t-46.5 -4q-87 0 -125.5 45t-24.5 134l13 81h-67z" />
    <glyph glyph-name="Utilde" unicode="&#x168;" horiz-adv-x="739" 
d="M359 -11q-76 0 -133.5 19.5t-93.5 58.5t-49 97t-1 135l66 416h163l-67 -420q-15 -94 14 -135.5t104 -41.5q68 0 102.5 38.5t48.5 122.5l69 436h163l-72 -452q-21 -134 -97 -204t-217 -70zM514 764q-20 0 -36.5 6t-30.5 12.5t-26 12.5t-23 6q-13 0 -24 -10t-15 -27h-87
q12 71 46 105.5t79 34.5q19 0 35 -6t30.5 -13t27 -13t24.5 -6q28 0 39 37h86q-13 -70 -47.5 -104.5t-77.5 -34.5z" />
    <glyph glyph-name="utilde" unicode="&#x169;" horiz-adv-x="609" 
d="M533 160q-8 -52 -11 -89.5t-1 -70.5h-140q-2 20 -1.5 42t3.5 46q-29 -43 -69.5 -71t-102.5 -28q-41 0 -73.5 12.5t-53.5 39.5t-29 68.5t1 99.5l50 314h144l-50 -319q-8 -51 9 -77.5t59 -26.5q51 0 86 31.5t44 91.5l48 300h144zM418 598q-20 0 -36.5 6t-30 13t-25.5 13
t-23 6q-13 0 -23.5 -10t-15.5 -27h-83q11 70 43 105.5t77 35.5q19 0 35 -6t30 -12.5t26.5 -12.5t24.5 -6q28 0 38 37h84q-12 -71 -45 -106.5t-76 -35.5z" />
    <glyph glyph-name="Umacron" unicode="&#x16a;" horiz-adv-x="739" 
d="M359 -11q-76 0 -133.5 19.5t-93.5 58.5t-49 97t-1 135l66 416h163l-67 -420q-15 -94 14 -135.5t104 -41.5q68 0 102.5 38.5t48.5 122.5l69 436h163l-72 -452q-21 -134 -97 -204t-217 -70zM317 868h302l-15 -91h-301z" />
    <glyph glyph-name="umacron" unicode="&#x16b;" horiz-adv-x="609" 
d="M533 160q-8 -52 -11 -89.5t-1 -70.5h-140q-2 20 -1.5 42t3.5 46q-29 -43 -69.5 -71t-102.5 -28q-41 0 -73.5 12.5t-53.5 39.5t-29 68.5t1 99.5l50 314h144l-50 -319q-8 -51 9 -77.5t59 -26.5q51 0 86 31.5t44 91.5l48 300h144zM222 712h291l-13 -87h-291z" />
    <glyph glyph-name="Ubreve" unicode="&#x16c;" horiz-adv-x="739" 
d="M359 -11q-76 0 -133.5 19.5t-93.5 58.5t-49 97t-1 135l66 416h163l-67 -420q-15 -94 14 -135.5t104 -41.5q68 0 102.5 38.5t48.5 122.5l69 436h163l-72 -452q-21 -134 -97 -204t-217 -70zM453 757q-70 0 -110 40t-40 106h97q5 -52 55 -52t60 52h96q-4 -34 -17.5 -61
t-34.5 -46t-48 -29t-58 -10z" />
    <glyph glyph-name="ubreve" unicode="&#x16d;" horiz-adv-x="609" 
d="M533 160q-8 -52 -11 -89.5t-1 -70.5h-140q-2 20 -1.5 42t3.5 46q-29 -43 -69.5 -71t-102.5 -28q-41 0 -73.5 12.5t-53.5 39.5t-29 68.5t1 99.5l50 314h144l-50 -319q-8 -51 9 -77.5t59 -26.5q51 0 86 31.5t44 91.5l48 300h144zM361 598q-34 0 -61.5 10.5t-47 29.5
t-30 46.5t-9.5 62.5h94q5 -54 56 -54q53 0 62 54h94q-8 -70 -51.5 -109.5t-106.5 -39.5z" />
    <glyph glyph-name="Uring" unicode="&#x16e;" horiz-adv-x="739" 
d="M359 -11q-76 0 -133.5 19.5t-93.5 58.5t-49 97t-1 135l66 416h163l-67 -420q-15 -94 14 -135.5t104 -41.5q68 0 102.5 38.5t48.5 122.5l69 436h163l-72 -452q-21 -134 -97 -204t-217 -70zM456 789q21 0 35.5 15t14.5 39q0 23 -13 38t-35 15t-36 -15.5t-14 -39.5
q0 -23 13 -37.5t35 -14.5zM456 731q-24 0 -44.5 8.5t-36 23.5t-24.5 35t-9 43q0 24 9.5 44.5t25 35.5t36.5 24t45 9t44.5 -8.5t36 -23.5t24.5 -35.5t9 -43.5t-9.5 -43.5t-25 -35.5t-36.5 -24t-45 -9z" />
    <glyph glyph-name="uring" unicode="&#x16f;" horiz-adv-x="609" 
d="M533 160q-8 -52 -11 -89.5t-1 -70.5h-140q-2 20 -1.5 42t3.5 46q-29 -43 -69.5 -71t-102.5 -28q-41 0 -73.5 12.5t-53.5 39.5t-29 68.5t1 99.5l50 314h144l-50 -319q-8 -51 9 -77.5t59 -26.5q51 0 86 31.5t44 91.5l48 300h144zM358 643q21 0 35 15t14 39q0 23 -13 37
t-34 14q-22 0 -36 -15t-14 -38t13 -37.5t35 -14.5zM358 585q-24 0 -44.5 8.5t-35.5 23.5t-24 35t-9 43t9 43t25 35t36.5 24t44.5 9t44.5 -8.5t35.5 -23t24 -34.5t9 -43t-9.5 -43.5t-25 -35.5t-36.5 -24t-44 -9z" />
    <glyph glyph-name="Uhungarumlaut" unicode="&#x170;" horiz-adv-x="739" 
d="M359 -11q-76 0 -133.5 19.5t-93.5 58.5t-49 97t-1 135l66 416h163l-67 -420q-15 -94 14 -135.5t104 -41.5q68 0 102.5 38.5t48.5 122.5l69 436h163l-72 -452q-21 -134 -97 -204t-217 -70zM361 902h133l-86 -139h-99zM541 902h132l-86 -139h-98z" />
    <glyph glyph-name="uhungarumlaut" unicode="&#x171;" horiz-adv-x="609" 
d="M533 160q-8 -52 -11 -89.5t-1 -70.5h-140q-2 20 -1.5 42t3.5 46q-29 -43 -69.5 -71t-102.5 -28q-41 0 -73.5 12.5t-53.5 39.5t-29 68.5t1 99.5l50 314h144l-50 -319q-8 -51 9 -77.5t59 -26.5q51 0 86 31.5t44 91.5l48 300h144zM283 753h124l-94 -159h-90zM451 753h124
l-93 -159h-90z" />
    <glyph glyph-name="Uogonek" unicode="&#x172;" horiz-adv-x="739" 
d="M360 -182q-21 0 -40.5 4t-34.5 13.5t-23.5 24.5t-8.5 38q0 33 22.5 55.5t49.5 36.5q-140 7 -206.5 84t-42.5 225l66 416h163l-67 -420q-15 -94 14 -135.5t104 -41.5q67 0 102 38.5t49 122.5l69 436h163l-72 -452q-14 -91 -53.5 -152.5t-120.5 -96.5q-16 -8 -36.5 -15.5
t-38.5 -17.5t-30.5 -24t-12.5 -33q0 -26 32 -26q20 0 35 6l-11 -73q-12 -5 -29 -9t-42 -4z" />
    <glyph glyph-name="uogonek" unicode="&#x173;" horiz-adv-x="609" 
d="M527 160q-8 -53 -11 -90t-1 -66q-10 -8 -21.5 -16.5t-21.5 -18.5t-16.5 -21t-6.5 -24q0 -26 32 -26q20 0 35 6l-11 -73q-11 -5 -28.5 -9t-41.5 -4q-21 0 -40.5 4t-34.5 13.5t-24 24.5t-9 38q0 19 8.5 35t21.5 28.5t29 22.5t32 16h-43q-2 20 -1 48t4 52
q-29 -48 -73.5 -79.5t-107.5 -31.5q-38 0 -69.5 12.5t-51.5 39.5t-27.5 68.5t1.5 99.5l50 314h145l-51 -319q-8 -51 9 -77.5t59 -26.5q51 0 86 31.5t44 91.5l48 300h144z" />
    <glyph glyph-name="Wcircumflex" unicode="&#x174;" horiz-adv-x="951" 
d="M90 715h164l32 -501l202 501h130l54 -504l193 504h150l-289 -715h-157l-52 481l-202 -481h-160zM508 902h123l92 -139h-100l-62 53l-75 -53h-106z" />
    <glyph glyph-name="wcircumflex" unicode="&#x175;" horiz-adv-x="807" 
d="M60 523h148l34 -355l153 355h119l36 -355l149 355h142l-243 -523h-142l-35 331l-146 -331h-144zM423 751h108l93 -156h-98l-60 63l-79 -63h-103z" />
    <glyph glyph-name="Ycircumflex" unicode="&#x176;" horiz-adv-x="647" 
d="M259 309l-171 406h170l105 -272l184 272h163l-289 -416l-48 -299h-163zM356 902h123l92 -139h-100l-62 53l-75 -53h-106z" />
    <glyph glyph-name="ycircumflex" unicode="&#x177;" horiz-adv-x="551" 
d="M183 59l-126 464h149l73 -315l162 315h146l-390 -701h-146zM295 751h108l93 -156h-98l-60 63l-79 -63h-103z" />
    <glyph glyph-name="Ydieresis" unicode="&#x178;" horiz-adv-x="659" 
d="M259 309l-171 406h170l105 -272l184 272h163l-289 -416l-48 -299h-163zM307 769q-31 0 -52.5 21t-21.5 51t22 51.5t52 21.5q31 0 52.5 -21t21.5 -51t-22 -51.5t-52 -21.5zM522 769q-30 0 -51.5 21t-21.5 51t21.5 51.5t52.5 21.5t52 -21t21 -51t-21.5 -51.5t-52.5 -21.5z
" />
    <glyph glyph-name="Zacute" unicode="&#x179;" horiz-adv-x="614" 
d="M-15 20l428 570h-301l20 125h534l-3 -19l-423 -570h318l-20 -126h-556zM392 902h158l-112 -139h-111z" />
    <glyph glyph-name="zacute" unicode="&#x17a;" horiz-adv-x="494" 
d="M-20 16l312 396h-225l17 111h438l-3 -18l-312 -393h242l-17 -112h-454zM322 753h154l-123 -159h-107z" />
    <glyph glyph-name="Zdotaccent" unicode="&#x17b;" horiz-adv-x="614" 
d="M-15 20l428 570h-301l20 125h534l-3 -19l-423 -570h318l-20 -126h-556zM398 768q-35 0 -58 22t-23 54t23.5 54.5t57.5 22.5q35 0 58 -21.5t23 -54.5q0 -32 -23.5 -54.5t-57.5 -22.5z" />
    <glyph glyph-name="zdotaccent" unicode="&#x17c;" horiz-adv-x="494" 
d="M-20 16l312 396h-225l17 111h438l-3 -18l-312 -393h242l-17 -112h-454zM312 598q-34 0 -57 21.5t-23 54.5q0 32 23.5 54.5t57.5 22.5t57 -22t23 -54t-23.5 -54.5t-57.5 -22.5z" />
    <glyph glyph-name="Zcaron" unicode="&#x17d;" horiz-adv-x="626" 
d="M-15 20l428 570h-301l20 125h534l-3 -19l-423 -570h318l-20 -126h-556zM451 763h-123l-92 139h100l62 -52l75 52h106z" />
    <glyph glyph-name="zcaron" unicode="&#x17e;" horiz-adv-x="506" 
d="M-20 16l312 396h-225l17 111h438l-3 -18l-312 -393h242l-17 -112h-454zM352 595h-108l-93 156h97l61 -63l78 63h104z" />
    <glyph glyph-name="florin" unicode="&#x192;" horiz-adv-x="441" 
d="M56 414h90l26 134q9 46 28 79.5t46.5 55t62 31.5t73.5 10q32 0 50 -3.5t33 -9.5l-17 -108q-11 4 -23.5 6.5t-32.5 2.5q-66 0 -80 -76l-23 -122h122l-16 -102h-125l-92 -494h-143l92 494h-87z" />
    <glyph glyph-name="Aringacute" unicode="&#x1fa;" horiz-adv-x="706" 
d="M466 159h-259l-73 -159h-156l348 715h211l119 -715h-166zM261 274h188l-45 309zM439 804q21 0 35.5 15t14.5 39q0 23 -13 38t-35 15t-36 -15.5t-14 -39.5q0 -23 13 -37.5t35 -14.5zM439 746q-24 0 -44.5 8.5t-36 23.5t-24.5 35t-9 43q0 24 9.5 44.5t25 35.5t36.5 24t45 9
t44.5 -8.5t36 -23.5t24.5 -35.5t9 -43.5t-9.5 -43.5t-25 -35.5t-36.5 -24t-45 -9zM462 1128h158l-112 -139h-111z" />
    <glyph glyph-name="aringacute" unicode="&#x1fb;" horiz-adv-x="563" 
d="M188 -11q-75 0 -121 39t-46 108q0 50 19.5 84t55 54.5t84.5 29.5t108 9h86l3 22q7 46 -8.5 70.5t-65.5 24.5q-42 0 -63.5 -19.5t-29.5 -54.5h-138q10 48 32 81.5t53.5 55.5t70 32t82.5 10q112 0 169 -52t39 -164l-25 -159q-8 -51 -10.5 -89t1.5 -71h-138q-3 18 -3.5 36.5
t0.5 35.5q-25 -37 -63 -60t-92 -23zM237 89q45 0 77 25t39 72l7 41h-68q-66 0 -97 -17t-31 -59q0 -26 18 -44t55 -18zM343 633q21 0 35 15t14 39q0 23 -13 37t-34 14q-22 0 -36 -15t-14 -38t13 -37.5t35 -14.5zM343 575q-24 0 -44.5 8.5t-35.5 23.5t-24 35t-9 43t9 43t25 35
t36.5 24t44.5 9t44.5 -8.5t35.5 -23t24 -34.5t9 -43t-9.5 -43.5t-25 -35.5t-36.5 -24t-44 -9zM370 967h158l-112 -139h-111z" />
    <glyph glyph-name="AEacute" unicode="&#x1fc;" horiz-adv-x="983" 
d="M422 715h584l-21 -126h-298l-26 -167h239l-18 -118h-239l-29 -178h317l-19 -126h-479l26 168h-216l-101 -168h-161zM310 280h167l49 309h-30zM706 902h158l-112 -139h-111z" />
    <glyph glyph-name="aeacute" unicode="&#x1fd;" horiz-adv-x="895" 
d="M500 215q0 -56 25 -89.5t87 -33.5q45 0 70.5 19t36.5 54h137q-21 -88 -86.5 -132t-162.5 -44q-75 0 -127.5 26.5t-79.5 77.5q-26 -45 -73 -74.5t-123 -29.5q-85 0 -134 38.5t-49 108.5q0 50 20.5 84.5t56.5 55.5t85.5 31t108.5 10h83l3 20q7 44 -9 68.5t-66 24.5
q-42 0 -65 -19.5t-31 -54.5h-137q9 48 32 82t55 55.5t71 31.5t81 10q121 0 164 -67q35 32 79 49t94 17q60 0 106 -18t75.5 -53.5t40.5 -87.5t1 -121l-4 -23h-365v-16zM236 89q46 0 78 24.5t40 74.5l7 42h-70q-66 0 -96.5 -18.5t-30.5 -61.5q0 -26 18 -43.5t54 -17.5z
M641 435q-43 0 -78 -27.5t-52 -90.5h223q5 56 -16.5 87t-76.5 31zM513 753h154l-123 -159h-107z" />
    <glyph glyph-name="Oslashacute" unicode="&#x1fe;" horiz-adv-x="816" 
d="M39 21l85 87q-31 39 -48 88.5t-17 108.5q0 90 30 167t83 133.5t126.5 88t160.5 31.5q62 0 115 -15.5t96 -44.5l75 76l52 -54l-71 -72q35 -41 54 -93.5t19 -115.5q0 -92 -30 -168.5t-83 -131.5t-127 -86t-161 -31q-65 0 -120.5 17.5t-99.5 50.5l-87 -89zM634 401
q0 59 -19 101l-335 -341q47 -44 127 -44q53 0 95 22.5t71.5 61t45 90t15.5 110.5zM224 311q0 -52 14 -87l331 338q-22 17 -51 26t-64 9q-54 0 -97 -23t-72.5 -62t-45 -91t-15.5 -110zM479 902h158l-112 -139h-111z" />
    <glyph glyph-name="oslashacute" unicode="&#x1ff;" horiz-adv-x="606" 
d="M17 6l68 71q-23 29 -36.5 66.5t-13.5 83.5q0 66 21.5 122.5t60.5 97.5t93 64.5t118 23.5q89 0 155 -43l66 68l47 -44l-65 -67q25 -29 38.5 -67t13.5 -85q0 -68 -21.5 -124.5t-60.5 -97.5t-93 -63.5t-119 -22.5q-45 0 -85 11t-72 34l-69 -72zM293 98q36 0 63 15.5t46 42.5
t28.5 64t9.5 80q0 25 -6 48l-218 -227q28 -23 77 -23zM176 227q0 -14 1 -26.5t4 -23.5l217 226q-28 22 -73 22q-35 0 -62.5 -15t-46.5 -41t-29.5 -62.5t-10.5 -79.5zM357 753h154l-123 -159h-107z" />
    <glyph glyph-name="Scommaaccent" unicode="&#x218;" horiz-adv-x="640" 
d="M315 -11q-71 0 -125 17.5t-90.5 48.5t-54.5 74t-18 95h154q1 -23 8.5 -44t24 -37.5t42.5 -26t64 -9.5q59 -1 90 25.5t31 72.5q0 34 -25.5 54.5t-94.5 37.5q-60 14 -103 31.5t-70.5 41.5t-40.5 56t-13 76q0 46 18.5 87t53 71t85 47.5t113.5 17.5q59 0 106.5 -13t80.5 -40
t51 -67t18 -94h-148q-4 52 -34 73.5t-81 21.5q-55 0 -81 -24.5t-26 -62.5q0 -15 5.5 -27t19.5 -22t37 -18.5t59 -17.5q58 -14 101 -31.5t71.5 -41.5t42.5 -56.5t14 -76.5q0 -52 -19 -96t-55.5 -75.5t-89.5 -49.5t-121 -18zM155 -201l58 170l129 -21l-107 -176z" />
    <glyph glyph-name="scommaaccent" unicode="&#x219;" horiz-adv-x="501" 
d="M236 -12q-106 0 -164 47t-59 129h135q2 -32 22 -53t71 -21q77 0 77 58q0 12 -4.5 21t-15 16.5t-29 13.5t-46.5 12q-89 19 -128 54t-39 100q0 42 17 74t46.5 53.5t68.5 32t84 10.5q44 0 81.5 -9t65 -28.5t43.5 -50.5t19 -74h-132q-2 27 -23 45t-58 18t-56.5 -14t-19.5 -40
q0 -23 20.5 -35.5t70.5 -23.5q46 -10 79 -22.5t55 -31t32.5 -45t10.5 -63.5q0 -42 -16.5 -74.5t-46 -54t-70.5 -33t-91 -11.5zM90 -201l58 170l129 -21l-107 -176z" />
    <glyph glyph-name="uni021A" unicode="&#x21a;" horiz-adv-x="598" 
d="M273 589h-193l21 126h549l-21 -126h-193l-92 -589h-163zM141 -201l58 170l129 -21l-107 -176z" />
    <glyph glyph-name="uni021B" unicode="&#x21b;" horiz-adv-x="370" 
d="M223 -10q-87 0 -125.5 45t-24.5 134l40 251h-67l16 103h67l18 113h145l-19 -113h109l-16 -103h-109l-39 -248q-6 -38 7 -52t43 -14q13 0 27 2.5t28 7.5l-18 -112q-15 -6 -35.5 -10t-46.5 -4zM52 -201l58 170l129 -21l-107 -176z" />
    <glyph glyph-name="uni0237" unicode="&#x237;" horiz-adv-x="281" 
d="M-55 -79q38 2 56 18.5t23 48.5l85 535h143l-86 -548q-6 -36 -20.5 -66.5t-42 -52t-70.5 -32.5t-104 -9z" />
    <glyph glyph-name="circumflex" unicode="&#x2c6;" horiz-adv-x="412" 
d="M227 751h108l93 -156h-98l-60 63l-79 -63h-103z" />
    <glyph glyph-name="caron" unicode="&#x2c7;" horiz-adv-x="412" 
d="M313 595h-108l-93 156h97l61 -63l78 63h104z" />
    <glyph glyph-name="breve" unicode="&#x2d8;" horiz-adv-x="412" 
d="M272 598q-34 0 -61.5 10.5t-47 29.5t-30 46.5t-9.5 62.5h94q5 -54 56 -54q53 0 62 54h94q-8 -70 -51.5 -109.5t-106.5 -39.5z" />
    <glyph glyph-name="dotaccent" unicode="&#x2d9;" horiz-adv-x="412" 
d="M270 598q-34 0 -57 21.5t-23 54.5q0 32 23.5 54.5t57.5 22.5t57 -22t23 -54t-23.5 -54.5t-57.5 -22.5z" />
    <glyph glyph-name="ring" unicode="&#x2da;" horiz-adv-x="412" 
d="M273 643q21 0 35 15t14 39q0 23 -13 37t-34 14q-22 0 -36 -15t-14 -38t13 -37.5t35 -14.5zM273 585q-24 0 -44.5 8.5t-35.5 23.5t-24 35t-9 43t9 43t25 35t36.5 24t44.5 9t44.5 -8.5t35.5 -23t24 -34.5t9 -43t-9.5 -43.5t-25 -35.5t-36.5 -24t-44 -9z" />
    <glyph glyph-name="ogonek" unicode="&#x2db;" horiz-adv-x="412" 
d="M154 -182q-21 0 -40.5 4t-34.5 13.5t-23.5 24.5t-8.5 38q0 19 8.5 35t22 28.5t29.5 22.5t32 16h94q-9 -6 -20 -13.5t-21 -17t-16.5 -21t-6.5 -24.5q0 -26 32 -26q20 0 35 6l-11 -73q-12 -5 -29 -9t-42 -4z" />
    <glyph glyph-name="tilde" unicode="&#x2dc;" horiz-adv-x="412" 
d="M327 598q-20 0 -36.5 6t-30 13t-25.5 13t-23 6q-13 0 -23.5 -10t-15.5 -27h-83q11 70 43 105.5t77 35.5q19 0 35 -6t30 -12.5t26.5 -12.5t24.5 -6q28 0 38 37h84q-12 -71 -45 -106.5t-76 -35.5z" />
    <glyph glyph-name="hungarumlaut" unicode="&#x2dd;" horiz-adv-x="412" 
d="M184 753h124l-94 -159h-90zM352 753h124l-93 -159h-90z" />
    <glyph glyph-name="Wgrave" unicode="&#x1e80;" horiz-adv-x="951" 
d="M90 715h164l32 -501l202 501h130l54 -504l193 504h150l-289 -715h-157l-52 481l-202 -481h-160zM423 902h154l35 -139h-105z" />
    <glyph glyph-name="wgrave" unicode="&#x1e81;" horiz-adv-x="807" 
d="M60 523h148l34 -355l153 355h119l36 -355l149 355h142l-243 -523h-142l-35 331l-146 -331h-144zM315 753h150l42 -159h-102z" />
    <glyph glyph-name="Wacute" unicode="&#x1e82;" horiz-adv-x="951" 
d="M90 715h164l32 -501l202 501h130l54 -504l193 504h150l-289 -715h-157l-52 481l-202 -481h-160zM563 902h158l-112 -139h-111z" />
    <glyph glyph-name="wacute" unicode="&#x1e83;" horiz-adv-x="807" 
d="M60 523h148l34 -355l153 355h119l36 -355l149 355h142l-243 -523h-142l-35 331l-146 -331h-144zM488 753h154l-123 -159h-107z" />
    <glyph glyph-name="Wdieresis" unicode="&#x1e84;" horiz-adv-x="951" 
d="M90 715h164l32 -501l202 501h130l54 -504l193 504h150l-289 -715h-157l-52 481l-202 -481h-160zM455 769q-31 0 -52.5 21t-21.5 51t22 51.5t52 21.5q31 0 52.5 -21t21.5 -51t-22 -51.5t-52 -21.5zM670 769q-30 0 -51.5 21t-21.5 51t21.5 51.5t52.5 21.5t52 -21t21 -51
t-21.5 -51.5t-52.5 -21.5z" />
    <glyph glyph-name="wdieresis" unicode="&#x1e85;" horiz-adv-x="807" 
d="M60 523h148l34 -355l153 355h119l36 -355l149 355h142l-243 -523h-142l-35 331l-146 -331h-144zM366 600q-31 0 -52.5 20.5t-21.5 50.5t22 51.5t53 21.5q30 0 51.5 -21t21.5 -51q0 -29 -21.5 -50.5t-52.5 -21.5zM569 600q-30 0 -51.5 20.5t-21.5 50.5t21.5 51.5
t52.5 21.5t52 -21t21 -51q0 -29 -21 -50.5t-53 -21.5z" />
    <glyph glyph-name="Ygrave" unicode="&#x1ef2;" horiz-adv-x="647" 
d="M259 309l-171 406h170l105 -272l184 272h163l-289 -416l-48 -299h-163zM272 902h154l35 -139h-105z" />
    <glyph glyph-name="ygrave" unicode="&#x1ef3;" horiz-adv-x="551" 
d="M183 59l-126 464h149l73 -315l162 315h146l-390 -701h-146zM193 753h150l42 -159h-102z" />
    <glyph glyph-name="endash" unicode="&#x2013;" horiz-adv-x="547" 
d="M62 332h444l-15 -92h-444z" />
    <glyph glyph-name="emdash" unicode="&#x2014;" horiz-adv-x="936" 
d="M62 332h833l-15 -92h-833z" />
    <glyph glyph-name="quoteleft" unicode="&#x2018;" horiz-adv-x="289" 
d="M75 497l147 230l81 -34l-102 -243z" />
    <glyph glyph-name="quoteright" unicode="&#x2019;" horiz-adv-x="288" 
d="M85 484l102 243l126 -47l-147 -230z" />
    <glyph glyph-name="quotesinglbase" unicode="&#x201a;" horiz-adv-x="288" 
d="M-14 -75l101 244l125 -47l-147 -231z" />
    <glyph glyph-name="quotedblleft" unicode="&#x201c;" horiz-adv-x="497" 
d="M75 497l147 230l81 -34l-102 -243zM284 497l147 230l80 -34l-101 -243z" />
    <glyph glyph-name="quotedblright" unicode="&#x201d;" horiz-adv-x="497" 
d="M85 484l102 243l126 -47l-147 -230zM294 484l102 243l126 -47l-148 -230z" />
    <glyph glyph-name="quotedblbase" unicode="&#x201e;" horiz-adv-x="497" 
d="M-14 -75l101 244l125 -47l-147 -231zM194 -75l102 244l125 -47l-147 -231z" />
    <glyph glyph-name="dagger" unicode="&#x2020;" horiz-adv-x="406" 
d="M178 489h-110l17 105h110l19 121h120l-20 -121h110l-17 -105h-109l-44 -276h-120z" />
    <glyph glyph-name="daggerdbl" unicode="&#x2021;" horiz-adv-x="406" 
d="M181 507h-110l15 97h110l18 111h120l-18 -111h109l-15 -97h-109l-14 -86h110l-15 -97h-110l-18 -111h-120l18 111h-110l15 97h111z" />
    <glyph glyph-name="bullet" unicode="&#x2022;" horiz-adv-x="369" 
d="M185 169q-28 0 -52 10.5t-41 27.5t-27 40t-10 49q0 31 11 57.5t29.5 45.5t44 29.5t55.5 10.5q29 0 53 -10.5t41.5 -28t27 -41t9.5 -49.5q0 -30 -10.5 -56t-29.5 -45t-44.5 -29.5t-56.5 -10.5z" />
    <glyph glyph-name="ellipsis" unicode="&#x2026;" horiz-adv-x="873" 
d="M122 -9q-38 0 -63.5 25.5t-25.5 62.5q0 36 25 61.5t63 25.5q19 0 35.5 -7t29 -18.5t19.5 -27.5t7 -34t-7 -34t-19 -28t-28.5 -19t-35.5 -7zM406 -9q-38 0 -63.5 25.5t-25.5 62.5q0 36 25 61.5t63 25.5q19 0 35.5 -7t29 -18.5t19.5 -27.5t7 -34t-7 -34t-19 -28t-28.5 -19
t-35.5 -7zM690 -9q-38 0 -63 25.5t-25 62.5q0 36 24.5 61.5t62.5 25.5q19 0 35.5 -7t29 -18.5t19.5 -27.5t7 -34t-7 -34t-19 -28t-28.5 -19t-35.5 -7z" />
    <glyph glyph-name="perthousand" unicode="&#x2030;" horiz-adv-x="1193" 
d="M182 534q0 -13 3 -25t10.5 -21.5t19 -15t29.5 -5.5q35 0 54 30t19 69q0 26 -14 47t-46 21q-38 0 -56.5 -29.5t-18.5 -70.5zM240 377q-35 0 -66 11t-54 31t-36 49t-13 65q0 39 14 73t39.5 60t60 41t75.5 15q35 0 65.5 -11t53 -31.5t35.5 -49.5t13 -65q0 -38 -14 -72
t-39 -60t-59.5 -41t-74.5 -15zM659 715h91l-566 -715h-91zM520 146q0 -26 13.5 -46.5t48.5 -20.5q35 1 54 30.5t19 68.5q0 26 -14 47.5t-46 21.5q-19 0 -33 -8t-23.5 -22t-14 -32.5t-4.5 -38.5zM578 -11q-35 0 -66 11t-54 31.5t-36 49t-13 64.5q0 39 14 73.5t39.5 60.5
t60 41t75.5 15q35 0 65.5 -11.5t53 -32t35.5 -49.5t13 -65q0 -38 -14 -72t-39 -60t-59.5 -41t-74.5 -15zM910 146q0 -26 13.5 -46.5t48.5 -20.5q35 1 54 30.5t19 68.5q0 26 -14 47.5t-46 21.5q-19 0 -33 -8t-23.5 -22t-14 -32.5t-4.5 -38.5zM968 -11q-35 0 -66 11t-54 31.5
t-36 49t-13 64.5q0 39 14 73.5t39.5 60.5t60 41t75.5 15q35 0 66 -11.5t53.5 -32t35.5 -49.5t13 -65q0 -38 -14 -72t-39.5 -60t-60 -41t-74.5 -15z" />
    <glyph glyph-name="uni2032" unicode="&#x2032;" horiz-adv-x="248" 
d="M136 715h142l-104 -264h-103z" />
    <glyph glyph-name="uni2033" unicode="&#x2033;" horiz-adv-x="442" 
d="M136 715h142l-104 -264h-103zM330 715h142l-103 -264h-103z" />
    <glyph glyph-name="guilsinglleft" unicode="&#x2039;" horiz-adv-x="324" 
d="M46 265l154 182h111l-152 -185l89 -187h-104z" />
    <glyph glyph-name="guilsinglright" unicode="&#x203a;" horiz-adv-x="324" 
d="M276 257l-155 -182h-110l152 185l-89 187h103z" />
    <glyph glyph-name="fraction" unicode="&#x2044;" horiz-adv-x="160" 
d="M353 715h85l-605 -715h-86z" />
    <glyph glyph-name="Euro" unicode="&#x20ac;" horiz-adv-x="712" 
d="M62 452h64q14 61 41.5 111.5t67 86.5t91.5 55.5t116 19.5q118 0 186.5 -61t69.5 -183h-152q0 25 -6 47t-19 38.5t-33.5 26t-50.5 9.5q-63 0 -99 -40.5t-53 -109.5h182l-21 -66h-174l-10 -62h165l-21 -66h-150q0 -27 5 -53t19 -46t38 -32t61 -12q53 0 90 30.5t55 103.5
h149q-26 -133 -105 -196.5t-197 -63.5q-68 0 -119 20t-85 55.5t-50.5 85t-16.5 108.5h-68l10 66h63l10 62h-64z" />
    <glyph glyph-name="trademark" unicode="&#x2122;" horiz-adv-x="756" 
d="M413 715h106l41 -183l99 183h115l-51 -322h-89l32 208l-116 -208h-28l-50 208l-33 -208h-77zM179 645h-88l11 70h265l-11 -70h-88l-40 -252h-88z" />
    <glyph glyph-name="onethird" unicode="&#x2153;" horiz-adv-x="802" 
d="M166 608l-89 -49l14 91l107 65h95l-58 -363h-109zM643 715h85l-605 -715h-86zM589 -5q-32 0 -59.5 7t-48 22t-32.5 39t-12 58h98q1 -23 12.5 -36t37.5 -13q18 0 34 10.5t16 34.5q0 37 -48 37h-26l10 64h31q23 0 36.5 10t13.5 30q0 17 -9 26.5t-30 9.5q-43 0 -54 -45h-95
q8 57 50 89t107 32q25 0 49 -5t43 -16t30.5 -30t11.5 -47q0 -32 -20 -54t-53 -32q26 -5 43.5 -23.5t17.5 -52.5q0 -29 -12.5 -50.5t-33.5 -36t-49 -21.5t-59 -7z" />
    <glyph glyph-name="twothirds" unicode="&#x2154;" horiz-adv-x="852" 
d="M31 367l148 132q32 28 56 53.5t24 51.5q0 18 -9.5 26.5t-24.5 8.5q-20 0 -33.5 -13t-20.5 -44h-100q10 69 54 103.5t107 34.5q27 0 51.5 -6t43 -18.5t29.5 -33t11 -49.5q0 -41 -26.5 -72t-74.5 -72l-45 -39h119l-12 -78h-300zM708 715h85l-605 -715h-86zM639 -5
q-32 0 -59.5 7t-48 22t-32.5 39t-12 58h98q1 -23 12.5 -36t37.5 -13q18 0 34 10.5t16 34.5q0 37 -48 37h-26l10 64h31q23 0 36.5 10t13.5 30q0 17 -9 26.5t-30 9.5q-43 0 -54 -45h-95q8 57 50 89t107 32q25 0 49 -5t43 -16t30.5 -30t11.5 -47q0 -32 -20 -54t-53 -32
q26 -5 43.5 -23.5t17.5 -52.5q0 -29 -12.5 -50.5t-33.5 -36t-49 -21.5t-59 -7z" />
    <glyph glyph-name="oneeighth" unicode="&#x215b;" horiz-adv-x="796" 
d="M166 608l-89 -49l14 91l107 65h95l-58 -363h-109zM643 715h85l-605 -715h-86zM584 -5q-28 0 -55.5 5.5t-49.5 17.5t-35.5 31.5t-13.5 48.5q0 42 22 65t59 35q-20 10 -31.5 26t-11.5 39q0 27 12.5 47.5t32.5 33.5t46 19.5t53 6.5q25 0 50 -5.5t44.5 -17t31.5 -30t12 -44.5
q0 -63 -62 -84q27 -11 40.5 -31t13.5 -46q0 -31 -13.5 -53t-36 -36.5t-50.5 -21t-58 -6.5zM539 111q0 -17 11.5 -29t34.5 -12q20 0 36 11.5t16 36.5q0 19 -12 31t-34 12q-20 0 -36 -12.5t-16 -37.5zM565 256q0 -17 11.5 -26.5t28.5 -9.5q20 0 33 10.5t13 31.5q0 16 -11.5 26
t-30.5 10q-17 0 -30.5 -10.5t-13.5 -31.5z" />
    <glyph glyph-name="threeeighths" unicode="&#x215c;" horiz-adv-x="846" 
d="M212 345q-32 0 -59.5 7t-48 22t-32.5 39t-12 58h98q1 -23 12.5 -36t37.5 -13q18 0 34 10.5t16 34.5q0 37 -48 37h-26l10 64h31q23 0 36.5 10t13.5 30q0 17 -9 26.5t-30 9.5q-43 0 -54 -45h-95q8 57 50 89t107 32q25 0 49 -5t43 -16t30.5 -30t11.5 -47q0 -32 -20 -54
t-53 -32q26 -5 43.5 -23.5t17.5 -52.5q0 -29 -12.5 -50.5t-33.5 -36t-49 -21.5t-59 -7zM699 715h85l-605 -715h-86zM633 -6q-28 0 -55.5 5.5t-49.5 17.5t-35.5 31.5t-13.5 48.5q0 42 22 65t59 35q-20 10 -31.5 26t-11.5 39q0 27 12.5 47.5t32.5 33.5t46 19.5t53 6.5
q25 0 50 -5.5t44.5 -17t31.5 -30t12 -44.5q0 -63 -62 -84q27 -11 40.5 -31t13.5 -46q0 -31 -13.5 -53t-36 -36.5t-50.5 -21t-58 -6.5zM588 110q0 -17 11.5 -29t34.5 -12q20 0 36 11.5t16 36.5q0 19 -12 31t-34 12q-20 0 -36 -12.5t-16 -37.5zM614 255q0 -17 11.5 -26.5
t28.5 -9.5q20 0 33 10.5t13 31.5q0 16 -11.5 26t-30.5 10q-17 0 -30.5 -10.5t-13.5 -31.5z" />
    <glyph glyph-name="fiveeighths" unicode="&#x215d;" horiz-adv-x="831" 
d="M205 345q-29 0 -55 6t-46.5 20t-33 36.5t-13.5 55.5h101q2 -17 12 -27.5t33 -10.5q21 0 35 14.5t14 42.5q0 43 -45 43q-18 0 -30 -7t-21 -19h-77l43 216h254l-13 -78h-177l-15 -81q12 14 32.5 26t54.5 12q45 0 74 -26t29 -77q-1 -71 -44 -108t-112 -38zM686 715h85
l-605 -715h-86zM618 -5q-28 0 -55.5 5.5t-49.5 17.5t-35.5 31.5t-13.5 48.5q0 42 22 65t59 35q-20 10 -31.5 26t-11.5 39q0 27 12.5 47.5t32.5 33.5t46 19.5t53 6.5q25 0 50 -5.5t44.5 -17t31.5 -30t12 -44.5q0 -63 -62 -84q27 -11 40.5 -31t13.5 -46q0 -31 -13.5 -53
t-36 -36.5t-50.5 -21t-58 -6.5zM573 111q0 -17 11.5 -29t34.5 -12q20 0 36 11.5t16 36.5q0 19 -12 31t-34 12q-20 0 -36 -12.5t-16 -37.5zM599 256q0 -17 11.5 -26.5t28.5 -9.5q20 0 33 10.5t13 31.5q0 16 -11.5 26t-30.5 10q-17 0 -30.5 -10.5t-13.5 -31.5z" />
    <glyph glyph-name="seveneighths" unicode="&#x215e;" horiz-adv-x="787" 
d="M232 629h-151l14 86h291l-3 -12l-187 -351h-112zM631 715h85l-605 -715h-86zM575 -5q-28 0 -55.5 5.5t-49.5 17.5t-35.5 31.5t-13.5 48.5q0 42 22 65t59 35q-20 10 -31.5 26t-11.5 39q0 27 12.5 47.5t32.5 33.5t46 19.5t53 6.5q25 0 50 -5.5t44.5 -17t31.5 -30t12 -44.5
q0 -63 -62 -84q27 -11 40.5 -31t13.5 -46q0 -31 -13.5 -53t-36 -36.5t-50.5 -21t-58 -6.5zM530 111q0 -17 11.5 -29t34.5 -12q20 0 36 11.5t16 36.5q0 19 -12 31t-34 12q-20 0 -36 -12.5t-16 -37.5zM556 256q0 -17 11.5 -26.5t28.5 -9.5q20 0 33 10.5t13 31.5q0 16 -11.5 26
t-30.5 10q-17 0 -30.5 -10.5t-13.5 -31.5z" />
    <glyph glyph-name="minus" unicode="&#x2212;" horiz-adv-x="565" 
d="M63 397h480l-18 -113h-480z" />
    <glyph glyph-name="approxequal" unicode="&#x2248;" horiz-adv-x="561" 
d="M64 342q12 83 51.5 120t89.5 37q28 0 56.5 -6.5t55 -14.5t50 -14.5t42.5 -6.5q17 0 31 11t18 34h89q-5 -40 -18.5 -69.5t-32 -49t-41.5 -29t-47 -9.5q-29 0 -58 6.5t-55.5 14.5t-50 14.5t-42.5 6.5q-18 0 -31.5 -11.5t-18.5 -33.5h-88zM30 137q6 42 19.5 72t32.5 48.5
t42 27.5t48 9q28 0 56.5 -6.5t55 -14.5t50 -14.5t42.5 -6.5q17 0 30.5 11t18.5 34h89q-5 -40 -18.5 -69.5t-32.5 -48.5t-41.5 -28.5t-46.5 -9.5q-30 0 -58.5 6.5t-55 14t-50 14t-42.5 6.5q-18 0 -31.5 -11.5t-18.5 -33.5h-89z" />
    <glyph glyph-name="notequal" unicode="&#x2260;" horiz-adv-x="542" 
d="M77 472h228l50 99h101l-50 -99h123l-16 -104h-159l-44 -87h189l-16 -103h-225l-50 -99h-101l50 99h-126l16 103h162l44 87h-192z" />
    <glyph glyph-name="lessequal" unicode="&#x2264;" horiz-adv-x="521" 
d="M65 356l5 29l442 214l-21 -134l-216 -99l184 -104l-21 -128zM25 100h408l-15 -100h-408z" />
    <glyph glyph-name="greaterequal" unicode="&#x2265;" horiz-adv-x="521" 
d="M35 100h408l-15 -100h-408zM487 377l-5 -29l-442 -214l21 134l216 99l-184 104l21 128z" />
    <glyph glyph-name="uni24C5" unicode="&#x24c5;" horiz-adv-x="855" 
d="M306 560h148q80 0 119 -34t39 -98v-3q0 -64 -40 -95.5t-113 -31.5h-46v-139h-107v401zM449 371q61 0 61 54v3q0 50 -60 50h-37v-107h36zM438 32q66 0 124.5 23.5t102.5 66.5t69.5 103.5t25.5 133.5q0 72 -25 131.5t-68.5 102.5t-102 66.5t-124.5 23.5q-67 0 -125.5 -24
t-102 -67t-68.5 -103t-25 -132q0 -73 26 -133t69.5 -102.5t101.5 -66t122 -23.5zM438 -16q-78 0 -146.5 28.5t-119.5 79t-80.5 118.5t-29.5 147q0 78 29.5 146t80.5 119t120 80t148 29q81 0 150 -29t119.5 -79.5t79 -118t28.5 -145.5q0 -80 -29.5 -148.5t-80.5 -118.5
t-120.5 -79t-148.5 -29z" />
    <glyph glyph-name="f_i" unicode="&#xfb01;" horiz-adv-x="643" 
d="M62 523h69l12 76q7 45 25 77t44 52.5t58.5 30t70.5 9.5q32 0 51 -4t34 -9l-17 -108q-10 4 -22 6.5t-29 2.5q-32 0 -49.5 -17t-23.5 -52l-10 -64h114l-16 -103h-115l-66 -420h-144l66 420h-68zM570 595q-35 0 -58 22t-23 56q0 33 23.5 55.5t58.5 22.5t58 -22t23 -55
q0 -34 -23.5 -56.5t-58.5 -22.5zM477 523h144l-83 -523h-144z" />
    <glyph glyph-name="f_l" unicode="&#xfb02;" horiz-adv-x="642" 
d="M62 523h69l12 76q7 45 25 77t44 52.5t58.5 30t70.5 9.5q32 0 51 -4t34 -9l-17 -108q-10 4 -22 6.5t-29 2.5q-32 0 -49.5 -17t-23.5 -52l-10 -64h114l-16 -103h-115l-66 -420h-144l66 420h-68zM514 760h144l-120 -760h-144z" />
    <glyph glyph-name="space_uni0326" horiz-adv-x="412" 
d="M52 -201l58 170l129 -21l-107 -176z" />
    <glyph glyph-name="caron.alt" horiz-adv-x="412" 
d="M256 760h117l-73 -174h-81z" />
    <glyph glyph-name="space_uni0326.alt" horiz-adv-x="412" 
d="M378 749l-58 -170l-128 21l106 175z" />
    <glyph glyph-name="grave.uc" horiz-adv-x="412" 
d="M160 902h154l35 -139h-105z" />
    <glyph glyph-name="dieresis.uc" horiz-adv-x="412" 
d="M189 769q-31 0 -52.5 21t-21.5 51t22 51.5t52 21.5q31 0 52.5 -21t21.5 -51t-22 -51.5t-52 -21.5zM404 769q-30 0 -51.5 21t-21.5 51t21.5 51.5t52.5 21.5t52 -21t21 -51t-21.5 -51.5t-52.5 -21.5z" />
    <glyph glyph-name="macron.uc" horiz-adv-x="412" 
d="M150 868h302l-15 -91h-301z" />
    <glyph glyph-name="acute.uc" horiz-adv-x="412" 
d="M286 902h158l-112 -139h-111z" />
    <glyph glyph-name="circumflex.uc" horiz-adv-x="412" 
d="M241 902h123l92 -139h-100l-62 53l-75 -53h-106z" />
    <glyph glyph-name="caron.uc" horiz-adv-x="412" 
d="M348 763h-123l-92 139h100l62 -52l75 52h106z" />
    <glyph glyph-name="breve.uc" horiz-adv-x="412" 
d="M299 757q-70 0 -110 40t-40 106h97q5 -52 55 -52t60 52h96q-4 -34 -17.5 -61t-34.5 -46t-48 -29t-58 -10z" />
    <glyph glyph-name="dotaccent.uc" horiz-adv-x="412" 
d="M297 768q-35 0 -58 22t-23 54t23.5 54.5t57.5 22.5q35 0 58 -21.5t23 -54.5q0 -32 -23.5 -54.5t-57.5 -22.5z" />
    <glyph glyph-name="ring.uc" horiz-adv-x="412" 
d="M299 808q21 0 35.5 15t14.5 39q0 23 -13 38t-35 15t-36 -15.5t-14 -39.5q0 -23 13 -37.5t35 -14.5zM299 750q-24 0 -44.5 8.5t-36 23.5t-24.5 35t-9 43q0 24 9.5 44.5t25 35.5t36.5 24t45 9t44.5 -8.5t36 -23.5t24.5 -35.5t9 -43.5t-9.5 -43.5t-25 -35.5t-36.5 -24
t-45 -9z" />
    <glyph glyph-name="tilde.uc" horiz-adv-x="412" 
d="M354 764q-20 0 -36.5 6t-30.5 12.5t-26 12.5t-23 6q-13 0 -24 -10t-15 -27h-87q12 71 46 105.5t79 34.5q19 0 35 -6t30.5 -13t27 -13t24.5 -6q28 0 39 37h86q-13 -70 -47.5 -104.5t-77.5 -34.5z" />
    <glyph glyph-name="hungarumlaut.uc" horiz-adv-x="412" 
d="M197 902h133l-86 -139h-99zM377 902h132l-86 -139h-98z" />
    <glyph glyph-name="dollar.old" horiz-adv-x="633" 
d="M290 -131h-70l20 125q-94 15 -153 71t-60 151h143q1 -41 22 -70.5t65 -41.5l31 191q-50 13 -87 29.5t-61.5 40t-37 53.5t-12.5 70q0 48 20 87t55 67.5t83 44t104 16.5l14 86h69l-14 -91q41 -6 76 -20t60.5 -38.5t40.5 -59.5t17 -81h-140q-3 38 -22 59t-50 29l-28 -177
q49 -13 87.5 -29.5t65 -39.5t40.5 -53.5t14 -71.5q0 -53 -20 -95.5t-56 -71.5t-86 -44.5t-111 -15.5zM438 196q0 29 -18 47.5t-66 34.5l-28 -180q54 3 83 28t29 70zM229 506q0 -28 16.5 -45t63.5 -33l26 166q-48 -3 -77 -26t-29 -62z" />
    <glyph glyph-name="Euro.old" horiz-adv-x="694" 
d="M59 438h62q14 59 40.5 108t65 84t89 54t112.5 19q115 0 181 -59t67 -177h-147q0 24 -6 45.5t-18.5 37t-32.5 25t-49 9.5q-62 0 -96.5 -39.5t-51.5 -106.5h177l-20 -64h-169l-10 -59h160l-20 -64h-146q0 -27 5 -52t18.5 -44.5t36.5 -31t59 -11.5q51 0 88 29.5t54 99.5h143
q-24 -128 -100.5 -190t-191.5 -62q-66 0 -115.5 19.5t-82.5 54t-49 83t-16 105.5h-66l10 64h61l9 59h-61z" />
    <glyph glyph-name="sterling.old" horiz-adv-x="628" 
d="M65 384h55q-2 17 -3 35t-1 37q0 54 18 99.5t52 78.5t82.5 51t109.5 18q51 0 94 -12t74 -37.5t48.5 -67t17.5 -99.5h-148q-1 45 -20 70.5t-68 25.5q-32 0 -52.5 -11.5t-33.5 -31.5t-18 -46t-5 -54v-56h190l-17 -96h-169v-28q0 -31 -6 -59t-20 -54q36 -11 67.5 -21.5
t56.5 -10.5q29 0 48.5 15.5t25.5 51.5h139q-6 -42 -21 -77t-39.5 -60.5t-59.5 -39.5t-81 -14q-34 0 -64.5 8.5t-57.5 19t-49.5 19t-41.5 8.5q-25 0 -38.5 -14t-16.5 -32h-119q4 25 13.5 49.5t24 45t34.5 36t45 23.5q22 41 22 98q0 8 -0.5 17t-1.5 19h-81z" />
    <glyph glyph-name="yen.old" horiz-adv-x="614" 
d="M88 345h139l-135 349h165l84 -259l164 259h155l-237 -349h140l-10 -64h-159l-9 -60h158l-10 -64h-158l-25 -157h-157l24 157h-159l10 64h159l9 60h-158z" />
    <glyph glyph-name="zero.old" horiz-adv-x="675" 
d="M207 306q-3 -17 -4 -32.5t-1 -29.5q0 -63 29 -99.5t96 -36.5q63 0 99.5 44t50.5 132l5 30q3 17 4 33.5t1 30.5q0 63 -29.5 99t-92.5 36q-125 0 -154 -177zM323 -11q-62 0 -113 17.5t-87 51.5t-55.5 82t-19.5 110q0 16 1.5 32.5t3.5 33.5l5 30q11 69 38 122t67.5 89
t92.5 54.5t112 18.5q61 0 111 -17.5t86 -50.5t55.5 -81t19.5 -109q0 -16 -1 -34t-4 -35l-5 -30q-22 -141 -102 -212.5t-205 -71.5z" />
    <glyph glyph-name="one.old" horiz-adv-x="430" 
d="M212 466l-156 -92l21 133l179 112h133l-98 -619h-152z" />
    <glyph glyph-name="two.old" horiz-adv-x="582" 
d="M-22 25l271 218q23 18 49.5 40.5t49.5 47.5t38 51.5t15 53.5q0 38 -22 57.5t-63 19.5q-46 0 -77 -30t-45 -92h-138q9 57 32 101.5t58.5 75t82 46.5t100.5 16q49 0 91 -11.5t72 -34.5t47 -57t16 -79q0 -39 -13.5 -71.5t-38 -61.5t-58.5 -58t-76 -61l-106 -82h252l-18 -114
h-523z" />
    <glyph glyph-name="three.old" horiz-adv-x="622" 
d="M281 -105q-59 0 -108.5 14.5t-85 44t-55.5 73.5t-20 104h140q3 -59 34 -90t94 -31q53 1 88 30t35 86q0 96 -110 96h-51l16 103h55q53 0 84.5 24t31.5 82q0 45 -26 65t-69 20q-48 0 -80.5 -28t-45.5 -82h-139q9 50 31.5 91.5t57.5 71t82.5 45.5t105.5 16q47 0 88.5 -11
t73 -33.5t50 -57t18.5 -82.5q0 -64 -35 -108t-98 -64q51 -17 81 -53.5t30 -99.5q0 -53 -21.5 -95t-58.5 -71t-87 -44.5t-106 -15.5z" />
    <glyph glyph-name="four.old" horiz-adv-x="662" 
d="M348 47h-356l8 51l394 520h195l-73 -466h95l-16 -105h-96l-23 -141h-151zM367 152l55 346l-254 -346h199z" />
    <glyph glyph-name="five.old" horiz-adv-x="609" 
d="M153 112q4 -47 30 -73.5t81 -26.5q62 0 95 40.5t33 104.5q0 22 -6.5 41.5t-20 34.5t-34.5 23.5t-50 8.5q-48 0 -79.5 -16.5t-56.5 -41.5h-84l75 412h441l-20 -121h-326l-32 -186q25 24 63 42t89 18q45 0 81 -14.5t62 -41t40 -63t14 -80.5q0 -63 -20 -114t-57.5 -87.5
t-90.5 -56.5t-120 -20q-51 0 -96 13t-79 39.5t-54 67.5t-21 97h143z" />
    <glyph glyph-name="six.old" horiz-adv-x="648" 
d="M315 -11q-64 0 -113 18t-82.5 50.5t-50.5 78.5t-18 102q0 25 3 54t7 53l5 33q29 172 117 259.5t216 87.5q48 0 89 -11t72 -35t49 -61t19 -88h-145q-4 36 -24.5 57t-67.5 21q-63 0 -106 -57t-65 -178q25 34 68.5 58t107.5 24q44 0 81 -13.5t64 -39.5t42.5 -63t15.5 -85
q0 -61 -21.5 -110t-59.5 -83.5t-90 -53t-113 -18.5zM204 219q-1 -50 27 -83.5t87 -33.5q28 0 51.5 11t40.5 30t26.5 45t9.5 56q0 46 -26.5 77.5t-81.5 31.5q-28 0 -52.5 -10t-42.5 -27.5t-28.5 -42t-10.5 -54.5z" />
    <glyph glyph-name="seven.old" horiz-adv-x="566" 
d="M380 494h-314l19 124h514l-3 -17l-382 -695h-163z" />
    <glyph glyph-name="eight.old" horiz-adv-x="644" 
d="M300 -11q-51 0 -98.5 12t-84.5 36.5t-59 61t-22 86.5q0 40 12.5 73t34.5 57.5t52 41.5t64 26q-41 20 -63 53.5t-22 78.5q0 50 21 89t57 66t82.5 41t97.5 14q42 0 84 -10t76 -32t55 -57.5t21 -85.5q0 -63 -36.5 -105t-94.5 -63q52 -22 80.5 -61.5t28.5 -91.5
q0 -56 -22 -99t-61 -72t-91 -44t-112 -15zM193 203q0 -45 30 -72.5t84 -27.5q24 0 47 7.5t40 23t27.5 38.5t10.5 53q0 45 -28.5 72t-81.5 27q-26 0 -49.5 -7.5t-41 -23t-28 -38t-10.5 -52.5zM258 509q0 -38 26 -62t72 -24q43 0 74.5 26.5t31.5 77.5q0 39 -25.5 63.5
t-68.5 24.5q-45 0 -77.5 -27.5t-32.5 -78.5z" />
    <glyph glyph-name="nine.old" horiz-adv-x="648" 
d="M350 630q65 0 113.5 -18.5t81 -51.5t49 -79.5t16.5 -103.5q0 -27 -2 -50.5t-6 -49.5l-6 -33q-29 -179 -116 -264t-218 -85q-50 0 -92.5 11.5t-74 36.5t-50.5 63t-20 91h145q5 -42 27.5 -63.5t69.5 -21.5q70 0 111 56t64 178q-25 -33 -69 -57.5t-107 -24.5q-44 0 -81.5 13
t-64.5 38.5t-42.5 62.5t-15.5 85q0 60 22 109t60.5 84t91 54.5t114.5 19.5zM458 403q0 49 -27 81.5t-86 32.5q-28 0 -52 -11t-41 -30t-27 -45t-10 -56q0 -46 27 -77.5t82 -31.5q28 0 52.5 10t42.5 28.5t28.5 43.5t10.5 55z" />
    <glyph glyph-name="dollar.tab" 
d="M296 -11l-19 -124h-67l20 129q-49 7 -88.5 26t-67 48.5t-41.5 68t-12 86.5h138q1 -42 22 -72.5t67 -42.5l31 195q-50 13 -86.5 30.5t-60.5 41t-36 55t-12 72.5q0 49 19.5 89.5t54.5 70t83 46.5t105 17l14 88h67l-15 -93q86 -12 137 -61.5t52 -144.5h-133q-3 39 -22.5 61
t-51.5 30l-29 -183q48 -12 85.5 -29t63.5 -40t39.5 -55t13.5 -74q0 -54 -19 -97.5t-54 -74t-84.5 -47t-111.5 -16.5h-2zM428 202q0 31 -18 49.5t-67 34.5l-29 -184q53 3 83.5 28t30.5 72zM223 520q0 -28 16 -46t62 -34l27 171q-54 -2 -79.5 -27.5t-25.5 -63.5z" />
    <glyph glyph-name="Euro.tab" 
d="M48 453h53q25 137 96.5 204.5t181.5 67.5q111 0 168.5 -59.5t52.5 -173.5h-138q0 49 -18 80t-69 31q-52 0 -81.5 -35.5t-43.5 -114.5h168l-22 -67h-157l-9 -60h145l-22 -67h-133q-3 -29 -1.5 -55.5t12 -46.5t30.5 -32t55 -12q45 0 74 26t43 94h136q-12 -66 -35.5 -112.5
t-57 -76t-76 -42.5t-91.5 -13q-65 0 -111.5 19t-76 54t-42 85t-7.5 112h-54l10 67h53l9 60h-52z" />
    <glyph glyph-name="sterling.tab" 
d="M60 396h56q-2 18 -3 37t-1 39q0 56 17 102.5t50 80t81 52t109 18.5q112 0 171 -53.5t54 -168.5h-140q0 47 -19.5 71t-67.5 24q-32 0 -53 -12.5t-33 -32.5t-17 -46t-5 -54v-29q0 -14 1 -28h180l-16 -99h-159v-15q0 -37 -6 -68t-22 -60q35 -10 64.5 -20.5t54.5 -10.5
q28 0 48 14.5t26 51.5h136q-14 -94 -63 -146t-136 -52q-33 0 -62 8.5t-53.5 19t-46 19.5t-40.5 9q-23 0 -36 -13.5t-17 -33.5h-118q8 53 35.5 97t74.5 61q25 47 25 105q0 8 -0.5 16.5t-1.5 17.5h-82z" />
    <glyph glyph-name="yen.tab" 
d="M89 356h144l-125 359h162l74 -250l150 250h154l-235 -359h150l-11 -66h-159l-9 -60h158l-10 -68h-158l-25 -162h-162l25 162h-154l10 68h155l9 60h-154z" />
    <glyph glyph-name="zero.tab" 
d="M199 293q-3 -19 -5 -36t-2 -33q0 -24 5 -44.5t16.5 -35.5t30 -23.5t46.5 -8.5q56 0 85.5 38.5t43.5 128.5l23 141q6 39 6 70q0 50 -20.5 82t-74.5 32q-57 0 -87 -41t-44 -129zM282 -11q-114 0 -175.5 62t-60.5 171q0 23 1.5 42t4.5 39l23 142q23 141 96.5 210.5
t187.5 69.5q115 0 175 -63t60 -172q0 -19 -1 -38.5t-5 -40.5l-22 -141q-45 -281 -284 -281z" />
    <glyph glyph-name="one.tab" 
d="M324 548l-205 -130l23 144l224 153h150l-113 -715h-166z" />
    <glyph glyph-name="two.tab" 
d="M-5 26l292 279q22 21 46 46.5t44.5 53.5t34 58t13.5 59q0 33 -18.5 56.5t-58.5 23.5q-42 1 -71.5 -27.5t-46.5 -104.5h-149q20 129 92.5 192.5t190.5 62.5q45 0 85 -11.5t70.5 -35t48.5 -59t18 -84.5q0 -43 -13.5 -80t-37.5 -71.5t-57.5 -68.5t-73.5 -70l-139 -119h264
l-20 -126h-518z" />
    <glyph glyph-name="three.tab" 
d="M287 -11q-59 0 -107.5 14t-83.5 43t-53.5 74t-17.5 107h144q1 -25 7 -46.5t19 -37.5t34.5 -25t53.5 -9q57 0 88.5 29t31.5 89q0 38 -23.5 62.5t-76.5 24.5h-49l18 108h60q44 0 75 23.5t31 78.5q0 38 -22.5 59t-64.5 21q-47 0 -79 -25.5t-44 -81.5h-141q17 106 88.5 167
t183.5 61q42 0 82.5 -10t73 -31.5t52.5 -57t20 -86.5q0 -65 -35.5 -109.5t-97.5 -62.5q50 -15 77.5 -52t27.5 -94q0 -54 -20 -97.5t-56 -73.5t-86 -46t-110 -16z" />
    <glyph glyph-name="four.tab" 
d="M329 141h-317l9 57l357 517h191l-72 -460h76l-18 -114h-77l-22 -141h-148zM350 255l52 329l-223 -329h171z" />
    <glyph glyph-name="five.tab" 
d="M276 -11q-56 0 -101 14t-76.5 42t-48 70.5t-15.5 99.5h144q1 -47 24 -73.5t76 -26.5q59 0 90.5 40t31.5 106q0 48 -25.5 76t-79.5 28q-45 0 -76 -16.5t-54 -41.5h-86l74 408h435l-19 -123h-318l-32 -179q24 26 61.5 45t88.5 19q87 0 138 -53.5t51 -147.5
q0 -63 -19.5 -116t-56 -91t-89 -59t-118.5 -21z" />
    <glyph glyph-name="six.tab" 
d="M299 -11q-118 0 -186 62.5t-68 186.5q0 22 2.5 46t6.5 49l8 55q12 71 37.5 132.5t65 107t94 71.5t125.5 26q106 0 161.5 -49.5t55.5 -148.5h-139q-2 36 -20.5 58t-65.5 22q-36 0 -63.5 -17.5t-48 -48.5t-33.5 -72t-21 -87q26 34 67.5 58t97.5 24q42 0 77.5 -13.5t62 -39
t41 -63t14.5 -84.5q0 -60 -19.5 -110t-54.5 -87t-85.5 -57.5t-111.5 -20.5zM190 221q0 -45 27 -78.5t83 -33.5q57 0 90.5 40t33.5 101q0 43 -26 74.5t-81 31.5q-27 0 -50 -9.5t-40.5 -27t-27 -42.5t-9.5 -56z" />
    <glyph glyph-name="seven.tab" 
d="M405 583h-310l21 132h517l-3 -18l-371 -697h-167z" />
    <glyph glyph-name="eight.tab" 
d="M290 -11q-46 0 -92 11t-82.5 34.5t-59.5 60.5t-23 89q0 78 41.5 128.5t112.5 74.5q-36 19 -58 52.5t-22 75.5q0 49 20 88t54.5 66t79.5 41.5t95 14.5q42 0 82.5 -11t72.5 -33.5t51.5 -57t19.5 -81.5q0 -67 -33 -105.5t-89 -61.5q49 -22 75.5 -62t26.5 -91
q0 -58 -21.5 -101.5t-59 -73t-87 -44t-104.5 -14.5zM185 208q0 -45 31 -71.5t79 -26.5q53 0 87 31t34 88q0 45 -30 71t-76 26q-54 0 -89.5 -30.5t-35.5 -87.5zM246 512q0 -36 25 -61t70 -25q40 0 70.5 24t30.5 74q0 36 -25 61t-67 25q-43 0 -73.5 -25t-30.5 -73z" />
    <glyph glyph-name="nine.tab" 
d="M260 -10q-102 0 -164.5 49t-65.5 154h142q5 -46 28.5 -65.5t68.5 -19.5q63 0 103.5 54.5t57.5 167.5q-25 -34 -66.5 -56.5t-97.5 -22.5q-41 0 -76.5 13t-61.5 38.5t-41.5 62.5t-15.5 86q0 58 19.5 108.5t56 87.5t87.5 58t114 21q115 0 180 -62t66 -185q0 -22 -2 -46.5
t-6 -49.5l-10 -62q-28 -173 -106.5 -252t-209.5 -79zM217 466q0 -47 25.5 -76.5t74.5 -29.5q27 0 51.5 8.5t43 25.5t29 42t10.5 58q0 22 -6 42.5t-19 36t-33 25t-48 9.5q-57 0 -92.5 -39t-35.5 -102z" />
    <glyph glyph-name="cent.tab" 
d="M243 -5q-88 15 -142.5 74t-55.5 155q0 69 21.5 125t60 96.5t90.5 63.5t112 25l15 95h71l-16 -99q77 -13 125.5 -61.5t52.5 -138.5h-132q-2 38 -18.5 60t-44.5 30l-52 -327q41 5 69 29.5t39 75.5h128q-8 -49 -29 -87.5t-54 -65t-76 -41t-94 -15.5l-19 -124h-71zM187 225
q0 -102 73 -126l51 325q-55 -10 -89.5 -59.5t-34.5 -139.5z" />
    <glyph glyph-name="percent.tab" horiz-adv-x="812" 
d="M188 538q0 -26 12.5 -47t47.5 -21q35 1 53 30t18 68q0 26 -12.5 47.5t-45.5 21.5q-38 0 -55.5 -29t-17.5 -70zM245 383q-35 0 -65.5 10.5t-53 30.5t-35 48t-12.5 64q0 38 13.5 72t38.5 59.5t58.5 40t74.5 14.5q35 0 65 -11t52 -31.5t34.5 -49t12.5 -63.5q0 -38 -13.5 -71
t-38 -58.5t-58 -40t-73.5 -14.5zM658 715h93l-567 -715h-92zM521 144q0 -26 12 -47t47 -21q35 1 53 30t18 69q0 25 -12.5 46.5t-45.5 21.5q-38 0 -55 -29t-17 -70zM577 -11q-35 0 -65.5 10.5t-52.5 30.5t-34.5 48.5t-12.5 63.5q0 38 13.5 72t38.5 59.5t58.5 40.5t74.5 15
q35 0 65 -11t51.5 -31.5t34 -49t12.5 -63.5q0 -38 -13.5 -71.5t-38 -58.5t-58 -40t-73.5 -15z" />
    <glyph glyph-name="perthousand.tab" horiz-adv-x="1012" 
d="M174 525q0 -23 9.5 -38.5t31.5 -15.5q18 0 30 12t18.5 30t9 38t2.5 35q0 25 -9 40.5t-31 15.5q-18 0 -30 -12t-19 -30t-9.5 -38.5t-2.5 -36.5zM210 390q-59 0 -98 36t-38 102q0 38 10.5 73t31.5 62t52 43t71 16q59 0 97 -35.5t38 -102.5q0 -37 -10.5 -72t-31 -62
t-51.5 -43.5t-71 -16.5zM599 715h91l-571 -715h-91zM439 125q0 -24 10 -39t31 -15q19 0 30.5 12t18.5 29.5t9.5 37.5t2.5 36q0 26 -9.5 41t-30.5 15q-18 0 -30 -12.5t-19 -30.5t-10 -38t-3 -36zM476 -11q-29 0 -54 9t-43.5 27t-29 43.5t-10.5 58.5q0 38 11 73.5t32 62.5
t52 43t71 16q59 0 97 -36t38 -102q0 -37 -10.5 -72t-31 -62.5t-51.5 -44t-71 -16.5zM766 125q0 -24 9.5 -39t31.5 -15q18 0 30 12t18.5 29.5t9 37.5t2.5 36q0 26 -9 41t-32 15q-18 0 -29.5 -12.5t-18.5 -30.5t-9.5 -38t-2.5 -36zM803 -11q-60 0 -98.5 36t-38.5 102
q0 38 10.5 73.5t31.5 62.5t52 43t72 16q57 0 96 -36t39 -102q0 -37 -10.5 -72t-31.5 -62.5t-51.5 -44t-70.5 -16.5z" />
    <glyph glyph-name="plus.tab" 
d="M250 286h-176l18 109h176l30 191h118l-30 -191h175l-17 -109h-176l-30 -191h-118z" />
    <glyph glyph-name="minus.tab" 
d="M91 397h471l-18 -113h-471z" />
    <glyph glyph-name="multiply.tab" 
d="M67 184l173 152l-131 154l85 77l133 -154l173 152l69 -79l-174 -153l133 -153l-87 -77l-133 154l-173 -152z" />
    <glyph glyph-name="divide.tab" 
d="M90 393h471l-16 -104h-471zM293 60q-35 0 -59 23.5t-24 58.5q0 34 24 58t59 24q18 0 33 -6.5t26.5 -17.5t18 -26t6.5 -32q0 -35 -24 -58.5t-60 -23.5zM341 458q-35 0 -59 23.5t-24 58.5q0 34 24 58t59 24q18 0 33 -6.5t26.5 -17.5t18 -26t6.5 -32q0 -35 -24 -58.5
t-60 -23.5z" />
    <glyph glyph-name="equal.tab" 
d="M86 281h444l-16 -103h-444zM116 472h444l-17 -104h-443z" />
    <glyph glyph-name="less.tab" 
d="M100 313l4 29l457 230l-20 -135l-249 -114l211 -124l-20 -127z" />
    <glyph glyph-name="greater.tab" 
d="M530 332l-5 -29l-457 -230l21 136l248 114l-210 124l20 126z" />
    <glyph glyph-name="florin.tab" 
d="M127 414h105l24 125q9 51 30.5 86.5t50.5 57t65.5 31.5t75.5 10q32 0 52 -3.5t35 -9.5l-17 -108q-11 4 -25.5 6.5t-34.5 2.5q-32 0 -57.5 -19t-34.5 -67l-21 -112h134l-16 -102h-137l-92 -494h-144l93 494h-102z" />
    <glyph glyph-name="plusminus.tab" 
d="M258 336h-180l17 108h180l27 172h118l-27 -172h180l-17 -108h-180l-27 -171h-118zM41 100h479l-15 -100h-480z" />
    <glyph glyph-name="notequal.tab" 
d="M112 472h228l50 99h101l-50 -99h123l-16 -104h-159l-44 -87h189l-16 -103h-225l-50 -99h-101l50 99h-126l16 103h162l44 87h-192z" />
    <glyph glyph-name="approxequal.tab" 
d="M90 342q12 83 51.5 120t89.5 37q28 0 56.5 -6.5t55 -14.5t50 -14.5t42.5 -6.5q17 0 31 11t18 34h89q-5 -40 -18.5 -69.5t-32 -49t-41.5 -29t-47 -9.5q-29 0 -58 6.5t-55.5 14.5t-50 14.5t-42.5 6.5q-18 0 -31.5 -11.5t-18.5 -33.5h-88zM56 137q6 42 19.5 72t32.5 48.5
t42 27.5t48 9q28 0 56.5 -6.5t55 -14.5t50 -14.5t42.5 -6.5q17 0 30.5 11t18.5 34h89q-5 -40 -18.5 -69.5t-32.5 -48.5t-41.5 -28.5t-46.5 -9.5q-30 0 -58.5 6.5t-55 14t-50 14t-42.5 6.5q-18 0 -31.5 -11.5t-18.5 -33.5h-89z" />
    <glyph glyph-name="lessequal.tab" 
d="M110 356l5 29l442 214l-21 -134l-216 -99l184 -104l-21 -128zM70 100h408l-15 -100h-408z" />
    <glyph glyph-name="greaterequal.tab" 
d="M80 100h408l-15 -100h-408zM532 377l-5 -29l-442 -214l21 134l216 99l-184 104l21 128z" />
    <glyph glyph-name="parenleft.tab" horiz-adv-x="312" 
d="M129 -148q-15 30 -30.5 65t-28 77.5t-20 93t-7.5 111.5q0 161 59 305t165 270h114q-97 -132 -152.5 -279.5t-55.5 -302.5q0 -116 19 -198.5t45 -141.5h-108z" />
    <glyph glyph-name="parenright.tab" horiz-adv-x="312" 
d="M197 774q15 -30 30.5 -65t28 -77.5t20 -93t7.5 -111.5q0 -161 -59 -305t-165 -270h-114q97 132 152.5 279.5t55.5 302.5q0 116 -19.5 198.5t-44.5 141.5h108z" />
    <glyph glyph-name="bracketleft.tab" horiz-adv-x="312" 
d="M140 776h223l-15 -99h-90l-115 -726h90l-16 -99h-223z" />
    <glyph glyph-name="bracketright.tab" horiz-adv-x="312" 
d="M-21 -49h90l115 726h-90l15 99h223l-146 -924h-222z" />
    <glyph glyph-name="braceleft.tab" horiz-adv-x="312" 
d="M217 -148q-129 4 -167 66t3 170l33 87q15 39 3.5 64t-62.5 36l14 93q27 3 45 10.5t28 19t13.5 26.5t2.5 33l-3 110q-3 60 11 100t44 64.5t75.5 34.5t106.5 10l-16 -97q-26 0 -43.5 -5t-28 -16.5t-15.5 -31.5t-5 -51v-111q1 -63 -29.5 -96.5t-91.5 -50.5q54 -20 74.5 -58
t-3.5 -105l-30 -85q-22 -62 -10 -88.5t66 -31.5z" />
    <glyph glyph-name="braceright.tab" horiz-adv-x="312" 
d="M110 776q128 -5 166.5 -66.5t-2.5 -169.5l-34 -87q-15 -39 -3 -64t63 -36l-14 -93q-55 -6 -73.5 -29.5t-16.5 -60.5l3 -109q3 -60 -10.5 -100t-43.5 -64.5t-75.5 -34.5t-106.5 -10l15 96q26 1 43.5 6t28.5 16.5t16 31.5t5 51l-1 111q0 62 30 95.5t91 50.5
q-54 20 -74 58.5t4 105.5l30 85q22 61 9.5 88t-65.5 32z" />
    <glyph glyph-name="period.tab" horiz-adv-x="312" 
d="M126 -9q-38 0 -63.5 25.5t-25.5 62.5q0 36 25 61.5t63 25.5q19 0 35.5 -7t29 -18.5t19.5 -27.5t7 -34q0 -37 -26 -62.5t-64 -25.5z" />
    <glyph glyph-name="comma.tab" horiz-adv-x="312" 
d="M-17 -85l110 246l128 -51l-157 -233z" />
    <glyph glyph-name="colon.tab" horiz-adv-x="312" 
d="M125 -9q-38 0 -63.5 25.5t-25.5 62.5q0 36 25 61.5t63 25.5q19 0 35.5 -7t29 -18.5t19.5 -27.5t7 -34t-7 -34t-19 -28t-28.5 -19t-35.5 -7zM171 281q-38 0 -63 25.5t-25 62.5q0 36 24.5 61.5t62.5 25.5q19 0 36 -7t29.5 -18.5t19.5 -27.5t7 -34t-7 -34t-19.5 -28t-29 -19
t-35.5 -7z" />
    <glyph glyph-name="semicolon.tab" horiz-adv-x="312" 
d="M-30 -85l111 246l127 -51l-157 -233zM179 281q-38 0 -63.5 25.5t-25.5 62.5q0 36 25 61.5t63 25.5q19 0 35.5 -7t29 -18.5t19.5 -27.5t7 -34t-7 -34t-19 -28t-28.5 -19t-35.5 -7z" />
    <glyph glyph-name="zero.num" horiz-adv-x="408" 
d="M179 498q0 -27 12 -48t45 -21q22 0 36.5 13.5t23.5 33.5t12.5 44.5t3.5 47.5q0 27 -12 48t-43 21q-24 0 -39 -15t-24 -36.5t-12 -45.5t-3 -42zM232 345q-74 0 -117.5 40t-43.5 112q0 45 12.5 85.5t36.5 71t59.5 48.5t81.5 18q72 0 115.5 -38.5t43.5 -113.5
q0 -47 -12 -87.5t-35.5 -70.5t-59 -47.5t-81.5 -17.5z" />
    <glyph glyph-name="one.num" horiz-adv-x="278" 
d="M163 608l-89 -49l14 91l107 65h95l-58 -363h-109z" />
    <glyph glyph-name="two.num" horiz-adv-x="341" 
d="M28 367l148 132q32 28 56 53.5t24 51.5q0 18 -9.5 26.5t-24.5 8.5q-20 0 -33.5 -13t-20.5 -44h-100q10 69 54 103.5t107 34.5q27 0 51.5 -6t43 -18.5t29.5 -33t11 -49.5q0 -41 -26.5 -72t-74.5 -72l-45 -39h119l-12 -78h-300z" />
    <glyph glyph-name="three.num" horiz-adv-x="363" 
d="M209 345q-32 0 -59.5 7t-48 22t-32.5 39t-12 58h98q1 -23 12.5 -36t37.5 -13q18 0 34 10.5t16 34.5q0 37 -48 37h-26l10 64h31q23 0 36.5 10t13.5 30q0 17 -9 26.5t-30 9.5q-43 0 -54 -45h-95q8 57 50 89t107 32q25 0 49 -5t43 -16t30.5 -30t11.5 -47q0 -32 -20 -54
t-53 -32q26 -5 43.5 -23.5t17.5 -52.5q0 -29 -12.5 -50.5t-33.5 -36t-49 -21.5t-59 -7z" />
    <glyph glyph-name="four.num" horiz-adv-x="378" 
d="M225 421h-181l6 40l195 254h132l-35 -221h47l-12 -73h-46l-11 -69h-106zM240 494l22 143l-105 -143h83z" />
    <glyph glyph-name="five.num" horiz-adv-x="355" 
d="M202 345q-29 0 -55 6t-46.5 20t-33 36.5t-13.5 55.5h101q2 -17 12 -27.5t33 -10.5q21 0 35 14.5t14 42.5q0 43 -45 43q-18 0 -30 -7t-21 -19h-77l43 216h254l-13 -78h-177l-15 -81q12 14 32.5 26t54.5 12q45 0 74 -26t29 -77q-1 -71 -44 -108t-112 -38z" />
    <glyph glyph-name="six.num" horiz-adv-x="377" 
d="M225 345q-69 0 -111.5 35.5t-42.5 105.5q0 11 1 23t3 24l2 13q13 82 62.5 128t121.5 46q27 0 51 -6t42.5 -18.5t29.5 -33t12 -50.5h-99q-3 14 -12 22t-27 8q-29 0 -47 -24.5t-26 -68.5q14 17 35 27.5t52 10.5q22 0 42 -6.5t35 -19t24 -31t9 -43.5q0 -35 -12 -61.5
t-33.5 -44.5t-50 -27t-61.5 -9zM178 466q0 -19 11 -33t36 -14q22 0 36.5 15.5t14.5 43.5q0 19 -10.5 32t-33.5 13q-22 0 -38 -14.5t-16 -42.5z" />
    <glyph glyph-name="seven.num" horiz-adv-x="328" 
d="M229 629h-151l14 86h291l-3 -12l-187 -351h-112z" />
    <glyph glyph-name="eight.num" horiz-adv-x="368" 
d="M214 345q-28 0 -55.5 5.5t-49.5 17.5t-35.5 31.5t-13.5 48.5q0 42 22 65t59 35q-20 10 -31.5 26t-11.5 39q0 27 12.5 47.5t32.5 33.5t46 19.5t53 6.5q25 0 50 -5.5t44.5 -17t31.5 -30t12 -44.5q0 -63 -62 -84q27 -11 40.5 -31t13.5 -46q0 -31 -13.5 -53t-36 -36.5
t-50.5 -21t-58 -6.5zM169 461q0 -17 11.5 -29t34.5 -12q20 0 36 11.5t16 36.5q0 19 -12 31t-34 12q-20 0 -36 -12.5t-16 -37.5zM195 606q0 -17 11.5 -26.5t28.5 -9.5q20 0 33 10.5t13 31.5q0 16 -11.5 26t-30.5 10q-17 0 -30.5 -10.5t-13.5 -31.5z" />
    <glyph glyph-name="nine.num" horiz-adv-x="377" 
d="M237 720q69 0 110 -33.5t42 -101.5q0 -14 -1 -28.5t-3 -27.5l-2 -12q-13 -85 -58 -128.5t-124 -43.5q-29 0 -53.5 6t-43 19t-30 34t-12.5 51h99q2 -15 11 -23t32 -8q30 0 47 24t24 68q-14 -17 -35 -27t-52 -10q-22 0 -42 6.5t-35 19t-24 31.5t-9 44q0 33 12.5 59t34.5 44
t50.5 27.5t61.5 9.5zM282 600q0 18 -11 32.5t-35 14.5q-21 0 -36.5 -15.5t-15.5 -43.5q0 -19 10 -32t34 -13q22 0 38 14.5t16 42.5z" />
    <glyph glyph-name="zero.den" horiz-adv-x="408" 
d="M125 148q0 -27 12 -48t45 -21q22 0 36.5 13.5t23.5 33.5t12.5 44.5t3.5 47.5q0 27 -12 48t-43 21q-24 0 -39 -15t-24 -36.5t-12 -45.5t-3 -42zM178 -5q-74 0 -117.5 40t-43.5 112q0 45 12.5 85.5t36.5 71t59.5 48.5t81.5 18q72 0 115.5 -38.5t43.5 -113.5
q0 -47 -12 -87.5t-35.5 -70.5t-59 -47.5t-81.5 -17.5z" />
    <glyph glyph-name="one.den" horiz-adv-x="278" 
d="M109 257l-89 -49l14 91l107 65h95l-58 -363h-109z" />
    <glyph glyph-name="two.den" horiz-adv-x="341" 
d="M-26 16l148 132q32 28 56 53.5t24 51.5q0 18 -9.5 26.5t-24.5 8.5q-20 0 -33.5 -13t-20.5 -44h-100q10 69 54 103.5t107 34.5q27 0 51.5 -6t43 -18.5t29.5 -33t11 -49.5q0 -41 -26.5 -72t-74.5 -72l-45 -39h119l-12 -78h-300z" />
    <glyph glyph-name="three.den" horiz-adv-x="363" 
d="M155 -5q-32 0 -59.5 7t-48 22t-32.5 39t-12 58h98q1 -23 12.5 -36t37.5 -13q18 0 34 10.5t16 34.5q0 37 -48 37h-26l10 64h31q23 0 36.5 10t13.5 30q0 17 -9 26.5t-30 9.5q-43 0 -54 -45h-95q8 57 50 89t107 32q25 0 49 -5t43 -16t30.5 -30t11.5 -47q0 -32 -20 -54
t-53 -32q26 -5 43.5 -23.5t17.5 -52.5q0 -29 -12.5 -50.5t-33.5 -36t-49 -21.5t-59 -7z" />
    <glyph glyph-name="four.den" horiz-adv-x="378" 
d="M171 70h-181l6 40l195 254h132l-35 -221h47l-12 -73h-46l-11 -69h-106zM186 143l22 143l-105 -143h83z" />
    <glyph glyph-name="five.den" horiz-adv-x="355" 
d="M148 -5q-29 0 -55 6t-46.5 20t-33 36.5t-13.5 55.5h101q2 -17 12 -27.5t33 -10.5q21 0 35 14.5t14 42.5q0 43 -45 43q-18 0 -30 -7t-21 -19h-77l43 216h254l-13 -78h-177l-15 -81q12 14 32.5 26t54.5 12q45 0 74 -26t29 -77q-1 -71 -44 -108t-112 -38z" />
    <glyph glyph-name="six.den" horiz-adv-x="377" 
d="M171 -6q-69 0 -111.5 35.5t-42.5 105.5q0 11 1 23t3 24l2 13q13 82 62.5 128t121.5 46q27 0 51 -6t42.5 -18.5t29.5 -33t12 -50.5h-99q-3 14 -12 22t-27 8q-29 0 -47 -24.5t-26 -68.5q14 17 35 27.5t52 10.5q22 0 42 -6.5t35 -19t24 -31t9 -43.5q0 -35 -12 -61.5
t-33.5 -44.5t-50 -27t-61.5 -9zM124 115q0 -19 11 -33t36 -14q22 0 36.5 15.5t14.5 43.5q0 19 -10.5 32t-33.5 13q-22 0 -38 -14.5t-16 -42.5z" />
    <glyph glyph-name="seven.den" horiz-adv-x="328" 
d="M175 278h-151l14 86h291l-3 -12l-187 -351h-112z" />
    <glyph glyph-name="eight.den" horiz-adv-x="368" 
d="M160 -5q-28 0 -55.5 5.5t-49.5 17.5t-35.5 31.5t-13.5 48.5q0 42 22 65t59 35q-20 10 -31.5 26t-11.5 39q0 27 12.5 47.5t32.5 33.5t46 19.5t53 6.5q25 0 50 -5.5t44.5 -17t31.5 -30t12 -44.5q0 -63 -62 -84q27 -11 40.5 -31t13.5 -46q0 -31 -13.5 -53t-36 -36.5
t-50.5 -21t-58 -6.5zM115 111q0 -17 11.5 -29t34.5 -12q20 0 36 11.5t16 36.5q0 19 -12 31t-34 12q-20 0 -36 -12.5t-16 -37.5zM141 256q0 -17 11.5 -26.5t28.5 -9.5q20 0 33 10.5t13 31.5q0 16 -11.5 26t-30.5 10q-17 0 -30.5 -10.5t-13.5 -31.5z" />
    <glyph glyph-name="nine.den" horiz-adv-x="377" 
d="M183 370q69 0 110 -33.5t42 -101.5q0 -14 -1 -28.5t-3 -27.5l-2 -12q-13 -85 -58 -128.5t-124 -43.5q-29 0 -53.5 6t-43 19t-30 34t-12.5 51h99q2 -15 11 -23t32 -8q30 0 47 24t24 68q-14 -17 -35 -27t-52 -10q-22 0 -42 6.5t-35 19t-24 31.5t-9 44q0 33 12.5 59t34.5 44
t50.5 27.5t61.5 9.5zM228 250q0 18 -11 32.5t-35 14.5q-21 0 -36.5 -15.5t-15.5 -43.5q0 -19 10 -32t34 -13q22 0 38 14.5t16 42.5z" />
    <glyph glyph-name="zero.sub" horiz-adv-x="408" 
d="M108 39q0 -27 12 -48t45 -21q22 0 36.5 13.5t23.5 33.5t12.5 44.5t3.5 47.5q0 27 -12 48t-43 21q-24 0 -39 -15t-24 -36.5t-12 -45.5t-3 -42zM161 -114q-74 0 -117.5 40t-43.5 112q0 45 12.5 85.5t36.5 71t59.5 48.5t81.5 18q72 0 115.5 -38.5t43.5 -113.5
q0 -47 -12 -87.5t-35.5 -70.5t-59 -47.5t-81.5 -17.5z" />
    <glyph glyph-name="one.sub" horiz-adv-x="278" 
d="M92 149l-89 -49l14 91l107 65h95l-58 -363h-109z" />
    <glyph glyph-name="two.sub" horiz-adv-x="341" 
d="M-44 -92l148 132q32 28 56 53.5t24 51.5q0 18 -9.5 26.5t-24.5 8.5q-20 0 -33.5 -13t-20.5 -44h-100q10 69 54 103.5t107 34.5q27 0 51.5 -6t43 -18.5t29.5 -33t11 -49.5q0 -41 -26.5 -72t-74.5 -72l-45 -39h119l-12 -78h-300z" />
    <glyph glyph-name="three.sub" horiz-adv-x="363" 
d="M137 -113q-32 0 -59.5 7t-48 22t-32.5 39t-12 58h98q1 -23 12.5 -36t37.5 -13q18 0 34 10.5t16 34.5q0 37 -48 37h-26l10 64h31q23 0 36.5 10t13.5 30q0 17 -9 26.5t-30 9.5q-43 0 -54 -45h-95q8 57 50 89t107 32q25 0 49 -5t43 -16t30.5 -30t11.5 -47q0 -32 -20 -54
t-53 -32q26 -5 43.5 -23.5t17.5 -52.5q0 -29 -12.5 -50.5t-33.5 -36t-49 -21.5t-59 -7z" />
    <glyph glyph-name="four.sub" horiz-adv-x="378" 
d="M153 -38h-181l6 40l195 254h132l-35 -221h47l-12 -73h-46l-11 -69h-106zM168 35l22 143l-105 -143h83z" />
    <glyph glyph-name="five.sub" horiz-adv-x="355" 
d="M130 -113q-29 0 -55 6t-46.5 20t-33 36.5t-13.5 55.5h101q2 -17 12 -27.5t33 -10.5q21 0 35 14.5t14 42.5q0 43 -45 43q-18 0 -30 -7t-21 -19h-77l43 216h254l-13 -78h-177l-15 -81q12 14 32.5 26t54.5 12q45 0 74 -26t29 -77q-1 -71 -44 -108t-112 -38z" />
    <glyph glyph-name="six.sub" horiz-adv-x="377" 
d="M153 -113q-69 0 -111.5 35.5t-42.5 105.5q0 11 1 23t3 24l2 13q13 82 62.5 128t121.5 46q27 0 51 -6t42.5 -18.5t29.5 -33t12 -50.5h-99q-3 14 -12 22t-27 8q-29 0 -47 -24.5t-26 -68.5q14 17 35 27.5t52 10.5q22 0 42 -6.5t35 -19t24 -31t9 -43.5q0 -35 -12 -61.5
t-33.5 -44.5t-50 -27t-61.5 -9zM106 8q0 -19 11 -33t36 -14q22 0 36.5 15.5t14.5 43.5q0 19 -10.5 32t-33.5 13q-22 0 -38 -14.5t-16 -42.5z" />
    <glyph glyph-name="seven.sub" horiz-adv-x="328" 
d="M158 170h-151l14 86h291l-3 -12l-187 -351h-112z" />
    <glyph glyph-name="eight.sub" horiz-adv-x="368" 
d="M143 -113q-28 0 -55.5 5.5t-49.5 17.5t-35.5 31.5t-13.5 48.5q0 42 22 65t59 35q-20 10 -31.5 26t-11.5 39q0 27 12.5 47.5t32.5 33.5t46 19.5t53 6.5q25 0 50 -5.5t44.5 -17t31.5 -30t12 -44.5q0 -63 -62 -84q27 -11 40.5 -31t13.5 -46q0 -31 -13.5 -53t-36 -36.5
t-50.5 -21t-58 -6.5zM98 3q0 -17 11.5 -29t34.5 -12q20 0 36 11.5t16 36.5q0 19 -12 31t-34 12q-20 0 -36 -12.5t-16 -37.5zM124 148q0 -17 11.5 -26.5t28.5 -9.5q20 0 33 10.5t13 31.5q0 16 -11.5 26t-30.5 10q-17 0 -30.5 -10.5t-13.5 -31.5z" />
    <glyph glyph-name="nine.sub" horiz-adv-x="377" 
d="M165 262q69 0 110 -33.5t42 -101.5q0 -14 -1 -28.5t-3 -27.5l-2 -12q-13 -85 -58 -128.5t-124 -43.5q-29 0 -53.5 6t-43 19t-30 34t-12.5 51h99q2 -15 11 -23t32 -8q30 0 47 24t24 68q-14 -17 -35 -27t-52 -10q-22 0 -42 6.5t-35 19t-24 31.5t-9 44q0 33 12.5 59t34.5 44
t50.5 27.5t61.5 9.5zM210 142q0 18 -11 32.5t-35 14.5q-21 0 -36.5 -15.5t-15.5 -43.5q0 -19 10 -32t34 -13q22 0 38 14.5t16 42.5z" />
    <glyph glyph-name="plus.sub" horiz-adv-x="363" 
d="M104 38h-98l13 78h98l17 102h80l-17 -102h98l-12 -78h-98l-16 -101h-80z" />
    <glyph glyph-name="minus.sub" horiz-adv-x="363" 
d="M19 116h276l-12 -78h-277z" />
    <glyph glyph-name="zero.sup" horiz-adv-x="408" 
d="M186 556q0 -27 12 -48t45 -21q22 0 36.5 13.5t23.5 33.5t12.5 44.5t3.5 47.5q0 27 -12 48t-43 21q-24 0 -39 -15t-24 -36.5t-12 -45.5t-3 -42zM239 403q-74 0 -117.5 40t-43.5 112q0 45 12.5 85.5t36.5 71t59.5 48.5t81.5 18q72 0 115.5 -38.5t43.5 -113.5
q0 -47 -12 -87.5t-35.5 -70.5t-59 -47.5t-81.5 -17.5z" />
    <glyph glyph-name="one.sup" horiz-adv-x="278" 
d="M170 666l-89 -49l14 91l107 65h95l-58 -363h-109z" />
    <glyph glyph-name="two.sup" horiz-adv-x="341" 
d="M35 425l148 132q32 28 56 53.5t24 51.5q0 18 -9.5 26.5t-24.5 8.5q-20 0 -33.5 -13t-20.5 -44h-100q10 69 54 103.5t107 34.5q27 0 51.5 -6t43 -18.5t29.5 -33t11 -49.5q0 -41 -26.5 -72t-74.5 -72l-45 -39h119l-12 -78h-300z" />
    <glyph glyph-name="three.sup" horiz-adv-x="363" 
d="M216 403q-32 0 -59.5 7t-48 22t-32.5 39t-12 58h98q1 -23 12.5 -36t37.5 -13q18 0 34 10.5t16 34.5q0 37 -48 37h-26l10 64h31q23 0 36.5 10t13.5 30q0 17 -9 26.5t-30 9.5q-43 0 -54 -45h-95q8 57 50 89t107 32q25 0 49 -5t43 -16t30.5 -30t11.5 -47q0 -32 -20 -54
t-53 -32q26 -5 43.5 -23.5t17.5 -52.5q0 -29 -12.5 -50.5t-33.5 -36t-49 -21.5t-59 -7z" />
    <glyph glyph-name="four.sup" horiz-adv-x="378" 
d="M232 479h-181l6 40l195 254h132l-35 -221h47l-12 -73h-46l-11 -69h-106zM247 552l22 143l-105 -143h83z" />
    <glyph glyph-name="five.sup" horiz-adv-x="355" 
d="M209 403q-29 0 -55 6t-46.5 20t-33 36.5t-13.5 55.5h101q2 -17 12 -27.5t33 -10.5q21 0 35 14.5t14 42.5q0 43 -45 43q-18 0 -30 -7t-21 -19h-77l43 216h254l-13 -78h-177l-15 -81q12 14 32.5 26t54.5 12q45 0 74 -26t29 -77q-1 -71 -44 -108t-112 -38z" />
    <glyph glyph-name="six.sup" horiz-adv-x="377" 
d="M232 403q-69 0 -111.5 35.5t-42.5 105.5q0 11 1 23t3 24l2 13q13 82 62.5 128t121.5 46q27 0 51 -6t42.5 -18.5t29.5 -33t12 -50.5h-99q-3 14 -12 22t-27 8q-29 0 -47 -24.5t-26 -68.5q14 17 35 27.5t52 10.5q22 0 42 -6.5t35 -19t24 -31t9 -43.5q0 -35 -12 -61.5
t-33.5 -44.5t-50 -27t-61.5 -9zM185 524q0 -19 11 -33t36 -14q22 0 36.5 15.5t14.5 43.5q0 19 -10.5 32t-33.5 13q-22 0 -38 -14.5t-16 -42.5z" />
    <glyph glyph-name="seven.sup" horiz-adv-x="328" 
d="M236 687h-151l14 86h291l-3 -12l-187 -351h-112z" />
    <glyph glyph-name="eight.sup" horiz-adv-x="368" 
d="M222 403q-28 0 -55.5 5.5t-49.5 17.5t-35.5 31.5t-13.5 48.5q0 42 22 65t59 35q-20 10 -31.5 26t-11.5 39q0 27 12.5 47.5t32.5 33.5t46 19.5t53 6.5q25 0 50 -5.5t44.5 -17t31.5 -30t12 -44.5q0 -63 -62 -84q27 -11 40.5 -31t13.5 -46q0 -31 -13.5 -53t-36 -36.5
t-50.5 -21t-58 -6.5zM177 519q0 -17 11.5 -29t34.5 -12q20 0 36 11.5t16 36.5q0 19 -12 31t-34 12q-20 0 -36 -12.5t-16 -37.5zM203 664q0 -17 11.5 -26.5t28.5 -9.5q20 0 33 10.5t13 31.5q0 16 -11.5 26t-30.5 10q-17 0 -30.5 -10.5t-13.5 -31.5z" />
    <glyph glyph-name="nine.sup" horiz-adv-x="377" 
d="M244 778q69 0 110 -33.5t42 -101.5q0 -14 -1 -28.5t-3 -27.5l-2 -12q-13 -85 -58 -128.5t-124 -43.5q-29 0 -53.5 6t-43 19t-30 34t-12.5 51h99q2 -15 11 -23t32 -8q30 0 47 24t24 68q-14 -17 -35 -27t-52 -10q-22 0 -42 6.5t-35 19t-24 31.5t-9 44q0 33 12.5 59t34.5 44
t50.5 27.5t61.5 9.5zM289 658q0 18 -11 32.5t-35 14.5q-21 0 -36.5 -15.5t-15.5 -43.5q0 -19 10 -32t34 -13q22 0 38 14.5t16 42.5z" />
    <glyph glyph-name="plus.sup" horiz-adv-x="363" 
d="M180 555h-98l13 78h98l17 102h80l-17 -102h98l-12 -78h-98l-16 -101h-80z" />
    <glyph glyph-name="minus.sup" horiz-adv-x="363" 
d="M96 633h276l-12 -78h-277z" />
    <glyph glyph-name="a.alt" horiz-adv-x="634" 
d="M320 425q-32 0 -57.5 -14.5t-43 -40.5t-27 -62t-9.5 -79q0 -60 26 -95t79 -35q30 0 55.5 14.5t44 41t29.5 63.5t11 81q0 59 -29.5 92.5t-78.5 33.5zM232 -11q-44 0 -80.5 15.5t-62.5 45t-40.5 71.5t-14.5 95q0 71 19 129.5t52.5 100.5t80.5 65.5t103 23.5q66 0 104 -29.5
t55 -69.5l14 87h144l-57 -363q-8 -53 -10.5 -90t-0.5 -70h-141q-3 20 -2.5 44t2.5 46q-28 -48 -68 -74.5t-97 -26.5z" />
    <glyph glyph-name="t.alt" horiz-adv-x="378" 
d="M124 420h-75l16 103h75l18 113h145l-18 -113h102l-16 -103h-102l-66 -420h-145z" />
    <glyph glyph-name="germandbls.alt" horiz-adv-x="672" 
d="M428 -9q-41 0 -75.5 9.5t-60 29t-40 50t-14.5 73.5h126q2 -30 15.5 -46.5t43.5 -16.5q26 0 43.5 14t17.5 45q0 28 -21.5 45t-55.5 39q-18 11 -35.5 24.5t-32 29.5t-23 34.5t-8.5 40.5q0 29 12 52t30 42t39 35.5t39 33t30 33.5t12 38q0 31 -22.5 46.5t-61.5 15.5
q-50 0 -84 -28t-45 -92l-85 -538h-144l86 544q9 58 34 100.5t61.5 70t84 40.5t101.5 13q40 0 78.5 -8.5t69 -27t49 -48.5t18.5 -72q0 -33 -12 -58.5t-30 -45.5t-39.5 -36t-39.5 -29.5t-30 -26t-12 -24.5q0 -8 4 -14t13 -14t24 -18.5t37 -26.5q44 -30 71.5 -66t27.5 -93
q0 -40 -14.5 -71.5t-40 -53t-62 -33t-79.5 -11.5z" />
    <glyph glyph-name="aacute.alt" horiz-adv-x="634" 
d="M320 425q-32 0 -57.5 -14.5t-43 -40.5t-27 -62t-9.5 -79q0 -60 26 -95t79 -35q30 0 55.5 14.5t44 41t29.5 63.5t11 81q0 59 -29.5 92.5t-78.5 33.5zM232 -11q-44 0 -80.5 15.5t-62.5 45t-40.5 71.5t-14.5 95q0 71 19 129.5t52.5 100.5t80.5 65.5t103 23.5q66 0 104 -29.5
t55 -69.5l14 87h144l-57 -363q-8 -53 -10.5 -90t-0.5 -70h-141q-3 20 -2.5 44t2.5 46q-28 -48 -68 -74.5t-97 -26.5zM368 753h154l-123 -159h-107z" />
    <glyph glyph-name="acircumflex.alt" horiz-adv-x="634" 
d="M320 425q-32 0 -57.5 -14.5t-43 -40.5t-27 -62t-9.5 -79q0 -60 26 -95t79 -35q30 0 55.5 14.5t44 41t29.5 63.5t11 81q0 59 -29.5 92.5t-78.5 33.5zM232 -11q-44 0 -80.5 15.5t-62.5 45t-40.5 71.5t-14.5 95q0 71 19 129.5t52.5 100.5t80.5 65.5t103 23.5q66 0 104 -29.5
t55 -69.5l14 87h144l-57 -363q-8 -53 -10.5 -90t-0.5 -70h-141q-3 20 -2.5 44t2.5 46q-28 -48 -68 -74.5t-97 -26.5zM318 751h108l93 -156h-98l-60 63l-79 -63h-103z" />
    <glyph glyph-name="adieresis.alt" horiz-adv-x="634" 
d="M320 425q-32 0 -57.5 -14.5t-43 -40.5t-27 -62t-9.5 -79q0 -60 26 -95t79 -35q30 0 55.5 14.5t44 41t29.5 63.5t11 81q0 59 -29.5 92.5t-78.5 33.5zM232 -11q-44 0 -80.5 15.5t-62.5 45t-40.5 71.5t-14.5 95q0 71 19 129.5t52.5 100.5t80.5 65.5t103 23.5q66 0 104 -29.5
t55 -69.5l14 87h144l-57 -363q-8 -53 -10.5 -90t-0.5 -70h-141q-3 20 -2.5 44t2.5 46q-28 -48 -68 -74.5t-97 -26.5zM260 600q-31 0 -52.5 20.5t-21.5 50.5t22 51.5t53 21.5q30 0 51.5 -21t21.5 -51q0 -29 -21.5 -50.5t-52.5 -21.5zM463 600q-30 0 -51.5 20.5t-21.5 50.5
t21.5 51.5t52.5 21.5t52 -21t21 -51q0 -29 -21 -50.5t-53 -21.5z" />
    <glyph glyph-name="agrave.alt" horiz-adv-x="634" 
d="M320 425q-32 0 -57.5 -14.5t-43 -40.5t-27 -62t-9.5 -79q0 -60 26 -95t79 -35q30 0 55.5 14.5t44 41t29.5 63.5t11 81q0 59 -29.5 92.5t-78.5 33.5zM232 -11q-44 0 -80.5 15.5t-62.5 45t-40.5 71.5t-14.5 95q0 71 19 129.5t52.5 100.5t80.5 65.5t103 23.5q66 0 104 -29.5
t55 -69.5l14 87h144l-57 -363q-8 -53 -10.5 -90t-0.5 -70h-141q-3 20 -2.5 44t2.5 46q-28 -48 -68 -74.5t-97 -26.5zM215 753h150l42 -159h-102z" />
    <glyph glyph-name="aring.alt" horiz-adv-x="634" 
d="M320 425q-32 0 -57.5 -14.5t-43 -40.5t-27 -62t-9.5 -79q0 -60 26 -95t79 -35q30 0 55.5 14.5t44 41t29.5 63.5t11 81q0 59 -29.5 92.5t-78.5 33.5zM232 -11q-44 0 -80.5 15.5t-62.5 45t-40.5 71.5t-14.5 95q0 71 19 129.5t52.5 100.5t80.5 65.5t103 23.5q66 0 104 -29.5
t55 -69.5l14 87h144l-57 -363q-8 -53 -10.5 -90t-0.5 -70h-141q-3 20 -2.5 44t2.5 46q-28 -48 -68 -74.5t-97 -26.5zM364 643q21 0 35 15t14 39q0 23 -13 37t-34 14q-22 0 -36 -15t-14 -38t13 -37.5t35 -14.5zM364 585q-24 0 -44.5 8.5t-35.5 23.5t-24 35t-9 43t9 43t25 35
t36.5 24t44.5 9t44.5 -8.5t35.5 -23t24 -34.5t9 -43t-9.5 -43.5t-25 -35.5t-36.5 -24t-44 -9z" />
    <glyph glyph-name="atilde.alt" horiz-adv-x="634" 
d="M320 425q-32 0 -57.5 -14.5t-43 -40.5t-27 -62t-9.5 -79q0 -60 26 -95t79 -35q30 0 55.5 14.5t44 41t29.5 63.5t11 81q0 59 -29.5 92.5t-78.5 33.5zM232 -11q-44 0 -80.5 15.5t-62.5 45t-40.5 71.5t-14.5 95q0 71 19 129.5t52.5 100.5t80.5 65.5t103 23.5q66 0 104 -29.5
t55 -69.5l14 87h144l-57 -363q-8 -53 -10.5 -90t-0.5 -70h-141q-3 20 -2.5 44t2.5 46q-28 -48 -68 -74.5t-97 -26.5zM423 598q-20 0 -36.5 6t-30 13t-25.5 13t-23 6q-13 0 -23.5 -10t-15.5 -27h-83q11 70 43 105.5t77 35.5q19 0 35 -6t30 -12.5t26.5 -12.5t24.5 -6
q28 0 38 37h84q-12 -71 -45 -106.5t-76 -35.5z" />
    <glyph glyph-name="f.short" horiz-adv-x="377" 
d="M62 523h69l12 76q7 45 25 77t44 52.5t58.5 30t70.5 9.5q32 0 51 -4t34 -9l-17 -108q-10 4 -22 6.5t-29 2.5q-32 0 -49.5 -17t-23.5 -52l-10 -64h114l-16 -103h-115l-66 -420h-144l66 420h-68z" />
    <glyph glyph-name="f_f.short" horiz-adv-x="690" 
d="M62 523h68l11 69q7 43 25 74.5t44 51.5t59.5 30t71.5 10q31 0 49.5 -3.5t33.5 -10.5l-17 -107q-10 5 -21 7t-28 2q-33 0 -51 -17t-23 -49l-9 -57h170l12 76q7 45 24.5 77t43.5 52.5t59 30t71 9.5q32 0 51 -4t33 -9l-16 -108q-10 4 -22 6.5t-29 2.5q-32 0 -49.5 -17
t-23.5 -52l-10 -64h114l-16 -103h-115l-66 -420h-144l66 420h-170l-66 -420h-144l66 420h-68z" />
    <glyph glyph-name="questiondown.uc" horiz-adv-x="544" 
d="M395 460q-5 -33 -18.5 -58.5t-31 -46t-38 -37t-40.5 -31.5q-36 -27 -60.5 -51t-24.5 -63q1 -30 20 -47.5t55 -17.5q39 0 67 25.5t37 77.5h140q-7 -55 -28.5 -96.5t-55 -69t-77 -41.5t-93.5 -14q-54 0 -94.5 13.5t-68 37t-41.5 55t-14 68.5q0 34 9 60t24.5 47.5t36 39.5
t42.5 34q19 14 39 27.5t37.5 30t30.5 36.5t17 47l1 6h134zM353 724q38 0 63.5 -25t25.5 -61q0 -37 -25.5 -62t-63.5 -25t-64 25t-26 61q0 18 7 34t19 27.5t28.5 18.5t35.5 7z" />
    <glyph glyph-name="exclamdown.uc" horiz-adv-x="329" 
d="M204 -1h-162l101 492h118zM223 723q38 0 63 -25t25 -61t-25.5 -61.5t-63.5 -25.5t-64 25t-26 61q0 18 7 34t19.5 27.5t29 18.5t35.5 7z" />
    <glyph glyph-name="hyphen.uc" horiz-adv-x="402" 
d="M78 386h282l-18 -119h-282z" />
    <glyph glyph-name="endash.uc" horiz-adv-x="547" 
d="M69 374h444l-15 -92h-444z" />
    <glyph glyph-name="emdash.uc" horiz-adv-x="936" 
d="M69 374h833l-15 -92h-833z" />
    <glyph glyph-name="guilsinglleft.uc" horiz-adv-x="324" 
d="M47 305l156 188h110l-153 -190l90 -194h-103z" />
    <glyph glyph-name="guilsinglright.uc" horiz-adv-x="324" 
d="M289 297l-156 -188h-110l153 190l-90 194h103z" />
    <glyph glyph-name="guillemotleft.uc" horiz-adv-x="499" 
d="M47 304l151 189h107l-150 -191l94 -193h-101zM228 303l150 190h107l-150 -194l92 -190h-101z" />
    <glyph glyph-name="guillemotright.uc" horiz-adv-x="499" 
d="M465 298l-151 -189h-106l150 191l-94 193h100zM285 299l-151 -190h-106l149 194l-91 190h100z" />
    <glyph glyph-name="parenleft.uc" horiz-adv-x="355" 
d="M159 -98q-20 30 -39 66t-33.5 78.5t-23.5 92t-9 106.5q0 161 65.5 295.5t178.5 243.5h124q-53 -63 -95 -126t-71.5 -129t-45.5 -138t-16 -153q0 -103 24 -187.5t58 -148.5h-117z" />
    <glyph glyph-name="parenright.uc" horiz-adv-x="355" 
d="M219 784q20 -30 39 -66t33.5 -78.5t23.5 -92t9 -106.5q0 -161 -65.5 -295.5t-178.5 -243.5h-125q53 64 95.5 126.5t72 128.5t45.5 138t16 153q0 103 -24.5 188t-57.5 148h117z" />
    <glyph glyph-name="bracketleft.uc" horiz-adv-x="402" 
d="M161 781h276l-17 -107h-131l-104 -657h131l-17 -107h-276z" />
    <glyph glyph-name="bracketright.uc" horiz-adv-x="402" 
d="M7 17h130l104 657h-130l17 107h275l-138 -871h-275z" />
    <glyph glyph-name="braceleft.uc" horiz-adv-x="417" 
d="M313 -92q-134 4 -186 63t-15 171l19 56q15 44 -3 72.5t-83 30.5l16 101q67 -1 92.5 21.5t23.5 70.5l-2 72q-2 61 14.5 102.5t51 67t87.5 36.5t124 10l-17 -105q-35 -1 -58 -7t-36.5 -19.5t-19 -35t-5.5 -53.5v-76q0 -63 -32.5 -95.5t-86.5 -44.5q54 -14 72.5 -54t0.5 -97
l-20 -62q-20 -63 -1.5 -88.5t81.5 -30.5z" />
    <glyph glyph-name="braceright.uc" horiz-adv-x="417" 
d="M128 782q134 -4 186 -62.5t15 -170.5l-19 -57q-15 -44 3 -72t83 -31l-16 -101q-67 1 -92.5 -21t-23.5 -70l2 -73q1 -61 -15 -102.5t-50.5 -67t-87 -36t-124.5 -10.5l17 106q34 1 57.5 7t37 19t19 34.5t5.5 53.5v77q0 62 33 95.5t86 44.5q-54 14 -72.5 53.5t0.5 97.5
l19 61q20 63 1.5 89t-81.5 30z" />
    <glyph glyph-name="slash.uc" horiz-adv-x="435" 
d="M374 777h121l-412 -861h-121z" />
    <glyph glyph-name="backslash.uc" horiz-adv-x="439" 
d="M95 777h114l161 -861h-114z" />
    <glyph glyph-name="bar.uc" horiz-adv-x="274" 
d="M99 777h104v-861h-104v861z" />
    <glyph glyph-name="at.uc" horiz-adv-x="933" 
d="M474 -72q-99 0 -175.5 32t-129 86t-79.5 124.5t-27 147.5q0 99 37 180t98.5 138t142 88.5t167.5 31.5t159 -26t124 -72t80.5 -109.5t28.5 -139.5t-19.5 -128t-50 -84.5t-68 -46.5t-74.5 -14q-61 0 -91 21t-38 60q-21 -38 -59 -61.5t-86 -23.5q-69 0 -109 44.5t-42 119.5
q0 55 16 100t43.5 77t64.5 49.5t78 17.5q49 0 74.5 -18.5t35.5 -43.5l9 54h124l-42 -261q-5 -33 4 -51t36 -18q21 0 41.5 11t37.5 36t27.5 64.5t10.5 96.5q0 60 -21.5 111t-62.5 88t-99.5 58t-133.5 21t-141 -25.5t-115 -74t-76.5 -117.5t-27.5 -156q0 -64 20 -122
t61.5 -101.5t104 -69.5t146.5 -26q85 0 145 23t101 60h86q-23 -34 -57.5 -62t-78 -47.5t-94.5 -30.5t-106 -11zM458 228q18 0 36 9.5t32 27t22.5 43t8.5 57.5q0 38 -19 58t-55 20q-18 0 -35.5 -9t-30.5 -26.5t-20.5 -43.5t-6.5 -60q0 -33 18 -54.5t50 -21.5z" />
    <glyph glyph-name="idotaccent" horiz-adv-x="281" 
d="M202 595q-35 0 -58 22t-23 56q0 33 23.5 55.5t58.5 22.5t58 -22t23 -55q0 -34 -23.5 -56.5t-58.5 -22.5zM109 523h144l-83 -523h-144z" />
    <glyph glyph-name="registered.alt" horiz-adv-x="843" 
d="M282 561h153q77 0 118.5 -31t41.5 -94v-2q0 -45 -21.5 -70t-53.5 -36l99 -168h-111l-87 147h-32v-147h-107v401zM430 378q60 0 60 51v3q0 26 -15 36.5t-44 10.5h-42v-101h41zM432 32q66 0 124.5 23.5t102.5 66.5t69.5 103.5t25.5 133.5q0 72 -25 131.5t-68.5 102.5
t-102 66.5t-124.5 23.5q-67 0 -125.5 -24t-102 -67t-68.5 -103t-25 -132q0 -73 26 -133t69.5 -102.5t101.5 -66t122 -23.5zM432 -16q-78 0 -146.5 28.5t-119.5 79t-80.5 118.5t-29.5 147q0 78 29.5 146t80.5 119t120 80t148 29q81 0 150 -29t119.5 -79.5t79 -118
t28.5 -145.5q0 -80 -29.5 -148.5t-80.5 -118.5t-120.5 -79t-148.5 -29z" />
    <glyph glyph-name="abreve.alt" horiz-adv-x="622" 
d="M320 425q-32 0 -57.5 -14.5t-43 -40.5t-27 -62t-9.5 -79q0 -60 26 -95t79 -35q30 0 55.5 14.5t44 41t29.5 63.5t11 81q0 59 -29.5 92.5t-78.5 33.5zM232 -11q-44 0 -80.5 15.5t-62.5 45t-40.5 71.5t-14.5 95q0 71 19 129.5t52.5 100.5t80.5 65.5t103 23.5q66 0 104 -29.5
t55 -69.5l14 87h144l-57 -363q-8 -53 -10.5 -90t-0.5 -70h-141q-3 20 -2.5 44t2.5 46q-28 -48 -68 -74.5t-97 -26.5zM358 598q-34 0 -61.5 10.5t-47 29.5t-30 46.5t-9.5 62.5h94q5 -54 56 -54q53 0 62 54h94q-8 -70 -51.5 -109.5t-106.5 -39.5z" />
    <glyph glyph-name="amacron.alt" horiz-adv-x="622" 
d="M320 425q-32 0 -57.5 -14.5t-43 -40.5t-27 -62t-9.5 -79q0 -60 26 -95t79 -35q30 0 55.5 14.5t44 41t29.5 63.5t11 81q0 59 -29.5 92.5t-78.5 33.5zM232 -11q-44 0 -80.5 15.5t-62.5 45t-40.5 71.5t-14.5 95q0 71 19 129.5t52.5 100.5t80.5 65.5t103 23.5q66 0 104 -29.5
t55 -69.5l14 87h144l-57 -363q-8 -53 -10.5 -90t-0.5 -70h-141q-3 20 -2.5 44t2.5 46q-28 -48 -68 -74.5t-97 -26.5zM227 712h291l-13 -87h-291z" />
    <glyph glyph-name="aogonek.alt" horiz-adv-x="622" 
d="M450 -182q-21 0 -40.5 4t-34.5 13.5t-23.5 24.5t-8.5 38q0 19 8.5 35t21.5 28.5t29 22.5t32 16h-43q-3 20 -2.5 44t2.5 46q-28 -48 -68 -74.5t-97 -26.5q-44 0 -80.5 15.5t-62.5 44.5t-40.5 71.5t-14.5 95.5q0 71 19 129.5t52.5 100.5t80.5 65.5t103 23.5q66 0 104 -29.5
t55 -69.5l14 87h144l-57 -363q-8 -51 -11 -87.5t-1 -68.5q-10 -8 -21.5 -16.5t-21.5 -18.5t-16.5 -21t-6.5 -24q0 -26 32 -26q20 0 35 6l-11 -73q-11 -5 -28.5 -9t-42.5 -4zM314 425q-32 0 -57.5 -14.5t-43 -40.5t-27 -62t-9.5 -79q0 -60 26 -95t79 -35q30 0 55.5 14.5
t44 41t29.5 63.5t11 81q0 59 -29.5 92.5t-78.5 33.5z" />
    <glyph glyph-name="aringacute.alt" horiz-adv-x="622" 
d="M320 425q-32 0 -57.5 -14.5t-43 -40.5t-27 -62t-9.5 -79q0 -60 26 -95t79 -35q30 0 55.5 14.5t44 41t29.5 63.5t11 81q0 59 -29.5 92.5t-78.5 33.5zM232 -11q-44 0 -80.5 15.5t-62.5 45t-40.5 71.5t-14.5 95q0 71 19 129.5t52.5 100.5t80.5 65.5t103 23.5q66 0 104 -29.5
t55 -69.5l14 87h144l-57 -363q-8 -53 -10.5 -90t-0.5 -70h-141q-3 20 -2.5 44t2.5 46q-28 -48 -68 -74.5t-97 -26.5zM363 633q21 0 35 15t14 39q0 23 -13 37t-34 14q-22 0 -36 -15t-14 -38t13 -37.5t35 -14.5zM363 575q-24 0 -44.5 8.5t-35.5 23.5t-24 35t-9 43t9 43t25 35
t36.5 24t44.5 9t44.5 -8.5t35.5 -23t24 -34.5t9 -43t-9.5 -43.5t-25 -35.5t-36.5 -24t-44 -9zM389 967h158l-112 -139h-111z" />
    <glyph glyph-name="tcaron.alt" horiz-adv-x="366" 
d="M124 420h-75l16 103h75l18 113h145l-18 -113h102l-16 -103h-102l-66 -420h-145zM384 760h117l-73 -174h-81z" />
    <glyph glyph-name="tcommaaccent.alt" horiz-adv-x="366" 
d="M2 -201l58 170l129 -21l-107 -176zM124 420h-75l16 103h75l18 113h145l-18 -113h102l-16 -103h-102l-66 -420h-145z" />
    <glyph glyph-name="uni021B.alt" horiz-adv-x="366" 
d="M2 -201l58 170l129 -21l-107 -176zM124 420h-75l16 103h75l18 113h145l-18 -113h102l-16 -103h-102l-66 -420h-145z" />
    </font>
</defs>
</svg>
