<?xml version="1.0" standalone="no"?>
<!DOCTYPE svg PUBLIC "-//W3C//DTD SVG 1.1//EN" "http://www.w3.org/Graphics/SVG/1.1/DTD/svg11.dtd" >
<svg xmlns="http://www.w3.org/2000/svg" xmlns:xlink="http://www.w3.org/1999/xlink" version="1.1">
<metadata>
Created by FontForge 20170731 at Thu Dec 17 19:44:01 2015
 By Aleksey,,,
B(c)2009 Commercial Type.
</metadata>
<defs>
<font id="GraphikWeb-Thin" horiz-adv-x="600" >
  <font-face 
    font-family="Graphik Web Thin"
    font-weight="100"
    font-stretch="normal"
    units-per-em="1000"
    panose-1="2 11 2 3 3 2 2 6 2 3"
    ascent="818"
    descent="-182"
    x-height="523"
    cap-height="715"
    bbox="-217 -210 1042 1068"
    underline-thickness="50"
    underline-position="-150"
    unicode-range="U+0020-FB02"
  />
<missing-glyph horiz-adv-x="364" 
d="M33 0v666h265v-666h-265zM66 33h199v600h-199v-600z" />
    <glyph glyph-name="f_f" unicode="ff" horiz-adv-x="584" 
d="M109 507h-85v16h85v95q0 42 12 71t31.5 46t44.5 24.5t51 7.5q17 0 28 -1.5t24 -5.5v-17q-11 4 -23.5 6t-28.5 2q-23 0 -45 -6t-39 -21.5t-27 -41t-10 -64.5v-95h249v104q0 42 12 71t31.5 46t44.5 24.5t51 7.5q17 0 28 -1.5t24 -5.5v-17q-11 4 -23.5 6t-28.5 2
q-23 0 -45 -6t-39 -21.5t-27 -41t-10 -64.5v-104h166v-16h-166v-507h-18v507h-249v-507h-18v507z" />
    <glyph glyph-name=".notdef" horiz-adv-x="364" 
d="M33 0v666h265v-666h-265zM66 33h199v600h-199v-600z" />
    <glyph glyph-name=".null" horiz-adv-x="0" 
 />
    <glyph glyph-name="nonmarkingreturn" horiz-adv-x="333" 
 />
    <glyph glyph-name="space" unicode=" " horiz-adv-x="225" 
 />
    <glyph glyph-name="exclam" unicode="!" horiz-adv-x="254" 
d="M127 -5q-8 0 -12.5 5t-4.5 12t4.5 12t12.5 5t12.5 -5t4.5 -12t-4.5 -12t-12.5 -5zM118 715h20l-2 -563h-16z" />
    <glyph glyph-name="quotedbl" unicode="&#x22;" horiz-adv-x="223" 
d="M55 715h20l-2 -167h-16zM148 715h20l-2 -167h-16z" />
    <glyph glyph-name="numbersign" unicode="#" horiz-adv-x="478" 
d="M296 310h-149l-30 -211h-17l31 211h-98v16h100l27 186h-99v16h102l27 187h17l-28 -187h149l27 187h17l-28 -187h101v-16h-103l-27 -186h102v-16h-105l-30 -211h-17zM150 326h148l27 186h-148z" />
    <glyph glyph-name="dollar" unicode="$" horiz-adv-x="582" 
d="M280 -6q-56 2 -98 18t-71.5 42t-46.5 61t-23 75h19q5 -35 20 -66.5t42 -56t66 -39.5t92 -17v356q-116 18 -165 61.5t-49 114.5q0 41 15.5 73.5t43.5 55.5t67.5 35.5t87.5 13.5v92h18v-92q88 -3 139 -45t65 -114h-19q-13 63 -58.5 101.5t-126.5 40.5v-322q60 -9 103 -22
t71 -35t41.5 -56t13.5 -83q0 -39 -15 -74t-44.5 -61t-72 -41.5t-97.5 -15.5v-129h-18v129zM508 186q0 45 -12 75.5t-37.5 50.5t-65.5 32.5t-95 20.5v-354q51 0 90 14t66 37.5t40.5 55t13.5 68.5zM85 543q0 -65 43.5 -103t151.5 -55v319q-90 -2 -142.5 -42.5t-52.5 -118.5z
" />
    <glyph glyph-name="percent" unicode="%" horiz-adv-x="745" 
d="M195 431q26 0 49.5 9t41.5 26.5t28.5 43t10.5 57.5q0 31 -10.5 56.5t-28 43t-41 27t-50.5 9.5q-26 0 -49 -9.5t-41 -27.5t-28.5 -43.5t-10.5 -57.5t10.5 -56.5t28.5 -42t41.5 -26.5t48.5 -9zM195 415q-29 0 -55.5 10t-46.5 29.5t-32.5 47.5t-12.5 63t12 63.5t32 48.5
t47 31t56 11q30 0 57 -11t47.5 -31t32 -48t11.5 -62q0 -36 -12 -64.5t-32.5 -48t-47.5 -29.5t-56 -10zM600 715h20l-477 -715h-20zM547 11q26 0 49.5 9t41.5 26.5t28.5 43t10.5 57.5q0 31 -10.5 56.5t-28 43t-41 27t-50.5 9.5q-26 0 -49 -9.5t-41 -27.5t-28.5 -43.5
t-10.5 -57.5t10.5 -56.5t28.5 -42t41.5 -26.5t48.5 -9zM547 -5q-29 0 -55.5 10t-46.5 29.5t-32.5 47.5t-12.5 63t12 63.5t32 48.5t47 31t56 11q30 0 57 -11t47.5 -31t32 -48t11.5 -62q0 -36 -12 -64.5t-32.5 -48t-47.5 -29.5t-56 -10z" />
    <glyph glyph-name="ampersand" unicode="&#x26;" horiz-adv-x="636" 
d="M478 147l129 -147h-24l-114 130q-17 -26 -38.5 -50.5t-49 -43.5t-61 -31t-75.5 -12q-48 0 -85 14.5t-62.5 40t-38.5 60t-13 75.5q0 42 16 75t42.5 59.5t59.5 47t67 37.5q-40 46 -62.5 84.5t-22.5 86.5q0 30 11 57t30.5 46.5t46 31t58.5 11.5q33 0 58.5 -11.5t43 -30.5
t27 -45t9.5 -54q0 -32 -13.5 -58t-36.5 -47.5t-54 -40.5t-67 -35l207 -236l107 192h20zM245 10q39 0 71 11.5t57.5 30t46 42.5t36.5 50l-214 246q-32 -16 -64 -36t-57 -45t-40.5 -56.5t-15.5 -69.5q0 -36 12 -68t34.5 -55t56 -36.5t77.5 -13.5zM165 573q0 -45 22 -82t61 -82
q33 16 63 33.5t52 38t35 44.5t13 53q0 54 -31 89t-88 35q-28 0 -51 -10t-40 -27t-26.5 -41t-9.5 -51z" />
    <glyph glyph-name="quotesingle" unicode="'" horiz-adv-x="130" 
d="M55 715h20l-2 -167h-16z" />
    <glyph glyph-name="parenleft" unicode="(" horiz-adv-x="273" 
d="M222 -148q-34 40 -64 89t-52 106.5t-35 123.5t-13 141t13 141t35 123.5t52 106.5t64 90h19q-34 -42 -64 -90.5t-52.5 -105.5t-35.5 -123t-13 -142t13 -141.5t35.5 -122.5t52.5 -105.5t64 -90.5h-19v0z" />
    <glyph glyph-name="parenright" unicode=")" horiz-adv-x="273" 
d="M32 -148q34 42 64 90.5t52.5 105.5t35.5 122.5t13 141.5t-13 142t-35.5 123t-52.5 105.5t-64 90.5h19q34 -41 64 -90t52 -106.5t35 -123.5t13 -141t-13 -141t-35 -123.5t-52 -106.5t-64 -89h-19v0z" />
    <glyph glyph-name="asterisk" unicode="*" horiz-adv-x="412" 
d="M94 451l100 124l-143 52l6 17l141 -54l-1 153h19l-1 -153l140 54l6 -17l-142 -52l98 -124l-15 -12l-96 125l-97 -125z" />
    <glyph glyph-name="plus" unicode="+" horiz-adv-x="500" 
d="M241 334h-204v16h204v219h18v-219h204v-16h-204v-219h-18v219z" />
    <glyph glyph-name="comma" unicode="," horiz-adv-x="166" 
d="M29 -103l55 140l19 -7l-59 -139z" />
    <glyph glyph-name="hyphen" unicode="-" horiz-adv-x="332" 
d="M64 288h204v-17h-204v17z" />
    <glyph glyph-name="period" unicode="." horiz-adv-x="166" 
d="M83 -5q-8 0 -12.5 5t-4.5 12t4.5 12t12.5 5t12.5 -5t4.5 -12t-4.5 -12t-12.5 -5z" />
    <glyph glyph-name="slash" unicode="/" horiz-adv-x="376" 
d="M312 776h19l-291 -924h-19z" />
    <glyph glyph-name="zero" unicode="0" horiz-adv-x="634" 
d="M317 11q121 0 183 77.5t62 229.5v84q0 70 -17 126t-49 95t-78 60t-104 21q-116 0 -179 -79.5t-63 -225.5v-84q0 -152 64.5 -228t180.5 -76zM317 -6q-127 0 -195.5 82t-68.5 239v84q0 155 68 238.5t193 83.5q61 0 110.5 -21t84 -62t53.5 -100.5t19 -135.5v-84
q0 -158 -67.5 -241t-196.5 -83z" />
    <glyph glyph-name="one" unicode="1" horiz-adv-x="331" 
d="M188 689l-167 -112v18l177 120h8v-715h-18v689z" />
    <glyph glyph-name="two" unicode="2" horiz-adv-x="518" 
d="M21 5l291 294q66 66 94 120.5t28 114.5q0 43 -13.5 75t-37.5 53t-57 31.5t-72 10.5q-78 0 -130.5 -45.5t-63.5 -137.5h-18q4 49 22 86t46 62.5t65 38.5t79 13t78.5 -12t63 -35t42 -58.5t15.5 -81.5q0 -65 -30.5 -122.5t-95.5 -122.5l-272 -272h415v-17h-449v5z" />
    <glyph glyph-name="three" unicode="3" horiz-adv-x="524" 
d="M260 -6q-53 0 -94.5 16.5t-70.5 44t-44.5 63t-17.5 73.5h18q3 -36 17.5 -68.5t40.5 -57t63.5 -39.5t87.5 -15q44 0 80.5 12t62.5 35t40.5 58t14.5 80q0 34 -10.5 65t-32.5 54.5t-56 37t-80 13.5h-49v17h46q43 0 72.5 13.5t48.5 35.5t27.5 49.5t8.5 54.5q0 36 -11 66.5
t-32.5 53t-52.5 35.5t-71 13q-41 0 -74.5 -13t-57.5 -35.5t-38 -53t-18 -64.5h-18q3 39 19.5 72.5t43.5 58t63.5 38.5t79.5 14q44 0 78.5 -14t58.5 -39t36.5 -59t12.5 -73q0 -29 -8.5 -55t-24 -47t-38.5 -36.5t-51 -21.5q64 -11 105.5 -58t41.5 -122q0 -48 -15.5 -86
t-44 -63.5t-68.5 -39t-89 -13.5z" />
    <glyph glyph-name="four" unicode="4" horiz-adv-x="569" 
d="M408 173h-381v5l367 537h33v-525h99v-17h-99v-173h-19v173zM408 190v514l-351 -514h351z" />
    <glyph glyph-name="five" unicode="5" horiz-adv-x="531" 
d="M253 -6q-50 0 -89.5 15.5t-67.5 40.5t-44 57t-19 66h18q4 -30 18.5 -59.5t40 -52t61.5 -36.5t82 -14q102 0 157 59t55 159q0 48 -15.5 86.5t-42.5 66.5t-63 43t-76 15q-69 0 -115 -26.5t-73 -61.5h-8v363h376v-17h-358v-312q12 12 29.5 25t40 23t50 16.5t58.5 6.5
q45 0 84 -16t68.5 -45.5t46.5 -72t17 -94.5q0 -55 -16.5 -98.5t-46.5 -74t-73 -46.5t-95 -16z" />
    <glyph glyph-name="six" unicode="6" horiz-adv-x="577" 
d="M300 -6q-62 0 -107 20.5t-74.5 57t-44 86.5t-14.5 109v91q0 100 19 169.5t53.5 112.5t81.5 62t103 19q36 0 68.5 -8.5t58 -26.5t42 -46.5t22.5 -68.5h-18q-11 69 -56.5 101t-116.5 32q-53 0 -96.5 -17t-75 -57.5t-49 -107t-17.5 -165.5v-64q12 39 35.5 67.5t53.5 47
t64 27.5t66 9q58 0 102 -17t73.5 -47t44 -71t14.5 -88q0 -50 -16.5 -91.5t-47 -71.5t-73.5 -47t-95 -17zM300 11q49 0 88.5 15.5t67 43.5t42.5 66.5t15 84.5t-13 84t-39.5 65t-67 42t-95.5 15q-41 0 -79 -13t-68 -38.5t-48 -62.5t-18 -85q0 -38 11.5 -76.5t37 -69.5
t66.5 -51t100 -20z" />
    <glyph glyph-name="seven" unicode="7" horiz-adv-x="480" 
d="M439 698h-415v17h440v-5l-291 -710h-20z" />
    <glyph glyph-name="eight" unicode="8" horiz-adv-x="555" 
d="M278 -6q-48 0 -90.5 13t-74 38t-49.5 62.5t-18 87.5q0 39 14 71t38.5 56.5t58 40.5t73.5 22q-30 6 -57.5 19t-48 33.5t-33 48.5t-12.5 63q0 40 16 71.5t43.5 54t63.5 34.5t76 12t76 -12t63 -34.5t43 -54t16 -69.5q0 -36 -11 -64.5t-30.5 -49t-46 -33.5t-56.5 -19
q39 -6 71.5 -21.5t56 -39t36.5 -55.5t13 -72q0 -50 -17.5 -88t-48 -63.5t-73 -38.5t-92.5 -13zM278 11q47 0 86 11.5t67 34.5t43.5 58t15.5 82q0 43 -16.5 76t-45 56t-67 35t-81.5 12t-82 -12t-68.5 -35.5t-47 -57t-17.5 -76.5q0 -47 16.5 -81.5t45.5 -57t67.5 -34
t83.5 -11.5zM281 393q36 0 68 10t56 29.5t38 49t14 69.5q0 33 -13.5 61.5t-37 48.5t-56.5 31.5t-72 11.5t-72 -11t-57 -31.5t-37.5 -49t-13.5 -63.5q0 -39 16.5 -68.5t42.5 -49t58.5 -29t65.5 -9.5z" />
    <glyph glyph-name="nine" unicode="9" horiz-adv-x="574" 
d="M271 -6q-37 0 -71 9.5t-61.5 28.5t-47 48t-27.5 69h19q15 -68 65.5 -103t122.5 -35q52 0 94.5 13t71.5 48t45 97.5t16 160.5v83q-12 -37 -36 -64t-54.5 -44.5t-65 -26t-67.5 -8.5q-57 0 -100.5 16.5t-72 46.5t-43 71t-14.5 90q0 51 17 93t47.5 71.5t73 46t94.5 16.5
q64 0 109.5 -22t74.5 -58.5t42.5 -85t13.5 -101.5v-125q0 -101 -17 -166t-49 -102.5t-77.5 -52t-102.5 -14.5zM275 287q42 0 81 13t70 37.5t49.5 60t18.5 81.5q0 39 -11.5 79.5t-37.5 72.5t-67.5 52.5t-100.5 20.5q-49 0 -88.5 -15.5t-67 -43.5t-42.5 -66.5t-15 -84.5
q0 -45 13 -83t39 -65.5t65.5 -43t93.5 -15.5z" />
    <glyph glyph-name="colon" unicode=":" horiz-adv-x="172" 
d="M86 -5q-8 0 -12.5 5t-4.5 12t4.5 12t12.5 5t12.5 -5t4.5 -12t-4.5 -12t-12.5 -5zM86 352q-8 0 -12.5 5t-4.5 12t4.5 12t12.5 5t12.5 -5t4.5 -12t-4.5 -12t-12.5 -5z" />
    <glyph glyph-name="semicolon" unicode=";" horiz-adv-x="172" 
d="M26 -103l55 140l19 -7l-59 -139zM86 352q-8 0 -12.5 5t-4.5 12t4.5 12t12.5 5t12.5 -5t4.5 -12t-4.5 -12t-12.5 -5z" />
    <glyph glyph-name="less" unicode="&#x3c;" horiz-adv-x="487" 
d="M48 319v6l384 204v-19l-356 -188l356 -188v-19z" />
    <glyph glyph-name="equal" unicode="=" horiz-adv-x="484" 
d="M40 249h404v-16h-404v16zM40 401h404v-16h-404v16z" />
    <glyph glyph-name="greater" unicode="&#x3e;" horiz-adv-x="487" 
d="M55 134l356 188l-356 188v19l384 -204v-6l-384 -204v19z" />
    <glyph glyph-name="question" unicode="?" horiz-adv-x="462" 
d="M198 218q0 29 6.5 52t19 43t30.5 39.5t41 42.5l39 39t31.5 38t21.5 43t8 53q0 60 -39 98t-119 38q-76 0 -125 -45.5t-55 -126.5h-19q3 44 18.5 79t42 59.5t62 37.5t77.5 13q85 0 130.5 -42.5t45.5 -110.5q0 -33 -8.5 -57.5t-22.5 -45t-34 -40t-42 -42.5t-39 -41
t-28.5 -37t-17.5 -40t-6 -48v-65h-18v66zM207 -5q-8 0 -12.5 5t-4.5 12t4.5 12t12.5 5t12.5 -5t4.5 -12t-4.5 -12t-12.5 -5z" />
    <glyph glyph-name="at" unicode="@" horiz-adv-x="902" 
d="M462 -147q-101 0 -178.5 34t-130 91t-79.5 131t-27 155q0 91 35 168.5t94 134.5t135.5 89t159.5 32q90 0 161.5 -28t122 -77.5t77.5 -116.5t27 -144q0 -67 -14 -114t-37 -77t-52 -43.5t-59 -13.5q-50 0 -80 30t-32 88q-7 -19 -21 -41t-34 -41t-47 -31.5t-59 -12.5
q-34 0 -62.5 12t-49.5 34.5t-32.5 54.5t-11.5 73q0 50 16 92.5t42.5 73.5t61 48.5t71.5 17.5q28 0 52 -9.5t42.5 -26t30.5 -38.5t16 -48l12 113h18l-26 -226q-8 -64 13 -106t80 -42q30 0 56.5 14t46 42.5t30.5 72t11 103.5q0 75 -25 139t-72.5 111.5t-116.5 74t-156 26.5
q-81 0 -154.5 -31t-129.5 -85.5t-89 -129.5t-33 -162q0 -77 25.5 -148.5t75.5 -126t124 -87.5t172 -33q59 0 108.5 11t88.5 29t68.5 41.5t48.5 49.5h18q-18 -28 -48.5 -54.5t-72.5 -47t-95 -33t-116 -12.5zM424 82q36 0 66.5 18t53 47.5t35.5 67.5t13 78q0 75 -36.5 119
t-96.5 44q-33 0 -64.5 -16t-55.5 -44.5t-38.5 -68.5t-14.5 -87q0 -74 37.5 -116t100.5 -42z" />
    <glyph glyph-name="A" unicode="A" horiz-adv-x="630" 
d="M300 715h26l274 -715h-19l-90 235h-354l-89 -235h-18zM143 252h341l-171 448z" />
    <glyph glyph-name="B" unicode="B" horiz-adv-x="582" 
d="M95 715h188q45 0 82 -11t63.5 -33.5t41 -55.5t14.5 -77v-4q0 -71 -39.5 -109.5t-98.5 -49.5q84 -11 129.5 -55.5t45.5 -122.5v-4q0 -95 -56 -144t-152 -49h-218v715zM313 17q92 0 140.5 45.5t48.5 130.5v4q0 83 -56 125.5t-160 42.5h-172v-348h199zM286 382
q85 0 132 40.5t47 111.5v4q0 80 -48.5 120t-133.5 40h-169v-316h172z" />
    <glyph glyph-name="C" unicode="C" horiz-adv-x="720" 
d="M380 -6q-75 0 -136 26.5t-104 74t-66.5 113.5t-23.5 145v8q0 79 26 145t71 114t104.5 74.5t127.5 26.5q54 0 101.5 -14t85 -40.5t63 -66t36.5 -90.5h-19q-21 92 -90 143t-177 51q-66 0 -122.5 -25.5t-98 -71t-65.5 -108t-24 -137.5v-8q0 -77 22 -140t62.5 -108t98 -70
t128.5 -25q54 0 100 14.5t82 41.5t60 66t35 88h18q-11 -53 -37.5 -95t-65 -71.5t-88 -45t-104.5 -15.5z" />
    <glyph glyph-name="D" unicode="D" horiz-adv-x="675" 
d="M272 17q85 0 147.5 26t104 72t62 107.5t20.5 133.5v8q0 70 -20.5 131t-62 106t-104.5 71t-148 26h-157v-681h158zM95 715h181q85 0 150 -27t109 -74t67 -111t23 -139v-8q0 -74 -21.5 -139t-65 -113t-109.5 -76t-155 -28h-179v715z" />
    <glyph glyph-name="E" unicode="E" horiz-adv-x="566" 
d="M95 715h403v-17h-384v-320h313v-17h-313v-344h402v-17h-421v715z" />
    <glyph glyph-name="F" unicode="F" horiz-adv-x="534" 
d="M95 715h393v-17h-374v-320h297v-17h-297v-361h-19v715z" />
    <glyph glyph-name="G" unicode="G" horiz-adv-x="744" 
d="M390 -6q-79 0 -142 26.5t-107 74t-67.5 113.5t-23.5 145v8q0 79 26.5 145t72 114t106.5 74.5t130 26.5q49 0 95 -12t83.5 -36t64.5 -60.5t39 -86.5h-19q-12 46 -36.5 79.5t-59 55.5t-77 32.5t-90.5 10.5q-68 0 -125.5 -25.5t-100 -71t-66.5 -108t-24 -137.5v-8
q0 -77 21.5 -140t63 -108t101 -70t135.5 -25q137 0 211 76t74 221v9h-233v17h252v-26q0 -77 -21.5 -135.5t-61 -98t-96 -60t-125.5 -20.5z" />
    <glyph glyph-name="H" unicode="H" horiz-adv-x="702" 
d="M95 715h19v-344h474v344h19v-715h-19v354h-474v-354h-19v715z" />
    <glyph glyph-name="I" unicode="I" horiz-adv-x="219" 
d="M100 715h19v-715h-19v715z" />
    <glyph glyph-name="J" unicode="J" horiz-adv-x="378" 
d="M136 -4q-35 0 -61 7t-40 14v18q18 -8 43.5 -15t57.5 -7q67 0 105.5 34.5t38.5 117.5v550h19v-550q0 -89 -44.5 -129t-118.5 -40z" />
    <glyph glyph-name="K" unicode="K" horiz-adv-x="579" 
d="M124 365l380 350h24l-379 -349l397 -366h-25zM95 715h19v-715h-19v715z" />
    <glyph glyph-name="L" unicode="L" horiz-adv-x="525" 
d="M95 715h19v-698h371v-17h-390v715z" />
    <glyph glyph-name="M" unicode="M" horiz-adv-x="846" 
d="M95 715h31l289 -680l298 680h30v-715h-19v695l-305 -695h-9l-296 695v-695h-19v715z" />
    <glyph glyph-name="N" unicode="N" horiz-adv-x="701" 
d="M95 715h31l461 -693v693h19v-715h-26l-466 700v-700h-19v715z" />
    <glyph glyph-name="O" unicode="O" horiz-adv-x="790" 
d="M397 11q69 0 128 26.5t102.5 73t68.5 109.5t25 136v8q0 72 -25 134t-68.5 107.5t-103 72t-129.5 26.5t-130 -26.5t-103.5 -72.5t-68 -109t-24.5 -135v-8q0 -72 25 -134t68.5 -108.5t103.5 -73t131 -26.5zM397 -6q-74 0 -137 28t-110 76.5t-73.5 114t-26.5 140.5v8
q0 76 27 142t73.5 114.5t109.5 76t135 27.5t135 -27.5t109.5 -75.5t73.5 -113.5t27 -140.5v-8q0 -76 -27 -142t-73.5 -115t-109 -77t-133.5 -28z" />
    <glyph glyph-name="P" unicode="P" horiz-adv-x="552" 
d="M95 715h172q53 0 96.5 -10t74.5 -33t48 -59.5t17 -88.5v-4q0 -53 -16.5 -90.5t-47 -61t-73.5 -34.5t-96 -11h-157v-323h-18v715zM270 340q49 0 88.5 9.5t67.5 31t43 55.5t15 84v4q0 49 -16 82.5t-44.5 54t-68.5 29t-88 8.5h-154v-358h157z" />
    <glyph glyph-name="Q" unicode="Q" horiz-adv-x="790" 
d="M601 63q-43 -33 -95 -51t-109 -18q-74 0 -137 28t-110 76.5t-73.5 114t-26.5 140.5v8q0 76 27 142t73.5 114.5t109.5 76t135 27.5t135 -27.5t109.5 -75.5t73.5 -113.5t27 -140.5v-8q0 -87 -34 -159.5t-92 -122.5l86 -88l-12 -12zM397 11q55 0 103.5 16.5t88.5 47.5
l-123 128l12 12l124 -129q55 48 87 117t32 153v8q0 72 -25 134t-68.5 107.5t-103 72t-129.5 26.5t-130 -26.5t-103.5 -72.5t-68 -109t-24.5 -135v-8q0 -72 25 -134t68.5 -108.5t103.5 -73t131 -26.5z" />
    <glyph glyph-name="R" unicode="R" horiz-adv-x="581" 
d="M95 715h172q53 0 96.5 -10t74.5 -32t48 -57t17 -84v-4q0 -45 -14 -78t-39.5 -55t-61.5 -34t-80 -16l237 -345h-22l-236 343h-174v-343h-18v715zM267 360q49 0 89 9t68.5 28.5t44 51.5t15.5 79v4q0 46 -16 78t-44.5 51.5t-68.5 28t-88 8.5h-154v-338h154z" />
    <glyph glyph-name="S" unicode="S" horiz-adv-x="572" 
d="M292 -6q-60 0 -105.5 15t-77 41.5t-49.5 62t-24 77.5h19q6 -36 22 -68.5t44.5 -57t70.5 -39t100 -14.5q51 0 90.5 13.5t66.5 37t40.5 55.5t13.5 69q0 45 -12 75.5t-37.5 51t-66.5 32.5t-98 20q-61 9 -103.5 24t-68.5 37t-38 51.5t-12 65.5q0 42 15.5 75t44.5 56t69 35
t90 12q92 0 144.5 -42.5t66.5 -116.5h-19q-13 66 -59 104t-133 38q-93 0 -146.5 -40t-53.5 -121q0 -33 11 -59.5t35 -46t63.5 -33t96.5 -21.5q61 -9 104.5 -22t71.5 -35.5t41 -56t13 -83.5q0 -39 -15 -74t-44.5 -61.5t-72.5 -41.5t-98 -15z" />
    <glyph glyph-name="T" unicode="T" horiz-adv-x="557" 
d="M269 698h-238v17h495v-17h-238v-698h-19v698z" />
    <glyph glyph-name="U" unicode="U" horiz-adv-x="666" 
d="M334 -4q-117 0 -186 64.5t-69 189.5v465h19v-464q0 -118 62 -178t174 -60q123 0 178.5 64.5t55.5 186.5v451h19v-454q0 -125 -62 -195t-191 -70z" />
    <glyph glyph-name="V" unicode="V" horiz-adv-x="616" 
d="M28 715h19l269 -694l254 694h18l-261 -715h-22z" />
    <glyph glyph-name="W" unicode="W" horiz-adv-x="910" 
d="M31 715h19l186 -692l213 692h13l198 -694l202 694h17l-208 -715h-24l-192 676l-208 -676h-23z" />
    <glyph glyph-name="X" unicode="X" horiz-adv-x="632" 
d="M306 374l-233 341h21l225 -329l224 329h21l-234 -343l255 -372h-21l-247 360l-249 -360h-21z" />
    <glyph glyph-name="Y" unicode="Y" horiz-adv-x="554" 
d="M275 325l-253 390h21l242 -372l227 372h20l-238 -390v-325h-19v325z" />
    <glyph glyph-name="Z" unicode="Z" horiz-adv-x="577" 
d="M26 7l487 691h-451v17h480v-7l-487 -691h481v-17h-510v7z" />
    <glyph glyph-name="bracketleft" unicode="[" horiz-adv-x="322" 
d="M99 776h184v-16h-166v-892h166v-16h-184v924z" />
    <glyph glyph-name="backslash" unicode="\" horiz-adv-x="376" 
d="M45 776h19l291 -924h-19z" />
    <glyph glyph-name="bracketright" unicode="]" horiz-adv-x="322" 
d="M39 -132h166v892h-166v16h184v-924h-184v16z" />
    <glyph glyph-name="asciicircum" unicode="^" horiz-adv-x="445" 
d="M215 715h15l167 -277h-20l-154 257l-155 -257h-20z" />
    <glyph glyph-name="underscore" unicode="_" horiz-adv-x="384" 
d="M-1 -125h386v-17h-386v17z" />
    <glyph glyph-name="grave" unicode="`" horiz-adv-x="400" 
d="M114 743h20l75 -147h-17z" />
    <glyph glyph-name="a" unicode="a" horiz-adv-x="515" 
d="M228 -7q-84 0 -132.5 37.5t-48.5 106.5q0 45 18 75t49 48t72 25t87 7h149v55q0 87 -38 127t-119 40q-66 0 -115 -31t-62 -100h-17q5 37 22.5 64.5t43.5 46t59 27.5t69 9q91 0 133 -47.5t42 -135.5v-347h-18v96q-10 -20 -27.5 -38.5t-42 -33t-56 -23t-68.5 -8.5zM228 9
q39 0 74 12t62 31.5t42.5 45.5t15.5 54v124h-149q-43 0 -80.5 -5.5t-66 -21t-45 -42.5t-16.5 -70q0 -63 43 -95.5t120 -32.5z" />
    <glyph glyph-name="b" unicode="b" horiz-adv-x="594" 
d="M322 -7q-47 0 -84 14.5t-65 38t-46.5 53t-28.5 59.5v-158h-18v773h18v-413q11 33 31.5 64t49.5 54.5t65 37.5t78 14q47 0 89 -18.5t73.5 -53t50 -83.5t18.5 -110v-8q0 -63 -18.5 -112.5t-50 -83t-73.5 -51t-89 -17.5zM322 9q45 0 83.5 17t67.5 48.5t45.5 77.5t16.5 105v8
q0 59 -17.5 105.5t-46.5 78.5t-67.5 48.5t-81.5 16.5q-41 0 -81 -17t-71.5 -49t-51.5 -78.5t-20 -104.5v-8q0 -58 18.5 -104t49.5 -78t71.5 -49t84.5 -17z" />
    <glyph glyph-name="c" unicode="c" horiz-adv-x="539" 
d="M283 -7q-50 0 -94 19t-77 54t-52 83.5t-19 107.5v8q0 60 19.5 108.5t52.5 83.5t77.5 54t94.5 19q39 0 74.5 -11.5t64 -33t47 -52t23.5 -67.5h-18q-5 35 -22 62.5t-43 46.5t-58.5 29t-67.5 10q-47 0 -88 -17.5t-71.5 -49.5t-48.5 -78t-18 -104v-8q0 -57 18 -102.5
t48.5 -78t71 -50t86.5 -17.5q77 0 132 42.5t69 121.5h17q-7 -42 -26 -75t-48 -56.5t-65.5 -36t-78.5 -12.5z" />
    <glyph glyph-name="d" unicode="d" horiz-adv-x="594" 
d="M275 -7q-48 0 -91 17.5t-74.5 51t-50 83t-18.5 112.5v8q0 61 19 110t52 83.5t77 53t94 18.5q45 0 80 -14t61 -36.5t43.5 -51t28.5 -58.5v403h18v-773h-18v157q-9 -29 -27 -58t-46 -52.5t-65 -38.5t-83 -15zM275 9q44 0 84 17t70.5 49t48.5 78t18 104v8q0 58 -16.5 104.5
t-45.5 78.5t-67.5 49t-83.5 17t-85.5 -16.5t-71.5 -48.5t-49 -78.5t-18 -105.5v-8q0 -59 16.5 -105t45.5 -77.5t68.5 -48.5t85.5 -17z" />
    <glyph glyph-name="e" unicode="e" horiz-adv-x="537" 
d="M282 -7q-58 0 -103 19.5t-75.5 55t-46.5 84t-16 105.5v8q0 58 17.5 107t49 84t74 54.5t93.5 19.5q49 0 90 -17t70 -49t45 -78t16 -105v-11h-437q0 -123 57 -192t166 -69q70 0 121.5 33t70.5 99h18q-20 -71 -75.5 -109.5t-134.5 -38.5zM478 286q-2 112 -57 170t-146 58
q-45 0 -83.5 -16t-67 -46t-46 -72t-19.5 -94h419z" />
    <glyph glyph-name="f" unicode="f" horiz-adv-x="317" 
d="M109 507h-85v16h85v104q0 42 12 71t31.5 46t44.5 24.5t51 7.5q17 0 28 -1.5t24 -5.5v-17q-11 4 -23.5 6t-28.5 2q-23 0 -45 -6t-39 -21.5t-27 -41t-10 -64.5v-104h166v-16h-166v-507h-18v507z" />
    <glyph glyph-name="g" unicode="g" horiz-adv-x="594" 
d="M283 -185q-56 0 -97 13t-69.5 34.5t-44.5 49.5t-20 58h18q6 -29 21 -54t40.5 -44t63 -30t87.5 -11q45 0 84.5 11t68 35t45 62.5t16.5 94.5v142q-9 -29 -27.5 -57t-46.5 -51t-64.5 -37t-82.5 -14q-48 0 -91 16.5t-74.5 48.5t-50 79t-18.5 108v8q0 58 19 105t52 80t77 50.5
t94 17.5q45 0 80 -13t61 -34t43.5 -49t28.5 -58v147h18v-489q0 -59 -17.5 -100.5t-48.5 -67.5t-73.5 -38.5t-91.5 -12.5zM275 33q44 0 84 16t70.5 46.5t48.5 74t18 99.5v8q0 56 -16.5 100t-45.5 74.5t-67.5 46.5t-83.5 16t-85.5 -15.5t-71.5 -46t-49 -74.5t-18 -101v-8
q0 -56 16.5 -100t45.5 -74t68.5 -46t85.5 -16z" />
    <glyph glyph-name="h" unicode="h" horiz-adv-x="565" 
d="M80 773h18v-375q9 25 28 49t45.5 42.5t59.5 29.5t71 11q43 0 77.5 -12t59 -37t38 -64.5t13.5 -93.5v-323h-18v323q0 100 -46 145.5t-124 45.5q-37 0 -73.5 -13t-65.5 -37.5t-47 -61.5t-18 -85v-317h-18v773z" />
    <glyph glyph-name="i" unicode="i" horiz-adv-x="182" 
d="M82 523h18v-523h-18v523zM74 656q0 7 4.5 12t12.5 5t12.5 -5t4.5 -12t-4.5 -12t-12.5 -5t-12.5 5t-4.5 12z" />
    <glyph glyph-name="j" unicode="j" horiz-adv-x="182" 
d="M5 -168q44 4 60.5 27.5t16.5 74.5v589h18v-589q0 -60 -21 -88t-74 -30v16zM91 639q-8 0 -12.5 5t-4.5 12t4.5 12t12.5 5t12.5 -5t4.5 -12t-4.5 -12t-12.5 -5z" />
    <glyph glyph-name="k" unicode="k" horiz-adv-x="452" 
d="M103 277l293 246h24l-292 -246l307 -277h-25zM80 773h18v-773h-18v773z" />
    <glyph glyph-name="l" unicode="l" horiz-adv-x="182" 
d="M82 773h18v-773h-18v773z" />
    <glyph glyph-name="m" unicode="m" horiz-adv-x="897" 
d="M80 523h18v-122q9 25 26 48.5t41 41.5t55 28.5t67 10.5q69 0 112 -32t56 -107q10 30 28.5 55.5t43.5 44t55.5 29t66.5 10.5q41 0 73 -11t54.5 -35t34 -62t11.5 -92v-330h-18v330q0 100 -40 142t-115 42q-35 0 -69 -13t-60.5 -37.5t-43 -61.5t-16.5 -85v-317h-18v330
q0 100 -40 142t-115 42q-35 0 -69 -13t-60.5 -37.5t-43 -61.5t-16.5 -85v-317h-18v523z" />
    <glyph glyph-name="n" unicode="n" horiz-adv-x="565" 
d="M80 523h18v-125q9 25 28 49t45.5 42.5t59.5 29.5t71 11q43 0 77.5 -12t59 -37t38 -64.5t13.5 -93.5v-323h-18v323q0 100 -46 145.5t-124 45.5q-37 0 -73.5 -13t-65.5 -37.5t-47 -61.5t-18 -85v-317h-18v523z" />
    <glyph glyph-name="o" unicode="o" horiz-adv-x="576" 
d="M288 9q45 0 86.5 17t73 49.5t50.5 78.5t19 104v8q0 59 -18.5 105t-50 77.5t-72.5 48t-86 16.5t-87 -17t-74 -49t-51 -78t-19 -104v-8q0 -57 18.5 -102.5t50 -78t73 -50t87.5 -17.5zM287 -7q-50 0 -94.5 19.5t-78.5 54.5t-53.5 83.5t-19.5 106.5v8q0 59 20.5 107.5
t54.5 83.5t79 54t95 19q49 0 93.5 -18.5t78.5 -52.5t53.5 -83t19.5 -109v-8q0 -59 -20 -108t-54 -84t-79 -54t-95 -19z" />
    <glyph glyph-name="p" unicode="p" horiz-adv-x="594" 
d="M80 523h18v-163q11 33 31.5 64t49.5 54.5t65 37.5t78 14q47 0 89 -18.5t73.5 -53t50 -83.5t18.5 -110v-8q0 -63 -18.5 -112.5t-50 -83t-73.5 -51t-89 -17.5t-84 14.5t-65 38t-46.5 53t-28.5 59.5v-340h-18v705zM322 9q45 0 83.5 17t67.5 48.5t45.5 77.5t16.5 105v8
q0 59 -17.5 105.5t-46.5 78.5t-67.5 48.5t-81.5 16.5q-41 0 -81 -17t-71.5 -49t-51.5 -78.5t-20 -104.5v-8q0 -58 18.5 -104t49.5 -78t71.5 -49t84.5 -17z" />
    <glyph glyph-name="q" unicode="q" horiz-adv-x="594" 
d="M496 157q-9 -29 -27 -58t-46 -52.5t-65 -38.5t-83 -15q-48 0 -91 17.5t-74.5 51t-50 83t-18.5 112.5v8q0 61 19 110t52 83.5t77 53t94 18.5q45 0 80 -14t61 -36.5t43.5 -51t28.5 -58.5v153h18v-705h-18v339zM275 9q44 0 84 17t70.5 49t48.5 78t18 104v8q0 58 -16.5 104.5
t-45.5 78.5t-67.5 49t-83.5 17t-85.5 -16.5t-71.5 -48.5t-49 -78.5t-18 -105.5v-8q0 -59 16.5 -105t45.5 -77.5t68.5 -48.5t85.5 -17z" />
    <glyph glyph-name="r" unicode="r" horiz-adv-x="316" 
d="M80 523h18v-129q9 26 24.5 49.5t38.5 41.5t53 29.5t67 12.5v-16q-36 -1 -69 -14t-58.5 -39.5t-40.5 -67t-15 -97.5v-293h-18v523z" />
    <glyph glyph-name="s" unicode="s" horiz-adv-x="448" 
d="M231 -9q-90 0 -140 45.5t-57 114.5h17q4 -31 17 -57t35.5 -45.5t54 -30.5t73.5 -11q37 0 66 10t49 27t30.5 40.5t10.5 49.5q0 31 -7.5 51.5t-25.5 35t-47.5 23.5t-73.5 17q-45 8 -78.5 18t-56 25.5t-33.5 38t-11 56.5q0 29 12.5 53t35 41t53.5 26.5t67 9.5
q71 0 116.5 -31t56.5 -100h-17q-11 60 -51 87.5t-106 27.5q-67 0 -108.5 -31t-41.5 -83q0 -29 9.5 -48.5t29.5 -33t51.5 -23t76.5 -17.5q44 -8 75.5 -18.5t52 -26.5t30.5 -40t10 -58q0 -29 -12 -55t-34.5 -45.5t-55 -31t-73.5 -11.5z" />
    <glyph glyph-name="t" unicode="t" horiz-adv-x="319" 
d="M214 -7q-51 0 -81.5 30.5t-30.5 96.5v387h-80v16h80v119h18v-119h154v-16h-154v-387q0 -59 26 -85t68 -26q21 0 37 3t30 8v-16q-13 -5 -28.5 -8t-38.5 -3z" />
    <glyph glyph-name="u" unicode="u" horiz-adv-x="561" 
d="M262 -7q-43 0 -77.5 11t-59 35t-37.5 62t-13 92v330h18v-330q0 -50 12 -85t34 -57t53 -32t70 -10q37 0 73 12.5t64.5 36.5t46 60.5t17.5 84.5v320h18v-523h-18v121q-9 -26 -27.5 -49t-44.5 -40.5t-58.5 -28t-70.5 -10.5z" />
    <glyph glyph-name="v" unicode="v" horiz-adv-x="499" 
d="M26 523h19l206 -507l204 507h18l-209 -523h-26z" />
    <glyph glyph-name="w" unicode="w" horiz-adv-x="755" 
d="M30 523h19l160 -502l162 502h14l160 -502l162 502h18l-168 -523h-24l-155 491l-158 -491h-24z" />
    <glyph glyph-name="x" unicode="x" horiz-adv-x="491" 
d="M232 272l-189 251h22l179 -239l175 239h21l-185 -251l205 -272h-22l-195 260l-191 -260h-21z" />
    <glyph glyph-name="y" unicode="y" horiz-adv-x="483" 
d="M235 35l-209 488h19l200 -467l193 467h19l-293 -705h-19z" />
    <glyph glyph-name="z" unicode="z" horiz-adv-x="463" 
d="M27 5l376 502h-346v16h376v-5l-376 -502h367v-16h-397v5z" />
    <glyph glyph-name="braceleft" unicode="{" horiz-adv-x="341" 
d="M302 -144q-47 0 -82 9t-56 31t-27.5 58t4.5 89l26 126q13 63 -15 100.5t-108 38.5v16q80 1 108 38.5t15 100.5l-26 126q-11 53 -4.5 89t27.5 57.5t56 31t82 9.5v-16q-41 0 -72.5 -7.5t-51 -26.5t-25.5 -51t5 -83l26 -126q14 -70 -12.5 -104.5t-76.5 -45.5
q50 -11 76.5 -45.5t12.5 -104.5l-26 -126q-11 -51 -5 -83.5t25.5 -51t51 -26t72.5 -7.5v-16v0z" />
    <glyph glyph-name="bar" unicode="|" horiz-adv-x="226" 
d="M104 776h18v-924h-18v924z" />
    <glyph glyph-name="braceright" unicode="}" horiz-adv-x="341" 
d="M39 -128q41 0 72.5 7.5t51 26t25 51t-4.5 83.5l-26 126q-14 70 12.5 104.5t76.5 45.5q-50 11 -76.5 45.5t-12.5 104.5l26 126q10 51 4.5 83t-25 51t-51 26.5t-72.5 7.5v16q46 0 81.5 -9.5t56.5 -31t27.5 -57.5t-4.5 -89l-26 -126q-13 -63 15 -100.5t108 -38.5v-16
q-80 -1 -108 -38.5t-15 -100.5l26 -126q11 -53 4.5 -89t-27.5 -58t-56.5 -31t-81.5 -9v16z" />
    <glyph glyph-name="asciitilde" unicode="~" horiz-adv-x="429" 
d="M49 242q5 37 26.5 63t58.5 26q23 0 43.5 -11t40 -24.5t38.5 -24.5t40 -11q29 0 45.5 22.5t20.5 50.5h18q-5 -37 -26.5 -63t-58.5 -26q-24 0 -44.5 11t-39.5 24.5t-38 24.5t-40 11q-29 0 -45.5 -22.5t-20.5 -50.5h-18v0z" />
    <glyph glyph-name="exclamdown" unicode="&#xa1;" horiz-adv-x="254" 
d="M118 446h16l2 -563h-20zM127 569q-8 0 -12.5 5t-4.5 12t4.5 12t12.5 5t12.5 -5t4.5 -12t-4.5 -12t-12.5 -5z" />
    <glyph glyph-name="cent" unicode="&#xa2;" horiz-adv-x="539" 
d="M274 -7q-49 2 -91.5 20.5t-74 52.5t-49.5 82t-18 109v8q0 61 18.5 109t50 82t74 53t90.5 21v99h18v-99q38 -1 72.5 -13t61.5 -33.5t45 -51t23 -66.5h-18q-5 34 -21.5 61t-41 46t-56 29.5t-65.5 11.5v-505q73 2 125.5 44.5t66.5 119.5h17q-14 -81 -71 -129t-138 -51v-128
h-18v128zM59 257q0 -58 17 -103.5t46 -77t68.5 -49t83.5 -18.5v505q-45 -2 -84 -19t-68 -48.5t-46 -77t-17 -104.5v-8z" />
    <glyph glyph-name="sterling" unicode="&#xa3;" horiz-adv-x="581" 
d="M51 358h78q-11 38 -21 76.5t-10 86.5q0 46 15.5 83t43 63t66.5 40t86 14q97 0 147.5 -48.5t58.5 -127.5h-18q-11 76 -55.5 117.5t-132.5 41.5q-43 0 -78 -13.5t-60.5 -38t-39.5 -58t-14 -73.5q0 -48 10 -86.5t22 -76.5h247v-16h-242q10 -32 17 -66.5t7 -76.5
q0 -31 -7.5 -57.5t-18.5 -46.5h7q31 0 62.5 -13t63.5 -29t64.5 -29t66.5 -13q54 0 84 33.5t34 92.5h19q-5 -68 -42.5 -105.5t-94.5 -37.5q-36 0 -69.5 13t-65 29t-62 29t-60.5 13q-39 0 -63.5 -21.5t-29.5 -56.5h-20q5 32 26 58t58 34q13 21 21 48.5t8 58.5q0 42 -7.5 76
t-17.5 67h-83v16z" />
    <glyph glyph-name="yen" unicode="&#xa5;" horiz-adv-x="516" 
d="M59 349h191l-222 366h21l217 -358l202 358h20l-207 -366h187v-16h-193v-120h193v-16h-193v-197h-19v197h-197v16h197v120h-197v16z" />
    <glyph glyph-name="brokenbar" unicode="&#xa6;" horiz-adv-x="226" 
d="M104 297h18v-445h-18v445zM104 776h18v-409h-18v409z" />
    <glyph glyph-name="section" unicode="&#xa7;" horiz-adv-x="530" 
d="M266 -137q-36 0 -68 9.5t-56 27.5t-39 44t-18 60h19q5 -59 49.5 -91.5t112.5 -32.5q71 0 106.5 35t35.5 93q0 34 -9.5 57t-30 39.5t-52.5 29t-77 24.5q-42 11 -76.5 24t-59.5 31t-38.5 42.5t-13.5 60.5q0 28 12 51.5t32 41t46.5 29.5t55.5 17q-19 10 -34.5 22t-26 27
t-16 34.5t-5.5 45.5q0 32 12.5 58t34.5 44t51 28t62 10q69 0 108 -35t45 -98h-18q-6 57 -38 86.5t-97 29.5q-28 0 -53.5 -7.5t-45 -23t-31 -38.5t-11.5 -54q0 -30 9 -52t28.5 -39t50 -30.5t74.5 -26.5q42 -13 75.5 -27t57.5 -32t37 -42t13 -57q0 -30 -10 -53t-28 -40
t-43 -28t-55 -17q43 -20 63.5 -51.5t20.5 -80.5q0 -66 -42 -105.5t-119 -39.5zM324 151q63 12 99.5 41.5t36.5 85.5q0 29 -11 50t-32 36.5t-52.5 28.5t-71.5 26l-76 26q-30 -5 -57 -15.5t-47 -26.5t-31.5 -37.5t-11.5 -49.5q0 -32 12 -53.5t34.5 -37t54.5 -27t71 -23.5z" />
    <glyph glyph-name="dieresis" unicode="&#xa8;" horiz-adv-x="400" 
d="M129 639q-8 0 -12.5 5t-4.5 12t4.5 12t12.5 5t12.5 -5t4.5 -12t-4.5 -12t-12.5 -5zM271 639q-8 0 -12.5 5t-4.5 12t4.5 12t12.5 5t12.5 -5t4.5 -12t-4.5 -12t-12.5 -5z" />
    <glyph glyph-name="copyright" unicode="&#xa9;" horiz-adv-x="844" 
d="M425 146q-45 0 -81.5 15.5t-62.5 44t-40 68t-14 86.5v6q0 47 15.5 86t42.5 67.5t62.5 44.5t76.5 16q66 0 113 -32.5t59 -95.5h-18q-12 54 -51.5 83t-102.5 29q-38 0 -70.5 -14.5t-56.5 -41t-38 -63t-14 -79.5v-6q0 -45 13 -81.5t36.5 -62.5t56.5 -40t74 -14
q63 0 105 32.5t54 89.5h17q-12 -65 -60.5 -101.5t-115.5 -36.5zM421 6q74 0 138 27t111.5 74.5t74.5 112t27 139.5q0 73 -26.5 137t-73.5 111t-110.5 74.5t-138.5 27.5q-74 0 -138 -27.5t-111.5 -75t-74.5 -112t-27 -137.5q0 -75 27 -139t74.5 -111t111 -74t136.5 -27z
M421 -9q-76 0 -143 28t-116.5 77.5t-78 116t-28.5 144.5q0 76 28.5 143t78 117t117 78.5t144.5 28.5q78 0 145 -28.5t116 -78t77 -116t28 -142.5q0 -78 -28.5 -145.5t-78 -117t-117 -77.5t-144.5 -28z" />
    <glyph glyph-name="ordfeminine" unicode="&#xaa;" horiz-adv-x="417" 
d="M182 316q-62 0 -99 28.5t-37 80.5q0 34 13.5 57t37 36t55 18.5t67.5 5.5h107v41q0 63 -27.5 92.5t-87.5 29.5q-49 0 -84 -22t-45 -73h-18q8 56 50.5 83.5t97.5 27.5q67 0 99.5 -35.5t32.5 -102.5v-262h-18v71q-16 -29 -52 -52.5t-92 -23.5zM183 332q29 0 55 8.5t45.5 23
t31 34t11.5 40.5v88h-107q-32 0 -60.5 -4t-49.5 -15t-33 -31t-12 -51q0 -46 31 -69.5t88 -23.5z" />
    <glyph glyph-name="guillemotleft" unicode="&#xab;" horiz-adv-x="387" 
d="M49 261l140 178h21l-140 -178l140 -178h-21zM183 261l140 178h21l-140 -178l140 -178h-21z" />
    <glyph glyph-name="registered" unicode="&#xae;" horiz-adv-x="514" 
d="M185 630h72q37 0 60 -17t23 -50v-1q0 -29 -18 -44t-47 -19l78 -112h-22l-78 111h-49v-111h-19v243zM258 514q62 0 62 48v1q0 26 -15.5 37.5t-46.5 11.5h-54v-98h54zM257 297q43 0 80.5 15.5t65 43.5t43.5 65.5t16 81.5q0 43 -15.5 80.5t-43 65.5t-65 44t-81.5 16
q-43 0 -80.5 -16t-65 -44t-43.5 -66t-16 -81q0 -44 16 -81.5t43.5 -65t65 -43t80.5 -15.5zM257 282q-46 0 -86.5 17t-70.5 46.5t-47.5 69.5t-17.5 87q0 46 17 86.5t47 70.5t70.5 47.5t87.5 17.5t87.5 -17t70.5 -47t47 -70.5t17 -86.5q0 -47 -17.5 -87.5t-47.5 -70
t-70.5 -46.5t-86.5 -17z" />
    <glyph glyph-name="macron" unicode="&#xaf;" horiz-adv-x="400" 
d="M90 663h219v-17h-219v17z" />
    <glyph glyph-name="degree" unicode="&#xb0;" horiz-adv-x="384" 
d="M192 468q26 0 48 9.5t38.5 25.5t26 38t9.5 46q0 25 -9.5 47t-26 38.5t-38.5 26t-48 9.5t-48 -9.5t-38.5 -26t-26 -38.5t-9.5 -47q0 -24 9.5 -46t26 -38t38.5 -25.5t48 -9.5zM192 452q-29 0 -54.5 10.5t-44.5 29t-30 43t-11 52.5t11 53t30 43.5t44.5 29.5t54.5 11
t54.5 -11t44.5 -29.5t30 -43.5t11 -53t-11 -52.5t-30 -43t-44.5 -29t-54.5 -10.5z" />
    <glyph glyph-name="plusminus" unicode="&#xb1;" horiz-adv-x="500" 
d="M241 334h-204v16h204v219h18v-219h204v-16h-204v-219h-18v219zM37 16h426v-16h-426v16z" />
    <glyph glyph-name="twosuperior" unicode="&#xb2;" horiz-adv-x="288" 
d="M24 377l131 126q39 38 56 64t17 57q0 38 -24 58.5t-61 20.5q-43 0 -66 -25t-28 -67h-17q4 51 33.5 79t77.5 28q47 0 75 -26t28 -68q0 -18 -4.5 -33.5t-14 -30.5t-24.5 -31.5t-36 -36.5l-111 -106h194v-16h-226v7z" />
    <glyph glyph-name="threesuperior" unicode="&#xb3;" horiz-adv-x="305" 
d="M154 367q-57 0 -90 29.5t-36 68.5h18q4 -32 31 -57t77 -25q45 0 70 21.5t25 60.5q0 33 -23 55.5t-65 22.5h-27v16h25q39 0 58.5 21t19.5 50q0 33 -23.5 53t-61.5 20q-45 0 -67.5 -23.5t-26.5 -55.5h-17q3 38 31.5 66t79.5 28q46 0 74.5 -25t28.5 -63q0 -31 -17 -51
t-44 -27q30 -6 51.5 -28.5t21.5 -58.5q0 -47 -31 -72.5t-82 -25.5z" />
    <glyph glyph-name="acute" unicode="&#xb4;" horiz-adv-x="400" 
d="M266 743h20l-78 -147h-17z" />
    <glyph glyph-name="paragraph" unicode="&#xb6;" horiz-adv-x="526" 
d="M266 361h-14q-46 0 -84 10.5t-65.5 32.5t-43 54t-15.5 76q0 46 16 80t44 56.5t66 33.5t82 11h179v-815h-18v799h-129v-799h-18v461z" />
    <glyph glyph-name="periodcentered" unicode="&#xb7;" horiz-adv-x="166" 
d="M83 303q-8 0 -12.5 5t-4.5 12t4.5 12t12.5 5t12.5 -5t4.5 -12t-4.5 -12t-12.5 -5z" />
    <glyph glyph-name="cedilla" unicode="&#xb8;" horiz-adv-x="400" 
d="M212 -210q-36 0 -60.5 19t-29.5 53h19q3 -26 21.5 -41t49.5 -15q32 0 49.5 16.5t17.5 42.5q0 32 -19.5 43.5t-44.5 11.5q-17 0 -28.5 -4t-17.5 -8l-9 8l48 84h18l-41 -71q20 7 40 6.5t35.5 -8.5t25.5 -23.5t10 -38.5q0 -35 -24 -55t-60 -20z" />
    <glyph glyph-name="onesuperior" unicode="&#xb9;" horiz-adv-x="200" 
d="M113 690l-95 -68v19l103 74h10v-345h-18v320z" />
    <glyph glyph-name="ordmasculine" unicode="&#xba;" horiz-adv-x="454" 
d="M227 332q34 0 64.5 12.5t53.5 36.5t36.5 58t13.5 77v6q0 43 -13.5 77t-36.5 57.5t-53 35.5t-64 12q-33 0 -64 -12.5t-54 -36.5t-37 -58t-14 -76v-6q0 -42 13.5 -75.5t36.5 -57.5t53.5 -37t64.5 -13zM226 316q-38 0 -71.5 14.5t-59 40.5t-40 62.5t-14.5 81.5v6q0 46 15 83
t41 62.5t59.5 39.5t71.5 14t71.5 -13.5t59 -39t40 -62t14.5 -83.5v-6q0 -47 -15 -84t-40.5 -62.5t-59.5 -39.5t-72 -14z" />
    <glyph glyph-name="guillemotright" unicode="&#xbb;" horiz-adv-x="387" 
d="M183 261l-140 178h21l140 -178l-140 -178h-21zM317 261l-140 178h21l140 -178l-140 -178h-21z" />
    <glyph glyph-name="onequarter" unicode="&#xbc;" horiz-adv-x="641" 
d="M116 690l-95 -68v19l103 74h10v-345h-18v320zM569 715h20l-527 -715h-20zM542 81h-186v6l177 259h27v-249h48v-16h-48v-80h-18v80zM542 97v236l-160 -236h160z" />
    <glyph glyph-name="onehalf" unicode="&#xbd;" horiz-adv-x="651" 
d="M119 690l-95 -68v19l103 74h10v-345h-18v320zM549 715h20l-527 -715h-20zM384 8l131 126q39 38 56 64t17 57q0 38 -24 58.5t-61 20.5q-43 0 -66 -25t-28 -67h-17q4 51 33.5 79t77.5 28q47 0 75 -26t28 -68q0 -18 -4.5 -33.5t-14 -30.5t-24.5 -31.5t-36 -36.5l-111 -106
h194v-16h-226v7z" />
    <glyph glyph-name="threequarters" unicode="&#xbe;" horiz-adv-x="668" 
d="M157 367q-57 0 -90 29.5t-36 68.5h18q4 -32 31 -57t77 -25q45 0 70 21.5t25 60.5q0 33 -23 55.5t-65 22.5h-27v16h25q39 0 58.5 21t19.5 50q0 33 -23.5 53t-61.5 20q-45 0 -67.5 -23.5t-26.5 -55.5h-17q3 38 31.5 66t79.5 28q46 0 74.5 -25t28.5 -63q0 -31 -17 -51
t-44 -27q30 -6 51.5 -28.5t21.5 -58.5q0 -47 -31 -72.5t-82 -25.5zM615 715h20l-527 -715h-20zM562 81h-186v6l177 259h27v-249h48v-16h-48v-80h-18v80zM562 97v236l-160 -236h160z" />
    <glyph glyph-name="questiondown" unicode="&#xbf;" horiz-adv-x="462" 
d="M264 380q0 -29 -6.5 -52t-19 -43t-30.5 -39.5t-41 -42.5l-39 -39t-31.5 -38t-21.5 -43t-8 -53q0 -60 39 -98t119 -38q76 0 125 45.5t55 126.5h19q-3 -44 -18.5 -79t-42 -59.5t-62 -37.5t-77.5 -13q-85 0 -130.5 42.5t-45.5 110.5q0 33 8.5 57.5t22.5 45t33.5 40
l42.5 42.5q22 22 39 40.5t28.5 37.5t17.5 40t6 48v65h18v-66zM255 603q8 0 12.5 -5t4.5 -12t-4.5 -12t-12.5 -5t-12.5 5t-4.5 12t4.5 12t12.5 5z" />
    <glyph glyph-name="Agrave" unicode="&#xc0;" horiz-adv-x="630" 
d="M300 715h26l274 -715h-19l-90 235h-354l-89 -235h-18zM143 252h341l-171 448zM228 888h21l73 -117h-18z" />
    <glyph glyph-name="Aacute" unicode="&#xc1;" horiz-adv-x="630" 
d="M300 715h26l274 -715h-19l-90 235h-354l-89 -235h-18zM143 252h341l-171 448zM364 888h21l-76 -117h-18z" />
    <glyph glyph-name="Acircumflex" unicode="&#xc2;" horiz-adv-x="630" 
d="M300 715h26l274 -715h-19l-90 235h-354l-89 -235h-18zM143 252h341l-171 448zM298 888h20l111 -117h-20l-101 101l-103 -101h-20z" />
    <glyph glyph-name="Atilde" unicode="&#xc3;" horiz-adv-x="630" 
d="M300 715h26l274 -715h-19l-90 235h-354l-89 -235h-18zM143 252h341l-171 448zM378 773q-20 0 -38.5 10t-35.5 22.5t-33.5 22.5t-32.5 10q-21 0 -35.5 -15.5t-18.5 -47.5h-17q5 42 24.5 60.5t46.5 18.5q19 0 37 -10t35.5 -22.5t34 -22.5t33.5 -10q20 0 34.5 15.5
t18.5 47.5h17q-5 -42 -24.5 -60.5t-45.5 -18.5z" />
    <glyph glyph-name="Adieresis" unicode="&#xc4;" horiz-adv-x="630" 
d="M300 715h26l274 -715h-19l-90 235h-354l-89 -235h-18zM143 252h341l-171 448zM230 787q-8 0 -12.5 5t-4.5 12t4.5 12t12.5 5t12.5 -5t4.5 -12t-4.5 -12t-12.5 -5zM384 787q-8 0 -12.5 5t-4.5 12t4.5 12t12.5 5t12.5 -5t4.5 -12t-4.5 -12t-12.5 -5z" />
    <glyph glyph-name="Aring" unicode="&#xc5;" horiz-adv-x="630" 
d="M300 715h26l274 -715h-19l-90 235h-354l-89 -235h-18zM143 252h341l-171 448zM307 764q30 0 50.5 20.5t20.5 49.5q0 31 -20.5 51t-50.5 20q-29 0 -49.5 -20t-20.5 -51q0 -29 20.5 -49.5t49.5 -20.5zM307 749q-18 0 -33.5 7t-27.5 18.5t-19 27t-7 32.5q0 18 7 33.5t19 27
t27.5 18.5t33.5 7t34 -7t28 -18.5t19 -27t7 -33.5q0 -35 -25.5 -60t-62.5 -25z" />
    <glyph glyph-name="AE" unicode="&#xc6;" horiz-adv-x="941" 
d="M383 715h490v-17h-384v-320h313v-17h-313v-344h402v-17h-421v235h-304l-117 -235h-21zM174 252h296v446h-74z" />
    <glyph glyph-name="Ccedilla" unicode="&#xc7;" horiz-adv-x="720" 
d="M361 -210q-36 0 -60.5 19t-29.5 53h19q3 -26 21.5 -41t49.5 -15q32 0 49.5 16.5t17.5 42.5q0 32 -19.5 43.5t-44.5 11.5q-17 0 -28.5 -4t-17.5 -8l-9 8l45 79q-69 4 -125.5 32.5t-96 75.5t-61 110.5t-21.5 139.5v8q0 79 26 145t71 114t104.5 74.5t127.5 26.5
q54 0 101.5 -14t85 -40.5t63 -66t36.5 -90.5h-19q-21 92 -90 143t-177 51q-66 0 -122.5 -25.5t-98 -71t-65.5 -108t-24 -137.5v-8q0 -77 22 -140t62.5 -108t98 -70t128.5 -25q54 0 100 14.5t82 41.5t60 66t35 88h18q-11 -53 -37.5 -95t-65 -71.5t-88 -45t-104.5 -15.5
q-2 0 -4.5 0.5t-4.5 0.5l-37 -66q20 7 40 6.5t35.5 -8.5t25.5 -23.5t10 -38.5q0 -35 -24 -55t-60 -20z" />
    <glyph glyph-name="Egrave" unicode="&#xc8;" horiz-adv-x="566" 
d="M95 715h403v-17h-384v-320h313v-17h-313v-344h402v-17h-421v715zM213 888h21l73 -117h-18z" />
    <glyph glyph-name="Eacute" unicode="&#xc9;" horiz-adv-x="566" 
d="M95 715h403v-17h-384v-320h313v-17h-313v-344h402v-17h-421v715zM349 888h21l-76 -117h-18z" />
    <glyph glyph-name="Ecircumflex" unicode="&#xca;" horiz-adv-x="566" 
d="M95 715h403v-17h-384v-320h313v-17h-313v-344h402v-17h-421v715zM283 888h20l111 -117h-20l-101 101l-103 -101h-20z" />
    <glyph glyph-name="Edieresis" unicode="&#xcb;" horiz-adv-x="566" 
d="M95 715h403v-17h-384v-320h313v-17h-313v-344h402v-17h-421v715zM215 787q-8 0 -12.5 5t-4.5 12t4.5 12t12.5 5t12.5 -5t4.5 -12t-4.5 -12t-12.5 -5zM369 787q-8 0 -12.5 5t-4.5 12t4.5 12t12.5 5t12.5 -5t4.5 -12t-4.5 -12t-12.5 -5z" />
    <glyph glyph-name="Igrave" unicode="&#xcc;" horiz-adv-x="219" 
d="M100 715h19v-715h-19v715zM31 888h21l73 -117h-18z" />
    <glyph glyph-name="Iacute" unicode="&#xcd;" horiz-adv-x="219" 
d="M100 715h19v-715h-19v715zM167 888h21l-76 -117h-18z" />
    <glyph glyph-name="Icircumflex" unicode="&#xce;" horiz-adv-x="219" 
d="M100 715h19v-715h-19v715zM101 888h20l111 -117h-20l-101 101l-103 -101h-20z" />
    <glyph glyph-name="Idieresis" unicode="&#xcf;" horiz-adv-x="219" 
d="M100 715h19v-715h-19v715zM33 787q-8 0 -12.5 5t-4.5 12t4.5 12t12.5 5t12.5 -5t4.5 -12t-4.5 -12t-12.5 -5zM187 787q-8 0 -12.5 5t-4.5 12t4.5 12t12.5 5t12.5 -5t4.5 -12t-4.5 -12t-12.5 -5z" />
    <glyph glyph-name="Eth" unicode="&#xd0;" horiz-adv-x="675" 
d="M21 369h74v346h181q85 0 150 -27t109 -74t67 -111t23 -139v-8q0 -74 -21.5 -139t-65 -113t-109.5 -76t-155 -28h-179v352h-74v17zM272 17q85 0 147.5 26t104 72t62 107.5t20.5 133.5v8q0 70 -20.5 131t-62 106t-104.5 71t-148 26h-157v-329h210v-17h-210v-335h158z" />
    <glyph glyph-name="Ntilde" unicode="&#xd1;" horiz-adv-x="701" 
d="M95 715h31l461 -693v693h19v-715h-26l-466 700v-700h-19v715zM433 773q-20 0 -38.5 10t-35.5 22.5t-33.5 22.5t-32.5 10q-21 0 -35.5 -15.5t-18.5 -47.5h-17q5 42 24.5 60.5t46.5 18.5q19 0 37 -10t35.5 -22.5t34 -22.5t33.5 -10q20 0 34.5 15.5t18.5 47.5h17
q-5 -42 -24.5 -60.5t-45.5 -18.5z" />
    <glyph glyph-name="Ograve" unicode="&#xd2;" horiz-adv-x="790" 
d="M397 11q69 0 128 26.5t102.5 73t68.5 109.5t25 136v8q0 72 -25 134t-68.5 107.5t-103 72t-129.5 26.5t-130 -26.5t-103.5 -72.5t-68 -109t-24.5 -135v-8q0 -72 25 -134t68.5 -108.5t103.5 -73t131 -26.5zM397 -6q-74 0 -137 28t-110 76.5t-73.5 114t-26.5 140.5v8
q0 76 27 142t73.5 114.5t109.5 76t135 27.5t135 -27.5t109.5 -75.5t73.5 -113.5t27 -140.5v-8q0 -76 -27 -142t-73.5 -115t-109 -77t-133.5 -28zM316 888h21l73 -117h-18z" />
    <glyph glyph-name="Oacute" unicode="&#xd3;" horiz-adv-x="790" 
d="M397 11q69 0 128 26.5t102.5 73t68.5 109.5t25 136v8q0 72 -25 134t-68.5 107.5t-103 72t-129.5 26.5t-130 -26.5t-103.5 -72.5t-68 -109t-24.5 -135v-8q0 -72 25 -134t68.5 -108.5t103.5 -73t131 -26.5zM397 -6q-74 0 -137 28t-110 76.5t-73.5 114t-26.5 140.5v8
q0 76 27 142t73.5 114.5t109.5 76t135 27.5t135 -27.5t109.5 -75.5t73.5 -113.5t27 -140.5v-8q0 -76 -27 -142t-73.5 -115t-109 -77t-133.5 -28zM452 888h21l-76 -117h-18z" />
    <glyph glyph-name="Ocircumflex" unicode="&#xd4;" horiz-adv-x="790" 
d="M397 11q69 0 128 26.5t102.5 73t68.5 109.5t25 136v8q0 72 -25 134t-68.5 107.5t-103 72t-129.5 26.5t-130 -26.5t-103.5 -72.5t-68 -109t-24.5 -135v-8q0 -72 25 -134t68.5 -108.5t103.5 -73t131 -26.5zM397 -6q-74 0 -137 28t-110 76.5t-73.5 114t-26.5 140.5v8
q0 76 27 142t73.5 114.5t109.5 76t135 27.5t135 -27.5t109.5 -75.5t73.5 -113.5t27 -140.5v-8q0 -76 -27 -142t-73.5 -115t-109 -77t-133.5 -28zM386 888h20l111 -117h-20l-101 101l-103 -101h-20z" />
    <glyph glyph-name="Otilde" unicode="&#xd5;" horiz-adv-x="790" 
d="M397 11q69 0 128 26.5t102.5 73t68.5 109.5t25 136v8q0 72 -25 134t-68.5 107.5t-103 72t-129.5 26.5t-130 -26.5t-103.5 -72.5t-68 -109t-24.5 -135v-8q0 -72 25 -134t68.5 -108.5t103.5 -73t131 -26.5zM397 -6q-74 0 -137 28t-110 76.5t-73.5 114t-26.5 140.5v8
q0 76 27 142t73.5 114.5t109.5 76t135 27.5t135 -27.5t109.5 -75.5t73.5 -113.5t27 -140.5v-8q0 -76 -27 -142t-73.5 -115t-109 -77t-133.5 -28zM466 773q-20 0 -38.5 10t-35.5 22.5t-33.5 22.5t-32.5 10q-21 0 -35.5 -15.5t-18.5 -47.5h-17q5 42 24.5 60.5t46.5 18.5
q19 0 37 -10t35.5 -22.5t34 -22.5t33.5 -10q20 0 34.5 15.5t18.5 47.5h17q-5 -42 -24.5 -60.5t-45.5 -18.5z" />
    <glyph glyph-name="Odieresis" unicode="&#xd6;" horiz-adv-x="790" 
d="M397 11q69 0 128 26.5t102.5 73t68.5 109.5t25 136v8q0 72 -25 134t-68.5 107.5t-103 72t-129.5 26.5t-130 -26.5t-103.5 -72.5t-68 -109t-24.5 -135v-8q0 -72 25 -134t68.5 -108.5t103.5 -73t131 -26.5zM397 -6q-74 0 -137 28t-110 76.5t-73.5 114t-26.5 140.5v8
q0 76 27 142t73.5 114.5t109.5 76t135 27.5t135 -27.5t109.5 -75.5t73.5 -113.5t27 -140.5v-8q0 -76 -27 -142t-73.5 -115t-109 -77t-133.5 -28zM318 787q-8 0 -12.5 5t-4.5 12t4.5 12t12.5 5t12.5 -5t4.5 -12t-4.5 -12t-12.5 -5zM472 787q-8 0 -12.5 5t-4.5 12t4.5 12
t12.5 5t12.5 -5t4.5 -12t-4.5 -12t-12.5 -5z" />
    <glyph glyph-name="multiply" unicode="&#xd7;" horiz-adv-x="500" 
d="M60 168l169 168l-169 169l12 12l168 -168l169 168l12 -12l-169 -169l169 -168l-12 -12l-169 168l-168 -168z" />
    <glyph glyph-name="Oslash" unicode="&#xd8;" horiz-adv-x="790" 
d="M49 -3l96 107q-45 48 -70 112t-25 137v8q0 76 27 142t73.5 114.5t109.5 76t135 27.5q66 0 123.5 -23t103.5 -64l90 101l12 -11l-90 -101q49 -48 77.5 -114.5t28.5 -144.5v-8q0 -76 -27 -142t-73.5 -115t-109 -77t-133.5 -28q-72 0 -133 26t-108 72l-95 -106zM397 11
q69 0 128 26.5t102.5 73t68.5 109.5t25 136v8q0 74 -26 137t-73 110l-454 -506q44 -45 102 -69.5t127 -24.5zM69 353q0 -69 22.5 -129.5t64.5 -106.5l454 505q-42 38 -97 60t-118 22q-70 0 -130 -26.5t-103.5 -72.5t-68 -109t-24.5 -135v-8z" />
    <glyph glyph-name="Ugrave" unicode="&#xd9;" horiz-adv-x="666" 
d="M334 -4q-117 0 -186 64.5t-69 189.5v465h19v-464q0 -118 62 -178t174 -60q123 0 178.5 64.5t55.5 186.5v451h19v-454q0 -125 -62 -195t-191 -70zM254 888h21l73 -117h-18z" />
    <glyph glyph-name="Uacute" unicode="&#xda;" horiz-adv-x="666" 
d="M334 -4q-117 0 -186 64.5t-69 189.5v465h19v-464q0 -118 62 -178t174 -60q123 0 178.5 64.5t55.5 186.5v451h19v-454q0 -125 -62 -195t-191 -70zM390 888h21l-76 -117h-18z" />
    <glyph glyph-name="Ucircumflex" unicode="&#xdb;" horiz-adv-x="666" 
d="M334 -4q-117 0 -186 64.5t-69 189.5v465h19v-464q0 -118 62 -178t174 -60q123 0 178.5 64.5t55.5 186.5v451h19v-454q0 -125 -62 -195t-191 -70zM324 888h20l111 -117h-20l-101 101l-103 -101h-20z" />
    <glyph glyph-name="Udieresis" unicode="&#xdc;" horiz-adv-x="666" 
d="M334 -4q-117 0 -186 64.5t-69 189.5v465h19v-464q0 -118 62 -178t174 -60q123 0 178.5 64.5t55.5 186.5v451h19v-454q0 -125 -62 -195t-191 -70zM256 787q-8 0 -12.5 5t-4.5 12t4.5 12t12.5 5t12.5 -5t4.5 -12t-4.5 -12t-12.5 -5zM410 787q-8 0 -12.5 5t-4.5 12t4.5 12
t12.5 5t12.5 -5t4.5 -12t-4.5 -12t-12.5 -5z" />
    <glyph glyph-name="Yacute" unicode="&#xdd;" horiz-adv-x="554" 
d="M275 325l-253 390h21l242 -372l227 372h20l-238 -390v-325h-19v325zM341 888h21l-76 -117h-18z" />
    <glyph glyph-name="Thorn" unicode="&#xde;" horiz-adv-x="552" 
d="M95 715h18v-156h154q53 0 96.5 -9.5t74.5 -31.5t48 -57.5t17 -87.5v-4q0 -52 -17 -88t-48 -58t-74.5 -32t-96.5 -10h-154v-181h-18v715zM267 198q49 0 89 8.5t68.5 28.5t44 52.5t15.5 81.5v4q0 49 -16 81.5t-44.5 52t-68.5 27.5t-88 8h-154v-344h154z" />
    <glyph glyph-name="germandbls" unicode="&#xdf;" horiz-adv-x="546" 
d="M303 -4q-31 0 -53.5 4t-43.5 12v17q23 -9 45.5 -13t51.5 -4q36 0 69.5 10t59.5 33t41.5 60t15.5 90v7q0 49 -19 91t-52 73.5t-76.5 49t-92.5 17.5v16q42 0 74 13.5t54 35t33 49t11 57.5v4q0 63 -39 102.5t-115 39.5q-81 0 -125 -49.5t-44 -132.5v-578h-18v578
q0 46 13.5 82.5t38 62t59 39.5t76.5 14t74 -12t54 -33.5t33 -50.5t11 -62v-4q0 -61 -38 -104.5t-101 -57.5q38 -6 75 -25.5t66.5 -50.5t47.5 -72.5t18 -91.5v-7q0 -59 -18 -98.5t-46.5 -64.5t-65.5 -35.5t-74 -10.5z" />
    <glyph glyph-name="agrave" unicode="&#xe0;" horiz-adv-x="515" 
d="M228 -7q-84 0 -132.5 37.5t-48.5 106.5q0 45 18 75t49 48t72 25t87 7h149v55q0 87 -38 127t-119 40q-66 0 -115 -31t-62 -100h-17q5 37 22.5 64.5t43.5 46t59 27.5t69 9q91 0 133 -47.5t42 -135.5v-347h-18v96q-10 -20 -27.5 -38.5t-42 -33t-56 -23t-68.5 -8.5zM228 9
q39 0 74 12t62 31.5t42.5 45.5t15.5 54v124h-149q-43 0 -80.5 -5.5t-66 -21t-45 -42.5t-16.5 -70q0 -63 43 -95.5t120 -32.5zM183 743h20l75 -147h-17z" />
    <glyph glyph-name="aacute" unicode="&#xe1;" horiz-adv-x="515" 
d="M228 -7q-84 0 -132.5 37.5t-48.5 106.5q0 45 18 75t49 48t72 25t87 7h149v55q0 87 -38 127t-119 40q-66 0 -115 -31t-62 -100h-17q5 37 22.5 64.5t43.5 46t59 27.5t69 9q91 0 133 -47.5t42 -135.5v-347h-18v96q-10 -20 -27.5 -38.5t-42 -33t-56 -23t-68.5 -8.5zM228 9
q39 0 74 12t62 31.5t42.5 45.5t15.5 54v124h-149q-43 0 -80.5 -5.5t-66 -21t-45 -42.5t-16.5 -70q0 -63 43 -95.5t120 -32.5zM322 743h20l-78 -147h-17z" />
    <glyph glyph-name="acircumflex" unicode="&#xe2;" horiz-adv-x="515" 
d="M228 -7q-84 0 -132.5 37.5t-48.5 106.5q0 45 18 75t49 48t72 25t87 7h149v55q0 87 -38 127t-119 40q-66 0 -115 -31t-62 -100h-17q5 37 22.5 64.5t43.5 46t59 27.5t69 9q91 0 133 -47.5t42 -135.5v-347h-18v96q-10 -20 -27.5 -38.5t-42 -33t-56 -23t-68.5 -8.5zM228 9
q39 0 74 12t62 31.5t42.5 45.5t15.5 54v124h-149q-43 0 -80.5 -5.5t-66 -21t-45 -42.5t-16.5 -70q0 -63 43 -95.5t120 -32.5zM256 720h20l110 -124h-20l-100 108l-102 -108h-20z" />
    <glyph glyph-name="atilde" unicode="&#xe3;" horiz-adv-x="515" 
d="M228 -7q-84 0 -132.5 37.5t-48.5 106.5q0 45 18 75t49 48t72 25t87 7h149v55q0 87 -38 127t-119 40q-66 0 -115 -31t-62 -100h-17q5 37 22.5 64.5t43.5 46t59 27.5t69 9q91 0 133 -47.5t42 -135.5v-347h-18v96q-10 -20 -27.5 -38.5t-42 -33t-56 -23t-68.5 -8.5zM228 9
q39 0 74 12t62 31.5t42.5 45.5t15.5 54v124h-149q-43 0 -80.5 -5.5t-66 -21t-45 -42.5t-16.5 -70q0 -63 43 -95.5t120 -32.5zM336 613q-20 0 -38.5 10t-36 22t-34 22t-32.5 10q-19 0 -34 -15.5t-19 -47.5h-17q5 42 24.5 60.5t46.5 18.5q19 0 37.5 -10t36 -22t34.5 -22
t33 -10q18 0 33 15.5t19 47.5h17q-5 -42 -24.5 -60.5t-45.5 -18.5z" />
    <glyph glyph-name="adieresis" unicode="&#xe4;" horiz-adv-x="515" 
d="M228 -7q-84 0 -132.5 37.5t-48.5 106.5q0 45 18 75t49 48t72 25t87 7h149v55q0 87 -38 127t-119 40q-66 0 -115 -31t-62 -100h-17q5 37 22.5 64.5t43.5 46t59 27.5t69 9q91 0 133 -47.5t42 -135.5v-347h-18v96q-10 -20 -27.5 -38.5t-42 -33t-56 -23t-68.5 -8.5zM228 9
q39 0 74 12t62 31.5t42.5 45.5t15.5 54v124h-149q-43 0 -80.5 -5.5t-66 -21t-45 -42.5t-16.5 -70q0 -63 43 -95.5t120 -32.5zM194 639q-8 0 -12.5 5t-4.5 12t4.5 12t12.5 5t12.5 -5t4.5 -12t-4.5 -12t-12.5 -5zM336 639q-8 0 -12.5 5t-4.5 12t4.5 12t12.5 5t12.5 -5t4.5 -12
t-4.5 -12t-12.5 -5z" />
    <glyph glyph-name="aring" unicode="&#xe5;" horiz-adv-x="515" 
d="M228 -7q-84 0 -132.5 37.5t-48.5 106.5q0 45 18 75t49 48t72 25t87 7h149v55q0 87 -38 127t-119 40q-66 0 -115 -31t-62 -100h-17q5 37 22.5 64.5t43.5 46t59 27.5t69 9q91 0 133 -47.5t42 -135.5v-347h-18v96q-10 -20 -27.5 -38.5t-42 -33t-56 -23t-68.5 -8.5zM228 9
q39 0 74 12t62 31.5t42.5 45.5t15.5 54v124h-149q-43 0 -80.5 -5.5t-66 -21t-45 -42.5t-16.5 -70q0 -63 43 -95.5t120 -32.5zM265 619q30 0 50.5 20.5t20.5 49.5q0 31 -20.5 51t-50.5 20q-29 0 -49.5 -20t-20.5 -51q0 -29 20.5 -49.5t49.5 -20.5zM265 604q-18 0 -33.5 7
t-27.5 18.5t-19 27t-7 32.5q0 18 7 33.5t19 27t27.5 18.5t33.5 7t34 -7t28 -18.5t19 -27t7 -33.5q0 -35 -25.5 -60t-62.5 -25z" />
    <glyph glyph-name="ae" unicode="&#xe6;" horiz-adv-x="918" 
d="M664 -7q-90 0 -146 46t-78 123q-4 -41 -23.5 -72t-48.5 -53t-65.5 -33t-73.5 -11q-84 0 -133 36.5t-49 105.5q0 45 17.5 74.5t48 46.5t71.5 23.5t87 6.5h155v61q0 87 -39.5 127t-120.5 40q-33 0 -62.5 -7.5t-53 -23.5t-40 -41t-22.5 -59h-17q5 37 22.5 64.5t44 46
t59.5 27.5t69 9q87 0 129 -43t46 -123q23 76 80 121t136 45q49 0 90 -17t69.5 -49t44.5 -78t16 -105v-11h-433q0 -123 55.5 -192t164.5 -69q70 0 121 33t70 99h18q-20 -71 -75 -109.5t-134 -38.5zM229 9q39 0 74.5 12t63 34.5t43.5 54t16 69.5v91h-155q-43 0 -80.5 -5
t-65.5 -19.5t-44 -41t-16 -69.5q0 -63 43.5 -94.5t120.5 -31.5zM859 286q-2 112 -56.5 170t-145.5 58q-45 0 -83 -16t-66 -46t-45 -72t-19 -94h415z" />
    <glyph glyph-name="ccedilla" unicode="&#xe7;" horiz-adv-x="539" 
d="M261 -210q-36 0 -60.5 19t-29.5 53h19q3 -26 21.5 -41t49.5 -15q32 0 49.5 16.5t17.5 42.5q0 32 -19.5 43.5t-44.5 11.5q-17 0 -28.5 -4t-17.5 -8l-9 8l45 79q-45 5 -84 26t-67.5 55.5t-45 80t-16.5 100.5v8q0 60 19.5 108.5t52.5 83.5t77.5 54t94.5 19q39 0 74.5 -11.5
t64 -33t47 -52t23.5 -67.5h-18q-5 35 -22 62.5t-43 46.5t-58.5 29t-67.5 10q-47 0 -88 -17.5t-71.5 -49.5t-48.5 -78t-18 -104v-8q0 -57 18 -102.5t48.5 -78t71 -50t86.5 -17.5q77 0 132 42.5t69 121.5h17q-7 -42 -26 -75t-48 -56.5t-65.5 -36t-78.5 -12.5h-12l-37 -64
q20 7 40 6.5t35.5 -8.5t25.5 -23.5t10 -38.5q0 -35 -24 -55t-60 -20z" />
    <glyph glyph-name="egrave" unicode="&#xe8;" horiz-adv-x="537" 
d="M282 -7q-58 0 -103 19.5t-75.5 55t-46.5 84t-16 105.5v8q0 58 17.5 107t49 84t74 54.5t93.5 19.5q49 0 90 -17t70 -49t45 -78t16 -105v-11h-437q0 -123 57 -192t166 -69q70 0 121.5 33t70.5 99h18q-20 -71 -75.5 -109.5t-134.5 -38.5zM478 286q-2 112 -57 170t-146 58
q-45 0 -83.5 -16t-67 -46t-46 -72t-19.5 -94h419zM192 743h20l75 -147h-17z" />
    <glyph glyph-name="eacute" unicode="&#xe9;" horiz-adv-x="537" 
d="M282 -7q-58 0 -103 19.5t-75.5 55t-46.5 84t-16 105.5v8q0 58 17.5 107t49 84t74 54.5t93.5 19.5q49 0 90 -17t70 -49t45 -78t16 -105v-11h-437q0 -123 57 -192t166 -69q70 0 121.5 33t70.5 99h18q-20 -71 -75.5 -109.5t-134.5 -38.5zM478 286q-2 112 -57 170t-146 58
q-45 0 -83.5 -16t-67 -46t-46 -72t-19.5 -94h419zM331 743h20l-78 -147h-17z" />
    <glyph glyph-name="ecircumflex" unicode="&#xea;" horiz-adv-x="537" 
d="M282 -7q-58 0 -103 19.5t-75.5 55t-46.5 84t-16 105.5v8q0 58 17.5 107t49 84t74 54.5t93.5 19.5q49 0 90 -17t70 -49t45 -78t16 -105v-11h-437q0 -123 57 -192t166 -69q70 0 121.5 33t70.5 99h18q-20 -71 -75.5 -109.5t-134.5 -38.5zM478 286q-2 112 -57 170t-146 58
q-45 0 -83.5 -16t-67 -46t-46 -72t-19.5 -94h419zM265 720h20l110 -124h-20l-100 108l-102 -108h-20z" />
    <glyph glyph-name="edieresis" unicode="&#xeb;" horiz-adv-x="537" 
d="M282 -7q-58 0 -103 19.5t-75.5 55t-46.5 84t-16 105.5v8q0 58 17.5 107t49 84t74 54.5t93.5 19.5q49 0 90 -17t70 -49t45 -78t16 -105v-11h-437q0 -123 57 -192t166 -69q70 0 121.5 33t70.5 99h18q-20 -71 -75.5 -109.5t-134.5 -38.5zM478 286q-2 112 -57 170t-146 58
q-45 0 -83.5 -16t-67 -46t-46 -72t-19.5 -94h419zM203 639q-8 0 -12.5 5t-4.5 12t4.5 12t12.5 5t12.5 -5t4.5 -12t-4.5 -12t-12.5 -5zM345 639q-8 0 -12.5 5t-4.5 12t4.5 12t12.5 5t12.5 -5t4.5 -12t-4.5 -12t-12.5 -5z" />
    <glyph glyph-name="igrave" unicode="&#xec;" horiz-adv-x="182" 
d="M82 523h18v-523h-18v523zM4 743h20l75 -147h-17z" />
    <glyph glyph-name="iacute" unicode="&#xed;" horiz-adv-x="182" 
d="M82 523h18v-523h-18v523zM155 743h20l-78 -147h-17z" />
    <glyph glyph-name="icircumflex" unicode="&#xee;" horiz-adv-x="182" 
d="M82 523h18v-523h-18v523zM83 720h20l110 -124h-20l-100 108l-102 -108h-20z" />
    <glyph glyph-name="idieresis" unicode="&#xef;" horiz-adv-x="182" 
d="M35 639q-8 0 -12.5 5t-4.5 12t4.5 12t12.5 5t12.5 -5t4.5 -12t-4.5 -12t-12.5 -5zM147 639q-8 0 -12.5 5t-4.5 12t4.5 12t12.5 5t12.5 -5t4.5 -12t-4.5 -12t-12.5 -5zM82 523h18v-523h-18v523z" />
    <glyph glyph-name="eth" unicode="&#xf0;" horiz-adv-x="583" 
d="M121 609l148 85q-29 21 -59.5 41t-62.5 38h28q24 -14 52 -31t57 -39l116 66l8 -13l-111 -63q44 -35 86.5 -78.5t76.5 -96.5t54.5 -114.5t20.5 -131.5v-15q0 -59 -20 -107.5t-54 -83.5t-79 -54t-95 -19t-94.5 19.5t-78.5 54.5t-53.5 83.5t-19.5 106.5v8q0 59 20 107.5
t53.5 83.5t76.5 54.5t89 19.5q82 0 132 -32.5t82 -81.5q-30 77 -84.5 144t-128.5 124l-153 -87zM287 9q46 0 87.5 17t73 49.5t50.5 79t19 105.5v20q0 53 -18.5 96t-50.5 74t-75 47.5t-92 16.5q-42 0 -82 -17.5t-71 -49.5t-50 -78t-19 -104v-8q0 -57 18.5 -102.5t50 -78
t73 -50t86.5 -17.5z" />
    <glyph glyph-name="ntilde" unicode="&#xf1;" horiz-adv-x="565" 
d="M80 523h18v-125q9 25 28 49t45.5 42.5t59.5 29.5t71 11q43 0 77.5 -12t59 -37t38 -64.5t13.5 -93.5v-323h-18v323q0 100 -46 145.5t-124 45.5q-37 0 -73.5 -13t-65.5 -37.5t-47 -61.5t-18 -85v-317h-18v523zM352 613q-20 0 -38.5 10t-36 22t-34 22t-32.5 10
q-19 0 -34 -15.5t-19 -47.5h-17q5 42 24.5 60.5t46.5 18.5q19 0 37.5 -10t36 -22t34.5 -22t33 -10q18 0 33 15.5t19 47.5h17q-5 -42 -24.5 -60.5t-45.5 -18.5z" />
    <glyph glyph-name="ograve" unicode="&#xf2;" horiz-adv-x="576" 
d="M288 9q45 0 86.5 17t73 49.5t50.5 78.5t19 104v8q0 59 -18.5 105t-50 77.5t-72.5 48t-86 16.5t-87 -17t-74 -49t-51 -78t-19 -104v-8q0 -57 18.5 -102.5t50 -78t73 -50t87.5 -17.5zM287 -7q-50 0 -94.5 19.5t-78.5 54.5t-53.5 83.5t-19.5 106.5v8q0 59 20.5 107.5
t54.5 83.5t79 54t95 19q49 0 93.5 -18.5t78.5 -52.5t53.5 -83t19.5 -109v-8q0 -59 -20 -108t-54 -84t-79 -54t-95 -19zM206 743h20l75 -147h-17z" />
    <glyph glyph-name="oacute" unicode="&#xf3;" horiz-adv-x="576" 
d="M288 9q45 0 86.5 17t73 49.5t50.5 78.5t19 104v8q0 59 -18.5 105t-50 77.5t-72.5 48t-86 16.5t-87 -17t-74 -49t-51 -78t-19 -104v-8q0 -57 18.5 -102.5t50 -78t73 -50t87.5 -17.5zM287 -7q-50 0 -94.5 19.5t-78.5 54.5t-53.5 83.5t-19.5 106.5v8q0 59 20.5 107.5
t54.5 83.5t79 54t95 19q49 0 93.5 -18.5t78.5 -52.5t53.5 -83t19.5 -109v-8q0 -59 -20 -108t-54 -84t-79 -54t-95 -19zM345 743h20l-78 -147h-17z" />
    <glyph glyph-name="ocircumflex" unicode="&#xf4;" horiz-adv-x="576" 
d="M288 9q45 0 86.5 17t73 49.5t50.5 78.5t19 104v8q0 59 -18.5 105t-50 77.5t-72.5 48t-86 16.5t-87 -17t-74 -49t-51 -78t-19 -104v-8q0 -57 18.5 -102.5t50 -78t73 -50t87.5 -17.5zM287 -7q-50 0 -94.5 19.5t-78.5 54.5t-53.5 83.5t-19.5 106.5v8q0 59 20.5 107.5
t54.5 83.5t79 54t95 19q49 0 93.5 -18.5t78.5 -52.5t53.5 -83t19.5 -109v-8q0 -59 -20 -108t-54 -84t-79 -54t-95 -19zM279 720h20l110 -124h-20l-100 108l-102 -108h-20z" />
    <glyph glyph-name="otilde" unicode="&#xf5;" horiz-adv-x="576" 
d="M288 9q45 0 86.5 17t73 49.5t50.5 78.5t19 104v8q0 59 -18.5 105t-50 77.5t-72.5 48t-86 16.5t-87 -17t-74 -49t-51 -78t-19 -104v-8q0 -57 18.5 -102.5t50 -78t73 -50t87.5 -17.5zM287 -7q-50 0 -94.5 19.5t-78.5 54.5t-53.5 83.5t-19.5 106.5v8q0 59 20.5 107.5
t54.5 83.5t79 54t95 19q49 0 93.5 -18.5t78.5 -52.5t53.5 -83t19.5 -109v-8q0 -59 -20 -108t-54 -84t-79 -54t-95 -19zM359 613q-20 0 -38.5 10t-36 22t-34 22t-32.5 10q-19 0 -34 -15.5t-19 -47.5h-17q5 42 24.5 60.5t46.5 18.5q19 0 37.5 -10t36 -22t34.5 -22t33 -10
q18 0 33 15.5t19 47.5h17q-5 -42 -24.5 -60.5t-45.5 -18.5z" />
    <glyph glyph-name="odieresis" unicode="&#xf6;" horiz-adv-x="576" 
d="M288 9q45 0 86.5 17t73 49.5t50.5 78.5t19 104v8q0 59 -18.5 105t-50 77.5t-72.5 48t-86 16.5t-87 -17t-74 -49t-51 -78t-19 -104v-8q0 -57 18.5 -102.5t50 -78t73 -50t87.5 -17.5zM287 -7q-50 0 -94.5 19.5t-78.5 54.5t-53.5 83.5t-19.5 106.5v8q0 59 20.5 107.5
t54.5 83.5t79 54t95 19q49 0 93.5 -18.5t78.5 -52.5t53.5 -83t19.5 -109v-8q0 -59 -20 -108t-54 -84t-79 -54t-95 -19zM217 639q-8 0 -12.5 5t-4.5 12t4.5 12t12.5 5t12.5 -5t4.5 -12t-4.5 -12t-12.5 -5zM359 639q-8 0 -12.5 5t-4.5 12t4.5 12t12.5 5t12.5 -5t4.5 -12
t-4.5 -12t-12.5 -5z" />
    <glyph glyph-name="divide" unicode="&#xf7;" horiz-adv-x="500" 
d="M250 161q-8 0 -12.5 5t-4.5 12t4.5 12t12.5 5t12.5 -5t4.5 -12t-4.5 -12t-12.5 -5zM37 350h426v-16h-426v16zM250 489q-8 0 -12.5 5t-4.5 12t4.5 12t12.5 5t12.5 -5t4.5 -12t-4.5 -12t-12.5 -5z" />
    <glyph glyph-name="oslash" unicode="&#xf8;" horiz-adv-x="576" 
d="M41 -1l66 75q-31 35 -48.5 81t-17.5 102v8q0 59 20.5 107.5t54.5 83.5t79 54t95 19q48 0 90 -17t75 -48l62 69l12 -10l-63 -70q32 -35 50.5 -82t18.5 -105v-8q0 -59 -20 -108t-54 -84t-79 -54t-95 -19q-49 0 -92 18t-77 51l-65 -73zM288 9q45 0 86.5 17t73 49.5
t50.5 78.5t19 104v8q0 56 -16.5 99.5t-44.5 75.5l-327 -366q32 -32 73 -49t86 -17zM59 257q0 -53 16 -96t43 -75l326 366q-31 30 -70.5 45.5t-83.5 15.5q-45 0 -87 -17t-74 -49t-51 -78t-19 -104v-8z" />
    <glyph glyph-name="ugrave" unicode="&#xf9;" horiz-adv-x="561" 
d="M262 -7q-43 0 -77.5 11t-59 35t-37.5 62t-13 92v330h18v-330q0 -50 12 -85t34 -57t53 -32t70 -10q37 0 73 12.5t64.5 36.5t46 60.5t17.5 84.5v320h18v-523h-18v121q-9 -26 -27.5 -49t-44.5 -40.5t-58.5 -28t-70.5 -10.5zM199 743h20l75 -147h-17z" />
    <glyph glyph-name="uacute" unicode="&#xfa;" horiz-adv-x="561" 
d="M262 -7q-43 0 -77.5 11t-59 35t-37.5 62t-13 92v330h18v-330q0 -50 12 -85t34 -57t53 -32t70 -10q37 0 73 12.5t64.5 36.5t46 60.5t17.5 84.5v320h18v-523h-18v121q-9 -26 -27.5 -49t-44.5 -40.5t-58.5 -28t-70.5 -10.5zM338 743h20l-78 -147h-17z" />
    <glyph glyph-name="ucircumflex" unicode="&#xfb;" horiz-adv-x="561" 
d="M262 -7q-43 0 -77.5 11t-59 35t-37.5 62t-13 92v330h18v-330q0 -50 12 -85t34 -57t53 -32t70 -10q37 0 73 12.5t64.5 36.5t46 60.5t17.5 84.5v320h18v-523h-18v121q-9 -26 -27.5 -49t-44.5 -40.5t-58.5 -28t-70.5 -10.5zM272 720h20l110 -124h-20l-100 108l-102 -108h-20
z" />
    <glyph glyph-name="udieresis" unicode="&#xfc;" horiz-adv-x="561" 
d="M262 -7q-43 0 -77.5 11t-59 35t-37.5 62t-13 92v330h18v-330q0 -50 12 -85t34 -57t53 -32t70 -10q37 0 73 12.5t64.5 36.5t46 60.5t17.5 84.5v320h18v-523h-18v121q-9 -26 -27.5 -49t-44.5 -40.5t-58.5 -28t-70.5 -10.5zM210 639q-8 0 -12.5 5t-4.5 12t4.5 12t12.5 5
t12.5 -5t4.5 -12t-4.5 -12t-12.5 -5zM352 639q-8 0 -12.5 5t-4.5 12t4.5 12t12.5 5t12.5 -5t4.5 -12t-4.5 -12t-12.5 -5z" />
    <glyph glyph-name="yacute" unicode="&#xfd;" horiz-adv-x="483" 
d="M231 35l-209 488h19l200 -467l193 467h19l-293 -705h-19zM297 743h20l-78 -147h-17z" />
    <glyph glyph-name="thorn" unicode="&#xfe;" horiz-adv-x="594" 
d="M80 773h18v-413q12 34 33 65t50 54t65 37t78 14q47 0 89 -18.5t73 -53t49 -83.5t18 -110v-8q0 -63 -18.5 -112.5t-50 -83t-73.5 -51t-89 -17.5t-84 14.5t-65 38t-46.5 53t-28.5 59.5v-340h-18v955zM322 9q45 0 83.5 17t67.5 48.5t45.5 77.5t16.5 105v8q0 59 -17 105.5
t-46 78.5t-67 48.5t-81 16.5q-42 0 -82.5 -17t-72.5 -49t-51.5 -78.5t-19.5 -104.5v-8q0 -58 18.5 -104t49.5 -78t71.5 -49t84.5 -17z" />
    <glyph glyph-name="ydieresis" unicode="&#xff;" horiz-adv-x="483" 
d="M235 35l-209 488h19l200 -467l193 467h19l-293 -705h-19zM174 639q-8 0 -12.5 5t-4.5 12t4.5 12t12.5 5t12.5 -5t4.5 -12t-4.5 -12t-12.5 -5zM316 639q-8 0 -12.5 5t-4.5 12t4.5 12t12.5 5t12.5 -5t4.5 -12t-4.5 -12t-12.5 -5z" />
    <glyph glyph-name="Amacron" unicode="&#x100;" horiz-adv-x="630" 
d="M300 715h26l274 -715h-19l-90 235h-354l-89 -235h-18zM143 252h341l-171 448zM194 814h226v-17h-226v17z" />
    <glyph glyph-name="amacron" unicode="&#x101;" horiz-adv-x="515" 
d="M228 -7q-84 0 -132.5 37.5t-48.5 106.5q0 45 18 75t49 48t72 25t87 7h149v55q0 87 -38 127t-119 40q-66 0 -115 -31t-62 -100h-17q5 37 22.5 64.5t43.5 46t59 27.5t69 9q91 0 133 -47.5t42 -135.5v-347h-18v96q-10 -20 -27.5 -38.5t-42 -33t-56 -23t-68.5 -8.5zM228 9
q39 0 74 12t62 31.5t42.5 45.5t15.5 54v124h-149q-43 0 -80.5 -5.5t-66 -21t-45 -42.5t-16.5 -70q0 -63 43 -95.5t120 -32.5zM155 663h219v-17h-219v17z" />
    <glyph glyph-name="Abreve" unicode="&#x102;" horiz-adv-x="630" 
d="M300 715h26l274 -715h-19l-90 235h-354l-89 -235h-18zM143 252h341l-171 448zM306 775q-48 0 -81.5 31.5t-37.5 80.5h18q3 -42 32 -69t69 -27q39 0 69 27.5t34 68.5h18q-2 -24 -12.5 -44.5t-27 -35.5t-37.5 -23.5t-44 -8.5z" />
    <glyph glyph-name="abreve" unicode="&#x103;" horiz-adv-x="515" 
d="M228 -7q-84 0 -132.5 37.5t-48.5 106.5q0 45 18 75t49 48t72 25t87 7h149v55q0 87 -38 127t-119 40q-66 0 -115 -31t-62 -100h-17q5 37 22.5 64.5t43.5 46t59 27.5t69 9q91 0 133 -47.5t42 -135.5v-347h-18v96q-10 -20 -27.5 -38.5t-42 -33t-56 -23t-68.5 -8.5zM228 9
q39 0 74 12t62 31.5t42.5 45.5t15.5 54v124h-149q-43 0 -80.5 -5.5t-66 -21t-45 -42.5t-16.5 -70q0 -63 43 -95.5t120 -32.5zM264 612q-48 0 -77.5 29.5t-33.5 78.5h18q3 -42 28 -67t65 -25q39 0 65 25t30 67h18q-4 -49 -35 -78.5t-78 -29.5z" />
    <glyph glyph-name="Aogonek" unicode="&#x104;" horiz-adv-x="630" 
d="M577 -182q-40 0 -60.5 20.5t-20.5 49.5q0 35 25 64.5t58 51.5l-89 231h-353l-89 -235h-18l270 715h26l274 -715q-41 -26 -63 -53t-22 -59q0 -23 14.5 -38t47.5 -15q24 0 48 9v-17q-10 -4 -22 -6.5t-26 -2.5zM143 252h341l-171 448z" />
    <glyph glyph-name="aogonek" unicode="&#x105;" horiz-adv-x="515" 
d="M420 -182q-40 0 -60.5 20.5t-20.5 49.5q0 18 7 34.5t19 31.5t27 28t30 23v91q-10 -20 -27.5 -38.5t-42 -33t-56 -23t-68.5 -8.5q-84 0 -132.5 37.5t-48.5 106.5q0 45 18 75t49 48t72 25t87 7h149v55q0 87 -38 127t-119 40q-66 0 -115 -31t-62 -100h-17q5 37 22.5 64.5
t43.5 46t59 27.5t69 9q91 0 133 -47.5t42 -135.5v-347q-39 -26 -61 -53.5t-22 -58.5q0 -23 15 -38.5t48 -15.5q24 0 48 9v-16q-10 -4 -22 -6.5t-26 -2.5zM228 9q39 0 74 12t62 31.5t42.5 45.5t15.5 54v124h-149q-43 0 -80.5 -5.5t-66 -21t-45 -42.5t-16.5 -70
q0 -63 43 -95.5t120 -32.5z" />
    <glyph glyph-name="Cacute" unicode="&#x106;" horiz-adv-x="720" 
d="M380 -6q-75 0 -136 26.5t-104 74t-66.5 113.5t-23.5 145v8q0 79 26 145t71 114t104.5 74.5t127.5 26.5q54 0 101.5 -14t85 -40.5t63 -66t36.5 -90.5h-19q-21 92 -90 143t-177 51q-66 0 -122.5 -25.5t-98 -71t-65.5 -108t-24 -137.5v-8q0 -77 22 -140t62.5 -108t98 -70
t128.5 -25q54 0 100 14.5t82 41.5t60 66t35 88h18q-11 -53 -37.5 -95t-65 -71.5t-88 -45t-104.5 -15.5zM437 888h21l-76 -117h-18z" />
    <glyph glyph-name="cacute" unicode="&#x107;" horiz-adv-x="539" 
d="M283 -7q-50 0 -94 19t-77 54t-52 83.5t-19 107.5v8q0 60 19.5 108.5t52.5 83.5t77.5 54t94.5 19q39 0 74.5 -11.5t64 -33t47 -52t23.5 -67.5h-18q-5 35 -22 62.5t-43 46.5t-58.5 29t-67.5 10q-47 0 -88 -17.5t-71.5 -49.5t-48.5 -78t-18 -104v-8q0 -57 18 -102.5
t48.5 -78t71 -50t86.5 -17.5q77 0 132 42.5t69 121.5h17q-7 -42 -26 -75t-48 -56.5t-65.5 -36t-78.5 -12.5zM337 743h20l-78 -147h-17z" />
    <glyph glyph-name="Ccircumflex" unicode="&#x108;" horiz-adv-x="720" 
d="M380 -6q-75 0 -136 26.5t-104 74t-66.5 113.5t-23.5 145v8q0 79 26 145t71 114t104.5 74.5t127.5 26.5q54 0 101.5 -14t85 -40.5t63 -66t36.5 -90.5h-19q-21 92 -90 143t-177 51q-66 0 -122.5 -25.5t-98 -71t-65.5 -108t-24 -137.5v-8q0 -77 22 -140t62.5 -108t98 -70
t128.5 -25q54 0 100 14.5t82 41.5t60 66t35 88h18q-11 -53 -37.5 -95t-65 -71.5t-88 -45t-104.5 -15.5zM371 888h20l111 -117h-20l-101 101l-103 -101h-20z" />
    <glyph glyph-name="ccircumflex" unicode="&#x109;" horiz-adv-x="539" 
d="M283 -7q-50 0 -94 19t-77 54t-52 83.5t-19 107.5v8q0 60 19.5 108.5t52.5 83.5t77.5 54t94.5 19q39 0 74.5 -11.5t64 -33t47 -52t23.5 -67.5h-18q-5 35 -22 62.5t-43 46.5t-58.5 29t-67.5 10q-47 0 -88 -17.5t-71.5 -49.5t-48.5 -78t-18 -104v-8q0 -57 18 -102.5
t48.5 -78t71 -50t86.5 -17.5q77 0 132 42.5t69 121.5h17q-7 -42 -26 -75t-48 -56.5t-65.5 -36t-78.5 -12.5zM271 720h20l110 -124h-20l-100 108l-102 -108h-20z" />
    <glyph glyph-name="Cdotaccent" unicode="&#x10a;" horiz-adv-x="720" 
d="M380 -6q-75 0 -136 26.5t-104 74t-66.5 113.5t-23.5 145v8q0 79 26 145t71 114t104.5 74.5t127.5 26.5q54 0 101.5 -14t85 -40.5t63 -66t36.5 -90.5h-19q-21 92 -90 143t-177 51q-66 0 -122.5 -25.5t-98 -71t-65.5 -108t-24 -137.5v-8q0 -77 22 -140t62.5 -108t98 -70
t128.5 -25q54 0 100 14.5t82 41.5t60 66t35 88h18q-11 -53 -37.5 -95t-65 -71.5t-88 -45t-104.5 -15.5zM380 787q-8 0 -12.5 5t-4.5 12t4.5 12t12.5 5t12.5 -5t4.5 -12t-4.5 -12t-12.5 -5z" />
    <glyph glyph-name="cdotaccent" unicode="&#x10b;" horiz-adv-x="539" 
d="M283 -7q-50 0 -94 19t-77 54t-52 83.5t-19 107.5v8q0 60 19.5 108.5t52.5 83.5t77.5 54t94.5 19q39 0 74.5 -11.5t64 -33t47 -52t23.5 -67.5h-18q-5 35 -22 62.5t-43 46.5t-58.5 29t-67.5 10q-47 0 -88 -17.5t-71.5 -49.5t-48.5 -78t-18 -104v-8q0 -57 18 -102.5
t48.5 -78t71 -50t86.5 -17.5q77 0 132 42.5t69 121.5h17q-7 -42 -26 -75t-48 -56.5t-65.5 -36t-78.5 -12.5zM280 639q-8 0 -12.5 5t-4.5 12t4.5 12t12.5 5t12.5 -5t4.5 -12t-4.5 -12t-12.5 -5z" />
    <glyph glyph-name="Ccaron" unicode="&#x10c;" horiz-adv-x="720" 
d="M380 -6q-75 0 -136 26.5t-104 74t-66.5 113.5t-23.5 145v8q0 79 26 145t71 114t104.5 74.5t127.5 26.5q54 0 101.5 -14t85 -40.5t63 -66t36.5 -90.5h-19q-21 92 -90 143t-177 51q-66 0 -122.5 -25.5t-98 -71t-65.5 -108t-24 -137.5v-8q0 -77 22 -140t62.5 -108t98 -70
t128.5 -25q54 0 100 14.5t82 41.5t60 66t35 88h18q-11 -53 -37.5 -95t-65 -71.5t-88 -45t-104.5 -15.5zM256 888h20l103 -101l105 101h20l-115 -117h-20z" />
    <glyph glyph-name="ccaron" unicode="&#x10d;" horiz-adv-x="539" 
d="M283 -7q-50 0 -94 19t-77 54t-52 83.5t-19 107.5v8q0 60 19.5 108.5t52.5 83.5t77.5 54t94.5 19q39 0 74.5 -11.5t64 -33t47 -52t23.5 -67.5h-18q-5 35 -22 62.5t-43 46.5t-58.5 29t-67.5 10q-47 0 -88 -17.5t-71.5 -49.5t-48.5 -78t-18 -104v-8q0 -57 18 -102.5
t48.5 -78t71 -50t86.5 -17.5q77 0 132 42.5t69 121.5h17q-7 -42 -26 -75t-48 -56.5t-65.5 -36t-78.5 -12.5zM159 737h20l100 -108l102 108h20l-112 -124h-20z" />
    <glyph glyph-name="Dcaron" unicode="&#x10e;" horiz-adv-x="675" 
d="M272 17q85 0 147.5 26t104 72t62 107.5t20.5 133.5v8q0 70 -20.5 131t-62 106t-104.5 71t-148 26h-157v-681h158zM95 715h181q85 0 150 -27t109 -74t67 -111t23 -139v-8q0 -74 -21.5 -139t-65 -113t-109.5 -76t-155 -28h-179v715zM188 888h20l103 -101l105 101h20
l-115 -117h-20z" />
    <glyph glyph-name="dcaron" unicode="&#x10f;" horiz-adv-x="594" 
d="M275 -7q-48 0 -91 17.5t-74.5 51t-50 83t-18.5 112.5v8q0 61 19 110t52 83.5t77 53t94 18.5q45 0 80 -14t61 -36.5t43.5 -51t28.5 -58.5v403h18v-773h-18v157q-9 -29 -27 -58t-46 -52.5t-65 -38.5t-83 -15zM275 9q44 0 84 17t70.5 49t48.5 78t18 104v8q0 58 -16.5 104.5
t-45.5 78.5t-67.5 49t-83.5 17t-85.5 -16.5t-71.5 -48.5t-49 -78.5t-18 -105.5v-8q0 -59 16.5 -105t45.5 -77.5t68.5 -48.5t85.5 -17zM591 773h19l-15 -147h-17z" />
    <glyph glyph-name="Dcroat" unicode="&#x110;" horiz-adv-x="675" 
d="M21 369h74v346h181q85 0 150 -27t109 -74t67 -111t23 -139v-8q0 -74 -21.5 -139t-65 -113t-109.5 -76t-155 -28h-179v352h-74v17zM272 17q85 0 147.5 26t104 72t62 107.5t20.5 133.5v8q0 70 -20.5 131t-62 106t-104.5 71t-148 26h-157v-329h210v-17h-210v-335h158z" />
    <glyph glyph-name="dcroat" unicode="&#x111;" horiz-adv-x="594" 
d="M295 649h201v124h18v-124h81v-16h-81v-633h-18v157q-9 -29 -27 -58t-46 -52.5t-65 -38.5t-83 -15q-48 0 -91 17.5t-74.5 51t-50 83t-18.5 112.5v8q0 61 19 110t52 83.5t77 53t94 18.5q45 0 80 -14t61 -36.5t43.5 -51t28.5 -58.5v263h-201v16zM275 9q44 0 84 17t70.5 49
t48.5 78t18 104v8q0 58 -16.5 104.5t-45.5 78.5t-67.5 49t-83.5 17t-85.5 -16.5t-71.5 -48.5t-49 -78.5t-18 -105.5v-8q0 -59 16.5 -105t45.5 -77.5t68.5 -48.5t85.5 -17z" />
    <glyph glyph-name="Emacron" unicode="&#x112;" horiz-adv-x="566" 
d="M95 715h403v-17h-384v-320h313v-17h-313v-344h402v-17h-421v715zM179 814h226v-17h-226v17z" />
    <glyph glyph-name="emacron" unicode="&#x113;" horiz-adv-x="537" 
d="M282 -7q-58 0 -103 19.5t-75.5 55t-46.5 84t-16 105.5v8q0 58 17.5 107t49 84t74 54.5t93.5 19.5q49 0 90 -17t70 -49t45 -78t16 -105v-11h-437q0 -123 57 -192t166 -69q70 0 121.5 33t70.5 99h18q-20 -71 -75.5 -109.5t-134.5 -38.5zM478 286q-2 112 -57 170t-146 58
q-45 0 -83.5 -16t-67 -46t-46 -72t-19.5 -94h419zM164 663h219v-17h-219v17z" />
    <glyph glyph-name="Ebreve" unicode="&#x114;" horiz-adv-x="566" 
d="M95 715h403v-17h-384v-320h313v-17h-313v-344h402v-17h-421v715zM291 775q-48 0 -81.5 31.5t-37.5 80.5h18q3 -42 32 -69t69 -27q39 0 69 27.5t34 68.5h18q-2 -24 -12.5 -44.5t-27 -35.5t-37.5 -23.5t-44 -8.5z" />
    <glyph glyph-name="ebreve" unicode="&#x115;" horiz-adv-x="537" 
d="M282 -7q-58 0 -103 19.5t-75.5 55t-46.5 84t-16 105.5v8q0 58 17.5 107t49 84t74 54.5t93.5 19.5q49 0 90 -17t70 -49t45 -78t16 -105v-11h-437q0 -123 57 -192t166 -69q70 0 121.5 33t70.5 99h18q-20 -71 -75.5 -109.5t-134.5 -38.5zM478 286q-2 112 -57 170t-146 58
q-45 0 -83.5 -16t-67 -46t-46 -72t-19.5 -94h419zM273 612q-48 0 -77.5 29.5t-33.5 78.5h18q3 -42 28 -67t65 -25q39 0 65 25t30 67h18q-4 -49 -35 -78.5t-78 -29.5z" />
    <glyph glyph-name="Edotaccent" unicode="&#x116;" horiz-adv-x="566" 
d="M95 715h403v-17h-384v-320h313v-17h-313v-344h402v-17h-421v715zM292 787q-8 0 -12.5 5t-4.5 12t4.5 12t12.5 5t12.5 -5t4.5 -12t-4.5 -12t-12.5 -5z" />
    <glyph glyph-name="edotaccent" unicode="&#x117;" horiz-adv-x="537" 
d="M282 -7q-58 0 -103 19.5t-75.5 55t-46.5 84t-16 105.5v8q0 58 17.5 107t49 84t74 54.5t93.5 19.5q49 0 90 -17t70 -49t45 -78t16 -105v-11h-437q0 -123 57 -192t166 -69q70 0 121.5 33t70.5 99h18q-20 -71 -75.5 -109.5t-134.5 -38.5zM478 286q-2 112 -57 170t-146 58
q-45 0 -83.5 -16t-67 -46t-46 -72t-19.5 -94h419zM274 639q-8 0 -12.5 5t-4.5 12t4.5 12t12.5 5t12.5 -5t4.5 -12t-4.5 -12t-12.5 -5z" />
    <glyph glyph-name="Eogonek" unicode="&#x118;" horiz-adv-x="566" 
d="M416 -182q-40 0 -60.5 20.5t-20.5 49.5q0 34 22.5 62.5t54.5 49.5h-317v715h403v-17h-384v-320h313v-17h-313v-344h402v-17h-77q-41 -26 -63 -53t-22 -59q0 -23 14.5 -38t47.5 -15q24 0 48 9v-17q-10 -4 -22 -6.5t-26 -2.5z" />
    <glyph glyph-name="eogonek" unicode="&#x119;" horiz-adv-x="537" 
d="M358 -182q-40 0 -60.5 20.5t-20.5 49.5q0 35 26 65.5t61 53.5q-20 -7 -40 -10.5t-42 -3.5q-58 0 -103 19.5t-75.5 55t-46.5 84t-16 105.5v8q0 58 17.5 107t49 84t74 54.5t93.5 19.5q49 0 90 -17t70 -49t45 -78t16 -105v-11h-437q0 -123 57 -192t166 -69q70 0 121.5 33
t70.5 99h18q-11 -36 -27.5 -60.5t-39.5 -43.5q-19 -16 -41.5 -31.5t-42 -33t-33 -38.5t-13.5 -46q0 -23 15 -38.5t48 -15.5q24 0 48 9v-16q-10 -4 -22 -6.5t-26 -2.5zM478 286q-2 112 -57 170t-146 58q-45 0 -83.5 -16t-67 -46t-46 -72t-19.5 -94h419z" />
    <glyph glyph-name="Ecaron" unicode="&#x11a;" horiz-adv-x="566" 
d="M95 715h403v-17h-384v-320h313v-17h-313v-344h402v-17h-421v715zM168 888h20l103 -101l105 101h20l-115 -117h-20z" />
    <glyph glyph-name="ecaron" unicode="&#x11b;" horiz-adv-x="537" 
d="M282 -7q-58 0 -103 19.5t-75.5 55t-46.5 84t-16 105.5v8q0 58 17.5 107t49 84t74 54.5t93.5 19.5q49 0 90 -17t70 -49t45 -78t16 -105v-11h-437q0 -123 57 -192t166 -69q70 0 121.5 33t70.5 99h18q-20 -71 -75.5 -109.5t-134.5 -38.5zM478 286q-2 112 -57 170t-146 58
q-45 0 -83.5 -16t-67 -46t-46 -72t-19.5 -94h419zM153 737h20l100 -108l102 108h20l-112 -124h-20z" />
    <glyph glyph-name="Gcircumflex" unicode="&#x11c;" horiz-adv-x="744" 
d="M390 -6q-79 0 -142 26.5t-107 74t-67.5 113.5t-23.5 145v8q0 79 26.5 145t72 114t106.5 74.5t130 26.5q49 0 95 -12t83.5 -36t64.5 -60.5t39 -86.5h-19q-12 46 -36.5 79.5t-59 55.5t-77 32.5t-90.5 10.5q-68 0 -125.5 -25.5t-100 -71t-66.5 -108t-24 -137.5v-8
q0 -77 21.5 -140t63 -108t101 -70t135.5 -25q137 0 211 76t74 221v9h-233v17h252v-26q0 -77 -21.5 -135.5t-61 -98t-96 -60t-125.5 -20.5zM376 888h20l111 -117h-20l-101 101l-103 -101h-20z" />
    <glyph glyph-name="gcircumflex" unicode="&#x11d;" horiz-adv-x="594" 
d="M283 -185q-56 0 -97 13t-69.5 34.5t-44.5 49.5t-20 58h18q6 -29 21 -54t40.5 -44t63 -30t87.5 -11q45 0 84.5 11t68 35t45 62.5t16.5 94.5v142q-9 -29 -27.5 -57t-46.5 -51t-64.5 -37t-82.5 -14q-48 0 -91 16.5t-74.5 48.5t-50 79t-18.5 108v8q0 58 19 105t52 80t77 50.5
t94 17.5q45 0 80 -13t61 -34t43.5 -49t28.5 -58v147h18v-489q0 -59 -17.5 -100.5t-48.5 -67.5t-73.5 -38.5t-91.5 -12.5zM275 33q44 0 84 16t70.5 46.5t48.5 74t18 99.5v8q0 56 -16.5 100t-45.5 74.5t-67.5 46.5t-83.5 16t-85.5 -15.5t-71.5 -46t-49 -74.5t-18 -101v-8
q0 -56 16.5 -100t45.5 -74t68.5 -46t85.5 -16zM276 720h20l110 -124h-20l-100 108l-102 -108h-20z" />
    <glyph glyph-name="Gbreve" unicode="&#x11e;" horiz-adv-x="744" 
d="M390 -6q-79 0 -142 26.5t-107 74t-67.5 113.5t-23.5 145v8q0 79 26.5 145t72 114t106.5 74.5t130 26.5q49 0 95 -12t83.5 -36t64.5 -60.5t39 -86.5h-19q-12 46 -36.5 79.5t-59 55.5t-77 32.5t-90.5 10.5q-68 0 -125.5 -25.5t-100 -71t-66.5 -108t-24 -137.5v-8
q0 -77 21.5 -140t63 -108t101 -70t135.5 -25q137 0 211 76t74 221v9h-233v17h252v-26q0 -77 -21.5 -135.5t-61 -98t-96 -60t-125.5 -20.5zM384 775q-48 0 -81.5 31.5t-37.5 80.5h18q3 -42 32 -69t69 -27q39 0 69 27.5t34 68.5h18q-2 -24 -12.5 -44.5t-27 -35.5t-37.5 -23.5
t-44 -8.5z" />
    <glyph glyph-name="gbreve" unicode="&#x11f;" horiz-adv-x="594" 
d="M283 -185q-56 0 -97 13t-69.5 34.5t-44.5 49.5t-20 58h18q6 -29 21 -54t40.5 -44t63 -30t87.5 -11q45 0 84.5 11t68 35t45 62.5t16.5 94.5v142q-9 -29 -27.5 -57t-46.5 -51t-64.5 -37t-82.5 -14q-48 0 -91 16.5t-74.5 48.5t-50 79t-18.5 108v8q0 58 19 105t52 80t77 50.5
t94 17.5q45 0 80 -13t61 -34t43.5 -49t28.5 -58v147h18v-489q0 -59 -17.5 -100.5t-48.5 -67.5t-73.5 -38.5t-91.5 -12.5zM275 33q44 0 84 16t70.5 46.5t48.5 74t18 99.5v8q0 56 -16.5 100t-45.5 74.5t-67.5 46.5t-83.5 16t-85.5 -15.5t-71.5 -46t-49 -74.5t-18 -101v-8
q0 -56 16.5 -100t45.5 -74t68.5 -46t85.5 -16zM284 612q-48 0 -77.5 29.5t-33.5 78.5h18q3 -42 28 -67t65 -25q39 0 65 25t30 67h18q-4 -49 -35 -78.5t-78 -29.5z" />
    <glyph glyph-name="Gdotaccent" unicode="&#x120;" horiz-adv-x="744" 
d="M390 -6q-79 0 -142 26.5t-107 74t-67.5 113.5t-23.5 145v8q0 79 26.5 145t72 114t106.5 74.5t130 26.5q49 0 95 -12t83.5 -36t64.5 -60.5t39 -86.5h-19q-12 46 -36.5 79.5t-59 55.5t-77 32.5t-90.5 10.5q-68 0 -125.5 -25.5t-100 -71t-66.5 -108t-24 -137.5v-8
q0 -77 21.5 -140t63 -108t101 -70t135.5 -25q137 0 211 76t74 221v9h-233v17h252v-26q0 -77 -21.5 -135.5t-61 -98t-96 -60t-125.5 -20.5zM385 787q-8 0 -12.5 5t-4.5 12t4.5 12t12.5 5t12.5 -5t4.5 -12t-4.5 -12t-12.5 -5z" />
    <glyph glyph-name="gdotaccent" unicode="&#x121;" horiz-adv-x="594" 
d="M283 -185q-56 0 -97 13t-69.5 34.5t-44.5 49.5t-20 58h18q6 -29 21 -54t40.5 -44t63 -30t87.5 -11q45 0 84.5 11t68 35t45 62.5t16.5 94.5v142q-9 -29 -27.5 -57t-46.5 -51t-64.5 -37t-82.5 -14q-48 0 -91 16.5t-74.5 48.5t-50 79t-18.5 108v8q0 58 19 105t52 80t77 50.5
t94 17.5q45 0 80 -13t61 -34t43.5 -49t28.5 -58v147h18v-489q0 -59 -17.5 -100.5t-48.5 -67.5t-73.5 -38.5t-91.5 -12.5zM275 33q44 0 84 16t70.5 46.5t48.5 74t18 99.5v8q0 56 -16.5 100t-45.5 74.5t-67.5 46.5t-83.5 16t-85.5 -15.5t-71.5 -46t-49 -74.5t-18 -101v-8
q0 -56 16.5 -100t45.5 -74t68.5 -46t85.5 -16zM285 639q-8 0 -12.5 5t-4.5 12t4.5 12t12.5 5t12.5 -5t4.5 -12t-4.5 -12t-12.5 -5z" />
    <glyph glyph-name="Gcommaaccent" unicode="&#x122;" horiz-adv-x="744" 
d="M390 -6q-79 0 -142 26.5t-107 74t-67.5 113.5t-23.5 145v8q0 79 26.5 145t72 114t106.5 74.5t130 26.5q49 0 95 -12t83.5 -36t64.5 -60.5t39 -86.5h-19q-12 46 -36.5 79.5t-59 55.5t-77 32.5t-90.5 10.5q-68 0 -125.5 -25.5t-100 -71t-66.5 -108t-24 -137.5v-8
q0 -77 21.5 -140t63 -108t101 -70t135.5 -25q137 0 211 76t74 221v9h-233v17h252v-26q0 -77 -21.5 -135.5t-61 -98t-96 -60t-125.5 -20.5zM327 -180l58 134l19 -4l-62 -136z" />
    <glyph glyph-name="gcommaaccent" unicode="&#x123;" horiz-adv-x="594" 
d="M283 -185q-56 0 -97 13t-69.5 34.5t-44.5 49.5t-20 58h18q6 -29 21 -54t40.5 -44t63 -30t87.5 -11q45 0 84.5 11t68 35t45 62.5t16.5 94.5v142q-9 -29 -27.5 -57t-46.5 -51t-64.5 -37t-82.5 -14q-48 0 -91 16.5t-74.5 48.5t-50 79t-18.5 108v8q0 58 19 105t52 80t77 50.5
t94 17.5q45 0 80 -13t61 -34t43.5 -49t28.5 -58v147h18v-489q0 -59 -17.5 -100.5t-48.5 -67.5t-73.5 -38.5t-91.5 -12.5zM275 33q44 0 84 16t70.5 46.5t48.5 74t18 99.5v8q0 56 -16.5 100t-45.5 74.5t-67.5 46.5t-83.5 16t-85.5 -15.5t-71.5 -46t-49 -74.5t-18 -101v-8
q0 -56 16.5 -100t45.5 -74t68.5 -46t85.5 -16zM267 617l62 136l15 -6l-58 -134z" />
    <glyph glyph-name="Hcircumflex" unicode="&#x124;" horiz-adv-x="702" 
d="M95 715h19v-344h474v344h19v-715h-19v354h-474v-354h-19v715zM342 888h20l111 -117h-20l-101 101l-103 -101h-20z" />
    <glyph glyph-name="hcircumflex" unicode="&#x125;" horiz-adv-x="565" 
d="M80 773h18v-375q9 25 28 49t45.5 42.5t59.5 29.5t71 11q43 0 77.5 -12t59 -37t38 -64.5t13.5 -93.5v-323h-18v323q0 100 -46 145.5t-124 45.5q-37 0 -73.5 -13t-65.5 -37.5t-47 -61.5t-18 -85v-317h-18v773zM276 928h20l111 -117h-20l-101 101l-103 -101h-20z" />
    <glyph glyph-name="Hbar" unicode="&#x126;" horiz-adv-x="702" 
d="M4 547h91v168h19v-168h474v168h19v-168h91v-16h-91v-531h-19v354h-474v-354h-19v531h-91v16zM588 371v160h-474v-160h474z" />
    <glyph glyph-name="hbar" unicode="&#x127;" horiz-adv-x="565" 
d="M-1 649h81v124h18v-124h201v-16h-201v-235q9 25 28 49t45.5 42.5t59.5 29.5t71 11q43 0 77.5 -12t59 -37t38 -64.5t13.5 -93.5v-323h-18v323q0 100 -46 145.5t-124 45.5q-37 0 -73.5 -13t-65.5 -37.5t-47 -61.5t-18 -85v-317h-18v633h-81v16z" />
    <glyph glyph-name="Itilde" unicode="&#x128;" horiz-adv-x="219" 
d="M100 715h19v-715h-19v715zM181 773q-20 0 -38.5 10t-35.5 22.5t-33.5 22.5t-32.5 10q-21 0 -35.5 -15.5t-18.5 -47.5h-17q5 42 24.5 60.5t46.5 18.5q19 0 37 -10t35.5 -22.5t34 -22.5t33.5 -10q20 0 34.5 15.5t18.5 47.5h17q-5 -42 -24.5 -60.5t-45.5 -18.5z" />
    <glyph glyph-name="itilde" unicode="&#x129;" horiz-adv-x="182" 
d="M82 523h18v-523h-18v523zM163 613q-20 0 -38.5 10t-36 22t-34 22t-32.5 10q-19 0 -34 -15.5t-19 -47.5h-17q5 42 24.5 60.5t46.5 18.5q19 0 37.5 -10t36 -22t34.5 -22t33 -10q18 0 33 15.5t19 47.5h17q-5 -42 -24.5 -60.5t-45.5 -18.5z" />
    <glyph glyph-name="Imacron" unicode="&#x12a;" horiz-adv-x="219" 
d="M100 715h19v-715h-19v715zM-3 814h226v-17h-226v17z" />
    <glyph glyph-name="imacron" unicode="&#x12b;" horiz-adv-x="182" 
d="M16 663h150v-17h-150v17zM82 523h18v-523h-18v523z" />
    <glyph glyph-name="Ibreve" unicode="&#x12c;" horiz-adv-x="219" 
d="M100 715h19v-715h-19v715zM109 775q-48 0 -81.5 31.5t-37.5 80.5h18q3 -42 32 -69t69 -27q39 0 69 27.5t34 68.5h18q-2 -24 -12.5 -44.5t-27 -35.5t-37.5 -23.5t-44 -8.5z" />
    <glyph glyph-name="ibreve" unicode="&#x12d;" horiz-adv-x="182" 
d="M82 523h18v-523h-18v523zM91 612q-48 0 -77.5 29.5t-33.5 78.5h18q3 -42 28 -67t65 -25q39 0 65 25t30 67h18q-4 -49 -35 -78.5t-78 -29.5z" />
    <glyph glyph-name="Iogonek" unicode="&#x12e;" horiz-adv-x="219" 
d="M116 -182q-40 0 -60.5 20.5t-20.5 49.5q0 37 20.5 65t44.5 51v711h19v-715q-23 -21 -44 -49t-21 -63q0 -23 14.5 -38t47.5 -15q24 0 48 9v-17q-10 -4 -22 -6.5t-26 -2.5z" />
    <glyph glyph-name="iogonek" unicode="&#x12f;" horiz-adv-x="182" 
d="M105 -182q-40 0 -60.5 20.5t-20.5 49.5q0 36 18.5 63.5t39.5 51.5v520h18v-523q-21 -23 -39.5 -50t-18.5 -62q0 -23 15 -38.5t48 -15.5q24 0 48 9v-16q-10 -4 -22 -6.5t-26 -2.5zM91 639q-8 0 -12.5 5t-4.5 12t4.5 12t12.5 5t12.5 -5t4.5 -12t-4.5 -12t-12.5 -5z" />
    <glyph glyph-name="Idotaccent" unicode="&#x130;" horiz-adv-x="219" 
d="M100 715h19v-715h-19v715zM110 787q-8 0 -12.5 5t-4.5 12t4.5 12t12.5 5t12.5 -5t4.5 -12t-4.5 -12t-12.5 -5z" />
    <glyph glyph-name="dotlessi" unicode="&#x131;" horiz-adv-x="182" 
d="M82 523h18v-523h-18v523z" />
    <glyph glyph-name="IJ" unicode="&#x132;" horiz-adv-x="567" 
d="M100 715h19v-715h-19v715zM325 -4q-35 0 -61 7t-40 14v18q18 -8 43.5 -15t57.5 -7q67 0 105.5 34.5t38.5 117.5v550h19v-550q0 -89 -44.5 -129t-118.5 -40z" />
    <glyph glyph-name="ij" unicode="&#x133;" horiz-adv-x="182" 
d="M82 523h18v-523h-18v523zM74 656q0 7 4.5 12t12.5 5t12.5 -5t4.5 -12t-4.5 -12t-12.5 -5t-12.5 5t-4.5 12zM187 -168q44 4 60.5 27.5t16.5 74.5v589h18v-589q0 -60 -21 -88t-74 -30v16zM273 639q-8 0 -12.5 5t-4.5 12t4.5 12t12.5 5t12.5 -5t4.5 -12t-4.5 -12t-12.5 -5z
" />
    <glyph glyph-name="Jcircumflex" unicode="&#x134;" horiz-adv-x="378" 
d="M136 -4q-35 0 -61 7t-40 14v18q18 -8 43.5 -15t57.5 -7q67 0 105.5 34.5t38.5 117.5v550h19v-550q0 -89 -44.5 -129t-118.5 -40zM282 888h20l111 -117h-20l-101 101l-103 -101h-20z" />
    <glyph glyph-name="jcircumflex" unicode="&#x135;" horiz-adv-x="182" 
d="M5 -168q44 4 60.5 27.5t16.5 74.5v589h18v-589q0 -60 -21 -88t-74 -30v16zM84 720h20l110 -124h-20l-100 108l-102 -108h-20z" />
    <glyph glyph-name="Kcommaaccent" unicode="&#x136;" horiz-adv-x="579" 
d="M124 365l380 350h24l-379 -349l397 -366h-25zM95 715h19v-715h-19v715zM242 -180l58 134l19 -4l-62 -136z" />
    <glyph glyph-name="kcommaaccent" unicode="&#x137;" horiz-adv-x="452" 
d="M103 277l293 246h24l-292 -246l307 -277h-25zM80 773h18v-773h-18v773zM179 -180l58 134l19 -4l-62 -136z" />
    <glyph glyph-name="Lacute" unicode="&#x139;" horiz-adv-x="525" 
d="M95 715h19v-698h371v-17h-390v715zM165 888h21l-76 -117h-18z" />
    <glyph glyph-name="lacute" unicode="&#x13a;" horiz-adv-x="182" 
d="M82 773h18v-773h-18v773zM149 928h21l-76 -117h-18z" />
    <glyph glyph-name="Lcommaaccent" unicode="&#x13b;" horiz-adv-x="525" 
d="M95 715h19v-698h371v-17h-390v715zM220 -180l58 134l19 -4l-62 -136z" />
    <glyph glyph-name="lcommaaccent" unicode="&#x13c;" horiz-adv-x="182" 
d="M82 773h18v-773h-18v773zM30 -180l58 134l19 -4l-62 -136z" />
    <glyph glyph-name="Lcaron" unicode="&#x13d;" horiz-adv-x="525" 
d="M343 715h19l-29 -157h-17zM95 715h19v-698h371v-17h-390v715z" />
    <glyph glyph-name="lcaron" unicode="&#x13e;" horiz-adv-x="180" 
d="M82 773h18v-773h-18v773zM177 773h19l-15 -147h-17z" />
    <glyph glyph-name="Ldot" unicode="&#x13f;" horiz-adv-x="525" 
d="M95 715h19v-698h371v-17h-390v715zM443 350q-8 0 -12.5 5t-4.5 12t4.5 12t12.5 5t12.5 -5t4.5 -12t-4.5 -12t-12.5 -5z" />
    <glyph glyph-name="ldot" unicode="&#x140;" horiz-adv-x="222" 
d="M82 773h18v-773h-18v773zM202 363q-8 0 -12.5 5t-4.5 12t4.5 12t12.5 5t12.5 -5t4.5 -12t-4.5 -12t-12.5 -5z" />
    <glyph glyph-name="Lslash" unicode="&#x141;" horiz-adv-x="534" 
d="M25 286l79 29v400h19v-393l250 94v-17l-250 -94v-288h371v-17h-390v298l-79 -29v17z" />
    <glyph glyph-name="lslash" unicode="&#x142;" horiz-adv-x="196" 
d="M11 375l78 56v342h18v-329l82 59v-19l-82 -59v-425h-18v412l-78 -56v19z" />
    <glyph glyph-name="Nacute" unicode="&#x143;" horiz-adv-x="701" 
d="M95 715h31l461 -693v693h19v-715h-26l-466 700v-700h-19v715zM419 888h21l-76 -117h-18z" />
    <glyph glyph-name="nacute" unicode="&#x144;" horiz-adv-x="565" 
d="M80 523h18v-125q9 25 28 49t45.5 42.5t59.5 29.5t71 11q43 0 77.5 -12t59 -37t38 -64.5t13.5 -93.5v-323h-18v323q0 100 -46 145.5t-124 45.5q-37 0 -73.5 -13t-65.5 -37.5t-47 -61.5t-18 -85v-317h-18v523zM338 743h20l-78 -147h-17z" />
    <glyph glyph-name="Ncommaaccent" unicode="&#x145;" horiz-adv-x="701" 
d="M95 715h31l461 -693v693h19v-715h-26l-466 700v-700h-19v715zM284 -180l58 134l19 -4l-62 -136z" />
    <glyph glyph-name="ncommaaccent" unicode="&#x146;" horiz-adv-x="565" 
d="M80 523h18v-125q9 25 28 49t45.5 42.5t59.5 29.5t71 11q43 0 77.5 -12t59 -37t38 -64.5t13.5 -93.5v-323h-18v323q0 100 -46 145.5t-124 45.5q-37 0 -73.5 -13t-65.5 -37.5t-47 -61.5t-18 -85v-317h-18v523zM223 -180l58 134l19 -4l-62 -136z" />
    <glyph glyph-name="Ncaron" unicode="&#x147;" horiz-adv-x="701" 
d="M95 715h31l461 -693v693h19v-715h-26l-466 700v-700h-19v715zM238 888h20l103 -101l105 101h20l-115 -117h-20z" />
    <glyph glyph-name="ncaron" unicode="&#x148;" horiz-adv-x="565" 
d="M80 523h18v-125q9 25 28 49t45.5 42.5t59.5 29.5t71 11q43 0 77.5 -12t59 -37t38 -64.5t13.5 -93.5v-323h-18v323q0 100 -46 145.5t-124 45.5q-37 0 -73.5 -13t-65.5 -37.5t-47 -61.5t-18 -85v-317h-18v523zM160 737h20l100 -108l102 108h20l-112 -124h-20z" />
    <glyph glyph-name="napostrophe" unicode="&#x149;" horiz-adv-x="580" 
d="M95 523h18v-125q9 25 28 49t45.5 42.5t59.5 29.5t71 11q43 0 77.5 -12t59 -37t38 -64.5t13.5 -93.5v-323h-18v323q0 100 -46 145.5t-124 45.5q-37 0 -73.5 -13t-65.5 -37.5t-47 -61.5t-18 -85v-317h-18v523zM-21 581l59 137l18 -7l-62 -136z" />
    <glyph glyph-name="Eng" unicode="&#x14a;" horiz-adv-x="701" 
d="M443 -187q-35 0 -61 7t-40 14v18q18 -8 43.5 -15t57.5 -7q33 0 59.5 8.5t45 27t29 49t10.5 75.5l-473 710v-700h-19v715h31l461 -693v693h19v-722q0 -49 -11.5 -83t-33 -55.5t-51.5 -31.5t-67 -10z" />
    <glyph glyph-name="eng" unicode="&#x14b;" horiz-adv-x="565" 
d="M375 -168q26 3 44.5 10t30 21.5t17 37.5t5.5 57v365q0 100 -46 145.5t-124 45.5q-37 0 -73.5 -13t-65.5 -37.5t-47 -61.5t-18 -85v-317h-18v523h18v-125q9 25 28 49t45.5 42.5t59.5 29.5t71 11q43 0 77.5 -12t59 -37t38 -64.5t13.5 -93.5v-365q0 -76 -27.5 -107
t-87.5 -35v16z" />
    <glyph glyph-name="Omacron" unicode="&#x14c;" horiz-adv-x="790" 
d="M397 11q69 0 128 26.5t102.5 73t68.5 109.5t25 136v8q0 72 -25 134t-68.5 107.5t-103 72t-129.5 26.5t-130 -26.5t-103.5 -72.5t-68 -109t-24.5 -135v-8q0 -72 25 -134t68.5 -108.5t103.5 -73t131 -26.5zM397 -6q-74 0 -137 28t-110 76.5t-73.5 114t-26.5 140.5v8
q0 76 27 142t73.5 114.5t109.5 76t135 27.5t135 -27.5t109.5 -75.5t73.5 -113.5t27 -140.5v-8q0 -76 -27 -142t-73.5 -115t-109 -77t-133.5 -28zM282 814h226v-17h-226v17z" />
    <glyph glyph-name="omacron" unicode="&#x14d;" horiz-adv-x="576" 
d="M288 9q45 0 86.5 17t73 49.5t50.5 78.5t19 104v8q0 59 -18.5 105t-50 77.5t-72.5 48t-86 16.5t-87 -17t-74 -49t-51 -78t-19 -104v-8q0 -57 18.5 -102.5t50 -78t73 -50t87.5 -17.5zM287 -7q-50 0 -94.5 19.5t-78.5 54.5t-53.5 83.5t-19.5 106.5v8q0 59 20.5 107.5
t54.5 83.5t79 54t95 19q49 0 93.5 -18.5t78.5 -52.5t53.5 -83t19.5 -109v-8q0 -59 -20 -108t-54 -84t-79 -54t-95 -19zM178 663h219v-17h-219v17z" />
    <glyph glyph-name="Obreve" unicode="&#x14e;" horiz-adv-x="790" 
d="M397 11q69 0 128 26.5t102.5 73t68.5 109.5t25 136v8q0 72 -25 134t-68.5 107.5t-103 72t-129.5 26.5t-130 -26.5t-103.5 -72.5t-68 -109t-24.5 -135v-8q0 -72 25 -134t68.5 -108.5t103.5 -73t131 -26.5zM397 -6q-74 0 -137 28t-110 76.5t-73.5 114t-26.5 140.5v8
q0 76 27 142t73.5 114.5t109.5 76t135 27.5t135 -27.5t109.5 -75.5t73.5 -113.5t27 -140.5v-8q0 -76 -27 -142t-73.5 -115t-109 -77t-133.5 -28zM394 775q-48 0 -81.5 31.5t-37.5 80.5h18q3 -42 32 -69t69 -27q39 0 69 27.5t34 68.5h18q-2 -24 -12.5 -44.5t-27 -35.5
t-37.5 -23.5t-44 -8.5z" />
    <glyph glyph-name="obreve" unicode="&#x14f;" horiz-adv-x="576" 
d="M288 9q45 0 86.5 17t73 49.5t50.5 78.5t19 104v8q0 59 -18.5 105t-50 77.5t-72.5 48t-86 16.5t-87 -17t-74 -49t-51 -78t-19 -104v-8q0 -57 18.5 -102.5t50 -78t73 -50t87.5 -17.5zM287 -7q-50 0 -94.5 19.5t-78.5 54.5t-53.5 83.5t-19.5 106.5v8q0 59 20.5 107.5
t54.5 83.5t79 54t95 19q49 0 93.5 -18.5t78.5 -52.5t53.5 -83t19.5 -109v-8q0 -59 -20 -108t-54 -84t-79 -54t-95 -19zM287 612q-48 0 -77.5 29.5t-33.5 78.5h18q3 -42 28 -67t65 -25q39 0 65 25t30 67h18q-4 -49 -35 -78.5t-78 -29.5z" />
    <glyph glyph-name="Ohungarumlaut" unicode="&#x150;" horiz-adv-x="790" 
d="M397 11q69 0 128 26.5t102.5 73t68.5 109.5t25 136v8q0 72 -25 134t-68.5 107.5t-103 72t-129.5 26.5t-130 -26.5t-103.5 -72.5t-68 -109t-24.5 -135v-8q0 -72 25 -134t68.5 -108.5t103.5 -73t131 -26.5zM397 -6q-74 0 -137 28t-110 76.5t-73.5 114t-26.5 140.5v8
q0 76 27 142t73.5 114.5t109.5 76t135 27.5t135 -27.5t109.5 -75.5t73.5 -113.5t27 -140.5v-8q0 -76 -27 -142t-73.5 -115t-109 -77t-133.5 -28zM386 888h20l-57 -117h-17zM492 888h20l-57 -117h-17z" />
    <glyph glyph-name="ohungarumlaut" unicode="&#x151;" horiz-adv-x="576" 
d="M288 9q45 0 86.5 17t73 49.5t50.5 78.5t19 104v8q0 59 -18.5 105t-50 77.5t-72.5 48t-86 16.5t-87 -17t-74 -49t-51 -78t-19 -104v-8q0 -57 18.5 -102.5t50 -78t73 -50t87.5 -17.5zM287 -7q-50 0 -94.5 19.5t-78.5 54.5t-53.5 83.5t-19.5 106.5v8q0 59 20.5 107.5
t54.5 83.5t79 54t95 19q49 0 93.5 -18.5t78.5 -52.5t53.5 -83t19.5 -109v-8q0 -59 -20 -108t-54 -84t-79 -54t-95 -19zM291 743h20l-62 -147h-17zM397 743h20l-62 -147h-17z" />
    <glyph glyph-name="OE" unicode="&#x152;" horiz-adv-x="958" 
d="M50 358q0 74 21.5 139t65 113.5t109.5 76.5t155 28h489v-17h-370v-320h299v-17h-299v-344h388v-17h-509q-85 0 -150 26.5t-109.5 73.5t-67 111t-22.5 139v8zM403 698q-85 0 -147.5 -26t-104 -72t-62 -107.5t-20.5 -133.5v-8q0 -71 20.5 -132t62 -106t104.5 -70.5
t148 -25.5h97v681h-98z" />
    <glyph glyph-name="oe" unicode="&#x153;" horiz-adv-x="1013" 
d="M287 -7q-50 0 -94.5 19.5t-78.5 54.5t-53.5 83.5t-19.5 106.5v8q0 59 20.5 107.5t54.5 83.5t79 54t95 19q42 0 80 -13t69.5 -38t54 -61t32.5 -81q9 44 29.5 80t49.5 61.5t66.5 39t79.5 13.5q49 0 90 -17t70 -49t45 -78t16 -105v-11h-437q0 -123 57 -192t166 -69
q70 0 121.5 33t70.5 99h18q-20 -71 -75.5 -109.5t-134.5 -38.5q-49 0 -88.5 14t-68.5 40t-48.5 61.5t-27.5 79.5q-11 -45 -33.5 -81t-54 -61.5t-70 -39t-80.5 -13.5zM288 9q45 0 86.5 17t73 49.5t50.5 78.5t19 104v8q0 59 -18.5 105t-50 77.5t-72.5 48t-86 16.5t-87 -17
t-74 -49t-51 -78t-19 -104v-8q0 -57 18.5 -102.5t50 -78t73 -50t87.5 -17.5zM954 286q-2 112 -57 170t-146 58q-45 0 -83.5 -16t-67 -46t-46 -72t-19.5 -94h419z" />
    <glyph glyph-name="Racute" unicode="&#x154;" horiz-adv-x="581" 
d="M95 715h172q53 0 96.5 -10t74.5 -32t48 -57t17 -84v-4q0 -45 -14 -78t-39.5 -55t-61.5 -34t-80 -16l237 -345h-22l-236 343h-174v-343h-18v715zM267 360q49 0 89 9t68.5 28.5t44 51.5t15.5 79v4q0 46 -16 78t-44.5 51.5t-68.5 28t-88 8.5h-154v-338h154zM333 888h21
l-76 -117h-18z" />
    <glyph glyph-name="racute" unicode="&#x155;" horiz-adv-x="316" 
d="M80 523h18v-129q9 26 24.5 49.5t38.5 41.5t53 29.5t67 12.5v-16q-36 -1 -69 -14t-58.5 -39.5t-40.5 -67t-15 -97.5v-293h-18v523zM235 743h20l-78 -147h-17z" />
    <glyph glyph-name="Rcommaaccent" unicode="&#x156;" horiz-adv-x="581" 
d="M95 715h172q53 0 96.5 -10t74.5 -32t48 -57t17 -84v-4q0 -45 -14 -78t-39.5 -55t-61.5 -34t-80 -16l237 -345h-22l-236 343h-174v-343h-18v715zM267 360q49 0 89 9t68.5 28.5t44 51.5t15.5 79v4q0 46 -16 78t-44.5 51.5t-68.5 28t-88 8.5h-154v-338h154zM238 -180l58 134
l19 -4l-62 -136z" />
    <glyph glyph-name="rcommaaccent" unicode="&#x157;" horiz-adv-x="316" 
d="M80 523h18v-129q9 26 24.5 49.5t38.5 41.5t53 29.5t67 12.5v-16q-36 -1 -69 -14t-58.5 -39.5t-40.5 -67t-15 -97.5v-293h-18v523zM29 -180l58 134l19 -4l-62 -136z" />
    <glyph glyph-name="Rcaron" unicode="&#x158;" horiz-adv-x="581" 
d="M95 715h172q53 0 96.5 -10t74.5 -32t48 -57t17 -84v-4q0 -45 -14 -78t-39.5 -55t-61.5 -34t-80 -16l237 -345h-22l-236 343h-174v-343h-18v715zM267 360q49 0 89 9t68.5 28.5t44 51.5t15.5 79v4q0 46 -16 78t-44.5 51.5t-68.5 28t-88 8.5h-154v-338h154zM152 888h20
l103 -101l105 101h20l-115 -117h-20z" />
    <glyph glyph-name="rcaron" unicode="&#x159;" horiz-adv-x="316" 
d="M80 523h18v-129q9 26 24.5 49.5t38.5 41.5t53 29.5t67 12.5v-16q-36 -1 -69 -14t-58.5 -39.5t-40.5 -67t-15 -97.5v-293h-18v523zM57 737h20l100 -108l102 108h20l-112 -124h-20z" />
    <glyph glyph-name="Sacute" unicode="&#x15a;" horiz-adv-x="572" 
d="M292 -6q-60 0 -105.5 15t-77 41.5t-49.5 62t-24 77.5h19q6 -36 22 -68.5t44.5 -57t70.5 -39t100 -14.5q51 0 90.5 13.5t66.5 37t40.5 55.5t13.5 69q0 45 -12 75.5t-37.5 51t-66.5 32.5t-98 20q-61 9 -103.5 24t-68.5 37t-38 51.5t-12 65.5q0 42 15.5 75t44.5 56t69 35
t90 12q92 0 144.5 -42.5t66.5 -116.5h-19q-13 66 -59 104t-133 38q-93 0 -146.5 -40t-53.5 -121q0 -33 11 -59.5t35 -46t63.5 -33t96.5 -21.5q61 -9 104.5 -22t71.5 -35.5t41 -56t13 -83.5q0 -39 -15 -74t-44.5 -61.5t-72.5 -41.5t-98 -15zM342 888h21l-76 -117h-18z" />
    <glyph glyph-name="sacute" unicode="&#x15b;" horiz-adv-x="448" 
d="M231 -9q-90 0 -140 45.5t-57 114.5h17q4 -31 17 -57t35.5 -45.5t54 -30.5t73.5 -11q37 0 66 10t49 27t30.5 40.5t10.5 49.5q0 31 -7.5 51.5t-25.5 35t-47.5 23.5t-73.5 17q-45 8 -78.5 18t-56 25.5t-33.5 38t-11 56.5q0 29 12.5 53t35 41t53.5 26.5t67 9.5
q71 0 116.5 -31t56.5 -100h-17q-11 60 -51 87.5t-106 27.5q-67 0 -108.5 -31t-41.5 -83q0 -29 9.5 -48.5t29.5 -33t51.5 -23t76.5 -17.5q44 -8 75.5 -18.5t52 -26.5t30.5 -40t10 -58q0 -29 -12 -55t-34.5 -45.5t-55 -31t-73.5 -11.5zM284 743h20l-78 -147h-17z" />
    <glyph glyph-name="Scircumflex" unicode="&#x15c;" horiz-adv-x="572" 
d="M292 -6q-60 0 -105.5 15t-77 41.5t-49.5 62t-24 77.5h19q6 -36 22 -68.5t44.5 -57t70.5 -39t100 -14.5q51 0 90.5 13.5t66.5 37t40.5 55.5t13.5 69q0 45 -12 75.5t-37.5 51t-66.5 32.5t-98 20q-61 9 -103.5 24t-68.5 37t-38 51.5t-12 65.5q0 42 15.5 75t44.5 56t69 35
t90 12q92 0 144.5 -42.5t66.5 -116.5h-19q-13 66 -59 104t-133 38q-93 0 -146.5 -40t-53.5 -121q0 -33 11 -59.5t35 -46t63.5 -33t96.5 -21.5q61 -9 104.5 -22t71.5 -35.5t41 -56t13 -83.5q0 -39 -15 -74t-44.5 -61.5t-72.5 -41.5t-98 -15zM277 888h20l111 -117h-20
l-101 101l-103 -101h-20z" />
    <glyph glyph-name="scircumflex" unicode="&#x15d;" horiz-adv-x="448" 
d="M231 -9q-90 0 -140 45.5t-57 114.5h17q4 -31 17 -57t35.5 -45.5t54 -30.5t73.5 -11q37 0 66 10t49 27t30.5 40.5t10.5 49.5q0 31 -7.5 51.5t-25.5 35t-47.5 23.5t-73.5 17q-45 8 -78.5 18t-56 25.5t-33.5 38t-11 56.5q0 29 12.5 53t35 41t53.5 26.5t67 9.5
q71 0 116.5 -31t56.5 -100h-17q-11 60 -51 87.5t-106 27.5q-67 0 -108.5 -31t-41.5 -83q0 -29 9.5 -48.5t29.5 -33t51.5 -23t76.5 -17.5q44 -8 75.5 -18.5t52 -26.5t30.5 -40t10 -58q0 -29 -12 -55t-34.5 -45.5t-55 -31t-73.5 -11.5zM218 720h20l110 -124h-20l-100 108
l-102 -108h-20z" />
    <glyph glyph-name="Scedilla" unicode="&#x15e;" horiz-adv-x="572" 
d="M262 -210q-36 0 -60.5 19t-29.5 53h19q3 -26 21.5 -41t49.5 -15q32 0 49.5 16.5t17.5 42.5q0 32 -19.5 43.5t-44.5 11.5q-17 0 -28.5 -4t-17.5 -8l-9 8l45 80q-51 4 -89.5 20.5t-65.5 42.5t-43 59.5t-21 71.5h19q6 -36 22 -68.5t44.5 -57t70.5 -39t100 -14.5
q51 0 90.5 13.5t66.5 37t40.5 55.5t13.5 69q0 45 -12 75.5t-37.5 51t-66.5 32.5t-98 20q-61 9 -103.5 24t-68.5 37t-38 51.5t-12 65.5q0 42 15.5 75t44.5 56t69 35t90 12q92 0 144.5 -42.5t66.5 -116.5h-19q-13 66 -59 104t-133 38q-93 0 -146.5 -40t-53.5 -121
q0 -33 11 -59.5t35 -46t63.5 -33t96.5 -21.5q61 -9 104.5 -22t71.5 -35.5t41 -56t13 -83.5q0 -39 -15 -74t-44.5 -61.5t-72.5 -41.5t-98 -15h-10t-10 1l-37 -66q20 7 40 6.5t35.5 -8.5t25.5 -23.5t10 -38.5q0 -35 -24 -55t-60 -20z" />
    <glyph glyph-name="scedilla" unicode="&#x15f;" horiz-adv-x="448" 
d="M208 -210q-36 0 -60.5 19t-29.5 53h19q3 -26 21.5 -41t49.5 -15q32 0 49.5 16.5t17.5 42.5q0 32 -19.5 43.5t-44.5 11.5q-17 0 -28.5 -4t-17.5 -8l-9 8l44 77q-76 8 -118 51.5t-48 106.5h17q4 -31 17 -57t35.5 -45.5t54 -30.5t73.5 -11q37 0 66 10t49 27t30.5 40.5
t10.5 49.5q0 31 -7.5 51.5t-25.5 35t-47.5 23.5t-73.5 17q-45 8 -78.5 18t-56 25.5t-33.5 38t-11 56.5q0 29 12.5 53t35 41t53.5 26.5t67 9.5q71 0 116.5 -31t56.5 -100h-17q-11 60 -51 87.5t-106 27.5q-67 0 -108.5 -31t-41.5 -83q0 -29 9.5 -48.5t29.5 -33t51.5 -23
t76.5 -17.5q44 -8 75.5 -18.5t52 -26.5t30.5 -40t10 -58q0 -29 -12 -55t-34.5 -45.5t-55 -31t-73.5 -11.5q-4 0 -7.5 0.5t-6.5 0.5l-36 -63q20 7 40 6.5t35.5 -8.5t25.5 -23.5t10 -38.5q0 -35 -24 -55t-60 -20z" />
    <glyph glyph-name="Scaron" unicode="&#x160;" horiz-adv-x="572" 
d="M292 -6q-60 0 -105.5 15t-77 41.5t-49.5 62t-24 77.5h19q6 -36 22 -68.5t44.5 -57t70.5 -39t100 -14.5q51 0 90.5 13.5t66.5 37t40.5 55.5t13.5 69q0 45 -12 75.5t-37.5 51t-66.5 32.5t-98 20q-61 9 -103.5 24t-68.5 37t-38 51.5t-12 65.5q0 42 15.5 75t44.5 56t69 35
t90 12q92 0 144.5 -42.5t66.5 -116.5h-19q-13 66 -59 104t-133 38q-93 0 -146.5 -40t-53.5 -121q0 -33 11 -59.5t35 -46t63.5 -33t96.5 -21.5q61 -9 104.5 -22t71.5 -35.5t41 -56t13 -83.5q0 -39 -15 -74t-44.5 -61.5t-72.5 -41.5t-98 -15zM159 888h20l103 -101l105 101h20
l-115 -117h-20z" />
    <glyph glyph-name="scaron" unicode="&#x161;" horiz-adv-x="448" 
d="M231 -9q-90 0 -140 45.5t-57 114.5h17q4 -31 17 -57t35.5 -45.5t54 -30.5t73.5 -11q37 0 66 10t49 27t30.5 40.5t10.5 49.5q0 31 -7.5 51.5t-25.5 35t-47.5 23.5t-73.5 17q-45 8 -78.5 18t-56 25.5t-33.5 38t-11 56.5q0 29 12.5 53t35 41t53.5 26.5t67 9.5
q71 0 116.5 -31t56.5 -100h-17q-11 60 -51 87.5t-106 27.5q-67 0 -108.5 -31t-41.5 -83q0 -29 9.5 -48.5t29.5 -33t51.5 -23t76.5 -17.5q44 -8 75.5 -18.5t52 -26.5t30.5 -40t10 -58q0 -29 -12 -55t-34.5 -45.5t-55 -31t-73.5 -11.5zM106 737h20l100 -108l102 108h20
l-112 -124h-20z" />
    <glyph glyph-name="Tcommaaccent" unicode="&#x162;" horiz-adv-x="557" 
d="M269 698h-238v17h495v-17h-238v-698h-19v698zM220 -180l58 134l19 -4l-62 -136z" />
    <glyph glyph-name="tcommaaccent" unicode="&#x163;" horiz-adv-x="319" 
d="M214 -7q-51 0 -81.5 30.5t-30.5 96.5v387h-80v16h80v119h18v-119h154v-16h-154v-387q0 -59 26 -85t68 -26q21 0 37 3t30 8v-16q-13 -5 -28.5 -8t-38.5 -3zM116 -180l58 134l19 -4l-62 -136z" />
    <glyph glyph-name="Tcaron" unicode="&#x164;" horiz-adv-x="557" 
d="M269 698h-238v17h495v-17h-238v-698h-19v698zM154 888h20l103 -101l105 101h20l-115 -117h-20z" />
    <glyph glyph-name="tcaron" unicode="&#x165;" horiz-adv-x="319" 
d="M214 -7q-51 0 -81.5 30.5t-30.5 96.5v387h-80v16h80v119h18v-119h154v-16h-154v-387q0 -59 26 -85t68 -26q21 0 37 3t30 8v-16q-13 -5 -28.5 -8t-38.5 -3zM242 773h19l-15 -147h-17z" />
    <glyph glyph-name="Tbar" unicode="&#x166;" horiz-adv-x="557" 
d="M109 412h160v286h-238v17h495v-17h-238v-286h161v-16h-161v-396h-19v396h-160v16z" />
    <glyph glyph-name="tbar" unicode="&#x167;" horiz-adv-x="319" 
d="M22 343h80v164h-80v16h80v119h18v-119h154v-16h-154v-164h154v-16h-154v-207q0 -59 26 -85t68 -26q21 0 37 3t30 8v-16q-13 -5 -28.5 -8t-38.5 -3q-51 0 -81.5 30.5t-30.5 96.5v207h-80v16z" />
    <glyph glyph-name="Utilde" unicode="&#x168;" horiz-adv-x="666" 
d="M334 -4q-117 0 -186 64.5t-69 189.5v465h19v-464q0 -118 62 -178t174 -60q123 0 178.5 64.5t55.5 186.5v451h19v-454q0 -125 -62 -195t-191 -70zM404 773q-20 0 -38.5 10t-35.5 22.5t-33.5 22.5t-32.5 10q-21 0 -35.5 -15.5t-18.5 -47.5h-17q5 42 24.5 60.5t46.5 18.5
q19 0 37 -10t35.5 -22.5t34 -22.5t33.5 -10q20 0 34.5 15.5t18.5 47.5h17q-5 -42 -24.5 -60.5t-45.5 -18.5z" />
    <glyph glyph-name="utilde" unicode="&#x169;" horiz-adv-x="561" 
d="M262 -7q-43 0 -77.5 11t-59 35t-37.5 62t-13 92v330h18v-330q0 -50 12 -85t34 -57t53 -32t70 -10q37 0 73 12.5t64.5 36.5t46 60.5t17.5 84.5v320h18v-523h-18v121q-9 -26 -27.5 -49t-44.5 -40.5t-58.5 -28t-70.5 -10.5zM352 613q-20 0 -38.5 10t-36 22t-34 22t-32.5 10
q-19 0 -34 -15.5t-19 -47.5h-17q5 42 24.5 60.5t46.5 18.5q19 0 37.5 -10t36 -22t34.5 -22t33 -10q18 0 33 15.5t19 47.5h17q-5 -42 -24.5 -60.5t-45.5 -18.5z" />
    <glyph glyph-name="Umacron" unicode="&#x16a;" horiz-adv-x="666" 
d="M334 -4q-117 0 -186 64.5t-69 189.5v465h19v-464q0 -118 62 -178t174 -60q123 0 178.5 64.5t55.5 186.5v451h19v-454q0 -125 -62 -195t-191 -70zM220 814h226v-17h-226v17z" />
    <glyph glyph-name="umacron" unicode="&#x16b;" horiz-adv-x="561" 
d="M262 -7q-43 0 -77.5 11t-59 35t-37.5 62t-13 92v330h18v-330q0 -50 12 -85t34 -57t53 -32t70 -10q37 0 73 12.5t64.5 36.5t46 60.5t17.5 84.5v320h18v-523h-18v121q-9 -26 -27.5 -49t-44.5 -40.5t-58.5 -28t-70.5 -10.5zM171 663h219v-17h-219v17z" />
    <glyph glyph-name="Ubreve" unicode="&#x16c;" horiz-adv-x="666" 
d="M334 -4q-117 0 -186 64.5t-69 189.5v465h19v-464q0 -118 62 -178t174 -60q123 0 178.5 64.5t55.5 186.5v451h19v-454q0 -125 -62 -195t-191 -70zM332 775q-48 0 -81.5 31.5t-37.5 80.5h18q3 -42 32 -69t69 -27q39 0 69 27.5t34 68.5h18q-2 -24 -12.5 -44.5t-27 -35.5
t-37.5 -23.5t-44 -8.5z" />
    <glyph glyph-name="ubreve" unicode="&#x16d;" horiz-adv-x="561" 
d="M262 -7q-43 0 -77.5 11t-59 35t-37.5 62t-13 92v330h18v-330q0 -50 12 -85t34 -57t53 -32t70 -10q37 0 73 12.5t64.5 36.5t46 60.5t17.5 84.5v320h18v-523h-18v121q-9 -26 -27.5 -49t-44.5 -40.5t-58.5 -28t-70.5 -10.5zM280 612q-48 0 -77.5 29.5t-33.5 78.5h18
q3 -42 28 -67t65 -25q39 0 65 25t30 67h18q-4 -49 -35 -78.5t-78 -29.5z" />
    <glyph glyph-name="Uring" unicode="&#x16e;" horiz-adv-x="666" 
d="M334 -4q-117 0 -186 64.5t-69 189.5v465h19v-464q0 -118 62 -178t174 -60q123 0 178.5 64.5t55.5 186.5v451h19v-454q0 -125 -62 -195t-191 -70zM333 735q30 0 50.5 20.5t20.5 49.5q0 31 -20.5 51t-50.5 20q-29 0 -49.5 -20t-20.5 -51q0 -29 20.5 -49.5t49.5 -20.5z
M333 720q-18 0 -33.5 7t-27.5 18.5t-19 27t-7 32.5q0 18 7 33.5t19 27t27.5 18.5t33.5 7t34 -7t28 -18.5t19 -27t7 -33.5q0 -35 -25.5 -60t-62.5 -25z" />
    <glyph glyph-name="uring" unicode="&#x16f;" horiz-adv-x="561" 
d="M262 -7q-43 0 -77.5 11t-59 35t-37.5 62t-13 92v330h18v-330q0 -50 12 -85t34 -57t53 -32t70 -10q37 0 73 12.5t64.5 36.5t46 60.5t17.5 84.5v320h18v-523h-18v121q-9 -26 -27.5 -49t-44.5 -40.5t-58.5 -28t-70.5 -10.5zM281 619q30 0 50.5 20.5t20.5 49.5q0 31 -20.5 51
t-50.5 20q-29 0 -49.5 -20t-20.5 -51q0 -29 20.5 -49.5t49.5 -20.5zM281 604q-18 0 -33.5 7t-27.5 18.5t-19 27t-7 32.5q0 18 7 33.5t19 27t27.5 18.5t33.5 7t34 -7t28 -18.5t19 -27t7 -33.5q0 -35 -25.5 -60t-62.5 -25z" />
    <glyph glyph-name="Uhungarumlaut" unicode="&#x170;" horiz-adv-x="666" 
d="M334 -4q-117 0 -186 64.5t-69 189.5v465h19v-464q0 -118 62 -178t174 -60q123 0 178.5 64.5t55.5 186.5v451h19v-454q0 -125 -62 -195t-191 -70zM324 888h20l-57 -117h-17zM430 888h20l-57 -117h-17z" />
    <glyph glyph-name="uhungarumlaut" unicode="&#x171;" horiz-adv-x="561" 
d="M262 -7q-43 0 -77.5 11t-59 35t-37.5 62t-13 92v330h18v-330q0 -50 12 -85t34 -57t53 -32t70 -10q37 0 73 12.5t64.5 36.5t46 60.5t17.5 84.5v320h18v-523h-18v121q-9 -26 -27.5 -49t-44.5 -40.5t-58.5 -28t-70.5 -10.5zM284 743h20l-62 -147h-17zM390 743h20l-62 -147
h-17z" />
    <glyph glyph-name="Uogonek" unicode="&#x172;" horiz-adv-x="666" 
d="M378 -182q-40 0 -60.5 20.5t-20.5 49.5q0 33 23 62t58 48q-9 -1 -21.5 -1.5t-22.5 -0.5q-117 0 -186 64.5t-69 189.5v465h19v-464q0 -118 62 -178t174 -60q123 0 178.5 64.5t55.5 186.5v451h19v-454q0 -93 -34 -156.5t-104 -89.5q-27 -10 -51 -22.5t-42 -28t-29 -34.5
t-11 -42t14.5 -38t47.5 -15q24 0 48 9v-17q-10 -4 -22 -6.5t-26 -2.5z" />
    <glyph glyph-name="uogonek" unicode="&#x173;" horiz-adv-x="561" 
d="M461 -182q-40 0 -60.5 20.5t-20.5 49.5q0 18 7 34.5t19 31.5t27 28t30 23v116q-9 -26 -27.5 -49t-44.5 -40.5t-58.5 -28t-70.5 -10.5q-43 0 -77.5 11t-59 35t-37.5 62t-13 92v330h18v-330q0 -50 12 -85t34 -57t53 -32t70 -10q37 0 73 12.5t64.5 36.5t46 60.5t17.5 84.5
v320h18v-523q-39 -26 -61 -53.5t-22 -58.5q0 -23 15 -38.5t48 -15.5q24 0 48 9v-16q-10 -4 -22 -6.5t-26 -2.5z" />
    <glyph glyph-name="Wcircumflex" unicode="&#x174;" horiz-adv-x="910" 
d="M31 715h19l186 -692l213 692h13l198 -694l202 694h17l-208 -715h-24l-192 676l-208 -676h-23zM446 888h20l111 -117h-20l-101 101l-103 -101h-20z" />
    <glyph glyph-name="wcircumflex" unicode="&#x175;" horiz-adv-x="755" 
d="M30 523h19l160 -502l162 502h14l160 -502l162 502h18l-168 -523h-24l-155 491l-158 -491h-24zM370 720h20l110 -124h-20l-100 108l-102 -108h-20z" />
    <glyph glyph-name="Ycircumflex" unicode="&#x176;" horiz-adv-x="554" 
d="M275 325l-253 390h21l242 -372l227 372h20l-238 -390v-325h-19v325zM275 888h20l111 -117h-20l-101 101l-103 -101h-20z" />
    <glyph glyph-name="ycircumflex" unicode="&#x177;" horiz-adv-x="483" 
d="M235 35l-209 488h19l200 -467l193 467h19l-293 -705h-19zM236 720h20l110 -124h-20l-100 108l-102 -108h-20z" />
    <glyph glyph-name="Ydieresis" unicode="&#x178;" horiz-adv-x="554" 
d="M275 325l-253 390h21l242 -372l227 372h20l-238 -390v-325h-19v325zM207 787q-8 0 -12.5 5t-4.5 12t4.5 12t12.5 5t12.5 -5t4.5 -12t-4.5 -12t-12.5 -5zM361 787q-8 0 -12.5 5t-4.5 12t4.5 12t12.5 5t12.5 -5t4.5 -12t-4.5 -12t-12.5 -5z" />
    <glyph glyph-name="Zacute" unicode="&#x179;" horiz-adv-x="577" 
d="M26 7l487 691h-451v17h480v-7l-487 -691h481v-17h-510v7zM356 888h21l-76 -117h-18z" />
    <glyph glyph-name="zacute" unicode="&#x17a;" horiz-adv-x="463" 
d="M27 5l376 502h-346v16h376v-5l-376 -502h367v-16h-397v5zM300 743h20l-78 -147h-17z" />
    <glyph glyph-name="Zdotaccent" unicode="&#x17b;" horiz-adv-x="577" 
d="M26 7l487 691h-451v17h480v-7l-487 -691h481v-17h-510v7zM299 787q-8 0 -12.5 5t-4.5 12t4.5 12t12.5 5t12.5 -5t4.5 -12t-4.5 -12t-12.5 -5z" />
    <glyph glyph-name="zdotaccent" unicode="&#x17c;" horiz-adv-x="463" 
d="M27 5l376 502h-346v16h376v-5l-376 -502h367v-16h-397v5zM243 639q-8 0 -12.5 5t-4.5 12t4.5 12t12.5 5t12.5 -5t4.5 -12t-4.5 -12t-12.5 -5z" />
    <glyph glyph-name="Zcaron" unicode="&#x17d;" horiz-adv-x="577" 
d="M26 7l487 691h-451v17h480v-7l-487 -691h481v-17h-510v7zM175 888h20l103 -101l105 101h20l-115 -117h-20z" />
    <glyph glyph-name="zcaron" unicode="&#x17e;" horiz-adv-x="463" 
d="M27 5l376 502h-346v16h376v-5l-376 -502h367v-16h-397v5zM122 737h20l100 -108l102 108h20l-112 -124h-20z" />
    <glyph glyph-name="florin" unicode="&#x192;" horiz-adv-x="369" 
d="M30 391h91l27 177q7 45 21 75t34 48t45 25.5t52 7.5q23 0 39 -3.5t29 -7.5v-17q-11 4 -28 8t-40 4q-24 0 -46 -6.5t-39 -22.5t-30 -43t-19 -68l-27 -177h160v-16h-163l-85 -557h-18l85 557h-88v16z" />
    <glyph glyph-name="Aringacute" unicode="&#x1fa;" horiz-adv-x="630" 
d="M300 715h26l274 -715h-19l-90 235h-354l-89 -235h-18zM143 252h341l-171 448zM307 764q30 0 50.5 20.5t20.5 49.5q0 31 -20.5 51t-50.5 20q-29 0 -49.5 -20t-20.5 -51q0 -29 20.5 -49.5t49.5 -20.5zM307 749q-18 0 -33.5 7t-27.5 18.5t-19 27t-7 32.5q0 18 7 33.5t19 27
t27.5 18.5t33.5 7t34 -7t28 -18.5t19 -27t7 -33.5q0 -35 -25.5 -60t-62.5 -25zM364 1068h21l-76 -117h-18z" />
    <glyph glyph-name="aringacute" unicode="&#x1fb;" horiz-adv-x="515" 
d="M228 -7q-84 0 -132.5 37.5t-48.5 106.5q0 45 18 75t49 48t72 25t87 7h149v55q0 87 -38 127t-119 40q-66 0 -115 -31t-62 -100h-17q5 37 22.5 64.5t43.5 46t59 27.5t69 9q91 0 133 -47.5t42 -135.5v-347h-18v96q-10 -20 -27.5 -38.5t-42 -33t-56 -23t-68.5 -8.5zM228 9
q39 0 74 12t62 31.5t42.5 45.5t15.5 54v124h-149q-43 0 -80.5 -5.5t-66 -21t-45 -42.5t-16.5 -70q0 -63 43 -95.5t120 -32.5zM265 619q30 0 50.5 20.5t20.5 49.5q0 31 -20.5 51t-50.5 20q-29 0 -49.5 -20t-20.5 -51q0 -29 20.5 -49.5t49.5 -20.5zM265 604q-18 0 -33.5 7
t-27.5 18.5t-19 27t-7 32.5q0 18 7 33.5t19 27t27.5 18.5t33.5 7t34 -7t28 -18.5t19 -27t7 -33.5q0 -35 -25.5 -60t-62.5 -25zM322 948h21l-76 -117h-18z" />
    <glyph glyph-name="AEacute" unicode="&#x1fc;" horiz-adv-x="941" 
d="M383 715h490v-17h-384v-320h313v-17h-313v-344h402v-17h-421v235h-304l-117 -235h-21zM174 252h296v446h-74zM663 888h21l-76 -117h-18z" />
    <glyph glyph-name="aeacute" unicode="&#x1fd;" horiz-adv-x="918" 
d="M664 -7q-90 0 -146 46t-78 123q-4 -41 -23.5 -72t-48.5 -53t-65.5 -33t-73.5 -11q-84 0 -133 36.5t-49 105.5q0 45 17.5 74.5t48 46.5t71.5 23.5t87 6.5h155v61q0 87 -39.5 127t-120.5 40q-33 0 -62.5 -7.5t-53 -23.5t-40 -41t-22.5 -59h-17q5 37 22.5 64.5t44 46
t59.5 27.5t69 9q87 0 129 -43t46 -123q23 76 80 121t136 45q49 0 90 -17t69.5 -49t44.5 -78t16 -105v-11h-433q0 -123 55.5 -192t164.5 -69q70 0 121 33t70 99h18q-20 -71 -75 -109.5t-134 -38.5zM229 9q39 0 74.5 12t63 34.5t43.5 54t16 69.5v91h-155q-43 0 -80.5 -5
t-65.5 -19.5t-44 -41t-16 -69.5q0 -63 43.5 -94.5t120.5 -31.5zM859 286q-2 112 -56.5 170t-145.5 58q-45 0 -83 -16t-66 -46t-45 -72t-19 -94h415zM522 743h20l-78 -147h-17z" />
    <glyph glyph-name="Oslashacute" unicode="&#x1fe;" horiz-adv-x="790" 
d="M49 -3l96 107q-45 48 -70 112t-25 137v8q0 76 27 142t73.5 114.5t109.5 76t135 27.5q66 0 123.5 -23t103.5 -64l90 101l12 -11l-90 -101q49 -48 77.5 -114.5t28.5 -144.5v-8q0 -76 -27 -142t-73.5 -115t-109 -77t-133.5 -28q-72 0 -133 26t-108 72l-95 -106zM397 11
q69 0 128 26.5t102.5 73t68.5 109.5t25 136v8q0 74 -26 137t-73 110l-454 -506q44 -45 102 -69.5t127 -24.5zM69 353q0 -69 22.5 -129.5t64.5 -106.5l454 505q-42 38 -97 60t-118 22q-70 0 -130 -26.5t-103.5 -72.5t-68 -109t-24.5 -135v-8zM452 888h21l-76 -117h-18z" />
    <glyph glyph-name="oslashacute" unicode="&#x1ff;" horiz-adv-x="576" 
d="M41 -1l66 75q-31 35 -48.5 81t-17.5 102v8q0 59 20.5 107.5t54.5 83.5t79 54t95 19q48 0 90 -17t75 -48l62 69l12 -10l-63 -70q32 -35 50.5 -82t18.5 -105v-8q0 -59 -20 -108t-54 -84t-79 -54t-95 -19q-49 0 -92 18t-77 51l-65 -73zM288 9q45 0 86.5 17t73 49.5
t50.5 78.5t19 104v8q0 56 -16.5 99.5t-44.5 75.5l-327 -366q32 -32 73 -49t86 -17zM59 257q0 -53 16 -96t43 -75l326 366q-31 30 -70.5 45.5t-83.5 15.5q-45 0 -87 -17t-74 -49t-51 -78t-19 -104v-8zM345 743h20l-78 -147h-17z" />
    <glyph glyph-name="Scommaaccent" unicode="&#x218;" horiz-adv-x="572" 
d="M292 -6q-60 0 -105.5 15t-77 41.5t-49.5 62t-24 77.5h19q6 -36 22 -68.5t44.5 -57t70.5 -39t100 -14.5q51 0 90.5 13.5t66.5 37t40.5 55.5t13.5 69q0 45 -12 75.5t-37.5 51t-66.5 32.5t-98 20q-61 9 -103.5 24t-68.5 37t-38 51.5t-12 65.5q0 42 15.5 75t44.5 56t69 35
t90 12q92 0 144.5 -42.5t66.5 -116.5h-19q-13 66 -59 104t-133 38q-93 0 -146.5 -40t-53.5 -121q0 -33 11 -59.5t35 -46t63.5 -33t96.5 -21.5q61 -9 104.5 -22t71.5 -35.5t41 -56t13 -83.5q0 -39 -15 -74t-44.5 -61.5t-72.5 -41.5t-98 -15zM223 -180l58 134l19 -4l-62 -136z
" />
    <glyph glyph-name="scommaaccent" unicode="&#x219;" horiz-adv-x="448" 
d="M231 -9q-90 0 -140 45.5t-57 114.5h17q4 -31 17 -57t35.5 -45.5t54 -30.5t73.5 -11q37 0 66 10t49 27t30.5 40.5t10.5 49.5q0 31 -7.5 51.5t-25.5 35t-47.5 23.5t-73.5 17q-45 8 -78.5 18t-56 25.5t-33.5 38t-11 56.5q0 29 12.5 53t35 41t53.5 26.5t67 9.5
q71 0 116.5 -31t56.5 -100h-17q-11 60 -51 87.5t-106 27.5q-67 0 -108.5 -31t-41.5 -83q0 -29 9.5 -48.5t29.5 -33t51.5 -23t76.5 -17.5q44 -8 75.5 -18.5t52 -26.5t30.5 -40t10 -58q0 -29 -12 -55t-34.5 -45.5t-55 -31t-73.5 -11.5zM169 -180l58 134l19 -4l-62 -136z" />
    <glyph glyph-name="uni021A" unicode="&#x21a;" horiz-adv-x="557" 
d="M269 698h-238v17h495v-17h-238v-698h-19v698zM220 -180l58 134l19 -4l-62 -136z" />
    <glyph glyph-name="uni021B" unicode="&#x21b;" horiz-adv-x="319" 
d="M214 -7q-51 0 -81.5 30.5t-30.5 96.5v387h-80v16h80v119h18v-119h154v-16h-154v-387q0 -59 26 -85t68 -26q21 0 37 3t30 8v-16q-13 -5 -28.5 -8t-38.5 -3zM116 -180l58 134l19 -4l-62 -136z" />
    <glyph glyph-name="uni0237" unicode="&#x237;" horiz-adv-x="182" 
d="M5 -168q44 4 60.5 27.5t16.5 74.5v589h18v-589q0 -60 -21 -88t-74 -30v16z" />
    <glyph glyph-name="circumflex" unicode="&#x2c6;" horiz-adv-x="400" 
d="M191 720h20l110 -124h-20l-100 108l-102 -108h-20z" />
    <glyph glyph-name="caron" unicode="&#x2c7;" horiz-adv-x="400" 
d="M79 737h20l100 -108l102 108h20l-112 -124h-20z" />
    <glyph glyph-name="breve" unicode="&#x2d8;" horiz-adv-x="400" 
d="M200 612q-48 0 -77.5 29.5t-33.5 78.5h18q3 -42 28 -67t65 -25q39 0 65 25t30 67h18q-4 -49 -35 -78.5t-78 -29.5z" />
    <glyph glyph-name="dotaccent" unicode="&#x2d9;" horiz-adv-x="400" 
d="M200 639q-8 0 -12.5 5t-4.5 12t4.5 12t12.5 5t12.5 -5t4.5 -12t-4.5 -12t-12.5 -5z" />
    <glyph glyph-name="ring" unicode="&#x2da;" horiz-adv-x="400" 
d="M200 619q30 0 50.5 20.5t20.5 49.5q0 31 -20.5 51t-50.5 20q-29 0 -49.5 -20t-20.5 -51q0 -29 20.5 -49.5t49.5 -20.5zM200 604q-18 0 -33.5 7t-27.5 18.5t-19 27t-7 32.5q0 18 7 33.5t19 27t27.5 18.5t33.5 7t34 -7t28 -18.5t19 -27t7 -33.5q0 -35 -25.5 -60t-62.5 -25z
" />
    <glyph glyph-name="ogonek" unicode="&#x2db;" horiz-adv-x="400" 
d="M210 -182q-40 0 -60.5 20.5t-20.5 49.5q0 36 25.5 64t55.5 48h23q-41 -26 -63.5 -53t-22.5 -59q0 -23 15 -38.5t48 -15.5q24 0 48 9v-16q-10 -4 -22 -6.5t-26 -2.5z" />
    <glyph glyph-name="tilde" unicode="&#x2dc;" horiz-adv-x="400" 
d="M275 613q-20 0 -38.5 10t-36 22t-34 22t-32.5 10q-19 0 -34 -15.5t-19 -47.5h-17q5 42 24.5 60.5t46.5 18.5q19 0 37.5 -10t36 -22t34.5 -22t33 -10q18 0 33 15.5t19 47.5h17q-5 -42 -24.5 -60.5t-45.5 -18.5z" />
    <glyph glyph-name="hungarumlaut" unicode="&#x2dd;" horiz-adv-x="400" 
d="M190 743h20l-62 -147h-17zM296 743h20l-62 -147h-17z" />
    <glyph glyph-name="Wgrave" unicode="&#x1e80;" horiz-adv-x="910" 
d="M31 715h19l186 -692l213 692h13l198 -694l202 694h17l-208 -715h-24l-192 676l-208 -676h-23zM376 888h21l73 -117h-18z" />
    <glyph glyph-name="wgrave" unicode="&#x1e81;" horiz-adv-x="755" 
d="M30 523h19l160 -502l162 502h14l160 -502l162 502h18l-168 -523h-24l-155 491l-158 -491h-24zM297 743h20l75 -147h-17z" />
    <glyph glyph-name="Wacute" unicode="&#x1e82;" horiz-adv-x="910" 
d="M31 715h19l186 -692l213 692h13l198 -694l202 694h17l-208 -715h-24l-192 676l-208 -676h-23zM512 888h21l-76 -117h-18z" />
    <glyph glyph-name="wacute" unicode="&#x1e83;" horiz-adv-x="755" 
d="M30 523h19l160 -502l162 502h14l160 -502l162 502h18l-168 -523h-24l-155 491l-158 -491h-24zM436 743h20l-78 -147h-17z" />
    <glyph glyph-name="Wdieresis" unicode="&#x1e84;" horiz-adv-x="910" 
d="M31 715h19l186 -692l213 692h13l198 -694l202 694h17l-208 -715h-24l-192 676l-208 -676h-23zM378 787q-8 0 -12.5 5t-4.5 12t4.5 12t12.5 5t12.5 -5t4.5 -12t-4.5 -12t-12.5 -5zM532 787q-8 0 -12.5 5t-4.5 12t4.5 12t12.5 5t12.5 -5t4.5 -12t-4.5 -12t-12.5 -5z" />
    <glyph glyph-name="wdieresis" unicode="&#x1e85;" horiz-adv-x="755" 
d="M30 523h19l160 -502l162 502h14l160 -502l162 502h18l-168 -523h-24l-155 491l-158 -491h-24zM308 639q-8 0 -12.5 5t-4.5 12t4.5 12t12.5 5t12.5 -5t4.5 -12t-4.5 -12t-12.5 -5zM450 639q-8 0 -12.5 5t-4.5 12t4.5 12t12.5 5t12.5 -5t4.5 -12t-4.5 -12t-12.5 -5z" />
    <glyph glyph-name="Ygrave" unicode="&#x1ef2;" horiz-adv-x="554" 
d="M275 325l-253 390h21l242 -372l227 372h20l-238 -390v-325h-19v325zM205 888h21l73 -117h-18z" />
    <glyph glyph-name="ygrave" unicode="&#x1ef3;" horiz-adv-x="483" 
d="M235 35l-209 488h19l200 -467l193 467h19l-293 -705h-19zM163 743h20l75 -147h-17z" />
    <glyph glyph-name="endash" unicode="&#x2013;" horiz-adv-x="476" 
d="M48 287h380v-16h-380v16z" />
    <glyph glyph-name="emdash" unicode="&#x2014;" horiz-adv-x="850" 
d="M48 287h754v-16h-754v16z" />
    <glyph glyph-name="quoteleft" unicode="&#x2018;" horiz-adv-x="166" 
d="M45 582l62 136l15 -6l-59 -137z" />
    <glyph glyph-name="quoteright" unicode="&#x2019;" horiz-adv-x="166" 
d="M44 581l59 137l18 -7l-62 -136z" />
    <glyph glyph-name="quotesinglbase" unicode="&#x201a;" horiz-adv-x="166" 
d="M44 -49l59 137l18 -7l-62 -136z" />
    <glyph glyph-name="quotedblleft" unicode="&#x201c;" horiz-adv-x="262" 
d="M45 582l62 136l15 -6l-59 -137zM141 582l62 136l15 -6l-59 -137z" />
    <glyph glyph-name="quotedblright" unicode="&#x201d;" horiz-adv-x="262" 
d="M44 581l59 137l18 -7l-62 -136zM140 581l59 137l18 -7l-62 -136z" />
    <glyph glyph-name="quotedblbase" unicode="&#x201e;" horiz-adv-x="262" 
d="M44 -49l59 137l18 -7l-62 -136zM140 -49l59 137l18 -7l-62 -136z" />
    <glyph glyph-name="dagger" unicode="&#x2020;" horiz-adv-x="320" 
d="M151 556h-122v16h122v143h18v-143h122v-16h-122v-326h-18v326z" />
    <glyph glyph-name="daggerdbl" unicode="&#x2021;" horiz-adv-x="320" 
d="M151 556h-122v16h122v143h18v-143h122v-16h-122v-167h122v-16h-122v-143h-18v143h-122v16h122v167z" />
    <glyph glyph-name="bullet" unicode="&#x2022;" horiz-adv-x="298" 
d="M149 210q-40 0 -67 27.5t-27 66.5t27 66.5t67 27.5q41 0 67.5 -27.5t26.5 -66.5t-26.5 -66.5t-67.5 -27.5z" />
    <glyph glyph-name="ellipsis" unicode="&#x2026;" horiz-adv-x="568" 
d="M83 -5q-8 0 -12.5 5t-4.5 12t4.5 12t12.5 5t12.5 -5t4.5 -12t-4.5 -12t-12.5 -5zM284 -5q-8 0 -12.5 5t-4.5 12t4.5 12t12.5 5t12.5 -5t4.5 -12t-4.5 -12t-12.5 -5zM485 -5q-8 0 -12.5 5t-4.5 12t4.5 12t12.5 5t12.5 -5t4.5 -12t-4.5 -12t-12.5 -5z" />
    <glyph glyph-name="perthousand" unicode="&#x2030;" horiz-adv-x="1090" 
d="M195 431q26 0 49.5 9t41.5 26.5t28.5 43t10.5 57.5q0 31 -10.5 56.5t-28 43t-41 27t-50.5 9.5q-26 0 -49 -9.5t-41 -27.5t-28.5 -43.5t-10.5 -57.5t10.5 -56.5t28.5 -42t41.5 -26.5t48.5 -9zM195 415q-29 0 -55.5 10t-46.5 29.5t-32.5 47.5t-12.5 63t12 63.5t32 48.5
t47 31t56 11q30 0 57 -11t47.5 -31t32 -48t11.5 -62q0 -36 -12 -64.5t-32.5 -48t-47.5 -29.5t-56 -10zM600 715h20l-477 -715h-20zM547 11q26 0 49.5 9t41.5 26.5t28.5 43t10.5 57.5q0 31 -10.5 56.5t-28 43t-41 27t-50.5 9.5q-26 0 -49 -9.5t-41 -27.5t-28.5 -43.5
t-10.5 -57.5t10.5 -56.5t28.5 -42t41.5 -26.5t48.5 -9zM547 -5q-29 0 -55.5 10t-46.5 29.5t-32.5 47.5t-12.5 63t12 63.5t32 48.5t47 31t56 11q30 0 57 -11t47.5 -31t32 -48t11.5 -62q0 -36 -12 -64.5t-32.5 -48t-47.5 -29.5t-56 -10zM894 11q26 0 49.5 9t41.5 26.5t28.5 43
t10.5 57.5q0 31 -10.5 56.5t-28 43t-41 27t-50.5 9.5q-26 0 -49 -9.5t-41 -27.5t-28.5 -43.5t-10.5 -57.5t10.5 -56.5t28.5 -42t41.5 -26.5t48.5 -9zM894 -5q-29 0 -55.5 10t-46.5 29.5t-32.5 47.5t-12.5 63t12 63.5t32 48.5t47 31t56 11q30 0 57 -11t47.5 -31t32 -48
t11.5 -62q0 -36 -12 -64.5t-32.5 -48t-47.5 -29.5t-56 -10z" />
    <glyph glyph-name="uni2032" unicode="&#x2032;" horiz-adv-x="130" 
d="M75 715h20l-38 -167h-17z" />
    <glyph glyph-name="uni2033" unicode="&#x2033;" horiz-adv-x="223" 
d="M75 715h20l-38 -167h-17zM168 715h20l-38 -167h-17z" />
    <glyph glyph-name="guilsinglleft" unicode="&#x2039;" horiz-adv-x="253" 
d="M49 261l140 178h21l-140 -178l140 -178h-21z" />
    <glyph glyph-name="guilsinglright" unicode="&#x203a;" horiz-adv-x="253" 
d="M183 261l-140 178h21l140 -178l-140 -178h-21z" />
    <glyph glyph-name="fraction" unicode="&#x2044;" horiz-adv-x="113" 
d="M310 715h20l-527 -715h-20z" />
    <glyph glyph-name="Euro" unicode="&#x20ac;" horiz-adv-x="636" 
d="M31 435h65q1 64 19 117t51 90.5t79.5 58t106.5 20.5q103 0 158 -52t67 -140h-18q-12 81 -62 128t-145 47q-56 0 -99.5 -19t-73.5 -54.5t-46.5 -85t-17.5 -110.5h268l-3 -16h-265v-120h242l-3 -16h-239q1 -62 16.5 -112.5t45.5 -86t74 -54.5t101 -19q99 0 152 52.5
t66 139.5h17q-13 -98 -72.5 -153.5t-162.5 -55.5q-62 0 -109 20.5t-79 58.5t-49.5 91t-18.5 119h-65v16h65v120h-65v16z" />
    <glyph glyph-name="trademark" unicode="&#x2122;" horiz-adv-x="627" 
d="M302 715h27l114 -273l114 273h27v-307h-18v285l-120 -285h-7l-120 285v-285h-17v307zM124 699h-98v16h214v-16h-98v-291h-18v291z" />
    <glyph glyph-name="onethird" unicode="&#x2153;" horiz-adv-x="680" 
d="M123 690l-95 -68v19l103 74h10v-345h-18v320zM550 715h20l-527 -715h-20zM525 -2q-57 0 -90 29.5t-36 68.5h18q4 -32 31 -57t77 -25q45 0 70 21.5t25 60.5q0 33 -23 55.5t-65 22.5h-27v16h25q39 0 58.5 21t19.5 50q0 33 -23.5 53t-61.5 20q-45 0 -67.5 -23.5t-26.5 -55.5
h-17q3 38 31.5 66t79.5 28q46 0 74.5 -25t28.5 -63q0 -31 -17 -51t-44 -27q30 -6 51.5 -28.5t21.5 -58.5q0 -47 -31 -72.5t-82 -25.5z" />
    <glyph glyph-name="twothirds" unicode="&#x2154;" horiz-adv-x="723" 
d="M27 377l131 126q39 38 56 64t17 57q0 38 -24 58.5t-61 20.5q-43 0 -66 -25t-28 -67h-17q4 51 33.5 79t77.5 28q47 0 75 -26t28 -68q0 -18 -4.5 -33.5t-14 -30.5t-24.5 -31.5t-36 -36.5l-111 -106h194v-16h-226v7zM616 715h20l-527 -715h-20zM570 -2q-57 0 -90 29.5
t-36 68.5h18q4 -32 31 -57t77 -25q45 0 70 21.5t25 60.5q0 33 -23 55.5t-65 22.5h-27v16h25q39 0 58.5 21t19.5 50q0 33 -23.5 53t-61.5 20q-45 0 -67.5 -23.5t-26.5 -55.5h-17q3 38 31.5 66t79.5 28q46 0 74.5 -25t28.5 -63q0 -31 -17 -51t-44 -27q30 -6 51.5 -28.5
t21.5 -58.5q0 -47 -31 -72.5t-82 -25.5z" />
    <glyph glyph-name="oneeighth" unicode="&#x215b;" horiz-adv-x="675" 
d="M116 690l-95 -68v19l103 74h10v-345h-18v320zM555 715h20l-527 -715h-20zM515 -2q-52 0 -87 24t-35 73q0 38 25.5 60.5t60.5 29.5q-28 7 -49.5 27.5t-21.5 51.5q0 19 8.5 35t23.5 27t34.5 17t40.5 6q43 0 74.5 -23t31.5 -61q0 -32 -20 -52.5t-48 -27.5q35 -8 59 -29.5
t24 -59.5q0 -50 -34 -74t-87 -24zM515 14q46 0 74.5 20t28.5 62q0 39 -29.5 60t-72.5 21t-74 -21.5t-31 -60.5q0 -42 30 -61.5t74 -19.5zM516 193q35 0 61 18.5t26 53.5q0 30 -25 49t-63 19t-63.5 -18.5t-25.5 -50.5q0 -17 8 -30.5t21 -22.5t29 -13.5t32 -4.5z" />
    <glyph glyph-name="threeeighths" unicode="&#x215c;" horiz-adv-x="715" 
d="M156 367q-57 0 -90 29.5t-36 68.5h18q4 -32 31 -57t77 -25q45 0 70 21.5t25 60.5q0 33 -23 55.5t-65 22.5h-27v16h25q39 0 58.5 21t19.5 50q0 33 -23.5 53t-61.5 20q-45 0 -67.5 -23.5t-26.5 -55.5h-17q3 38 31.5 66t79.5 28q46 0 74.5 -25t28.5 -63q0 -31 -17 -51
t-44 -27q30 -6 51.5 -28.5t21.5 -58.5q0 -47 -31 -72.5t-82 -25.5zM607 715h20l-527 -715h-20zM555 -2q-52 0 -87 24t-35 73q0 38 25.5 60.5t60.5 29.5q-28 7 -49.5 27.5t-21.5 51.5q0 19 8.5 35t23.5 27t34.5 17t40.5 6q43 0 74.5 -23t31.5 -61q0 -32 -20 -52.5t-48 -27.5
q35 -8 59 -29.5t24 -59.5q0 -50 -34 -74t-87 -24zM555 14q46 0 74.5 20t28.5 62q0 39 -29.5 60t-72.5 21t-74 -21.5t-31 -60.5q0 -42 30 -61.5t74 -19.5zM556 193q35 0 61 18.5t26 53.5q0 30 -25 49t-63 19t-63.5 -18.5t-25.5 -50.5q0 -17 8 -30.5t21 -22.5t29 -13.5
t32 -4.5z" />
    <glyph glyph-name="fiveeighths" unicode="&#x215d;" horiz-adv-x="699" 
d="M141 367q-51 0 -79.5 27t-32.5 62h18q5 -29 28 -51t66 -22q45 0 70.5 26.5t25.5 71.5q0 44 -26.5 70.5t-63.5 26.5q-32 0 -55 -11.5t-36 -28.5h-8v177h187v-16h-170v-135q11 11 33.5 20.5t50.5 9.5q45 0 75.5 -30.5t30.5 -82.5q0 -54 -31.5 -84t-82.5 -30zM590 715h20
l-527 -715h-20zM538 -2q-52 0 -87 24t-35 73q0 38 25.5 60.5t60.5 29.5q-28 7 -49.5 27.5t-21.5 51.5q0 19 8.5 35t23.5 27t34.5 17t40.5 6q43 0 74.5 -23t31.5 -61q0 -32 -20 -52.5t-48 -27.5q35 -8 59 -29.5t24 -59.5q0 -50 -34 -74t-87 -24zM538 14q46 0 74.5 20t28.5 62
q0 39 -29.5 60t-72.5 21t-74 -21.5t-31 -60.5q0 -42 30 -61.5t74 -19.5zM539 193q35 0 61 18.5t26 53.5q0 30 -25 49t-63 19t-63.5 -18.5t-25.5 -50.5q0 -17 8 -30.5t21 -22.5t29 -13.5t32 -4.5z" />
    <glyph glyph-name="seveneighths" unicode="&#x215e;" horiz-adv-x="674" 
d="M231 699h-208v16h233v-4l-148 -341h-20zM551 715h20l-527 -715h-20zM514 -2q-52 0 -87 24t-35 73q0 38 25.5 60.5t60.5 29.5q-28 7 -49.5 27.5t-21.5 51.5q0 19 8.5 35t23.5 27t34.5 17t40.5 6q43 0 74.5 -23t31.5 -61q0 -32 -20 -52.5t-48 -27.5q35 -8 59 -29.5
t24 -59.5q0 -50 -34 -74t-87 -24zM514 14q46 0 74.5 20t28.5 62q0 39 -29.5 60t-72.5 21t-74 -21.5t-31 -60.5q0 -42 30 -61.5t74 -19.5zM515 193q35 0 61 18.5t26 53.5q0 30 -25 49t-63 19t-63.5 -18.5t-25.5 -50.5q0 -17 8 -30.5t21 -22.5t29 -13.5t32 -4.5z" />
    <glyph glyph-name="minus" unicode="&#x2212;" horiz-adv-x="500" 
d="M37 350h426v-16h-426v16z" />
    <glyph glyph-name="approxequal" unicode="&#x2248;" horiz-adv-x="491" 
d="M35 196q5 33 27.5 58t67.5 25q29 0 58.5 -10t58.5 -22.5t58 -22.5t57 -10q36 0 54 21t22 46h18q-5 -33 -27.5 -58t-67.5 -25q-29 0 -58.5 10t-58.5 22.5t-58 22.5t-57 10q-36 0 -54 -21t-22 -46h-18zM35 351q5 33 27.5 58t67.5 25q29 0 58.5 -10t58.5 -22.5t58 -22.5
t57 -10q36 0 54 21t22 46h18q-5 -33 -27.5 -58t-67.5 -25q-29 0 -58.5 10t-58.5 22.5t-58 22.5t-57 10q-36 0 -54 -21t-22 -46h-18z" />
    <glyph glyph-name="notequal" unicode="&#x2260;" horiz-adv-x="484" 
d="M40 401h233l65 133h18l-65 -133h153v-16h-160l-66 -136h226v-16h-234l-64 -133h-18l64 133h-152v16h160l66 136h-226v16z" />
    <glyph glyph-name="lessequal" unicode="&#x2264;" horiz-adv-x="487" 
d="M48 319v6l384 204v-19l-356 -188l356 -188v-19zM48 16h384v-16h-384v16z" />
    <glyph glyph-name="greaterequal" unicode="&#x2265;" horiz-adv-x="487" 
d="M55 134l356 188l-356 188v19l384 -204v-6l-384 -204v19zM55 16h384v-16h-384v16z" />
    <glyph glyph-name="uni24C5" unicode="&#x24c5;" horiz-adv-x="844" 
d="M319 571h107q64 0 103 -27t39 -90v-2q0 -64 -39 -91t-103 -27h-89v-188h-18v425zM426 350q57 0 90.5 23t33.5 79v2q0 55 -34 78t-90 23h-89v-205h89zM421 6q74 0 138 27t111.5 74.5t74.5 112t27 139.5q0 73 -26.5 137t-73.5 111t-110.5 74.5t-138.5 27.5
q-74 0 -138 -27.5t-111.5 -75t-74.5 -112t-27 -137.5q0 -75 27 -139t74.5 -111t111 -74t136.5 -27zM421 -9q-76 0 -143 28t-116.5 77.5t-78 116t-28.5 144.5q0 76 28.5 143t78 117t117 78.5t144.5 28.5q78 0 145 -28.5t116 -78t77 -116t28 -142.5q0 -78 -28.5 -145.5
t-78 -117t-117 -77.5t-144.5 -28z" />
    <glyph glyph-name="f_i" unicode="&#xfb01;" horiz-adv-x="490" 
d="M109 507h-85v16h85v104q0 43 11.5 71.5t30 46t42 24.5t47.5 7q17 0 29.5 -2t23.5 -5v-17q-10 3 -23.5 5.5t-29.5 2.5q-21 0 -41.5 -6t-36.5 -21t-25.5 -40.5t-9.5 -65.5v-104h166v-16h-166v-507h-18v507zM390 523h18v-523h-18v523zM382 656q0 7 4.5 12t12.5 5t12.5 -5
t4.5 -12t-4.5 -12t-12.5 -5t-12.5 5t-4.5 12z" />
    <glyph glyph-name="f_l" unicode="&#xfb02;" horiz-adv-x="490" 
d="M109 507h-85v16h85v104q0 43 11.5 71.5t30 46t42 24.5t47.5 7q17 0 29.5 -2t23.5 -5v-17q-10 3 -23.5 5.5t-29.5 2.5q-21 0 -41.5 -6t-36.5 -21t-25.5 -40.5t-9.5 -65.5v-104h166v-16h-166v-507h-18v507zM390 773h18v-773h-18v773z" />
    <glyph glyph-name="space_uni0326" horiz-adv-x="400" 
d="M153 -180l58 134l19 -4l-62 -136z" />
    <glyph glyph-name="caron.alt" horiz-adv-x="256" 
d="M112 773h19l-15 -147h-17z" />
    <glyph glyph-name="space_uni0326.alt" horiz-adv-x="400" 
d="M178 617l62 136l15 -6l-58 -134z" />
    <glyph glyph-name="grave.uc" horiz-adv-x="400" 
d="M116 888h21l73 -117h-18z" />
    <glyph glyph-name="dieresis.uc" horiz-adv-x="400" 
d="M123 787q-8 0 -12.5 5t-4.5 12t4.5 12t12.5 5t12.5 -5t4.5 -12t-4.5 -12t-12.5 -5zM277 787q-8 0 -12.5 5t-4.5 12t4.5 12t12.5 5t12.5 -5t4.5 -12t-4.5 -12t-12.5 -5z" />
    <glyph glyph-name="macron.uc" horiz-adv-x="400" 
d="M87 814h226v-17h-226v17z" />
    <glyph glyph-name="acute.uc" horiz-adv-x="400" 
d="M263 888h21l-76 -117h-18z" />
    <glyph glyph-name="circumflex.uc" horiz-adv-x="400" 
d="M191 888h20l111 -117h-20l-101 101l-103 -101h-20z" />
    <glyph glyph-name="caron.uc" horiz-adv-x="400" 
d="M76 888h20l103 -101l105 101h20l-115 -117h-20z" />
    <glyph glyph-name="breve.uc" horiz-adv-x="400" 
d="M200 775q-48 0 -81.5 31.5t-37.5 80.5h18q3 -42 32 -69t69 -27q39 0 69 27.5t34 68.5h18q-2 -24 -12.5 -44.5t-27 -35.5t-37.5 -23.5t-44 -8.5z" />
    <glyph glyph-name="dotaccent.uc" horiz-adv-x="400" 
d="M200 787q-8 0 -12.5 5t-4.5 12t4.5 12t12.5 5t12.5 -5t4.5 -12t-4.5 -12t-12.5 -5z" />
    <glyph glyph-name="ring.uc" horiz-adv-x="400" 
d="M200 764q30 0 50.5 20.5t20.5 49.5q0 31 -20.5 51t-50.5 20q-29 0 -49.5 -20t-20.5 -51q0 -29 20.5 -49.5t49.5 -20.5zM200 749q-18 0 -33.5 7t-27.5 18.5t-19 27t-7 32.5q0 18 7 33.5t19 27t27.5 18.5t33.5 7t34 -7t28 -18.5t19 -27t7 -33.5q0 -35 -25.5 -60t-62.5 -25z
" />
    <glyph glyph-name="tilde.uc" horiz-adv-x="400" 
d="M275 773q-20 0 -38.5 10t-35.5 22.5t-33.5 22.5t-32.5 10q-21 0 -35.5 -15.5t-18.5 -47.5h-17q5 42 24.5 60.5t46.5 18.5q19 0 37 -10t35.5 -22.5t34 -22.5t33.5 -10q20 0 34.5 15.5t18.5 47.5h17q-5 -42 -24.5 -60.5t-45.5 -18.5z" />
    <glyph glyph-name="hungarumlaut.uc" horiz-adv-x="400" 
d="M185 888h20l-57 -117h-17zM291 888h20l-57 -117h-17z" />
    <glyph glyph-name="idotaccent" horiz-adv-x="182" 
d="M91 639q-8 0 -12.5 5t-4.5 12t4.5 12t12.5 5t12.5 -5t4.5 -12t-4.5 -12t-12.5 -5zM82 523h18v-523h-18v523z" />
    <glyph glyph-name="registered.alt" horiz-adv-x="844" 
d="M309 577h106q64 0 103 -25.5t39 -85.5v-2q0 -54 -31 -79.5t-83 -30.5l139 -203h-20l-138 201h-97v-201h-18v426zM415 368q57 0 90.5 21t33.5 75v2q0 54 -34 74.5t-90 20.5h-88v-193h88zM421 6q74 0 138 27t111.5 74.5t74.5 112t27 139.5q0 73 -26.5 137t-73.5 111
t-110.5 74.5t-138.5 27.5q-74 0 -138 -27.5t-111.5 -75t-74.5 -112t-27 -137.5q0 -75 27 -139t74.5 -111t111 -74t136.5 -27zM421 -9q-76 0 -143 28t-116.5 77.5t-78 116t-28.5 144.5q0 76 28.5 143t78 117t117 78.5t144.5 28.5q78 0 145 -28.5t116 -78t77 -116t28 -142.5
q0 -78 -28.5 -145.5t-78 -117t-117 -77.5t-144.5 -28z" />
    <glyph glyph-name="dollar.old" horiz-adv-x="564" 
d="M272 -6q-54 2 -95.5 17.5t-70 41t-45 59t-21.5 72.5h19q5 -34 19.5 -64.5t40.5 -54t63.5 -38t89.5 -16.5v345q-113 17 -160.5 59.5t-47.5 111.5q0 39 15 70.5t42.5 53.5t65.5 34.5t85 13.5v90h18v-90q85 -2 135 -43.5t63 -110.5h-19q-13 62 -56.5 98.5t-122.5 38.5v-311
q57 -9 99 -22t69 -34.5t40 -54t13 -80.5q0 -38 -14.5 -71.5t-42.5 -59t-69.5 -40.5t-94.5 -15v-129h-18v129zM492 180q0 43 -11.5 73t-36 49.5t-62.5 31.5t-92 20v-343q49 0 87 13t63.5 36t38.5 53.5t13 66.5zM83 527q0 -32 10 -56.5t32.5 -43.5t58.5 -32t88 -21v308
q-87 -2 -138 -41t-51 -114z" />
    <glyph glyph-name="Euro.old" horiz-adv-x="636" 
d="M30 422h63q1 62 18.5 113t49 87.5t77 56.5t103.5 20q100 0 153.5 -50t65.5 -136h-18q-11 79 -59.5 124t-141.5 45q-54 0 -96 -18.5t-71 -52.5t-45 -82t-17 -107h260l-3 -16h-257v-116h234l-3 -16h-231q2 -121 60 -192t169 -71q96 0 147.5 50.5t64.5 135.5h17
q-12 -95 -70.5 -149t-158.5 -54q-60 0 -105.5 20t-76.5 56.5t-48 88.5t-18 115h-63v16h63v116h-63v16z" />
    <glyph glyph-name="sterling.old" horiz-adv-x="581" 
d="M49 348h75q-11 36 -20 73.5t-9 83.5q0 45 15 80.5t42.5 61t65 39t82.5 13.5q94 0 143 -47t57 -123h-18q-10 72 -53.5 112.5t-128.5 40.5q-42 0 -76 -12.5t-58.5 -35.5t-38 -56t-13.5 -73q0 -46 9.5 -83t20.5 -74h240v-16h-235q10 -32 17 -65t7 -74q0 -30 -7 -55.5
t-18 -45.5h6q31 0 61.5 -12.5t61 -28t62.5 -28t65 -12.5q51 0 80 32.5t33 89.5h19q-4 -66 -40.5 -102.5t-91.5 -36.5q-36 0 -68.5 12.5t-63.5 28t-60 28t-58 12.5q-38 0 -61 -20.5t-28 -54.5h-20q5 31 25 56t56 33q13 21 20.5 47.5t7.5 56.5q0 40 -7.5 73.5t-17.5 65.5h-80
v16z" />
    <glyph glyph-name="yen.old" horiz-adv-x="508" 
d="M53 339h185l-215 355h21l210 -348l196 348h19l-200 -355h181v-16h-187v-116h187v-16h-187v-191h-19v191h-191v16h191v116h-191v16z" />
    <glyph glyph-name="zero.old" horiz-adv-x="605" 
d="M303 9q52 0 96 18.5t76 54t49.5 87.5t17.5 119v46q0 64 -18 115.5t-50.5 86.5t-76.5 54t-95 19t-95 -19t-76 -54.5t-50 -87t-18 -116.5v-46q0 -66 18 -117.5t50 -87t76 -54t96 -18.5zM302 -7q-56 0 -103.5 20.5t-81.5 58.5t-53 92t-19 122v46q0 68 19.5 122.5t53.5 92.5
t81 58t103 20q55 0 102.5 -19.5t82 -57t54 -91.5t19.5 -123v-46q0 -69 -19 -123.5t-53 -92.5t-81.5 -58.5t-104.5 -20.5z" />
    <glyph glyph-name="one.old" horiz-adv-x="331" 
d="M188 592l-167 -112v18l177 120h8v-618h-18v592z" />
    <glyph glyph-name="two.old" horiz-adv-x="510" 
d="M26 5l253 222q34 30 62 57t48 54t30.5 56t10.5 64q0 73 -45.5 112t-123.5 39q-77 0 -129 -45.5t-62 -128.5h-18q4 45 22 80t45.5 59.5t64 37.5t77.5 13q42 0 76 -11t59 -32.5t38.5 -52.5t13.5 -71q0 -37 -11.5 -68.5t-32 -60t-49 -56t-62.5 -56.5l-230 -201h402v-16h-439
v5z" />
    <glyph glyph-name="three.old" horiz-adv-x="533" 
d="M269 -102q-56 0 -99 16.5t-73 44t-46.5 63t-18.5 73.5h17q3 -36 18.5 -68.5t42.5 -57.5t66.5 -40t92.5 -15q45 0 82 11.5t63.5 34t41.5 57t15 79.5q0 35 -12.5 67t-37 56t-60 38.5t-81.5 14.5h-54v16h51q43 0 74 13t51 34t30 48.5t10 56.5q0 37 -12 68t-34 53.5t-54.5 35
t-72.5 12.5q-42 0 -75.5 -13t-58 -35.5t-39 -53t-18.5 -65.5h-17q3 39 20 72.5t44.5 58t64 38.5t79.5 14q44 0 79.5 -14t60 -39t38 -58.5t13.5 -73.5q0 -62 -35.5 -104.5t-93.5 -54.5q32 -5 60.5 -20.5t50.5 -39.5t34.5 -55.5t12.5 -69.5q0 -48 -16 -84.5t-45 -62
t-69.5 -38.5t-89.5 -13z" />
    <glyph glyph-name="four.old" horiz-adv-x="569" 
d="M408 76h-381v5l368 537h32v-525h99v-17h-99v-173h-19v173zM408 93v514l-352 -514h352z" />
    <glyph glyph-name="five.old" horiz-adv-x="527" 
d="M249 -102q-49 0 -88.5 14.5t-67.5 38.5t-44.5 56t-19.5 67h17q4 -31 19 -59.5t40.5 -51t61.5 -36t82 -13.5q100 0 156.5 58.5t56.5 160.5q0 48 -15.5 86.5t-41.5 65.5t-61.5 41t-75.5 14q-69 0 -115 -26.5t-73 -61.5h-8v366h372v-16h-355v-318q12 13 29.5 26t40.5 23
t50.5 16.5t58.5 6.5q44 0 83 -15t67.5 -44t45 -70.5t16.5 -93.5q0 -55 -16.5 -98.5t-46.5 -74t-73 -46.5t-95 -16z" />
    <glyph glyph-name="six.old" horiz-adv-x="547" 
d="M281 -7q-62 0 -105.5 20.5t-72 56.5t-41.5 85t-13 105v109q0 97 19.5 164.5t53.5 109t80 60t100 18.5q76 0 122.5 -38t58.5 -107h-18q-11 60 -52.5 94.5t-110.5 34.5q-50 0 -93 -17t-74.5 -57t-49.5 -104.5t-18 -158.5v-84q10 37 33 64.5t52.5 45.5t62.5 27t64 9
q57 0 99.5 -16.5t71 -46t42.5 -69t14 -85.5q0 -48 -16.5 -88.5t-46 -70t-71 -45.5t-91.5 -16zM281 9q48 0 86 15t65 42t41.5 64.5t14.5 82.5t-12.5 82t-38.5 63.5t-65.5 41t-92.5 14.5q-40 0 -77 -13t-66 -38t-46.5 -61t-17.5 -81q0 -36 11 -73.5t36 -68t65 -50.5t97 -20z
" />
    <glyph glyph-name="seven.old" horiz-adv-x="470" 
d="M431 602h-407v16h430v-5l-291 -710h-19z" />
    <glyph glyph-name="eight.old" horiz-adv-x="546" 
d="M273 -6q-47 0 -88.5 12.5t-73 37.5t-50 62t-18.5 87q0 39 13.5 70.5t37 55.5t56 40t70.5 23q-29 7 -55 20.5t-46 33.5t-31.5 48t-11.5 63q0 40 16.5 72t43.5 54.5t62.5 35t74.5 12.5t74.5 -12.5t63 -35t43.5 -54.5t16 -70q0 -36 -10.5 -64t-29 -49t-44 -34.5t-54.5 -19.5
q37 -7 68 -22.5t54 -38.5t36 -54.5t13 -71.5q0 -50 -18 -87.5t-49 -63t-73 -38t-90 -12.5zM273 10q46 0 84.5 11.5t67 34.5t44.5 57.5t16 81.5q0 43 -17 76.5t-46 56t-67 34t-80 11.5t-80.5 -12t-68.5 -34.5t-47.5 -56.5t-17.5 -77q0 -47 17 -81t46 -57t67.5 -34t81.5 -11z
M276 389q36 0 68 10t56 30t38 50t14 70q0 33 -14 61.5t-38 49.5t-56.5 33t-70.5 12t-70.5 -11.5t-56.5 -32.5t-38 -50t-14 -64q0 -39 16 -68.5t42 -49.5t58.5 -30t65.5 -10z" />
    <glyph glyph-name="nine.old" horiz-adv-x="547" 
d="M259 -103q-38 0 -72 10t-61.5 30t-45.5 49t-24 68h18q11 -67 61.5 -104t123.5 -37q49 0 89.5 16.5t70 54.5t45.5 100.5t16 155.5v95q-11 -39 -33.5 -66.5t-52 -45.5t-62.5 -26.5t-64 -8.5q-57 0 -99.5 16.5t-71 46t-42.5 69t-14 85.5q0 48 16.5 88.5t46 70t71 45.5
t91.5 16q61 0 105 -20t72.5 -56t41.5 -85.5t13 -109.5v-115q0 -96 -18 -161.5t-49.5 -105.5t-75.5 -57.5t-96 -17.5zM268 204q39 0 76.5 13t66.5 38t46.5 61.5t17.5 83.5q0 37 -11 74t-36 67t-65 49t-97 19q-48 0 -86 -15t-65 -42t-41.5 -64.5t-14.5 -82.5t12.5 -82
t38.5 -63.5t65.5 -41t92.5 -14.5z" />
    <glyph glyph-name="dollar.tab" 
d="M289 -6q-56 2 -98 18t-71.5 42t-46.5 61t-23 75h19q5 -35 20 -66.5t42 -56t66 -39.5t92 -17v356q-116 18 -165 61.5t-49 114.5q0 41 15.5 73.5t43.5 55.5t67.5 35.5t87.5 13.5v92h18v-92q88 -3 139 -45t65 -114h-19q-13 63 -58.5 101.5t-126.5 40.5v-322q60 -9 103 -22
t71 -35t41.5 -56t13.5 -83q0 -39 -15 -74t-44.5 -61t-72 -41.5t-97.5 -15.5v-129h-18v129zM517 186q0 45 -12 75.5t-37.5 50.5t-65.5 32.5t-95 20.5v-354q51 0 90 14t66 37.5t40.5 55t13.5 68.5zM94 543q0 -65 43.5 -103t151.5 -55v319q-90 -2 -142.5 -42.5t-52.5 -118.5z
" />
    <glyph glyph-name="Euro.tab" 
d="M40 435h61q0 66 15 119t44.5 90t72.5 57t100 20q96 0 145.5 -49t61.5 -137h-18q-12 81 -56.5 125t-132.5 44q-105 0 -159 -71.5t-54 -197.5h238l-3 -16h-235v-120h212l-3 -16h-209q0 -130 52 -201t161 -71q92 0 139.5 49.5t60.5 136.5h17q-13 -98 -67 -150.5t-150 -52.5
q-116 0 -174 77t-58 212h-61v16h61v120h-61v16z" />
    <glyph glyph-name="sterling.tab" 
d="M55 358h78q-11 38 -21 76.5t-10 86.5q0 46 15 83t42.5 63t65.5 40t83 14q94 0 143.5 -48.5t57.5 -127.5h-18q-11 76 -54.5 117.5t-128.5 41.5q-42 0 -76 -13.5t-59 -38t-38.5 -58t-13.5 -73.5q0 -48 10 -86.5t22 -76.5h247v-16h-242q10 -32 17 -66.5t7 -76.5
q0 -31 -7.5 -57.5t-18.5 -46.5h2q30 0 62 -13t64 -29t65 -29t66 -13q52 0 80.5 33.5t32.5 92.5h19q-5 -68 -40.5 -105.5t-91.5 -37.5q-35 0 -68.5 13t-66 29t-63 29t-59.5 13q-38 0 -60.5 -21.5t-27.5 -56.5h-20q5 33 26 59.5t59 33.5q13 21 20.5 48.5t7.5 57.5
q0 42 -7.5 76t-17.5 67h-83v16z" />
    <glyph glyph-name="yen.tab" 
d="M101 349h191l-222 366h21l217 -358l202 358h20l-207 -366h187v-16h-193v-120h193v-16h-193v-197h-19v197h-197v16h197v120h-197v16z" />
    <glyph glyph-name="zero.tab" 
d="M301 11q109 0 165.5 68t56.5 199v164q0 60 -15.5 108.5t-44.5 82.5t-71 52.5t-94 18.5q-104 0 -162 -69.5t-58 -195.5v-164q0 -130 59 -197t164 -67zM301 -6q-114 0 -178 73.5t-64 207.5v164q0 134 63.5 208t175.5 74q55 0 100 -19t77 -55t49.5 -87.5t17.5 -117.5v-164
q0 -135 -62.5 -209.5t-178.5 -74.5z" />
    <glyph glyph-name="one.tab" 
d="M340 687l-246 -193v20l256 201h8v-715h-18v687z" />
    <glyph glyph-name="two.tab" 
d="M62 5l291 294q66 66 94 120.5t28 114.5q0 43 -13.5 75t-37.5 53t-57 31.5t-72 10.5q-78 0 -130.5 -45.5t-63.5 -137.5h-18q4 49 22 86t46 62.5t65 38.5t79 13t78.5 -12t63 -35t42 -58.5t15.5 -81.5q0 -65 -30.5 -122.5t-95.5 -122.5l-272 -272h415v-17h-449v5z" />
    <glyph glyph-name="three.tab" 
d="M298 -6q-53 0 -94.5 16.5t-70.5 44t-44.5 63t-17.5 73.5h18q3 -36 17.5 -68.5t40.5 -57t63.5 -39.5t87.5 -15q44 0 80.5 12t62.5 35t40.5 58t14.5 80q0 34 -10.5 65t-32.5 54.5t-56 37t-80 13.5h-49v17h46q43 0 72.5 13.5t48.5 35.5t27.5 49.5t8.5 54.5q0 36 -11 66.5
t-32.5 53t-52.5 35.5t-71 13q-41 0 -74.5 -13t-57.5 -35.5t-38 -53t-18 -64.5h-18q3 39 19.5 72.5t43.5 58t63.5 38.5t79.5 14q44 0 78.5 -14t58.5 -39t36.5 -59t12.5 -73q0 -29 -8.5 -55t-24 -47t-38.5 -36.5t-51 -21.5q64 -11 105.5 -58t41.5 -122q0 -48 -15.5 -86
t-44 -63.5t-68.5 -39t-89 -13.5z" />
    <glyph glyph-name="four.tab" 
d="M418 173h-371v5l358 537h32v-525h99v-17h-99v-173h-19v173zM418 190v514l-342 -514h342z" />
    <glyph glyph-name="five.tab" 
d="M286 -6q-50 0 -89.5 15.5t-67.5 40.5t-44 57t-19 66h18q4 -30 18.5 -59.5t40 -52t61.5 -36.5t82 -14q102 0 157 59t55 159q0 48 -15.5 86.5t-42.5 66.5t-63 43t-76 15q-69 0 -115 -26.5t-73 -61.5h-8v363h376v-17h-358v-312q12 12 29.5 25t40 23t50 16.5t58.5 6.5
q45 0 84 -16t68.5 -45.5t46.5 -72t17 -94.5q0 -55 -16.5 -98.5t-46.5 -74t-73 -46.5t-95 -16z" />
    <glyph glyph-name="six.tab" 
d="M312 -6q-62 0 -107 20.5t-74.5 57t-44 86.5t-14.5 109v91q0 100 19 169.5t53.5 112.5t81.5 62t103 19q36 0 68.5 -8.5t58 -26.5t42 -46.5t22.5 -68.5h-18q-11 69 -56.5 101t-116.5 32q-53 0 -96.5 -17t-75 -57.5t-49 -107t-17.5 -165.5v-64q12 39 35.5 67.5t53.5 47
t64 27.5t66 9q58 0 102 -17t73.5 -47t44 -71t14.5 -88q0 -50 -16.5 -91.5t-47 -71.5t-73.5 -47t-95 -17zM312 11q49 0 88.5 15.5t67 43.5t42.5 66.5t15 84.5t-13 84t-39.5 65t-67 42t-95.5 15q-41 0 -79 -13t-68 -38.5t-48 -62.5t-18 -85q0 -38 11.5 -76.5t37 -69.5
t66.5 -51t100 -20z" />
    <glyph glyph-name="seven.tab" 
d="M499 698h-415v17h440v-5l-291 -710h-20z" />
    <glyph glyph-name="eight.tab" 
d="M301 -6q-48 0 -90.5 13t-74 38t-49.5 62.5t-18 87.5q0 39 14 71t38.5 56.5t58 40.5t73.5 22q-30 6 -57.5 19t-48 33.5t-33 48.5t-12.5 63q0 40 16 71.5t43.5 54t63.5 34.5t76 12t76 -12t63 -34.5t43 -54t16 -69.5q0 -36 -11 -64.5t-30.5 -49t-46 -33.5t-56.5 -19
q39 -6 71.5 -21.5t56 -39t36.5 -55.5t13 -72q0 -50 -17.5 -88t-48 -63.5t-73 -38.5t-92.5 -13zM301 11q47 0 86 11.5t67 34.5t43.5 58t15.5 82q0 43 -16.5 76t-45 56t-67 35t-81.5 12t-82 -12t-68.5 -35.5t-47 -57t-17.5 -76.5q0 -47 16.5 -81.5t45.5 -57t67.5 -34
t83.5 -11.5zM304 393q36 0 68 10t56 29.5t38 49t14 69.5q0 33 -13.5 61.5t-37 48.5t-56.5 31.5t-72 11.5t-72 -11t-57 -31.5t-37.5 -49t-13.5 -63.5q0 -39 16.5 -68.5t42.5 -49t58.5 -29t65.5 -9.5z" />
    <glyph glyph-name="nine.tab" 
d="M284 -6q-37 0 -71 9.5t-61.5 28.5t-47 48t-27.5 69h19q15 -68 65.5 -103t122.5 -35q52 0 94.5 13t71.5 48t45 97.5t16 160.5v83q-12 -37 -36 -64t-54.5 -44.5t-65 -26t-67.5 -8.5q-57 0 -100.5 16.5t-72 46.5t-43 71t-14.5 90q0 51 17 93t47.5 71.5t73 46t94.5 16.5
q64 0 109.5 -22t74.5 -58.5t42.5 -85t13.5 -101.5v-125q0 -101 -17 -166t-49 -102.5t-77.5 -52t-102.5 -14.5zM288 287q42 0 81 13t70 37.5t49.5 60t18.5 81.5q0 39 -11.5 79.5t-37.5 72.5t-67.5 52.5t-100.5 20.5q-49 0 -88.5 -15.5t-67 -43.5t-42.5 -66.5t-15 -84.5
q0 -45 13 -83t39 -65.5t65.5 -43t93.5 -15.5z" />
    <glyph glyph-name="cent.tab" 
d="M306 -7q-49 1 -92 20t-74.5 53t-49.5 82t-18 109v8q0 61 18.5 109.5t50 82.5t74 52.5t91.5 20.5v99h17v-99q38 -1 72.5 -13t61.5 -33.5t45 -51t23 -66.5h-18q-5 34 -21.5 61t-41 46t-56 29.5t-65.5 11.5v-505q73 2 125.5 44.5t66.5 119.5h17q-14 -81 -71 -129t-138 -51
v-128h-17v128zM90 257q0 -59 17 -104.5t46.5 -77t68.5 -48.5t84 -18v505q-45 -2 -84.5 -19t-68.5 -48.5t-46 -77t-17 -104.5v-8z" />
    <glyph glyph-name="percent.tab" horiz-adv-x="800" 
d="M203 431q26 0 49.5 9t41.5 26.5t28.5 43t10.5 57.5q0 31 -10.5 56.5t-28 43t-41 27t-50.5 9.5q-26 0 -49 -9.5t-41 -27.5t-28.5 -43.5t-10.5 -57.5t10.5 -56.5t28.5 -42t41.5 -26.5t48.5 -9zM203 415q-29 0 -55.5 10t-46.5 29.5t-32.5 47.5t-12.5 63t12 63.5t32 48.5
t47 31t56 11q30 0 57 -11t47.5 -31t32 -48t11.5 -62q0 -36 -12 -64.5t-32.5 -48t-47.5 -29.5t-56 -10zM629 715h20l-477 -715h-20zM596 11q26 0 49.5 9t41.5 26.5t28.5 43t10.5 57.5q0 31 -10.5 56.5t-28 43t-41 27t-50.5 9.5q-26 0 -49 -9.5t-41 -27.5t-28.5 -43.5
t-10.5 -57.5t10.5 -56.5t28.5 -42t41.5 -26.5t48.5 -9zM596 -5q-29 0 -55.5 10t-46.5 29.5t-32.5 47.5t-12.5 63t12 63.5t32 48.5t47 31t56 11q30 0 57 -11t47.5 -31t32 -48t11.5 -62q0 -36 -12 -64.5t-32.5 -48t-47.5 -29.5t-56 -10z" />
    <glyph glyph-name="perthousand.tab" horiz-adv-x="1000" 
d="M190 450q26 0 49 9.5t40 26t27 40t10 51.5t-10 51.5t-27 41t-40 27t-49 9.5t-49 -9.5t-40 -27t-27 -41.5t-10 -52t10 -51t27.5 -39.5t40 -26t48.5 -9.5zM190 434q-29 0 -55 10.5t-46 29t-31.5 44.5t-11.5 58q0 31 11.5 58t31 46.5t46 30.5t55.5 11q30 0 56 -11
t45.5 -30.5t31 -46t11.5 -57.5q0 -32 -11.5 -58.5t-31.5 -45t-46 -29t-55 -10.5zM555 715h20l-477 -715h-20zM468 11q26 0 49 9.5t40 26t27 40t10 52.5q0 28 -10 51.5t-27 40.5t-40 26.5t-49 9.5t-48.5 -9.5t-39.5 -26.5t-27 -41t-10 -52t10 -51.5t27 -40t39.5 -26
t48.5 -9.5zM468 -5q-29 0 -54.5 10.5t-45.5 29.5t-31.5 45t-11.5 58q0 31 11.5 58t31 46t45.5 30t55 11q30 0 56 -11t45.5 -30t31 -45.5t11.5 -57.5q0 -32 -11.5 -58.5t-31 -45.5t-46 -29.5t-55.5 -10.5zM810 11q26 0 49 9.5t40 26t27 40t10 52.5q0 28 -10 51.5t-27 40.5
t-40 26.5t-49 9.5t-48.5 -9.5t-39.5 -26.5t-27 -41t-10 -52t10 -51.5t27 -40t39.5 -26t48.5 -9.5zM810 -5q-29 0 -54.5 10.5t-45.5 29.5t-31.5 45t-11.5 58q0 31 11.5 58t31 46t45.5 30t55 11q30 0 56 -11t45.5 -30t31 -45.5t11.5 -57.5q0 -32 -11.5 -58.5t-31 -45.5
t-46 -29.5t-55.5 -10.5z" />
    <glyph glyph-name="plus.tab" 
d="M291 334h-204v16h204v219h18v-219h204v-16h-204v-219h-18v219z" />
    <glyph glyph-name="minus.tab" 
d="M87 350h426v-16h-426v16z" />
    <glyph glyph-name="multiply.tab" 
d="M110 168l169 168l-169 169l12 12l168 -168l169 168l12 -12l-169 -169l169 -168l-12 -12l-169 168l-168 -168z" />
    <glyph glyph-name="divide.tab" 
d="M300 161q-8 0 -12.5 5t-4.5 12t4.5 12t12.5 5t12.5 -5t4.5 -12t-4.5 -12t-12.5 -5zM87 350h426v-16h-426v16zM300 489q-8 0 -12.5 5t-4.5 12t4.5 12t12.5 5t12.5 -5t4.5 -12t-4.5 -12t-12.5 -5z" />
    <glyph glyph-name="equal.tab" 
d="M98 249h404v-16h-404v16zM98 401h404v-16h-404v16z" />
    <glyph glyph-name="less.tab" 
d="M105 319v6l384 204v-19l-356 -188l356 -188v-19z" />
    <glyph glyph-name="greater.tab" 
d="M112 134l356 188l-356 188v19l384 -204v-6l-384 -204v19z" />
    <glyph glyph-name="florin.tab" 
d="M111 391h126l24 158q15 97 61 136t114 39q23 0 41 -3.5t31 -8.5v-17q-11 5 -30 9t-42 4q-30 0 -56 -8t-46 -27t-34 -49t-21 -75l-24 -158h200v-16h-203l-85 -557h-18l85 557h-123v16z" />
    <glyph glyph-name="plusminus.tab" 
d="M291 334h-204v16h204v219h18v-219h204v-16h-204v-219h-18v219zM87 16h426v-16h-426v16z" />
    <glyph glyph-name="notequal.tab" 
d="M98 401h233l65 133h18l-65 -133h153v-16h-160l-66 -136h226v-16h-234l-64 -133h-18l64 133h-152v16h160l66 136h-226v16z" />
    <glyph glyph-name="approxequal.tab" 
d="M90 196q5 33 27.5 58t67.5 25q29 0 58.5 -10t58.5 -22.5t58 -22.5t57 -10q36 0 54 21t22 46h18q-5 -33 -27.5 -58t-67.5 -25q-29 0 -58.5 10t-58.5 22.5t-58 22.5t-57 10q-36 0 -54 -21t-22 -46h-18zM90 351q5 33 27.5 58t67.5 25q29 0 58.5 -10t58.5 -22.5t58 -22.5
t57 -10q36 0 54 21t22 46h18q-5 -33 -27.5 -58t-67.5 -25q-29 0 -58.5 10t-58.5 22.5t-58 22.5t-57 10q-36 0 -54 -21t-22 -46h-18z" />
    <glyph glyph-name="lessequal.tab" 
d="M105 319v6l384 204v-19l-356 -188l356 -188v-19zM105 16h384v-16h-384v16z" />
    <glyph glyph-name="greaterequal.tab" 
d="M112 134l356 188l-356 188v19l384 -204v-6l-384 -204v19zM112 16h384v-16h-384v16z" />
    <glyph glyph-name="parenleft.tab" horiz-adv-x="300" 
d="M241 -148q-34 40 -64 89t-52 106.5t-35 123.5t-13 141t13 141t35 123.5t52 106.5t64 90h19q-34 -42 -64 -90.5t-52.5 -105.5t-35.5 -123t-13 -142t13 -141.5t35.5 -122.5t52.5 -105.5t64 -90.5h-19v0z" />
    <glyph glyph-name="parenright.tab" horiz-adv-x="300" 
d="M41 -148q34 42 64 90.5t52.5 105.5t35.5 122.5t13 141.5t-13 142t-35.5 123t-52.5 105.5t-64 90.5h19q34 -41 64 -90t52 -106.5t35 -123.5t13 -141t-13 -141t-35 -123.5t-52 -106.5t-64 -89h-19v0z" />
    <glyph glyph-name="bracketleft.tab" horiz-adv-x="300" 
d="M83 776h174v-16h-156v-892h156v-16h-174v924z" />
    <glyph glyph-name="bracketright.tab" horiz-adv-x="300" 
d="M43 -132h156v892h-156v16h174v-924h-174v16z" />
    <glyph glyph-name="braceleft.tab" horiz-adv-x="300" 
d="M257 -144q-43 0 -75.5 9.5t-52.5 31t-25.5 57.5t6.5 89l28 126q14 63 -14.5 100.5t-94.5 38.5v16q66 1 94.5 38.5t14.5 100.5l-28 126q-12 53 -6.5 89t25.5 57.5t52.5 31t75.5 9.5v-16q-38 0 -67 -8t-46.5 -27t-22.5 -51.5t6 -81.5l28 -126q8 -35 4.5 -60.5t-15 -43.5
t-30 -29t-39.5 -17q21 -6 39.5 -17t30 -29t15 -43.5t-4.5 -60.5l-28 -126q-11 -50 -5.5 -82t23.5 -51t47 -27t65 -8v-16v0z" />
    <glyph glyph-name="braceright.tab" horiz-adv-x="300" 
d="M43 -128q36 0 65 8t47 27t23.5 51t-5.5 82l-28 126q-8 35 -4.5 60.5t15 43.5t30 29t39.5 17q-21 6 -39.5 17t-30 29t-15 43.5t4.5 60.5l28 126q11 49 6 81.5t-22.5 51.5t-47 27t-66.5 8v16q43 0 75.5 -9.5t52.5 -31t25.5 -57.5t-6.5 -89l-28 -126q-14 -63 14.5 -100.5
t94.5 -38.5v-16q-66 -1 -94.5 -38.5t-14.5 -100.5l28 -126q12 -53 6.5 -89t-25.5 -57.5t-52.5 -31t-75.5 -9.5v16z" />
    <glyph glyph-name="period.tab" horiz-adv-x="300" 
d="M150 -5q-8 0 -12.5 5t-4.5 12t4.5 12t12.5 5t12.5 -5t4.5 -12t-4.5 -12t-12.5 -5z" />
    <glyph glyph-name="comma.tab" horiz-adv-x="300" 
d="M96 -103l56 140l18 -7l-59 -139z" />
    <glyph glyph-name="colon.tab" horiz-adv-x="300" 
d="M150 -5q-8 0 -12.5 5t-4.5 12t4.5 12t12.5 5t12.5 -5t4.5 -12t-4.5 -12t-12.5 -5zM150 352q-8 0 -12.5 5t-4.5 12t4.5 12t12.5 5t12.5 -5t4.5 -12t-4.5 -12t-12.5 -5z" />
    <glyph glyph-name="semicolon.tab" horiz-adv-x="300" 
d="M90 -103l56 140l18 -7l-59 -139zM150 352q-8 0 -12.5 5t-4.5 12t4.5 12t12.5 5t12.5 -5t4.5 -12t-4.5 -12t-12.5 -5z" />
    <glyph glyph-name="dollar.oldtab" 
d="M293 -6q-54 2 -95.5 17.5t-70 41t-45 59t-21.5 72.5h19q5 -34 19.5 -64.5t40.5 -54t63.5 -38t89.5 -16.5v345q-113 17 -160.5 59.5t-47.5 111.5q0 39 15 70.5t42.5 53.5t65.5 34.5t85 13.5v90h18v-90q85 -2 135 -43.5t63 -110.5h-19q-13 62 -56.5 98.5t-122.5 38.5v-311
q57 -9 99 -22t69 -34.5t40 -54t13 -80.5q0 -38 -14.5 -71.5t-42.5 -59t-69.5 -40.5t-94.5 -15v-129h-18v129zM513 180q0 43 -11.5 73t-36 49.5t-62.5 31.5t-92 20v-343q49 0 87 13t63.5 36t38.5 53.5t13 66.5zM104 527q0 -32 10 -56.5t32.5 -43.5t58.5 -32t88 -21v308
q-87 -2 -138 -41t-51 -114z" />
    <glyph glyph-name="Euro.oldtab" 
d="M32 422h63q0 64 15.5 115.5t45.5 87.5t73 55t98 19q93 0 142.5 -48.5t61.5 -133.5h-18q-11 79 -56 122t-130 43q-103 0 -158.5 -68.5t-55.5 -191.5h241l-3 -16h-238v-116h215l-3 -16h-212q0 -125 54 -194t160 -69q89 0 136.5 49t60.5 133h17q-12 -95 -66.5 -147
t-147.5 -52q-113 0 -172.5 74.5t-59.5 205.5h-63v16h63v116h-63v16z" />
    <glyph glyph-name="sterling.oldtab" 
d="M59 348h75q-11 36 -20 73.5t-9 83.5q0 45 15 80.5t42.5 61t65 39t82.5 13.5q94 0 143 -47t57 -123h-18q-10 72 -53.5 112.5t-128.5 40.5q-42 0 -76 -12.5t-58.5 -35.5t-38 -56t-13.5 -73q0 -46 9.5 -83t20.5 -74h240v-16h-235q10 -32 17 -65t7 -74q0 -30 -7 -55.5
t-18 -45.5h6q31 0 61.5 -12.5t61 -28t62.5 -28t65 -12.5q51 0 80 32.5t33 89.5h19q-4 -66 -40.5 -102.5t-91.5 -36.5q-36 0 -68.5 12.5t-63.5 28t-60 28t-58 12.5q-38 0 -61 -20.5t-28 -54.5h-20q5 31 25 56t56 33q13 21 20.5 47.5t7.5 56.5q0 40 -7.5 73.5t-17.5 65.5h-80
v16z" />
    <glyph glyph-name="yen.oldtab" 
d="M99 339h185l-215 355h21l210 -348l196 348h19l-200 -355h181v-16h-187v-116h187v-16h-187v-191h-19v191h-191v16h191v116h-191v16z" />
    <glyph glyph-name="zero.oldtab" 
d="M301 9q109 0 165.5 68.5t56.5 199.5v69q0 60 -15.5 108.5t-44.5 83t-71 53t-94 18.5q-104 0 -162 -70t-58 -196v-69q0 -130 59 -197.5t164 -67.5zM301 -7q-114 0 -177.5 73.5t-63.5 207.5v69q0 134 63 208t175 74q55 0 100 -19t76.5 -55t49 -87.5t17.5 -117.5v-69
q0 -135 -62 -209.5t-178 -74.5z" />
    <glyph glyph-name="one.oldtab" 
d="M336 591l-236 -183v19l245 191h8v-618h-17v591z" />
    <glyph glyph-name="two.oldtab" 
d="M71 5l253 222q34 30 62 57t48 54t30.5 56t10.5 64q0 73 -45.5 112t-123.5 39q-77 0 -129 -45.5t-62 -128.5h-18q4 45 22 80t45.5 59.5t64 37.5t77.5 13q42 0 76 -11t59 -32.5t38.5 -52.5t13.5 -71q0 -37 -11.5 -68.5t-32 -60t-49 -56t-62.5 -56.5l-230 -201h402v-16h-439
v5z" />
    <glyph glyph-name="three.oldtab" 
d="M301 -102q-56 0 -99 16.5t-73 44t-46.5 63t-18.5 73.5h17q3 -36 18.5 -68.5t42.5 -57.5t66.5 -40t92.5 -15q45 0 82 11.5t63.5 34t41.5 57t15 79.5q0 35 -12.5 67t-37 56t-60 38.5t-81.5 14.5h-54v16h51q43 0 74 13t51 34t30 48.5t10 56.5q0 37 -12 68t-34 53.5t-54.5 35
t-72.5 12.5q-42 0 -75.5 -13t-58 -35.5t-39 -53t-18.5 -65.5h-17q3 39 20 72.5t44.5 58t64 38.5t79.5 14q44 0 79.5 -14t60 -39t38 -58.5t13.5 -73.5q0 -62 -35.5 -104.5t-93.5 -54.5q32 -5 60.5 -20.5t50.5 -39.5t34.5 -55.5t12.5 -69.5q0 -48 -16 -84.5t-45 -62
t-69.5 -38.5t-89.5 -13z" />
    <glyph glyph-name="four.oldtab" 
d="M424 76h-381v5l368 537h32v-525h99v-17h-99v-173h-19v173zM424 93v514l-352 -514h352z" />
    <glyph glyph-name="five.oldtab" 
d="M286 -102q-49 0 -88.5 15t-67.5 39.5t-44.5 56t-19.5 65.5h17q4 -31 19 -59.5t40.5 -51t61.5 -36t82 -13.5q100 0 156.5 57t56.5 159q0 48 -15.5 87t-41.5 66.5t-61.5 42t-75.5 14.5q-69 0 -115 -26.5t-73 -61.5h-8v366h372v-16h-355v-318q12 13 29.5 26t40.5 23
t50.5 16.5t58.5 6.5q44 0 83 -15.5t67.5 -45t45 -71.5t16.5 -94q0 -55 -17 -98t-47.5 -73t-73 -45.5t-93.5 -15.5z" />
    <glyph glyph-name="six.oldtab" 
d="M308 -7q-62 0 -105.5 20.5t-72 56.5t-41.5 85t-13 105v109q0 97 19.5 164.5t53.5 109t80 60t100 18.5q76 0 122.5 -38t58.5 -107h-18q-11 60 -52.5 94.5t-110.5 34.5q-50 0 -93 -17t-74.5 -57t-49.5 -104.5t-18 -158.5v-84q10 37 33 64.5t52.5 45.5t62.5 27t64 9
q57 0 99.5 -16.5t71 -46t42.5 -69t14 -85.5q0 -48 -16.5 -88.5t-46 -70t-71 -45.5t-91.5 -16zM308 9q48 0 86 15t65 42t41.5 64.5t14.5 82.5t-12.5 82t-38.5 63.5t-65.5 41t-92.5 14.5q-40 0 -77 -13t-66 -38t-46.5 -61t-17.5 -81q0 -36 11 -73.5t36 -68t65 -50.5t97 -20z
" />
    <glyph glyph-name="seven.oldtab" 
d="M496 602h-407v16h430v-5l-291 -710h-19z" />
    <glyph glyph-name="eight.oldtab" 
d="M300 -6q-47 0 -88.5 12.5t-73 37.5t-50 62t-18.5 87q0 39 13.5 70.5t37 55.5t56 40t70.5 23q-29 7 -55 20.5t-46 33.5t-31.5 48t-11.5 63q0 40 16.5 72t43.5 54.5t62.5 35t74.5 12.5t74.5 -12.5t63 -35t43.5 -54.5t16 -70q0 -36 -10.5 -64t-29 -49t-44 -34.5t-54.5 -19.5
q37 -7 68 -22.5t54 -38.5t36 -54.5t13 -71.5q0 -50 -18 -87.5t-49 -63t-73 -38t-90 -12.5zM300 10q46 0 84.5 11.5t67 34.5t44.5 57.5t16 81.5q0 43 -17 76.5t-46 56t-67 34t-80 11.5t-80.5 -12t-68.5 -34.5t-47.5 -56.5t-17.5 -77q0 -47 17 -81t46 -57t67.5 -34t81.5 -11z
M303 389q36 0 68 10t56 30t38 50t14 70q0 33 -14 61.5t-38 49.5t-56.5 33t-70.5 12t-70.5 -11.5t-56.5 -32.5t-38 -50t-14 -64q0 -39 16 -68.5t42 -49.5t58.5 -30t65.5 -10z" />
    <glyph glyph-name="nine.oldtab" 
d="M286 -103q-38 0 -72 10t-61.5 30t-45.5 49t-24 68h18q11 -67 61.5 -104t123.5 -37q49 0 89.5 16.5t70 54.5t45.5 100.5t16 155.5v95q-11 -39 -33.5 -66.5t-52 -45.5t-62.5 -26.5t-64 -8.5q-57 0 -99.5 16.5t-71 46t-42.5 69t-14 85.5q0 48 16.5 88.5t46 70t71 45.5
t91.5 16q61 0 105 -20t72.5 -56t41.5 -85.5t13 -109.5v-115q0 -96 -18 -161.5t-49.5 -105.5t-75.5 -57.5t-96 -17.5zM295 204q39 0 76.5 13t66.5 38t46.5 61.5t17.5 83.5q0 37 -11 74t-36 67t-65 49t-97 19q-48 0 -86 -15t-65 -42t-41.5 -64.5t-14.5 -82.5t12.5 -82
t38.5 -63.5t65.5 -41t92.5 -14.5z" />
    <glyph glyph-name="zero.num" horiz-adv-x="349" 
d="M175 383q54 0 86 34.5t32 109.5v34q0 70 -33.5 105.5t-86.5 35.5q-52 0 -84.5 -35.5t-32.5 -106.5v-35q0 -74 33.5 -108t85.5 -34zM175 367q-62 0 -99.5 39.5t-37.5 118.5v34q0 78 37 118.5t98 40.5t99.5 -39.5t38.5 -117.5v-35q0 -79 -36.5 -119t-99.5 -40z" />
    <glyph glyph-name="one.num" horiz-adv-x="205" 
d="M113 690l-95 -68v19l103 74h10v-345h-18v320z" />
    <glyph glyph-name="two.num" horiz-adv-x="284" 
d="M24 377l131 126q39 38 56 64t17 57q0 38 -24 58.5t-61 20.5q-43 0 -66 -25t-28 -67h-17q4 51 33.5 79t77.5 28q47 0 75 -26t28 -68q0 -18 -4.5 -33.5t-14 -30.5t-24.5 -31.5t-36 -36.5l-111 -106h194v-16h-226v7z" />
    <glyph glyph-name="three.num" horiz-adv-x="305" 
d="M154 367q-57 0 -90 29.5t-36 68.5h18q4 -32 31 -57t77 -25q45 0 70 21.5t25 60.5q0 33 -23 55.5t-65 22.5h-27v16h25q39 0 58.5 21t19.5 50q0 33 -23.5 53t-61.5 20q-45 0 -67.5 -23.5t-26.5 -55.5h-17q3 38 31.5 66t79.5 28q46 0 74.5 -25t28.5 -63q0 -31 -17 -51
t-44 -27q30 -6 51.5 -28.5t21.5 -58.5q0 -47 -31 -72.5t-82 -25.5z" />
    <glyph glyph-name="four.num" horiz-adv-x="301" 
d="M205 450h-186v6l177 259h27v-249h48v-16h-48v-80h-18v80zM205 466v236l-160 -236h160z" />
    <glyph glyph-name="five.num" horiz-adv-x="287" 
d="M138 367q-51 0 -79.5 27t-32.5 62h18q5 -29 28 -51t66 -22q45 0 70.5 26.5t25.5 71.5q0 44 -26.5 70.5t-63.5 26.5q-32 0 -55 -11.5t-36 -28.5h-8v177h187v-16h-170v-135q11 11 33.5 20.5t50.5 9.5q45 0 75.5 -30.5t30.5 -82.5q0 -54 -31.5 -84t-82.5 -30z" />
    <glyph glyph-name="six.num" horiz-adv-x="314" 
d="M160 367q-32 0 -55 11t-37.5 30t-21 45t-6.5 57v29q0 95 36.5 137t92.5 42q38 0 65 -18.5t33 -57.5h-16q-5 30 -27 45t-56 15q-47 0 -78.5 -36.5t-31.5 -121.5v-19q6 15 17 26.5t25 19.5t30.5 12t31.5 4q56 0 86 -30.5t30 -78.5q0 -51 -33 -81t-85 -30zM160 383
q44 0 72 26t28 69q0 42 -26 68t-72 26q-20 0 -38 -6t-32 -18t-22.5 -29t-8.5 -39q0 -19 6 -36.5t18.5 -31t31 -21.5t43.5 -8z" />
    <glyph glyph-name="seven.num" horiz-adv-x="271" 
d="M224 699h-208v16h233v-4l-148 -341h-20z" />
    <glyph glyph-name="eight.num" horiz-adv-x="315" 
d="M158 367q-52 0 -87 24t-35 73q0 38 25.5 60.5t60.5 29.5q-28 7 -49.5 27.5t-21.5 51.5q0 19 8.5 35t23.5 27t34.5 17t40.5 6q43 0 74.5 -23t31.5 -61q0 -32 -20 -52.5t-48 -27.5q35 -8 59 -29.5t24 -59.5q0 -50 -34 -74t-87 -24zM158 383q46 0 74.5 20t28.5 62
q0 39 -29.5 60t-72.5 21t-74 -21.5t-31 -60.5q0 -42 30 -61.5t74 -19.5zM159 562q35 0 61 18.5t26 53.5q0 30 -25 49t-63 19t-63.5 -18.5t-25.5 -50.5q0 -17 8 -30.5t21 -22.5t29 -13.5t32 -4.5z" />
    <glyph glyph-name="nine.num" horiz-adv-x="313" 
d="M147 367q-38 0 -68.5 21t-36.5 60h17q8 -32 31.5 -48.5t57.5 -16.5q24 0 43.5 7t34 23.5t22.5 44t8 69.5v32q-14 -31 -43.5 -46t-60.5 -15q-56 0 -86 30t-30 78q0 51 33 81.5t85 30.5q32 0 55 -11t37.5 -30t21 -45t6.5 -57v-43q0 -48 -9.5 -80t-26.5 -50.5t-40 -26.5
t-51 -8zM152 513q19 0 37.5 6t32.5 18t22.5 29t8.5 39q0 19 -6 36.5t-18.5 31t-31 21.5t-43.5 8q-44 0 -72 -26.5t-28 -69.5q0 -42 26 -67.5t72 -25.5z" />
    <glyph glyph-name="zero.den" horiz-adv-x="349" 
d="M175 14q54 0 86 34.5t32 109.5v34q0 70 -33.5 105.5t-86.5 35.5q-52 0 -84.5 -35.5t-32.5 -106.5v-35q0 -74 33.5 -108t85.5 -34zM175 -2q-62 0 -99.5 39.5t-37.5 118.5v34q0 78 37 118.5t98 40.5t99.5 -39.5t38.5 -117.5v-35q0 -79 -36.5 -119t-99.5 -40z" />
    <glyph glyph-name="one.den" horiz-adv-x="205" 
d="M113 321l-95 -68v19l103 74h10v-345h-18v320z" />
    <glyph glyph-name="two.den" horiz-adv-x="284" 
d="M24 8l131 126q39 38 56 64t17 57q0 38 -24 58.5t-61 20.5q-43 0 -66 -25t-28 -67h-17q4 51 33.5 79t77.5 28q47 0 75 -26t28 -68q0 -18 -4.5 -33.5t-14 -30.5t-24.5 -31.5t-36 -36.5l-111 -106h194v-16h-226v7z" />
    <glyph glyph-name="three.den" horiz-adv-x="305" 
d="M154 -2q-57 0 -90 29.5t-36 68.5h18q4 -32 31 -57t77 -25q45 0 70 21.5t25 60.5q0 33 -23 55.5t-65 22.5h-27v16h25q39 0 58.5 21t19.5 50q0 33 -23.5 53t-61.5 20q-45 0 -67.5 -23.5t-26.5 -55.5h-17q3 38 31.5 66t79.5 28q46 0 74.5 -25t28.5 -63q0 -31 -17 -51
t-44 -27q30 -6 51.5 -28.5t21.5 -58.5q0 -47 -31 -72.5t-82 -25.5z" />
    <glyph glyph-name="four.den" horiz-adv-x="301" 
d="M205 81h-186v6l177 259h27v-249h48v-16h-48v-80h-18v80zM205 97v236l-160 -236h160z" />
    <glyph glyph-name="five.den" horiz-adv-x="287" 
d="M138 -2q-51 0 -79.5 27t-32.5 62h18q5 -29 28 -51t66 -22q45 0 70.5 26.5t25.5 71.5q0 44 -26.5 70.5t-63.5 26.5q-32 0 -55 -11.5t-36 -28.5h-8v177h187v-16h-170v-135q11 11 33.5 20.5t50.5 9.5q45 0 75.5 -30.5t30.5 -82.5q0 -54 -31.5 -84t-82.5 -30z" />
    <glyph glyph-name="six.den" horiz-adv-x="314" 
d="M160 -2q-32 0 -55 11t-37.5 30t-21 45t-6.5 57v29q0 95 36.5 137t92.5 42q38 0 65 -18.5t33 -57.5h-16q-5 30 -27 45t-56 15q-47 0 -78.5 -36.5t-31.5 -121.5v-19q6 15 17 26.5t25 19.5t30.5 12t31.5 4q56 0 86 -30.5t30 -78.5q0 -51 -33 -81t-85 -30zM160 14q44 0 72 26
t28 69q0 42 -26 68t-72 26q-20 0 -38 -6t-32 -18t-22.5 -29t-8.5 -39q0 -19 6 -36.5t18.5 -31t31 -21.5t43.5 -8z" />
    <glyph glyph-name="seven.den" horiz-adv-x="271" 
d="M224 330h-208v16h233v-4l-148 -341h-20z" />
    <glyph glyph-name="eight.den" horiz-adv-x="315" 
d="M158 -2q-52 0 -87 24t-35 73q0 38 25.5 60.5t60.5 29.5q-28 7 -49.5 27.5t-21.5 51.5q0 19 8.5 35t23.5 27t34.5 17t40.5 6q43 0 74.5 -23t31.5 -61q0 -32 -20 -52.5t-48 -27.5q35 -8 59 -29.5t24 -59.5q0 -50 -34 -74t-87 -24zM158 14q46 0 74.5 20t28.5 62
q0 39 -29.5 60t-72.5 21t-74 -21.5t-31 -60.5q0 -42 30 -61.5t74 -19.5zM159 193q35 0 61 18.5t26 53.5q0 30 -25 49t-63 19t-63.5 -18.5t-25.5 -50.5q0 -17 8 -30.5t21 -22.5t29 -13.5t32 -4.5z" />
    <glyph glyph-name="nine.den" horiz-adv-x="313" 
d="M147 -2q-38 0 -68.5 21t-36.5 60h17q8 -32 31.5 -48.5t57.5 -16.5q24 0 43.5 7t34 23.5t22.5 44t8 69.5v32q-14 -31 -43.5 -46t-60.5 -15q-56 0 -86 30t-30 78q0 51 33 81.5t85 30.5q32 0 55 -11t37.5 -30t21 -45t6.5 -57v-43q0 -48 -9.5 -80t-26.5 -50.5t-40 -26.5
t-51 -8zM152 144q19 0 37.5 6t32.5 18t22.5 29t8.5 39q0 19 -6 36.5t-18.5 31t-31 21.5t-43.5 8q-44 0 -72 -26.5t-28 -69.5q0 -42 26 -67.5t72 -25.5z" />
    <glyph glyph-name="zero.sub" horiz-adv-x="349" 
d="M175 -72q54 0 86 34.5t32 109.5v34q0 70 -33.5 105.5t-86.5 35.5q-52 0 -84.5 -35.5t-32.5 -106.5v-35q0 -74 33.5 -108t85.5 -34zM175 -88q-62 0 -99.5 39.5t-37.5 118.5v34q0 78 37 118.5t98 40.5t99.5 -39.5t38.5 -117.5v-35q0 -79 -36.5 -119t-99.5 -40z" />
    <glyph glyph-name="one.sub" horiz-adv-x="205" 
d="M113 235l-95 -68v19l103 74h10v-345h-18v320z" />
    <glyph glyph-name="two.sub" horiz-adv-x="284" 
d="M24 -78l131 126q39 38 56 64t17 57q0 38 -24 58.5t-61 20.5q-43 0 -66 -25t-28 -67h-17q4 51 33.5 79t77.5 28q47 0 75 -26t28 -68q0 -18 -4.5 -33.5t-14 -30.5t-24.5 -31.5t-36 -36.5l-111 -106h194v-16h-226v7z" />
    <glyph glyph-name="three.sub" horiz-adv-x="305" 
d="M154 -88q-57 0 -90 29.5t-36 68.5h18q4 -32 31 -57t77 -25q45 0 70 21.5t25 60.5q0 33 -23 55.5t-65 22.5h-27v16h25q39 0 58.5 21t19.5 50q0 33 -23.5 53t-61.5 20q-45 0 -67.5 -23.5t-26.5 -55.5h-17q3 38 31.5 66t79.5 28q46 0 74.5 -25t28.5 -63q0 -31 -17 -51
t-44 -27q30 -6 51.5 -28.5t21.5 -58.5q0 -47 -31 -72.5t-82 -25.5z" />
    <glyph glyph-name="four.sub" horiz-adv-x="301" 
d="M205 -5h-186v6l177 259h27v-249h48v-16h-48v-80h-18v80zM205 11v236l-160 -236h160z" />
    <glyph glyph-name="five.sub" horiz-adv-x="287" 
d="M138 -88q-51 0 -79.5 27t-32.5 62h18q5 -29 28 -51t66 -22q45 0 70.5 26.5t25.5 71.5q0 44 -26.5 70.5t-63.5 26.5q-32 0 -55 -11.5t-36 -28.5h-8v177h187v-16h-170v-135q11 11 33.5 20.5t50.5 9.5q45 0 75.5 -30.5t30.5 -82.5q0 -54 -31.5 -84t-82.5 -30z" />
    <glyph glyph-name="six.sub" horiz-adv-x="314" 
d="M160 -88q-32 0 -55 11t-37.5 30t-21 45t-6.5 57v29q0 95 36.5 137t92.5 42q38 0 65 -18.5t33 -57.5h-16q-5 30 -27 45t-56 15q-47 0 -78.5 -36.5t-31.5 -121.5v-19q6 15 17 26.5t25 19.5t30.5 12t31.5 4q56 0 86 -30.5t30 -78.5q0 -51 -33 -81t-85 -30zM160 -72
q44 0 72 26t28 69q0 42 -26 68t-72 26q-20 0 -38 -6t-32 -18t-22.5 -29t-8.5 -39q0 -19 6 -36.5t18.5 -31t31 -21.5t43.5 -8z" />
    <glyph glyph-name="seven.sub" horiz-adv-x="271" 
d="M224 244h-208v16h233v-4l-148 -341h-20z" />
    <glyph glyph-name="eight.sub" horiz-adv-x="315" 
d="M158 -88q-52 0 -87 24t-35 73q0 38 25.5 60.5t60.5 29.5q-28 7 -49.5 27.5t-21.5 51.5q0 19 8.5 35t23.5 27t34.5 17t40.5 6q43 0 74.5 -23t31.5 -61q0 -32 -20 -52.5t-48 -27.5q35 -8 59 -29.5t24 -59.5q0 -50 -34 -74t-87 -24zM158 -72q46 0 74.5 20t28.5 62
q0 39 -29.5 60t-72.5 21t-74 -21.5t-31 -60.5q0 -42 30 -61.5t74 -19.5zM159 107q35 0 61 18.5t26 53.5q0 30 -25 49t-63 19t-63.5 -18.5t-25.5 -50.5q0 -17 8 -30.5t21 -22.5t29 -13.5t32 -4.5z" />
    <glyph glyph-name="nine.sub" horiz-adv-x="313" 
d="M147 -88q-38 0 -68.5 21t-36.5 60h17q8 -32 31.5 -48.5t57.5 -16.5q24 0 43.5 7t34 23.5t22.5 44t8 69.5v32q-14 -31 -43.5 -46t-60.5 -15q-56 0 -86 30t-30 78q0 51 33 81.5t85 30.5q32 0 55 -11t37.5 -30t21 -45t6.5 -57v-43q0 -48 -9.5 -80t-26.5 -50.5t-40 -26.5
t-51 -8zM152 58q19 0 37.5 6t32.5 18t22.5 29t8.5 39q0 19 -6 36.5t-18.5 31t-31 21.5t-43.5 8q-44 0 -72 -26.5t-28 -69.5q0 -42 26 -67.5t72 -25.5z" />
    <glyph glyph-name="plus.sub" horiz-adv-x="305" 
d="M143 74h-109v16h109v114h18v-114h110v-16h-110v-113h-18v113z" />
    <glyph glyph-name="minus.sub" horiz-adv-x="305" 
d="M34 90h237v-16h-237v16z" />
    <glyph glyph-name="zero.sup" horiz-adv-x="349" 
d="M175 441q54 0 86 34.5t32 109.5v34q0 70 -33.5 105.5t-86.5 35.5q-52 0 -84.5 -35.5t-32.5 -106.5v-35q0 -74 33.5 -108t85.5 -34zM175 425q-62 0 -99.5 39.5t-37.5 118.5v34q0 78 37 118.5t98 40.5t99.5 -39.5t38.5 -117.5v-35q0 -79 -36.5 -119t-99.5 -40z" />
    <glyph glyph-name="one.sup" horiz-adv-x="205" 
d="M113 748l-95 -68v19l103 74h10v-345h-18v320z" />
    <glyph glyph-name="two.sup" horiz-adv-x="284" 
d="M24 435l131 126q39 38 56 64t17 57q0 38 -24 58.5t-61 20.5q-43 0 -66 -25t-28 -67h-17q4 51 33.5 79t77.5 28q47 0 75 -26t28 -68q0 -18 -4.5 -33.5t-14 -30.5t-24.5 -31.5t-36 -36.5l-111 -106h194v-16h-226v7z" />
    <glyph glyph-name="three.sup" horiz-adv-x="305" 
d="M154 425q-57 0 -90 29.5t-36 68.5h18q4 -32 31 -57t77 -25q45 0 70 21.5t25 60.5q0 33 -23 55.5t-65 22.5h-27v16h25q39 0 58.5 21t19.5 50q0 33 -23.5 53t-61.5 20q-45 0 -67.5 -23.5t-26.5 -55.5h-17q3 38 31.5 66t79.5 28q46 0 74.5 -25t28.5 -63q0 -31 -17 -51
t-44 -27q30 -6 51.5 -28.5t21.5 -58.5q0 -47 -31 -72.5t-82 -25.5z" />
    <glyph glyph-name="four.sup" horiz-adv-x="301" 
d="M205 508h-186v6l177 259h27v-249h48v-16h-48v-80h-18v80zM205 524v236l-160 -236h160z" />
    <glyph glyph-name="five.sup" horiz-adv-x="287" 
d="M138 425q-51 0 -79.5 27t-32.5 62h18q5 -29 28 -51t66 -22q45 0 70.5 26.5t25.5 71.5q0 44 -26.5 70.5t-63.5 26.5q-32 0 -55 -11.5t-36 -28.5h-8v177h187v-16h-170v-135q11 11 33.5 20.5t50.5 9.5q45 0 75.5 -30.5t30.5 -82.5q0 -54 -31.5 -84t-82.5 -30z" />
    <glyph glyph-name="six.sup" horiz-adv-x="314" 
d="M160 425q-32 0 -55 11t-37.5 30t-21 45t-6.5 57v29q0 95 36.5 137t92.5 42q38 0 65 -18.5t33 -57.5h-16q-5 30 -27 45t-56 15q-47 0 -78.5 -36.5t-31.5 -121.5v-19q6 15 17 26.5t25 19.5t30.5 12t31.5 4q56 0 86 -30.5t30 -78.5q0 -51 -33 -81t-85 -30zM160 441
q44 0 72 26t28 69q0 42 -26 68t-72 26q-20 0 -38 -6t-32 -18t-22.5 -29t-8.5 -39q0 -19 6 -36.5t18.5 -31t31 -21.5t43.5 -8z" />
    <glyph glyph-name="seven.sup" horiz-adv-x="271" 
d="M224 757h-208v16h233v-4l-148 -341h-20z" />
    <glyph glyph-name="eight.sup" horiz-adv-x="315" 
d="M158 425q-52 0 -87 24t-35 73q0 38 25.5 60.5t60.5 29.5q-28 7 -49.5 27.5t-21.5 51.5q0 19 8.5 35t23.5 27t34.5 17t40.5 6q43 0 74.5 -23t31.5 -61q0 -32 -20 -52.5t-48 -27.5q35 -8 59 -29.5t24 -59.5q0 -50 -34 -74t-87 -24zM158 441q46 0 74.5 20t28.5 62
q0 39 -29.5 60t-72.5 21t-74 -21.5t-31 -60.5q0 -42 30 -61.5t74 -19.5zM159 620q35 0 61 18.5t26 53.5q0 30 -25 49t-63 19t-63.5 -18.5t-25.5 -50.5q0 -17 8 -30.5t21 -22.5t29 -13.5t32 -4.5z" />
    <glyph glyph-name="nine.sup" horiz-adv-x="313" 
d="M147 425q-38 0 -68.5 21t-36.5 60h17q8 -32 31.5 -48.5t57.5 -16.5q24 0 43.5 7t34 23.5t22.5 44t8 69.5v32q-14 -31 -43.5 -46t-60.5 -15q-56 0 -86 30t-30 78q0 51 33 81.5t85 30.5q32 0 55 -11t37.5 -30t21 -45t6.5 -57v-43q0 -48 -9.5 -80t-26.5 -50.5t-40 -26.5
t-51 -8zM152 571q19 0 37.5 6t32.5 18t22.5 29t8.5 39q0 19 -6 36.5t-18.5 31t-31 21.5t-43.5 8q-44 0 -72 -26.5t-28 -69.5q0 -42 26 -67.5t72 -25.5z" />
    <glyph glyph-name="plus.sup" horiz-adv-x="305" 
d="M143 592h-109v16h109v114h18v-114h110v-16h-110v-113h-18v113z" />
    <glyph glyph-name="minus.sup" horiz-adv-x="305" 
d="M34 608h237v-16h-237v16z" />
    <glyph glyph-name="a.alt" horiz-adv-x="586" 
d="M272 -7q-47 0 -88.5 17.5t-73.5 51t-50.5 83t-18.5 112.5v8q0 61 19.5 110t52.5 83.5t76 53t91 18.5q43 0 77 -13.5t59.5 -36t43 -51t28.5 -58.5v152h18v-523h-18v158q-9 -29 -27 -58t-45 -53t-63 -39t-81 -15zM272 9q42 0 81 17t69 49t48 78t18 104v8q0 58 -16.5 104.5
t-45 78.5t-66 49t-80.5 17q-44 0 -83.5 -16.5t-70.5 -48.5t-49 -78.5t-18 -105.5v-8q0 -59 16.5 -105t45.5 -77.5t68 -48.5t83 -17z" />
    <glyph glyph-name="t.alt" horiz-adv-x="296" 
d="M116 507h-94v16h94v119h18v-119h140v-16h-140v-507h-18v507z" />
    <glyph glyph-name="germandbls.alt" horiz-adv-x="572" 
d="M373 -4q-41 0 -71.5 12t-51.5 31t-33 43.5t-14 50.5h18q3 -22 13 -43.5t28.5 -39t45.5 -28t65 -10.5q65 0 105 35.5t40 97.5q0 28 -9.5 48t-27.5 36t-43 29.5t-55 29.5q-31 16 -55.5 29t-41 25.5t-25 27.5t-8.5 35q0 23 13.5 41.5t34 35t44.5 33t44.5 35t34 41t13.5 51.5
q0 56 -39.5 87t-106.5 31q-46 0 -82 -15.5t-60.5 -44t-37.5 -67.5t-13 -87v-546h-18v546q0 51 14.5 93.5t42 73t66.5 47t88 16.5q77 0 120.5 -36t43.5 -98q0 -31 -13.5 -55t-34.5 -43.5t-44.5 -36t-44.5 -32.5t-34.5 -33t-13.5 -37q0 -17 8 -29.5t23.5 -23.5t37.5 -22
t50 -26q32 -17 59 -31.5t47 -32t31 -40t11 -55.5q0 -35 -12.5 -62.5t-34 -47t-51.5 -29.5t-66 -10z" />
    <glyph glyph-name="aacute.alt" horiz-adv-x="586" 
d="M272 -7q-47 0 -88.5 17.5t-73.5 51t-50.5 83t-18.5 112.5v8q0 61 19.5 110t52.5 83.5t76 53t91 18.5q43 0 77 -13.5t59.5 -36t43 -51t28.5 -58.5v152h18v-523h-18v158q-9 -29 -27 -58t-45 -53t-63 -39t-81 -15zM272 9q42 0 81 17t69 49t48 78t18 104v8q0 58 -16.5 104.5
t-45 78.5t-66 49t-80.5 17q-44 0 -83.5 -16.5t-70.5 -48.5t-49 -78.5t-18 -105.5v-8q0 -59 16.5 -105t45.5 -77.5t68 -48.5t83 -17zM343 743h20l-78 -147h-17z" />
    <glyph glyph-name="abreve.alt" horiz-adv-x="586" 
d="M272 -7q-47 0 -88.5 17.5t-73.5 51t-50.5 83t-18.5 112.5v8q0 61 19.5 110t52.5 83.5t76 53t91 18.5q43 0 77 -13.5t59.5 -36t43 -51t28.5 -58.5v152h18v-523h-18v158q-9 -29 -27 -58t-45 -53t-63 -39t-81 -15zM272 9q42 0 81 17t69 49t48 78t18 104v8q0 58 -16.5 104.5
t-45 78.5t-66 49t-80.5 17q-44 0 -83.5 -16.5t-70.5 -48.5t-49 -78.5t-18 -105.5v-8q0 -59 16.5 -105t45.5 -77.5t68 -48.5t83 -17zM285 612q-48 0 -77.5 29.5t-33.5 78.5h18q3 -42 28 -67t65 -25q39 0 65 25t30 67h18q-4 -49 -35 -78.5t-78 -29.5z" />
    <glyph glyph-name="acircumflex.alt" horiz-adv-x="586" 
d="M272 -7q-47 0 -88.5 17.5t-73.5 51t-50.5 83t-18.5 112.5v8q0 61 19.5 110t52.5 83.5t76 53t91 18.5q43 0 77 -13.5t59.5 -36t43 -51t28.5 -58.5v152h18v-523h-18v158q-9 -29 -27 -58t-45 -53t-63 -39t-81 -15zM272 9q42 0 81 17t69 49t48 78t18 104v8q0 58 -16.5 104.5
t-45 78.5t-66 49t-80.5 17q-44 0 -83.5 -16.5t-70.5 -48.5t-49 -78.5t-18 -105.5v-8q0 -59 16.5 -105t45.5 -77.5t68 -48.5t83 -17zM277 720h20l110 -124h-20l-100 108l-102 -108h-20z" />
    <glyph glyph-name="adieresis.alt" horiz-adv-x="586" 
d="M272 -7q-47 0 -88.5 17.5t-73.5 51t-50.5 83t-18.5 112.5v8q0 61 19.5 110t52.5 83.5t76 53t91 18.5q43 0 77 -13.5t59.5 -36t43 -51t28.5 -58.5v152h18v-523h-18v158q-9 -29 -27 -58t-45 -53t-63 -39t-81 -15zM272 9q42 0 81 17t69 49t48 78t18 104v8q0 58 -16.5 104.5
t-45 78.5t-66 49t-80.5 17q-44 0 -83.5 -16.5t-70.5 -48.5t-49 -78.5t-18 -105.5v-8q0 -59 16.5 -105t45.5 -77.5t68 -48.5t83 -17zM215 639q-8 0 -12.5 5t-4.5 12t4.5 12t12.5 5t12.5 -5t4.5 -12t-4.5 -12t-12.5 -5zM357 639q-8 0 -12.5 5t-4.5 12t4.5 12t12.5 5t12.5 -5
t4.5 -12t-4.5 -12t-12.5 -5z" />
    <glyph glyph-name="agrave.alt" horiz-adv-x="586" 
d="M272 -7q-47 0 -88.5 17.5t-73.5 51t-50.5 83t-18.5 112.5v8q0 61 19.5 110t52.5 83.5t76 53t91 18.5q43 0 77 -13.5t59.5 -36t43 -51t28.5 -58.5v152h18v-523h-18v158q-9 -29 -27 -58t-45 -53t-63 -39t-81 -15zM272 9q42 0 81 17t69 49t48 78t18 104v8q0 58 -16.5 104.5
t-45 78.5t-66 49t-80.5 17q-44 0 -83.5 -16.5t-70.5 -48.5t-49 -78.5t-18 -105.5v-8q0 -59 16.5 -105t45.5 -77.5t68 -48.5t83 -17zM204 743h20l75 -147h-17z" />
    <glyph glyph-name="amacron.alt" horiz-adv-x="586" 
d="M272 -7q-47 0 -88.5 17.5t-73.5 51t-50.5 83t-18.5 112.5v8q0 61 19.5 110t52.5 83.5t76 53t91 18.5q43 0 77 -13.5t59.5 -36t43 -51t28.5 -58.5v152h18v-523h-18v158q-9 -29 -27 -58t-45 -53t-63 -39t-81 -15zM272 9q42 0 81 17t69 49t48 78t18 104v8q0 58 -16.5 104.5
t-45 78.5t-66 49t-80.5 17q-44 0 -83.5 -16.5t-70.5 -48.5t-49 -78.5t-18 -105.5v-8q0 -59 16.5 -105t45.5 -77.5t68 -48.5t83 -17zM176 663h219v-17h-219v17z" />
    <glyph glyph-name="aogonek.alt" horiz-adv-x="586" 
d="M486 -182q-40 0 -60.5 20.5t-20.5 49.5q0 18 7 34.5t19 31.5t27 28t30 23v153q-9 -29 -27 -58t-45 -53t-63 -39t-81 -15q-47 0 -88.5 17.5t-73.5 51t-50.5 83t-18.5 112.5v8q0 61 19.5 110t52.5 83.5t76 53t91 18.5q43 0 77 -13.5t59.5 -36t43 -51t28.5 -58.5v152h18
v-523q-39 -26 -61 -53.5t-22 -58.5q0 -23 15 -38.5t48 -15.5q24 0 48 9v-16q-10 -4 -22 -6.5t-26 -2.5zM272 9q42 0 81 17t69 49t48 78t18 104v8q0 58 -16.5 104.5t-45 78.5t-66 49t-80.5 17q-44 0 -83.5 -16.5t-70.5 -48.5t-49 -78.5t-18 -105.5v-8q0 -59 16.5 -105
t45.5 -77.5t68 -48.5t83 -17z" />
    <glyph glyph-name="aring.alt" horiz-adv-x="586" 
d="M272 -7q-47 0 -88.5 17.5t-73.5 51t-50.5 83t-18.5 112.5v8q0 61 19.5 110t52.5 83.5t76 53t91 18.5q43 0 77 -13.5t59.5 -36t43 -51t28.5 -58.5v152h18v-523h-18v158q-9 -29 -27 -58t-45 -53t-63 -39t-81 -15zM272 9q42 0 81 17t69 49t48 78t18 104v8q0 58 -16.5 104.5
t-45 78.5t-66 49t-80.5 17q-44 0 -83.5 -16.5t-70.5 -48.5t-49 -78.5t-18 -105.5v-8q0 -59 16.5 -105t45.5 -77.5t68 -48.5t83 -17zM286 619q30 0 50.5 20.5t20.5 49.5q0 31 -20.5 51t-50.5 20q-29 0 -49.5 -20t-20.5 -51q0 -29 20.5 -49.5t49.5 -20.5zM286 604
q-18 0 -33.5 7t-27.5 18.5t-19 27t-7 32.5q0 18 7 33.5t19 27t27.5 18.5t33.5 7t34 -7t28 -18.5t19 -27t7 -33.5q0 -35 -25.5 -60t-62.5 -25z" />
    <glyph glyph-name="aringacute.alt" horiz-adv-x="586" 
d="M272 -7q-47 0 -88.5 17.5t-73.5 51t-50.5 83t-18.5 112.5v8q0 61 19.5 110t52.5 83.5t76 53t91 18.5q43 0 77 -13.5t59.5 -36t43 -51t28.5 -58.5v152h18v-523h-18v158q-9 -29 -27 -58t-45 -53t-63 -39t-81 -15zM272 9q42 0 81 17t69 49t48 78t18 104v8q0 58 -16.5 104.5
t-45 78.5t-66 49t-80.5 17q-44 0 -83.5 -16.5t-70.5 -48.5t-49 -78.5t-18 -105.5v-8q0 -59 16.5 -105t45.5 -77.5t68 -48.5t83 -17zM286 619q30 0 50.5 20.5t20.5 49.5q0 31 -20.5 51t-50.5 20q-29 0 -49.5 -20t-20.5 -51q0 -29 20.5 -49.5t49.5 -20.5zM286 604
q-18 0 -33.5 7t-27.5 18.5t-19 27t-7 32.5q0 18 7 33.5t19 27t27.5 18.5t33.5 7t34 -7t28 -18.5t19 -27t7 -33.5q0 -35 -25.5 -60t-62.5 -25zM343 948h21l-76 -117h-18z" />
    <glyph glyph-name="atilde.alt" horiz-adv-x="586" 
d="M272 -7q-47 0 -88.5 17.5t-73.5 51t-50.5 83t-18.5 112.5v8q0 61 19.5 110t52.5 83.5t76 53t91 18.5q43 0 77 -13.5t59.5 -36t43 -51t28.5 -58.5v152h18v-523h-18v158q-9 -29 -27 -58t-45 -53t-63 -39t-81 -15zM272 9q42 0 81 17t69 49t48 78t18 104v8q0 58 -16.5 104.5
t-45 78.5t-66 49t-80.5 17q-44 0 -83.5 -16.5t-70.5 -48.5t-49 -78.5t-18 -105.5v-8q0 -59 16.5 -105t45.5 -77.5t68 -48.5t83 -17zM357 613q-20 0 -38.5 10t-36 22t-34 22t-32.5 10q-19 0 -34 -15.5t-19 -47.5h-17q5 42 24.5 60.5t46.5 18.5q19 0 37.5 -10t36 -22t34.5 -22
t33 -10q18 0 33 15.5t19 47.5h17q-5 -42 -24.5 -60.5t-45.5 -18.5z" />
    <glyph glyph-name="tbar.alt" horiz-adv-x="296" 
d="M22 343h94v164h-94v16h94v119h18v-119h140v-16h-140v-164h140v-16h-140v-327h-18v327h-94v16z" />
    <glyph glyph-name="tcaron.alt" horiz-adv-x="296" 
d="M116 507h-94v16h94v119h18v-119h140v-16h-140v-507h-18v507zM242 773h19l-15 -147h-17z" />
    <glyph glyph-name="tcommaaccent.alt" horiz-adv-x="296" 
d="M61 -180l58 134l19 -4l-62 -136zM116 507h-94v16h94v119h18v-119h140v-16h-140v-507h-18v507z" />
    <glyph glyph-name="uni021B.alt" horiz-adv-x="296" 
d="M61 -180l58 134l19 -4l-62 -136zM116 507h-94v16h94v119h18v-119h140v-16h-140v-507h-18v507z" />
    <glyph glyph-name="f.short" horiz-adv-x="308" 
d="M109 507h-85v16h85v104q0 43 11.5 71.5t30 46t42 24.5t47.5 7q17 0 29.5 -2t23.5 -5v-17q-10 3 -23.5 5.5t-29.5 2.5q-21 0 -41.5 -6t-36.5 -21t-25.5 -40.5t-9.5 -65.5v-104h166v-16h-166v-507h-18v507z" />
    <glyph glyph-name="f_f.short" horiz-adv-x="575" 
d="M109 507h-85v16h85v95q0 42 12 71t31.5 46t44.5 24.5t51 7.5q17 0 28 -1.5t24 -5.5v-17q-11 4 -23.5 6t-28.5 2q-23 0 -45 -6t-39 -21.5t-27 -41t-10 -64.5v-95h249v104q0 43 11.5 71.5t30 46t42 24.5t47.5 7q17 0 29.5 -2t23.5 -5v-17q-10 3 -23.5 5.5t-29.5 2.5
q-21 0 -41.5 -6t-36.5 -21t-25.5 -40.5t-9.5 -65.5v-104h166v-16h-166v-507h-18v507h-249v-507h-18v507z" />
    <glyph glyph-name="questiondown.uc" horiz-adv-x="462" 
d="M264 497q0 -29 -6.5 -52t-19 -43t-30.5 -39.5t-41 -42.5l-39 -39t-31.5 -38t-21.5 -43t-8 -53q0 -60 39 -98t119 -38q76 0 125 45.5t55 126.5h19q-3 -44 -18.5 -79t-42 -59.5t-62 -37.5t-77.5 -13q-85 0 -130.5 42.5t-45.5 110.5q0 33 8.5 57.5t22.5 45t33.5 40
l42.5 42.5q22 22 39 40.5t28.5 37.5t17.5 40t6 48v65h18v-66zM255 720q8 0 12.5 -5t4.5 -12t-4.5 -12t-12.5 -5t-12.5 5t-4.5 12t4.5 12t12.5 5z" />
    <glyph glyph-name="exclamdown.uc" horiz-adv-x="254" 
d="M118 563h16l2 -563h-20zM127 686q-8 0 -12.5 5t-4.5 12t4.5 12t12.5 5t12.5 -5t4.5 -12t-4.5 -12t-12.5 -5z" />
    <glyph glyph-name="hyphen.uc" horiz-adv-x="352" 
d="M64 348h224v-17h-224v17z" />
    <glyph glyph-name="endash.uc" horiz-adv-x="476" 
d="M48 348h380v-17h-380v17z" />
    <glyph glyph-name="emdash.uc" horiz-adv-x="850" 
d="M48 348h754v-17h-754v17z" />
    <glyph glyph-name="guilsinglleft.uc" horiz-adv-x="253" 
d="M49 301l140 178h21l-140 -178l140 -178h-21z" />
    <glyph glyph-name="guilsinglright.uc" horiz-adv-x="253" 
d="M183 301l-140 178h21l140 -178l-140 -178h-21z" />
    <glyph glyph-name="guillemotleft.uc" horiz-adv-x="387" 
d="M49 301l140 178h21l-140 -178l140 -178h-21zM183 301l140 178h21l-140 -178l140 -178h-21z" />
    <glyph glyph-name="guillemotright.uc" horiz-adv-x="387" 
d="M183 301l-140 178h21l140 -178l-140 -178h-21zM317 301l-140 178h21l140 -178l-140 -178h-21z" />
    <glyph glyph-name="parenleft.uc" horiz-adv-x="267" 
d="M216 -98q-33 40 -62 88t-50.5 102.5t-33.5 117t-12 132.5t12 132.5t33.5 117.5t50.5 102.5t62 88.5h19q-33 -42 -62 -89.5t-50.5 -101.5t-34 -116t-12.5 -134t12.5 -134t34 -116t50.5 -101t62 -89h-19v0z" />
    <glyph glyph-name="parenright.uc" horiz-adv-x="267" 
d="M32 -98q33 42 62 89t50.5 101t34 116t12.5 134t-12.5 134t-34 116t-50.5 101.5t-62 89.5h19q33 -41 62 -88.5t50.5 -102.5t33.5 -117.5t12 -132.5t-12 -132.5t-33.5 -117t-50.5 -102.5t-62 -88h-19v0z" />
    <glyph glyph-name="bracketleft.uc" horiz-adv-x="322" 
d="M99 778h184v-16h-166v-830h166v-16h-184v862z" />
    <glyph glyph-name="bracketright.uc" horiz-adv-x="322" 
d="M39 -68h166v830h-166v16h184v-862h-184v16z" />
    <glyph glyph-name="braceleft.uc" horiz-adv-x="343" 
d="M304 -87q-47 0 -81.5 9t-55.5 31t-27.5 58t3.5 89l19 99q12 63 -14.5 100.5t-103.5 38.5v16q77 1 103.5 38.5t14.5 100.5l-19 99q-10 53 -3.5 89t27.5 57.5t55.5 31t81.5 9.5v-16q-41 0 -72.5 -7.5t-50.5 -26.5t-25 -51t4 -83l19 -99q13 -70 -13 -104.5t-76 -45.5
q50 -11 76 -45.5t13 -104.5l-19 -99q-10 -51 -4 -83.5t25 -51t50.5 -26t72.5 -7.5v-16v0z" />
    <glyph glyph-name="braceright.uc" horiz-adv-x="343" 
d="M39 -71q41 0 72.5 7.5t50.5 26t25 51t-4 83.5l-19 99q-7 35 -3 60.5t16 43.5t31.5 29t44.5 17q-25 6 -44.5 17t-31.5 29t-16 43.5t3 60.5l19 99q10 51 4 83t-25 51t-50.5 26.5t-72.5 7.5v16q46 0 81 -9.5t56 -31t27.5 -57.5t-3.5 -89l-19 -99q-12 -63 14.5 -100.5
t103.5 -38.5v-16q-77 -1 -103.5 -38.5t-14.5 -100.5l19 -99q10 -53 3.5 -89t-27.5 -58t-56 -31t-81 -9v16z" />
    <glyph glyph-name="slash.uc" horiz-adv-x="376" 
d="M312 778h19l-271 -862h-19z" />
    <glyph glyph-name="backslash.uc" horiz-adv-x="376" 
d="M45 778h19l271 -862h-19z" />
    <glyph glyph-name="bar.uc" horiz-adv-x="226" 
d="M104 778h18v-862h-18v862z" />
    <glyph glyph-name="at.uc" horiz-adv-x="877" 
d="M449 -59q-98 0 -173 32.5t-126 86.5t-77 125.5t-26 149.5q0 88 34 164t91 132t131.5 87.5t154.5 31.5q87 0 156.5 -27t118 -74.5t75 -112.5t26.5 -140q0 -63 -12.5 -108.5t-34 -75t-50 -43t-60.5 -13.5q-48 0 -78 28.5t-31 85.5q-6 -19 -19.5 -40.5t-33.5 -39.5t-46 -30
t-57 -12q-68 0 -109.5 45t-41.5 123q0 49 15.5 90t41 71t59 47t69.5 17q27 0 50 -9t41 -25t30 -37.5t16 -46.5l11 109h19l-25 -219q-8 -62 11.5 -101t77.5 -39q29 0 54.5 13t44 40t29 69t10.5 100q0 72 -24 134t-70 107.5t-112.5 71t-150.5 25.5q-77 0 -148 -30.5t-125 -84
t-86.5 -126t-32.5 -157.5q0 -74 24.5 -142.5t72.5 -120.5t119.5 -83t166.5 -31q58 0 105.5 10.5t85 28.5t65 40.5t45.5 46.5h21q-18 -28 -47.5 -53.5t-70 -45.5t-92 -32t-112.5 -12zM412 165q34 0 64 17t51.5 45.5t34 65t12.5 75.5q0 72 -35.5 114t-92.5 42
q-32 0 -61.5 -15.5t-53 -43t-37.5 -65.5t-14 -84q0 -72 36 -111.5t96 -39.5z" />
    </font>
</defs>
</svg>
