<?xml version="1.0" standalone="no"?>
<!DOCTYPE svg PUBLIC "-//W3C//DTD SVG 1.1//EN" "http://www.w3.org/Graphics/SVG/1.1/DTD/svg11.dtd" >
<svg xmlns="http://www.w3.org/2000/svg" xmlns:xlink="http://www.w3.org/1999/xlink" version="1.1">
<metadata>
Created by FontForge 20170731 at Thu Dec 17 19:44:01 2015
 By Aleksey,,,
(c)2009 Commercial Type.
</metadata>
<defs>
<font id="GraphikWeb-SuperItalic" horiz-adv-x="600" >
  <font-face 
    font-family="Graphik Web Super"
    font-weight="900"
    font-style="italic"
    font-stretch="normal"
    units-per-em="1000"
    panose-1="2 11 11 3 3 2 2 13 2 3"
    ascent="828"
    descent="-172"
    x-height="523"
    cap-height="715"
    bbox="-254 -236 1258 1150"
    underline-thickness="50"
    underline-position="-150"
    slope="-8"
    unicode-range="U+0020-FB02"
  />
<missing-glyph horiz-adv-x="364" 
d="M33 0v666h265v-666h-265zM66 33h199v600h-199v-600z" />
    <glyph glyph-name="f_f" unicode="ff" horiz-adv-x="761" 
d="M440 374h-127l-59 -374h-228l59 374h-61l23 149h61l6 37q8 51 30 86.5t54 58t72 32.5t84 10q37 0 60 -4t43 -11l-26 -163q-10 3 -18.5 4.5t-22.5 1.5q-24 0 -36 -9.5t-16 -31.5l-2 -11h127l8 48q8 51 30 86.5t55 58t74 32.5t86 10q40 0 62.5 -4t42.5 -11l-26 -164
q-10 3 -19 5t-25 2q-26 0 -39 -11t-17 -30l-4 -22h95l-23 -149h-95l-59 -374h-228z" />
    <glyph glyph-name=".notdef" horiz-adv-x="364" 
d="M33 0v666h265v-666h-265zM66 33h199v600h-199v-600z" />
    <glyph glyph-name=".null" horiz-adv-x="0" 
 />
    <glyph glyph-name="nonmarkingreturn" horiz-adv-x="333" 
 />
    <glyph glyph-name="space" unicode=" " horiz-adv-x="162" 
 />
    <glyph glyph-name="exclam" unicode="!" horiz-adv-x="358" 
d="M154 -14q-27 0 -49 9t-38.5 24.5t-25.5 37t-9 45.5t9.5 46t26.5 38t39.5 25.5t49.5 9.5t49.5 -9t39 -25t26 -37.5t9.5 -45.5t-10 -45.5t-27 -37.5t-40 -25.5t-50 -9.5zM121 715h258l-107 -463h-192z" />
    <glyph glyph-name="quotedbl" unicode="&#x22;" horiz-adv-x="507" 
d="M101 715h209l-68 -291h-161zM339 715h209l-68 -291h-161z" />
    <glyph glyph-name="numbersign" unicode="#" horiz-adv-x="603" 
d="M303 220h-45l-29 -121h-148l29 121h-73l29 178h86l11 46h-73l25 168h88l25 103h148l-25 -103h45l25 103h148l-25 -103h74l-25 -168h-89l-11 -46h76l-29 -178h-89l-29 -121h-148zM300 398h45l11 46h-45z" />
    <glyph glyph-name="dollar" unicode="$" horiz-adv-x="657" 
d="M244 -8q-45 6 -87.5 21t-76 43t-54.5 70.5t-23 103.5h228q0 -27 10.5 -43t29.5 -24l15 97q-63 12 -107.5 30t-72 43.5t-40.5 60t-13 79.5q0 61 24.5 108t66.5 78.5t98 48.5t118 18l14 87h88l-15 -92q46 -6 87 -20t72 -40.5t50 -66.5t22 -97h-222q-1 20 -10.5 32.5
t-25.5 19.5l-15 -97q55 -11 99 -27t75 -40t47.5 -59t16.5 -83q0 -65 -24 -113t-66 -79.5t-99 -47t-123 -16.5l-19 -122h-88zM414 202q0 14 -9.5 23t-32.5 17l-14 -88q56 6 56 48zM278 512q0 -17 9 -27t32 -17l14 89q-20 -3 -37.5 -12.5t-17.5 -32.5z" />
    <glyph glyph-name="percent" unicode="%" horiz-adv-x="849" 
d="M212 524q0 -18 8.5 -32t30.5 -13q13 0 22 8t14.5 20t8 26t2.5 27q0 18 -9 30.5t-28 12.5q-26 0 -37.5 -24t-11.5 -55zM245 354q-38 0 -73 10t-62 30t-43 50.5t-16 71.5q0 44 15.5 82t43.5 66t67.5 44t88.5 16q37 0 71.5 -10t61.5 -30.5t43 -51t16 -70.5q0 -42 -15.5 -80
t-43 -66.5t-67 -45t-87.5 -16.5zM687 715h109l-592 -715h-109zM590 156q0 -18 8.5 -32t30.5 -13q13 0 22 8t14.5 20t8 26t2.5 27q0 18 -9 30.5t-28 12.5q-26 0 -37.5 -24t-11.5 -55zM623 -14q-38 0 -73 10t-62 30t-43 50.5t-16 71.5q0 43 15.5 80.5t43.5 66t67.5 45
t88.5 16.5q37 0 71.5 -10t61.5 -30.5t43 -51t16 -70.5q0 -42 -15.5 -80t-43 -66.5t-67 -45t-87.5 -16.5z" />
    <glyph glyph-name="ampersand" unicode="&#x26;" horiz-adv-x="804" 
d="M654 133l85 -133h-282l-25 38q-32 -20 -76 -36t-113 -16q-47 0 -89.5 11.5t-75.5 36t-52.5 63.5t-19.5 95q0 44 15 78t40.5 60t59.5 46t72 36q-14 21 -22 49.5t-8 53.5q0 52 22.5 92t60 66.5t87 40t103.5 13.5q41 0 83 -9t75.5 -29.5t55 -54.5t21.5 -84q0 -37 -13.5 -65
t-36 -50t-52 -38t-61.5 -29l49 -77l54 83h199zM250 220q0 -26 14.5 -43.5t46.5 -17.5q13 0 22.5 2.5t14.5 4.5l-72 112q-9 -8 -17.5 -22.5t-8.5 -35.5zM432 570q-20 0 -33 -12.5t-13 -35.5q0 -16 8.5 -31t20.5 -29q23 11 40.5 26.5t17.5 41.5q0 17 -11 28.5t-30 11.5z" />
    <glyph glyph-name="quotesingle" unicode="'" horiz-adv-x="279" 
d="M101 715h219l-68 -291h-171z" />
    <glyph glyph-name="parenleft" unicode="(" horiz-adv-x="373" 
d="M133 -148q-19 29 -38 65t-34 80.5t-24.5 98t-9.5 118.5q0 169 68 312t186 250h175q-50 -69 -90 -136t-68 -137.5t-43 -146.5t-15 -162q0 -110 18.5 -196t43.5 -146h-169z" />
    <glyph glyph-name="parenright" unicode=")" horiz-adv-x="373" 
d="M253 776q19 -29 38 -65t34 -80.5t24.5 -98t9.5 -118.5q0 -169 -68 -312t-186 -250h-175q50 69 90 136t68 137.5t43 146.5t15 162q0 110 -18.5 196t-43.5 146h169z" />
    <glyph glyph-name="asterisk" unicode="*" horiz-adv-x="450" 
d="M72 456l104 72l-113 13l65 148l97 -62l-14 116h178l-50 -123l113 47l17 -153l-115 3l80 -85l-149 -85l-29 114l-65 -108z" />
    <glyph glyph-name="plus" unicode="+" horiz-adv-x="596" 
d="M206 258h-170l26 162h170l29 186h180l-29 -186h170l-26 -162h-170l-29 -186h-180z" />
    <glyph glyph-name="comma" unicode="," horiz-adv-x="319" 
d="M-29 -72l101 284l200 -70l-177 -266z" />
    <glyph glyph-name="hyphen" unicode="-" horiz-adv-x="406" 
d="M63 373h314l-27 -165h-314z" />
    <glyph glyph-name="period" unicode="." horiz-adv-x="308" 
d="M126 -14q-27 0 -49 9.5t-38.5 25.5t-25.5 38t-9 47t9 46.5t25 38t38 26t49 9.5t50.5 -9.5t40.5 -26t26.5 -38t9.5 -46.5t-9.5 -47t-26 -38t-40 -25.5t-50.5 -9.5z" />
    <glyph glyph-name="slash" unicode="/" horiz-adv-x="450" 
d="M359 776h181l-457 -924h-180z" />
    <glyph glyph-name="zero" unicode="0" horiz-adv-x="758" 
d="M302 352q-3 -21 -5.5 -40t-2.5 -36q0 -38 17.5 -62t62.5 -24q50 0 72.5 35.5t34.5 111.5l4 25q3 21 5 39.5t2 35.5q0 40 -16.5 64.5t-60.5 24.5q-49 0 -73 -35t-36 -114zM364 -14q-74 0 -135.5 19t-105 56.5t-67.5 93t-24 129.5q0 19 2 39t5 41l4 26q13 85 46 148.5
t82 105t112.5 62t137.5 20.5q70 0 131 -18.5t106 -56t70.5 -94.5t25.5 -133q0 -37 -6 -74l-4 -26q-13 -86 -45 -149.5t-80.5 -105.5t-112.5 -62.5t-142 -20.5z" />
    <glyph glyph-name="one" unicode="1" horiz-adv-x="476" 
d="M184 455l-135 -72l35 223l181 109h227l-113 -715h-266z" />
    <glyph glyph-name="two" unicode="2" horiz-adv-x="646" 
d="M-34 34l271 249q31 27 59 52.5t49 50t33.5 48.5t12.5 49q0 45 -45 45q-25 0 -44 -20t-30 -73h-239q8 74 36 129t72.5 91t102.5 53.5t126 17.5q62 0 114.5 -13.5t90.5 -40.5t59 -68.5t21 -97.5q0 -45 -13.5 -81.5t-37 -68.5t-54 -60t-64.5 -56l-55 -45h184l-30 -195h-624z
" />
    <glyph glyph-name="three" unicode="3" horiz-adv-x="677" 
d="M335 -14q-72 0 -131 14.5t-101 46t-65 81t-23 120.5h239q-1 -34 14.5 -54t51.5 -20q26 0 44 16t18 42q0 50 -63 50h-52l25 155h65q64 0 65 56q1 25 -14 36t-37 11q-62 0 -74 -69h-236q7 58 32.5 105t67.5 80.5t99.5 51.5t128.5 18q55 0 106 -10t90.5 -33.5t63.5 -60.5
t24 -91q0 -61 -36 -105t-104 -61q54 -13 84.5 -51.5t30.5 -90.5q0 -63 -28 -107.5t-72.5 -73.5t-100.5 -42.5t-112 -13.5z" />
    <glyph glyph-name="four" unicode="4" horiz-adv-x="709" 
d="M328 130h-343l16 102l361 483h314l-65 -407h88l-28 -178h-88l-20 -130h-255zM363 308l32 201l-142 -201h110z" />
    <glyph glyph-name="five" unicode="5" horiz-adv-x="654" 
d="M308 -14q-59 0 -114 13t-96.5 43t-66.5 79t-24 120h248q-1 -26 11.5 -41.5t41.5 -15.5t42.5 19t14.5 49q1 34 -18 49.5t-51 15.5t-56 -12t-38 -31h-164l87 441h523l-30 -189h-334l-24 -122q23 33 67 59t112 26q43 0 78.5 -13t61 -39t39 -65.5t13.5 -93.5
q0 -69 -22.5 -123t-64.5 -91.5t-101.5 -57.5t-134.5 -20z" />
    <glyph glyph-name="six" unicode="6" horiz-adv-x="703" 
d="M354 -14q-72 0 -131 18t-101 54.5t-64.5 91.5t-21.5 129q0 21 2 45t6 47l3 20q12 77 44 139t80.5 105.5t111 67t135.5 23.5q54 0 104.5 -12t89.5 -39t63.5 -71t26.5 -109h-245q0 38 -44 38q-25 0 -43 -11.5t-30.5 -31t-20.5 -45.5t-13 -54q11 14 25.5 28.5t33.5 25.5
t44 18t57 7q40 0 79 -12t69.5 -37t49 -63.5t18.5 -90.5q0 -69 -26.5 -122t-71.5 -88t-104.5 -53t-125.5 -18zM299 232q0 -26 13.5 -43.5t42.5 -17.5q30 0 49.5 23.5t19.5 56.5q0 25 -13.5 42.5t-42.5 17.5t-49 -22t-20 -57z" />
    <glyph glyph-name="seven" unicode="7" horiz-adv-x="603" 
d="M303 499h-246l34 216h582l-4 -26l-347 -689h-273z" />
    <glyph glyph-name="eight" unicode="8" horiz-adv-x="683" 
d="M270 226q0 -28 16.5 -43t45.5 -15q28 0 49 18.5t21 53.5q0 27 -16.5 41.5t-44.5 14.5t-49.5 -17.5t-21.5 -52.5zM316 489q0 -23 14 -38.5t40 -15.5q25 0 46 16.5t21 46.5q0 25 -15 39.5t-41 14.5q-24 0 -44.5 -16.5t-20.5 -46.5zM322 -14q-62 0 -119 11.5t-101.5 36.5
t-71 63t-26.5 91q0 79 44 125.5t113 66.5q-37 20 -58 52t-21 74q0 57 25.5 98.5t67.5 68.5t97 40t114 13q49 0 100.5 -9.5t94 -32.5t69.5 -60.5t27 -94.5t-33 -100.5t-89 -65.5q53 -20 78 -58.5t25 -84.5q0 -60 -25 -104t-70 -73t-106.5 -43t-134.5 -14z" />
    <glyph glyph-name="nine" unicode="9" horiz-adv-x="703" 
d="M310 -13q-56 0 -107.5 12t-91.5 39.5t-65 71t-27 106.5h244q2 -18 17.5 -26.5t37.5 -8.5q48 0 70.5 37t35.5 100q-23 -33 -57.5 -56t-97.5 -23q-41 0 -80.5 10.5t-70.5 34.5t-50 62t-19 93q0 69 25 122.5t69 90t104 56t129 19.5q73 0 132.5 -18.5t101.5 -56.5t65 -95
t23 -134q0 -43 -7 -84l-2 -12q-29 -172 -121.5 -256t-257.5 -84zM302 464q0 -27 14 -44t42 -17q29 0 50 22.5t21 57.5q0 25 -14.5 42.5t-43.5 17.5t-49 -21.5t-20 -57.5z" />
    <glyph glyph-name="colon" unicode=":" horiz-adv-x="312" 
d="M128 -14q-27 0 -49 9.5t-38.5 25.5t-25.5 38t-9 47t9 46.5t25 38t38 26t49 9.5t50.5 -9.5t40.5 -26t26.5 -38t9.5 -46.5t-9.5 -47t-26 -38t-40 -25.5t-50.5 -9.5zM173 266q-27 0 -49 9.5t-38.5 25.5t-25.5 38t-9 47t9 46.5t25 38t38 26t49 9.5t50.5 -9.5t40.5 -26
t26.5 -38t9.5 -46.5t-9.5 -47t-26 -38t-40 -25.5t-50.5 -9.5z" />
    <glyph glyph-name="semicolon" unicode=";" horiz-adv-x="336" 
d="M203 266q-27 0 -49 9.5t-38.5 25.5t-25.5 38t-9 47t9 46.5t25 38t38 26t49 9.5t50.5 -9.5t40.5 -26t26.5 -38t9.5 -46.5t-9.5 -47t-26 -38t-40 -25.5t-50.5 -9.5zM-29 -72l101 284l200 -70l-177 -266z" />
    <glyph glyph-name="less" unicode="&#x3c;" horiz-adv-x="517" 
d="M42 307l7 43l481 254l-33 -209l-164 -75l139 -85l-31 -194z" />
    <glyph glyph-name="equal" unicode="=" horiz-adv-x="594" 
d="M43 300h518l-23 -148h-518zM75 505h518l-23 -148h-518z" />
    <glyph glyph-name="greater" unicode="&#x3e;" horiz-adv-x="517" 
d="M492 339l-7 -43l-481 -254l33 209l164 75l-139 85l31 194z" />
    <glyph glyph-name="question" unicode="?" horiz-adv-x="591" 
d="M163 262q7 35 24.5 61.5t39.5 47.5t45.5 38t43.5 33t32.5 32.5t12.5 35.5q-2 31 -34 31q-20 0 -33.5 -15.5t-21.5 -50.5h-224q8 64 35 111.5t68 78.5t94 46t113 15q126 0 189.5 -49t63.5 -138q0 -41 -13.5 -72t-34.5 -55t-47.5 -43t-52 -37t-48 -36.5t-35.5 -40.5l-1 -3
h-218zM244 -14q-27 0 -49 9t-38.5 24.5t-25.5 37t-9 45.5t9.5 46t26.5 38t39.5 25.5t49.5 9.5t49.5 -9t39 -25t26 -37.5t9.5 -45.5t-10 -45.5t-27 -37.5t-40 -25.5t-50 -9.5z" />
    <glyph glyph-name="at" unicode="@" horiz-adv-x="919" 
d="M461 -164q-102 0 -183.5 31.5t-139 86.5t-88 130t-30.5 163q0 103 39 185t103.5 140t148.5 89t175 31q87 0 163.5 -25t132.5 -72t88.5 -114t32.5 -152q0 -77 -19.5 -130.5t-52.5 -88t-76.5 -50t-90.5 -15.5q-64 0 -103.5 19t-51.5 60q-20 -38 -54 -58.5t-85 -20.5
q-68 0 -109 47.5t-43 129.5q0 57 16 103.5t44 79t65.5 50.5t81.5 18t67 -15.5t34 -39.5l9 47h180l-46 -283q-5 -27 3 -43.5t34 -16.5q20 0 40.5 11.5t36.5 37t26 65.5t10 97q0 64 -24 117.5t-68 91t-105.5 58.5t-136.5 21q-78 0 -146.5 -26t-119.5 -75t-80.5 -118.5
t-29.5 -157.5q0 -73 22.5 -135t67 -107t111.5 -70t156 -25q45 0 86 8t76 21t62 30t44 34h98q-27 -38 -66.5 -68t-87.5 -51.5t-103 -33t-114 -11.5zM444 190q13 0 24 8t19 21t12 30.5t4 36.5q0 20 -10 33t-32 13q-24 0 -41.5 -26t-16.5 -69q0 -21 9.5 -34t31.5 -13z" />
    <glyph glyph-name="A" unicode="A" horiz-adv-x="784" 
d="M454 95h-202l-39 -95h-254l333 715h343l106 -715h-278zM325 273h113l-20 228z" />
    <glyph glyph-name="B" unicode="B" horiz-adv-x="709" 
d="M129 715h333q67 0 113 -15t74 -39.5t40 -57t12 -67.5q0 -36 -11.5 -64.5t-30.5 -49.5t-45 -34.5t-54 -19.5q25 -5 48 -16.5t39.5 -29.5t26.5 -43t10 -58q0 -49 -20 -89.5t-57.5 -70t-90 -45.5t-118.5 -16h-382zM353 172q34 0 54 18.5t20 47.5q0 53 -66 53h-40l-19 -119
h51zM398 445q32 0 47.5 14t15.5 40q0 25 -14.5 35t-41.5 10h-44l-16 -99h53z" />
    <glyph glyph-name="C" unicode="C" horiz-adv-x="779" 
d="M396 -14q-82 0 -149 19t-115 58t-74 98.5t-26 140.5q0 94 27.5 172t80 134t128.5 87t174 31q157 0 245.5 -73t93.5 -223h-270q-2 42 -19.5 65.5t-56.5 23.5q-33 0 -56 -17t-38 -45.5t-22.5 -65.5t-8.5 -77q0 -23 4 -44t14 -37.5t27.5 -26.5t43.5 -10q36 0 62.5 20.5
t37.5 68.5h265q-9 -77 -41.5 -133t-82 -93t-112 -55t-132.5 -18z" />
    <glyph glyph-name="D" unicode="D" horiz-adv-x="773" 
d="M129 715h261q186 0 282.5 -78t96.5 -226q0 -105 -31.5 -182t-87.5 -128t-133 -76t-168 -25h-333zM352 201q69 0 105 50.5t36 147.5q0 60 -27.5 87.5t-80.5 27.5h-21l-50 -313h38z" />
    <glyph glyph-name="E" unicode="E" horiz-adv-x="635" 
d="M129 715h534l-32 -203h-269l-10 -61h212l-28 -182h-212l-11 -66h284l-32 -203h-549z" />
    <glyph glyph-name="F" unicode="F" horiz-adv-x="596" 
d="M129 715h517l-33 -204h-250l-15 -100h203l-31 -193h-203l-34 -218h-267z" />
    <glyph glyph-name="G" unicode="G" horiz-adv-x="797" 
d="M402 -14q-81 0 -149 19t-117 58t-76.5 99t-27.5 142q0 93 31 170.5t86.5 133.5t132.5 87t170 31q67 0 127.5 -15t107 -48.5t75 -87.5t31.5 -131h-264q-3 34 -21 53.5t-65 19.5q-35 0 -60.5 -18t-42 -47t-25 -67t-8.5 -78q0 -58 25.5 -89t87.5 -31q48 0 69 17.5t29 40.5
h-98l26 162h353q-9 -108 -32.5 -187.5t-70 -131.5t-118 -77t-176.5 -25z" />
    <glyph glyph-name="H" unicode="H" horiz-adv-x="812" 
d="M129 715h267l-39 -247h163l39 247h266l-113 -715h-266l41 263h-163l-41 -263h-267z" />
    <glyph glyph-name="I" unicode="I" horiz-adv-x="391" 
d="M132 715h269l-113 -715h-269z" />
    <glyph glyph-name="J" unicode="J" horiz-adv-x="508" 
d="M162 -9q-67 0 -107.5 10.5t-63.5 21.5l31 194q17 -6 38.5 -11t49.5 -5q31 0 55 14.5t30 54.5l71 445h267l-72 -454q-22 -139 -97 -204.5t-202 -65.5z" />
    <glyph glyph-name="K" unicode="K" horiz-adv-x="782" 
d="M129 715h267l-39 -248l212 248h282l-300 -341l184 -374h-286l-123 274l-43 -274h-267z" />
    <glyph glyph-name="L" unicode="L" horiz-adv-x="595" 
d="M129 715h267l-81 -511h241l-32 -204h-508z" />
    <glyph glyph-name="M" unicode="M" horiz-adv-x="986" 
d="M129 715h332l48 -286l143 286h346l-113 -715h-265l60 380l-202 -380h-90l-76 380l-60 -380h-236z" />
    <glyph glyph-name="N" unicode="N" horiz-adv-x="805" 
d="M129 715h294l108 -317l50 317h236l-113 -715h-250l-142 375l-59 -375h-237z" />
    <glyph glyph-name="O" unicode="O" horiz-adv-x="823" 
d="M308 307q0 -24 5 -44.5t17 -35.5t31 -24t47 -9q37 0 63 18.5t42 48.5t23 67t7 74q0 24 -5 45t-16.5 36.5t-30 25t-46.5 10.5q-36 1 -62 -17.5t-42.5 -48.5t-24.5 -68t-8 -78zM387 -14q-70 0 -134 19t-113 57.5t-78.5 97t-29.5 136.5q0 97 30.5 176t86 135.5t133 87.5
t171.5 31q73 0 139.5 -18.5t117 -56.5t80.5 -97.5t30 -141.5q0 -96 -30.5 -174.5t-86.5 -134.5t-136.5 -86.5t-179.5 -30.5z" />
    <glyph glyph-name="P" unicode="P" horiz-adv-x="688" 
d="M129 715h287q72 0 126 -15.5t90 -44t54 -67.5t18 -87q0 -135 -81 -210t-233 -75h-73l-34 -216h-267zM376 392q36 0 56.5 19t20.5 57q0 24 -16.5 38.5t-49.5 14.5h-24l-20 -129h33z" />
    <glyph glyph-name="Q" unicode="Q" horiz-adv-x="823" 
d="M387 -14q-70 0 -134 19t-113 57.5t-78.5 97t-29.5 136.5q0 97 30.5 176t86 135.5t133 87.5t171.5 31q73 0 139.5 -18.5t117 -56.5t80.5 -97.5t30 -141.5q0 -114 -42 -202t-119 -144l56 -56l-157 -146l-118 125q-26 -3 -53 -3zM308 307q0 -32 9.5 -61t34.5 -46l99 78
l47 -48q24 31 35 76.5t11 95.5q0 23 -5 44t-16.5 37t-30.5 25.5t-47 10.5q-36 1 -62 -17.5t-42.5 -48.5t-24.5 -68t-8 -78z" />
    <glyph glyph-name="R" unicode="R" horiz-adv-x="733" 
d="M129 715h303q75 0 129 -15.5t89 -43.5t51.5 -67.5t16.5 -87.5q0 -86 -40 -140.5t-106 -77.5l114 -283h-266l-89 227h-15l-35 -227h-265zM384 394q34 0 54.5 15.5t20.5 53.5q0 54 -65 54h-32l-19 -123h41z" />
    <glyph glyph-name="S" unicode="S" horiz-adv-x="657" 
d="M317 -14q-75 0 -134.5 15t-101 46t-63 77t-20.5 108h249q1 -26 16.5 -43.5t58.5 -17.5q56 0 56 38q0 15 -17.5 24t-56.5 16q-70 12 -118 30.5t-77.5 45t-42.5 62t-13 81.5q0 55 20.5 102.5t60 82t97.5 54t133 19.5q69 0 123.5 -13.5t92.5 -42.5t57.5 -74t18.5 -107h-243
q-3 52 -55 52q-49 0 -49 -34q0 -17 16.5 -25.5t57.5 -15.5q123 -20 189.5 -68.5t66.5 -146.5q0 -59 -20.5 -107.5t-61 -83t-100.5 -54t-140 -20.5z" />
    <glyph glyph-name="T" unicode="T" horiz-adv-x="648" 
d="M228 511h-173l33 204h614l-33 -204h-173l-80 -511h-268z" />
    <glyph glyph-name="U" unicode="U" horiz-adv-x="799" 
d="M391 -14q-88 0 -155.5 21t-110.5 63t-60 104.5t-3 146.5l63 394h266l-64 -402q-9 -57 5 -88t62 -31q25 0 40.5 7.5t25 21.5t14.5 34t9 46l65 412h268l-68 -432q-12 -80 -40 -136t-72 -92t-105 -52.5t-140 -16.5z" />
    <glyph glyph-name="V" unicode="V" horiz-adv-x="762" 
d="M72 715h279l41 -436l180 436h260l-340 -715h-299z" />
    <glyph glyph-name="W" unicode="W" horiz-adv-x="1027" 
d="M72 715h270l3 -393l130 393h224l20 -398l134 398h243l-279 -715h-258l-24 378l-141 -378h-269z" />
    <glyph glyph-name="X" unicode="X" horiz-adv-x="783" 
d="M239 377l-141 338h287l52 -179l104 179h275l-230 -345l155 -370h-286l-72 218l-137 -218h-278z" />
    <glyph glyph-name="Y" unicode="Y" horiz-adv-x="722" 
d="M234 304l-164 411h276l59 -190l118 190h265l-287 -424l-46 -291h-268z" />
    <glyph glyph-name="Z" unicode="Z" horiz-adv-x="628" 
d="M-33 27l333 495h-217l31 193h585l-5 -27l-332 -492h228l-31 -196h-596z" />
    <glyph glyph-name="bracketleft" unicode="[" horiz-adv-x="437" 
d="M134 776h348l-26 -164h-117l-94 -596h117l-26 -164h-348z" />
    <glyph glyph-name="backslash" unicode="\" horiz-adv-x="450" 
d="M52 776h170l212 -924h-170z" />
    <glyph glyph-name="bracketright" unicode="]" 
d="M-4 16h115l94 596h-115l26 164h346l-146 -924h-346z" />
    <glyph glyph-name="asciicircum" unicode="^" horiz-adv-x="543" 
d="M243 715h193l114 -329h-184l-50 145l-95 -145h-190z" />
    <glyph glyph-name="underscore" unicode="_" horiz-adv-x="454" 
d="M-53 -66h455l-15 -96h-455z" />
    <glyph glyph-name="grave" unicode="`" horiz-adv-x="400" 
d="M82 743h217l36 -175h-158z" />
    <glyph glyph-name="a" unicode="a" horiz-adv-x="595" 
d="M263 134q25 0 41.5 14.5t19.5 34.5l4 19h-40q-37 0 -50.5 -9t-13.5 -27q0 -14 10 -23t29 -9zM318 0q-3 14 -3.5 32t-0.5 33q-9 -14 -22.5 -28.5t-32 -25.5t-43 -18t-56.5 -7q-33 0 -63 9.5t-52.5 27.5t-35.5 45t-13 62q0 52 18.5 88t54.5 57.5t89.5 31t123.5 9.5h64l1 7
q4 25 -2.5 43t-38.5 18q-14 0 -23 -4.5t-14.5 -11.5t-8.5 -14.5t-4 -14.5h-212q20 97 87 148.5t186 51.5q290 0 251 -246l-20 -127q-8 -51 -10.5 -92t2.5 -74h-222z" />
    <glyph glyph-name="b" unicode="b" horiz-adv-x="651" 
d="M-6 0l118 743h229l-47 -298q26 43 67.5 68.5t104.5 25.5q36 0 67.5 -13.5t54.5 -41t36 -70t13 -99.5q0 -81 -19.5 -143t-53.5 -103t-79 -62t-97 -21q-54 0 -96 25t-55 70l-14 -81h-229zM315 156q38 0 63 38t25 104q0 36 -14.5 55.5t-44.5 19.5q-20 0 -35.5 -11t-27 -30
t-17.5 -45t-6 -55q0 -76 57 -76z" />
    <glyph glyph-name="c" unicode="c" horiz-adv-x="592" 
d="M293 -13q-57 0 -107.5 14.5t-88 44t-59.5 75t-22 107.5q0 69 21.5 126t61.5 98t96.5 64t126.5 23q55 0 102 -13t82 -41t55.5 -72t22.5 -105h-214q-2 27 -13 41.5t-39 14.5q-23 0 -37.5 -13t-22.5 -33.5t-11 -45t-3 -47.5q0 -33 12 -54.5t46 -21.5q55 0 67 66h204
q-12 -111 -82.5 -169.5t-197.5 -58.5z" />
    <glyph glyph-name="d" unicode="d" horiz-adv-x="651" 
d="M598 166q-8 -51 -11 -91.5t0 -74.5h-227q-4 15 -4.5 39t-0.5 45q-28 -47 -67.5 -72.5t-98.5 -25.5q-39 0 -71.5 13.5t-56 41t-36.5 70t-13 99.5q0 81 20 143t55 103t81.5 62t100.5 21q50 0 90 -24.5t54 -66.5l47 295h229zM334 373q-38 0 -63 -38t-25 -104q0 -36 14 -56.5
t44 -20.5q19 0 35.5 11.5t27.5 31t17.5 45.5t6.5 55q0 76 -57 76z" />
    <glyph glyph-name="e" unicode="e" horiz-adv-x="616" 
d="M238 215q0 -15 4 -29.5t12.5 -26t22.5 -18.5t35 -7q32 0 46.5 15t20.5 35h213q-17 -96 -92 -147t-193 -51q-59 0 -111.5 13t-92.5 42.5t-63.5 76t-23.5 112.5q0 70 24 127.5t66.5 97.5t100 62t125.5 22q69 0 122 -20.5t87.5 -59.5t48.5 -95.5t3 -128.5l-3 -20h-352z
M329 398q-25 0 -46 -17.5t-33 -59.5h139q2 32 -11.5 54.5t-48.5 22.5z" />
    <glyph glyph-name="f" unicode="f" horiz-adv-x="406" 
d="M108 523l8 48q9 51 31 86.5t54.5 58t73.5 32.5t86 10q40 0 62.5 -4t42.5 -11l-26 -164q-10 3 -19 5t-25 2q-26 0 -39 -11t-17 -30l-4 -22h95l-23 -149h-95l-59 -374h-228l59 374h-61l23 149h61z" />
    <glyph glyph-name="g" unicode="g" horiz-adv-x="648" 
d="M268 -195q-75 0 -129.5 15.5t-89.5 43.5t-53 65.5t-19 82.5h226q1 -17 14.5 -35t49.5 -18q22 0 36 6t22.5 15.5t12.5 22.5t6 28l15 94q-23 -37 -61.5 -61.5t-98.5 -24.5q-38 0 -71 12.5t-58 38.5t-39.5 65t-14.5 93q0 67 19 121t53 91.5t79.5 58t99.5 20.5q58 0 93 -25
t50 -67l12 76h229l-78 -491q-9 -58 -31 -101t-58.5 -71t-90 -41.5t-125.5 -13.5zM306 191q22 0 38 10t26 26t15 37t5 44q-1 28 -14 48t-41 20q-22 0 -38 -10t-26 -26t-15 -36t-5 -40q0 -32 13 -52.5t42 -20.5z" />
    <glyph glyph-name="h" unicode="h" horiz-adv-x="635" 
d="M112 743h229l-50 -314q28 47 71.5 78.5t107.5 31.5q35 0 65 -12.5t50.5 -39.5t28 -69.5t-1.5 -101.5l-50 -316h-229l45 287q10 70 -43 70q-31 0 -46 -18t-21 -58l-44 -281h-229z" />
    <glyph glyph-name="i" unicode="i" horiz-adv-x="316" 
d="M216 544q-52 0 -84.5 31t-32.5 79t33 79t85 31q51 0 84.5 -31t33.5 -79t-34 -79t-85 -31zM84 523h228l-82 -523h-228z" />
    <glyph glyph-name="j" unicode="j" horiz-adv-x="316" 
d="M-59 -20q27 2 43.5 12t20.5 36l78 495h228l-82 -518q-6 -39 -23 -75t-52.5 -62t-92.5 -39t-144 -8zM215 544q-52 0 -84.5 31t-32.5 79t33 79t85 31q51 0 84.5 -31t33.5 -79t-34 -79t-85 -31z" />
    <glyph glyph-name="k" unicode="k" horiz-adv-x="609" 
d="M112 743h229l-65 -408l135 188h241l-191 -243l111 -280h-243l-72 209l-33 -209h-229z" />
    <glyph glyph-name="l" unicode="l" horiz-adv-x="312" 
d="M118 743h227l-117 -743h-227z" />
    <glyph glyph-name="m" unicode="m" horiz-adv-x="939" 
d="M289 429q13 21 31 40.5t41 35t50.5 25t58.5 9.5q50 0 82.5 -24t46.5 -74q32 46 77 72t99 26q38 0 68 -12.5t49.5 -38t27 -63.5t-0.5 -89l-53 -336h-228l46 295q5 31 -5 46t-32 15q-26 0 -39 -16.5t-18 -45.5l-46 -294h-226l46 294q5 32 -5 47t-32 15q-28 0 -40 -16.5
t-17 -45.5l-46 -294h-229l54 344q9 58 14 100t7 79h225q0 -19 -1.5 -45t-4.5 -49z" />
    <glyph glyph-name="n" unicode="n" horiz-adv-x="635" 
d="M49 344q9 58 14 100t7 79h225q0 -19 -1.5 -46.5t-4.5 -50.5q28 47 72.5 80t108.5 33q35 0 65 -12.5t50.5 -39.5t28 -69.5t-1.5 -101.5l-50 -316h-229l45 287q10 70 -43 70q-31 0 -46 -18t-21 -58l-44 -281h-229z" />
    <glyph glyph-name="o" unicode="o" horiz-adv-x="629" 
d="M244 226q0 -12 2 -25t8.5 -24t18 -18t30.5 -7q22 0 37.5 11.5t25.5 32t14.5 48.5t4.5 60q0 26 -12.5 47t-43.5 21q-46 0 -65.5 -41.5t-19.5 -104.5zM300 -14q-53 0 -103.5 13t-90 42t-64.5 75t-25 112q0 67 22.5 124.5t63.5 98.5t99 64.5t129 23.5q52 0 103 -13.5
t91 -43.5t64.5 -77t24.5 -113q0 -69 -23 -125t-64.5 -96.5t-99 -62.5t-127.5 -22z" />
    <glyph glyph-name="p" unicode="p" horiz-adv-x="651" 
d="M315 156q38 0 63 38t25 104q0 36 -14.5 55.5t-44.5 19.5q-20 0 -35.5 -11t-27 -30t-17.5 -45t-6 -55q0 -76 57 -76zM290 437q26 48 69.5 75t106.5 27q37 0 68 -13.5t54 -41t36 -70t13 -99.5q0 -81 -19 -143t-52.5 -103t-78.5 -62t-97 -21q-54 0 -97 25t-56 70l-41 -253
h-229l82 516q9 58 14 100t7 79h225q0 -17 -1.5 -40.5t-3.5 -45.5z" />
    <glyph glyph-name="q" unicode="q" horiz-adv-x="651" 
d="M654 523l-110 -695h-229l41 256q-28 -47 -68 -72.5t-99 -25.5q-39 0 -71.5 13.5t-56 41t-36.5 70t-13 99.5q0 81 20 143t55 103t81.5 62t100.5 21q50 0 90 -24.5t54 -66.5l12 75h229zM334 373q-38 0 -63 -38t-25 -104q0 -36 14 -56.5t44 -20.5q19 0 35.5 11.5t27.5 31
t17.5 45.5t6.5 55q0 76 -57 76z" />
    <glyph glyph-name="r" unicode="r" horiz-adv-x="458" 
d="M49 344q9 58 13.5 100t6.5 79h225q0 -9 -0.5 -23.5t-1.5 -31t-2.5 -34.5t-3.5 -34q29 69 77 100t111 29l-33 -213q-85 7 -129 -16.5t-55 -89.5l-33 -210h-229z" />
    <glyph glyph-name="s" unicode="s" horiz-adv-x="530" 
d="M237 -15q-54 0 -100 10t-80 32.5t-53 58t-19 86.5h211q2 -22 11.5 -33.5t35.5 -11.5q17 0 27.5 6.5t10.5 20.5q0 13 -15 20.5t-66 15.5q-45 7 -78 19t-55.5 30t-33.5 44t-11 61q0 49 19 86t53.5 61.5t82 36.5t104.5 12q53 0 97 -10t75.5 -31.5t49.5 -56t21 -82.5h-206
q-2 17 -11 30t-31 13q-20 0 -29.5 -7.5t-9.5 -19.5q0 -16 16.5 -22t49.5 -12q55 -10 93.5 -22.5t63 -31.5t35.5 -45.5t11 -64.5q0 -51 -20.5 -87.5t-56.5 -60t-85.5 -34.5t-106.5 -11z" />
    <glyph glyph-name="t" unicode="t" horiz-adv-x="407" 
d="M235 -14q-50 0 -88 11t-62 37t-32.5 68t1.5 104l27 168h-57l23 149h57l17 104h229l-17 -104h93l-23 -149h-93l-25 -158q-5 -29 5.5 -40t33.5 -11q9 0 20.5 1.5t24.5 6.5l-27 -170q-18 -7 -45 -12t-62 -5z" />
    <glyph glyph-name="u" unicode="u" horiz-adv-x="638" 
d="M582 166q-8 -51 -11.5 -91.5t-1.5 -74.5h-225q-2 16 -1.5 44.5t1.5 49.5q-29 -48 -72.5 -78t-106.5 -30q-35 0 -65 12.5t-50.5 39t-28 68.5t1.5 101l50 316h229l-48 -301q-10 -70 42 -70q30 0 45 18t21 58l47 295h229z" />
    <glyph glyph-name="v" unicode="v" horiz-adv-x="614" 
d="M39 523h234l31 -286l127 286h224l-276 -523h-239z" />
    <glyph glyph-name="w" unicode="w" horiz-adv-x="863" 
d="M39 523h231l16 -257l100 257h182l18 -257l100 257h219l-247 -523h-212l-21 240l-96 -240h-218z" />
    <glyph glyph-name="x" unicode="x" horiz-adv-x="633" 
d="M169 267l-116 256h251l39 -111l72 111h239l-198 -244l132 -279h-251l-48 128l-91 -128h-238z" />
    <glyph glyph-name="y" unicode="y" horiz-adv-x="614" 
d="M168 59l-129 464h238l43 -232l110 232h225l-382 -695h-226z" />
    <glyph glyph-name="z" unicode="z" horiz-adv-x="521" 
d="M-35 21l244 337h-171l25 165h491l-3 -21l-257 -339h187l-25 -163h-494z" />
    <glyph glyph-name="braceleft" unicode="{" horiz-adv-x="437" 
d="M336 -148q-82 0 -140.5 16.5t-92.5 48t-41.5 78t12.5 107.5l23 74q11 33 -7 49.5t-67 19.5l25 157q52 0 73.5 14.5t20.5 45.5v74q0 69 20 115t61.5 74t105.5 39.5t153 11.5l-26 -165q-50 -4 -67.5 -21t-19.5 -57l-5 -94q-2 -50 -34.5 -81.5t-90.5 -42.5
q57 -14 77.5 -49.5t6.5 -85.5l-25 -93q-10 -37 2.5 -51.5t61.5 -18.5l-26 -165v0z" />
    <glyph glyph-name="bar" unicode="|" horiz-adv-x="275" 
d="M73 776h155v-924h-155v924z" />
    <glyph glyph-name="braceright" unicode="}" horiz-adv-x="437" 
d="M115 776q165 0 232.5 -63.5t29.5 -186.5l-22 -72q-10 -33 7.5 -49.5t66.5 -19.5l-25 -157q-52 0 -72.5 -14.5t-21.5 -45.5l-1 -76q-1 -69 -21 -115t-61.5 -74t-105.5 -39.5t-152 -11.5l26 165q50 4 67.5 21t19.5 57l6 96q3 50 35 81.5t90 42.5q-57 14 -77 49.5t-7 85.5
l24 91q10 37 -2.5 51.5t-61.5 18.5l26 165v0z" />
    <glyph glyph-name="asciitilde" unicode="~" horiz-adv-x="556" 
d="M14 210q8 65 26.5 110t44 72.5t55.5 39.5t62 12q28 0 52.5 -6.5t45.5 -14t38 -14t31 -6.5q22 0 33 11.5t16 30.5h142q-6 -60 -24.5 -104t-44 -73t-56.5 -43t-63 -14q-29 0 -53.5 6.5t-45.5 14t-38 14t-31 6.5q-22 0 -32.5 -12t-15.5 -30h-142v0z" />
    <glyph glyph-name="exclamdown" unicode="&#xa1;" horiz-adv-x="358" 
d="M211 612q27 0 49 -9t38.5 -24.5t25.5 -37t9 -45.5t-9.5 -46t-26.5 -38t-39.5 -25.5t-49.5 -9.5t-49.5 9t-39 25t-26 37.5t-9.5 45.5t10 45.5t27 37.5t40 25.5t50 9.5zM244 -117h-258l107 463h192z" />
    <glyph glyph-name="cent" unicode="&#xa2;" horiz-adv-x="610" 
d="M242 -10q-47 6 -89 23.5t-73 46t-49.5 68.5t-18.5 91q0 67 22 124.5t63 100t99.5 67.5t131.5 27l15 91h69l-15 -94q94 -12 149.5 -67t58.5 -160h-204q0 24 -6.5 39t-23.5 23l-37 -230q28 6 43 24.5t22 50.5h196q-5 -50 -26.5 -91.5t-58 -71.5t-87 -47.5t-113.5 -18.5
l-19 -121h-69zM232 222q0 -59 34 -77l36 227q-33 -11 -51.5 -48t-18.5 -102z" />
    <glyph glyph-name="sterling" unicode="&#xa3;" horiz-adv-x="688" 
d="M50 414h40q-2 14 -3 27.5t-1 28.5q0 61 24 109t66 80.5t98.5 49.5t121.5 17q64 0 118.5 -13t94 -44t62 -82.5t21.5 -128.5h-245q2 38 -9.5 54t-38.5 16q-18 0 -30 -8t-18.5 -21.5t-9 -31t-2.5 -36.5v-17h168l-21 -132h-147q-2 -17 -6.5 -37.5t-13.5 -40.5q18 -4 33 -6.5
t29 -2.5q46 0 54 45h239q-7 -54 -26 -99.5t-51 -78.5t-77 -52t-103 -19q-40 0 -72.5 7.5t-58.5 16t-47 16t-37 7.5q-18 0 -29.5 -10.5t-14.5 -27.5h-191q11 69 41 123.5t84 80.5q17 38 18 78h-81z" />
    <glyph glyph-name="yen" unicode="&#xa5;" horiz-adv-x="682" 
d="M72 379h128l-127 336h282l37 -186l100 186h259l-225 -336h130l-12 -78h-159l-6 -38h158l-12 -78h-158l-29 -185h-268l29 185h-158l12 78h158l6 38h-157z" />
    <glyph glyph-name="brokenbar" unicode="&#xa6;" horiz-adv-x="275" 
d="M73 303h155v-451h-155v451zM73 776h155v-401h-155v401z" />
    <glyph glyph-name="section" unicode="&#xa7;" horiz-adv-x="641" 
d="M280 -137q-49 0 -93 10.5t-77 33.5t-53 59.5t-20 89.5h205q2 -22 12 -34t33 -12q14 0 23.5 5.5t9.5 17.5q0 14 -21.5 23t-69.5 23q-50 15 -90 32t-68 39.5t-43.5 52t-15.5 68.5q0 67 35.5 104t93.5 56q-26 37 -26 79q0 57 20.5 97.5t55.5 67t82.5 39t100.5 12.5
q49 0 92 -10t75.5 -33t51.5 -61t21 -93h-208q-2 20 -8.5 32.5t-32.5 13.5q-34 0 -34 -25q0 -15 20.5 -23t68.5 -23q49 -15 88.5 -32t68 -39.5t44 -52t15.5 -69.5q0 -65 -34.5 -101t-94.5 -57q30 -36 30 -79q0 -57 -21.5 -97t-57 -65.5t-82 -37t-96.5 -11.5zM386 239
q11 2 18 7t7 16q0 7 -3.5 12.5t-12.5 11t-24.5 12t-38.5 16.5l-67 30q-10 -1 -18 -6t-8 -17q0 -14 16.5 -23t61.5 -29z" />
    <glyph glyph-name="dieresis" unicode="&#xa8;" horiz-adv-x="400" 
d="M148 552q-21 0 -40 7.5t-32.5 21t-21.5 31.5t-8 39t8 39t21.5 31.5t32.5 21t40 7.5t40 -7.5t33 -21t22 -31.5t8 -39t-8 -39t-22 -31.5t-33 -21t-40 -7.5zM373 552q-21 0 -39.5 7.5t-32 21t-21.5 31.5t-8 39t8 39t21.5 31.5t32 21t39.5 7.5q44 0 73.5 -28.5t29.5 -70.5
t-29.5 -70.5t-73.5 -28.5z" />
    <glyph glyph-name="copyright" unicode="&#xa9;" horiz-adv-x="842" 
d="M444 149q-58 0 -100 14.5t-69 41.5t-40 65t-13 84v8q0 47 16.5 85t45.5 64.5t68 40.5t85 14q86 0 139 -39.5t60 -126.5h-155q-2 23 -13 35.5t-31 12.5q-27 0 -42 -20.5t-15 -65.5v-7q0 -87 60 -87q21 0 35.5 11.5t16.5 37.5h149q-2 -41 -17 -72.5t-41 -52.5t-61.5 -32
t-77.5 -11zM433 30q67 0 126.5 23.5t103 67t69 104t25.5 134.5q0 73 -24.5 133t-68 103t-102.5 66.5t-127 23.5q-69 0 -128.5 -24t-103 -67t-68 -103.5t-24.5 -133.5q0 -74 25.5 -134.5t69 -103t102 -66t125.5 -23.5zM433 -25q-81 0 -152.5 29t-125 80.5t-84 121.5
t-30.5 151q0 80 30.5 150t84 121.5t125 81.5t154.5 30q84 0 155.5 -29.5t124 -81t82.5 -121t30 -149.5q0 -82 -30.5 -152t-84 -121.5t-125.5 -81t-154 -29.5z" />
    <glyph glyph-name="ordfeminine" unicode="&#xaa;" horiz-adv-x="516" 
d="M307 298q-2 11 -3 25.5t-1 25.5q-7 -10 -17 -21t-24.5 -20.5t-34.5 -15.5t-46 -6q-25 0 -48 7t-41 21t-29 35t-11 49q0 42 16 70t46.5 45.5t75.5 24.5t103 7h33l1 8q2 14 -0.5 26t-23.5 12q-18 0 -25 -11t-9 -22h-185q14 80 74 122.5t161 42.5q62 0 104 -12t65.5 -37.5
t29.5 -66t-3 -97.5l-13 -82q-13 -78 -6 -130h-189zM272 414q32 0 37 27l2 12h-25q-23 0 -31 -5.5t-8 -15.5q0 -18 25 -18z" />
    <glyph glyph-name="guillemotleft" unicode="&#xab;" horiz-adv-x="470" 
d="M15 267l138 192h136l-137 -193l88 -203h-129zM198 264l138 195h136l-137 -199l83 -197h-129z" />
    <glyph glyph-name="registered" unicode="&#xae;" horiz-adv-x="518" 
d="M206 615h96q95 0 95 -74v-1q0 -22 -9 -35.5t-23 -21.5l45 -87h-83l-34 70h-6v-70h-81v219zM296 517q23 0 23 19v1q0 17 -23 17h-9v-37h9zM296 320q40 0 74 13.5t59 37.5t39.5 57.5t14.5 74.5q0 40 -14 74t-38.5 58t-59 37.5t-75.5 13.5t-75.5 -13.5t-59 -38t-38.5 -58.5
t-14 -74q0 -41 14.5 -74.5t39.5 -57.5t59.5 -37t73.5 -13zM296 280q-48 0 -90.5 17t-74 47t-50 70.5t-18.5 87.5q0 46 18 87t49.5 71.5t74 48t91.5 17.5t92 -17.5t74 -47.5t49 -71t18 -87q0 -47 -18 -88t-49.5 -71t-74 -47t-91.5 -17z" />
    <glyph glyph-name="macron" unicode="&#xaf;" horiz-adv-x="400" 
d="M104 712h331l-19 -119h-331z" />
    <glyph glyph-name="degree" unicode="&#xb0;" horiz-adv-x="466" 
d="M277 444q40 0 65.5 29t25.5 72q0 45 -25.5 74t-65.5 29q-42 0 -67.5 -29t-25.5 -74q0 -43 25.5 -72t67.5 -29zM277 368q-38 0 -71.5 14t-58.5 38.5t-39.5 56.5t-14.5 68q0 37 14.5 69.5t39.5 57t58.5 38.5t71.5 14q37 0 70.5 -14t58 -38.5t39 -57t14.5 -69.5
q0 -36 -14.5 -68t-39 -56.5t-58 -38.5t-70.5 -14z" />
    <glyph glyph-name="plusminus" unicode="&#xb1;" horiz-adv-x="596" 
d="M221 348h-170l25 162h170l25 156h180l-25 -156h170l-25 -162h-170l-25 -156h-180zM18 142h524l-22 -142h-524z" />
    <glyph glyph-name="twosuperior" unicode="&#xb2;" horiz-adv-x="388" 
d="M16 342l149 133q13 11 28.5 25t29.5 28.5t23.5 27.5t9.5 23q0 22 -19 22q-12 0 -21.5 -10.5t-14.5 -35.5h-152q12 86 66 126t135 40q35 0 66 -6t54.5 -20.5t37 -38t13.5 -57.5q0 -42 -29 -77.5t-77 -73.5l-11 -9h93l-19 -117h-366z" />
    <glyph glyph-name="threesuperior" unicode="&#xb3;" horiz-adv-x="406" 
d="M231 314q-84 0 -134 34t-51 111h146q0 -32 31 -32q9 0 18 5.5t9 20.5q0 10 -8.5 15.5t-28.5 5.5h-30l14 88h37q36 0 36 26q0 9 -5.5 15t-19.5 6q-11 0 -20.5 -6.5t-13.5 -23.5h-144q10 68 59 105t135 37q28 0 57.5 -5t53.5 -17t39 -33t15 -53q0 -38 -22.5 -61t-58.5 -33
q31 -7 49.5 -25t18.5 -53q0 -34 -14.5 -58t-39.5 -39.5t-58 -22.5t-70 -7z" />
    <glyph glyph-name="acute" unicode="&#xb4;" horiz-adv-x="400" 
d="M230 743h219l-127 -175h-163z" />
    <glyph glyph-name="paragraph" unicode="&#xb6;" horiz-adv-x="532" 
d="M254 320h-2q-41 0 -77 10.5t-62.5 32.5t-42 54.5t-15.5 76.5q0 55 19 96.5t52 69.5t78.5 41.5t99.5 13.5h241l-129 -815h-79l118 748h-71l-118 -748h-78z" />
    <glyph glyph-name="periodcentered" unicode="&#xb7;" horiz-adv-x="308" 
d="M161 206q-27 0 -49 9.5t-38.5 25.5t-25.5 38t-9 47t9 46.5t25 38t38 26t49 9.5t50.5 -9.5t40.5 -26t26.5 -38t9.5 -46.5t-9.5 -47t-26 -38t-40 -25.5t-50.5 -9.5z" />
    <glyph glyph-name="cedilla" unicode="&#xb8;" horiz-adv-x="400" 
d="M137 -232q-26 0 -50.5 5.5t-44 17t-31.5 30t-14 44.5h100q2 -8 8 -15.5t23 -7.5q10 0 20 6.5t10 23.5q0 26 -30 26q-12 0 -19 -3t-12 -8l-38 42l58 71h82l-35 -41q45 3 75.5 -19t30.5 -64q0 -28 -11 -48t-29 -33.5t-42 -20t-51 -6.5z" />
    <glyph glyph-name="onesuperior" unicode="&#xb9;" horiz-adv-x="315" 
d="M146 553l-89 -42l21 134l119 70h142l-63 -393h-167z" />
    <glyph glyph-name="ordmasculine" unicode="&#xba;" horiz-adv-x="537" 
d="M279 286q-100 0 -159 48.5t-59 138.5q0 57 21.5 103.5t58 79t84.5 50t101 17.5q109 0 163 -53t54 -140q0 -57 -22 -102.5t-59 -77t-84.5 -48t-98.5 -16.5zM293 427q15 0 25 9.5t17 24.5t10 34.5t3 39.5q0 22 -7.5 34t-27.5 12q-26 0 -41 -31t-15 -77t36 -46z" />
    <glyph glyph-name="guillemotright" unicode="&#xbb;" horiz-adv-x="470" 
d="M454 255l-138 -192h-136l137 193l-88 203h129zM271 258l-138 -195h-136l137 199l-83 197h129z" />
    <glyph glyph-name="onequarter" unicode="&#xbc;" horiz-adv-x="862" 
d="M149 553l-89 -42l21 134l119 70h142l-63 -393h-167zM688 715h109l-618 -715h-109zM598 71h-194l10 62l199 261h198l-34 -216h49l-17 -107h-49l-11 -70h-162zM621 178l17 106l-78 -106h61z" />
    <glyph glyph-name="onehalf" unicode="&#xbd;" horiz-adv-x="874" 
d="M149 553l-89 -42l21 134l119 70h142l-63 -393h-167zM675 715h109l-618 -715h-109zM449 21l149 133q13 11 28.5 25t29.5 28.5t23.5 27.5t9.5 23q0 22 -19 22q-12 0 -21.5 -10.5t-14.5 -35.5h-152q12 86 66 126t135 40q35 0 66 -6t54.5 -20.5t37 -38t13.5 -57.5
q0 -42 -29 -77.5t-77 -73.5l-11 -9h93l-19 -117h-366z" />
    <glyph glyph-name="threequarters" unicode="&#xbe;" horiz-adv-x="910" 
d="M234 314q-84 0 -134 34t-51 111h146q0 -32 31 -32q9 0 18 5.5t9 20.5q0 10 -8.5 15.5t-28.5 5.5h-30l14 88h37q36 0 36 26q0 9 -5.5 15t-19.5 6q-11 0 -20.5 -6.5t-13.5 -23.5h-144q10 68 59 105t135 37q28 0 57.5 -5t53.5 -17t39 -33t15 -53q0 -38 -22.5 -61t-58.5 -33
q31 -7 49.5 -25t18.5 -53q0 -34 -14.5 -58t-39.5 -39.5t-58 -22.5t-70 -7zM750 715h109l-618 -715h-109zM646 71h-194l10 62l199 261h198l-34 -216h49l-17 -107h-49l-11 -70h-162zM669 178l17 106l-78 -106h61z" />
    <glyph glyph-name="questiondown" unicode="&#xbf;" horiz-adv-x="591" 
d="M438 337q-7 -35 -24.5 -61.5t-39.5 -47.5t-45.5 -38t-43.5 -33t-32.5 -32.5t-12.5 -35.5q2 -31 34 -31q20 0 33.5 15.5t21.5 50.5h224q-8 -65 -35 -112t-68.5 -78t-94 -46t-112.5 -15q-126 0 -189.5 49t-63.5 138q0 41 13.5 72t34.5 55t47.5 43t52 37t48 36t35.5 41l1 3
h218zM357 613q27 0 49 -9t38.5 -24.5t25.5 -37t9 -45.5t-9.5 -46t-26.5 -38t-39.5 -25.5t-49.5 -9.5t-49.5 9t-39 25t-26 37.5t-9.5 45.5t10 45.5t27 37.5t40 25.5t50 9.5z" />
    <glyph glyph-name="Agrave" unicode="&#xc0;" horiz-adv-x="784" 
d="M454 95h-202l-39 -95h-254l333 715h343l106 -715h-278zM325 273h113l-20 228zM304 908h227l30 -155h-168z" />
    <glyph glyph-name="Aacute" unicode="&#xc1;" horiz-adv-x="784" 
d="M454 95h-202l-39 -95h-254l333 715h343l106 -715h-278zM325 273h113l-20 228zM433 908h229l-118 -155h-173z" />
    <glyph glyph-name="Acircumflex" unicode="&#xc2;" horiz-adv-x="784" 
d="M454 95h-202l-39 -95h-254l333 715h343l106 -715h-278zM325 273h113l-20 228zM384 908h189l93 -155h-159l-40 44l-50 -44h-168z" />
    <glyph glyph-name="Atilde" unicode="&#xc3;" horiz-adv-x="784" 
d="M454 95h-202l-39 -95h-254l333 715h343l106 -715h-278zM325 273h113l-20 228zM534 750q-24 0 -41.5 4.5t-32 10t-26 10t-23.5 4.5q-11 0 -19.5 -7.5t-10.5 -18.5h-123q14 91 56 131.5t93 40.5q22 0 39.5 -4.5t32.5 -10t28 -10t26 -4.5q23 0 31 26h123q-8 -46 -23.5 -78.5
t-36.5 -53.5t-45 -30.5t-48 -9.5z" />
    <glyph glyph-name="Adieresis" unicode="&#xc4;" horiz-adv-x="784" 
d="M454 95h-202l-39 -95h-254l333 715h343l106 -715h-278zM325 273h113l-20 228zM353 742q-21 0 -40 7.5t-32.5 21t-21.5 31.5t-8 39t8 39t21.5 31.5t32.5 21t40 7.5t40 -7.5t33 -21t22 -31.5t8 -39t-8 -39t-22 -31.5t-33 -21t-40 -7.5zM586 742q-21 0 -39.5 7.5t-32 21
t-21.5 31.5t-8 39t8 39t21.5 31.5t32 21t39.5 7.5q44 0 73.5 -28.5t29.5 -70.5t-29.5 -70.5t-73.5 -28.5z" />
    <glyph glyph-name="Aring" unicode="&#xc5;" horiz-adv-x="784" 
d="M454 95h-202l-39 -95h-254l333 715h343l106 -715h-278zM325 273h113l-20 228zM468 812q19 0 31 13t12 34t-12 34t-31 13q-20 0 -31.5 -13t-11.5 -34t11.5 -34t31.5 -13zM468 737q-26 0 -49 9.5t-40 26t-27 39t-10 47.5t10 47.5t27 39t40 26t49 9.5t49 -9.5t40 -26t27 -39
t10 -47.5t-10 -47.5t-27 -39t-40 -26t-49 -9.5z" />
    <glyph glyph-name="AE" unicode="&#xc6;" horiz-adv-x="1029" 
d="M438 115h-162l-61 -115h-256l405 715h693l-32 -203h-260l-10 -61h203l-28 -182h-203l-11 -66h275l-32 -203h-539zM368 288h97l36 224h-14z" />
    <glyph glyph-name="Ccedilla" unicode="&#xc7;" horiz-adv-x="779" 
d="M322 -232q-26 0 -50.5 5.5t-44 17t-31.5 30t-14 44.5h100q2 -8 8 -15.5t23 -7.5q10 0 20 6.5t10 23.5q0 26 -30 26q-12 0 -19 -3t-12 -8l-38 42l53 65q-61 10 -110 34t-83.5 62t-53 91t-18.5 121q0 94 27.5 172t80 134t128.5 87t174 31q157 0 245.5 -73t93.5 -223h-270
q-2 42 -19.5 65.5t-56.5 23.5q-33 0 -56 -17t-38 -45.5t-22.5 -65.5t-8.5 -77q0 -23 4 -44t14 -37.5t27.5 -26.5t43.5 -10q36 0 62.5 20.5t37.5 68.5h265q-9 -77 -41.5 -133t-82 -93t-112 -55t-132.5 -18h-10t-14 1l-23 -28q45 3 75.5 -19t30.5 -64q0 -28 -11 -48t-29 -33.5
t-42 -20t-51 -6.5z" />
    <glyph glyph-name="Egrave" unicode="&#xc8;" horiz-adv-x="635" 
d="M129 715h534l-32 -203h-269l-10 -61h212l-28 -182h-212l-11 -66h284l-32 -203h-549zM232 908h227l30 -155h-168z" />
    <glyph glyph-name="Eacute" unicode="&#xc9;" horiz-adv-x="635" 
d="M129 715h534l-32 -203h-269l-10 -61h212l-28 -182h-212l-11 -66h284l-32 -203h-549zM357 908h229l-118 -155h-173z" />
    <glyph glyph-name="Ecircumflex" unicode="&#xca;" horiz-adv-x="635" 
d="M129 715h534l-32 -203h-269l-10 -61h212l-28 -182h-212l-11 -66h284l-32 -203h-549zM322 908h189l93 -155h-159l-40 44l-50 -44h-168z" />
    <glyph glyph-name="Edieresis" unicode="&#xcb;" horiz-adv-x="635" 
d="M129 715h534l-32 -203h-269l-10 -61h212l-28 -182h-212l-11 -66h284l-32 -203h-549zM293 742q-21 0 -40 7.5t-32.5 21t-21.5 31.5t-8 39t8 39t21.5 31.5t32.5 21t40 7.5t40 -7.5t33 -21t22 -31.5t8 -39t-8 -39t-22 -31.5t-33 -21t-40 -7.5zM526 742q-21 0 -39.5 7.5
t-32 21t-21.5 31.5t-8 39t8 39t21.5 31.5t32 21t39.5 7.5q44 0 73.5 -28.5t29.5 -70.5t-29.5 -70.5t-73.5 -28.5z" />
    <glyph glyph-name="Igrave" unicode="&#xcc;" horiz-adv-x="391" 
d="M132 715h269l-113 -715h-269zM106 908h227l30 -155h-168z" />
    <glyph glyph-name="Iacute" unicode="&#xcd;" horiz-adv-x="391" 
d="M132 715h269l-113 -715h-269zM231 908h229l-118 -155h-173z" />
    <glyph glyph-name="Icircumflex" unicode="&#xce;" horiz-adv-x="391" 
d="M132 715h269l-113 -715h-269zM196 908h189l93 -155h-159l-40 44l-50 -44h-168z" />
    <glyph glyph-name="Idieresis" unicode="&#xcf;" horiz-adv-x="391" 
d="M132 715h269l-113 -715h-269zM167 742q-21 0 -40 7.5t-32.5 21t-21.5 31.5t-8 39t8 39t21.5 31.5t32.5 21t40 7.5t40 -7.5t33 -21t22 -31.5t8 -39t-8 -39t-22 -31.5t-33 -21t-40 -7.5zM400 742q-21 0 -39.5 7.5t-32 21t-21.5 31.5t-8 39t8 39t21.5 31.5t32 21t39.5 7.5
q44 0 73.5 -28.5t29.5 -70.5t-29.5 -70.5t-73.5 -28.5z" />
    <glyph glyph-name="Eth" unicode="&#xd0;" horiz-adv-x="791" 
d="M55 447h49l43 268h261q186 0 282.5 -78t96.5 -226q0 -105 -31.5 -182t-87.5 -128t-133 -76t-168 -25h-333l43 272h-49zM370 201q69 0 105 50.5t36 147.5q0 60 -27.5 87.5t-80.5 27.5h-27l-11 -67h75l-27 -175h-76l-11 -71h44z" />
    <glyph glyph-name="Ntilde" unicode="&#xd1;" horiz-adv-x="805" 
d="M129 715h294l108 -317l50 317h236l-113 -715h-250l-142 375l-59 -375h-237zM563 750q-24 0 -41.5 4.5t-32 10t-26 10t-23.5 4.5q-11 0 -19.5 -7.5t-10.5 -18.5h-123q14 91 56 131.5t93 40.5q22 0 39.5 -4.5t32.5 -10t28 -10t26 -4.5q23 0 31 26h123q-8 -46 -23.5 -78.5
t-36.5 -53.5t-45 -30.5t-48 -9.5z" />
    <glyph glyph-name="Ograve" unicode="&#xd2;" horiz-adv-x="823" 
d="M308 307q0 -24 5 -44.5t17 -35.5t31 -24t47 -9q37 0 63 18.5t42 48.5t23 67t7 74q0 24 -5 45t-16.5 36.5t-30 25t-46.5 10.5q-36 1 -62 -17.5t-42.5 -48.5t-24.5 -68t-8 -78zM387 -14q-70 0 -134 19t-113 57.5t-78.5 97t-29.5 136.5q0 97 30.5 176t86 135.5t133 87.5
t171.5 31q73 0 139.5 -18.5t117 -56.5t80.5 -97.5t30 -141.5q0 -96 -30.5 -174.5t-86.5 -134.5t-136.5 -86.5t-179.5 -30.5zM299 908h227l30 -155h-168z" />
    <glyph glyph-name="Oacute" unicode="&#xd3;" horiz-adv-x="823" 
d="M308 307q0 -24 5 -44.5t17 -35.5t31 -24t47 -9q37 0 63 18.5t42 48.5t23 67t7 74q0 24 -5 45t-16.5 36.5t-30 25t-46.5 10.5q-36 1 -62 -17.5t-42.5 -48.5t-24.5 -68t-8 -78zM387 -14q-70 0 -134 19t-113 57.5t-78.5 97t-29.5 136.5q0 97 30.5 176t86 135.5t133 87.5
t171.5 31q73 0 139.5 -18.5t117 -56.5t80.5 -97.5t30 -141.5q0 -96 -30.5 -174.5t-86.5 -134.5t-136.5 -86.5t-179.5 -30.5zM424 908h229l-118 -155h-173z" />
    <glyph glyph-name="Ocircumflex" unicode="&#xd4;" horiz-adv-x="823" 
d="M308 307q0 -24 5 -44.5t17 -35.5t31 -24t47 -9q37 0 63 18.5t42 48.5t23 67t7 74q0 24 -5 45t-16.5 36.5t-30 25t-46.5 10.5q-36 1 -62 -17.5t-42.5 -48.5t-24.5 -68t-8 -78zM387 -14q-70 0 -134 19t-113 57.5t-78.5 97t-29.5 136.5q0 97 30.5 176t86 135.5t133 87.5
t171.5 31q73 0 139.5 -18.5t117 -56.5t80.5 -97.5t30 -141.5q0 -96 -30.5 -174.5t-86.5 -134.5t-136.5 -86.5t-179.5 -30.5zM384 908h189l93 -155h-159l-40 44l-50 -44h-168z" />
    <glyph glyph-name="Otilde" unicode="&#xd5;" horiz-adv-x="823" 
d="M308 307q0 -24 5 -44.5t17 -35.5t31 -24t47 -9q37 0 63 18.5t42 48.5t23 67t7 74q0 24 -5 45t-16.5 36.5t-30 25t-46.5 10.5q-36 1 -62 -17.5t-42.5 -48.5t-24.5 -68t-8 -78zM387 -14q-70 0 -134 19t-113 57.5t-78.5 97t-29.5 136.5q0 97 30.5 176t86 135.5t133 87.5
t171.5 31q73 0 139.5 -18.5t117 -56.5t80.5 -97.5t30 -141.5q0 -96 -30.5 -174.5t-86.5 -134.5t-136.5 -86.5t-179.5 -30.5zM530 750q-24 0 -41.5 4.5t-32 10t-26 10t-23.5 4.5q-11 0 -19.5 -7.5t-10.5 -18.5h-123q14 91 56 131.5t93 40.5q22 0 39.5 -4.5t32.5 -10t28 -10
t26 -4.5q23 0 31 26h123q-8 -46 -23.5 -78.5t-36.5 -53.5t-45 -30.5t-48 -9.5z" />
    <glyph glyph-name="Odieresis" unicode="&#xd6;" horiz-adv-x="823" 
d="M308 307q0 -24 5 -44.5t17 -35.5t31 -24t47 -9q37 0 63 18.5t42 48.5t23 67t7 74q0 24 -5 45t-16.5 36.5t-30 25t-46.5 10.5q-36 1 -62 -17.5t-42.5 -48.5t-24.5 -68t-8 -78zM387 -14q-70 0 -134 19t-113 57.5t-78.5 97t-29.5 136.5q0 97 30.5 176t86 135.5t133 87.5
t171.5 31q73 0 139.5 -18.5t117 -56.5t80.5 -97.5t30 -141.5q0 -96 -30.5 -174.5t-86.5 -134.5t-136.5 -86.5t-179.5 -30.5zM360 742q-21 0 -40 7.5t-32.5 21t-21.5 31.5t-8 39t8 39t21.5 31.5t32.5 21t40 7.5t40 -7.5t33 -21t22 -31.5t8 -39t-8 -39t-22 -31.5t-33 -21
t-40 -7.5zM593 742q-21 0 -39.5 7.5t-32 21t-21.5 31.5t-8 39t8 39t21.5 31.5t32 21t39.5 7.5q44 0 73.5 -28.5t29.5 -70.5t-29.5 -70.5t-73.5 -28.5z" />
    <glyph glyph-name="multiply" unicode="&#xd7;" horiz-adv-x="623" 
d="M203 339l-130 154l134 119l132 -156l174 151l103 -119l-175 -152l131 -153l-135 -119l-132 155l-173 -150l-103 119z" />
    <glyph glyph-name="Oslash" unicode="&#xd8;" horiz-adv-x="823" 
d="M32 18l74 75q-35 38 -54.5 88t-19.5 115q0 97 30.5 176t86 135.5t133 87.5t171.5 31q63 0 121.5 -13.5t106.5 -42.5l72 72l51 -52l-65 -65q38 -38 59.5 -91t21.5 -122q0 -96 -30.5 -174.5t-86.5 -134.5t-136.5 -86.5t-179.5 -30.5q-63 0 -120 15t-104 45l-80 -80z
M552 403q0 8 -0.5 16t-1.5 15l-218 -219q27 -24 76 -24q38 0 65.5 18.5t45 48.5t25.5 68t8 77zM300 306v-9t1 -9l213 213q-26 19 -69 21q-37 1 -64 -17t-45 -48t-27 -69.5t-9 -81.5z" />
    <glyph glyph-name="Ugrave" unicode="&#xd9;" horiz-adv-x="799" 
d="M391 -14q-88 0 -155.5 21t-110.5 63t-60 104.5t-3 146.5l63 394h266l-64 -402q-9 -57 5 -88t62 -31q25 0 40.5 7.5t25 21.5t14.5 34t9 46l65 412h268l-68 -432q-12 -80 -40 -136t-72 -92t-105 -52.5t-140 -16.5zM300 908h227l30 -155h-168z" />
    <glyph glyph-name="Uacute" unicode="&#xda;" horiz-adv-x="799" 
d="M391 -14q-88 0 -155.5 21t-110.5 63t-60 104.5t-3 146.5l63 394h266l-64 -402q-9 -57 5 -88t62 -31q25 0 40.5 7.5t25 21.5t14.5 34t9 46l65 412h268l-68 -432q-12 -80 -40 -136t-72 -92t-105 -52.5t-140 -16.5zM443 908h229l-118 -155h-173z" />
    <glyph glyph-name="Ucircumflex" unicode="&#xdb;" horiz-adv-x="799" 
d="M391 -14q-88 0 -155.5 21t-110.5 63t-60 104.5t-3 146.5l63 394h266l-64 -402q-9 -57 5 -88t62 -31q25 0 40.5 7.5t25 21.5t14.5 34t9 46l65 412h268l-68 -432q-12 -80 -40 -136t-72 -92t-105 -52.5t-140 -16.5zM392 908h189l93 -155h-159l-40 44l-50 -44h-168z" />
    <glyph glyph-name="Udieresis" unicode="&#xdc;" horiz-adv-x="799" 
d="M391 -14q-88 0 -155.5 21t-110.5 63t-60 104.5t-3 146.5l63 394h266l-64 -402q-9 -57 5 -88t62 -31q25 0 40.5 7.5t25 21.5t14.5 34t9 46l65 412h268l-68 -432q-12 -80 -40 -136t-72 -92t-105 -52.5t-140 -16.5zM359 742q-21 0 -40 7.5t-32.5 21t-21.5 31.5t-8 39t8 39
t21.5 31.5t32.5 21t40 7.5t40 -7.5t33 -21t22 -31.5t8 -39t-8 -39t-22 -31.5t-33 -21t-40 -7.5zM592 742q-21 0 -39.5 7.5t-32 21t-21.5 31.5t-8 39t8 39t21.5 31.5t32 21t39.5 7.5q44 0 73.5 -28.5t29.5 -70.5t-29.5 -70.5t-73.5 -28.5z" />
    <glyph glyph-name="Yacute" unicode="&#xdd;" horiz-adv-x="722" 
d="M234 304l-164 411h276l59 -190l118 190h265l-287 -424l-46 -291h-268zM415 908h229l-118 -155h-173z" />
    <glyph glyph-name="Thorn" unicode="&#xde;" horiz-adv-x="688" 
d="M301 120l-18 -120h-267l113 715h265l-17 -110h25q145 0 216 -55t71 -157q0 -62 -21 -112.5t-61 -86t-98.5 -55t-133.5 -19.5h-74zM348 422l-19 -126h32q36 0 56 19t20 56q0 23 -15.5 37t-49.5 14h-24z" />
    <glyph glyph-name="germandbls" unicode="&#xdf;" horiz-adv-x="657" 
d="M370 -10q-32 0 -59 4t-49 10l27 165q16 -7 36 -7q25 0 42 9t27 25.5t14 39t4 49.5q0 50 -25.5 68.5t-66.5 16.5l23 145q34 1 54 15t20 47q0 22 -12 35t-35 13q-24 0 -38.5 -16.5t-20.5 -54.5l-87 -554h-229l86 540q10 64 36 108t64.5 71t88 38.5t108.5 11.5
q58 0 104.5 -11t79.5 -33.5t51 -55.5t18 -78q0 -59 -37 -96.5t-97 -53.5q30 -8 56.5 -24t45.5 -40t30 -55t11 -70q0 -59 -17.5 -107.5t-52 -83t-84.5 -53t-116 -18.5z" />
    <glyph glyph-name="agrave" unicode="&#xe0;" horiz-adv-x="595" 
d="M263 134q25 0 41.5 14.5t19.5 34.5l4 19h-40q-37 0 -50.5 -9t-13.5 -27q0 -14 10 -23t29 -9zM318 0q-3 14 -3.5 32t-0.5 33q-9 -14 -22.5 -28.5t-32 -25.5t-43 -18t-56.5 -7q-33 0 -63 9.5t-52.5 27.5t-35.5 45t-13 62q0 52 18.5 88t54.5 57.5t89.5 31t123.5 9.5h64l1 7
q4 25 -2.5 43t-38.5 18q-14 0 -23 -4.5t-14.5 -11.5t-8.5 -14.5t-4 -14.5h-212q20 97 87 148.5t186 51.5q290 0 251 -246l-20 -127q-8 -51 -10.5 -92t2.5 -74h-222zM154 743h217l36 -175h-158z" />
    <glyph glyph-name="aacute" unicode="&#xe1;" horiz-adv-x="595" 
d="M263 134q25 0 41.5 14.5t19.5 34.5l4 19h-40q-37 0 -50.5 -9t-13.5 -27q0 -14 10 -23t29 -9zM318 0q-3 14 -3.5 32t-0.5 33q-9 -14 -22.5 -28.5t-32 -25.5t-43 -18t-56.5 -7q-33 0 -63 9.5t-52.5 27.5t-35.5 45t-13 62q0 52 18.5 88t54.5 57.5t89.5 31t123.5 9.5h64l1 7
q4 25 -2.5 43t-38.5 18q-14 0 -23 -4.5t-14.5 -11.5t-8.5 -14.5t-4 -14.5h-212q20 97 87 148.5t186 51.5q290 0 251 -246l-20 -127q-8 -51 -10.5 -92t2.5 -74h-222zM327 743h219l-127 -175h-163z" />
    <glyph glyph-name="acircumflex" unicode="&#xe2;" horiz-adv-x="595" 
d="M263 134q25 0 41.5 14.5t19.5 34.5l4 19h-40q-37 0 -50.5 -9t-13.5 -27q0 -14 10 -23t29 -9zM318 0q-3 14 -3.5 32t-0.5 33q-9 -14 -22.5 -28.5t-32 -25.5t-43 -18t-56.5 -7q-33 0 -63 9.5t-52.5 27.5t-35.5 45t-13 62q0 52 18.5 88t54.5 57.5t89.5 31t123.5 9.5h64l1 7
q4 25 -2.5 43t-38.5 18q-14 0 -23 -4.5t-14.5 -11.5t-8.5 -14.5t-4 -14.5h-212q20 97 87 148.5t186 51.5q290 0 251 -246l-20 -127q-8 -51 -10.5 -92t2.5 -74h-222zM278 743h155l102 -172h-152l-42 46l-54 -46h-161z" />
    <glyph glyph-name="atilde" unicode="&#xe3;" horiz-adv-x="595" 
d="M263 134q25 0 41.5 14.5t19.5 34.5l4 19h-40q-37 0 -50.5 -9t-13.5 -27q0 -14 10 -23t29 -9zM318 0q-3 14 -3.5 32t-0.5 33q-9 -14 -22.5 -28.5t-32 -25.5t-43 -18t-56.5 -7q-33 0 -63 9.5t-52.5 27.5t-35.5 45t-13 62q0 52 18.5 88t54.5 57.5t89.5 31t123.5 9.5h64l1 7
q4 25 -2.5 43t-38.5 18q-14 0 -23 -4.5t-14.5 -11.5t-8.5 -14.5t-4 -14.5h-212q20 97 87 148.5t186 51.5q290 0 251 -246l-20 -127q-8 -51 -10.5 -92t2.5 -74h-222zM403 570q-24 0 -41 4.5t-31 10t-25 10t-23 4.5q-11 0 -18.5 -7.5t-10.5 -18.5h-116q14 92 51 134t88 42
q22 0 39.5 -4.5t31.5 -10t27 -10t26 -4.5t19 7t10 19h116q-7 -46 -21 -79t-33 -54.5t-42 -32t-47 -10.5z" />
    <glyph glyph-name="adieresis" unicode="&#xe4;" horiz-adv-x="595" 
d="M263 134q25 0 41.5 14.5t19.5 34.5l4 19h-40q-37 0 -50.5 -9t-13.5 -27q0 -14 10 -23t29 -9zM318 0q-3 14 -3.5 32t-0.5 33q-9 -14 -22.5 -28.5t-32 -25.5t-43 -18t-56.5 -7q-33 0 -63 9.5t-52.5 27.5t-35.5 45t-13 62q0 52 18.5 88t54.5 57.5t89.5 31t123.5 9.5h64l1 7
q4 25 -2.5 43t-38.5 18q-14 0 -23 -4.5t-14.5 -11.5t-8.5 -14.5t-4 -14.5h-212q20 97 87 148.5t186 51.5q290 0 251 -246l-20 -127q-8 -51 -10.5 -92t2.5 -74h-222zM225 552q-21 0 -40 7.5t-32.5 21t-21.5 31.5t-8 39t8 39t21.5 31.5t32.5 21t40 7.5t40 -7.5t33 -21
t22 -31.5t8 -39t-8 -39t-22 -31.5t-33 -21t-40 -7.5zM450 552q-21 0 -39.5 7.5t-32 21t-21.5 31.5t-8 39t8 39t21.5 31.5t32 21t39.5 7.5q44 0 73.5 -28.5t29.5 -70.5t-29.5 -70.5t-73.5 -28.5z" />
    <glyph glyph-name="aring" unicode="&#xe5;" horiz-adv-x="595" 
d="M263 134q25 0 41.5 14.5t19.5 34.5l4 19h-40q-37 0 -50.5 -9t-13.5 -27q0 -14 10 -23t29 -9zM318 0q-3 14 -3.5 32t-0.5 33q-9 -14 -22.5 -28.5t-32 -25.5t-43 -18t-56.5 -7q-33 0 -63 9.5t-52.5 27.5t-35.5 45t-13 62q0 52 18.5 88t54.5 57.5t89.5 31t123.5 9.5h64l1 7
q4 25 -2.5 43t-38.5 18q-14 0 -23 -4.5t-14.5 -11.5t-8.5 -14.5t-4 -14.5h-212q20 97 87 148.5t186 51.5q290 0 251 -246l-20 -127q-8 -51 -10.5 -92t2.5 -74h-222zM331 641q19 0 30.5 13t11.5 33t-11.5 33t-30.5 13t-30.5 -13t-11.5 -33t11.5 -33t30.5 -13zM331 567
q-26 0 -48.5 9.5t-39 26t-26.5 38t-10 46.5t10 46.5t26.5 38t39 26t48.5 9.5q25 0 48 -9.5t39.5 -26t26.5 -38t10 -46.5t-10 -46.5t-26.5 -38t-39.5 -26t-48 -9.5z" />
    <glyph glyph-name="ae" unicode="&#xe6;" horiz-adv-x="922" 
d="M315 539q59 0 98.5 -12.5t64.5 -37.5q35 24 76 37t86 13q68 0 121 -20.5t87.5 -59.5t48 -95.5t2.5 -128.5l-3 -20h-352q0 -15 4 -29.5t12.5 -26t22.5 -18.5t35 -7q32 0 46.5 15t20.5 35h213q-17 -96 -92 -147t-193 -51q-75 0 -131.5 20t-90.5 67q-10 -16 -25.5 -31.5
t-38.5 -28t-55 -20t-76 -7.5q-43 0 -79.5 9.5t-63.5 28.5t-42 47t-15 64q0 51 19 85.5t55.5 56.5t89.5 31.5t122 9.5h64l1 7q1 12 1 22.5t-4.5 18.5t-14 13t-25.5 5q-28 0 -39.5 -15.5t-14.5 -29.5h-212q18 100 91.5 150t185.5 50zM635 398q-25 0 -46 -17.5t-33 -59.5h139
q2 32 -11.5 54.5t-48.5 22.5zM263 134q25 0 41.5 14.5t20.5 37.5l4 25h-40q-37 0 -51 -11.5t-14 -31.5q0 -34 39 -34z" />
    <glyph glyph-name="ccedilla" unicode="&#xe7;" horiz-adv-x="592" 
d="M236 -232q-26 0 -50.5 5.5t-44 17t-31.5 30t-14 44.5h100q2 -8 8 -15.5t23 -7.5q10 0 20 6.5t10 23.5q0 26 -30 26q-12 0 -19 -3t-12 -8l-38 42l54 66q-42 9 -78 27.5t-62.5 47t-41 68t-14.5 90.5q0 69 21.5 126t61.5 98t96.5 64t126.5 23q55 0 102 -13t82 -41t55.5 -72
t22.5 -105h-214q-2 27 -13 41.5t-39 14.5q-23 0 -37.5 -13t-22.5 -33.5t-11 -45t-3 -47.5q0 -33 12 -54.5t46 -21.5q55 0 67 66h204q-12 -111 -82.5 -169.5t-197.5 -58.5h-6l-24 -28q45 3 75.5 -19t30.5 -64q0 -28 -11 -48t-29 -33.5t-42 -20t-51 -6.5z" />
    <glyph glyph-name="egrave" unicode="&#xe8;" horiz-adv-x="616" 
d="M238 215q0 -15 4 -29.5t12.5 -26t22.5 -18.5t35 -7q32 0 46.5 15t20.5 35h213q-17 -96 -92 -147t-193 -51q-59 0 -111.5 13t-92.5 42.5t-63.5 76t-23.5 112.5q0 70 24 127.5t66.5 97.5t100 62t125.5 22q69 0 122 -20.5t87.5 -59.5t48.5 -95.5t3 -128.5l-3 -20h-352z
M329 398q-25 0 -46 -17.5t-33 -59.5h139q2 32 -11.5 54.5t-48.5 22.5zM172 743h217l36 -175h-158z" />
    <glyph glyph-name="eacute" unicode="&#xe9;" horiz-adv-x="616" 
d="M238 215q0 -15 4 -29.5t12.5 -26t22.5 -18.5t35 -7q32 0 46.5 15t20.5 35h213q-17 -96 -92 -147t-193 -51q-59 0 -111.5 13t-92.5 42.5t-63.5 76t-23.5 112.5q0 70 24 127.5t66.5 97.5t100 62t125.5 22q69 0 122 -20.5t87.5 -59.5t48.5 -95.5t3 -128.5l-3 -20h-352z
M329 398q-25 0 -46 -17.5t-33 -59.5h139q2 32 -11.5 54.5t-48.5 22.5zM328 743h219l-127 -175h-163z" />
    <glyph glyph-name="ecircumflex" unicode="&#xea;" horiz-adv-x="616" 
d="M238 215q0 -15 4 -29.5t12.5 -26t22.5 -18.5t35 -7q32 0 46.5 15t20.5 35h213q-17 -96 -92 -147t-193 -51q-59 0 -111.5 13t-92.5 42.5t-63.5 76t-23.5 112.5q0 70 24 127.5t66.5 97.5t100 62t125.5 22q69 0 122 -20.5t87.5 -59.5t48.5 -95.5t3 -128.5l-3 -20h-352z
M329 398q-25 0 -46 -17.5t-33 -59.5h139q2 32 -11.5 54.5t-48.5 22.5zM287 743h155l102 -172h-152l-42 46l-54 -46h-161z" />
    <glyph glyph-name="edieresis" unicode="&#xeb;" horiz-adv-x="616" 
d="M238 215q0 -15 4 -29.5t12.5 -26t22.5 -18.5t35 -7q32 0 46.5 15t20.5 35h213q-17 -96 -92 -147t-193 -51q-59 0 -111.5 13t-92.5 42.5t-63.5 76t-23.5 112.5q0 70 24 127.5t66.5 97.5t100 62t125.5 22q69 0 122 -20.5t87.5 -59.5t48.5 -95.5t3 -128.5l-3 -20h-352z
M329 398q-25 0 -46 -17.5t-33 -59.5h139q2 32 -11.5 54.5t-48.5 22.5zM236 552q-21 0 -40 7.5t-32.5 21t-21.5 31.5t-8 39t8 39t21.5 31.5t32.5 21t40 7.5t40 -7.5t33 -21t22 -31.5t8 -39t-8 -39t-22 -31.5t-33 -21t-40 -7.5zM461 552q-21 0 -39.5 7.5t-32 21t-21.5 31.5
t-8 39t8 39t21.5 31.5t32 21t39.5 7.5q44 0 73.5 -28.5t29.5 -70.5t-29.5 -70.5t-73.5 -28.5z" />
    <glyph glyph-name="igrave" unicode="&#xec;" horiz-adv-x="316" 
d="M84 523h228l-82 -523h-228zM38 743h217l36 -175h-158z" />
    <glyph glyph-name="iacute" unicode="&#xed;" horiz-adv-x="316" 
d="M84 523h228l-82 -523h-228zM188 743h219l-127 -175h-163z" />
    <glyph glyph-name="icircumflex" unicode="&#xee;" horiz-adv-x="316" 
d="M84 523h228l-82 -523h-228zM155 743h155l102 -172h-152l-42 46l-54 -46h-161z" />
    <glyph glyph-name="idieresis" unicode="&#xef;" horiz-adv-x="316" 
d="M108 552q-21 0 -40 7.5t-32.5 21t-21.5 31.5t-8 39t8 39t21.5 31.5t32.5 21t40 7.5t40 -7.5t33 -21t22 -31.5t8 -39t-8 -39t-22 -31.5t-33 -21t-40 -7.5zM333 552q-21 0 -39.5 7.5t-32 21t-21.5 31.5t-8 39t8 39t21.5 31.5t32 21t39.5 7.5q44 0 73.5 -28.5t29.5 -70.5
t-29.5 -70.5t-73.5 -28.5zM84 523h228l-82 -523h-228z" />
    <glyph glyph-name="eth" unicode="&#xf0;" horiz-adv-x="635" 
d="M121 617l119 34q-29 26 -56.5 49.5t-51.5 42.5h265q11 -8 23.5 -16t24.5 -18l117 33l14 -62l-78 -22q25 -28 47.5 -62t39 -73.5t26.5 -84t10 -94.5q0 -74 -19 -139.5t-58 -114t-99 -76.5t-143 -28q-60 0 -112.5 14.5t-90.5 45.5t-60 78t-22 112q0 60 17.5 113.5t50 93
t80 62.5t107.5 23q32 0 58 -10t46 -35q-15 29 -37 58.5t-48 57.5l-155 -43zM244 224q0 -31 14 -51.5t49 -20.5q24 0 40 14.5t25.5 36.5t13 49t3.5 51q0 31 -14 50t-48 19q-23 0 -38.5 -11.5t-25.5 -32t-14.5 -47.5t-4.5 -57z" />
    <glyph glyph-name="ntilde" unicode="&#xf1;" horiz-adv-x="635" 
d="M49 344q9 58 14 100t7 79h225q0 -19 -1.5 -46.5t-4.5 -50.5q28 47 72.5 80t108.5 33q35 0 65 -12.5t50.5 -39.5t28 -69.5t-1.5 -101.5l-50 -316h-229l45 287q10 70 -43 70q-31 0 -46 -18t-21 -58l-44 -281h-229zM425 570q-24 0 -41 4.5t-31 10t-25 10t-23 4.5
q-11 0 -18.5 -7.5t-10.5 -18.5h-116q14 92 51 134t88 42q22 0 39.5 -4.5t31.5 -10t27 -10t26 -4.5t19 7t10 19h116q-7 -46 -21 -79t-33 -54.5t-42 -32t-47 -10.5z" />
    <glyph glyph-name="ograve" unicode="&#xf2;" horiz-adv-x="629" 
d="M244 226q0 -12 2 -25t8.5 -24t18 -18t30.5 -7q22 0 37.5 11.5t25.5 32t14.5 48.5t4.5 60q0 26 -12.5 47t-43.5 21q-46 0 -65.5 -41.5t-19.5 -104.5zM300 -14q-53 0 -103.5 13t-90 42t-64.5 75t-25 112q0 67 22.5 124.5t63.5 98.5t99 64.5t129 23.5q52 0 103 -13.5
t91 -43.5t64.5 -77t24.5 -113q0 -69 -23 -125t-64.5 -96.5t-99 -62.5t-127.5 -22zM171 743h217l36 -175h-158z" />
    <glyph glyph-name="oacute" unicode="&#xf3;" horiz-adv-x="629" 
d="M244 226q0 -12 2 -25t8.5 -24t18 -18t30.5 -7q22 0 37.5 11.5t25.5 32t14.5 48.5t4.5 60q0 26 -12.5 47t-43.5 21q-46 0 -65.5 -41.5t-19.5 -104.5zM300 -14q-53 0 -103.5 13t-90 42t-64.5 75t-25 112q0 67 22.5 124.5t63.5 98.5t99 64.5t129 23.5q52 0 103 -13.5
t91 -43.5t64.5 -77t24.5 -113q0 -69 -23 -125t-64.5 -96.5t-99 -62.5t-127.5 -22zM321 743h219l-127 -175h-163z" />
    <glyph glyph-name="ocircumflex" unicode="&#xf4;" horiz-adv-x="629" 
d="M244 226q0 -12 2 -25t8.5 -24t18 -18t30.5 -7q22 0 37.5 11.5t25.5 32t14.5 48.5t4.5 60q0 26 -12.5 47t-43.5 21q-46 0 -65.5 -41.5t-19.5 -104.5zM300 -14q-53 0 -103.5 13t-90 42t-64.5 75t-25 112q0 67 22.5 124.5t63.5 98.5t99 64.5t129 23.5q52 0 103 -13.5
t91 -43.5t64.5 -77t24.5 -113q0 -69 -23 -125t-64.5 -96.5t-99 -62.5t-127.5 -22zM288 743h155l102 -172h-152l-42 46l-54 -46h-161z" />
    <glyph glyph-name="otilde" unicode="&#xf5;" horiz-adv-x="629" 
d="M244 226q0 -12 2 -25t8.5 -24t18 -18t30.5 -7q22 0 37.5 11.5t25.5 32t14.5 48.5t4.5 60q0 26 -12.5 47t-43.5 21q-46 0 -65.5 -41.5t-19.5 -104.5zM300 -14q-53 0 -103.5 13t-90 42t-64.5 75t-25 112q0 67 22.5 124.5t63.5 98.5t99 64.5t129 23.5q52 0 103 -13.5
t91 -43.5t64.5 -77t24.5 -113q0 -69 -23 -125t-64.5 -96.5t-99 -62.5t-127.5 -22zM415 570q-24 0 -41 4.5t-31 10t-25 10t-23 4.5q-11 0 -18.5 -7.5t-10.5 -18.5h-116q14 92 51 134t88 42q22 0 39.5 -4.5t31.5 -10t27 -10t26 -4.5t19 7t10 19h116q-7 -46 -21 -79t-33 -54.5
t-42 -32t-47 -10.5z" />
    <glyph glyph-name="odieresis" unicode="&#xf6;" horiz-adv-x="629" 
d="M244 226q0 -12 2 -25t8.5 -24t18 -18t30.5 -7q22 0 37.5 11.5t25.5 32t14.5 48.5t4.5 60q0 26 -12.5 47t-43.5 21q-46 0 -65.5 -41.5t-19.5 -104.5zM300 -14q-53 0 -103.5 13t-90 42t-64.5 75t-25 112q0 67 22.5 124.5t63.5 98.5t99 64.5t129 23.5q52 0 103 -13.5
t91 -43.5t64.5 -77t24.5 -113q0 -69 -23 -125t-64.5 -96.5t-99 -62.5t-127.5 -22zM242 552q-21 0 -40 7.5t-32.5 21t-21.5 31.5t-8 39t8 39t21.5 31.5t32.5 21t40 7.5t40 -7.5t33 -21t22 -31.5t8 -39t-8 -39t-22 -31.5t-33 -21t-40 -7.5zM467 552q-21 0 -39.5 7.5t-32 21
t-21.5 31.5t-8 39t8 39t21.5 31.5t32 21t39.5 7.5q44 0 73.5 -28.5t29.5 -70.5t-29.5 -70.5t-73.5 -28.5z" />
    <glyph glyph-name="divide" unicode="&#xf7;" 
d="M61 415h524l-24 -152h-524zM286 19q-48 0 -78.5 31t-30.5 76t30 76t78 31q24 0 45 -8.5t36 -23t23.5 -34t8.5 -41.5q0 -23 -8.5 -42.5t-23.5 -33.5t-35.5 -22.5t-44.5 -8.5zM334 445q-48 0 -78.5 31t-30.5 76t30 76t78 31q24 0 45 -8.5t36 -23t23.5 -34t8.5 -41.5
q0 -23 -8.5 -42.5t-23.5 -33.5t-35.5 -22.5t-44.5 -8.5z" />
    <glyph glyph-name="oslash" unicode="&#xf8;" horiz-adv-x="629" 
d="M14 4l63 64q-28 29 -44 68.5t-16 93.5q0 67 22.5 124t63.5 98t99 64t129 23q44 0 87 -10t80 -31l67 69l46 -44l-62 -63q29 -30 47 -72t18 -98q0 -69 -23 -125t-64.5 -95.5t-99 -61.5t-127.5 -22q-47 0 -91.5 10t-82.5 33l-67 -69zM304 147q23 0 40 12t28.5 33t17 49.5
t5.5 60.5l-138 -140q8 -7 19 -11t28 -4zM330 376q-48 0 -71.5 -41t-23.5 -106l133 136q-16 11 -38 11z" />
    <glyph glyph-name="ugrave" unicode="&#xf9;" horiz-adv-x="638" 
d="M582 166q-8 -51 -11.5 -91.5t-1.5 -74.5h-225q-2 16 -1.5 44.5t1.5 49.5q-29 -48 -72.5 -78t-106.5 -30q-35 0 -65 12.5t-50.5 39t-28 68.5t1.5 101l50 316h229l-48 -301q-10 -70 42 -70q30 0 45 18t21 58l47 295h229zM183 743h217l36 -175h-158z" />
    <glyph glyph-name="uacute" unicode="&#xfa;" horiz-adv-x="638" 
d="M582 166q-8 -51 -11.5 -91.5t-1.5 -74.5h-225q-2 16 -1.5 44.5t1.5 49.5q-29 -48 -72.5 -78t-106.5 -30q-35 0 -65 12.5t-50.5 39t-28 68.5t1.5 101l50 316h229l-48 -301q-10 -70 42 -70q30 0 45 18t21 58l47 295h229zM349 743h219l-127 -175h-163z" />
    <glyph glyph-name="ucircumflex" unicode="&#xfb;" horiz-adv-x="638" 
d="M582 166q-8 -51 -11.5 -91.5t-1.5 -74.5h-225q-2 16 -1.5 44.5t1.5 49.5q-29 -48 -72.5 -78t-106.5 -30q-35 0 -65 12.5t-50.5 39t-28 68.5t1.5 101l50 316h229l-48 -301q-10 -70 42 -70q30 0 45 18t21 58l47 295h229zM299 743h155l102 -172h-152l-42 46l-54 -46h-161z
" />
    <glyph glyph-name="udieresis" unicode="&#xfc;" horiz-adv-x="638" 
d="M582 166q-8 -51 -11.5 -91.5t-1.5 -74.5h-225q-2 16 -1.5 44.5t1.5 49.5q-29 -48 -72.5 -78t-106.5 -30q-35 0 -65 12.5t-50.5 39t-28 68.5t1.5 101l50 316h229l-48 -301q-10 -70 42 -70q30 0 45 18t21 58l47 295h229zM250 552q-21 0 -40 7.5t-32.5 21t-21.5 31.5t-8 39
t8 39t21.5 31.5t32.5 21t40 7.5t40 -7.5t33 -21t22 -31.5t8 -39t-8 -39t-22 -31.5t-33 -21t-40 -7.5zM475 552q-21 0 -39.5 7.5t-32 21t-21.5 31.5t-8 39t8 39t21.5 31.5t32 21t39.5 7.5q44 0 73.5 -28.5t29.5 -70.5t-29.5 -70.5t-73.5 -28.5z" />
    <glyph glyph-name="yacute" unicode="&#xfd;" horiz-adv-x="614" 
d="M168 59l-129 464h238l43 -232l110 232h225l-382 -695h-226zM347 743h219l-127 -175h-163z" />
    <glyph glyph-name="thorn" unicode="&#xfe;" horiz-adv-x="651" 
d="M-33 -172l145 915h229l-47 -298q26 43 67.5 68.5t104.5 25.5q35 0 66 -13.5t54.5 -41t37 -70t13.5 -99.5q0 -81 -19.5 -143t-53 -103t-78.5 -62t-97 -21q-54 0 -96.5 25t-55.5 70l-41 -253h-229zM315 156q38 0 63 38t25 104q0 36 -14.5 55.5t-44.5 19.5q-20 0 -35.5 -11
t-27 -30t-17.5 -45t-6 -55q0 -76 57 -76z" />
    <glyph glyph-name="ydieresis" unicode="&#xff;" horiz-adv-x="614" 
d="M168 59l-129 464h238l43 -232l110 232h225l-382 -695h-226zM255 552q-21 0 -40 7.5t-32.5 21t-21.5 31.5t-8 39t8 39t21.5 31.5t32.5 21t40 7.5t40 -7.5t33 -21t22 -31.5t8 -39t-8 -39t-22 -31.5t-33 -21t-40 -7.5zM480 552q-21 0 -39.5 7.5t-32 21t-21.5 31.5t-8 39
t8 39t21.5 31.5t32 21t39.5 7.5q44 0 73.5 -28.5t29.5 -70.5t-29.5 -70.5t-73.5 -28.5z" />
    <glyph glyph-name="Amacron" unicode="&#x100;" horiz-adv-x="784" 
d="M454 95h-202l-39 -95h-254l333 715h343l106 -715h-278zM325 273h113l-20 228zM312 893h351l-20 -129h-351z" />
    <glyph glyph-name="amacron" unicode="&#x101;" horiz-adv-x="595" 
d="M263 134q25 0 41.5 14.5t19.5 34.5l4 19h-40q-37 0 -50.5 -9t-13.5 -27q0 -14 10 -23t29 -9zM318 0q-3 14 -3.5 32t-0.5 33q-9 -14 -22.5 -28.5t-32 -25.5t-43 -18t-56.5 -7q-33 0 -63 9.5t-52.5 27.5t-35.5 45t-13 62q0 52 18.5 88t54.5 57.5t89.5 31t123.5 9.5h64l1 7
q4 25 -2.5 43t-38.5 18q-14 0 -23 -4.5t-14.5 -11.5t-8.5 -14.5t-4 -14.5h-212q20 97 87 148.5t186 51.5q290 0 251 -246l-20 -127q-8 -51 -10.5 -92t2.5 -74h-222zM188 712h331l-19 -119h-331z" />
    <glyph glyph-name="Abreve" unicode="&#x102;" horiz-adv-x="784" 
d="M454 95h-202l-39 -95h-254l333 715h343l106 -715h-278zM325 273h113l-20 228zM475 744q-90 0 -133.5 44t-44.5 120h140q1 -16 10.5 -26t29.5 -10q17 0 28 9t14 27h142q-14 -81 -62.5 -122.5t-123.5 -41.5z" />
    <glyph glyph-name="abreve" unicode="&#x103;" horiz-adv-x="595" 
d="M263 134q25 0 41.5 14.5t19.5 34.5l4 19h-40q-37 0 -50.5 -9t-13.5 -27q0 -14 10 -23t29 -9zM318 0q-3 14 -3.5 32t-0.5 33q-9 -14 -22.5 -28.5t-32 -25.5t-43 -18t-56.5 -7q-33 0 -63 9.5t-52.5 27.5t-35.5 45t-13 62q0 52 18.5 88t54.5 57.5t89.5 31t123.5 9.5h64l1 7
q4 25 -2.5 43t-38.5 18q-14 0 -23 -4.5t-14.5 -11.5t-8.5 -14.5t-4 -14.5h-212q20 97 87 148.5t186 51.5q290 0 251 -246l-20 -127q-8 -51 -10.5 -92t2.5 -74h-222zM350 572q-85 0 -131 44.5t-43 127.5h133q2 -40 43 -40q20 0 32.5 10.5t14.5 29.5h135q-12 -86 -59.5 -129
t-124.5 -43z" />
    <glyph glyph-name="Aogonek" unicode="&#x104;" horiz-adv-x="784" 
d="M454 95h-202l-39 -95h-254l333 715h343l104 -701q-55 -37 -55 -69q0 -20 25 -20q8 0 18 2l-15 -93q-14 -6 -35 -11t-52 -5q-23 0 -44.5 3.5t-38 12.5t-27 24t-10.5 38q0 21 9.5 38t24 30t32.5 22t35 14h-143zM325 273h113l-20 228z" />
    <glyph glyph-name="aogonek" unicode="&#x105;" horiz-adv-x="595" 
d="M263 134q25 0 41.5 14.5t19.5 34.5l4 19h-40q-37 0 -50.5 -9t-13.5 -27q0 -14 10 -23t29 -9zM548 166q-16 -96 -9 -158q-16 -14 -27.5 -31t-11.5 -32q0 -20 25 -20q8 0 18 2l-15 -93q-14 -6 -35 -11t-52 -5q-23 0 -44.5 3.5t-38 12.5t-27 24t-10.5 38q0 21 9.5 38t24 30
t32.5 22t35 14h-104q-3 14 -3.5 32t-0.5 33q-9 -14 -22.5 -28.5t-32 -25.5t-43 -18t-56.5 -7q-33 0 -63 9.5t-52.5 27.5t-35.5 45t-13 62q0 52 18.5 88t54.5 57.5t89.5 31t123.5 9.5h64l1 7q4 25 -2.5 43t-38.5 18q-14 0 -23 -4.5t-14.5 -11.5t-8.5 -14.5t-4 -14.5h-212
q20 97 87 148.5t186 51.5q290 0 251 -246z" />
    <glyph glyph-name="Cacute" unicode="&#x106;" horiz-adv-x="779" 
d="M396 -14q-82 0 -149 19t-115 58t-74 98.5t-26 140.5q0 94 27.5 172t80 134t128.5 87t174 31q157 0 245.5 -73t93.5 -223h-270q-2 42 -19.5 65.5t-56.5 23.5q-33 0 -56 -17t-38 -45.5t-22.5 -65.5t-8.5 -77q0 -23 4 -44t14 -37.5t27.5 -26.5t43.5 -10q36 0 62.5 20.5
t37.5 68.5h265q-9 -77 -41.5 -133t-82 -93t-112 -55t-132.5 -18zM409 908h229l-118 -155h-173z" />
    <glyph glyph-name="cacute" unicode="&#x107;" horiz-adv-x="592" 
d="M293 -13q-57 0 -107.5 14.5t-88 44t-59.5 75t-22 107.5q0 69 21.5 126t61.5 98t96.5 64t126.5 23q55 0 102 -13t82 -41t55.5 -72t22.5 -105h-214q-2 27 -13 41.5t-39 14.5q-23 0 -37.5 -13t-22.5 -33.5t-11 -45t-3 -47.5q0 -33 12 -54.5t46 -21.5q55 0 67 66h204
q-12 -111 -82.5 -169.5t-197.5 -58.5zM310 743h219l-127 -175h-163z" />
    <glyph glyph-name="Ccircumflex" unicode="&#x108;" horiz-adv-x="779" 
d="M396 -14q-82 0 -149 19t-115 58t-74 98.5t-26 140.5q0 94 27.5 172t80 134t128.5 87t174 31q157 0 245.5 -73t93.5 -223h-270q-2 42 -19.5 65.5t-56.5 23.5q-33 0 -56 -17t-38 -45.5t-22.5 -65.5t-8.5 -77q0 -23 4 -44t14 -37.5t27.5 -26.5t43.5 -10q36 0 62.5 20.5
t37.5 68.5h265q-9 -77 -41.5 -133t-82 -93t-112 -55t-132.5 -18zM374 908h189l93 -155h-159l-40 44l-50 -44h-168z" />
    <glyph glyph-name="ccircumflex" unicode="&#x109;" horiz-adv-x="592" 
d="M293 -13q-57 0 -107.5 14.5t-88 44t-59.5 75t-22 107.5q0 69 21.5 126t61.5 98t96.5 64t126.5 23q55 0 102 -13t82 -41t55.5 -72t22.5 -105h-214q-2 27 -13 41.5t-39 14.5q-23 0 -37.5 -13t-22.5 -33.5t-11 -45t-3 -47.5q0 -33 12 -54.5t46 -21.5q55 0 67 66h204
q-12 -111 -82.5 -169.5t-197.5 -58.5zM273 743h155l102 -172h-152l-42 46l-54 -46h-161z" />
    <glyph glyph-name="Cdotaccent" unicode="&#x10a;" horiz-adv-x="779" 
d="M396 -14q-82 0 -149 19t-115 58t-74 98.5t-26 140.5q0 94 27.5 172t80 134t128.5 87t174 31q157 0 245.5 -73t93.5 -223h-270q-2 42 -19.5 65.5t-56.5 23.5q-33 0 -56 -17t-38 -45.5t-22.5 -65.5t-8.5 -77q0 -23 4 -44t14 -37.5t27.5 -26.5t43.5 -10q36 0 62.5 20.5
t37.5 68.5h265q-9 -77 -41.5 -133t-82 -93t-112 -55t-132.5 -18zM453 742q-51 0 -83.5 29.5t-32.5 76.5t33 77t83 30t83.5 -30t33.5 -77t-33.5 -76.5t-83.5 -29.5z" />
    <glyph glyph-name="cdotaccent" unicode="&#x10b;" horiz-adv-x="592" 
d="M293 -13q-57 0 -107.5 14.5t-88 44t-59.5 75t-22 107.5q0 69 21.5 126t61.5 98t96.5 64t126.5 23q55 0 102 -13t82 -41t55.5 -72t22.5 -105h-214q-2 27 -13 41.5t-39 14.5q-23 0 -37.5 -13t-22.5 -33.5t-11 -45t-3 -47.5q0 -33 12 -54.5t46 -21.5q55 0 67 66h204
q-12 -111 -82.5 -169.5t-197.5 -58.5zM333 551q-51 0 -83.5 29.5t-32.5 76.5t33 77t83 30t83.5 -30t33.5 -77t-33.5 -76.5t-83.5 -29.5z" />
    <glyph glyph-name="Ccaron" unicode="&#x10c;" horiz-adv-x="779" 
d="M396 -14q-82 0 -149 19t-115 58t-74 98.5t-26 140.5q0 94 27.5 172t80 134t128.5 87t174 31q157 0 245.5 -73t93.5 -223h-270q-2 42 -19.5 65.5t-56.5 23.5q-33 0 -56 -17t-38 -45.5t-22.5 -65.5t-8.5 -77q0 -23 4 -44t14 -37.5t27.5 -26.5t43.5 -10q36 0 62.5 20.5
t37.5 68.5h265q-9 -77 -41.5 -133t-82 -93t-112 -55t-132.5 -18zM540 753h-189l-93 155h159l40 -44l50 44h168z" />
    <glyph glyph-name="ccaron" unicode="&#x10d;" horiz-adv-x="592" 
d="M293 -13q-57 0 -107.5 14.5t-88 44t-59.5 75t-22 107.5q0 69 21.5 126t61.5 98t96.5 64t126.5 23q55 0 102 -13t82 -41t55.5 -72t22.5 -105h-214q-2 27 -13 41.5t-39 14.5q-23 0 -37.5 -13t-22.5 -33.5t-11 -45t-3 -47.5q0 -33 12 -54.5t46 -21.5q55 0 67 66h204
q-12 -111 -82.5 -169.5t-197.5 -58.5zM399 571h-155l-102 172h152l42 -46l54 46h161z" />
    <glyph glyph-name="Dcaron" unicode="&#x10e;" horiz-adv-x="773" 
d="M129 715h261q186 0 282.5 -78t96.5 -226q0 -105 -31.5 -182t-87.5 -128t-133 -76t-168 -25h-333zM352 201q69 0 105 50.5t36 147.5q0 60 -27.5 87.5t-80.5 27.5h-21l-50 -313h38zM513 753h-189l-93 155h159l40 -44l50 44h168z" />
    <glyph glyph-name="dcaron" unicode="&#x10f;" horiz-adv-x="651" 
d="M598 166q-8 -51 -11 -91.5t0 -74.5h-227q-4 15 -4.5 39t-0.5 45q-28 -47 -67.5 -72.5t-98.5 -25.5q-39 0 -71.5 13.5t-56 41t-36.5 70t-13 99.5q0 81 20 143t55 103t81.5 62t100.5 21q50 0 90 -24.5t54 -66.5l47 295h229zM334 373q-38 0 -63 -38t-25 -104q0 -36 14 -56.5
t44 -20.5q19 0 35.5 11.5t27.5 31t17.5 45.5t6.5 55q0 76 -57 76zM726 743h153l-77 -174h-110z" />
    <glyph glyph-name="Dcroat" unicode="&#x110;" horiz-adv-x="791" 
d="M55 447h49l43 268h261q186 0 282.5 -78t96.5 -226q0 -105 -31.5 -182t-87.5 -128t-133 -76t-168 -25h-333l43 272h-49zM370 201q69 0 105 50.5t36 147.5q0 60 -27.5 87.5t-80.5 27.5h-27l-11 -67h75l-27 -175h-76l-11 -71h44z" />
    <glyph glyph-name="dcroat" unicode="&#x111;" horiz-adv-x="651" 
d="M680 686h47l-18 -114h-47l-64 -406q-8 -51 -11 -91.5t0 -74.5h-227q-4 15 -4.5 39t-0.5 45q-28 -47 -67.5 -72.5t-98.5 -25.5q-39 0 -71.5 13.5t-56 41t-36.5 70t-13 99.5q0 81 20 143t55 103t81.5 62t100.5 21q50 0 90 -24.5t54 -66.5l20 124h-143l18 114h143l9 57h229z
M334 373q-38 0 -63 -38t-25 -104q0 -36 14 -56.5t44 -20.5q19 0 35.5 11.5t27.5 31t17.5 45.5t6.5 55q0 76 -57 76z" />
    <glyph glyph-name="Emacron" unicode="&#x112;" horiz-adv-x="635" 
d="M129 715h534l-32 -203h-269l-10 -61h212l-28 -182h-212l-11 -66h284l-32 -203h-549zM244 893h351l-20 -129h-351z" />
    <glyph glyph-name="emacron" unicode="&#x113;" horiz-adv-x="616" 
d="M238 215q0 -15 4 -29.5t12.5 -26t22.5 -18.5t35 -7q32 0 46.5 15t20.5 35h213q-17 -96 -92 -147t-193 -51q-59 0 -111.5 13t-92.5 42.5t-63.5 76t-23.5 112.5q0 70 24 127.5t66.5 97.5t100 62t125.5 22q69 0 122 -20.5t87.5 -59.5t48.5 -95.5t3 -128.5l-3 -20h-352z
M329 398q-25 0 -46 -17.5t-33 -59.5h139q2 32 -11.5 54.5t-48.5 22.5zM198 712h331l-19 -119h-331z" />
    <glyph glyph-name="Ebreve" unicode="&#x114;" horiz-adv-x="635" 
d="M129 715h534l-32 -203h-269l-10 -61h212l-28 -182h-212l-11 -66h284l-32 -203h-549zM407 744q-90 0 -133.5 44t-44.5 120h140q1 -16 10.5 -26t29.5 -10q17 0 28 9t14 27h142q-14 -81 -62.5 -122.5t-123.5 -41.5z" />
    <glyph glyph-name="ebreve" unicode="&#x115;" horiz-adv-x="616" 
d="M238 215q0 -15 4 -29.5t12.5 -26t22.5 -18.5t35 -7q32 0 46.5 15t20.5 35h213q-17 -96 -92 -147t-193 -51q-59 0 -111.5 13t-92.5 42.5t-63.5 76t-23.5 112.5q0 70 24 127.5t66.5 97.5t100 62t125.5 22q69 0 122 -20.5t87.5 -59.5t48.5 -95.5t3 -128.5l-3 -20h-352z
M329 398q-25 0 -46 -17.5t-33 -59.5h139q2 32 -11.5 54.5t-48.5 22.5zM351 570q-85 0 -131 44.5t-43 127.5h133q2 -40 43 -40q20 0 32.5 10.5t14.5 29.5h135q-12 -86 -59.5 -129t-124.5 -43z" />
    <glyph glyph-name="Edotaccent" unicode="&#x116;" horiz-adv-x="635" 
d="M129 715h534l-32 -203h-269l-10 -61h212l-28 -182h-212l-11 -66h284l-32 -203h-549zM401 742q-51 0 -83.5 29.5t-32.5 76.5t33 77t83 30t83.5 -30t33.5 -77t-33.5 -76.5t-83.5 -29.5z" />
    <glyph glyph-name="edotaccent" unicode="&#x117;" horiz-adv-x="616" 
d="M238 215q0 -15 4 -29.5t12.5 -26t22.5 -18.5t35 -7q32 0 46.5 15t20.5 35h213q-17 -96 -92 -147t-193 -51q-59 0 -111.5 13t-92.5 42.5t-63.5 76t-23.5 112.5q0 70 24 127.5t66.5 97.5t100 62t125.5 22q69 0 122 -20.5t87.5 -59.5t48.5 -95.5t3 -128.5l-3 -20h-352z
M329 398q-25 0 -46 -17.5t-33 -59.5h139q2 32 -11.5 54.5t-48.5 22.5zM342 551q-51 0 -83.5 29.5t-32.5 76.5t33 77t83 30t83.5 -30t33.5 -77t-33.5 -76.5t-83.5 -29.5z" />
    <glyph glyph-name="Eogonek" unicode="&#x118;" horiz-adv-x="635" 
d="M129 715h534l-32 -203h-269l-10 -61h212l-28 -182h-212l-11 -66h284l-32 -203h-40q-11 -9 -24 -24t-13 -31q0 -20 25 -20q8 0 18 2l-15 -93q-14 -6 -35 -11t-52 -5q-23 0 -44.5 3.5t-38 12.5t-27 24t-10.5 38q0 21 9.5 38t24 30t32.5 22t35 14h-394z" />
    <glyph glyph-name="eogonek" unicode="&#x119;" horiz-adv-x="616" 
d="M332 539q69 0 122 -20.5t87.5 -59.5t48.5 -95.5t3 -128.5l-3 -20h-352q0 -15 4 -29.5t12.5 -26t22.5 -18.5t35 -7q32 0 46.5 15t20.5 35h213q-9 -48 -30.5 -82.5t-59.5 -63.5q-10 -8 -25.5 -17.5t-30.5 -21t-26 -25.5t-11 -29q0 -20 25 -20q8 0 18 2l-15 -93
q-14 -6 -35 -11t-52 -5q-23 0 -44.5 3.5t-38 12t-27 23t-10.5 35.5q0 20 8 35t20 26t27.5 19t30.5 14h-9q-59 0 -111.5 13t-92.5 42.5t-63.5 76t-23.5 112.5q0 70 24.5 127.5t67 97.5t100 62t124.5 22zM329 398q-25 0 -46 -17.5t-33 -59.5h139q2 32 -11.5 54.5t-48.5 22.5z
" />
    <glyph glyph-name="Ecaron" unicode="&#x11a;" horiz-adv-x="635" 
d="M129 715h534l-32 -203h-269l-10 -61h212l-28 -182h-212l-11 -66h284l-32 -203h-549zM488 753h-189l-93 155h159l40 -44l50 44h168z" />
    <glyph glyph-name="ecaron" unicode="&#x11b;" horiz-adv-x="616" 
d="M238 215q0 -15 4 -29.5t12.5 -26t22.5 -18.5t35 -7q32 0 46.5 15t20.5 35h213q-17 -96 -92 -147t-193 -51q-59 0 -111.5 13t-92.5 42.5t-63.5 76t-23.5 112.5q0 70 24 127.5t66.5 97.5t100 62t125.5 22q69 0 122 -20.5t87.5 -59.5t48.5 -95.5t3 -128.5l-3 -20h-352z
M329 398q-25 0 -46 -17.5t-33 -59.5h139q2 32 -11.5 54.5t-48.5 22.5zM410 571h-155l-102 172h152l42 -46l54 46h161z" />
    <glyph glyph-name="Gcircumflex" unicode="&#x11c;" horiz-adv-x="797" 
d="M402 -14q-81 0 -149 19t-117 58t-76.5 99t-27.5 142q0 93 31 170.5t86.5 133.5t132.5 87t170 31q67 0 127.5 -15t107 -48.5t75 -87.5t31.5 -131h-264q-3 34 -21 53.5t-65 19.5q-35 0 -60.5 -18t-42 -47t-25 -67t-8.5 -78q0 -58 25.5 -89t87.5 -31q48 0 69 17.5t29 40.5
h-98l26 162h353q-9 -108 -32.5 -187.5t-70 -131.5t-118 -77t-176.5 -25zM370 908h189l93 -155h-159l-40 44l-50 -44h-168z" />
    <glyph glyph-name="gcircumflex" unicode="&#x11d;" horiz-adv-x="648" 
d="M268 -195q-75 0 -129.5 15.5t-89.5 43.5t-53 65.5t-19 82.5h226q1 -17 14.5 -35t49.5 -18q22 0 36 6t22.5 15.5t12.5 22.5t6 28l15 94q-23 -37 -61.5 -61.5t-98.5 -24.5q-38 0 -71 12.5t-58 38.5t-39.5 65t-14.5 93q0 67 19 121t53 91.5t79.5 58t99.5 20.5q58 0 93 -25
t50 -67l12 76h229l-78 -491q-9 -58 -31 -101t-58.5 -71t-90 -41.5t-125.5 -13.5zM306 191q22 0 38 10t26 26t15 37t5 44q-1 28 -14 48t-41 20q-22 0 -38 -10t-26 -26t-15 -36t-5 -40q0 -32 13 -52.5t42 -20.5zM307 743h155l102 -172h-152l-42 46l-54 -46h-161z" />
    <glyph glyph-name="Gbreve" unicode="&#x11e;" horiz-adv-x="797" 
d="M402 -14q-81 0 -149 19t-117 58t-76.5 99t-27.5 142q0 93 31 170.5t86.5 133.5t132.5 87t170 31q67 0 127.5 -15t107 -48.5t75 -87.5t31.5 -131h-264q-3 34 -21 53.5t-65 19.5q-35 0 -60.5 -18t-42 -47t-25 -67t-8.5 -78q0 -58 25.5 -89t87.5 -31q48 0 69 17.5t29 40.5
h-98l26 162h353q-9 -108 -32.5 -187.5t-70 -131.5t-118 -77t-176.5 -25zM455 744q-90 0 -133.5 44t-44.5 120h140q1 -16 10.5 -26t29.5 -10q17 0 28 9t14 27h142q-14 -81 -62.5 -122.5t-123.5 -41.5z" />
    <glyph glyph-name="gbreve" unicode="&#x11f;" horiz-adv-x="648" 
d="M268 -195q-75 0 -129.5 15.5t-89.5 43.5t-53 65.5t-19 82.5h226q1 -17 14.5 -35t49.5 -18q22 0 36 6t22.5 15.5t12.5 22.5t6 28l15 94q-23 -37 -61.5 -61.5t-98.5 -24.5q-38 0 -71 12.5t-58 38.5t-39.5 65t-14.5 93q0 67 19 121t53 91.5t79.5 58t99.5 20.5q58 0 93 -25
t50 -67l12 76h229l-78 -491q-9 -58 -31 -101t-58.5 -71t-90 -41.5t-125.5 -13.5zM306 191q22 0 38 10t26 26t15 37t5 44q-1 28 -14 48t-41 20q-22 0 -38 -10t-26 -26t-15 -36t-5 -40q0 -32 13 -52.5t42 -20.5zM366 570q-85 0 -131 44.5t-43 127.5h133q2 -40 43 -40
q20 0 32.5 10.5t14.5 29.5h135q-12 -86 -59.5 -129t-124.5 -43z" />
    <glyph glyph-name="Gdotaccent" unicode="&#x120;" horiz-adv-x="797" 
d="M402 -14q-81 0 -149 19t-117 58t-76.5 99t-27.5 142q0 93 31 170.5t86.5 133.5t132.5 87t170 31q67 0 127.5 -15t107 -48.5t75 -87.5t31.5 -131h-264q-3 34 -21 53.5t-65 19.5q-35 0 -60.5 -18t-42 -47t-25 -67t-8.5 -78q0 -58 25.5 -89t87.5 -31q48 0 69 17.5t29 40.5
h-98l26 162h353q-9 -108 -32.5 -187.5t-70 -131.5t-118 -77t-176.5 -25zM449 742q-51 0 -83.5 29.5t-32.5 76.5t33 77t83 30t83.5 -30t33.5 -77t-33.5 -76.5t-83.5 -29.5z" />
    <glyph glyph-name="gdotaccent" unicode="&#x121;" horiz-adv-x="648" 
d="M268 -195q-75 0 -129.5 15.5t-89.5 43.5t-53 65.5t-19 82.5h226q1 -17 14.5 -35t49.5 -18q22 0 36 6t22.5 15.5t12.5 22.5t6 28l15 94q-23 -37 -61.5 -61.5t-98.5 -24.5q-38 0 -71 12.5t-58 38.5t-39.5 65t-14.5 93q0 67 19 121t53 91.5t79.5 58t99.5 20.5q58 0 93 -25
t50 -67l12 76h229l-78 -491q-9 -58 -31 -101t-58.5 -71t-90 -41.5t-125.5 -13.5zM306 191q22 0 38 10t26 26t15 37t5 44q-1 28 -14 48t-41 20q-22 0 -38 -10t-26 -26t-15 -36t-5 -40q0 -32 13 -52.5t42 -20.5zM354 551q-51 0 -83.5 29.5t-32.5 76.5t33 77t83 30t83.5 -30
t33.5 -77t-33.5 -76.5t-83.5 -29.5z" />
    <glyph glyph-name="Gcommaaccent" unicode="&#x122;" horiz-adv-x="797" 
d="M402 -14q-81 0 -149 19t-117 58t-76.5 99t-27.5 142q0 93 31 170.5t86.5 133.5t132.5 87t170 31q67 0 127.5 -15t107 -48.5t75 -87.5t31.5 -131h-264q-3 34 -21 53.5t-65 19.5q-35 0 -60.5 -18t-42 -47t-25 -67t-8.5 -78q0 -58 25.5 -89t87.5 -31q48 0 69 17.5t29 40.5
h-98l26 162h353q-9 -108 -32.5 -187.5t-70 -131.5t-118 -77t-176.5 -25zM226 -209l41 173h197l-114 -200z" />
    <glyph glyph-name="gcommaaccent" unicode="&#x123;" horiz-adv-x="648" 
d="M268 -195q-75 0 -129.5 15.5t-89.5 43.5t-53 65.5t-19 82.5h226q1 -17 14.5 -35t49.5 -18q22 0 36 6t22.5 15.5t12.5 22.5t6 28l15 94q-23 -37 -61.5 -61.5t-98.5 -24.5q-38 0 -71 12.5t-58 38.5t-39.5 65t-14.5 93q0 67 19 121t53 91.5t79.5 58t99.5 20.5q58 0 93 -25
t50 -67l12 76h229l-78 -491q-9 -58 -31 -101t-58.5 -71t-90 -41.5t-125.5 -13.5zM306 191q22 0 38 10t26 26t15 37t5 44q-1 28 -14 48t-41 20q-22 0 -38 -10t-26 -26t-15 -36t-5 -40q0 -32 13 -52.5t42 -20.5zM493 735l-41 -173h-197l114 200z" />
    <glyph glyph-name="Hcircumflex" unicode="&#x124;" horiz-adv-x="812" 
d="M129 715h267l-39 -247h163l39 247h266l-113 -715h-266l41 263h-163l-41 -263h-267zM401 908h189l93 -155h-159l-40 44l-50 -44h-168z" />
    <glyph glyph-name="hcircumflex" unicode="&#x125;" horiz-adv-x="635" 
d="M112 743h229l-50 -314q28 47 71.5 78.5t107.5 31.5q35 0 65 -12.5t50.5 -39.5t28 -69.5t-1.5 -101.5l-50 -316h-229l45 287q10 70 -43 70q-31 0 -46 -18t-21 -58l-44 -281h-229zM321 933h189l93 -155h-159l-40 44l-50 -44h-168z" />
    <glyph glyph-name="Hbar" unicode="&#x126;" horiz-adv-x="812" 
d="M63 646h55l11 69h267l-11 -69h163l11 69h266l-11 -69h55l-18 -111h-55l-84 -535h-266l41 263h-163l-41 -263h-267l84 535h-55zM520 468l10 67h-163l-10 -67h163z" />
    <glyph glyph-name="hbar" unicode="&#x127;" horiz-adv-x="635" 
d="M56 686h47l9 57h229l-9 -57h143l-18 -114h-143l-23 -143q28 47 71.5 78.5t107.5 31.5q35 0 65 -12.5t50.5 -39.5t28 -69.5t-1.5 -101.5l-50 -316h-229l45 287q10 70 -43 70q-31 0 -46 -18t-21 -58l-44 -281h-229l90 572h-47z" />
    <glyph glyph-name="Itilde" unicode="&#x128;" horiz-adv-x="391" 
d="M132 715h269l-113 -715h-269zM349 750q-24 0 -41.5 4.5t-32 10t-26 10t-23.5 4.5q-11 0 -19.5 -7.5t-10.5 -18.5h-123q14 91 56 131.5t93 40.5q22 0 39.5 -4.5t32.5 -10t28 -10t26 -4.5q23 0 31 26h123q-8 -46 -23.5 -78.5t-36.5 -53.5t-45 -30.5t-48 -9.5z" />
    <glyph glyph-name="itilde" unicode="&#x129;" horiz-adv-x="316" 
d="M84 523h228l-82 -523h-228zM282 570q-24 0 -41 4.5t-31 10t-25 10t-23 4.5q-11 0 -18.5 -7.5t-10.5 -18.5h-116q14 92 51 134t88 42q22 0 39.5 -4.5t31.5 -10t27 -10t26 -4.5t19 7t10 19h116q-7 -46 -21 -79t-33 -54.5t-42 -32t-47 -10.5z" />
    <glyph glyph-name="Imacron" unicode="&#x12a;" horiz-adv-x="391" 
d="M132 715h269l-113 -715h-269zM115 893h351l-20 -129h-351z" />
    <glyph glyph-name="imacron" unicode="&#x12b;" horiz-adv-x="316" 
d="M93 712h272l-19 -119h-272zM84 523h228l-82 -523h-228z" />
    <glyph glyph-name="Ibreve" unicode="&#x12c;" horiz-adv-x="391" 
d="M132 715h269l-113 -715h-269zM282 744q-90 0 -133.5 44t-44.5 120h140q1 -16 10.5 -26t29.5 -10q17 0 28 9t14 27h142q-14 -81 -62.5 -122.5t-123.5 -41.5z" />
    <glyph glyph-name="ibreve" unicode="&#x12d;" horiz-adv-x="316" 
d="M84 523h228l-82 -523h-228zM214 570q-85 0 -131 44.5t-43 127.5h133q2 -40 43 -40q20 0 32.5 10.5t14.5 29.5h135q-12 -86 -59.5 -129t-124.5 -43z" />
    <glyph glyph-name="Iogonek" unicode="&#x12e;" horiz-adv-x="391" 
d="M132 715h269l-110 -697q-58 -44 -58 -73q0 -20 25 -20q8 0 18 2l-15 -93q-14 -6 -35 -11t-52 -5q-23 0 -44.5 3.5t-38 12.5t-27 24t-10.5 38q0 21 9.5 38t24 30t32.5 22t35 14h-136z" />
    <glyph glyph-name="iogonek" unicode="&#x12f;" horiz-adv-x="316" 
d="M84 523h228l-79 -506q-58 -41 -58 -72q0 -20 25 -20q8 0 18 2l-15 -93q-14 -6 -35 -11t-52 -5q-23 0 -44.5 3.5t-38 12.5t-27 24t-10.5 38q0 21 9.5 38t24 30t32.5 22t35 14h-95zM216 544q-52 0 -84.5 31t-32.5 79t33 79t85 31q51 0 84.5 -31t33.5 -79t-34 -79t-85 -31z
" />
    <glyph glyph-name="Idotaccent" unicode="&#x130;" horiz-adv-x="391" 
d="M132 715h269l-113 -715h-269zM275 742q-51 0 -83.5 29.5t-32.5 76.5t33 77t83 30t83.5 -30t33.5 -77t-33.5 -76.5t-83.5 -29.5z" />
    <glyph glyph-name="dotlessi" unicode="&#x131;" horiz-adv-x="316" 
d="M84 523h228l-82 -523h-228z" />
    <glyph glyph-name="IJ" unicode="&#x132;" horiz-adv-x="879" 
d="M132 715h269l-113 -715h-269zM533 -9q-67 0 -107.5 10.5t-63.5 21.5l31 194q17 -6 38.5 -11t49.5 -5q31 0 55 14.5t30 54.5l71 445h267l-72 -454q-22 -139 -97 -204.5t-202 -65.5z" />
    <glyph glyph-name="ij" unicode="&#x133;" horiz-adv-x="316" 
d="M216 544q-52 0 -84.5 31t-32.5 79t33 79t85 31q51 0 84.5 -31t33.5 -79t-34 -79t-85 -31zM84 523h228l-82 -523h-228zM257 -20q27 2 43.5 12t20.5 36l78 495h228l-82 -518q-6 -39 -23 -75t-52.5 -62t-92.5 -39t-144 -8zM531 544q-52 0 -84.5 31t-32.5 79t33 79t85 31
q51 0 84.5 -31t33.5 -79t-34 -79t-85 -31z" />
    <glyph glyph-name="Jcircumflex" unicode="&#x134;" horiz-adv-x="508" 
d="M162 -9q-67 0 -107.5 10.5t-63.5 21.5l31 194q17 -6 38.5 -11t49.5 -5q31 0 55 14.5t30 54.5l71 445h267l-72 -454q-22 -139 -97 -204.5t-202 -65.5zM324 908h189l93 -155h-159l-40 44l-50 -44h-168z" />
    <glyph glyph-name="jcircumflex" unicode="&#x135;" horiz-adv-x="316" 
d="M-59 -20q27 2 43.5 12t20.5 36l78 495h228l-82 -518q-6 -39 -23 -75t-52.5 -62t-92.5 -39t-144 -8zM146 743h155l102 -172h-152l-42 46l-54 -46h-161z" />
    <glyph glyph-name="Kcommaaccent" unicode="&#x136;" horiz-adv-x="782" 
d="M129 715h267l-39 -248l212 248h282l-300 -341l184 -374h-286l-123 274l-43 -274h-267zM212 -209l41 173h197l-114 -200z" />
    <glyph glyph-name="kcommaaccent" unicode="&#x137;" horiz-adv-x="609" 
d="M112 743h229l-65 -408l135 188h241l-191 -243l111 -280h-243l-72 209l-33 -209h-229zM140 -209l41 173h197l-114 -200z" />
    <glyph glyph-name="Lacute" unicode="&#x139;" horiz-adv-x="595" 
d="M129 715h267l-81 -511h241l-32 -204h-508zM227 908h229l-118 -155h-173z" />
    <glyph glyph-name="lacute" unicode="&#x13a;" horiz-adv-x="312" 
d="M118 743h227l-117 -743h-227zM200 933h229l-118 -155h-173z" />
    <glyph glyph-name="Lcommaaccent" unicode="&#x13b;" horiz-adv-x="595" 
d="M129 715h267l-81 -511h241l-32 -204h-508zM125 -209l41 173h197l-114 -200z" />
    <glyph glyph-name="lcommaaccent" unicode="&#x13c;" horiz-adv-x="312" 
d="M118 743h227l-117 -743h-227zM-31 -209l41 173h197l-114 -200z" />
    <glyph glyph-name="Lcaron" unicode="&#x13d;" horiz-adv-x="595" 
d="M457 715h176l-92 -186h-127zM129 715h267l-81 -511h241l-32 -204h-508z" />
    <glyph glyph-name="lcaron" unicode="&#x13e;" horiz-adv-x="312" 
d="M118 743h227l-117 -743h-227zM383 743h153l-77 -174h-110z" />
    <glyph glyph-name="Ldot" unicode="&#x13f;" horiz-adv-x="635" 
d="M129 715h267l-81 -511h241l-32 -204h-508zM535 290q-27 0 -49 9.5t-38.5 25.5t-25.5 38t-9 47t9 46.5t25 38t38 26t49 9.5t50.5 -9.5t40.5 -26t26.5 -38t9.5 -46.5t-9.5 -47t-26 -38t-40 -25.5t-50.5 -9.5z" />
    <glyph glyph-name="ldot" unicode="&#x140;" horiz-adv-x="520" 
d="M118 743h227l-117 -743h-227zM428 236q-27 0 -49 9.5t-38.5 25.5t-25.5 38t-9 47t9 46.5t25 38t38 26t49 9.5t50.5 -9.5t40.5 -26t26.5 -38t9.5 -46.5t-9.5 -47t-26 -38t-40 -25.5t-50.5 -9.5z" />
    <glyph glyph-name="Lslash" unicode="&#x141;" horiz-adv-x="613" 
d="M28 350l64 20l55 345h267l-41 -256l179 57l-22 -134l-178 -57l-19 -121h241l-32 -204h-508l37 236l-63 -20z" />
    <glyph glyph-name="lslash" unicode="&#x142;" horiz-adv-x="363" 
d="M32 377l57 23l54 343h227l-38 -243l60 25l-22 -142l-61 -25l-56 -358h-227l40 258l-56 -23z" />
    <glyph glyph-name="Nacute" unicode="&#x143;" horiz-adv-x="805" 
d="M129 715h294l108 -317l50 317h236l-113 -715h-250l-142 375l-59 -375h-237zM452 908h229l-118 -155h-173z" />
    <glyph glyph-name="nacute" unicode="&#x144;" horiz-adv-x="635" 
d="M49 344q9 58 14 100t7 79h225q0 -19 -1.5 -46.5t-4.5 -50.5q28 47 72.5 80t108.5 33q35 0 65 -12.5t50.5 -39.5t28 -69.5t-1.5 -101.5l-50 -316h-229l45 287q10 70 -43 70q-31 0 -46 -18t-21 -58l-44 -281h-229zM340 743h219l-127 -175h-163z" />
    <glyph glyph-name="Ncommaaccent" unicode="&#x145;" horiz-adv-x="805" 
d="M129 715h294l108 -317l50 317h236l-113 -715h-250l-142 375l-59 -375h-237zM215 -209l41 173h197l-114 -200z" />
    <glyph glyph-name="ncommaaccent" unicode="&#x146;" horiz-adv-x="635" 
d="M49 344q9 58 14 100t7 79h225q0 -19 -1.5 -46.5t-4.5 -50.5q28 47 72.5 80t108.5 33q35 0 65 -12.5t50.5 -39.5t28 -69.5t-1.5 -101.5l-50 -316h-229l45 287q10 70 -43 70q-31 0 -46 -18t-21 -58l-44 -281h-229zM139 -209l41 173h197l-114 -200z" />
    <glyph glyph-name="Ncaron" unicode="&#x147;" horiz-adv-x="805" 
d="M129 715h294l108 -317l50 317h236l-113 -715h-250l-142 375l-59 -375h-237zM583 753h-189l-93 155h159l40 -44l50 44h168z" />
    <glyph glyph-name="ncaron" unicode="&#x148;" horiz-adv-x="635" 
d="M49 344q9 58 14 100t7 79h225q0 -19 -1.5 -46.5t-4.5 -50.5q28 47 72.5 80t108.5 33q35 0 65 -12.5t50.5 -39.5t28 -69.5t-1.5 -101.5l-50 -316h-229l45 287q10 70 -43 70q-31 0 -46 -18t-21 -58l-44 -281h-229zM426 571h-155l-102 172h152l42 -46l54 46h161z" />
    <glyph glyph-name="napostrophe" unicode="&#x149;" horiz-adv-x="814" 
d="M228 344q9 58 14 100t7 79h225q0 -19 -1.5 -46.5t-4.5 -50.5q28 47 72.5 80t108.5 33q35 0 65 -12.5t50.5 -39.5t28 -69.5t-1.5 -101.5l-50 -316h-229l45 287q10 70 -43 70q-31 0 -46 -18t-21 -58l-44 -281h-229zM298 667l-170 -270l-123 45l99 287z" />
    <glyph glyph-name="Eng" unicode="&#x14a;" horiz-adv-x="805" 
d="M425 -192q-54 0 -88.5 7t-57.5 18l29 183q15 -5 30 -8t40 -3q46 0 66 22l-132 348l-59 -375h-237l113 715h295l107 -317l50 317h236l-110 -695q-8 -46 -27.5 -85t-54 -67t-84 -44t-116.5 -16z" />
    <glyph glyph-name="eng" unicode="&#x14b;" horiz-adv-x="638" 
d="M563 5q-6 -39 -23 -75t-52.5 -62t-93 -39t-144.5 -8l24 159q27 2 43.5 12t20.5 36l40 259q10 70 -43 70q-31 0 -46 -18t-21 -58l-44 -281h-229l54 344q9 58 14 100t7 79h225q0 -19 -1.5 -46.5t-4.5 -50.5q28 47 72.5 80t108.5 33q35 0 65 -12.5t50.5 -39.5t28 -69.5
t-1.5 -101.5z" />
    <glyph glyph-name="Omacron" unicode="&#x14c;" horiz-adv-x="823" 
d="M308 307q0 -24 5 -44.5t17 -35.5t31 -24t47 -9q37 0 63 18.5t42 48.5t23 67t7 74q0 24 -5 45t-16.5 36.5t-30 25t-46.5 10.5q-36 1 -62 -17.5t-42.5 -48.5t-24.5 -68t-8 -78zM387 -14q-70 0 -134 19t-113 57.5t-78.5 97t-29.5 136.5q0 97 30.5 176t86 135.5t133 87.5
t171.5 31q73 0 139.5 -18.5t117 -56.5t80.5 -97.5t30 -141.5q0 -96 -30.5 -174.5t-86.5 -134.5t-136.5 -86.5t-179.5 -30.5zM308 893h351l-20 -129h-351z" />
    <glyph glyph-name="omacron" unicode="&#x14d;" horiz-adv-x="629" 
d="M244 226q0 -12 2 -25t8.5 -24t18 -18t30.5 -7q22 0 37.5 11.5t25.5 32t14.5 48.5t4.5 60q0 26 -12.5 47t-43.5 21q-46 0 -65.5 -41.5t-19.5 -104.5zM300 -14q-53 0 -103.5 13t-90 42t-64.5 75t-25 112q0 67 22.5 124.5t63.5 98.5t99 64.5t129 23.5q52 0 103 -13.5
t91 -43.5t64.5 -77t24.5 -113q0 -69 -23 -125t-64.5 -96.5t-99 -62.5t-127.5 -22zM197 712h331l-19 -119h-331z" />
    <glyph glyph-name="Obreve" unicode="&#x14e;" horiz-adv-x="823" 
d="M308 307q0 -24 5 -44.5t17 -35.5t31 -24t47 -9q37 0 63 18.5t42 48.5t23 67t7 74q0 24 -5 45t-16.5 36.5t-30 25t-46.5 10.5q-36 1 -62 -17.5t-42.5 -48.5t-24.5 -68t-8 -78zM387 -14q-70 0 -134 19t-113 57.5t-78.5 97t-29.5 136.5q0 97 30.5 176t86 135.5t133 87.5
t171.5 31q73 0 139.5 -18.5t117 -56.5t80.5 -97.5t30 -141.5q0 -96 -30.5 -174.5t-86.5 -134.5t-136.5 -86.5t-179.5 -30.5zM474 744q-90 0 -133.5 44t-44.5 120h140q1 -16 10.5 -26t29.5 -10q17 0 28 9t14 27h142q-14 -81 -62.5 -122.5t-123.5 -41.5z" />
    <glyph glyph-name="obreve" unicode="&#x14f;" horiz-adv-x="629" 
d="M244 226q0 -12 2 -25t8.5 -24t18 -18t30.5 -7q22 0 37.5 11.5t25.5 32t14.5 48.5t4.5 60q0 26 -12.5 47t-43.5 21q-46 0 -65.5 -41.5t-19.5 -104.5zM300 -14q-53 0 -103.5 13t-90 42t-64.5 75t-25 112q0 67 22.5 124.5t63.5 98.5t99 64.5t129 23.5q52 0 103 -13.5
t91 -43.5t64.5 -77t24.5 -113q0 -69 -23 -125t-64.5 -96.5t-99 -62.5t-127.5 -22zM346 570q-85 0 -131 44.5t-43 127.5h133q2 -40 43 -40q20 0 32.5 10.5t14.5 29.5h135q-12 -86 -59.5 -129t-124.5 -43z" />
    <glyph glyph-name="Ohungarumlaut" unicode="&#x150;" horiz-adv-x="823" 
d="M308 307q0 -24 5 -44.5t17 -35.5t31 -24t47 -9q37 0 63 18.5t42 48.5t23 67t7 74q0 24 -5 45t-16.5 36.5t-30 25t-46.5 10.5q-36 1 -62 -17.5t-42.5 -48.5t-24.5 -68t-8 -78zM387 -14q-70 0 -134 19t-113 57.5t-78.5 97t-29.5 136.5q0 97 30.5 176t86 135.5t133 87.5
t171.5 31q73 0 139.5 -18.5t117 -56.5t80.5 -97.5t30 -141.5q0 -96 -30.5 -174.5t-86.5 -134.5t-136.5 -86.5t-179.5 -30.5zM343 908h183l-93 -155h-150zM558 908h183l-93 -155h-150z" />
    <glyph glyph-name="ohungarumlaut" unicode="&#x151;" horiz-adv-x="629" 
d="M244 226q0 -12 2 -25t8.5 -24t18 -18t30.5 -7q22 0 37.5 11.5t25.5 32t14.5 48.5t4.5 60q0 26 -12.5 47t-43.5 21q-46 0 -65.5 -41.5t-19.5 -104.5zM300 -14q-53 0 -103.5 13t-90 42t-64.5 75t-25 112q0 67 22.5 124.5t63.5 98.5t99 64.5t129 23.5q52 0 103 -13.5
t91 -43.5t64.5 -77t24.5 -113q0 -69 -23 -125t-64.5 -96.5t-99 -62.5t-127.5 -22zM245 743h163l-101 -175h-130zM434 743h163l-101 -175h-130z" />
    <glyph glyph-name="OE" unicode="&#x152;" horiz-adv-x="996" 
d="M1024 715l-32 -203h-255l-10 -61h198l-28 -182h-198l-11 -66h270l-32 -203h-525q-181 0 -275 74.5t-94 222.5q0 105 31.5 183t87.5 130.5t133 78.5t168 26h572zM449 514q-69 0 -105 -54t-36 -151q0 -60 27.5 -84t80.5 -24h9l50 313h-26z" />
    <glyph glyph-name="oe" unicode="&#x153;" horiz-adv-x="982" 
d="M698 539q69 0 122 -20.5t87.5 -59.5t48.5 -95.5t3 -128.5l-3 -20h-352q0 -15 4 -29.5t12.5 -26t22.5 -18.5t35 -7q32 0 46.5 15t20.5 35h213q-17 -96 -92 -147t-193 -51q-58 0 -107 14.5t-85 47.5q-36 -30 -81.5 -46t-99.5 -16q-53 0 -103.5 13.5t-90 43t-64.5 75.5
t-25 112q0 67 22.5 124t63.5 98t99 64t129 23q52 0 100 -16t83 -51q38 32 84.5 49.5t99.5 17.5zM244 226q0 -12 2 -25t8.5 -24t18 -18t30.5 -7q22 0 37.5 11.5t25.5 32t14.5 48.5t4.5 60q0 26 -12.5 47t-43.5 21q-46 0 -65.5 -41.5t-19.5 -104.5zM695 398q-25 0 -46 -17.5
t-33 -59.5h139q2 32 -11.5 54.5t-48.5 22.5z" />
    <glyph glyph-name="Racute" unicode="&#x154;" horiz-adv-x="733" 
d="M129 715h303q75 0 129 -15.5t89 -43.5t51.5 -67.5t16.5 -87.5q0 -86 -40 -140.5t-106 -77.5l114 -283h-266l-89 227h-15l-35 -227h-265zM384 394q34 0 54.5 15.5t20.5 53.5q0 54 -65 54h-32l-19 -123h41zM367 908h229l-118 -155h-173z" />
    <glyph glyph-name="racute" unicode="&#x155;" horiz-adv-x="458" 
d="M49 344q9 58 13.5 100t6.5 79h225q0 -9 -0.5 -23.5t-1.5 -31t-2.5 -34.5t-3.5 -34q29 69 77 100t111 29l-33 -213q-85 7 -129 -16.5t-55 -89.5l-33 -210h-229zM285 743h219l-127 -175h-163z" />
    <glyph glyph-name="Rcommaaccent" unicode="&#x156;" horiz-adv-x="733" 
d="M129 715h303q75 0 129 -15.5t89 -43.5t51.5 -67.5t16.5 -87.5q0 -86 -40 -140.5t-106 -77.5l114 -283h-266l-89 227h-15l-35 -227h-265zM384 394q34 0 54.5 15.5t20.5 53.5q0 54 -65 54h-32l-19 -123h41zM194 -209l41 173h197l-114 -200z" />
    <glyph glyph-name="rcommaaccent" unicode="&#x157;" horiz-adv-x="458" 
d="M49 344q9 58 13.5 100t6.5 79h225q0 -9 -0.5 -23.5t-1.5 -31t-2.5 -34.5t-3.5 -34q29 69 77 100t111 29l-33 -213q-85 7 -129 -16.5t-55 -89.5l-33 -210h-229zM-37 -209l41 173h197l-114 -200z" />
    <glyph glyph-name="Rcaron" unicode="&#x158;" horiz-adv-x="733" 
d="M129 715h303q75 0 129 -15.5t89 -43.5t51.5 -67.5t16.5 -87.5q0 -86 -40 -140.5t-106 -77.5l114 -283h-266l-89 227h-15l-35 -227h-265zM384 394q34 0 54.5 15.5t20.5 53.5q0 54 -65 54h-32l-19 -123h41zM498 753h-189l-93 155h159l40 -44l50 44h168z" />
    <glyph glyph-name="rcaron" unicode="&#x159;" horiz-adv-x="458" 
d="M49 344q9 58 13.5 100t6.5 79h225q0 -9 -0.5 -23.5t-1.5 -31t-2.5 -34.5t-3.5 -34q29 69 77 100t111 29l-33 -213q-85 7 -129 -16.5t-55 -89.5l-33 -210h-229zM370 571h-155l-102 172h152l42 -46l54 46h161z" />
    <glyph glyph-name="Sacute" unicode="&#x15a;" horiz-adv-x="657" 
d="M317 -14q-75 0 -134.5 15t-101 46t-63 77t-20.5 108h249q1 -26 16.5 -43.5t58.5 -17.5q56 0 56 38q0 15 -17.5 24t-56.5 16q-70 12 -118 30.5t-77.5 45t-42.5 62t-13 81.5q0 55 20.5 102.5t60 82t97.5 54t133 19.5q69 0 123.5 -13.5t92.5 -42.5t57.5 -74t18.5 -107h-243
q-3 52 -55 52q-49 0 -49 -34q0 -17 16.5 -25.5t57.5 -15.5q123 -20 189.5 -68.5t66.5 -146.5q0 -59 -20.5 -107.5t-61 -83t-100.5 -54t-140 -20.5zM350 908h229l-118 -155h-173z" />
    <glyph glyph-name="sacute" unicode="&#x15b;" horiz-adv-x="530" 
d="M237 -15q-54 0 -100 10t-80 32.5t-53 58t-19 86.5h211q2 -22 11.5 -33.5t35.5 -11.5q17 0 27.5 6.5t10.5 20.5q0 13 -15 20.5t-66 15.5q-45 7 -78 19t-55.5 30t-33.5 44t-11 61q0 49 19 86t53.5 61.5t82 36.5t104.5 12q53 0 97 -10t75.5 -31.5t49.5 -56t21 -82.5h-206
q-2 17 -11 30t-31 13q-20 0 -29.5 -7.5t-9.5 -19.5q0 -16 16.5 -22t49.5 -12q55 -10 93.5 -22.5t63 -31.5t35.5 -45.5t11 -64.5q0 -51 -20.5 -87.5t-56.5 -60t-85.5 -34.5t-106.5 -11zM275 743h219l-127 -175h-163z" />
    <glyph glyph-name="Scircumflex" unicode="&#x15c;" horiz-adv-x="657" 
d="M317 -14q-75 0 -134.5 15t-101 46t-63 77t-20.5 108h249q1 -26 16.5 -43.5t58.5 -17.5q56 0 56 38q0 15 -17.5 24t-56.5 16q-70 12 -118 30.5t-77.5 45t-42.5 62t-13 81.5q0 55 20.5 102.5t60 82t97.5 54t133 19.5q69 0 123.5 -13.5t92.5 -42.5t57.5 -74t18.5 -107h-243
q-3 52 -55 52q-49 0 -49 -34q0 -17 16.5 -25.5t57.5 -15.5q123 -20 189.5 -68.5t66.5 -146.5q0 -59 -20.5 -107.5t-61 -83t-100.5 -54t-140 -20.5zM315 908h189l93 -155h-159l-40 44l-50 -44h-168z" />
    <glyph glyph-name="scircumflex" unicode="&#x15d;" horiz-adv-x="530" 
d="M237 -15q-54 0 -100 10t-80 32.5t-53 58t-19 86.5h211q2 -22 11.5 -33.5t35.5 -11.5q17 0 27.5 6.5t10.5 20.5q0 13 -15 20.5t-66 15.5q-45 7 -78 19t-55.5 30t-33.5 44t-11 61q0 49 19 86t53.5 61.5t82 36.5t104.5 12q53 0 97 -10t75.5 -31.5t49.5 -56t21 -82.5h-206
q-2 17 -11 30t-31 13q-20 0 -29.5 -7.5t-9.5 -19.5q0 -16 16.5 -22t49.5 -12q55 -10 93.5 -22.5t63 -31.5t35.5 -45.5t11 -64.5q0 -51 -20.5 -87.5t-56.5 -60t-85.5 -34.5t-106.5 -11zM240 743h155l102 -172h-152l-42 46l-54 -46h-161z" />
    <glyph glyph-name="Scedilla" unicode="&#x15e;" horiz-adv-x="657" 
d="M267 -232q-26 0 -50.5 5.5t-44 17t-31.5 30t-14 44.5h100q2 -8 8 -15.5t23 -7.5q10 0 20 6.5t10 23.5q0 26 -30 26q-12 0 -19 -3t-12 -8l-38 42l50 62q-116 14 -179 73.5t-62 167.5h249q1 -26 16.5 -43.5t58.5 -17.5q56 0 56 38q0 15 -17.5 24t-56.5 16q-70 12 -118 30.5
t-77.5 45t-42.5 62t-13 81.5q0 55 20.5 102.5t60 82t97.5 54t133 19.5q69 0 123.5 -13.5t92.5 -42.5t57.5 -74t18.5 -107h-243q-3 52 -55 52q-49 0 -49 -34q0 -17 16.5 -25.5t57.5 -15.5q123 -20 189.5 -68.5t66.5 -146.5q0 -59 -20.5 -107.5t-61 -83t-100.5 -54t-140 -20.5
l-23 -27q45 3 75.5 -19t30.5 -64q0 -28 -11 -48t-29 -33.5t-42 -20t-51 -6.5z" />
    <glyph glyph-name="scedilla" unicode="&#x15f;" horiz-adv-x="530" 
d="M207 -232q-26 0 -50.5 5.5t-44 17t-31.5 30t-14 44.5h100q2 -8 8 -15.5t23 -7.5q10 0 20 6.5t10 23.5q0 26 -30 26q-12 0 -19 -3t-12 -8l-38 42l48 59q-42 5 -77.5 18t-60.5 35t-39.5 54.5t-14.5 76.5h211q2 -22 11.5 -33.5t35.5 -11.5q17 0 27.5 6.5t10.5 20.5
q0 13 -15 20.5t-66 15.5q-45 7 -78 19t-55.5 30t-33.5 44t-11 61q0 49 19 86t53.5 61.5t82 36.5t104.5 12q53 0 97 -10t75.5 -31.5t49.5 -56t21 -82.5h-206q-2 17 -11 30t-31 13q-20 0 -29.5 -7.5t-9.5 -19.5q0 -16 16.5 -22t49.5 -12q55 -10 93.5 -22.5t63 -31.5
t35.5 -45.5t11 -64.5q0 -49 -19 -84.5t-52 -59t-79 -35.5t-100 -13l-22 -27q45 3 75.5 -19t30.5 -64q0 -28 -11 -48t-29 -33.5t-42 -20t-51 -6.5z" />
    <glyph glyph-name="Scaron" unicode="&#x160;" horiz-adv-x="657" 
d="M317 -14q-75 0 -134.5 15t-101 46t-63 77t-20.5 108h249q1 -26 16.5 -43.5t58.5 -17.5q56 0 56 38q0 15 -17.5 24t-56.5 16q-70 12 -118 30.5t-77.5 45t-42.5 62t-13 81.5q0 55 20.5 102.5t60 82t97.5 54t133 19.5q69 0 123.5 -13.5t92.5 -42.5t57.5 -74t18.5 -107h-243
q-3 52 -55 52q-49 0 -49 -34q0 -17 16.5 -25.5t57.5 -15.5q123 -20 189.5 -68.5t66.5 -146.5q0 -59 -20.5 -107.5t-61 -83t-100.5 -54t-140 -20.5zM467 753h-189l-93 155h159l40 -44l50 44h168z" />
    <glyph glyph-name="scaron" unicode="&#x161;" horiz-adv-x="530" 
d="M237 -15q-54 0 -100 10t-80 32.5t-53 58t-19 86.5h211q2 -22 11.5 -33.5t35.5 -11.5q17 0 27.5 6.5t10.5 20.5q0 13 -15 20.5t-66 15.5q-45 7 -78 19t-55.5 30t-33.5 44t-11 61q0 49 19 86t53.5 61.5t82 36.5t104.5 12q53 0 97 -10t75.5 -31.5t49.5 -56t21 -82.5h-206
q-2 17 -11 30t-31 13q-20 0 -29.5 -7.5t-9.5 -19.5q0 -16 16.5 -22t49.5 -12q55 -10 93.5 -22.5t63 -31.5t35.5 -45.5t11 -64.5q0 -51 -20.5 -87.5t-56.5 -60t-85.5 -34.5t-106.5 -11zM359 571h-155l-102 172h152l42 -46l54 46h161z" />
    <glyph glyph-name="Tcommaaccent" unicode="&#x162;" horiz-adv-x="648" 
d="M228 511h-173l33 204h614l-33 -204h-173l-80 -511h-268zM147 -209l41 173h197l-114 -200z" />
    <glyph glyph-name="tcommaaccent" unicode="&#x163;" horiz-adv-x="407" 
d="M235 -14q-50 0 -88 11t-62 37t-32.5 68t1.5 104l27 168h-57l23 149h57l17 104h229l-17 -104h93l-23 -149h-93l-25 -158q-5 -29 5.5 -40t33.5 -11q9 0 20.5 1.5t24.5 6.5l-27 -170q-18 -7 -45 -12t-62 -5zM48 -209l41 173h197l-114 -200z" />
    <glyph glyph-name="Tcaron" unicode="&#x164;" horiz-adv-x="648" 
d="M228 511h-173l33 204h614l-33 -204h-173l-80 -511h-268zM489 753h-189l-93 155h159l40 -44l50 44h168z" />
    <glyph glyph-name="tcaron" unicode="&#x165;" horiz-adv-x="407" 
d="M235 -14q-50 0 -88 11t-62 37t-32.5 68t1.5 104l27 168h-57l23 149h57l17 104h229l-17 -104h93l-23 -149h-93l-25 -158q-5 -29 5.5 -40t33.5 -11q9 0 20.5 1.5t24.5 6.5l-27 -170q-18 -7 -45 -12t-62 -5zM407 743h153l-77 -174h-110z" />
    <glyph glyph-name="Tbar" unicode="&#x166;" horiz-adv-x="648" 
d="M96 409h116l16 102h-173l33 204h614l-33 -204h-173l-16 -102h116l-25 -161h-116l-39 -248h-268l39 248h-116z" />
    <glyph glyph-name="tbar" unicode="&#x167;" horiz-adv-x="407" 
d="M17 329h57l7 45h-57l23 149h57l17 104h229l-17 -104h93l-23 -149h-93l-7 -45h93l-14 -89h-93l-4 -24q-5 -29 5.5 -40t33.5 -11q9 0 20.5 1.5t24.5 6.5l-27 -170q-18 -7 -45 -12t-62 -5q-50 0 -88 11t-62 37t-32.5 68t1.5 104l5 34h-56z" />
    <glyph glyph-name="Utilde" unicode="&#x168;" horiz-adv-x="799" 
d="M391 -14q-88 0 -155.5 21t-110.5 63t-60 104.5t-3 146.5l63 394h266l-64 -402q-9 -57 5 -88t62 -31q25 0 40.5 7.5t25 21.5t14.5 34t9 46l65 412h268l-68 -432q-12 -80 -40 -136t-72 -92t-105 -52.5t-140 -16.5zM535 750q-24 0 -41.5 4.5t-32 10t-26 10t-23.5 4.5
q-11 0 -19.5 -7.5t-10.5 -18.5h-123q14 91 56 131.5t93 40.5q22 0 39.5 -4.5t32.5 -10t28 -10t26 -4.5q23 0 31 26h123q-8 -46 -23.5 -78.5t-36.5 -53.5t-45 -30.5t-48 -9.5z" />
    <glyph glyph-name="utilde" unicode="&#x169;" horiz-adv-x="638" 
d="M582 166q-8 -51 -11.5 -91.5t-1.5 -74.5h-225q-2 16 -1.5 44.5t1.5 49.5q-29 -48 -72.5 -78t-106.5 -30q-35 0 -65 12.5t-50.5 39t-28 68.5t1.5 101l50 316h229l-48 -301q-10 -70 42 -70q30 0 45 18t21 58l47 295h229zM426 570q-24 0 -41 4.5t-31 10t-25 10t-23 4.5
q-11 0 -18.5 -7.5t-10.5 -18.5h-116q14 92 51 134t88 42q22 0 39.5 -4.5t31.5 -10t27 -10t26 -4.5t19 7t10 19h116q-7 -46 -21 -79t-33 -54.5t-42 -32t-47 -10.5z" />
    <glyph glyph-name="Umacron" unicode="&#x16a;" horiz-adv-x="799" 
d="M391 -14q-88 0 -155.5 21t-110.5 63t-60 104.5t-3 146.5l63 394h266l-64 -402q-9 -57 5 -88t62 -31q25 0 40.5 7.5t25 21.5t14.5 34t9 46l65 412h268l-68 -432q-12 -80 -40 -136t-72 -92t-105 -52.5t-140 -16.5zM322 893h351l-20 -129h-351z" />
    <glyph glyph-name="umacron" unicode="&#x16b;" horiz-adv-x="638" 
d="M582 166q-8 -51 -11.5 -91.5t-1.5 -74.5h-225q-2 16 -1.5 44.5t1.5 49.5q-29 -48 -72.5 -78t-106.5 -30q-35 0 -65 12.5t-50.5 39t-28 68.5t1.5 101l50 316h229l-48 -301q-10 -70 42 -70q30 0 45 18t21 58l47 295h229zM208 712h331l-19 -119h-331z" />
    <glyph glyph-name="Ubreve" unicode="&#x16c;" horiz-adv-x="799" 
d="M391 -14q-88 0 -155.5 21t-110.5 63t-60 104.5t-3 146.5l63 394h266l-64 -402q-9 -57 5 -88t62 -31q25 0 40.5 7.5t25 21.5t14.5 34t9 46l65 412h268l-68 -432q-12 -80 -40 -136t-72 -92t-105 -52.5t-140 -16.5zM478 744q-90 0 -133.5 44t-44.5 120h140q1 -16 10.5 -26
t29.5 -10q17 0 28 9t14 27h142q-14 -81 -62.5 -122.5t-123.5 -41.5z" />
    <glyph glyph-name="ubreve" unicode="&#x16d;" horiz-adv-x="638" 
d="M582 166q-8 -51 -11.5 -91.5t-1.5 -74.5h-225q-2 16 -1.5 44.5t1.5 49.5q-29 -48 -72.5 -78t-106.5 -30q-35 0 -65 12.5t-50.5 39t-28 68.5t1.5 101l50 316h229l-48 -301q-10 -70 42 -70q30 0 45 18t21 58l47 295h229zM369 570q-85 0 -131 44.5t-43 127.5h133
q2 -40 43 -40q20 0 32.5 10.5t14.5 29.5h135q-12 -86 -59.5 -129t-124.5 -43z" />
    <glyph glyph-name="Uring" unicode="&#x16e;" horiz-adv-x="799" 
d="M391 -14q-88 0 -155.5 21t-110.5 63t-60 104.5t-3 146.5l63 394h266l-64 -402q-9 -57 5 -88t62 -31q25 0 40.5 7.5t25 21.5t14.5 34t9 46l65 412h268l-68 -432q-12 -80 -40 -136t-72 -92t-105 -52.5t-140 -16.5zM475 793q19 0 31 13t12 34t-12 34t-31 13q-20 0 -31.5 -13
t-11.5 -34t11.5 -34t31.5 -13zM475 718q-26 0 -49 9.5t-40 26t-27 39t-10 47.5t10 47.5t27 39t40 26t49 9.5t49 -9.5t40 -26t27 -39t10 -47.5t-10 -47.5t-27 -39t-40 -26t-49 -9.5z" />
    <glyph glyph-name="uring" unicode="&#x16f;" horiz-adv-x="638" 
d="M582 166q-8 -51 -11.5 -91.5t-1.5 -74.5h-225q-2 16 -1.5 44.5t1.5 49.5q-29 -48 -72.5 -78t-106.5 -30q-35 0 -65 12.5t-50.5 39t-28 68.5t1.5 101l50 316h229l-48 -301q-10 -70 42 -70q30 0 45 18t21 58l47 295h229zM358 641q19 0 30.5 13t11.5 33t-11.5 33t-30.5 13
t-30.5 -13t-11.5 -33t11.5 -33t30.5 -13zM358 567q-26 0 -48.5 9.5t-39 26t-26.5 38t-10 46.5t10 46.5t26.5 38t39 26t48.5 9.5q25 0 48 -9.5t39.5 -26t26.5 -38t10 -46.5t-10 -46.5t-26.5 -38t-39.5 -26t-48 -9.5z" />
    <glyph glyph-name="Uhungarumlaut" unicode="&#x170;" horiz-adv-x="799" 
d="M391 -14q-88 0 -155.5 21t-110.5 63t-60 104.5t-3 146.5l63 394h266l-64 -402q-9 -57 5 -88t62 -31q25 0 40.5 7.5t25 21.5t14.5 34t9 46l65 412h268l-68 -432q-12 -80 -40 -136t-72 -92t-105 -52.5t-140 -16.5zM352 908h183l-93 -155h-150zM567 908h183l-93 -155h-150z
" />
    <glyph glyph-name="uhungarumlaut" unicode="&#x171;" horiz-adv-x="638" 
d="M582 166q-8 -51 -11.5 -91.5t-1.5 -74.5h-225q-2 16 -1.5 44.5t1.5 49.5q-29 -48 -72.5 -78t-106.5 -30q-35 0 -65 12.5t-50.5 39t-28 68.5t1.5 101l50 316h229l-48 -301q-10 -70 42 -70q30 0 45 18t21 58l47 295h229zM257 743h163l-101 -175h-130zM446 743h163
l-101 -175h-130z" />
    <glyph glyph-name="Uogonek" unicode="&#x172;" horiz-adv-x="799" 
d="M748 283q-9 -57 -25.5 -102t-43 -79.5t-64.5 -59t-89 -41.5q-15 -5 -30 -9.5t-27 -11t-19.5 -15t-7.5 -20.5q0 -20 25 -20q8 0 18 2l-15 -93q-14 -6 -35 -11t-52 -5q-23 0 -44.5 3.5t-38 12.5t-27 24t-10.5 38q0 33 21.5 56t49.5 37q-75 6 -131.5 30t-91.5 65.5
t-48 100.5t-1 136l63 394h266l-64 -402q-9 -57 5 -88t62 -31q25 0 40.5 7.5t25 21.5t14.5 34t9 46l65 412h268z" />
    <glyph glyph-name="uogonek" unicode="&#x173;" horiz-adv-x="638" 
d="M570 10q-17 -17 -30.5 -33t-13.5 -32q0 -20 25 -20q8 0 18 2l-15 -93q-14 -6 -35 -11t-52 -5q-23 0 -44.5 3.5t-38 12.5t-27 24t-10.5 38q0 21 9.5 38t24 30t32.5 22t35 14h-104q-2 16 -1.5 44.5t1.5 49.5q-29 -48 -72.5 -78t-106.5 -30q-35 0 -65 12.5t-50.5 39
t-28 68.5t1.5 101l50 316h229l-48 -301q-10 -70 42 -70q30 0 45 18t21 58l47 295h229l-56 -357q-8 -51 -11 -90.5t-1 -65.5z" />
    <glyph glyph-name="Wcircumflex" unicode="&#x174;" horiz-adv-x="1027" 
d="M72 715h270l3 -393l130 393h224l20 -398l134 398h243l-279 -715h-258l-24 378l-141 -378h-269zM511 908h189l93 -155h-159l-40 44l-50 -44h-168z" />
    <glyph glyph-name="wcircumflex" unicode="&#x175;" horiz-adv-x="863" 
d="M39 523h231l16 -257l100 257h182l18 -257l100 257h219l-247 -523h-212l-21 240l-96 -240h-218zM415 743h155l102 -172h-152l-42 46l-54 -46h-161z" />
    <glyph glyph-name="Ycircumflex" unicode="&#x176;" horiz-adv-x="722" 
d="M234 304l-164 411h276l59 -190l118 190h265l-287 -424l-46 -291h-268zM359 908h189l93 -155h-159l-40 44l-50 -44h-168z" />
    <glyph glyph-name="ycircumflex" unicode="&#x177;" horiz-adv-x="614" 
d="M168 59l-129 464h238l43 -232l110 232h225l-382 -695h-226zM301 743h155l102 -172h-152l-42 46l-54 -46h-161z" />
    <glyph glyph-name="Ydieresis" unicode="&#x178;" horiz-adv-x="722" 
d="M234 304l-164 411h276l59 -190l118 190h265l-287 -424l-46 -291h-268zM330 742q-21 0 -40 7.5t-32.5 21t-21.5 31.5t-8 39t8 39t21.5 31.5t32.5 21t40 7.5t40 -7.5t33 -21t22 -31.5t8 -39t-8 -39t-22 -31.5t-33 -21t-40 -7.5zM563 742q-21 0 -39.5 7.5t-32 21t-21.5 31.5
t-8 39t8 39t21.5 31.5t32 21t39.5 7.5q44 0 73.5 -28.5t29.5 -70.5t-29.5 -70.5t-73.5 -28.5z" />
    <glyph glyph-name="Zacute" unicode="&#x179;" horiz-adv-x="628" 
d="M-33 27l333 495h-217l31 193h585l-5 -27l-332 -492h228l-31 -196h-596zM363 908h229l-118 -155h-173z" />
    <glyph glyph-name="zacute" unicode="&#x17a;" horiz-adv-x="521" 
d="M-35 21l244 337h-171l25 165h491l-3 -21l-257 -339h187l-25 -163h-494zM296 743h219l-127 -175h-163z" />
    <glyph glyph-name="Zdotaccent" unicode="&#x17b;" horiz-adv-x="628" 
d="M-33 27l333 495h-217l31 193h585l-5 -27l-332 -492h228l-31 -196h-596zM407 742q-51 0 -83.5 29.5t-32.5 76.5t33 77t83 30t83.5 -30t33.5 -77t-33.5 -76.5t-83.5 -29.5z" />
    <glyph glyph-name="zdotaccent" unicode="&#x17c;" horiz-adv-x="521" 
d="M-35 21l244 337h-171l25 165h491l-3 -21l-257 -339h187l-25 -163h-494zM310 551q-51 0 -83.5 29.5t-32.5 76.5t33 77t83 30t83.5 -30t33.5 -77t-33.5 -76.5t-83.5 -29.5z" />
    <glyph glyph-name="Zcaron" unicode="&#x17d;" horiz-adv-x="628" 
d="M-33 27l333 495h-217l31 193h585l-5 -27l-332 -492h228l-31 -196h-596zM494 753h-189l-93 155h159l40 -44l50 44h168z" />
    <glyph glyph-name="zcaron" unicode="&#x17e;" horiz-adv-x="521" 
d="M-35 21l244 337h-171l25 165h491l-3 -21l-257 -339h187l-25 -163h-494zM382 571h-155l-102 172h152l42 -46l54 46h161z" />
    <glyph glyph-name="florin" unicode="&#x192;" horiz-adv-x="473" 
d="M52 415h82l21 110q10 56 35.5 94.5t61 62t78.5 33.5t90 10q36 0 56 -2.5t40 -8.5l-27 -167q-10 3 -19.5 4t-26.5 1q-24 0 -43.5 -12t-24.5 -39l-16 -86h108l-23 -149h-113l-83 -448h-226l84 448h-77z" />
    <glyph glyph-name="Aringacute" unicode="&#x1fa;" horiz-adv-x="784" 
d="M454 95h-202l-39 -95h-254l333 715h343l106 -715h-278zM325 273h113l-20 228zM465 812q19 0 31 13t12 34t-12 34t-31 13q-20 0 -31.5 -13t-11.5 -34t11.5 -34t31.5 -13zM465 737q-26 0 -49 9.5t-40 26t-27 39t-10 47.5t10 47.5t27 39t40 26t49 9.5t49 -9.5t40 -26t27 -39
t10 -47.5t-10 -47.5t-27 -39t-40 -26t-49 -9.5zM454 1150h229l-118 -155h-173z" />
    <glyph glyph-name="aringacute" unicode="&#x1fb;" horiz-adv-x="595" 
d="M263 134q25 0 41.5 14.5t19.5 34.5l4 19h-40q-37 0 -50.5 -9t-13.5 -27q0 -14 10 -23t29 -9zM318 0q-3 14 -3.5 32t-0.5 33q-9 -14 -22.5 -28.5t-32 -25.5t-43 -18t-56.5 -7q-33 0 -63 9.5t-52.5 27.5t-35.5 45t-13 62q0 52 18.5 88t54.5 57.5t89.5 31t123.5 9.5h64l1 7
q4 25 -2.5 43t-38.5 18q-14 0 -23 -4.5t-14.5 -11.5t-8.5 -14.5t-4 -14.5h-212q20 97 87 148.5t186 51.5q290 0 251 -246l-20 -127q-8 -51 -10.5 -92t2.5 -74h-222zM353 641q19 0 30.5 13t11.5 33t-11.5 33t-30.5 13t-30.5 -13t-11.5 -33t11.5 -33t30.5 -13zM353 567
q-26 0 -48.5 9.5t-39 26t-26.5 38t-10 46.5t10 46.5t26.5 38t39 26t48.5 9.5q25 0 48 -9.5t39.5 -26t26.5 -38t10 -46.5t-10 -46.5t-26.5 -38t-39.5 -26t-48 -9.5zM343 985h229l-118 -155h-173z" />
    <glyph glyph-name="AEacute" unicode="&#x1fc;" horiz-adv-x="1029" 
d="M438 115h-162l-61 -115h-256l405 715h693l-32 -203h-260l-10 -61h203l-28 -182h-203l-11 -66h275l-32 -203h-539zM368 288h97l36 224h-14zM660 908h229l-118 -155h-173z" />
    <glyph glyph-name="aeacute" unicode="&#x1fd;" horiz-adv-x="922" 
d="M315 539q59 0 98.5 -12.5t64.5 -37.5q35 24 76 37t86 13q68 0 121 -20.5t87.5 -59.5t48 -95.5t2.5 -128.5l-3 -20h-352q0 -15 4 -29.5t12.5 -26t22.5 -18.5t35 -7q32 0 46.5 15t20.5 35h213q-17 -96 -92 -147t-193 -51q-75 0 -131.5 20t-90.5 67q-10 -16 -25.5 -31.5
t-38.5 -28t-55 -20t-76 -7.5q-43 0 -79.5 9.5t-63.5 28.5t-42 47t-15 64q0 51 19 85.5t55.5 56.5t89.5 31.5t122 9.5h64l1 7q1 12 1 22.5t-4.5 18.5t-14 13t-25.5 5q-28 0 -39.5 -15.5t-14.5 -29.5h-212q18 100 91.5 150t185.5 50zM635 398q-25 0 -46 -17.5t-33 -59.5h139
q2 32 -11.5 54.5t-48.5 22.5zM263 134q25 0 41.5 14.5t20.5 37.5l4 25h-40q-37 0 -51 -11.5t-14 -31.5q0 -34 39 -34zM482 743h219l-127 -175h-163z" />
    <glyph glyph-name="Oslashacute" unicode="&#x1fe;" horiz-adv-x="823" 
d="M32 18l74 75q-35 38 -54.5 88t-19.5 115q0 97 30.5 176t86 135.5t133 87.5t171.5 31q63 0 121.5 -13.5t106.5 -42.5l72 72l51 -52l-65 -65q38 -38 59.5 -91t21.5 -122q0 -96 -30.5 -174.5t-86.5 -134.5t-136.5 -86.5t-179.5 -30.5q-63 0 -120 15t-104 45l-80 -80z
M552 403q0 8 -0.5 16t-1.5 15l-218 -219q27 -24 76 -24q38 0 65.5 18.5t45 48.5t25.5 68t8 77zM300 306v-9t1 -9l213 213q-26 19 -69 21q-37 1 -64 -17t-45 -48t-27 -69.5t-9 -81.5zM424 908h229l-118 -155h-173z" />
    <glyph glyph-name="oslashacute" unicode="&#x1ff;" horiz-adv-x="629" 
d="M14 4l63 64q-28 29 -44 68.5t-16 93.5q0 67 22.5 124t63.5 98t99 64t129 23q44 0 87 -10t80 -31l67 69l46 -44l-62 -63q29 -30 47 -72t18 -98q0 -69 -23 -125t-64.5 -95.5t-99 -61.5t-127.5 -22q-47 0 -91.5 10t-82.5 33l-67 -69zM304 147q23 0 40 12t28.5 33t17 49.5
t5.5 60.5l-138 -140q8 -7 19 -11t28 -4zM330 376q-48 0 -71.5 -41t-23.5 -106l133 136q-16 11 -38 11zM321 743h219l-127 -175h-163z" />
    <glyph glyph-name="Scommaaccent" unicode="&#x218;" horiz-adv-x="657" 
d="M317 -14q-75 0 -134.5 15t-101 46t-63 77t-20.5 108h249q1 -26 16.5 -43.5t58.5 -17.5q56 0 56 38q0 15 -17.5 24t-56.5 16q-70 12 -118 30.5t-77.5 45t-42.5 62t-13 81.5q0 55 20.5 102.5t60 82t97.5 54t133 19.5q69 0 123.5 -13.5t92.5 -42.5t57.5 -74t18.5 -107h-243
q-3 52 -55 52q-49 0 -49 -34q0 -17 16.5 -25.5t57.5 -15.5q123 -20 189.5 -68.5t66.5 -146.5q0 -59 -20.5 -107.5t-61 -83t-100.5 -54t-140 -20.5zM153 -209l41 173h197l-114 -200z" />
    <glyph glyph-name="scommaaccent" unicode="&#x219;" horiz-adv-x="530" 
d="M237 -15q-54 0 -100 10t-80 32.5t-53 58t-19 86.5h211q2 -22 11.5 -33.5t35.5 -11.5q17 0 27.5 6.5t10.5 20.5q0 13 -15 20.5t-66 15.5q-45 7 -78 19t-55.5 30t-33.5 44t-11 61q0 49 19 86t53.5 61.5t82 36.5t104.5 12q53 0 97 -10t75.5 -31.5t49.5 -56t21 -82.5h-206
q-2 17 -11 30t-31 13q-20 0 -29.5 -7.5t-9.5 -19.5q0 -16 16.5 -22t49.5 -12q55 -10 93.5 -22.5t63 -31.5t35.5 -45.5t11 -64.5q0 -51 -20.5 -87.5t-56.5 -60t-85.5 -34.5t-106.5 -11zM87 -209l41 173h197l-114 -200z" />
    <glyph glyph-name="uni021A" unicode="&#x21a;" horiz-adv-x="648" 
d="M228 511h-173l33 204h614l-33 -204h-173l-80 -511h-268zM147 -209l41 173h197l-114 -200z" />
    <glyph glyph-name="uni021B" unicode="&#x21b;" horiz-adv-x="407" 
d="M235 -14q-50 0 -88 11t-62 37t-32.5 68t1.5 104l27 168h-57l23 149h57l17 104h229l-17 -104h93l-23 -149h-93l-25 -158q-5 -29 5.5 -40t33.5 -11q9 0 20.5 1.5t24.5 6.5l-27 -170q-18 -7 -45 -12t-62 -5zM48 -209l41 173h197l-114 -200z" />
    <glyph glyph-name="uni0237" unicode="&#x237;" horiz-adv-x="316" 
d="M-59 -20q27 2 43.5 12t20.5 36l78 495h228l-82 -518q-6 -39 -23 -75t-52.5 -62t-92.5 -39t-144 -8z" />
    <glyph glyph-name="circumflex" unicode="&#x2c6;" horiz-adv-x="400" 
d="M195 743h155l102 -172h-152l-42 46l-54 -46h-161z" />
    <glyph glyph-name="caron" unicode="&#x2c7;" horiz-adv-x="400" 
d="M327 571h-155l-102 172h152l42 -46l54 46h161z" />
    <glyph glyph-name="breve" unicode="&#x2d8;" horiz-adv-x="400" 
d="M264 570q-85 0 -131 44.5t-43 127.5h133q2 -40 43 -40q20 0 32.5 10.5t14.5 29.5h135q-12 -86 -59.5 -129t-124.5 -43z" />
    <glyph glyph-name="dotaccent" unicode="&#x2d9;" horiz-adv-x="400" 
d="M262 551q-51 0 -83.5 29.5t-32.5 76.5t33 77t83 30t83.5 -30t33.5 -77t-33.5 -76.5t-83.5 -29.5z" />
    <glyph glyph-name="ring" unicode="&#x2da;" horiz-adv-x="400" 
d="M266 641q19 0 30.5 13t11.5 33t-11.5 33t-30.5 13t-30.5 -13t-11.5 -33t11.5 -33t30.5 -13zM266 567q-26 0 -48.5 9.5t-39 26t-26.5 38t-10 46.5t10 46.5t26.5 38t39 26t48.5 9.5q25 0 48 -9.5t39.5 -26t26.5 -38t10 -46.5t-10 -46.5t-26.5 -38t-39.5 -26t-48 -9.5z" />
    <glyph glyph-name="ogonek" unicode="&#x2db;" horiz-adv-x="400" 
d="M131 -182q-23 0 -44.5 3.5t-38 12.5t-27 24t-10.5 38q0 21 9.5 38t24 30t32.5 22t35 14h115q-11 -9 -24 -24t-13 -31q0 -20 25 -20q8 0 18 2l-15 -93q-14 -6 -35 -11t-52 -5z" />
    <glyph glyph-name="tilde" unicode="&#x2dc;" horiz-adv-x="400" 
d="M323 570q-24 0 -41 4.5t-31 10t-25 10t-23 4.5q-11 0 -18.5 -7.5t-10.5 -18.5h-116q14 92 51 134t88 42q22 0 39.5 -4.5t31.5 -10t27 -10t26 -4.5t19 7t10 19h116q-7 -46 -21 -79t-33 -54.5t-42 -32t-47 -10.5z" />
    <glyph glyph-name="hungarumlaut" unicode="&#x2dd;" horiz-adv-x="400" 
d="M148 743h163l-101 -175h-130zM337 743h163l-101 -175h-130z" />
    <glyph glyph-name="Wgrave" unicode="&#x1e80;" horiz-adv-x="1027" 
d="M72 715h270l3 -393l130 393h224l20 -398l134 398h243l-279 -715h-258l-24 378l-141 -378h-269zM421 908h227l30 -155h-168z" />
    <glyph glyph-name="wgrave" unicode="&#x1e81;" horiz-adv-x="863" 
d="M39 523h231l16 -257l100 257h182l18 -257l100 257h219l-247 -523h-212l-21 240l-96 -240h-218zM298 743h217l36 -175h-158z" />
    <glyph glyph-name="Wacute" unicode="&#x1e82;" horiz-adv-x="1027" 
d="M72 715h270l3 -393l130 393h224l20 -398l134 398h243l-279 -715h-258l-24 378l-141 -378h-269zM560 908h229l-118 -155h-173z" />
    <glyph glyph-name="wacute" unicode="&#x1e83;" horiz-adv-x="863" 
d="M39 523h231l16 -257l100 257h182l18 -257l100 257h219l-247 -523h-212l-21 240l-96 -240h-218zM472 743h219l-127 -175h-163z" />
    <glyph glyph-name="Wdieresis" unicode="&#x1e84;" horiz-adv-x="1027" 
d="M72 715h270l3 -393l130 393h224l20 -398l134 398h243l-279 -715h-258l-24 378l-141 -378h-269zM478 742q-21 0 -40 7.5t-32.5 21t-21.5 31.5t-8 39t8 39t21.5 31.5t32.5 21t40 7.5t40 -7.5t33 -21t22 -31.5t8 -39t-8 -39t-22 -31.5t-33 -21t-40 -7.5zM711 742
q-21 0 -39.5 7.5t-32 21t-21.5 31.5t-8 39t8 39t21.5 31.5t32 21t39.5 7.5q44 0 73.5 -28.5t29.5 -70.5t-29.5 -70.5t-73.5 -28.5z" />
    <glyph glyph-name="wdieresis" unicode="&#x1e85;" horiz-adv-x="863" 
d="M39 523h231l16 -257l100 257h182l18 -257l100 257h219l-247 -523h-212l-21 240l-96 -240h-218zM369 552q-21 0 -40 7.5t-32.5 21t-21.5 31.5t-8 39t8 39t21.5 31.5t32.5 21t40 7.5t40 -7.5t33 -21t22 -31.5t8 -39t-8 -39t-22 -31.5t-33 -21t-40 -7.5zM594 552
q-21 0 -39.5 7.5t-32 21t-21.5 31.5t-8 39t8 39t21.5 31.5t32 21t39.5 7.5q44 0 73.5 -28.5t29.5 -70.5t-29.5 -70.5t-73.5 -28.5z" />
    <glyph glyph-name="Ygrave" unicode="&#x1ef2;" horiz-adv-x="722" 
d="M234 304l-164 411h276l59 -190l118 190h265l-287 -424l-46 -291h-268zM265 908h227l30 -155h-168z" />
    <glyph glyph-name="ygrave" unicode="&#x1ef3;" horiz-adv-x="614" 
d="M168 59l-129 464h238l43 -232l110 232h225l-382 -695h-226zM185 743h217l36 -175h-158z" />
    <glyph glyph-name="endash" unicode="&#x2013;" horiz-adv-x="548" 
d="M61 362h456l-20 -123h-456z" />
    <glyph glyph-name="emdash" unicode="&#x2014;" horiz-adv-x="978" 
d="M61 362h886l-20 -123h-886z" />
    <glyph glyph-name="quoteleft" unicode="&#x2018;" horiz-adv-x="326" 
d="M53 459l171 270l123 -45l-100 -287z" />
    <glyph glyph-name="quoteright" unicode="&#x2019;" horiz-adv-x="325" 
d="M362 667l-170 -270l-123 45l99 287z" />
    <glyph glyph-name="quotesinglbase" unicode="&#x201a;" horiz-adv-x="325" 
d="M276 168l-170 -270l-123 45l99 287z" />
    <glyph glyph-name="quotedblleft" unicode="&#x201c;" horiz-adv-x="578" 
d="M53 459l171 270l123 -45l-100 -287zM306 459l170 270l123 -45l-99 -287z" />
    <glyph glyph-name="quotedblright" unicode="&#x201d;" horiz-adv-x="578" 
d="M615 667l-171 -270l-123 45l100 287zM362 667l-170 -270l-123 45l99 287z" />
    <glyph glyph-name="quotedblbase" unicode="&#x201e;" horiz-adv-x="578" 
d="M529 168l-171 -270l-123 45l100 287zM276 168l-170 -270l-123 45l99 287z" />
    <glyph glyph-name="dagger" unicode="&#x2020;" horiz-adv-x="421" 
d="M148 448h-102l25 156h102l18 111h181l-18 -111h102l-25 -156h-102l-37 -235h-181z" />
    <glyph glyph-name="daggerdbl" unicode="&#x2021;" horiz-adv-x="421" 
d="M155 491h-102l22 139h102l14 85h181l-14 -85h102l-22 -139h-102l-8 -54h102l-22 -139h-102l-14 -85h-181l14 85h-102l22 139h102z" />
    <glyph glyph-name="bullet" unicode="&#x2022;" horiz-adv-x="392" 
d="M195 139q-35 0 -63.5 12.5t-49 33.5t-32 48t-11.5 56q0 39 13 71t36 55t53 35.5t65 12.5t64 -12.5t49.5 -33.5t32 -49t11.5 -59q0 -38 -13 -69t-35.5 -53.5t-53.5 -35t-66 -12.5z" />
    <glyph glyph-name="ellipsis" unicode="&#x2026;" horiz-adv-x="938" 
d="M126 -14q-27 0 -49 9.5t-38.5 25.5t-25.5 38t-9 47t9 46.5t25 38t38 26t49 9.5t50.5 -9.5t40.5 -26t26.5 -38t9.5 -46.5t-9.5 -47t-26 -38t-40 -25.5t-50.5 -9.5zM441 -14q-27 0 -49 9.5t-38.5 25.5t-25.5 38t-9 47t9 46.5t25 38t38 26t49 9.5t50.5 -9.5t40.5 -26
t26.5 -38t9.5 -46.5t-9.5 -47t-26 -38t-40 -25.5t-50.5 -9.5zM756 -14q-27 0 -49 9.5t-38.5 25.5t-25.5 38t-9 47t9 46.5t25 38t38 26t49 9.5t50.5 -9.5t40.5 -26t26.5 -38t9.5 -46.5t-9.5 -47t-26 -38t-40 -25.5t-50.5 -9.5z" />
    <glyph glyph-name="perthousand" unicode="&#x2030;" horiz-adv-x="1271" 
d="M212 524q0 -18 8.5 -32t30.5 -13q13 0 22 8t14.5 20t8 26t2.5 27q0 18 -9 30.5t-28 12.5q-26 0 -37.5 -24t-11.5 -55zM245 354q-38 0 -73 10t-62 30t-43 50.5t-16 71.5q0 44 15.5 82t43.5 66t67.5 44t88.5 16q37 0 71.5 -10t61.5 -30.5t43 -51t16 -70.5q0 -42 -15.5 -80
t-43 -66.5t-67 -45t-87.5 -16.5zM687 715h109l-592 -715h-109zM590 156q0 -18 8.5 -32t30.5 -13q13 0 22 8t14.5 20t8 26t2.5 27q0 18 -9 30.5t-28 12.5q-26 0 -37.5 -24t-11.5 -55zM623 -14q-38 0 -73 10t-62 30t-43 50.5t-16 71.5q0 43 15.5 80.5t43.5 66t67.5 45
t88.5 16.5q37 0 71.5 -10t61.5 -30.5t43 -51t16 -70.5q0 -42 -15.5 -80t-43 -66.5t-67 -45t-87.5 -16.5zM1012 156q0 -18 8.5 -32t30.5 -13q13 0 22 8t14.5 20t8 26t2.5 27q0 18 -9 30.5t-28 12.5q-26 0 -37.5 -24t-11.5 -55zM1045 -14q-38 0 -73 10t-62 30t-43 50.5
t-16 71.5q0 43 15.5 80.5t43.5 66t67.5 45t88.5 16.5q37 0 71.5 -10t61.5 -30.5t43 -51t16 -70.5q0 -42 -15.5 -80t-43 -66.5t-67 -45t-87.5 -16.5z" />
    <glyph glyph-name="uni2032" unicode="&#x2032;" horiz-adv-x="269" 
d="M118 715h209l-112 -291h-161z" />
    <glyph glyph-name="uni2033" unicode="&#x2033;" horiz-adv-x="507" 
d="M118 715h209l-112 -291h-161zM356 715h209l-112 -291h-161z" />
    <glyph glyph-name="guilsinglleft" unicode="&#x2039;" horiz-adv-x="299" 
d="M15 269l149 190h146l-146 -191l80 -205h-136z" />
    <glyph glyph-name="guilsinglright" unicode="&#x203a;" horiz-adv-x="299" 
d="M280 253l-149 -190h-146l146 191l-80 205h136z" />
    <glyph glyph-name="fraction" unicode="&#x2044;" horiz-adv-x="196" 
d="M364 715h109l-618 -715h-109z" />
    <glyph glyph-name="Euro" unicode="&#x20ac;" horiz-adv-x="743" 
d="M47 452h55q34 132 124.5 203t225.5 71q69 0 124.5 -16.5t95 -51t60.5 -86.5t20 -124h-246q0 37 -11.5 58t-50.5 21q-32 0 -52 -20t-32 -55h113l-25 -78h-105l-6 -38h99l-26 -78h-78q3 -31 18.5 -50t50.5 -19q37 0 57 22t32 69h243q-54 -294 -345 -294q-144 0 -224.5 71.5
t-85.5 200.5h-61l12 78h52l6 38h-52z" />
    <glyph glyph-name="trademark" unicode="&#x2122;" horiz-adv-x="783" 
d="M412 715h149l23 -123l66 123h162l-51 -321h-135l23 148l-79 -148h-41l-31 148l-23 -148h-114zM156 610h-76l17 105h285l-17 -105h-76l-34 -216h-133z" />
    <glyph glyph-name="onethird" unicode="&#x2153;" horiz-adv-x="869" 
d="M149 553l-89 -42l21 134l119 70h142l-63 -393h-167zM667 715h109l-618 -715h-109zM641 -7q-84 0 -134 34t-51 111h146q0 -32 31 -32q9 0 18 5.5t9 20.5q0 10 -8.5 15.5t-28.5 5.5h-30l14 88h37q36 0 36 26q0 9 -5.5 15t-19.5 6q-11 0 -20.5 -6.5t-13.5 -23.5h-144
q10 68 59 105t135 37q28 0 57.5 -5t53.5 -17t39 -33t15 -53q0 -38 -22.5 -61t-58.5 -33q31 -7 49.5 -25t18.5 -53q0 -34 -14.5 -58t-39.5 -39.5t-58 -22.5t-70 -7z" />
    <glyph glyph-name="twothirds" unicode="&#x2154;" horiz-adv-x="936" 
d="M19 342l149 133q13 11 28.5 25t29.5 28.5t23.5 27.5t9.5 23q0 22 -19 22q-12 0 -21.5 -10.5t-14.5 -35.5h-152q12 86 66 126t135 40q35 0 66 -6t54.5 -20.5t37 -38t13.5 -57.5q0 -42 -29 -77.5t-77 -73.5l-11 -9h93l-19 -117h-366zM759 715h109l-618 -715h-109zM708 -7
q-84 0 -134 34t-51 111h146q0 -32 31 -32q9 0 18 5.5t9 20.5q0 10 -8.5 15.5t-28.5 5.5h-30l14 88h37q36 0 36 26q0 9 -5.5 15t-19.5 6q-11 0 -20.5 -6.5t-13.5 -23.5h-144q10 68 59 105t135 37q28 0 57.5 -5t53.5 -17t39 -33t15 -53q0 -38 -22.5 -61t-58.5 -33
q31 -7 49.5 -25t18.5 -53q0 -34 -14.5 -58t-39.5 -39.5t-58 -22.5t-70 -7z" />
    <glyph glyph-name="oneeighth" unicode="&#x215b;" horiz-adv-x="870" 
d="M149 553l-89 -42l21 134l119 70h142l-63 -393h-167zM671 715h109l-618 -715h-109zM642 -7q-35 0 -70 5.5t-63 18t-45.5 34.5t-17.5 55q0 46 23 69t63 36q-20 11 -33 27.5t-13 40.5q0 34 15.5 57t40.5 37t56.5 20.5t63.5 6.5q34 0 65.5 -6t56 -19t39 -34t14.5 -50
q0 -36 -15 -59.5t-50 -33.5q30 -11 44.5 -32t14.5 -45q0 -38 -17 -62.5t-44.5 -39t-61 -20.5t-66.5 -6zM640 101q14 0 23.5 8t9.5 23q0 11 -7.5 19t-21.5 8t-23.5 -8t-9.5 -24q0 -11 7.5 -18.5t21.5 -7.5zM657 240q13 0 22 8t9 22q0 12 -8 19t-20 7q-11 0 -20.5 -7.5
t-9.5 -22.5q0 -11 7 -18.5t20 -7.5z" />
    <glyph glyph-name="threeeighths" unicode="&#x215c;" horiz-adv-x="938" 
d="M234 314q-84 0 -134 34t-51 111h146q0 -32 31 -32q9 0 18 5.5t9 20.5q0 10 -8.5 15.5t-28.5 5.5h-30l14 88h37q36 0 36 26q0 9 -5.5 15t-19.5 6q-11 0 -20.5 -6.5t-13.5 -23.5h-144q10 68 59 105t135 37q28 0 57.5 -5t53.5 -17t39 -33t15 -53q0 -38 -22.5 -61t-58.5 -33
q31 -7 49.5 -25t18.5 -53q0 -34 -14.5 -58t-39.5 -39.5t-58 -22.5t-70 -7zM741 715h109l-618 -715h-109zM709 -7q-35 0 -70 5.5t-63 18t-45.5 34.5t-17.5 55q0 46 23 69t63 36q-20 11 -33 27.5t-13 40.5q0 34 15.5 57t40.5 37t56.5 20.5t63.5 6.5q34 0 65.5 -6t56 -19
t39 -34t14.5 -50q0 -36 -15 -59.5t-50 -33.5q30 -11 44.5 -32t14.5 -45q0 -38 -17 -62.5t-44.5 -39t-61 -20.5t-66.5 -6zM707 101q14 0 23.5 8t9.5 23q0 11 -7.5 19t-21.5 8t-23.5 -8t-9.5 -24q0 -11 7.5 -18.5t21.5 -7.5zM724 240q13 0 22 8t9 22q0 12 -8 19t-20 7
q-11 0 -20.5 -7.5t-9.5 -22.5q0 -11 7 -18.5t20 -7.5z" />
    <glyph glyph-name="fiveeighths" unicode="&#x215d;" horiz-adv-x="912" 
d="M230 314q-34 0 -67 7t-58.5 23t-42 42.5t-17.5 64.5h155q1 -7 6 -12.5t19 -5.5q10 0 18.5 7t8.5 23q0 25 -26 25q-11 0 -18 -6t-11 -15h-135l54 248h314l-18 -114h-202l-16 -73q14 20 39.5 38t72.5 18q49 0 79.5 -25.5t30.5 -79.5q0 -43 -13.5 -74t-38.5 -51.5t-59 -30
t-75 -9.5zM721 715h109l-618 -715h-109zM683 -7q-35 0 -70 5.5t-63 18t-45.5 34.5t-17.5 55q0 46 23 69t63 36q-20 11 -33 27.5t-13 40.5q0 34 15.5 57t40.5 37t56.5 20.5t63.5 6.5q34 0 65.5 -6t56 -19t39 -34t14.5 -50q0 -36 -15 -59.5t-50 -33.5q30 -11 44.5 -32
t14.5 -45q0 -38 -17 -62.5t-44.5 -39t-61 -20.5t-66.5 -6zM681 101q14 0 23.5 8t9.5 23q0 11 -7.5 19t-21.5 8t-23.5 -8t-9.5 -24q0 -11 7.5 -18.5t21.5 -7.5zM698 240q13 0 22 8t9 22q0 12 -8 19t-20 7q-11 0 -20.5 -7.5t-9.5 -22.5q0 -11 7 -18.5t20 -7.5z" />
    <glyph glyph-name="seveneighths" unicode="&#x215e;" horiz-adv-x="866" 
d="M213 586h-140l21 129h352l-3 -18l-203 -375h-169zM664 715h109l-618 -715h-109zM636 -7q-35 0 -70 5.5t-63 18t-45.5 34.5t-17.5 55q0 46 23 69t63 36q-20 11 -33 27.5t-13 40.5q0 34 15.5 57t40.5 37t56.5 20.5t63.5 6.5q34 0 65.5 -6t56 -19t39 -34t14.5 -50
q0 -36 -15 -59.5t-50 -33.5q30 -11 44.5 -32t14.5 -45q0 -38 -17 -62.5t-44.5 -39t-61 -20.5t-66.5 -6zM634 101q14 0 23.5 8t9.5 23q0 11 -7.5 19t-21.5 8t-23.5 -8t-9.5 -24q0 -11 7.5 -18.5t21.5 -7.5zM651 240q13 0 22 8t9 22q0 12 -8 19t-20 7q-11 0 -20.5 -7.5
t-9.5 -22.5q0 -11 7 -18.5t20 -7.5z" />
    <glyph glyph-name="minus" unicode="&#x2212;" 
d="M63 425h524l-27 -172h-524z" />
    <glyph glyph-name="approxequal" unicode="&#x2248;" horiz-adv-x="620" 
d="M14 98q7 58 24 97.5t40 64t51.5 35.5t58.5 11q31 0 63.5 -6t62 -13t55 -13t43.5 -6q38 0 49 43h124q-5 -53 -21.5 -92t-39.5 -65t-52 -38.5t-60 -12.5q-32 0 -64 6t-62 13t-55.5 13t-43.5 6q-20 0 -32 -11.5t-17 -31.5h-124zM53 341q7 58 24 97.5t40 64t51.5 35.5
t58.5 11q31 0 63.5 -6t62 -13t55 -13t43.5 -6q38 0 49 43h124q-5 -53 -21.5 -92t-39.5 -65t-52 -38.5t-60 -12.5q-32 0 -64 6t-62 13t-55.5 13t-43.5 6q-20 0 -32 -11.5t-17 -31.5h-124z" />
    <glyph glyph-name="notequal" unicode="&#x2260;" horiz-adv-x="594" 
d="M75 505h253l47 93h136l-47 -93h129l-23 -148h-181l-29 -57h201l-23 -148h-253l-47 -93h-136l47 93h-129l23 148h181l29 57h-201z" />
    <glyph glyph-name="lessequal" unicode="&#x2264;" horiz-adv-x="517" 
d="M55 397l7 41l478 230l-32 -205l-126 -53l109 -57l-32 -198zM16 142h441l-22 -142h-441z" />
    <glyph glyph-name="greaterequal" unicode="&#x2265;" horiz-adv-x="517" 
d="M507 426l-7 -41l-478 -230l32 205l126 53l-109 57l32 198zM20 142h441l-22 -142h-441z" />
    <glyph glyph-name="uni24C5" unicode="&#x24c5;" horiz-adv-x="842" 
d="M279 563h175q48 0 81.5 -10.5t54.5 -29.5t30 -45.5t9 -59.5v-2q0 -65 -40.5 -101t-125.5 -36h-33v-123h-151v407zM444 379q43 0 43 37v2q0 33 -42 33h-15v-72h14zM433 30q67 0 126.5 23.5t103 67t69 104t25.5 134.5q0 73 -24.5 133t-68 103t-102.5 66.5t-127 23.5
q-69 0 -128.5 -24t-103 -67t-68 -103.5t-24.5 -133.5q0 -74 25.5 -134.5t69 -103t102 -66t125.5 -23.5zM433 -25q-81 0 -152.5 29t-125 80.5t-84 121.5t-30.5 151q0 80 30.5 150t84 121.5t125 81.5t154.5 30q84 0 155.5 -29.5t124 -81t82.5 -121t30 -149.5q0 -82 -30.5 -152
t-84 -121.5t-125.5 -81t-154 -29.5z" />
    <glyph glyph-name="f_i" unicode="&#xfb01;" horiz-adv-x="715" 
d="M108 523l8 48q9 51 31 86.5t54.5 58t73.5 32.5t86 10q40 0 62.5 -4t42.5 -11l-26 -164q-10 3 -19 5t-25 2q-26 0 -39 -11t-17 -30l-4 -22h95l-23 -149h-95l-59 -374h-228l59 374h-61l23 149h61zM615 544q-52 0 -84.5 31t-32.5 79t33 79t85 31q51 0 84.5 -31t33.5 -79
t-34 -79t-85 -31zM483 523h228l-82 -523h-228z" />
    <glyph glyph-name="f_l" unicode="&#xfb02;" horiz-adv-x="712" 
d="M108 523l8 48q9 51 31 86.5t54.5 58t73.5 32.5t86 10q40 0 62.5 -4t42.5 -11l-26 -164q-10 3 -19 5t-25 2q-26 0 -39 -11t-17 -30l-4 -22h95l-23 -149h-95l-59 -374h-228l59 374h-61l23 149h61zM517 743h227l-117 -743h-227z" />
    <glyph glyph-name="space_uni0326" horiz-adv-x="400" 
d="M26 -209l41 173h197l-114 -200z" />
    <glyph glyph-name="caron.alt" horiz-adv-x="400" 
d="M216 743h153l-77 -174h-110z" />
    <glyph glyph-name="space_uni0326.alt" horiz-adv-x="400" 
d="M388 735l-41 -173h-197l114 200z" />
    <glyph glyph-name="grave.uc" horiz-adv-x="400" 
d="M119 908h227l30 -155h-168z" />
    <glyph glyph-name="dieresis.uc" horiz-adv-x="400" 
d="M174 742q-21 0 -40 7.5t-32.5 21t-21.5 31.5t-8 39t8 39t21.5 31.5t32.5 21t40 7.5t40 -7.5t33 -21t22 -31.5t8 -39t-8 -39t-22 -31.5t-33 -21t-40 -7.5zM407 742q-21 0 -39.5 7.5t-32 21t-21.5 31.5t-8 39t8 39t21.5 31.5t32 21t39.5 7.5q44 0 73.5 -28.5t29.5 -70.5
t-29.5 -70.5t-73.5 -28.5z" />
    <glyph glyph-name="macron.uc" horiz-adv-x="400" 
d="M123 893h351l-20 -129h-351z" />
    <glyph glyph-name="acute.uc" horiz-adv-x="400" 
d="M242 908h229l-118 -155h-173z" />
    <glyph glyph-name="circumflex.uc" horiz-adv-x="400" 
d="M203 908h189l93 -155h-159l-40 44l-50 -44h-168z" />
    <glyph glyph-name="caron.uc" horiz-adv-x="400" 
d="M370 753h-189l-93 155h159l40 -44l50 44h168z" />
    <glyph glyph-name="breve.uc" horiz-adv-x="400" 
d="M292 744q-90 0 -133.5 44t-44.5 120h140q1 -16 10.5 -26t29.5 -10q17 0 28 9t14 27h142q-14 -81 -62.5 -122.5t-123.5 -41.5z" />
    <glyph glyph-name="dotaccent.uc" horiz-adv-x="400" 
d="M292 742q-51 0 -83.5 29.5t-32.5 76.5t33 77t83 30t83.5 -30t33.5 -77t-33.5 -76.5t-83.5 -29.5z" />
    <glyph glyph-name="ring.uc" horiz-adv-x="400" 
d="M294 812q19 0 31 13t12 34t-12 34t-31 13q-20 0 -31.5 -13t-11.5 -34t11.5 -34t31.5 -13zM294 737q-26 0 -49 9.5t-40 26t-27 39t-10 47.5t10 47.5t27 39t40 26t49 9.5t49 -9.5t40 -26t27 -39t10 -47.5t-10 -47.5t-27 -39t-40 -26t-49 -9.5z" />
    <glyph glyph-name="tilde.uc" horiz-adv-x="400" 
d="M352 750q-24 0 -41.5 4.5t-32 10t-26 10t-23.5 4.5q-11 0 -19.5 -7.5t-10.5 -18.5h-123q14 91 56 131.5t93 40.5q22 0 39.5 -4.5t32.5 -10t28 -10t26 -4.5q23 0 31 26h123q-8 -46 -23.5 -78.5t-36.5 -53.5t-45 -30.5t-48 -9.5z" />
    <glyph glyph-name="hungarumlaut.uc" horiz-adv-x="400" 
d="M147 908h183l-93 -155h-150zM362 908h183l-93 -155h-150z" />
    <glyph glyph-name="idotaccent" horiz-adv-x="316" 
d="M216 544q-52 0 -84.5 31t-32.5 79t33 79t85 31q51 0 84.5 -31t33.5 -79t-34 -79t-85 -31zM84 523h228l-82 -523h-228z" />
    <glyph glyph-name="registered.alt" horiz-adv-x="842" 
d="M260 564h178q92 0 135 -35.5t43 -101.5v-2q0 -41 -16.5 -66t-42.5 -40l83 -162h-155l-63 129h-12v-129h-150v407zM428 381q42 0 42 36v3q0 31 -41 31h-19v-70h18zM433 30q67 0 126.5 23.5t103 67t69 104t25.5 134.5q0 73 -24.5 133t-68 103t-102.5 66.5t-127 23.5
q-69 0 -128.5 -24t-103 -67t-68 -103.5t-24.5 -133.5q0 -74 25.5 -134.5t69 -103t102 -66t125.5 -23.5zM433 -25q-81 0 -152.5 29t-125 80.5t-84 121.5t-30.5 151q0 80 30.5 150t84 121.5t125 81.5t154.5 30q84 0 155.5 -29.5t124 -81t82.5 -121t30 -149.5q0 -82 -30.5 -152
t-84 -121.5t-125.5 -81t-154 -29.5z" />
    <glyph glyph-name="dollar.old" horiz-adv-x="638" 
d="M237 -8q-44 6 -85 20.5t-73 41.5t-52.5 68.5t-22.5 100.5h221q0 -26 10.5 -42t28.5 -24l15 95q-62 12 -105 29.5t-70 42.5t-39.5 58t-12.5 77q0 59 24 104.5t64.5 76.5t95 47t114.5 17l14 85h85l-14 -89q45 -5 84.5 -19t69.5 -39.5t48.5 -65t21.5 -94.5h-216
q0 20 -9.5 32t-25.5 19l-15 -95q54 -10 97 -25t73 -38.5t46 -57.5t16 -81q0 -63 -23.5 -109.5t-64 -77.5t-96 -46t-119.5 -16l-18 -118h-86zM403 196q0 14 -9.5 22.5t-32.5 15.5l-13 -85q55 6 55 47zM271 497q0 -17 9 -27t31 -16l13 86q-20 -2 -36.5 -11.5t-16.5 -31.5z" />
    <glyph glyph-name="Euro.old" horiz-adv-x="721" 
d="M46 438h52q33 128 121 197t219 69q67 0 121 -16t92.5 -49t58.5 -84t19 -120h-238q0 35 -11 55.5t-49 20.5q-31 0 -51 -19t-31 -54h110l-24 -75h-102l-6 -37h96l-25 -76h-76q3 -30 17.5 -48.5t49.5 -18.5t55 21.5t31 67.5h236q-52 -286 -335 -286q-140 0 -217.5 69.5
t-83.5 194.5h-59l12 76h50l3 18l3 19h-50z" />
    <glyph glyph-name="sterling.old" horiz-adv-x="668" 
d="M48 402h39q-2 13 -3 26.5t-1 27.5q0 60 23.5 106t64 77.5t95.5 48t118 16.5q62 0 115 -12.5t91.5 -42.5t60 -80t20.5 -125h-237q2 37 -9.5 52.5t-37.5 15.5q-18 0 -29.5 -7.5t-17.5 -20.5t-8.5 -30t-2.5 -36v-16h163l-21 -128h-142q-2 -17 -6.5 -36.5t-12.5 -39.5
q17 -4 32 -6.5t28 -2.5q44 0 52 44h232q-7 -52 -25.5 -96.5t-49.5 -76.5t-74.5 -50.5t-100.5 -18.5q-39 0 -70 7t-56.5 16t-45.5 16t-36 7q-17 0 -28.5 -10t-14.5 -27h-185q10 67 40 119.5t81 77.5q8 19 12.5 37.5t5.5 39.5h-79z" />
    <glyph glyph-name="yen.old" horiz-adv-x="662" 
d="M70 368h123l-122 326h273l36 -181l97 181h251l-218 -326h126l-11 -76h-155l-5 -37h153l-12 -76h-153l-28 -179h-260l28 179h-153l11 76h154l5 37h-152z" />
    <glyph glyph-name="zero.old" horiz-adv-x="690" 
d="M267 250q1 -38 16.5 -58.5t55.5 -20.5t60 29.5t30 91.5l3 19q2 17 3.5 31t1.5 27q0 36 -15 58t-57 22q-39 0 -59.5 -29.5t-30.5 -91.5l-3 -19q-3 -17 -4 -31.5t-1 -27.5zM334 -14q-65 0 -121.5 16.5t-99.5 50.5t-67.5 85.5t-24.5 121.5q0 15 1.5 31t3.5 33l3 19
q12 74 41.5 128.5t74 90.5t102 53.5t123.5 17.5q61 0 117.5 -17t99.5 -51t69 -85.5t26 -120.5q0 -15 -1 -30.5t-4 -32.5l-3 -19q-12 -77 -41 -132.5t-72.5 -90.5t-100.5 -51.5t-126 -16.5z" />
    <glyph glyph-name="one.old" horiz-adv-x="460" 
d="M167 375l-129 -65l32 204l172 105h209l-98 -619h-245z" />
    <glyph glyph-name="two.old" horiz-adv-x="609" 
d="M-33 31l245 213q17 15 42.5 36t49 44.5t40.5 46.5t17 42q0 36 -43 36q-23 0 -42 -20t-27 -59h-222q19 128 102 195.5t212 67.5q132 0 199.5 -52t67.5 -141q0 -35 -11 -64.5t-32 -57.5t-50.5 -55t-66.5 -56l-42 -33h168l-27 -174h-585z" />
    <glyph glyph-name="three.old" horiz-adv-x="634" 
d="M296 -104q-69 0 -126 15t-97 46.5t-61.5 80t-20.5 114.5h223q2 -34 17.5 -55t54.5 -21q28 1 47.5 17t19.5 48q0 26 -16 39.5t-54 13.5h-59l24 147h62q30 0 53 14t23 53q0 23 -13 36t-40 13t-47.5 -18t-29.5 -56h-225q10 56 34.5 102t64 79t94 51t125.5 18
q58 0 107.5 -11.5t85.5 -35.5t56.5 -60.5t20.5 -87.5q0 -66 -38 -109t-98 -60q50 -17 80 -51.5t30 -94.5q0 -56 -24 -98t-64.5 -71t-94.5 -43.5t-114 -14.5z" />
    <glyph glyph-name="four.old" horiz-adv-x="696" 
d="M312 32h-343l13 83l364 504h304l-68 -428h88l-25 -159h-88l-20 -122h-245zM344 191l37 236l-157 -236h120z" />
    <glyph glyph-name="five.old" horiz-adv-x="635" 
d="M281 -104q-58 0 -111.5 14t-94 44t-64 76.5t-22.5 112.5h231q3 -64 65 -64q29 0 49.5 21.5t20.5 55.5t-20.5 49.5t-57.5 15.5q-35 0 -58.5 -13.5t-37.5 -31.5h-159l93 443h508l-30 -187h-330l-27 -128q26 31 69.5 55.5t106.5 24.5q44 0 79.5 -14t60 -40t38 -62.5
t13.5 -81.5q0 -70 -23 -124t-65.5 -91t-102 -56t-131.5 -19z" />
    <glyph glyph-name="six.old" horiz-adv-x="671" 
d="M333 -13q-69 0 -125 17t-96.5 51.5t-63 86t-23.5 120.5q0 23 2.5 50.5t6.5 51.5l6 36q13 78 44.5 138.5t78 102.5t107.5 63.5t133 21.5q55 0 104 -12t86.5 -39t59 -70.5t20.5 -106.5h-231q-2 19 -12.5 31.5t-36.5 12.5q-42 0 -66.5 -42t-40.5 -124q9 13 24 27.5t35.5 26
t47.5 19t61 7.5q40 0 76 -12.5t63 -37t43 -61t16 -84.5q0 -69 -25 -120.5t-68.5 -85.5t-101.5 -51t-124 -17zM275 225q-1 -26 15.5 -44t45.5 -18q31 0 52 22.5t21 59.5q0 27 -16 43.5t-44 16.5q-32 0 -52.5 -22.5t-21.5 -57.5z" />
    <glyph glyph-name="seven.old" horiz-adv-x="596" 
d="M292 416h-252l33 203h577l-5 -26l-351 -683h-265z" />
    <glyph glyph-name="eight.old" horiz-adv-x="683" 
d="M267 222q0 -29 17 -45t47 -16q29 0 50 19t21 56q0 29 -17 44t-46 15t-50.5 -18t-21.5 -55zM318 492q0 -23 14 -39.5t43 -16.5q26 0 45.5 16.5t19.5 48.5q0 26 -16 41.5t-41 15.5t-45 -17t-20 -49zM321 -14q-61 0 -116.5 12t-98 36.5t-67.5 63t-25 91.5q0 40 12 71
t33 54.5t49.5 39.5t61.5 26q-36 20 -56.5 52t-20.5 74q0 57 24.5 98.5t65.5 68.5t94 40t110 13q47 0 97 -9.5t91 -32.5t67.5 -60.5t26.5 -94.5t-34 -100.5t-88 -64.5q51 -20 75 -58.5t24 -84.5q0 -60 -24 -104t-66.5 -73.5t-102.5 -43.5t-132 -14z" />
    <glyph glyph-name="nine.old" horiz-adv-x="671" 
d="M354 633q145 0 224 -72t81 -211q0 -23 -2.5 -47t-7.5 -52l-6 -36q-13 -80 -44 -140t-78 -100t-109 -60.5t-136 -20.5q-55 0 -105.5 12.5t-88.5 40.5t-61 72.5t-22 107.5h233q3 -49 54 -49q48 0 72 42t40 124q-9 -14 -24 -28t-35.5 -25.5t-47.5 -19t-61 -7.5
q-41 0 -77 11.5t-63 35t-42.5 59.5t-15.5 84q0 66 24.5 118t67.5 87.5t102 54.5t128 19zM409 395q1 26 -15.5 44t-45.5 18q-31 0 -52 -22.5t-21 -59.5q0 -27 16 -43.5t44 -16.5q32 0 52.5 22.5t21.5 57.5z" />
    <glyph glyph-name="dollar.tab" 
d="M219 -8q-46 6 -87 22.5t-70.5 45t-45 70.5t-11.5 100h206q-3 -51 35 -66l15 94q-111 24 -161 74t-50 139q0 60 21.5 107t60 80t90.5 50.5t113 17.5l14 87h79l-15 -92q46 -6 84 -20.5t64.5 -41.5t41 -67t14.5 -95h-202q-1 37 -29 49l-15 -94q46 -10 85 -26t67.5 -40.5
t44.5 -59.5t16 -82q0 -63 -21 -110.5t-58.5 -80t-90.5 -49t-117 -17.5l-19 -122h-79zM373 203q0 14 -8 23t-28 16l-13 -86q21 3 35 13.5t14 33.5zM259 509q0 -28 35 -41l14 86q-49 -6 -49 -45z" />
    <glyph glyph-name="Euro.tab" 
d="M39 454h41q25 141 101 207t189 65q126 -1 191 -64t52 -190h-210q3 29 -3.5 46.5t-35.5 17.5q-24 0 -37 -18.5t-21 -63.5h106l-25 -78h-93l-6 -38h87l-25 -78h-75q-2 -17 -2.5 -32t3.5 -26.5t13.5 -18t27.5 -6.5q23 0 36 14.5t18 56.5h207q-9 -70 -31.5 -119.5t-58 -81
t-82.5 -46.5t-105 -15q-137 0 -199.5 73.5t-51.5 200.5h-41l12 78h41l6 38h-41z" />
    <glyph glyph-name="sterling.tab" 
d="M38 411h39q-2 14 -3.5 29.5t-1.5 33.5q0 61 20.5 108t57.5 79t88 48.5t111 16.5q138 0 202.5 -63t51.5 -200h-210q4 38 -8 51.5t-35 13.5q-18 0 -29 -9t-16 -23t-6.5 -31.5t-1.5 -34.5v-19h139l-20 -126h-118q-4 -42 -19 -81q13 -3 24 -5t22 -2q20 0 33.5 10t17.5 33h213
q-16 -122 -76 -185.5t-159 -63.5q-35 0 -60.5 7.5t-45 16t-35 16t-30.5 7.5q-32 0 -38 -38h-176q10 67 35 117.5t67 77.5q9 20 15.5 44.5t8.5 45.5h-77z" />
    <glyph glyph-name="yen.tab" 
d="M52 379h130l-106 336h252l26 -156l75 156h237l-213 -336h140l-13 -78h-146l-6 -38h146l-12 -78h-146l-29 -185h-257l29 185h-138l12 78h138l6 38h-138z" />
    <glyph glyph-name="zero.tab" 
d="M258 279q-2 -17 -4 -30t-2 -24q0 -23 9 -34t30 -11q25 0 35 21.5t18 72.5l26 161q6 36 6 57q0 44 -37 44q-25 0 -36 -22t-19 -73zM272 -14q-56 0 -102.5 14.5t-79.5 44t-51 74t-18 104.5q0 33 6 71l26 163q22 134 101 201.5t198 67.5q55 0 102 -15t81 -44.5t53 -73.5
t19 -103q0 -15 -1 -31.5t-4 -33.5l-26 -162q-22 -137 -99 -207t-205 -70z" />
    <glyph glyph-name="one.tab" 
d="M252 453l-170 -92l35 220l215 134h227l-113 -715h-266z" />
    <glyph glyph-name="two.tab" 
d="M-18 34l229 256q18 20 43.5 47t48.5 56.5t39.5 58t16.5 51.5q0 16 -6.5 25.5t-23.5 9.5q-20 0 -31 -21t-21 -79h-235q20 145 96 216.5t220 71.5q49 0 94.5 -10.5t80.5 -33.5t56 -61t22 -93q1 -41 -11 -77t-35.5 -71.5t-59 -72.5t-81.5 -80l-34 -32h171l-30 -195h-554z
" />
    <glyph glyph-name="three.tab" 
d="M294 -14q-63 0 -117 12t-92.5 42t-59 80.5t-17.5 127.5h221q0 -18 2 -32.5t7.5 -24.5t16 -15.5t27.5 -5.5q56 0 56 66q0 22 -11 34.5t-40 12.5h-55l25 153h60q27 0 45 15t18 51q0 18 -10 29.5t-34 11.5t-40.5 -15.5t-23.5 -56.5h-224q23 123 97 189t203 66q46 0 92.5 -9
t84 -30.5t60.5 -58.5t23 -93q0 -68 -34.5 -111.5t-94.5 -60.5q46 -13 73 -48t27 -89q0 -56 -20.5 -100.5t-57.5 -75.5t-90 -47.5t-117 -16.5z" />
    <glyph glyph-name="four.tab" 
d="M264 130h-279l15 92l303 493h284l-66 -417h66l-27 -168h-66l-20 -130h-230zM297 298l34 213l-123 -213h89z" />
    <glyph glyph-name="five.tab" 
d="M277 -14q-134 0 -202.5 62t-57.5 193h218q-2 -28 7.5 -42.5t38.5 -14.5q31 0 43 23.5t12 55.5q0 56 -61 56q-29 0 -50 -12.5t-32 -32.5h-155l90 441h476l-29 -184h-302l-29 -134q23 33 63.5 60t99.5 27q81 0 126 -48t45 -144q0 -70 -19.5 -126.5t-57.5 -96.5t-94.5 -61.5
t-129.5 -21.5z" />
    <glyph glyph-name="six.tab" 
d="M297 -14q-60 0 -110 15t-86.5 46t-57 78.5t-20.5 112.5q0 20 2.5 44.5t6.5 47.5l13 85q13 79 41.5 138t70.5 97t96 57t116 19q124 0 185 -54.5t57 -173.5h-212q2 23 -5.5 36.5t-33.5 13.5q-36 0 -58.5 -40t-33.5 -118q9 13 22 26.5t30 24t38.5 17t48.5 6.5q38 0 70 -12
t55.5 -36t36.5 -60t13 -84q0 -64 -20 -116.5t-57 -90t-89.5 -58.5t-118.5 -21zM243 233q0 -24 14 -42t41 -18q29 0 46.5 20t17.5 54q0 25 -13.5 41.5t-39.5 16.5q-27 0 -46.5 -19t-19.5 -53z" />
    <glyph glyph-name="seven.tab" 
d="M297 506h-236l33 209h562l-4 -26l-347 -689h-266z" />
    <glyph glyph-name="eight.tab" 
d="M287 -14q-49 0 -99.5 9t-91 31.5t-66.5 60.5t-26 95q0 75 36.5 123t104.5 74q-29 19 -49.5 48.5t-20.5 71.5q0 56 22.5 98.5t59.5 71t85.5 43t101.5 14.5q46 0 91 -9.5t81 -32t58.5 -58.5t22.5 -89q0 -67 -29 -107t-80 -66q45 -23 67 -57.5t22 -79.5q0 -62 -23 -107.5
t-63 -75t-92.5 -44t-111.5 -14.5zM235 223q0 -26 15 -40t41 -14q27 0 46.5 19.5t19.5 53.5q0 26 -14.5 40t-41.5 14q-27 -1 -46.5 -20t-19.5 -53zM278 487q0 -21 12.5 -37t38.5 -16q25 0 43 18t18 48q0 23 -13.5 37.5t-37.5 14.5q-26 0 -43.5 -18t-17.5 -47z" />
    <glyph glyph-name="nine.tab" 
d="M335 727q59 0 108.5 -14.5t85.5 -45.5t56 -78.5t20 -113.5q0 -20 -2.5 -44.5t-6.5 -47.5l-13 -85q-14 -84 -39.5 -143t-66 -96.5t-95.5 -54.5t-127 -17q-122 0 -185.5 56t-60.5 173h214q0 -23 8.5 -37t34.5 -14q40 0 61.5 38.5t32.5 119.5q-9 -13 -22 -26.5t-30 -24
t-38.5 -17t-48.5 -6.5q-38 0 -70 12t-55.5 36t-36.5 60t-13 84q0 59 19.5 111t56.5 91t90.5 61.5t122.5 22.5zM386 483q0 24 -14.5 42t-41.5 18q-29 0 -47 -20t-18 -54q0 -25 14 -41.5t40 -16.5q27 0 47 19t20 53z" />
    <glyph glyph-name="cent.tab" 
d="M240 -10q-47 6 -87.5 23.5t-70.5 46t-47.5 68.5t-17.5 91q0 67 21.5 125t62 100.5t98 67t128.5 26.5l14 91h66l-15 -94q91 -12 143.5 -67t55.5 -160h-197q0 48 -28 62l-37 -231q27 6 41.5 25t21.5 51h189q-5 -50 -25.5 -91.5t-56 -71.5t-84.5 -47.5t-110 -18.5l-19 -121
h-66zM233 222q0 -58 31 -77l36 227q-32 -11 -49.5 -47.5t-17.5 -102.5z" />
    <glyph glyph-name="percent.tab" horiz-adv-x="800" 
d="M210 541q0 -17 7 -30t27 -12q12 0 20.5 7t13 17.5t6.5 23.5t2 25q0 17 -7.5 28.5t-25.5 11.5q-23 0 -33 -21t-10 -50zM239 383q-36 0 -68 9t-57 27t-39.5 46t-14.5 66q0 41 14 76t39.5 61t62.5 41t82 15q34 0 66 -9.5t56.5 -28t39.5 -47t15 -65.5q0 -39 -14 -74
t-39.5 -61t-62 -41t-80.5 -15zM659 715h109l-592 -715h-109zM543 144q0 -17 7 -30t27 -12q12 0 20.5 7t13 17.5t6.5 23.5t2 25q0 17 -7.5 28.5t-25.5 11.5q-23 0 -33 -21t-10 -50zM572 -14q-36 0 -68 9t-57 27t-39.5 46t-14.5 66q0 41 14 76t39.5 61t62.5 41t82 15
q34 0 66 -9.5t56.5 -28t39.5 -47t15 -65.5q0 -39 -14 -74t-39.5 -61t-62 -41t-80.5 -15z" />
    <glyph glyph-name="perthousand.tab" horiz-adv-x="1000" 
d="M176 525q0 -15 5.5 -25.5t20.5 -10.5q13 0 21 11t12 26.5t5 32t1 27.5q0 36 -25 36q-13 0 -21 -11t-12 -27t-5.5 -32.5t-1.5 -26.5zM194 383q-68 0 -110 36.5t-42 106.5q0 41 12 77t35.5 63t57 42.5t77.5 15.5q32 0 59.5 -9.5t47.5 -28t31.5 -45t11.5 -60.5
q0 -43 -12 -79.5t-35.5 -62.5t-57 -41t-75.5 -15zM589 715h105l-600 -715h-105zM439 128q0 -15 5.5 -25.5t20.5 -10.5q13 0 21 11t12 26.5t5 32t1 27.5q0 36 -25 36q-13 0 -21 -11t-12 -27t-5.5 -32.5t-1.5 -26.5zM457 -14q-68 0 -110 36.5t-42 106.5q0 41 12 77t35.5 63
t57 42.5t77.5 15.5q32 0 59.5 -9.5t47.5 -28t31.5 -45t11.5 -60.5q0 -43 -12 -79.5t-35.5 -62.5t-57 -41t-75.5 -15zM787 128q0 -15 5.5 -25.5t20.5 -10.5q13 0 21 11t12 26.5t5 32t1 27.5q0 36 -25 36q-13 0 -21 -11t-12 -27t-5.5 -32.5t-1.5 -26.5zM805 -14
q-68 0 -110 36.5t-42 106.5q0 41 12 77t35.5 63t57 42.5t77.5 15.5q32 0 59.5 -9.5t47.5 -28t31.5 -45t11.5 -60.5q0 -43 -12 -79.5t-35.5 -62.5t-57 -41t-75.5 -15z" />
    <glyph glyph-name="plus.tab" 
d="M209 258h-161l26 162h161l28 176h180l-28 -176h159l-26 -162h-159l-27 -176h-180z" />
    <glyph glyph-name="minus.tab" 
d="M73 425h504l-27 -172h-504z" />
    <glyph glyph-name="multiply.tab" 
d="M192 339l-130 154l134 119l132 -156l174 151l103 -119l-175 -152l131 -153l-135 -119l-132 155l-173 -150l-103 119z" />
    <glyph glyph-name="divide.tab" 
d="M71 415h504l-24 -152h-504zM286 19q-48 0 -78.5 31t-30.5 76t30 76t78 31q24 0 45 -8.5t36 -23t23.5 -34t8.5 -41.5q0 -23 -8.5 -42.5t-23.5 -33.5t-35.5 -22.5t-44.5 -8.5zM334 445q-48 0 -78.5 31t-30.5 76t30 76t78 31q24 0 45 -8.5t36 -23t23.5 -34t8.5 -41.5
q0 -23 -8.5 -42.5t-23.5 -33.5t-35.5 -22.5t-44.5 -8.5z" />
    <glyph glyph-name="equal.tab" 
d="M56 300h498l-23 -148h-498zM88 505h498l-23 -148h-498z" />
    <glyph glyph-name="less.tab" 
d="M74 308l7 43l511 253l-33 -209l-194 -74l169 -86l-31 -194z" />
    <glyph glyph-name="greater.tab" 
d="M544 338l-7 -43l-511 -253l33 209l194 74l-169 86l31 194z" />
    <glyph glyph-name="florin.tab" 
d="M98 415h96l19 103q11 60 37.5 100t62.5 63.5t79.5 33.5t90.5 10q36 0 57.5 -2.5t41.5 -8.5l-27 -167q-10 2 -21 3.5t-28 1.5q-24 0 -44.5 -11.5t-27.5 -48.5l-15 -77h118l-23 -149h-122l-84 -448h-226l84 448h-91z" />
    <glyph glyph-name="plusminus.tab" 
d="M223 348h-170l25 162h170l25 156h180l-25 -156h170l-25 -162h-170l-25 -156h-180zM20 142h524l-22 -142h-524z" />
    <glyph glyph-name="notequal.tab" 
d="M78 505h253l47 93h136l-47 -93h129l-23 -148h-181l-29 -57h201l-23 -148h-253l-47 -93h-136l47 93h-129l23 148h181l29 57h-201z" />
    <glyph glyph-name="approxequal.tab" 
d="M6 98q7 58 24 97.5t40 64t51.5 35.5t58.5 11q31 0 63.5 -6t62 -13t55 -13t43.5 -6q38 0 49 43h124q-5 -53 -21.5 -92t-39.5 -65t-52 -38.5t-60 -12.5q-32 0 -64 6t-62 13t-55.5 13t-43.5 6q-20 0 -32 -11.5t-17 -31.5h-124zM45 341q7 58 24 97.5t40 64t51.5 35.5t58.5 11
q31 0 63.5 -6t62 -13t55 -13t43.5 -6q38 0 49 43h124q-5 -53 -21.5 -92t-39.5 -65t-52 -38.5t-60 -12.5q-32 0 -64 6t-62 13t-55.5 13t-43.5 6q-20 0 -32 -11.5t-17 -31.5h-124z" />
    <glyph glyph-name="lessequal.tab" 
d="M96 397l7 41l478 230l-32 -205l-126 -53l109 -57l-32 -198zM57 142h441l-22 -142h-441z" />
    <glyph glyph-name="greaterequal.tab" 
d="M548 426l-7 -41l-478 -230l32 205l126 53l-109 57l32 198zM61 142h441l-22 -142h-441z" />
    <glyph glyph-name="parenleft.tab" horiz-adv-x="300" 
d="M120 -148q-16 27 -33.5 62t-32 77.5t-24 93.5t-9.5 111q0 163 58 306t175 274h155q-97 -143 -147 -293.5t-50 -308.5q0 -59 4.5 -107t11.5 -87t16 -70t19 -58h-143z" />
    <glyph glyph-name="parenright.tab" horiz-adv-x="300" 
d="M194 776q16 -27 33.5 -62t32 -78t24 -93.5t9.5 -110.5q0 -164 -58 -307t-175 -273h-155q97 143 147 293.5t50 308.5q0 59 -4.5 107t-11.5 87t-16 70t-19 58h143z" />
    <glyph glyph-name="bracketleft.tab" horiz-adv-x="300" 
d="M113 776h261l-22 -144h-60l-101 -636h60l-23 -144h-261z" />
    <glyph glyph-name="bracketright.tab" horiz-adv-x="300" 
d="M-37 -4h60l101 636h-60l22 144h261l-146 -924h-260z" />
    <glyph glyph-name="braceleft.tab" horiz-adv-x="300" 
d="M228 -148q-83 3 -134 22t-74.5 52.5t-21 81t27.5 106.5l30 72q13 29 2.5 47.5t-52.5 20.5l22 136q42 -2 56 14t12 48l-7 91q-5 66 9.5 111t50 72t91.5 38.5t134 11.5l-23 -145q-41 -2 -53.5 -16t-11.5 -49l3 -102q1 -29 -5 -52.5t-21 -42t-39 -31.5t-60 -22
q65 -20 81.5 -63.5t-9.5 -109.5l-27 -70q-14 -36 -7 -53.5t49 -22.5l-23 -145v0z" />
    <glyph glyph-name="braceright.tab" horiz-adv-x="300" 
d="M86 776q82 -3 133.5 -22t75 -52.5t21 -81t-27.5 -106.5l-30 -72q-13 -29 -2.5 -47.5t52.5 -20.5l-22 -136q-42 2 -56 -14t-12 -48l7 -91q5 -66 -9.5 -111t-50 -72t-91.5 -38.5t-134 -11.5l23 145q41 2 53.5 16t11.5 49l-3 102q-2 58 26 94.5t99 53.5q-65 20 -81 63.5
t10 109.5l27 70q14 36 6.5 53.5t-49.5 22.5l23 145v0z" />
    <glyph glyph-name="period.tab" horiz-adv-x="300" 
d="M123 -14q-27 0 -49 9.5t-38.5 25.5t-25.5 38t-9 47t9 46.5t25 38t38 26t49 9.5t50.5 -9.5t40.5 -26t26.5 -38t9.5 -46.5t-9.5 -47t-26 -38t-40 -25.5t-50.5 -9.5z" />
    <glyph glyph-name="comma.tab" horiz-adv-x="300" 
d="M-51 -72l101 284l200 -70l-177 -266z" />
    <glyph glyph-name="colon.tab" horiz-adv-x="300" 
d="M122 -14q-27 0 -49 9.5t-38.5 25.5t-25.5 38t-9 47t9 46.5t25 38t38 26t49 9.5t50.5 -9.5t40.5 -26t26.5 -38t9.5 -46.5t-9.5 -47t-26 -38t-40 -25.5t-50.5 -9.5zM167 266q-27 0 -49 9.5t-38.5 25.5t-25.5 38t-9 47t9 46.5t25 38t38 26t49 9.5t50.5 -9.5t40.5 -26
t26.5 -38t9.5 -46.5t-9.5 -47t-26 -38t-40 -25.5t-50.5 -9.5z" />
    <glyph glyph-name="semicolon.tab" horiz-adv-x="300" 
d="M168 266q-27 0 -49 9.5t-38.5 25.5t-25.5 38t-9 47t9 46.5t25 38t38 26t49 9.5t50.5 -9.5t40.5 -26t26.5 -38t9.5 -46.5t-9.5 -47t-26 -38t-40 -25.5t-50.5 -9.5zM-64 -72l101 284l200 -70l-177 -266z" />
    <glyph glyph-name="dollar.oldtab" 
d="M221 -8q-45 6 -84.5 22t-68 44t-43.5 68.5t-10 96.5h200q-3 -49 33 -64l14 91q-107 24 -155.5 72.5t-48.5 134.5q0 58 21 103.5t58 77t87 48.5t109 18l14 85h77l-14 -89q45 -6 81.5 -20.5t62.5 -40.5t40 -64.5t14 -92.5h-195q-1 20 -8.5 31t-21.5 17l-15 -91
q45 -9 83.5 -24.5t66 -39.5t43 -58t15.5 -80q0 -61 -20 -107.5t-57 -78t-88 -47.5t-114 -17l-18 -118h-77zM372 197q0 14 -8 22.5t-28 15.5l-13 -84q22 2 35.5 12.5t13.5 33.5zM261 494q0 -26 33 -39l13 81q-46 -6 -46 -42z" />
    <glyph glyph-name="Euro.oldtab" 
d="M45 440h40q24 137 97 201t184 63q122 -1 185 -61.5t51 -184.5h-204q3 29 -3.5 45.5t-34.5 16.5q-24 0 -36 -18t-20 -62h103l-25 -76h-90l-6 -36h85l-25 -76h-72q-2 -17 -2.5 -31.5t3.5 -25t13 -17t26 -6.5q23 0 35.5 14t17.5 55h201q-18 -136 -87.5 -195.5t-181.5 -59.5
q-132 0 -193 71.5t-50 194.5h-41l12 76h40l6 36h-40z" />
    <glyph glyph-name="sterling.oldtab" 
d="M48 399h37q-2 14 -3 29t-1 32q0 59 20 104.5t55.5 76.5t85 47t108.5 16q134 0 196 -60.5t50 -194.5h-204q4 38 -7.5 50.5t-34.5 12.5q-18 0 -28 -8.5t-15 -22.5t-6.5 -31t-1.5 -33v-18h135l-19 -123h-115q-2 -20 -6.5 -39.5t-12.5 -38.5q13 -3 23.5 -5t21.5 -2
q19 0 32.5 10t17.5 32h206q-15 -118 -73.5 -180t-154.5 -62q-34 0 -58.5 7t-43.5 16t-34 16t-29 7q-31 0 -37 -37h-171q9 66 33.5 114.5t64.5 74.5q9 20 15.5 43.5t8.5 43.5h-75z" />
    <glyph glyph-name="yen.oldtab" 
d="M62 388h125l-108 306h253l28 -147l74 147h221l-202 -306h134l-12 -76h-142l-6 -37h142l-12 -76h-142l-31 -199h-249l31 199h-134l12 76h134l5 37h-133z" />
    <glyph glyph-name="zero.oldtab" 
d="M253 223q0 -17 7.5 -30t31.5 -13t33.5 20.5t17.5 69.5l11 71q3 18 5 34t2 27q0 20 -8 30.5t-29 10.5q-24 0 -35 -20.5t-19 -70.5l-11 -71q-6 -35 -6 -58zM284 -14q-59 0 -107.5 14.5t-83 43.5t-53.5 74t-19 105q0 34 6 72l11 71q20 133 97.5 200t194.5 67q59 0 107 -15
t82.5 -45t53.5 -75t19 -104q0 -15 -1 -31t-4 -33l-11 -71q-20 -134 -93 -203.5t-199 -69.5z" />
    <glyph glyph-name="one.oldtab" 
d="M250 374l-176 -97l32 205l219 137h209l-98 -619h-245z" />
    <glyph glyph-name="two.oldtab" 
d="M-18 31l234 210q21 19 44.5 41t44 44.5t33.5 44.5t13 41q0 17 -8 27t-28 10q-45 0 -60 -79h-222q22 134 100 198.5t206 64.5q50 0 96.5 -10.5t82.5 -33t58 -58.5t22 -87q0 -40 -12.5 -73t-33.5 -61.5t-48 -53.5t-57 -49l-41 -33h156l-27 -174h-558z" />
    <glyph glyph-name="three.oldtab" 
d="M277 -105q-69 0 -124.5 16t-93 48t-56.5 80t-15 113h224q-1 -36 9.5 -56.5t45.5 -20.5q54 0 56 66q1 23 -13 38t-42 15h-54l24 147h59q30 0 49 16t19 54q0 46 -45 46q-26 0 -41.5 -16.5t-23.5 -57.5h-223q17 121 92.5 185.5t203.5 64.5q46 0 93.5 -8.5t85.5 -30.5
t62 -58.5t24 -92.5q0 -64 -33.5 -110t-99.5 -63q48 -14 74.5 -50t26.5 -93q0 -58 -22.5 -101.5t-61.5 -72.5t-90.5 -43.5t-109.5 -14.5z" />
    <glyph glyph-name="four.oldtab" 
d="M249 32h-279l12 81l304 506h286l-69 -430h66l-24 -157h-66l-20 -122h-230zM279 189l37 229l-130 -229h93z" />
    <glyph glyph-name="five.oldtab" 
d="M270 -104q-65 0 -117.5 16t-88.5 47.5t-53.5 77.5t-11.5 106h218q-2 -30 8.5 -47.5t41.5 -17.5t44.5 22t13.5 62q0 29 -16 45t-48 16q-52 0 -81 -46h-154l90 442h471l-30 -184h-297l-28 -135q12 17 27 33t34 28.5t43 20t54 7.5q76 0 124 -48.5t48 -148.5
q0 -65 -17 -119.5t-53 -93.5t-91 -61t-131 -22z" />
    <glyph glyph-name="six.oldtab" 
d="M307 -14q-60 0 -111.5 15.5t-89 48t-59 84t-21.5 123.5q0 17 2 35.5t5 38.5l13 85q11 74 39.5 131.5t71.5 97.5t99 60.5t123 20.5q52 0 97.5 -12t78 -39t49.5 -70.5t12 -106.5h-213q2 21 -5.5 35.5t-33.5 14.5q-38 0 -60.5 -40.5t-36.5 -127.5q19 29 55 52t93 23
q79 0 124.5 -49.5t45.5 -134.5q0 -66 -19.5 -118.5t-55.5 -89.5t-87.5 -57t-115.5 -20zM245 227q0 -28 15.5 -45.5t44.5 -17.5q32 0 50.5 22.5t19.5 57.5q1 27 -14.5 44t-45.5 17t-50 -21.5t-20 -56.5z" />
    <glyph glyph-name="seven.oldtab" 
d="M280 416h-234l33 203h559l-5 -26l-344 -683h-265z" />
    <glyph glyph-name="eight.oldtab" 
d="M287 -14q-54 0 -105.5 11t-91 35t-64 62t-24.5 91q0 74 37.5 122t106.5 73q-32 20 -52 50.5t-20 75.5q0 54 22 95.5t59.5 69t86.5 41.5t102 14q46 0 91.5 -10t81 -32.5t57.5 -59t22 -89.5q0 -127 -112 -173q93 -44 93 -148q0 -60 -23.5 -103t-63.5 -70.5t-92.5 -41
t-110.5 -13.5zM232 217q0 -56 59 -56q29 0 47 20t18 55q0 27 -14 42.5t-43 15.5t-48 -21.5t-19 -55.5zM277 491q0 -23 13.5 -38.5t38.5 -15.5t43 17.5t18 49.5q0 23 -13.5 39t-39.5 16q-25 0 -42.5 -19.5t-17.5 -48.5z" />
    <glyph glyph-name="nine.oldtab" 
d="M317 633q60 0 110 -15t85.5 -46.5t55 -80t19.5 -116.5q0 -22 -2 -43.5t-5 -41.5l-13 -85q-25 -163 -102.5 -237.5t-216.5 -74.5q-53 0 -100.5 12t-83.5 39t-56 72t-17 111h213q-2 -23 8 -39.5t36 -16.5q38 0 61 40.5t37 127.5q-19 -29 -54.5 -52t-91.5 -23
q-79 0 -125.5 50.5t-46.5 135.5q0 66 21 118t59 89t91 56.5t118 19.5zM368 395q0 28 -15.5 45.5t-44.5 17.5q-32 0 -50.5 -22.5t-19.5 -57.5q-1 -27 14.5 -44t45.5 -17t50 21.5t20 56.5z" />
    <glyph glyph-name="zero.num" horiz-adv-x="459" 
d="M222 490q0 -24 8 -37.5t31 -13.5q18 0 28.5 12t16.5 29.5t8 36t2 31.5q0 25 -8.5 37.5t-30.5 12.5q-18 0 -28.5 -12.5t-16.5 -29.5t-8 -35.5t-2 -30.5zM253 314q-42 0 -78 10.5t-62.5 31.5t-41 53t-14.5 74q0 52 16 95.5t45.5 75t72 49.5t95.5 18q42 0 77.5 -10.5
t62 -31.5t41 -52.5t14.5 -73.5q0 -53 -15.5 -97t-45 -75.5t-72 -49t-95.5 -17.5z" />
    <glyph glyph-name="one.num" horiz-adv-x="315" 
d="M146 553l-89 -42l21 134l119 70h142l-63 -393h-167z" />
    <glyph glyph-name="two.num" horiz-adv-x="388" 
d="M16 342l149 133q13 11 28.5 25t29.5 28.5t23.5 27.5t9.5 23q0 22 -19 22q-12 0 -21.5 -10.5t-14.5 -35.5h-152q12 86 66 126t135 40q35 0 66 -6t54.5 -20.5t37 -38t13.5 -57.5q0 -42 -29 -77.5t-77 -73.5l-11 -9h93l-19 -117h-366z" />
    <glyph glyph-name="three.num" horiz-adv-x="406" 
d="M231 314q-84 0 -134 34t-51 111h146q0 -32 31 -32q9 0 18 5.5t9 20.5q0 10 -8.5 15.5t-28.5 5.5h-30l14 88h37q36 0 36 26q0 9 -5.5 15t-19.5 6q-11 0 -20.5 -6.5t-13.5 -23.5h-144q10 68 59 105t135 37q28 0 57.5 -5t53.5 -17t39 -33t15 -53q0 -38 -22.5 -61t-58.5 -33
q31 -7 49.5 -25t18.5 -53q0 -34 -14.5 -58t-39.5 -39.5t-58 -22.5t-70 -7z" />
    <glyph glyph-name="four.num" horiz-adv-x="434" 
d="M223 392h-194l10 62l199 261h198l-34 -216h49l-17 -107h-49l-11 -70h-162zM246 499l17 106l-78 -106h61z" />
    <glyph glyph-name="five.num" horiz-adv-x="400" 
d="M227 314q-34 0 -67 7t-58.5 23t-42 42.5t-17.5 64.5h155q1 -7 6 -12.5t19 -5.5q10 0 18.5 7t8.5 23q0 25 -26 25q-11 0 -18 -6t-11 -15h-135l54 248h314l-18 -114h-202l-16 -73q14 20 39.5 38t72.5 18q49 0 79.5 -25.5t30.5 -79.5q0 -43 -13.5 -74t-38.5 -51.5t-59 -30
t-75 -9.5z" />
    <glyph glyph-name="six.num" horiz-adv-x="428" 
d="M254 314q-42 0 -78 9t-62.5 29t-41.5 51.5t-15 76.5q0 11 1 23.5t3 25.5l2 12q7 42 26 75t47.5 56.5t65.5 36t80 12.5q35 0 66 -6.5t54.5 -21.5t37.5 -40.5t15 -63.5h-152q-2 8 -6.5 12.5t-17.5 4.5q-21 0 -33 -20t-18 -50q13 16 35 27.5t57 11.5q52 0 86.5 -25.5
t34.5 -79.5q0 -41 -15 -70.5t-40.5 -48.5t-59.5 -28t-72 -9zM224 450q0 -11 6 -19.5t21 -8.5q14 0 22.5 9.5t8.5 26.5q0 12 -6.5 20t-20.5 8q-13 0 -22 -9.5t-9 -26.5z" />
    <glyph glyph-name="seven.num" horiz-adv-x="382" 
d="M210 586h-140l21 129h352l-3 -18l-203 -375h-169z" />
    <glyph glyph-name="eight.num" horiz-adv-x="415" 
d="M239 314q-35 0 -70 5.5t-63 18t-45.5 34.5t-17.5 55q0 46 23 69t63 36q-20 11 -33 27.5t-13 40.5q0 34 15.5 57t40.5 37t56.5 20.5t63.5 6.5q34 0 65.5 -6t56 -19t39 -34t14.5 -50q0 -36 -15 -59.5t-50 -33.5q30 -11 44.5 -32t14.5 -45q0 -38 -17 -62.5t-44.5 -39
t-61 -20.5t-66.5 -6zM237 422q14 0 23.5 8t9.5 23q0 11 -7.5 19t-21.5 8t-23.5 -8t-9.5 -24q0 -11 7.5 -18.5t21.5 -7.5zM254 561q13 0 22 8t9 22q0 12 -8 19t-20 7q-11 0 -20.5 -7.5t-9.5 -22.5q0 -11 7 -18.5t20 -7.5z" />
    <glyph glyph-name="nine.num" horiz-adv-x="428" 
d="M255 721q42 0 77.5 -9t61 -29t40 -51.5t14.5 -76.5q0 -11 -1 -23.5t-3 -25.5l-2 -12q-14 -87 -66.5 -133.5t-152.5 -46.5q-35 0 -65.5 6.5t-54 22t-37.5 40.5t-16 62h152q2 -8 6.5 -12t17.5 -4q40 0 51 70q-13 -16 -35 -27.5t-57 -11.5q-52 0 -86.5 25.5t-34.5 81.5
q0 40 15.5 69t42 48t61 28t72.5 9zM281 585q0 11 -6 19.5t-21 8.5q-14 0 -22.5 -9.5t-8.5 -26.5q0 -12 6.5 -20t20.5 -8q13 0 22 9.5t9 26.5z" />
    <glyph glyph-name="zero.den" horiz-adv-x="459" 
d="M173 169q0 -24 8 -37.5t31 -13.5q18 0 28.5 12t16.5 29.5t8 36t2 31.5q0 25 -8.5 37.5t-30.5 12.5q-18 0 -28.5 -12.5t-16.5 -29.5t-8 -35.5t-2 -30.5zM204 -7q-42 0 -78 10.5t-62.5 31.5t-41 53t-14.5 74q0 52 16 95.5t45.5 75t72 49.5t95.5 18q42 0 77.5 -10.5
t62 -31.5t41 -52.5t14.5 -73.5q0 -53 -15.5 -97t-45 -75.5t-72 -49t-95.5 -17.5z" />
    <glyph glyph-name="one.den" horiz-adv-x="315" 
d="M97 232l-89 -42l21 134l119 70h142l-63 -393h-167z" />
    <glyph glyph-name="two.den" horiz-adv-x="388" 
d="M-33 21l149 133q13 11 28.5 25t29.5 28.5t23.5 27.5t9.5 23q0 22 -19 22q-12 0 -21.5 -10.5t-14.5 -35.5h-152q12 86 66 126t135 40q35 0 66 -6t54.5 -20.5t37 -38t13.5 -57.5q0 -42 -29 -77.5t-77 -73.5l-11 -9h93l-19 -117h-366z" />
    <glyph glyph-name="three.den" horiz-adv-x="406" 
d="M182 -7q-84 0 -134 34t-51 111h146q0 -32 31 -32q9 0 18 5.5t9 20.5q0 10 -8.5 15.5t-28.5 5.5h-30l14 88h37q36 0 36 26q0 9 -5.5 15t-19.5 6q-11 0 -20.5 -6.5t-13.5 -23.5h-144q10 68 59 105t135 37q28 0 57.5 -5t53.5 -17t39 -33t15 -53q0 -38 -22.5 -61t-58.5 -33
q31 -7 49.5 -25t18.5 -53q0 -34 -14.5 -58t-39.5 -39.5t-58 -22.5t-70 -7z" />
    <glyph glyph-name="four.den" horiz-adv-x="434" 
d="M174 71h-194l10 62l199 261h198l-34 -216h49l-17 -107h-49l-11 -70h-162zM197 178l17 106l-78 -106h61z" />
    <glyph glyph-name="five.den" horiz-adv-x="400" 
d="M178 -7q-34 0 -67 7t-58.5 23t-42 42.5t-17.5 64.5h155q1 -7 6 -12.5t19 -5.5q10 0 18.5 7t8.5 23q0 25 -26 25q-11 0 -18 -6t-11 -15h-135l54 248h314l-18 -114h-202l-16 -73q14 20 39.5 38t72.5 18q49 0 79.5 -25.5t30.5 -79.5q0 -43 -13.5 -74t-38.5 -51.5t-59 -30
t-75 -9.5z" />
    <glyph glyph-name="six.den" horiz-adv-x="428" 
d="M205 -7q-42 0 -78 9t-62.5 29t-41.5 51.5t-15 76.5q0 11 1 23.5t3 25.5l2 12q7 42 26 75t47.5 56.5t65.5 36t80 12.5q35 0 66 -6.5t54.5 -21.5t37.5 -40.5t15 -63.5h-152q-2 8 -6.5 12.5t-17.5 4.5q-21 0 -33 -20t-18 -50q13 16 35 27.5t57 11.5q52 0 86.5 -25.5
t34.5 -79.5q0 -41 -15 -70.5t-40.5 -48.5t-59.5 -28t-72 -9zM175 129q0 -11 6 -19.5t21 -8.5q14 0 22.5 9.5t8.5 26.5q0 12 -6.5 20t-20.5 8q-13 0 -22 -9.5t-9 -26.5z" />
    <glyph glyph-name="seven.den" horiz-adv-x="382" 
d="M161 265h-140l21 129h352l-3 -18l-203 -375h-169z" />
    <glyph glyph-name="eight.den" horiz-adv-x="415" 
d="M190 -7q-35 0 -70 5.5t-63 18t-45.5 34.5t-17.5 55q0 46 23 69t63 36q-20 11 -33 27.5t-13 40.5q0 34 15.5 57t40.5 37t56.5 20.5t63.5 6.5q34 0 65.5 -6t56 -19t39 -34t14.5 -50q0 -36 -15 -59.5t-50 -33.5q30 -11 44.5 -32t14.5 -45q0 -38 -17 -62.5t-44.5 -39
t-61 -20.5t-66.5 -6zM188 101q14 0 23.5 8t9.5 23q0 11 -7.5 19t-21.5 8t-23.5 -8t-9.5 -24q0 -11 7.5 -18.5t21.5 -7.5zM205 240q13 0 22 8t9 22q0 12 -8 19t-20 7q-11 0 -20.5 -7.5t-9.5 -22.5q0 -11 7 -18.5t20 -7.5z" />
    <glyph glyph-name="nine.den" horiz-adv-x="428" 
d="M206 400q42 0 77.5 -9t61 -29t40 -51.5t14.5 -76.5q0 -11 -1 -23.5t-3 -25.5l-2 -12q-14 -87 -66.5 -133.5t-152.5 -46.5q-35 0 -65.5 6.5t-54 22t-37.5 40.5t-16 62h152q2 -8 6.5 -12t17.5 -4q40 0 51 70q-13 -16 -35 -27.5t-57 -11.5q-52 0 -86.5 25.5t-34.5 81.5
q0 40 15.5 69t42 48t61 28t72.5 9zM232 264q0 11 -6 19.5t-21 8.5q-14 0 -22.5 -9.5t-8.5 -26.5q0 -12 6.5 -20t20.5 -8q13 0 22 9.5t9 26.5z" />
    <glyph glyph-name="zero.sub" horiz-adv-x="459" 
d="M151 32q0 -24 8 -37.5t31 -13.5q18 0 28.5 12t16.5 29.5t8 36t2 31.5q0 25 -8.5 37.5t-30.5 12.5q-18 0 -28.5 -12.5t-16.5 -29.5t-8 -35.5t-2 -30.5zM182 -144q-42 0 -78 10.5t-62.5 31.5t-41 53t-14.5 74q0 52 16 95.5t45.5 75t72 49.5t95.5 18q42 0 77.5 -10.5
t62 -31.5t41 -52.5t14.5 -73.5q0 -53 -15.5 -97t-45 -75.5t-72 -49t-95.5 -17.5z" />
    <glyph glyph-name="one.sub" horiz-adv-x="315" 
d="M76 95l-89 -42l21 134l119 70h142l-63 -393h-167z" />
    <glyph glyph-name="two.sub" horiz-adv-x="388" 
d="M-54 -116l149 133q13 11 28.5 25t29.5 28.5t23.5 27.5t9.5 23q0 22 -19 22q-12 0 -21.5 -10.5t-14.5 -35.5h-152q12 86 66 126t135 40q35 0 66 -6t54.5 -20.5t37 -38t13.5 -57.5q0 -42 -29 -77.5t-77 -73.5l-11 -9h93l-19 -117h-366z" />
    <glyph glyph-name="three.sub" horiz-adv-x="406" 
d="M160 -144q-84 0 -134 34t-51 111h146q0 -32 31 -32q9 0 18 5.5t9 20.5q0 10 -8.5 15.5t-28.5 5.5h-30l14 88h37q36 0 36 26q0 9 -5.5 15t-19.5 6q-11 0 -20.5 -6.5t-13.5 -23.5h-144q10 68 59 105t135 37q28 0 57.5 -5t53.5 -17t39 -33t15 -53q0 -38 -22.5 -61t-58.5 -33
q31 -7 49.5 -25t18.5 -53q0 -34 -14.5 -58t-39.5 -39.5t-58 -22.5t-70 -7z" />
    <glyph glyph-name="four.sub" horiz-adv-x="434" 
d="M152 -66h-194l10 62l199 261h198l-34 -216h49l-17 -107h-49l-11 -70h-162zM175 41l17 106l-78 -106h61z" />
    <glyph glyph-name="five.sub" horiz-adv-x="400" 
d="M156 -144q-34 0 -67 7t-58.5 23t-42 42.5t-17.5 64.5h155q1 -7 6 -12.5t19 -5.5q10 0 18.5 7t8.5 23q0 25 -26 25q-11 0 -18 -6t-11 -15h-135l54 248h314l-18 -114h-202l-16 -73q14 20 39.5 38t72.5 18q49 0 79.5 -25.5t30.5 -79.5q0 -43 -13.5 -74t-38.5 -51.5t-59 -30
t-75 -9.5z" />
    <glyph glyph-name="six.sub" horiz-adv-x="428" 
d="M183 -144q-42 0 -78 9t-62.5 29t-41.5 51.5t-15 76.5q0 11 1 23.5t3 25.5l2 12q7 42 26 75t47.5 56.5t65.5 36t80 12.5q35 0 66 -6.5t54.5 -21.5t37.5 -40.5t15 -63.5h-152q-2 8 -6.5 12.5t-17.5 4.5q-21 0 -33 -20t-18 -50q13 16 35 27.5t57 11.5q52 0 86.5 -25.5
t34.5 -79.5q0 -41 -15 -70.5t-40.5 -48.5t-59.5 -28t-72 -9zM153 -8q0 -11 6 -19.5t21 -8.5q14 0 22.5 9.5t8.5 26.5q0 12 -6.5 20t-20.5 8q-13 0 -22 -9.5t-9 -26.5z" />
    <glyph glyph-name="seven.sub" horiz-adv-x="382" 
d="M140 128h-140l21 129h352l-3 -18l-203 -375h-169z" />
    <glyph glyph-name="eight.sub" horiz-adv-x="415" 
d="M169 -144q-35 0 -70 5.5t-63 18t-45.5 34.5t-17.5 55q0 46 23 69t63 36q-20 11 -33 27.5t-13 40.5q0 34 15.5 57t40.5 37t56.5 20.5t63.5 6.5q34 0 65.5 -6t56 -19t39 -34t14.5 -50q0 -36 -15 -59.5t-50 -33.5q30 -11 44.5 -32t14.5 -45q0 -38 -17 -62.5t-44.5 -39
t-61 -20.5t-66.5 -6zM167 -36q14 0 23.5 8t9.5 23q0 11 -7.5 19t-21.5 8t-23.5 -8t-9.5 -24q0 -11 7.5 -18.5t21.5 -7.5zM184 103q13 0 22 8t9 22q0 12 -8 19t-20 7q-11 0 -20.5 -7.5t-9.5 -22.5q0 -11 7 -18.5t20 -7.5z" />
    <glyph glyph-name="nine.sub" horiz-adv-x="428" 
d="M184 263q42 0 77.5 -9t61 -29t40 -51.5t14.5 -76.5q0 -11 -1 -23.5t-3 -25.5l-2 -12q-14 -87 -66.5 -133.5t-152.5 -46.5q-35 0 -65.5 6.5t-54 22t-37.5 40.5t-16 62h152q2 -8 6.5 -12t17.5 -4q40 0 51 70q-13 -16 -35 -27.5t-57 -11.5q-52 0 -86.5 25.5t-34.5 81.5
q0 40 15.5 69t42 48t61 28t72.5 9zM210 127q0 11 -6 19.5t-21 8.5q-14 0 -22.5 -9.5t-8.5 -26.5q0 -12 6.5 -20t20.5 -8q13 0 22 9.5t9 26.5z" />
    <glyph glyph-name="plus.sub" horiz-adv-x="367" 
d="M85 12h-94l18 113h94l16 96h115l-16 -96h94l-18 -113h-94l-15 -95h-115z" />
    <glyph glyph-name="minus.sub" horiz-adv-x="367" 
d="M9 125h303l-18 -113h-303z" />
    <glyph glyph-name="zero.sup" horiz-adv-x="459" 
d="M227 548q0 -24 8 -37.5t31 -13.5q18 0 28.5 12t16.5 29.5t8 36t2 31.5q0 25 -8.5 37.5t-30.5 12.5q-18 0 -28.5 -12.5t-16.5 -29.5t-8 -35.5t-2 -30.5zM258 372q-42 0 -78 10.5t-62.5 31.5t-41 53t-14.5 74q0 52 16 95.5t45.5 75t72 49.5t95.5 18q42 0 77.5 -10.5
t62 -31.5t41 -52.5t14.5 -73.5q0 -53 -15.5 -97t-45 -75.5t-72 -49t-95.5 -17.5z" />
    <glyph glyph-name="one.sup" horiz-adv-x="315" 
d="M151 611l-89 -42l21 134l119 70h142l-63 -393h-167z" />
    <glyph glyph-name="two.sup" horiz-adv-x="388" 
d="M21 400l149 133q13 11 28.5 25t29.5 28.5t23.5 27.5t9.5 23q0 22 -19 22q-12 0 -21.5 -10.5t-14.5 -35.5h-152q12 86 66 126t135 40q35 0 66 -6t54.5 -20.5t37 -38t13.5 -57.5q0 -42 -29 -77.5t-77 -73.5l-11 -9h93l-19 -117h-366z" />
    <glyph glyph-name="three.sup" horiz-adv-x="406" 
d="M236 372q-84 0 -134 34t-51 111h146q0 -32 31 -32q9 0 18 5.5t9 20.5q0 10 -8.5 15.5t-28.5 5.5h-30l14 88h37q36 0 36 26q0 9 -5.5 15t-19.5 6q-11 0 -20.5 -6.5t-13.5 -23.5h-144q10 68 59 105t135 37q28 0 57.5 -5t53.5 -17t39 -33t15 -53q0 -38 -22.5 -61t-58.5 -33
q31 -7 49.5 -25t18.5 -53q0 -34 -14.5 -58t-39.5 -39.5t-58 -22.5t-70 -7z" />
    <glyph glyph-name="four.sup" horiz-adv-x="434" 
d="M228 450h-194l10 62l199 261h198l-34 -216h49l-17 -107h-49l-11 -70h-162zM251 557l17 106l-78 -106h61z" />
    <glyph glyph-name="five.sup" horiz-adv-x="400" 
d="M232 372q-34 0 -67 7t-58.5 23t-42 42.5t-17.5 64.5h155q1 -7 6 -12.5t19 -5.5q10 0 18.5 7t8.5 23q0 25 -26 25q-11 0 -18 -6t-11 -15h-135l54 248h314l-18 -114h-202l-16 -73q14 20 39.5 38t72.5 18q49 0 79.5 -25.5t30.5 -79.5q0 -43 -13.5 -74t-38.5 -51.5t-59 -30
t-75 -9.5z" />
    <glyph glyph-name="six.sup" horiz-adv-x="428" 
d="M259 372q-42 0 -78 9t-62.5 29t-41.5 51.5t-15 76.5q0 11 1 23.5t3 25.5l2 12q7 42 26 75t47.5 56.5t65.5 36t80 12.5q35 0 66 -6.5t54.5 -21.5t37.5 -40.5t15 -63.5h-152q-2 8 -6.5 12.5t-17.5 4.5q-21 0 -33 -20t-18 -50q13 16 35 27.5t57 11.5q52 0 86.5 -25.5
t34.5 -79.5q0 -41 -15 -70.5t-40.5 -48.5t-59.5 -28t-72 -9zM229 508q0 -11 6 -19.5t21 -8.5q14 0 22.5 9.5t8.5 26.5q0 12 -6.5 20t-20.5 8q-13 0 -22 -9.5t-9 -26.5z" />
    <glyph glyph-name="seven.sup" horiz-adv-x="382" 
d="M215 644h-140l21 129h352l-3 -18l-203 -375h-169z" />
    <glyph glyph-name="eight.sup" horiz-adv-x="415" 
d="M244 372q-35 0 -70 5.5t-63 18t-45.5 34.5t-17.5 55q0 46 23 69t63 36q-20 11 -33 27.5t-13 40.5q0 34 15.5 57t40.5 37t56.5 20.5t63.5 6.5q34 0 65.5 -6t56 -19t39 -34t14.5 -50q0 -36 -15 -59.5t-50 -33.5q30 -11 44.5 -32t14.5 -45q0 -38 -17 -62.5t-44.5 -39
t-61 -20.5t-66.5 -6zM242 480q14 0 23.5 8t9.5 23q0 11 -7.5 19t-21.5 8t-23.5 -8t-9.5 -24q0 -11 7.5 -18.5t21.5 -7.5zM259 619q13 0 22 8t9 22q0 12 -8 19t-20 7q-11 0 -20.5 -7.5t-9.5 -22.5q0 -11 7 -18.5t20 -7.5z" />
    <glyph glyph-name="nine.sup" horiz-adv-x="428" 
d="M260 779q42 0 77.5 -9t61 -29t40 -51.5t14.5 -76.5q0 -11 -1 -23.5t-3 -25.5l-2 -12q-14 -87 -66.5 -133.5t-152.5 -46.5q-35 0 -65.5 6.5t-54 22t-37.5 40.5t-16 62h152q2 -8 6.5 -12t17.5 -4q40 0 51 70q-13 -16 -35 -27.5t-57 -11.5q-52 0 -86.5 25.5t-34.5 81.5
q0 40 15.5 69t42 48t61 28t72.5 9zM286 643q0 11 -6 19.5t-21 8.5q-14 0 -22.5 -9.5t-8.5 -26.5q0 -12 6.5 -20t20.5 -8q13 0 22 9.5t9 26.5z" />
    <glyph glyph-name="plus.sup" horiz-adv-x="367" 
d="M154 529h-94l18 113h94l15 96h115l-15 -96h94l-18 -113h-94l-15 -95h-115z" />
    <glyph glyph-name="minus.sup" horiz-adv-x="367" 
d="M78 642h303l-18 -113h-303z" />
    <glyph glyph-name="a.alt" horiz-adv-x="647" 
d="M591 166q-8 -51 -11 -91.5t0 -74.5h-227q-4 15 -4.5 39t-0.5 45q-28 -47 -65.5 -72.5t-91.5 -25.5q-80 0 -129.5 56t-49.5 164q0 82 20.5 144.5t54.5 104.5t78.5 63t92.5 21q57 0 95.5 -24.5t52.5 -66.5l12 75h229zM328 373q-35 0 -58.5 -38t-23.5 -104q0 -36 13 -56.5
t42 -20.5q19 0 34 11.5t26 31t17 45.5t6 55q0 76 -56 76z" />
    <glyph glyph-name="t.alt" horiz-adv-x="404" 
d="M91 374h-67l23 149h67l17 104h229l-17 -104h86l-23 -149h-86l-59 -374h-229z" />
    <glyph glyph-name="germandbls.alt" horiz-adv-x="723" 
d="M483 -9q-47 0 -88 9t-71 29.5t-46.5 55t-14.5 85.5h178q-2 -25 6 -33.5t18 -8.5q21 0 21 27q0 18 -20.5 27t-54.5 29q-18 10 -35 22.5t-30.5 28.5t-22 35t-8.5 43q0 41 21 70t45.5 51.5t45.5 42t21 41.5q0 23 -15.5 34t-44.5 11q-32 0 -54.5 -17t-29.5 -60l-80 -513h-229
l81 517q10 65 38 110.5t70 74.5t96.5 42.5t119.5 13.5q50 0 99 -9t87.5 -29.5t62 -54.5t23.5 -85q0 -45 -22 -76t-49 -52.5t-49 -35.5t-22 -25q0 -5 2 -9t9 -9t18.5 -12.5t31.5 -19.5q25 -16 45 -32.5t34.5 -36t22.5 -43t8 -54.5q0 -45 -16 -79.5t-44.5 -58t-69 -35
t-88.5 -11.5z" />
    <glyph glyph-name="aacute.alt" horiz-adv-x="647" 
d="M591 166q-8 -51 -11 -91.5t0 -74.5h-227q-4 15 -4.5 39t-0.5 45q-28 -47 -65.5 -72.5t-91.5 -25.5q-80 0 -129.5 56t-49.5 164q0 82 20.5 144.5t54.5 104.5t78.5 63t92.5 21q57 0 95.5 -24.5t52.5 -66.5l12 75h229zM328 373q-35 0 -58.5 -38t-23.5 -104q0 -36 13 -56.5
t42 -20.5q19 0 34 11.5t26 31t17 45.5t6 55q0 76 -56 76zM345 743h219l-127 -175h-163z" />
    <glyph glyph-name="abreve.alt" horiz-adv-x="647" 
d="M591 166q-8 -51 -11 -91.5t0 -74.5h-227q-4 15 -4.5 39t-0.5 45q-28 -47 -65.5 -72.5t-91.5 -25.5q-80 0 -129.5 56t-49.5 164q0 82 20.5 144.5t54.5 104.5t78.5 63t92.5 21q57 0 95.5 -24.5t52.5 -66.5l12 75h229zM328 373q-35 0 -58.5 -38t-23.5 -104q0 -36 13 -56.5
t42 -20.5q19 0 34 11.5t26 31t17 45.5t6 55q0 76 -56 76zM370 570q-85 0 -131 44.5t-43 127.5h133q2 -40 43 -40q20 0 32.5 10.5t14.5 29.5h135q-12 -86 -59.5 -129t-124.5 -43z" />
    <glyph glyph-name="acircumflex.alt" horiz-adv-x="647" 
d="M591 166q-8 -51 -11 -91.5t0 -74.5h-227q-4 15 -4.5 39t-0.5 45q-28 -47 -65.5 -72.5t-91.5 -25.5q-80 0 -129.5 56t-49.5 164q0 82 20.5 144.5t54.5 104.5t78.5 63t92.5 21q57 0 95.5 -24.5t52.5 -66.5l12 75h229zM328 373q-35 0 -58.5 -38t-23.5 -104q0 -36 13 -56.5
t42 -20.5q19 0 34 11.5t26 31t17 45.5t6 55q0 76 -56 76zM312 743h155l102 -172h-152l-42 46l-54 -46h-161z" />
    <glyph glyph-name="adieresis.alt" horiz-adv-x="647" 
d="M591 166q-8 -51 -11 -91.5t0 -74.5h-227q-4 15 -4.5 39t-0.5 45q-28 -47 -65.5 -72.5t-91.5 -25.5q-80 0 -129.5 56t-49.5 164q0 82 20.5 144.5t54.5 104.5t78.5 63t92.5 21q57 0 95.5 -24.5t52.5 -66.5l12 75h229zM328 373q-35 0 -58.5 -38t-23.5 -104q0 -36 13 -56.5
t42 -20.5q19 0 34 11.5t26 31t17 45.5t6 55q0 76 -56 76zM261 552q-21 0 -40 7.5t-32.5 21t-21.5 31.5t-8 39t8 39t21.5 31.5t32.5 21t40 7.5t40 -7.5t33 -21t22 -31.5t8 -39t-8 -39t-22 -31.5t-33 -21t-40 -7.5zM486 552q-21 0 -39.5 7.5t-32 21t-21.5 31.5t-8 39t8 39
t21.5 31.5t32 21t39.5 7.5q44 0 73.5 -28.5t29.5 -70.5t-29.5 -70.5t-73.5 -28.5z" />
    <glyph glyph-name="agrave.alt" horiz-adv-x="647" 
d="M591 166q-8 -51 -11 -91.5t0 -74.5h-227q-4 15 -4.5 39t-0.5 45q-28 -47 -65.5 -72.5t-91.5 -25.5q-80 0 -129.5 56t-49.5 164q0 82 20.5 144.5t54.5 104.5t78.5 63t92.5 21q57 0 95.5 -24.5t52.5 -66.5l12 75h229zM328 373q-35 0 -58.5 -38t-23.5 -104q0 -36 13 -56.5
t42 -20.5q19 0 34 11.5t26 31t17 45.5t6 55q0 76 -56 76zM195 743h217l36 -175h-158z" />
    <glyph glyph-name="amacron.alt" horiz-adv-x="647" 
d="M591 166q-8 -51 -11 -91.5t0 -74.5h-227q-4 15 -4.5 39t-0.5 45q-28 -47 -65.5 -72.5t-91.5 -25.5q-80 0 -129.5 56t-49.5 164q0 82 20.5 144.5t54.5 104.5t78.5 63t92.5 21q57 0 95.5 -24.5t52.5 -66.5l12 75h229zM328 373q-35 0 -58.5 -38t-23.5 -104q0 -36 13 -56.5
t42 -20.5q19 0 34 11.5t26 31t17 45.5t6 55q0 76 -56 76zM221 712h331l-19 -119h-331z" />
    <glyph glyph-name="aogonek.alt" horiz-adv-x="647" 
d="M591 166q-8 -48 -11 -86t-1 -70q-17 -17 -30.5 -33t-13.5 -32q0 -20 25 -20q8 0 18 2l-15 -93q-14 -6 -35 -11t-52 -5q-23 0 -44.5 3.5t-38 12.5t-27 24t-10.5 38q0 21 9.5 38t24 30t32.5 22t35 14h-104q-4 15 -4.5 39t-0.5 45q-28 -47 -65.5 -72.5t-91.5 -25.5
q-80 0 -129.5 56t-49.5 164q0 82 20.5 144.5t54.5 104.5t78.5 63t92.5 21q57 0 95.5 -24.5t52.5 -66.5l12 75h229zM328 373q-35 0 -58.5 -38t-23.5 -104q0 -36 13 -56.5t42 -20.5q19 0 34 11.5t26 31t17 45.5t6 55q0 76 -56 76z" />
    <glyph glyph-name="aring.alt" horiz-adv-x="647" 
d="M591 166q-8 -51 -11 -91.5t0 -74.5h-227q-4 15 -4.5 39t-0.5 45q-28 -47 -65.5 -72.5t-91.5 -25.5q-80 0 -129.5 56t-49.5 164q0 82 20.5 144.5t54.5 104.5t78.5 63t92.5 21q57 0 95.5 -24.5t52.5 -66.5l12 75h229zM328 373q-35 0 -58.5 -38t-23.5 -104q0 -36 13 -56.5
t42 -20.5q19 0 34 11.5t26 31t17 45.5t6 55q0 76 -56 76zM371 641q19 0 30.5 13t11.5 33t-11.5 33t-30.5 13t-30.5 -13t-11.5 -33t11.5 -33t30.5 -13zM371 567q-26 0 -48.5 9.5t-39 26t-26.5 38t-10 46.5t10 46.5t26.5 38t39 26t48.5 9.5q25 0 48 -9.5t39.5 -26t26.5 -38
t10 -46.5t-10 -46.5t-26.5 -38t-39.5 -26t-48 -9.5z" />
    <glyph glyph-name="aringacute.alt" horiz-adv-x="647" 
d="M591 166q-8 -51 -11 -91.5t0 -74.5h-227q-4 15 -4.5 39t-0.5 45q-28 -47 -65.5 -72.5t-91.5 -25.5q-80 0 -129.5 56t-49.5 164q0 82 20.5 144.5t54.5 104.5t78.5 63t92.5 21q57 0 95.5 -24.5t52.5 -66.5l12 75h229zM328 373q-35 0 -58.5 -38t-23.5 -104q0 -36 13 -56.5
t42 -20.5q19 0 34 11.5t26 31t17 45.5t6 55q0 76 -56 76zM371 641q19 0 30.5 13t11.5 33t-11.5 33t-30.5 13t-30.5 -13t-11.5 -33t11.5 -33t30.5 -13zM371 567q-26 0 -48.5 9.5t-39 26t-26.5 38t-10 46.5t10 46.5t26.5 38t39 26t48.5 9.5q25 0 48 -9.5t39.5 -26t26.5 -38
t10 -46.5t-10 -46.5t-26.5 -38t-39.5 -26t-48 -9.5zM361 985h229l-118 -155h-173z" />
    <glyph glyph-name="atilde.alt" horiz-adv-x="647" 
d="M591 166q-8 -51 -11 -91.5t0 -74.5h-227q-4 15 -4.5 39t-0.5 45q-28 -47 -65.5 -72.5t-91.5 -25.5q-80 0 -129.5 56t-49.5 164q0 82 20.5 144.5t54.5 104.5t78.5 63t92.5 21q57 0 95.5 -24.5t52.5 -66.5l12 75h229zM328 373q-35 0 -58.5 -38t-23.5 -104q0 -36 13 -56.5
t42 -20.5q19 0 34 11.5t26 31t17 45.5t6 55q0 76 -56 76zM439 570q-24 0 -41 4.5t-31 10t-25 10t-23 4.5q-11 0 -18.5 -7.5t-10.5 -18.5h-116q14 92 51 134t88 42q22 0 39.5 -4.5t31.5 -10t27 -10t26 -4.5t19 7t10 19h116q-7 -46 -21 -79t-33 -54.5t-42 -32t-47 -10.5z" />
    <glyph glyph-name="tbar.alt" horiz-adv-x="404" 
d="M17 329h67l7 45h-67l23 149h67l17 104h229l-17 -104h86l-23 -149h-86l-7 -45h86l-19 -119h-86l-33 -210h-229l33 210h-67z" />
    <glyph glyph-name="tcaron.alt" horiz-adv-x="404" 
d="M91 374h-67l23 149h67l17 104h229l-17 -104h86l-23 -149h-86l-59 -374h-229zM416 743h153l-77 -174h-110z" />
    <glyph glyph-name="tcommaaccent.alt" horiz-adv-x="404" 
d="M1 -209l41 173h197l-114 -200zM91 374h-67l23 149h67l17 104h229l-17 -104h86l-23 -149h-86l-59 -374h-229z" />
    <glyph glyph-name="uni021B.alt" horiz-adv-x="404" 
d="M1 -209l41 173h197l-114 -200zM91 374h-67l23 149h67l17 104h229l-17 -104h86l-23 -149h-86l-59 -374h-229z" />
    <glyph glyph-name="f.short" horiz-adv-x="406" 
d="M108 523l8 48q9 51 31 86.5t54.5 58t73.5 32.5t86 10q40 0 62.5 -4t42.5 -11l-26 -164q-10 3 -19 5t-25 2q-26 0 -39 -11t-17 -30l-4 -22h95l-23 -149h-95l-59 -374h-228l59 374h-61l23 149h61z" />
    <glyph glyph-name="f_f.short" horiz-adv-x="761" 
d="M440 374h-127l-59 -374h-228l59 374h-61l23 149h61l6 37q8 51 30 86.5t54 58t72 32.5t84 10q37 0 60 -4t43 -11l-26 -163q-10 3 -18.5 4.5t-22.5 1.5q-24 0 -36 -9.5t-16 -31.5l-2 -11h127l8 48q8 51 30 86.5t55 58t74 32.5t86 10q40 0 62.5 -4t42.5 -11l-26 -164
q-10 3 -19 5t-25 2q-26 0 -39 -11t-17 -30l-4 -22h95l-23 -149h-95l-59 -374h-228z" />
    <glyph glyph-name="questiondown.uc" horiz-adv-x="591" 
d="M457 453q-7 -35 -24.5 -61.5t-39.5 -47.5t-45.5 -38t-43.5 -33t-32.5 -32.5t-12.5 -35.5q2 -31 34 -31q20 0 33.5 15.5t21.5 50.5h224q-8 -65 -35 -112t-68.5 -78t-94 -46t-112.5 -15q-126 0 -189.5 49t-63.5 138q0 41 13.5 72t34.5 55t47.5 43t52 37t48 36t35.5 41l1 3
h218zM376 729q27 0 49 -9t38.5 -24.5t25.5 -37t9 -45.5t-9.5 -46t-26.5 -38t-39.5 -25.5t-49.5 -9.5t-49.5 9t-39 25t-26 37.5t-9.5 45.5t10 45.5t27 37.5t40 25.5t50 9.5z" />
    <glyph glyph-name="exclamdown.uc" horiz-adv-x="358" 
d="M233 729q27 0 49 -9t38.5 -24.5t25.5 -37t9 -45.5t-9.5 -46t-26.5 -38t-39.5 -25.5t-49.5 -9.5t-49.5 9t-39 25t-26 37.5t-9.5 45.5t10 45.5t27 37.5t40 25.5t50 9.5zM266 0h-258l107 463h192z" />
    <glyph glyph-name="hyphen.uc" horiz-adv-x="426" 
d="M69 413h334l-28 -175h-334z" />
    <glyph glyph-name="endash.uc" horiz-adv-x="548" 
d="M66 392h456l-20 -123h-456z" />
    <glyph glyph-name="emdash.uc" horiz-adv-x="978" 
d="M66 392h886l-20 -123h-886z" />
    <glyph glyph-name="guilsinglleft.uc" horiz-adv-x="299" 
d="M20 309l149 190h146l-146 -191l80 -205h-136z" />
    <glyph glyph-name="guilsinglright.uc" horiz-adv-x="299" 
d="M285 293l-149 -190h-146l146 191l-80 205h136z" />
    <glyph glyph-name="guillemotleft.uc" horiz-adv-x="470" 
d="M20 307l138 192h136l-137 -193l88 -203h-129zM203 304l138 195h136l-137 -199l83 -197h-129z" />
    <glyph glyph-name="guillemotright.uc" horiz-adv-x="470" 
d="M459 295l-138 -192h-136l137 193l-88 203h129zM276 298l-138 -195h-136l137 199l-83 197h129z" />
    <glyph glyph-name="parenleft.uc" horiz-adv-x="373" 
d="M137 -98q-19 27 -38.5 61.5t-35 76.5t-25.5 93.5t-10 113.5q0 161 68 296.5t186 242.5h175q-50 -69 -90 -134t-68 -132t-43 -139t-15 -154q0 -103 20 -185t45 -140h-169z" />
    <glyph glyph-name="parenright.uc" horiz-adv-x="373" 
d="M255 786q19 -27 38 -61.5t35 -76.5t26 -93.5t10 -113.5q0 -161 -68 -296.5t-186 -242.5h-175q50 69 90 134t68 132t43 138.5t15 154.5q0 103 -20 185t-45 140h169z" />
    <glyph glyph-name="bracketleft.uc" horiz-adv-x="437" 
d="M136 786h348l-26 -164h-117l-88 -556h117l-26 -164h-348z" />
    <glyph glyph-name="bracketright.uc" horiz-adv-x="437" 
d="M4 66h115l88 556h-115l26 164h346l-140 -884h-346z" />
    <glyph glyph-name="braceleft.uc" horiz-adv-x="437" 
d="M344 -98q-82 0 -140.5 16.5t-92 48t-41 78.5t12.5 107l18 54q23 63 -74 69l25 157q52 0 72 14.5t20 45.5v54q0 69 20 115t61.5 74t105.5 39.5t153 11.5l-26 -165q-50 -4 -67.5 -21t-19.5 -57l-4 -70q-6 -107 -124 -128q57 -14 78 -50.5t4 -90.5l-20 -67
q-11 -37 2.5 -51.5t62.5 -18.5l-26 -165v0z" />
    <glyph glyph-name="braceright.uc" horiz-adv-x="437" 
d="M117 786q82 0 140.5 -16.5t92 -48t41 -78.5t-12.5 -107l-18 -54q-23 -63 74 -69l-25 -157q-52 0 -72 -14.5t-20 -45.5v-54q0 -69 -20 -115t-61.5 -74t-106 -39.5t-152.5 -11.5l26 165q50 4 67.5 21t19.5 57l4 70q6 107 124 128q-57 14 -78 50.5t-4 90.5l20 67
q11 37 -2.5 51.5t-62.5 18.5l26 165v0z" />
    <glyph glyph-name="slash.uc" horiz-adv-x="450" 
d="M357 776h181l-422 -860h-180z" />
    <glyph glyph-name="backslash.uc" horiz-adv-x="460" 
d="M59 776h170l194 -860h-170z" />
    <glyph glyph-name="bar.uc" horiz-adv-x="275" 
d="M73 776h155v-860h-155v860z" />
    <glyph glyph-name="at.uc" horiz-adv-x="930" 
d="M479 -92q-102 0 -183.5 31.5t-139 86.5t-88 130t-30.5 163q0 103 39 185t103.5 140t149 89t175.5 31q87 0 163 -25t132 -72t88.5 -114t32.5 -152q0 -77 -19.5 -130.5t-52.5 -88t-76.5 -50t-90.5 -15.5q-64 0 -103.5 19t-51.5 60q-20 -38 -54 -58.5t-85 -20.5
q-68 0 -109 47.5t-43 129.5q0 57 16 103.5t44 79t65.5 50.5t81.5 18t67 -15.5t34 -39.5l9 47h180l-46 -283q-5 -27 3 -43.5t34 -16.5q20 0 40.5 11.5t36.5 37t26 65.5t10 97q0 64 -24 117.5t-68 91t-105.5 58.5t-136.5 21q-78 0 -146.5 -26t-119.5 -75t-80.5 -118.5
t-29.5 -157.5q0 -73 22.5 -135t67 -107t111.5 -70t156 -25q45 0 86 8t76 21t62 30t44 34h98q-27 -38 -66.5 -68t-87.5 -51.5t-103 -33t-114 -11.5zM462 262q13 0 24 8t19 21t12 30.5t4 36.5q0 20 -10 33t-32 13q-24 0 -41.5 -26t-16.5 -69q0 -21 9.5 -34t31.5 -13z" />
    </font>
</defs>
</svg>
